<?xml version="1.0" encoding="UTF-8"?>
<svg viewBox="0 0 128 172.30072" xmlns="http://www.w3.org/2000/svg" xmlns:xlink="http://www.w3.org/1999/xlink">
 <defs>
  <linearGradient id="b">
   <stop stop-color="#204a87" offset="0"/>
   <stop stop-color="#204a87" stop-opacity="0" offset="1"/>
  </linearGradient>
  <linearGradient id="a">
   <stop stop-color="#d3d7cf" offset="0"/>
   <stop stop-color="#babdb6" offset=".22953"/>
   <stop stop-color="#eeeeec" offset="1"/>
  </linearGradient>
  <linearGradient id="k" x1="240.4" x2="254.56" y1="514.1" y2="553.85" gradientUnits="userSpaceOnUse">
   <stop stop-color="#729fcf" offset="0"/>
   <stop stop-color="#204a87" offset="1"/>
  </linearGradient>
  <linearGradient id="f" x1="245.12" x2="269.25" gradientUnits="userSpaceOnUse">
   <stop stop-color="#d3d7cf" offset="0"/>
   <stop stop-color="#d3d7cf" stop-opacity="0" offset="1"/>
  </linearGradient>
  <linearGradient id="e" x1="357.41" x2="335" y1="442.6" y2="491.35" gradientUnits="userSpaceOnUse">
   <stop stop-color="#bdd2e8" offset="0"/>
   <stop stop-color="#bdd2e8" stop-opacity="0" offset="1"/>
  </linearGradient>
  <linearGradient id="h" x1="227.5" x2="243.12" y1="510.36" y2="506.05" gradientTransform="matrix(-2.4531 0 0 2.4531 1002.6 -822.3)" gradientUnits="userSpaceOnUse" xlink:href="#a"/>
  <linearGradient id="i" x1="331.27" x2="369.6" y1="429.68" y2="419.1" gradientUnits="userSpaceOnUse" xlink:href="#a"/>
  <linearGradient id="j" x1="248.36" x2="236.87" y1="600.86" y2="580.3" gradientUnits="userSpaceOnUse" xlink:href="#b"/>
  <linearGradient id="g" x1="348.31" x2="434.78" gradientUnits="userSpaceOnUse" xlink:href="#a"/>
  <linearGradient id="d" x1="422.91" x2="442.07" y1="523.59" y2="501.47" gradientUnits="userSpaceOnUse" xlink:href="#b"/>
  <radialGradient id="c" cx="243.12" cy="588.49" r="12.375" gradientTransform="matrix(1.5179 -4.0661e-6 2.6788e-6 1 -125.92 .00103)" gradientUnits="userSpaceOnUse">
   <stop stop-color="#eeeeec" offset="0"/>
   <stop stop-color="#babdb6" offset="1"/>
  </radialGradient>
 </defs>
 <g transform="translate(-323.91 -392.3)">
  <path transform="matrix(-2.4531 0 0 2.4531 988.1 -852.97)" d="m269.25 571.86c0 3.3137-10.801 6-24.125 6s-24.125-2.6863-24.125-6 10.801-6 24.125-6 24.125 2.6863 24.125 6z" fill="url(#f)"/>
  <path d="m391.54 393.53c-23.201 0-42.01 17.436-42.01 38.943s18.808 38.943 42.01 38.943 42.01-17.436 42.01-38.943-18.808-38.943-42.01-38.943zm0 11.576c16.29 0 29.514 12.266 29.514 27.368s-13.224 27.291-29.514 27.291-29.514-12.19-29.514-27.291 13.224-27.368 29.514-27.368z" fill="url(#g)" stroke="#babdb6" stroke-linejoin="round" stroke-width="2.4531"/>
  <path d="m419.66 521.06c2.9361 0.29251 5.6955 2.0253 7.2061 4.8296l4.1396 17.938c1.7938 3.3302 3.645 5.9988 2.6831 8.126h-10.196c-0.52608-0.96756-1.0823-2.0214-1.6865-3.1431l-12.726-13.339c-2.4169-4.4868-0.7305-10.002 3.7564-12.419l1.6099-0.91992c1.6826-0.90634 3.4512-1.2487 5.2129-1.0732z" fill="#2e3436"/>
  <path d="m351.59 521.06c-2.9361 0.29251-5.6955 2.0253-7.206 4.8296l-4.1396 17.938c-1.7938 3.3302-3.645 5.9988-2.6831 8.126h10.196c0.52608-0.96756 1.0823-2.0214 1.6865-3.1431l12.726-13.339c2.4169-4.4868 0.73049-10.002-3.7564-12.419l-1.6099-0.91992c-1.6826-0.90634-3.4512-1.2487-5.2129-1.0732z" fill="#2e3436"/>
  <path transform="matrix(2.4531 0 0 2.4531 -226.81 -822.3)" d="m273.75 532.39c0 12.832-10.402 23.234-23.234 23.234s-23.234-10.402-23.234-23.234 10.402-23.234 23.234-23.234 23.234 10.402 23.234 23.234z" fill="url(#k)" stroke="#3465a4" stroke-linejoin="round"/>
  <path transform="matrix(3.5405 0 0 3.5405 -473.06 -1599.9)" d="m255 588.49c0 6.5584-5.3166 11.875-11.875 11.875s-11.875-5.3166-11.875-11.875 5.3166-11.875 11.875-11.875 11.875 5.3166 11.875 11.875z" fill="url(#c)" stroke="url(#j)"/>
  <g transform="matrix(2.4531 0 0 2.4531 -233.52 -695.29)" fill="#2e3436">
   <path d="m253.25 466.86a1 1 0 0 1 1 1v3.5a1 1 0 0 1 -1 1 1 1 0 0 1 -1 -1v-3.5a1 1 0 0 1 1 -1"/>
   <path d="m253.25 488.86a1 1 0 0 1 1 1v3.5a1 1 0 0 1 -1 1 1 1 0 0 1 -1 -1v-3.5a1 1 0 0 1 1 -1"/>
   <path transform="rotate(90)" d="m480.61-267a1 1 0 0 1 1 1v3.5a1 1 0 0 1 -1 1 1 1 0 0 1 -1 -1v-3.5a1 1 0 0 1 1 -1"/>
   <path transform="rotate(90)" d="m480.61-245a1 1 0 0 1 1 1v3.5a1 1 0 0 1 -1 1 1 1 0 0 1 -1 -1v-3.5a1 1 0 0 1 1 -1"/>
   <path transform="matrix(.86603,-.5,.5,.86603,0,0)" d="m-21.56471,531.56384h.90909a.54545,.54545 0 0,1 .54545.54545v1.90909a.54545,.54545 0 0,1 -.54545.54545h-.90909a.54545,.54545 0 0,1 -.54545-.54545v-1.90909a.54545,.54545 0 0,1 .54545-.54545"/>
   <path transform="matrix(.86603,-.5,.5,.86603,0,0)" d="m-21.56471,551.56384h.90909a.54545,.54545 0 0,1 .54545.54545v1.90909a.54545,.54545 0 0,1 -.54545.54545h-.90909a.54545,.54545 0 0,1 -.54545-.54545v-1.90909a.54545,.54545 0 0,1 .54545-.54545"/>
   <path transform="matrix(.5,-.86603,.86603,.5,0,0)" d="m-290.26842,448.25201h.90909a.54545,.54545 0 0,1 .54545.54545v1.90909a.54545,.54545 0 0,1 -.54545.54545h-.90909a.54545,.54545 0 0,1 -.54545-.54545v-1.90909a.54545,.54545 0 0,1 .54545-.54545"/>
   <path transform="matrix(.5,-.86603,.86603,.5,0,0)" d="m-290.26842,468.25201h.90909a.54545,.54545 0 0,1 .54545.54545v1.90909a.54545,.54545 0 0,1 -.54545.54545h-.90909a.54545,.54545 0 0,1 -.54545-.54545v-1.90909a.54545,.54545 0 0,1 .54545-.54545"/>
   <path transform="matrix(-.5,-.86603,.86603,-.5,0,0)" d="m-543.51839-32.61017h.90909a.54545,.54545 0 0,1 .54545.54545v1.90909a.54545,.54545 0 0,1 -.54545.54545h-.90909a.54545,.54545 0 0,1 -.54545-.54545v-1.90909a.54545,.54545 0 0,1 .54545-.54545"/>
   <path transform="matrix(-.5,-.86603,.86603,-.5,0,0)" d="m-543.51839-12.61017h.90909a.54545,.54545 0 0,1 .54545.54545v1.90909a.54545,.54545 0 0,1 -.54545.54545h-.90909a.54545,.54545 0 0,1 -.54545-.54545v-1.90909a.54545,.54545 0 0,1 .54545-.54545"/>
   <path transform="matrix(-.86603,-.5,.5,-.86603,0,0)" d="m-460.20653-301.31381h.90909a.54545,.54545 0 0,1 .54545.54545v1.90909a.54545,.54545 0 0,1 -.54545.54545h-.90909a.54545,.54545 0 0,1 -.54545-.54545v-1.90909a.54545,.54545 0 0,1 .54545-.54545"/>
   <path transform="matrix(-.86603,-.5,.5,-.86603,0,0)" d="m-460.20653-281.31381h.90909a.54545,.54545 0 0,1 .54545.54545v1.90909a.54545,.54545 0 0,1 -.54545.54545h-.90909a.54545,.54545 0 0,1 -.54545-.54545v-1.90909a.54545,.54545 0 0,1 .54545-.54545"/>
  </g>
  <path d="m371.72 510.71c0.43258 0.25824 1.0032 0.11407 1.2614-0.31837l14.263-23.894c1.4852 7e-3 2.9521-0.75763 3.7684-2.1252 1.2276-2.0565 0.5442-4.7641-1.5123-5.9917s-4.6982-0.5049-5.9259 1.5516c-0.82081 1.375-0.80595 3.0189-0.0822 4.3256l-14.263 23.894c-0.25825 0.43256-0.11408 1.0032 0.31836 1.2614l2.1722 1.2967z" fill="#c00"/>
  <path d="m391.37 505.85c0.49968-0.064 0.87513-0.40829 0.83026-0.76073l-2.4884-19.488c1.2019-0.69004 1.9357-1.7871 1.7933-2.9024-0.21416-1.6772-2.3495-2.8099-4.7252-2.5066s-4.0816 1.9269-3.8676 3.6038c0.14277 1.1215 1.1172 1.9962 2.4651 2.3587l2.4884 19.488c0.0454 0.35276 0.49507 0.59147 0.99474 0.52769l2.5094-0.32048z" fill="#c00"/>
  <path d="m340.39 410.75c-13.459 7.3518-18.9 23.554-12.718 36.902l50.641-27.662c-7.8909-12.415-24.464-16.592-37.923-9.24z" fill="url(#i)" stroke="#babdb6" stroke-width="2.4531"/>
  <path d="m435.43 410.75c13.459 7.3518 18.9 23.554 12.718 36.902l-50.641-27.662c7.8909-12.415 24.464-16.592 37.923-9.24z" fill="url(#h)" stroke="#babdb6" stroke-width="2.4531"/>
  <path d="m404.3 431.17c-26.364-10.053-55.892 3.1727-65.945 29.536-5.4892 14.395-4.0111 29.717 2.7288 42.311-3.623-11.478-3.5796-24.205 1.042-36.325 10.291-26.987 39.438-41.267 66.71-33.559-1.4642-0.72549-2.9774-1.3694-4.5355-1.9636z" fill="url(#e)"/>
  <path d="m372.77 535.71c26.364 10.053 55.892-3.1727 65.945-29.536 5.4892-14.395 4.0111-29.717-2.7288-42.311 3.623 11.478 3.5796 24.205-1.042 36.325-10.291 26.987-39.438 41.267-66.71 33.559 1.4642 0.72549 2.9774 1.3694 4.5355 1.9636z" fill="url(#d)"/>
  <path d="m348.65 411.15c-3.6839 0.12091-7.4284 1.0721-10.907 2.9723-11.131 6.0804-15.632 19.484-10.519 30.524l4.0836-2.2228c-2.6066-11.272 2.6502-23.474 13.569-29.439 1.3561-0.74077 2.7512-1.3414 4.1612-1.8351h-0.38769z" fill="#eeeeec"/>
  <path d="m443.93 423.42c-1.4803-3.3756-3.7541-6.499-6.8102-9.0232-9.7794-8.0773-23.896-7.2789-32.248 1.5685l3.5803 2.9662c9.4975-6.6061 22.78-6.2568 32.372 1.6663 1.1914 0.98402 2.2671 2.0563 3.2492 3.1821-0.0495-0.11839-0.0926-0.24219-0.14398-0.35996z" fill="#eeeeec"/>
 </g>
</svg>
