<?xml version="1.0" encoding="UTF-8"?>
<svg viewBox="0 0 744.09447 1052.362179" xmlns="http://www.w3.org/2000/svg" xmlns:xlink="http://www.w3.org/1999/xlink">
 <defs>
  <linearGradient id="b">
   <stop offset="0"/>
   <stop stop-opacity="0" offset="1"/>
  </linearGradient>
  <linearGradient id="a">
   <stop stop-color="#fff" offset="0"/>
   <stop stop-color="#fff" stop-opacity="0" offset="1"/>
  </linearGradient>
  <linearGradient id="r" x1="129.29" x2="100.71" y1="775.22" y2="772.36" gradientUnits="userSpaceOnUse" xlink:href="#a"/>
  <linearGradient id="q" x1="128.57" x2="100" y1="779.51" y2="776.65" gradientUnits="userSpaceOnUse" xlink:href="#a"/>
  <linearGradient id="p" x1="414.57" x2="379.57" gradientUnits="userSpaceOnUse" xlink:href="#a"/>
  <linearGradient id="c" x1="328.93" x2="302.5" y1="832.18" y2="831.46" gradientUnits="userSpaceOnUse" xlink:href="#a"/>
  <linearGradient id="o" x1="503.57" x2="470.71" y1="307.36" y2="308.79" gradientUnits="userSpaceOnUse" xlink:href="#a"/>
  <linearGradient id="n" x1="-4.2857" x2="-42.857" y1="326.65" y2="333.08" gradientTransform="matrix(.93761 0 0 1 191.52 15.714)" gradientUnits="userSpaceOnUse" xlink:href="#a"/>
  <linearGradient id="m" x1="712.16" x2="598.01" y1="674.57" y2="675.58" gradientUnits="userSpaceOnUse" xlink:href="#a"/>
  <linearGradient id="l" x1="376.79" x2="454.57" y1="318.99" y2="312.93" gradientUnits="userSpaceOnUse" xlink:href="#b"/>
  <linearGradient id="k" x1="48.571" x2="167.14" y1="378.08" y2="386.65" gradientUnits="userSpaceOnUse" xlink:href="#b"/>
  <linearGradient id="j" x1="300" x2="311.43" y1="730.93" y2="679.51" gradientUnits="userSpaceOnUse" xlink:href="#b"/>
  <linearGradient id="i" x1="398.57" x2="344.29" y1="275.22" y2="280.93" gradientUnits="userSpaceOnUse" xlink:href="#b"/>
  <linearGradient id="h" x1="710.71" x2="568.57" y1="574.51" y2="590.93" gradientUnits="userSpaceOnUse" xlink:href="#a"/>
  <linearGradient id="g" x1="677.81" x2="410.12" y1="555.37" y2="548.3" gradientUnits="userSpaceOnUse" xlink:href="#a"/>
  <linearGradient id="f" x1="227.14" x2="271.43" y1="659.51" y2="573.79" gradientUnits="userSpaceOnUse" xlink:href="#b"/>
  <linearGradient id="e" x1="210" x2="247.14" y1="670.93" y2="590.93" gradientUnits="userSpaceOnUse" xlink:href="#b"/>
  <radialGradient id="d" cx="364.67" cy="889.73" r="344.46" gradientTransform="matrix(1 0 0 .38416 0 547.93)" gradientUnits="userSpaceOnUse" xlink:href="#b"/>
 </defs>
 <path d="m709.13 889.73a344.46 132.33 0 1 1 -688.92 0 344.46 132.33 0 1 1 688.92 0z" fill="url(#d)"/>
 <g transform="translate(365.53 -53.837)">
  <path d="m290.42 721.03 18.183-2.0203 1.0102 260.62-12.122-1.0101z"/>
  <path d="m306.58 720.02 2.0203 258.6 6.0609-8.0813 7.0711-251.53z"/>
  <g transform="translate(-.36194,-.53077)" fill="url(#c)">
   <path d="m290.42 721.03 18.183-2.0203 1.0102 260.62-12.122-1.0101z"/>
   <path d="m306.58 720.02 2.0203 258.6 6.0609-8.0813 7.0711-251.53z"/>
  </g>
 </g>
 <g transform="translate(0 -5.7143)">
  <path d="m290.42 721.03 18.183-2.0203 1.0102 260.62-12.122-1.0101z"/>
  <path d="m306.58 720.02 2.0203 258.6 6.0609-8.0813 7.0711-251.53z"/>
  <g transform="translate(-.36194,-.53077)" fill="url(#c)">
   <path d="m290.42 721.03 18.183-2.0203 1.0102 260.62-12.122-1.0101z"/>
   <path d="m306.58 720.02 2.0203 258.6 6.0609-8.0813 7.0711-251.53z"/>
  </g>
 </g>
 <path d="m374.7 670.48 18.183-1.617c-0.95028 68.116 2.4998 136.23-24.244 204.35l-12.122-0.8085c14.886-67.307 22.137-134.61 18.183-201.92z"/>
 <path d="m391.87 669.87c3.9698 71.16-8.0699 138.76-28.284 204.55l19.193-5.4578c25.721-65.812 29.214-133.85 28.284-202.33z"/>
 <g transform="translate(-1.0008 17.547)" fill="url(#p)">
  <path d="m374.7 670.48 18.183-1.617c-0.95028 68.116 2.4998 136.23-24.244 204.35l-12.122-0.8085c14.886-67.307 22.137-134.61 18.183-201.92z"/>
  <path d="m391.87 669.87c3.9698 71.16-8.0699 138.76-28.284 204.55l19.193-5.4578c25.721-65.812 29.214-133.85 28.284-202.33z"/>
 </g>
 <path d="m98.49 671.33 18.183-1.617c-0.95028 68.116 2.4998 136.23-24.244 204.35l-12.122-0.80853c14.886-67.307 22.137-134.61 18.183-201.92z"/>
 <path d="m115.66 670.73c3.9698 71.16-8.0699 138.76-28.284 204.55l19.193-5.4578c25.721-65.812 29.214-133.85 28.284-202.33z"/>
 <path d="m97.272 676.6 18.183-1.617c-0.95028 68.116 2.4998 136.23-24.244 204.35l-12.122-0.80853c14.886-67.307 22.137-134.61 18.183-201.92z" fill="url(#q)"/>
 <path d="m115.16 671.7c3.9698 71.16-8.0699 138.76-28.284 204.55l19.193-5.4578c25.721-65.812 29.214-133.85 28.284-202.33z" fill="url(#r)"/>
 <path d="m137.14 642.36 164.29 54.286 390-55.714-291.43-112.86-270 48.571z" fill="#2b1100"/>
 <path d="m140.71 639.51 164.29 54.286 390-55.714-291.43-112.86-270 48.571z" fill="url(#e)"/>
 <path d="m295.71 720.93c135.57-5.133 264.83-26.025 392.86-50 4.2608-13.709 8.8523-27.485 0-38.571-130 15.105-260 31.11-390 50-44.474-16.421-94.581-28.335-148.57-37.143l2.8571 35.714c48.751 20.127 95.995 31.205 142.86 40z" fill="#803300"/>
 <path d="m90.914 668.5-47.477-540.43 74.751-32.325 34.345 589.93z" fill="#803300"/>
 <path d="m117.18 94.738 32.325 544.47 36.365-15.152c-4.1247-178.59-20.496-355.44-43.437-531.34z" fill="#f95"/>
 <path d="m479.13 114.94 14.832 410.12-38.139-3.0304-23.307-367.7 28.604-42.426z" fill="#f95"/>
 <path d="m463.66 110.9-29.294 44.447 23.234 369.72-58.589-3.0304c-12.177-109.18-19.807-221.29-36.098-328.4-0.55698-3.6621 0.3289-7.3958 0.56579-11.083 1.0472-16.297 3.0542-32.446 6.2375-48.411z" fill="#d45500"/>
 <path d="m146.47 126.05 221.22 9.0914 36.365 385.88-222.23 29.294z" fill="#f60"/>
 <path d="m151.21 124.52 221.22 9.0914 36.365 385.88-222.23 29.294z" fill="url(#i)"/>
 <path d="m478.75 115.25 14.832 410.12-38.139-3.0304-23.307-367.7 28.604-42.426z" fill="url(#o)"/>
 <path d="m117.8 94.708 30.308 544.47 34.097-15.152c-3.8673-178.59-19.217-355.44-40.726-531.34z" fill="url(#n)"/>
 <path d="m295.32 721.4c135.57-5.133 264.83-26.025 392.86-50 4.2608-13.709 8.8523-27.485 0-38.571-130 15.105-260 31.11-390 50-44.474-16.421-94.581-28.335-148.57-37.143l2.8571 35.714c48.751 20.127 95.995 31.205 142.86 40z" fill="url(#m)"/>
 <path d="m472.71 106.86-29.294 44.447 23.234 369.72-58.589-3.0304c-12.177-109.18-19.807-221.29-36.098-328.4-0.55698-3.6621 0.3289-7.3958 0.56579-11.083 1.0472-16.297 3.0542-32.446 6.2375-48.411z" fill="url(#l)"/>
 <path d="m90.072 668.73-47.477-540.43 74.751-32.325 34.345 589.93z" fill="url(#k)"/>
 <path d="m296.76 723.79c135.57-5.133 264.83-26.025 392.86-50 4.2608-13.709 8.8523-27.485 0-38.571-130 15.105-260 31.11-390 50-44.474-16.421-94.581-28.335-148.57-37.143l2.8571 35.714c48.751 20.127 95.995 31.205 142.86 40z" fill="url(#j)"/>
 <g transform="translate(1.4286 5.8334e-6)">
  <path d="m166.43 556.65c42.693 4.7177 84.914 12.742 125.71 30.714v71.429c-41.018 3.0898-83.521-10.157-126.43-27.857z" fill="#d45500"/>
  <path d="m292.14 588.08c132.38-18.328 264.76-29.512 397.14-36.429 5.0792 22.302 6.8781 43.947-1.4286 63.571-131.9 28.834-263.81 35.726-395.71 44.286z" fill="#f60"/>
  <path d="m291.43 587.36c131.03-15.968 263.42-27.827 397.14-35.714-77.818-32.311-186.24-26.364-283.57-34.286-80.975 7.1969-165.69-3.0667-239.29 38.571 43.266 6.3934 86.197 13.791 125.71 31.429z" fill="#ff7f2a"/>
  <path d="m293.56 588.43c132.38-18.328 264.76-29.512 397.14-36.429 5.0792 22.302 6.8781 43.947-1.4286 63.571-131.9 28.834-263.81 35.726-395.71 44.286z" fill="url(#h)"/>
  <path d="m291.58 587.34c131.03-15.968 263.42-27.827 397.14-35.714-77.818-32.311-186.24-26.364-283.57-34.286-80.975 7.1969-165.69-3.0667-239.29 38.571 43.266 6.3934 86.197 13.791 125.71 31.429z" fill="url(#g)"/>
  <path d="m167.5 559.64c42.693 4.7177 84.914 12.742 125.71 30.714v71.429c-41.018 3.0898-83.521-10.157-126.43-27.857z" fill="url(#f)"/>
 </g>
</svg>
