<?xml version="1.0" encoding="UTF-8"?>
<svg viewBox="0 0 640 480" xmlns="http://www.w3.org/2000/svg">
 <g transform="rotate(89.991 319.91 218.04)" fill-rule="evenodd">
  <path d="m373.72-25.222c-70.273 2.2751-117.95-2.2874-121.27-71.428-60.22 31.207-66.061 164.88-7.7875 210.91 9.5538-63.84 57.683-82.508 126.71-77.751-2.5324 157.64-12.244 333.56 7.0242 491.27 16.562 5.9454 45.73 9.6747 57.458-7.7962-37.147-86.559-24.75-344.98-17.759-481.38-0.90936-52.099-3.5596-62.772-44.376-63.83z" fill="#ab7339"/>
  <path d="m373.72-25.222c-70.273 2.2751-117.95-2.2874-121.27-71.428-60.22 31.207-66.061 164.88-7.7875 210.91 9.5538-63.84 58.742-83.19 126.71-77.751 7.1399 0.57134 38.966 31.785 45.237 30.698 0.57394-6.0445 0.93439-20.75 1.4864-28.6-0.90936-52.099-3.5596-62.772-44.376-63.83z" fill="#414141"/>
  <path d="m396.1-22.662c25.636 4.268 21.13 51.507 20.294 89.323-1.2059 54.508-23.591 330.24 18.977 453.28-18.676 24.093-53.553 6.4479-53.553 6.4479s39.552 3.6583 42.482-8.536c-36.432-76.433-17.175-450.64-17.919-456.7l-10.28-83.805zm8.7439 83.543s-28.002-23.312-33.696-24.244c-125.04-11.382-126.83 76.768-126.83 76.768s1.532-92.184 127.1-78.949c6.6992 0.7071 30.672 21.317 33.419 26.425zm-152.75-157.01c4.4023 41.389 22.27 57.34 41.951 64.67-25.637-7.1137-37.549-21.125-41.951-64.67z" opacity=".25"/>
  <path d="m252.61-96.406l2.8656 22.106c-4.6327 4.5537-4.6536 12.502-8.1318 18.719-3.4782 6.2169-10.414 10.702-12.762 18.084-2.348 7.3816-1.5735 15.526-2.8157 23.573-1.2422 8.0476-4.5011 15.999-4.6618 24.214-0.16069 8.2151 2.4106 16.389 3.307 24.273 0.89641 7.884 0.11795 15.478 2.0471 22.532 1.9292 7.0544 8.7633 11.435 11.701 17.161 2.9376 5.7261 1.9786 12.797 5.9003 16.697-0.48801 3.7572-5.7654 12.72-5.2201 23.328-58.725-46.595-51.325-180.52 7.7701-210.69z" fill="#a3a3a3"/>
  <path d="m252.35-96.582l1.0345 12.96c-47.389 30.179-66.293 134.14-8.8046 197.73-58.725-46.595-51.325-180.52 7.7701-210.69zm119.2 133.45c7.4495 4.7974-9.4328 184.17 7.2795 490.23-18.327-150.35-11.659-327.68-7.2795-490.23zm0.6983-4.5608c5.3132 0.31786 7.3847-49.85 0.77689-49.58 0.26181 4.7952-0.92261 43.55-0.77689 49.58z" fill="#fff" opacity=".5"/>
 </g>
</svg>
