<?xml version="1.0" encoding="UTF-8"?>
<svg viewBox="0 0 1141 801" xmlns="http://www.w3.org/2000/svg">
 <g fill-rule="evenodd">
  <path d="m171 709l1-1 37 5q37 5 39 6h7q4 1 5 1h1v16h-91v-13q0-13 1-14z" fill="#f6f6f6" stroke="#f6f6f6"/>
  <path d="m1044 139h1l-2 3q-1 2-2 4-1 3-1 16v14h23l-11 1h-21v-1h7v-16q0-15-1-16-1-2-1-3v-1l2 1q2 1 4 0 1-1 2-2z" fill="#9d8979" stroke="#9d8979"/>
  <path d="m224 246h2l35 1h35l1 1q1 0 2 7l1 7v9h-1l-1 1h-36q-36 0-36 1h-4v-1q0-1-1-13v-12q0-1 3-1z" fill="#aec1d7" stroke="#aec1d7"/>
  <path d="m617 299h1v1q0 1-2 3t-3 2h-1v-1t-2-2l-2-3q1-1 2-1l2-1q2-1 3 1 1 0 2 1z" fill="#d3d8df" stroke="#d3d8df"/>
  <path d="m536 784v-15h89v30h-89v-15z" fill="#f9f9f9" stroke="#f9f9f9"/>
  <path d="m673 142v1h-1v1q0 1 1 1l-1 21q0 22-1 22-1 1 0 2-1 1-1 1v2h-2v-1q-1 0-26-1l-24-1q-1 0-2-1l-1-1v-2q-1-1-1-22l-1-20v-1l2-2q2-1 5-2t26 0 25 2q1 1 2 1z" fill="#f7d1b1" stroke="#f7d1b1"/>
  <path d="m129 244h1q1 0 23 1l22 1h-14q-14 0-17 1-2 1-2 3l-1 2q-1 0-1-2 0-3-6-2l-5 1h-1v-1t1-1l1-1q0-1-1-1v-1z" fill="#8d7e63" stroke="#8d7e63"/>
  <path d="m368 242v-1h2l2 2q3 1 28 2h25v1q0 1-2 1h-23q-21 1-24 1-2 0-4 3l-2 3v-1q0-1-1-1v-1h1q0-1 0-1h1v-1h1v-3q0-1-2-2l-2-2z" fill="#b3a091" stroke="#b3a091"/>
  <path d="m1082 736h2t27 1l27 1v14q0 15 0 16h-1t0 1h-54v26q-1 0-1-13l-1-14v-15q0-15-1-15h-1t1-1l2-1z" fill="#1f4472" stroke="#1f4472"/>
  <path d="m432 189l2 3q1 2 0 2t-1 1h-1q0 1 0 1-1 0-4-1t-2-3l2-3h2q1-1 2 0z" fill="#d3d7de" stroke="#d3d7de"/>
  <path d="m244 410t1 0l1 1q0 1 2 1h1q1-1 2-2h1v2h-1l-1 1h-1l-1 21q0 22-1 22v1q-1 0-1-21t-1-23l-1-2v-1z" fill="#b7a190" stroke="#b7a190"/>
  <path d="m171 769h90v30h-85l-5-1q-1 0-1-14v-14q1 0 1-1z" fill="#f8f8f9" stroke="#f8f8f9"/>
  <path d="m789 386v-1h94q0 1-13 1h-12v1h-1v1h-1q0 1-2 8 0 7-1 8-1 0-1 1v1q0 1-1 1h-1q0-1-24-1h-24v1h-1v-1q-1-1-1-2-2-1-3-8l-2-8q-1-1-3-2h-3z" fill="#e3af85" stroke="#e3af85"/>
  <path d="m442 735v1q1 1 42 1 42 1 42 1h-82v3t-1 27l-1 27v-26h-8q0-1-40-1h-41v-2q-1-2-1-2v-26h1l43-1q43-1 43-1h1q2 0 2-1z" fill="#1f4574" stroke="#1f4574"/>
  <path d="m63 272v-21h2q0 1 1 1v22q0 21 1 22 1 0 1 1h1v2h-1q0-1-2-2-1-1-2-1l-2 1v-2q0-1 1-23z" fill="#b8a291" stroke="#b8a291"/>
  <path d="m680 182v77t-1-4l-1-4v-50l-1-1-1-2v4l-1 18v18h-1v-16q0-16-1-16v-2q-1-1-1-4l-1-4h-1v-2h1q1 0 1 1 1 1 3 0 3-1 3-3v-8q1-2 2-2z" fill="#72685e" stroke="#72685e"/>
  <path d="m175 80h14v1h1v9q1 10 2 10 0 0 1 0v1q0 1-9 1-10 0-15 2l-5 3v-1q0-1 2-2v-1h1v-1h2l1-1q0-1 0-1h1q1 0 1 0v-10q0-8 1-8v-1h1v-1h1z" fill="#24221b" stroke="#24221b"/>
  <path d="m126 385h113q0 1-25 1h-26v16h1v1q-1 0-1 1-1 0-4 1l-2 1t0 1h-1v2q-1 0-1-1t-3-1h-3v-1h6l1-1q1-1 2-1 1-2 1-9v-9h-58v-1z" fill="#807165" stroke="#807165"/>
  <path d="m977 404h3q2 2 2 2h1t1 1v2h-1q-1 1-1 1t-3 1q-2 1-4-1l-2-1v-1l2-2q1-2 2-2z" fill="#d1d4da" stroke="#d1d4da"/>
  <path d="m429 292v-3l3 4q2 3 5 5 3 0 25 1h23v1q0 1-2 1h-3q-1 1-22 1-22 0-24 2l-2 1v-1t2-3q1-2 0-3h-2v-2h-1t-1-1q-1 0-1-3z" fill="#b2a193" stroke="#b2a193"/>
  <path d="m942 608l1-9v7q1 7 0 37v30h136v1q1 0 1 0v1h-88v31q0 1-1 1 0-1-23-1h-24l-1 14q-1 14-3 14-1 0-1 0t1-1 1-58q1-58 1-67z" fill="#2a486d" stroke="#2a486d"/>
  <path d="m246 403l1 1q1 0 2 0v1h1v1h1q1 0 1 2 0 1-1 2-1 0-2 1v1h-1q-2 0-2-1l-1-1q-1 0-1 0t-1-1q-1 0 0-2l1-2q1-1 1-1h1t0-1z" fill="#d6d4d4" stroke="#d6d4d4"/>
  <path d="m695 673l1-1q1 0 2 1h157v2h-23l-22 1t-1 14v19q-1 5-1 5v-4q0-4-44-4h-45l-1-1h-1v-30h-24l1-1t1-1z" fill="#204470" stroke="#204470"/>
  <path d="m62 244l2-2 2 2q3 1 1 4-1 2-2 2v1h-1v-1t-2-2q-2-3 0-4z" fill="#d2d4da" stroke="#d2d4da"/>
  <path d="m678 301v46h-1v1h-1v-7l-1-17-1-17v-1h-1v-1l2-2q2-1 3-2z" fill="#dcc6ae" stroke="#dcc6ae"/>
  <path d="m184 297l2-2 1 1q1 0 1 1h1l1 2q0 2-1 4-2 1-3 2 0 0-3-3-2-3 1-5z" fill="#d3d7dd" stroke="#d3d7dd"/>
  <path d="m791 410l-2-3h1l2 2q2 3 4 2t4-2q0-1 1-1v-1h1v2q0 1-1 1h-1v1h-1v1h-1q0 1 0 20 0 20 1 20 0 0 0 1h1q0-1 13-1h13v-1h1v-1h1v2t-15 1l-15 1q-1 0-2-2 0-1-2-20 0-19-3-22z" fill="#a28f80" stroke="#a28f80"/>
  <path d="m550 404l3-1 2 2q2 1 2 2v1q0 1-1 1-1 1-1 1h-1t-2 1l-1 1v-1q-1 0-2-1-2-1-2-2 0-2 3-4z" fill="#d2d6dd" stroke="#d2d6dd"/>
  <path d="m328 286h4v1q0 1 1 1t1 4q0 3-1 4l-1 2h-8q-8 0-10-1l-3-1q-1-1-1-4-1-2 3-3l4-1h-7v-1h8q7-1 10-1z" fill="#deae87" stroke="#deae87"/>
  <path d="m1100 144h1l1 22q2 22 2 23 2 1 2 1v2q-1 0-3-2-3-2-5 1l-3 3h-1v1h-1l-1-1h-4v-1h1l1-1h3l3-3q2-3 3-24 0-21 1-21z" fill="#b9a493" stroke="#b9a493"/>
  <path d="m491 413l1 22q2 22 2 23v1h-1q-1-1-3 0h-2v1t-1 0q-1 1-1 1-1 1-20 1h-19v-2l19-1q20-1 21-1 1-1 3-23 0-22 1-22z" fill="#b6a496" stroke="#b6a496"/>
  <path d="m551 189v-1l2 2q3 1 3 2 0 0 1 0v1q0 1-3 2t-5 0l-2-2 2-2q1-2 2-2z" fill="#d2d7de" stroke="#d2d7de"/>
  <path d="m209 136l1 1q0 1 14 1t15 1h1l3 3q3 3 3 18v16h-1l-13 1-14 1h-8l-2 1h-1v-1h1v-21q0-21 1-21z" fill="#e9b489" stroke="#e9b489"/>
  <path d="m1100 291l1-3 1 4q2 4 18 6 16 0 16 0 1 0 2-1v2q-1 1-1 2h-13q-13 1-17 2l-4 1q-1-1-1-1h-1q-1 0-1-1l-1-1h-1q0-1 0-1h-1v-1h1v-2h1v-1q1 0 1 0v-1q0-1 0-4z" fill="#c0b0a4" stroke="#c0b0a4"/>
  <path d="m3 140v-2q1 0 1 2v2h2l1-2q1 0 27 0 27 0 28 1 0 1 1 1v23q-1 21-1 22v1h-1v1h-1v1h-2l-2 1h-24q-22-1-25-4l-3-3v-20q0-21-1-24z" fill="#f7d1b1" stroke="#f7d1b1"/>
  <path d="m58 356l-4-2h6l2 1q1 1 1 2t2 0 3-2h2l-2 2q-2 2-2 5 0 2-1 21v19h-2v-21q-1-21-1-22-1-1-4-3z" fill="#b9a492" stroke="#b9a492"/>
  <path d="m558 353h4l-1 1q-1 0-4 2t-3 4q0 1-1 22v20h-2v-4h-1v-20q0-20-1-20v-2l2 1q2 1 2 0t1-1 2-1v-1q1 0 2-1z" fill="#b8a291" stroke="#b8a291"/>
  <path d="m607 190h1v2q0 2 1 2v2h-1t-24-1l-24-1v-1q0-1-1-1v-1h1l2 1 22-1q22-1 23-1z" fill="#bda592" stroke="#bda592"/>
  <path d="m680 180v-2h245q5 1 5 1 0 1 0 1h-241v1q-1 0-1 1v198h3l4 1h4v1h1v2h-3v1h-17v-205z" fill="#eaeaeb" stroke="#eaeaeb"/>
  <path d="m810 676l22-1h23v2q1 2 1 9v7t-1 6v6h-23l-22-1h-1v-14q1-14 1-14z" fill="#f3f3f3" stroke="#f3f3f3"/>
  <path d="m1100 143h1v1h-1q-1 0-1 21-1 21-3 24l-3 3h-3l-1 1h-9l-9 1q-1 0-1 22v23h-1v-61h-28v-1h11l11-1h-23v-14q0-13 2-18l2-4t1 0v-1h25q26 1 28 2 1 1 2 2z" fill="#ecb78c" stroke="#ecb78c"/>
  <path d="m372 303h1v1q0 1-1 1t-1 2q-1 2-1 22v20h-1q-1 0-1-1v-16q0-15-1-21v-7h1q2 0 2 0h1t1-1z" fill="#b29f8f" stroke="#b29f8f"/>
  <path d="m910 139h2t1 1q1 0 1 0v2t1 2q1 1 1 16v16h-58v-1h-1v-1h1v-16q2-15 3-16 1-2 5-2 3 0 4-1h20q19-1 20 0z" fill="#f7d1b1" stroke="#f7d1b1"/>
  <path d="m80 739v-1h24q23 0 24 3t2 3l1 1q1 1 1 0 1-1 1-1h1v-1l1-3v-2h34v30h-89v-29z" fill="#f8f8f8" stroke="#f8f8f8"/>
  <path d="m788 139h2t1 1l1 2q2 2 2 18v16h-58v-16q0-15 1-16l1-1 1-1q1-2 3-2t2-1h22q21-1 22 0z" fill="#f6d1b1" stroke="#f6d1b1"/>
  <path d="m954 513l-1 13q-1 13-5 42-4 28-5 30v1l-1 9q0 9-1 67 0 57-1 58t-1 1h-2v1h-4q-4 1-9 1h-5q-1-1-4-2-4 0-1-1 2-1-2-1-3 0-23 1l-20 1h-3q-4 0-8-2-3-2-2-20v-26q0-7-1-9v-19q-1-14-1-35-2-21-4-43-4-23-10-42l-6-20v-3h-1v-1h61q59 0 60-1z" fill="#fbfbfb" stroke="#fbfbfb"/>
  <path d="m335 208h1v52l-1-2q-1-3-1-6 0-4-9-4-8 0-11 1l-3 1v-1q0-1 1-1 0 0 0-2l-1-2v-1l1 1q2 0 12 0h10v-18q0-17 1-18z" fill="#837467" stroke="#837467"/>
  <path d="m618 192v-2h1q1 0 25 1h24v1q-1 0-1 1t-23 1h-23l-1 1q-2 0-2 1t-1 1h-1v-2h1q0-1 0-1 1 0 1-2z" fill="#baa390" stroke="#baa390"/>
  <path d="m190 352l1 1-1 1q-2 2-2 3v1h-2q-1 0-2-1 0-1 0-3t2-3 4 1z" fill="#cfd4da" stroke="#cfd4da"/>
  <path d="m921 411l2-2h50l2 2q1 2 2 5v6q-1 4-1 6t-3 0l-2-2v1q-1 0-2-3-1-2-11-2t-11 0l-1 2-1 1-1 1v1l-1 1-1 1v3l3 4q3 4 6 5h3v1l-1 4v5h-1l-1 1h-31v-20q0-19 1-21z" fill="#ecc8aa" stroke="#ecc8aa"/>
  <path d="m429 289v3q0 3 1 3 2 0 2 1v1h-2q-2 0-3 1-2 1-1 2 0 2 1 2t1 1v1h-2t0-1h-1q-1-1-19-1l-17-1v-1h9l-7-1-7-1 21-1q21-1 22-4 1-4 2-4z" fill="#b8a596" stroke="#b8a596"/>
  <path d="m560 194l24 1q24 1 24 1h1l1 1q0 1 1 21v22q-1 2-1 3-1 1-27 1l-26 2h-1q0-1-2-2l-2-2v-1l1-20q1-20 1-22t1-2 1-1v-1h2q2-1 2-1z" fill="#f8d1b1" stroke="#f8d1b1"/>
  <path d="m913 142l-2-3h1t1 1q1 0 1 0v1l2 1q2 0 4 0 1-1 1-2v-1h2l-2 3q-1 2-2 5t-1 16v13h52v1h-25l-25 1h-13t-1-1l-1-1h11v-16q0-15-3-18z" fill="#887668" stroke="#887668"/>
  <path d="m248 400v-1l1 1 1 2 2 2q2 2 26 2h24v2h-5l-22 1q-22 1-23 1 0 0-1 0v1q-1 0-1 1h-1v-1q1-1 2-1 1-1 1-2 0-2-1-2h-1v-1h-1v-1q-1 0-2 0l-1-1v-1h1q1 0 1-2z" fill="#aa9a8d" stroke="#aa9a8d"/>
  <path d="m922 406t0 1h1v2h-1q-1 1-2 1 0 0-2 1h-3v-1q-1 0-1 0 0-1-1-1 0-1 0-2v-1h1t1 0v-2h3q2 0 2 1 1 1 2 1z" fill="#d0d4da" stroke="#d0d4da"/>
  <path d="m1131 138h6v26q1 26 0 27l-1 1h-24q-1 0-4-1h-2v-1t-2-1q0-1-2-23l-1-22v-1l2-2q2-1 12-2t16-1z" fill="#f4cfb0" stroke="#f4cfb0"/>
  <path d="m76 193h2l1 1h1v12q0 7-1 21l-1 14v3h-4q-4 0-5 0l-1-1h-1q0-1 0-1h-1v-24q0-20 3-22l3-2h2q2 0 2-1z" fill="#f1cbac" stroke="#f1cbac"/>
  <path d="m434 192l-2-3h2l2 1q1 0 21 1l20 1h3q2 0 2 1t0 1h-22q-22 0-24 1l-2 1t-1 1h-1v-1t1 0v-1q0-1 1-1t0-2z" fill="#bca593" stroke="#bca593"/>
  <path d="m1069 368v-16h1l8 1h8v1h4l3 2q3 1 5 2 0 2 1 23l1 21v1q-1 1-3 2l-2 2h-1v-1h-49q-1-1-1-1v-1t-1 0q-1-1-2-8l-2-8q-1-1-27-2h-27v-1h84v-17z" fill="#e8b388" stroke="#e8b388"/>
  <path d="m121 142l-2-3 3 2q4 1 6 0t12-2h9v1h-9q-10 2-11 3t-1 17 0 16 12 1l11 1h-28l-4 1h-4v-1h2l3-1q3-1 3-17 1-16-2-18z" fill="#a99788" stroke="#a99788"/>
  <path d="m428 166l1-22h1q1 0 2 22 0 21 1 22 1 0 1 0v1h-2q-1-1-2 0h-2q-1-1-1-1 1 0 1-22z" fill="#b9a391" stroke="#b9a391"/>
  <path d="m688 490v-7l1 7q1 6 2 7v2q0 1 1 1 0 0 1 1h1q0 1 0 1h1q1 0 1 0v1h1q1 0 1 1v2q0 1 0 0l2 6q2 5 3 25t1 21l-22 1h-23v-2h1v-20q0-20 2-23 0-4 5-10 4-7 5-7h1l1 1q2 0 7 0t7 0h1v-1h-1v-7z" fill="#d2aaa9" stroke="#d2aaa9"/>
  <path d="m334 328v25h-10q-10-1-10-1h-2v-1q0-1-2-3l-1-2v-18q1-18 1-20v-3l2-1q2-2 12-2 9 0 9 1 1 0 1 25z" fill="#f6cfb0" stroke="#f6cfb0"/>
  <path d="m704 138h21t1 1h1l3 3q2 2 3 16 1 15 1 16v1h-1v1h-50l30 1h139l3 1h-175v4q-1 0-2 2v3h-2v-4l-1-19q0-20-1-20l-1 1q-1 0-1-1v-1h1l5-2q4-3 26-3z" fill="#e8b58b" stroke="#e8b58b"/>
  <path d="m978 388h1q1 1 1 8v6l3 2q2 2 3 2h2v1h-4q-1-1-1-1h-1t-2-2h-3q-1 0-2 2l-2 2h-1v-2t2-2q2-1 2-8 1-8 2-8z" fill="#b9a696" stroke="#b9a696"/>
  <path d="m984 408v-1h7q0 1-5 3-4 2-6 7l-1 5q-1 0-1-2l-1-2v-2q-1-3-3-5l-2-2v-1h1l2 2q2 2 4 1 3-1 3-2 2-1 2-1z" fill="#b1a295" stroke="#b1a295"/>
  <path d="m164 311q0 1 0 1h1t1 1q0 1 0 1h1t1 1l3 7q3 8 4 9v38h-19l-19 1h-5v-1l1-5v-4h1v-14q0-15 3-22l2-6v-1h1q0-1 0-1l1-1h1q0-1 0-1 1 0 1-1h1q0-1 0-1 1 0 1-1h9q9-1 10 0z" fill="#d1ddb7" stroke="#d1ddb7"/>
  <path d="m678 247v49h-2q0-1-1-1v-43q-1-1-1-1l2-2q1-1 2-2z" fill="#e2e2e2" stroke="#e2e2e2"/>
  <path d="m63 241h1v1l-2 2q-2 1 0 4 2 2 2 2v1h-2v-1h-1l-1-1q-1-1-26-1l-25-1v-1q0-1 25-2 26 0 27-2 1-1 2-1z" fill="#b4a091" stroke="#b4a091"/>
  <path d="m829 442v-1h3l3 1q3 1 3 6 0 4-4 4h-6v-10h1z" fill="#bdbcbb" stroke="#bdbcbb"/>
  <path d="m1099 241h2l3 2q2 1 17 1t16-2q1-1 1-1v16l-1-5q-1-4-14-4t-16 0l-3 1v-1t0-1-2-3l-2-2q-1 0-1-1z" fill="#b4a090" stroke="#b4a090"/>
  <path d="m795 404l2 1q3 1 3 1t0 1h1v2h-1q-1 1-1 1-1 0-3 1t-4-2l-2-2 2-1q2-2 3-2z" fill="#d1d5db" stroke="#d1d5db"/>
  <path d="m68 299h1l1 1q0 1-1 2-1 0-2 0v1q-1 0-1 1 0 0-1 0v1h-1v-1t-3-2q-2-3-1-4l2-1 2-1q1 0 2 1 2 1 2 2z" fill="#d2d6dd" stroke="#d2d6dd"/>
  <g fill="#f8f9f9" stroke="#f8f9f9">
   <path d="m902 771v-2h89v30h-89v-28z"/>
   <path d="m353 784v-15h89v30h-89v-15z"/>
  </g>
  <path d="m1083 708v-2h54q1 1 1 15v14h-1v1h-54v-28z" fill="#f9f9f8" stroke="#f9f9f8"/>
  <path d="m190 304l1-2h7q8 0 8 2t1 2l-2 2q-1 3-2 4-1 0-1 0v1t-1 1q-1 0-1 0v1t-1 1h-1v2l-1 1v1q-1 0-1 1v1h-1v2l-1 2q0 3-1 5v5q-1 4-1 10v5h-1l-1-1h-1v-1h-1v-3l-1-9v-28q1 0 1-2t2-3z" fill="#eac5a7" stroke="#eac5a7"/>
  <path d="m368 296h2v1h1v1h1q2 1 1 3-1 1-1 2-1 1-1 1h-1t-2 0h-1q-1-1-2-3t1-3l1-1q1 0 1-1z" fill="#d2d7de" stroke="#d2d7de"/>
  <path d="m122 249v-1l2 1q2 1 3 1 1-1 1-1h1l-1 1q0 1-1 7t-1 10v4h1v1h14v-1h1v1h1v1h-22q0-1 1-1t1-10q1-10 0-11l-1-1v-1z" fill="#9e8d7e" stroke="#9e8d7e"/>
  <path d="m895 371h6l2 1q1 0 2 1t1 3v2h-1q-1 0-1 22v22h-2v1h-6l-7 1h-1v-1q0-1-1-19v-18q-1-1-1-1v-3q0-2-4-2h-3l3-1q4 0 4-3 1-4 2-4t7-1z" fill="#c1c1c1" stroke="#c1c1c1"/>
  <path d="m299 362v-7h1l2 1 2 1q2 1 2 2v1l1 2v2h1v3l-1 1v1h-8v-7z" fill="#ecc8a9" stroke="#ecc8a9"/>
  <path d="m490 143h1v1l-1 22q-2 22-4 24-2 1-2 2v2h-2t0-1-2-1h-3l-20-1q-20-1-21-1l-2-1v-1t-1 0q-1-1-1-22-1-22-2-22h-1v-1l5-2q5-3 28-2 24 1 26 2t2 2z" fill="#f4bd8f" stroke="#f4bd8f"/>
  <path d="m188 292v-3h57v1q1 0 1 1v1t-1 2q0 1-1 2-2 0-12 1-9 1-10-1l-1-1v-1q-1 0-1 0t-6-1l-5-1-1 1q0 1-1 3v1q-1 0-1 1t-6 1l-6-1h-3v-1h-1q0-1 0-1h-1q-1-1-1-4z" fill="#ecb88c" stroke="#ecb88c"/>
  <path d="m63 165v-21h1q1 0 2 22 0 21 2 23 2 1 4 2t3 1l1 1q0 1-2 1h-2q0-1-1-2h-1q-1 0-3-2t-5 1l-3 2h-1q0-1-1-1h-2v-1h1l2-1h2v-1h1v-1h1v-1q0-1 1-22z" fill="#b9a594" stroke="#b9a594"/>
  <path d="m1071 302v-1h3l4 1h9q9 2 10 1t2-1v-1l1 1q0 1 1 1l-1 1q-2 1-2 2 0 2 1 22v20q1 1 1 2 0 0-1 1v1h-2q-1-1-1-1 0 1-5 1l-5 1h-8l-8-1v-50t1 0z" fill="#f3cdae" stroke="#f3cdae"/>
  <path d="m384 301h5l17 1q18 0 19 1h1q0 1 0 1h1l1 2q0 3 1 22v20q-1 0-1 1t-2 2q-1 1-24 1l-22 1h-2q-1-1-4-2l-4-2v-20q0-20 1-23l1-2t1 0v-1l3-1q3 0 8-1z" fill="#f6bd8f" stroke="#f6bd8f"/>
  <path d="m236 331v4q0 4 1 11v6h3q2 0 3-1h1v1t0 1h-1v1q-1 1 0 1v1h-3q-3-1-3 6-1 7 0 7v1h-31v-1h29v-19q1-19 1-19z" fill="#635b53" stroke="#635b53"/>
  <path d="m307 402l3 2q4 2 8 2h5v2h4v1h-6q-6 1-9 2-2 1-2 3l-1 1v-1q-1-1-1-2 1 0 3-2 2-1 2-2 0-2-3-4l-3-1v-1z" fill="#b3a498" stroke="#b3a498"/>
  <path d="m1106 408v-1h29l1 1q2 1 2 27t0 29v3l-1-2-1-2q0-1-14-1h-15q-1-1-1-1v-1t-2-2-3-24l-1-21v-1l3-2q3-1 3-2z" fill="#f0ba8e" stroke="#f0ba8e"/>
  <path d="m720 738l1-1h43q44 1 44 1h1v28q-1 0-1 1t-2 1l-2 1h-42l-42 1-1 12v11h-1v-13q0-12 0-22v-16q0-4 2-4z" fill="#1d4373" stroke="#1d4373"/>
  <path d="m517 301h16l7 1q8 2 9 3 1 2 2 2l-1 21q0 21-1 22-1 0-1 1-1 1-26 1l-25 2h-1t-2-1l-1-1q-1-1-2-2l-1-1h2v-20q0-20 1-22v-2q1 0 1-1l4-1q3-1 19-2z" fill="#f6bd8f" stroke="#f6bd8f"/>
  <path d="m262 756v-10h1v22h44q45-1 45-2v-2t1 2v2h41q40 0 40 1h-81v30h87v1h-258v-1h79v-7h1v-12q0-11-1-11v-1q1-1 1-12z" fill="#1f426e" stroke="#1f426e"/>
  <path d="m313 141v-34q1 0 1 15v16h1l25 1q24 1 26 2t2 2h1v1l-1 22q-2 22-2 23-1 1-1 1h-1q-2 0-8 1l-5 1v-1h-1v-1q0-2-1 0v3h-1v-12l-1-1-1-1v-1h-8v2q0 1-1 4v4h-1v-4q0-3-1-3 0-1-35-1l-35-2h23q23 0 24-2 0-1 1-35z" fill="#e8b48a" stroke="#e8b48a"/>
  <path d="m245 297l1-2 3 2q3 2 1 4-1 3-2 3 0 0-1 1h-1v-1t-1-1q0-1-1-1t-2-2q0-1 1-1 1-1 2-2z" fill="#d2d6dc" stroke="#d2d6dc"/>
  <path d="m429 348v2l-1 2q-2 3-1 4 1 0 1 0v1h-2q0-1-21-1l-21-1v-1h-4v-1l22-1q23 0 24-1 2-1 2-2t1-1z" fill="#bca492" stroke="#bca492"/>
  <path d="m1124 301h13v1q1 0 1 24v25t-1 1v1h-13q-14-1-16-1-3 0-5-3l-2-2v-19q1-18 1-21l1-3 4-1q4-1 17-2z" fill="#f4bc8e" stroke="#f4bc8e"/>
  <path d="m907 414v-5l3 1q3 0 4 1 0 1 0 1h1v20q0 20-1 20-2 0-2 1h-4l-5-1t0-9v-10q1-1 1-4v-3h1v1h1v-4q0-4 1-9z" fill="#e1af86" stroke="#e1af86"/>
  <path d="m335 276l1-1v81q-1 0-2-2v-26q0-25-1-25 0-1-9-1-10 0-12 2l-2 1v-1t2-2 0-4l-1-1v-1l3 1q2 1 10 1h8l1-2q1-1 1-4 0-4-1-4t-1-1v-1h2v-10h1z" fill="#81766c" stroke="#81766c"/>
  <path d="m612 401h2v1q0 1-1 1l-3 1q-2 2-2 4 0 1 2 2 2 2 3 2h1v1h-1q-1 1-1 1-1 0-2-2-2-2-27-2l-25-1v-2h1l1-1h24q24-2 26-3 1-1 2-2z" fill="#aa9a8e" stroke="#aa9a8e"/>
  <path d="m916 394v-8h1q1 0 2 8t2 9 1 1v2q-1 0-4-2-2-1-2 0l-1 1v1q-1 0-1 0h-1v-1q0-1 1-1 0 0 0-1h1q0-1 0-1h1v-8z" fill="#b7a393" stroke="#b7a393"/>
  <path d="m494 191h2v1t1 0v-1h2q2 1 3 1h2l-5 3q-5 3-6 5-1 1-1 21v20h-2v-6l-1-19q0-19-3-20l-2-2 2-1q1-1 4-1 4 0 4-1z" fill="#c0aea1" stroke="#c0aea1"/>
  <path d="m719 781v-12h87q2 0 2 15v15h-89v-18z" fill="#f8f9f9" stroke="#f8f9f9"/>
  <path d="m4 770v-1h37q37 0 37 1v29h-37l-37-1v-14q0-14 0-14z" fill="#f9f9f9" stroke="#f9f9f9"/>
  <path d="m910 736h14q5 0 9-1h4q0 1 26 1h26l1 1q0 1 1 14v17h-82v1h-7v4l-1-16q-1-16-1-16v-1q0-2-1-2l1-2q0-1 1-1 1 1 9 1z" fill="#1e4574" stroke="#1e4574"/>
  <path d="m136 288l-1-1h111l1 1q1 0 1 1h-60v3q0 3 1 4v1h-1q0-1-1-1l-1-1t-1-1v-3q0-1-21-1l-22-1h-2q-3-1-4-1z" fill="#7a7169" stroke="#7a7169"/>
  <path d="m551 142v1h-1q0 1 0 1h1l-1 22q0 22-1 22v1h-1v1h-2l-2 1q-2 1-2 1h-40q-1 0-3-1h-5q-1-1-2-24l-1-23v-1l3-2q2-1 28-1 27 0 28 1 0 1 1 1z" fill="#f6d0b1" stroke="#f6d0b1"/>
  <path d="m161 246h39q20 0 20 1h1v12q1 12 1 13v1h-79v-1h-1v-1h-1v-19l1-2q0-2 2-3 3-1 17-1z" fill="#e3e303" stroke="#e3e303"/>
  <path d="m429 400v3l-2 3q-2 3 0 4 2 2 3 2h1v5h-1q0-1-2-3-3-4-28-4l-24-2h-1v-2l25-1q26-1 27-3t2-2z" fill="#aa9a8d" stroke="#aa9a8d"/>
  <path d="m922 409h1l-2 2q-1 2-1 21v20h31l1-1h1v1h1t-21 1h-21q0-1 2-1 1 0 1-20v-20h-1t0-1v-1h1q1 0 1 1t2 0q3-1 4-2z" fill="#a38f7f" stroke="#a38f7f"/>
  <path d="m1098 294h1t1 1v1t-1 0v1h-1v2h-1v1h1t0 1h1v1q-1 0-1 1v1h-1q-1 0-10-2h-12q-3 0-4 0h-1v-2l13-2q13-1 14-2 1-2 1-2z" fill="#b7a79a" stroke="#b7a79a"/>
  <path d="m809 752v-14h90q1 0 1 2v28h-90v-1t-1-1v-14z" fill="#f8f8f8" stroke="#f8f8f8"/>
  <path d="m284 302h9q9 0 10 1h1q0 1 0 1h1l1 2q0 2 1 22v19q-1 0-1 1-2 2-4 3l-3 1v-8q-1-9-1-9v-3q0-2-1-4-1-3-3-8t-6-8l-4-3v-2l-1-3v-2h1z" fill="#f0b98d" stroke="#f0b98d"/>
  <path d="m352 296v2h12v-1h1v-1h1v-1t1-1l1-1v3q-1 0-1 1l-1 1q-2 1-1 3t2 3v1h-1q0-1 0-1-1 0-8-1l-6-1v2l-1 19v19q-1 0-1 4v5h-1v-25q1-25 1-36v-11l1-1q1 0 1 8t0 10z" fill="#8d8075" stroke="#8d8075"/>
  <path d="m672 224l1-19v1q1 0 1 16v16h1v4h-1q-1 0-2 1l-1 1v-1q1-1 1-19z" fill="#b69f8b" stroke="#b69f8b"/>
  <path d="m670 403h1v2l-1 1q-1 0-1 2 0 1 1 1t1 1l1 1v1h1q1 0 2-1h1q0-1 0-1h1l1 1q0 1-1 1t-1 1h-2q-1 1-2 1 0-1-2-2-1-2-26-2l-24-2h-1v-2h25q24-1 25-2 0-1 1-1z" fill="#a99a8d" stroke="#a99a8d"/>
  <path d="m623 354h23q22 0 22 0h2l1 1q1 1 2 2v1q-1 0-1 18v22q-1 4-1 5h-1q0 1 0 1-1 0-26 1l-25 1v2h-1q0-1-3-3l-2-2v-1q1 0 1 0v-22q0-20 1-21l1-1v-1h1v-1h2l2-1q2-1 2-1z" fill="#f8d1b1" stroke="#f8d1b1"/>
  <path d="m264 77v-1h32v1l1 3v4q-1 0-1 6 0 7-5 7h-5v-9h-3l-9-1-10-1h-1v-1h-1v-5l1-1 1-1v-1z" fill="#afad9f" stroke="#afad9f"/>
  <path d="m90 462h24q5 0 8-3l3-2 3 2q3 3 27 3h25t0-1l4-1q4-2 4-1h1q0 1 1 1l1 1q1 1 21 1h19l6-1q6-1 8-2t2-2l3 2q3 3 28 2 26-1 28-1 1-1 1-2t1-1h1l3 2q2 3 28 2 25-1 26-2 2-1 2-2l4 2q3 3 28 2 26-1 27-1 1-1 1-1 1-1 1-1l3 2q4 2 10 2h24q19 0 20-1 0 0 1-1 1 0 1 0v-1h2q2-1 3 0h1l2 1q1 2 26 1 26-1 26-1h1v-1h3q2 1 2 1 1 0 2 1h1q0 1 1 1h9l21-1q21-1 22-1 1-2 3-1t3 1h1t1 1 22 1h28l1-1 1-1h1q1-2 3-1t4 2q1 1 7 1h6l2 1 2 1h-3q-4 0-5 4t-2 6q-2 2-1 2t0 1l-2 1h-1v1h1v1l-4 1q-4 1-4 8v7h-1v1h-1v1l-4 4q-4 4-6 10-2 5-2 25v20h-2q0 1-316 1t-317 1-1 14 0 15q1 2 6 3l6 1 1 30q1 30 2 32t1 2h1l1 2q1 2 2 2v1q0 1 0 1h1t1 1q0 1 0 1h1t1 1q0 1 0 1h2q0 1 1 1v1h1v1h1v1h2v1h1v1h1-53v-88q0-88 0-93v-33h1v1h1v1l2 1q1 1 25 1h26l1-1 1-1h1l1-1q2-1 5 1 2 2 22 2z" fill="#dce4ed" stroke="#dce4ed"/>
  <path d="m63 435l1-22h1q1 0 2 22t1 23 21 2q21 2 21 2h-20q-20 0-22-2-3-2-5-1l-1 1h-1l-1 1-1 1h-2l1-1v-1h2v-1l1-1q1-1 2-23z" fill="#b6a496" stroke="#b6a496"/>
  <path d="m690 348v-1h1l1 5q2 4 3 7 1 2 1 5v3q0 1 0 1h1l1 4q2 4 2 6v3h-5l-4-1h-3v-30l1-1 1-1z" fill="#b4bcc6" stroke="#b4bcc6"/>
  <path d="m919 736h-9q-8 0-9-1-1 0-1 1l-1 2h-86l26-1q25-1 28-2 2-1 2-1l20-1q20-1 23-1 4 0 2 1-3 1 1 1 3 1 4 2z" fill="#5d6570" stroke="#5d6570"/>
  <path d="m118 139h1l2 3q3 2 2 18 0 16-3 17l-3 1h-2v1h-7q-7 1-10 1h-3v1h-1v3h-1v-1q-1-1-1-3 0-1-4-1l-4-1v1h-1v1h-1v4q0 5-1 10v4h-1v-4h-1l-1-1h-2l-1-1q-1 0-3-1t-4-2q-2-2-2-23-1-22-2-22h-1v-1l3-1q2-2 5-3 2-1 23-1 22 0 24 1z" fill="#edb88c" stroke="#edb88c"/>
  <path d="m678 354v15t-1-5l-1-4v10q0 10-1 16v7h-3v-17q0-17-1-18-1 0-1-2v-1t1 1q1 0 1 0v1t1 1h1q1 0 2-2t2-2z" fill="#c1a790" stroke="#c1a790"/>
  <path d="m216 194h32v3h-1q-1 0-2 11 0 10-2 11l-2 1h-24q-19 0-24-1l-5-1v-4q0-3 0-10v-6q1 0 2-2l1-1h1q1-1 24-1z" fill="#f1ccad" stroke="#f1ccad"/>
  <path d="m992 706v-1h90q1 1 1 1v3h-1v27h1v1q0 1-2 1h-89v26h-1v-13q-1-13-1-14l-1-1h1q1 0 1-14v-15q1 0 1-1z" fill="#1e4371" stroke="#1e4371"/>
  <path d="m302 247h1l3 2q3 1 4 1 0 0 0-1h1v1l-1 2q0 3 0 11t1 8q0 1 2 1h2v1h-89q0-1 36-1h36l1-1h1v1h3q3 0 3-8 0-9 0-11-1-3-3-3h-2v-2q0-1 1-1z" fill="#706862" stroke="#706862"/>
  <path d="m1105 461h1q0 1 0 1h31v2l1 3v206h-195v-30q1-30 0-37v-8q1-2 5-30 4-29 5-42l1-13 34-4q34-5 49-9t19-7 4-4 1-1v-1h1v-1l1-12v-12h4l15-1q14-1 17-1 3-2 4 0 1 0 2 1z" fill="#dae3ee" stroke="#dae3ee"/>
  <path d="m80 351h1l1 16q0 16 1 17 1 0 1 0h4q3 0 4-1v-1h3l11 2q10 0 15 1h5v1h1q-1 1-1 9v8l-3 1q-3 2-3 3v1h-1v-2h-24q-24 0-25 1-1-1-1-1-1-1-1-1v-1t-1 0q-1-1-1-1h-3v-1h2v-19q1-19 1-21 0-3 2-5l2-2 1-1h2v1h1v-2h2q3-1 3-1h1t0-1z" fill="#e8b48a" stroke="#e8b48a"/>
  <path d="m486 353l2 2q3 3 3 2 1 0 1-1 0 0 1 0v-1q0-1 0-2v-1l1 1q2 1 2 1h2v1l-2 1q-2 2-3 4t-1 22v20h-2v-20q0-19-1-21t-2-4l-2-2v-1l-1-1h1q1-1 1 0z" fill="#bca694" stroke="#bca694"/>
  <path d="m548 351v2q0 1 0 2 0 0 1 1v1h-1q0-1-25-1l-25-1v-1h-1l25-2q25 0 26-1z" fill="#bba390" stroke="#bba390"/>
  <path d="m804 0h337v664q-1 0-1-30v-31l-1 29q-1 30-1 30v-198q0-2-1-2v-1q1-1 1-27 0-25-2-26l-1-1h1q1-1 1-1h1v-50q0-1-1-1v-2q1 0 1-1v-26q0-24-1-24v-3q1 0 1-1v-46q0-5-1-5v-2q1 0 1-2v-25q0-23-1-24l-1-2 1-1q1-1 0-27v-93q1-67 2-68l1-1h-1l-167-1q-168-1-168-1z" fill="#747a81" stroke="#747a81"/>
  <path d="m264 314l5-6v1q0 1 7 1 8-1 8-1l4 3q4 3 6 8t3 8q1 2 1 4v37h14l6 1h-81v-1h17v-5t0-6v-14q0-7 2-16t8-14z" fill="#d0640b" stroke="#d0640b"/>
  <path d="m614 292l2 3q2 3 24 3 21 0 24 1h3q0 1 1 1 0 0-22 1-23 1-28 3l-4 2h-2v1h-1v-1q1-1 1-1h1q1 0 3-2t2-3v-1h-1q-1-1-2-1-1-2-3-1l-2 1 1-2q1-1 1-2h1q1-1 1-2z" fill="#b4a395" stroke="#b4a395"/>
  <path d="m910 386h6t0 1h1v1q-1 0-1 7v7h-1t0 1h-1q0 1 0 1-1 0-1 1h-1q0 1-2 1h-3v-8q-1-9-1-10t4-2z" fill="#efcaab" stroke="#efcaab"/>
  <path d="m102 193l-1-1h5q6 0 18 1h11l-3 1q-4 2-5 4-1 3-1 3v-3l-1 1q-1 1-1 1 0-1-1-2-1-2-11-3t-10-2z" fill="#877f79" stroke="#877f79"/>
  <path d="m943 182h1l58-1h60v196l-1-3q-1-3-2-4-1 0-2-43t-1-45q-1-2-2-12-1-9-2-9t-1-25q1-26-1-35l-2-9v-1h-1v-1h-1v-2h-5v1h-1v1h-2v1q0 1-1 1 0 0-15 28-16 28-25 42-9 15-16 20-7 6-19 12t-30 10q-17 4-26 5l-9 1-2-1h-2v-1l1-2v-1h1v-1h1l1-1 1-1 19-11q19-11 25-16 6-6 8-15t2-34q0-26-3-34-4-8-5-8-2-1-2-1 0-1 1-1z" fill="#c3d3e8" stroke="#c3d3e8"/>
  <path d="m122 243h2l-2 1q-1 1-1 2 1 1 1 2v2q-1 0-2-1 0-1-12-1l-11-2h-2v-2h2v1h1v1h1l11-2q11 0 12-1z" fill="#b8a290" stroke="#b8a290"/>
  <path d="m612 307v-1h2l1 22q1 21 2 22 1 2 2 2v1h-1q0 1 0 1h-1q-1-1-3-2l-2-2-1 1q-1 1-2 1l-1 1h-3q0-1 2-2 3-1 3-23l1-21h1z" fill="#baa492" stroke="#baa492"/>
  <path d="m900 754v-13t1 16l1 16v26h4v1h-181v-1h83v-15q0-15-2-15h-2l2-1q2 0 2-1t1-1q1 1 1 1v1h90v-14z" fill="#1e4370" stroke="#1e4370"/>
  <path d="m552 413h1l1 22q0 22 2 23 2 2 6 2h4v1l1 1h-9q0-1-1-1h-1q-1-1-2-1 0 0-2-1h-3v1h-1l-1-1v-1h1q1 0 1-1 1 0 1-21l1-22t1-1z" fill="#baa594" stroke="#baa594"/>
  <path d="m297 84v14l7 1q7 1 8 1 0 1 1 4v37q-1 34-1 35-1 2-24 2h-25l-1-1v-2l-1-1q-1-2-1-20v-19l1-17q1-17 2-18 2-2 13-2h10v-1h5q5 0 5-7 0-6 1-6z" fill="#edb303" stroke="#edb303"/>
  <path d="m982 386h30q26 1 27 2-1 0-1 7t-2 8q-1 1-24 2l-24 1h-2q-1 0-2 1-1-1-1-1v-1q-1-1-1-2l-2-1v-6q0-7-1-8l1-1q0-1 2-1z" fill="#f4ceae" stroke="#f4ceae"/>
  <path d="m62 328l1-22h2v2q1 1 1 1l1 21q1 20 3 21t3 2h1v2h-1v-1h-2l-1 1h-1v-1q-1-1-1-2 0 0-3-1-2-1-3 1l-2 2h-5t1-1l2-1h2v-1h1v-1q1 0 1-22z" fill="#b8a391" stroke="#b8a391"/>
  <path d="m400 247h21l3 2q4 2 4 3t1 1v36q-1 0-2 4-1 3-22 4l-21 1h-5q-5 0-7-4l-3-4v-17q1-17 1-18v-1l2-3q2-3 4-3 3 0 24-1z" fill="#f8d1b0" stroke="#f8d1b0"/>
  <path d="m297 408h6l2 2q2 2 3 2 0 1 1 2v43h-1q-1 0-1 1t-1 2q-2 0-28 1-25 1-28-2l-3-2v-1q1 0 1-20t1-22l1-2q1 0 1-1h1q0-1 0-1 1 0 23-1l22-1z" fill="#f2bb8f" stroke="#f2bb8f"/>
  <path d="m369 401h1v1t-1 0v1h-1q0 1 0 1h-1l-1 2q-2 3 0 4 2 2 2 2h1t0 1h-1v1t-2-2-20-2l-19-1v-1h-4v-2l21-1q21-1 22-2 0-1 1-1t2-1z" fill="#a9998e" stroke="#a9998e"/>
  <path d="m484 246v-1h1q1 1 1 1l2 2q2 2 4 1t2-1h1v1l-1 3q-2 2-2 21v20h-1v1h-1v-19q0-19-1-21-1-3-3-5l-2-2t0-1z" fill="#b8a392" stroke="#b8a392"/>
  <path d="m66 404v-1l2 1q3 2 27 2h24v3h-24q-24 1-26 1l-2 1v-1q0-1 1-1h1v-1q1 0 1 0v-1q-1-1-1-1h-1q-1 0-2-2z" fill="#a6978b" stroke="#a6978b"/>
  <path d="m171 99h1v1q0 1 10 1 9-1 10-1 0 0 1 0v1l5 5q4 5 8 14 2 9 3 12v4q-1 0-1 21v21h-1v1h-53v-1q0-1-1-20v-20q1 0 1 0v-5q0-4 2-11t5-11l3-4t1-1q1 0 1 0v-1t1-1q1 0 1 0v-1t1-1l1-1v-1q0-1 1-1z" fill="#d0cbb7" stroke="#d0cbb7"/>
  <path d="m313 352h1t10 1h10v1q1 2 2 2v16h-3q-3 0-13-1l-11-1h9l-6-1h-5v-1l1-1v-3h-1v-1h1v-1l1-2q1-1 1-2v-2h1t1-1q1 0 1-1v-2z" fill="#d8ac87" stroke="#d8ac87"/>
  <path d="m132 194l3-1h43l2 2q3 1 4 2v11q1 11 0 11-1 1-2 1h-2v1h-1v1h1l-1 1q-1 1-1 10t1 10l1 1v1l1 1h-6l-22-1q-22-1-23-1h-1q-1-1-1-2t-1-21l-1-20t1-3q1-2 5-4z" fill="#f0b88b" stroke="#f0b88b"/>
  <path d="m745 407h44l2 3q3 3 3 22 2 19 2 19 0 1 0 1h1l1 1v1h-5q-5 0-9 1l-4 1h-4l3 1 3 1h61v1h-114v-1h5v-2t2-22q0-21 2-23l2-2v-1q1-1 5-1z" fill="#e9b489" stroke="#e9b489"/>
  <path d="m69 354v1h-1q-1 1-3 2t-2 0-1-2l-2-1 2-2q1-2 3-1 3 1 3 1 0 1 1 2z" fill="#d1d4d9" stroke="#d1d4d9"/>
  <path d="m1122 355h15q0 1 1 1v50h-1t-1 1h-30q-1-1-4-2l-2-2v-1l1-4 1-4v-18q0-17 1-18l1-1 1-1q1 0 17-1z" fill="#f6cfb0" stroke="#f6cfb0"/>
  <path d="m351 195v-1h5q5 0 7 1h2v1q0 1 1 1t1 17q1 18 1 22v5q-1 1-2 1-1 2-8 2h-6l-1-11q-1-11-1-19v-14q0-5 1-5z" fill="#f3cdad" stroke="#f3cdad"/>
  <path d="m70 192t-1 2q-1 1-4 2-2 0-4-1l-2-2 3-2q3-3 5-1t3 2z" fill="#d2d6dd" stroke="#d2d6dd"/>
  <path d="m1039 388l2 8q1 7 2 8 1 0 1 0v1t1 1v1h-1q-1-1-1-1-1 0-3-1t-4 1l-2 3t-1-1q0-1-21-1h-24v-1l24-1q23-1 24-2 2-1 2-8t1-7z" fill="#b8a493" stroke="#b8a493"/>
  <path d="m977 422v-4l1 2q0 2 1 2v14q1 15 1 15v1h2l-10 1h-10v-1t1 0v-1h1v1h6q5 0 6-1h1v-7q-1-7-1-10 0-2-2 0-2 1-2 1h-1q0-1 0-1 1 0 1-3v-3h-1v-2l2 2q3 2 3 0t1-6z" fill="#a38f7f" stroke="#a38f7f"/>
  <path d="m249 387v-1h57l1 2q1 1 0 8v7l-2 1q-2 2-2 3v1h-1v-2h-24q-24 0-26-2l-2-2-1-2-1-1v-6q0-6 1-6z" fill="#f5ceae" stroke="#f5ceae"/>
  <path d="m667 193h2q0 1 1 1 0 0 0 1h1l1 4q0 4 1 5v1l-1 19q0 18-1 19v1q-1 1-1 2h-2t-25-1-27-2l-2-2v-21q0-21 1-22l1-1t1-1h1t2-1l1-1h23q23 0 23-1z" fill="#f7bd8f" stroke="#f7bd8f"/>
  <path d="m920 178l25-1h96v1h28v207h-159l-3-1h-1v-3h72q73-1 76-1h8v-199h-2v-1h-130t0-1-5-1h-5z" fill="#d8d9da" stroke="#d8d9da"/>
  <path d="m56 408l3-1v1q0 1 2 2 2 2 3 2v1l-1 22q-1 22-2 23l-1 1v1h-2v1l-1 1h-24q-24 0-25-1l-2-1v-1h-1v-1h-1v28-14q0-15 0-36v-22q1 0 2-2 2-2 24-2 23-2 26-2z" fill="#f4bc8f" stroke="#f4bc8f"/>
  <path d="m546 714l-5 1q-5 1-5 11v10h81l-41 1-40 1h-10t-42-1q-41 0-42-1v-6q0-6-8-6l-7-1h-1l-2-1 50-3q49-3 60-5 12 0 12 0z" fill="#23446e" stroke="#23446e"/>
  <path d="m1100 242l2 2q2 3 2 3 0 1 0 1-1 0-2 2-1 0-3-1l-2-1-1-2q0-1 2-2t2-2z" fill="#d2d5db" stroke="#d2d5db"/>
  <path d="m239 194v-1h14l-2 5q-3 4-2 13 0 9 4 9 3 1 4 4 1 2 0 4v2q-1 0-1-4l-1-4h-1t0-1h-18v-1h5l2-1q2-1 2-11 1-11 2-11h1v-3h-9z" fill="#99827a" stroke="#99827a"/>
  <path d="m171 737l1-1h80l5 1q5 1 5 5v15q0 11 0 23v12h-1v-11l-1-11h-44q-44 0-45 0h-1v-2q0-2-1-2v-27h1q0-1 1-2z" fill="#1e4371" stroke="#1e4371"/>
  <path d="m357 0h447t168 1l167 1h1l-1 1q-1 1-2 68v67h-6q-6 0-16 1t-12 2l-2 2h-1q-1-1-2-2-2-1-28-2h-26q0 1 0 1h-1q-1 0-2 2-1 0-3-1l-2-1q-1 0-4-1l-4-1h-20q-21 0-25 2t-5 2l-2-2h-2l-2-1h-1q0-1-24 0h-25q0 1 0 1-1 0-2 2-2 0-4 0l-2-1v-1t-1 0q-1-1-1-1h-2q-1-1-20 0h-20q0-1-2-1-3 0-7 2t-5 2l-2-2h-2l-2-1h-1q0-1-23 0h-25q-1 1-3 2t-4 0l-3-1q-1-1-1-1h-2q-1-1-22 0h-24q-3 1-6 2-2 1-6 0l-3-2q0-1-1-1h-22q-22 0-26 3l-5 2v-1q-1 0-2-1-2-1-25-2t-26 0-5 2l-2 2h-1q0-1-2-2t-28-1-28 1l-3 2v-1q-1 0-1-1-1-1-28-1-26 0-28 1l-3 2h-1q0-1-2-2t-26-2q-23-1-28 2l-5 2v-1q-1 0-1-1-1-1-28-1-26 0-28 1l-3 2h-1q0-1-2-2t-26-2l-25-1h-1v-16q0-15-1-15v-3q-1-3-1-4-1 0-8-1l-7-1v-18l-1-3v-1h-32v2l-1 1-1 1v5h1v1h1l10 1 9 1h3v10h-10q-11 0-13 2-1 1-2 18l-1 17v1q0 1-2 2l-1 1h-3q-2 1-4 1-1 2-3 2-1 0-4-2l-3-1h-1q-1-1-15-1t-14-1l-1-1v-4q-1-3-3-12-4-9-8-14l-5-5v-1q-1 0-1 0-1 0-2-10v-9h-1v-1h-15v1h-1v1q-1 0-1 8v9q-1 1-1 1h-1t0 1l-1 1h-1t0 1q-1 1-1 1h-1t0 1q-1 1-1 1h-1t0 1l-3 4q-3 4-5 11t-2 11v4q-1 1-1 1h-1t-2 1h-10q-10 1-12 2t-6 0l-3-2h-1q-2-1-24-1-21 0-23 1-3 1-5 3l-3 1v-1q-1 0-1-1-1-1-28-1-26 0-27 0l-1 2h-2v-2q0-2-1-2v-10q1-10 0-68 0-57-1-57h-1v-2h178q178-1 178-1zm82 8v-5h241v10h4q3 1 5 2 1 2 1 5-2 3-6 4t-4 6q0 6-1 6l-1 1v1t-6 2q-5 2-32 4-26 2-72 3-45 1-73-1t-41-5l-12-3h-1v-1h-2v-6q0-6-3-6-3-1-5-2l-1-1h-1v-1h-1v-4l1-1v-1h1l1-1h1l2-1h5v-5z" fill="#dbe3ee" stroke="#dbe3ee"/>
  <path d="m0 522v-205l1 1q1 2 1 12v10l1-1 1-1v6q0 6-1 8v4q1 2 1 22v23q0 2 0 7v28q0 21 0 36v19q0 5 0 93v88h53-1v-1h-1v-1h-2v-1h-1v-1h-1l-1-1q-1-1-1-1h-1t0-1q-1-1-1-1h-1t0-1q-1-1-1-1h-1t0-1-2-3l-1-2 6 6q6 6 6 6h1l1 1 1 1h2v1h1v1h1v1h-1l-1 1h-55v16l1 16q0 1-1 16v14h74v-1h1v-7l1 4v4l-1 1h-75v3q-1 3 0 14v11h-1v-2l-1-18q-1-18-1-18v-205z" fill="#6d7279" stroke="#6d7279"/>
  <path d="m30 674h28l1-1h1l10 5q10 4 12 5l1 1h2l1 1 1 1h-3q-4-1-4 8v10h-1l-1 1-1 1h-73l-1-16v-16h27z" fill="#1e4473" stroke="#1e4473"/>
  <path d="m1028 138l4 1q3 1 4 1v1q0 1 1 3 1 1 1 16v16h-58v-17q2-16 3-17 1-2 23-2 22-2 22-2z" fill="#f6d1b1" stroke="#f6d1b1"/>
  <path d="m426 244h2q2 1 2 2t2 1h2v1q0 1-2 2-3 1-3 2v1q-1 0-1-1t-4-3l-3-2h2q2 0 2-1v-1h1q0-1 0-1z" fill="#d5c8bd" stroke="#d5c8bd"/>
  <path d="m188 404l2 2q1 3-2 4-3 2-3 1-1 0-1 0v-1t-1 0l-1-1h-1v-2h1q0-1 0-1l2-1q3-1 4-1z" fill="#d3d7de" stroke="#d3d7de"/>
  <path d="m78 736h1v1q0 1 1 2v1t-1 16v15h-1v-1q0-1-37-1h-37l-1-1h-1v-1q0-1 1-1v-12q-1-11 0-14v-3h75v-1z" fill="#1d4474" stroke="#1d4474"/>
  <path d="m719 721v-15h45q44 0 44 4v26h-89v-15z" fill="#faf9f9" stroke="#faf9f9"/>
  <path d="m496 356l2-1 25 1q25 0 25 1h1v1q1 0 1 20v20h1v1q-1 0-2 3-1 2-27 3l-25 1v2h-1v-1q0-1-2-3l-3-1v-1h1v-20q0-20 1-22t3-4z" fill="#f8d1b1" stroke="#f8d1b1"/>
  <path d="m324 192h5t-9 2q-8 2-10 5l-1 3v-2q0-2-1-2l-1 1q-1 0-1-1v-1h-1v-1h-1v-3h8q7-1 12-1z" fill="#8c857f" stroke="#8c857f"/>
  <path d="m309 352h3t0 1h1v1q0 1-1 1-1 1-1 1h-1v1t-1 0q0 1-2-1-3-1-1-3 0-2 3-1z" fill="#d1d4d8" stroke="#d1d4d8"/>
  <path d="m610 244l2-2h1q1 0 1 1 1 1 2 2 1 0 0 1 0 2 0 2v1h-1q-1 1-1 1t-2 0h-1q-1-1-1-2-2-1 0-4z" fill="#d1d3d9" stroke="#d1d3d9"/>
  <path d="m372 190t0 1h1q0 1 1 1v2t-2 1-4 1l-2-1q0-1-1-1t-1-2l1-1 3-1q2-2 2-1 1 1 2 1z" fill="#dedad7" stroke="#dedad7"/>
  <path d="m678 481l4-1 3 1q3 1 3 1v8q0 6 1 6 0 0 1 1 0 0 1 1l2 1q2 1 2 2v1q1 0 1 0v1t1 1q1 0 1 0v2q0 1-4-3-3-3-12-4l-8-1h-2v-1h1v-1h1v-7q0-7 4-8z" fill="#562c2c" stroke="#562c2c"/>
  <path d="m553 293l2 2q2 3 5 3 2 0 24 1h23v1q0 2-25 2-24 0-26 3l-3 3v-1q-1-1-1-1v-1t1-1q1-2 2-2t1-2q1-1-1-2l-2-2t-1-1l-1-1h1q1 0 1-1z" fill="#b4a294" stroke="#b4a294"/>
  <path d="m545 195l-4-3h3q2 0 2 1h1l2 2q2 1 5 0t3-2h1q0 1 1 1h1t-2 1h-2v1q0 1-1 1t-1 2-1 22l-1 20-1-19q-1-18-1-21t-5-6z" fill="#b8a494" stroke="#b8a494"/>
  <path d="m611 240v-1h1v3l-2 2q-2 3 0 4 0 1 1 2h-1q-1 0-2-1 0-1-24-1l-25-1h-1l-1-1 26-2q26 0 27-1 0-1 1-3z" fill="#b8a290" stroke="#b8a290"/>
  <path d="m841 442t-5-1h-10q-4-1-7-4l-3-4v-4l1-1 1-1v-1l1-1 1-1 1-2q1 0 11 0t12 5 0 10-3 5z" fill="#cccac8" stroke="#cccac8"/>
  <path d="m379 356l5-1 21 1q21 0 21 1h1l1 20q0 21 0 21l1 1v1q-1 0-2 2t-27 3l-25 1v2t-1 1v-1q0-2-2-4l-3-1v-1q1 0 1 0v-3q0-2-1-15v-12h1v-4q0-5 1-7t2-3q1-2 6-2z" fill="#f8d1b1" stroke="#f8d1b1"/>
  <path d="m680 406h49v3h-25q-24 0-24-1v-2z" fill="#a5968a" stroke="#a5968a"/>
  <path d="m870 139q-1 1-4 1-4 0-5 2-1 1-3 16v16h-1v1h1v1h47l1 1q1 1 1 1h-52l-3-1h-4v-1h7v-16q-1-16-1-17l-1-1h-1v-1h-1v-1h-2v-1h1l2 1h2l2 2q1 0 5-2t7-2q2 0 2 1z" fill="#8c7e73" stroke="#8c7e73"/>
  <path d="m460 194h24l2 2q3 1 3 20l1 19v6q-1 1 0 1 0 1-2 2l-2 2t-1-1h-49q0-1-1-1t-3-4l-1-3v-1q-1 0-1-17v-17t1-2l1-3h1q1-1 1-1l2-1q2-1 24-1z" fill="#f8d1b0" stroke="#f8d1b0"/>
  <path d="m672 398v-5h3l1 5q0 5 2 6 1 2 2 2v1h-2q0-1-2-2-1-1-3-1l-2 1h-1q0-1 0-1t1 0v-1q0-1 1-5z" fill="#b9a697" stroke="#b9a697"/>
  <path d="m3 302v-3h1v2q1 3 1 2h1q0-1 2-1l1-1 25 1q24 0 26 2t2 2h1l-1 22q0 22-1 22v1h-1v1h-2l-2 1q-1 1-1 1h-23q-21 0-24-1l-4-1v2h-1v-2q1-2 1-8v-22q0-17-1-20z" fill="#f4bc8f" stroke="#f4bc8f"/>
  <path d="m491 296h1v1l2 1q2 1 1 2 0 2-1 2t-1 1v1h-1t0 1h-1q-1-1-1-1h-1v-1q-1 0-2-2l-1-2q1-1 2-1 0 0 1 0v-1h1q0-1 1-1z" fill="#d2d7dd" stroke="#d2d7dd"/>
  <path d="m141 252v20h-14v-1h-1v-4q0-4 1-10t1-7l1-1 5-1q6-1 6 2 0 2 1 2z" fill="#e8c3a4" stroke="#e8c3a4"/>
  <path d="m954 442v-1h8v1l1 4v5h-1q0 1 0 1h-9v-6l1-4z" fill="#b5b3b1" stroke="#b5b3b1"/>
  <path d="m943 720l1-14h24q23 0 23 1v15q0 14-1 14h-27q-26 0-26-1v-1h2t1 0q2 0 3-14z" fill="#f7f7f6" stroke="#f7f7f6"/>
  <path d="m613 413h1l1 22q1 22 1 23t1 1 1 1v1h-1q-1-1-1-1t-3-1q-2-1-3 1-1 0-22 1l-21 1-1-1v-1l22-1q21-1 22-1 0-1 1-20t1-22v-2t1-1z" fill="#b5a496" stroke="#b5a496"/>
  <path d="m142 289l22 1q21 0 21 1v1q-1 0-2 2t-11 3l-9 1v-1h-1v-1h-1v-2q0-1-6-1l-6-1-1 1q0 1-1 1v1q-1 0-1 1 0 2-8 2h-7v-1h-1v-1h-1l-1-1v-1l-1-2v-2h7q8 0 8-1z" fill="#efcbac" stroke="#efcbac"/>
  <path d="m4 401v-2 2q1 2 4 3 2 2 26 2 25 0 25 1l-3 1q-3 0-26 2-22 0-24 2-1 2-2 2v-6q0-5 0-7z" fill="#aea197" stroke="#aea197"/>
  <path d="m123 404l3-1v1l2 1q2 1 2 2h1v2h-1q-1 1-1 1-1 0-3 1t-4-1l-2-1v-2q0-1 3-3z" fill="#d1d4d9" stroke="#d1d4d9"/>
  <path d="m189 296h1t0 1h1v1h3l6 1q6 0 6-1t1-1v9q-1 0-1-2t-8-2h-7l-1 2q-2 1-2 3t-1 2v-1q-1-2-1-2v-1q1-1 3-2 1-2 1-4l-1-2v-1z" fill="#af9f91" stroke="#af9f91"/>
  <path d="m376 196l3-2 23 1q23 1 25 2 1 2 2 3l1 2v17q0 17 1 17v1q-1 0-2 3l-2 4h-1t0 1h-26q-25-1-28-2l-2-2v-19q0-20 1-22t5-4z" fill="#f6bd8f" stroke="#f6bd8f"/>
  <path d="m428 377l-1-20h3q1 1 2 0v3q0 2-1 22v20h-2v-3l-1-1t0-21z" fill="#b9a290" stroke="#b9a290"/>
  <path d="m550 298l3-2 2 2q2 1 1 2 0 2-1 2t-2 2q-1 1-1 1-1-1-2-1 0 0-1-3-1-2 1-3z" fill="#d2d7de" stroke="#d2d7de"/>
  <path d="m1044 406v-1h1q1 1 25 1h24v1h1v2h-25q-24 1-26 2l-3 1 2-2q1-2 2-2v-1h-1q0-1 0-1z" fill="#a6978b" stroke="#a6978b"/>
  <path d="m991 407h21q21 0 21 1 1 1 1 1l2 1q2 2 2 2h1v22q0 22 8 24 8 0 8 1h-107v-1h19q19 0 29-1l11-1h-4l-4-1q-4-1-21-1h-17v-2h1v-2h2v2h-1 19-2v-1t-1-15v-16q1-2 1-4 0-3 2-5l2-2 4-1q3 0 3-1z" fill="#e6b289" stroke="#e6b289"/>
  <path d="m851 405h1v1q0 1-1 1v2h-49v-3h24q24 0 25-1z" fill="#a6968a" stroke="#a6968a"/>
  <path d="m1083 782v-13h54v1q1 0 1 14v14h-1t-21 1h-33v-17z" fill="#f8f8f8" stroke="#f8f8f8"/>
  <path d="m180 222h1l27-1h46q0 1 0 1h2v4q0 4 1 4v7q-1 7-1 7t-15 1l-15 1h-2q-3 0-3 1h-1q0-1-20-1h-19l-1-1v-1l-1-1q-1-1-1-10t1-10l1-1z" fill="#e99fdb" stroke="#e99fdb"/>
  <path d="m638 712l5-20t1 1 1 1l-1 5q-2 5-1 5 0 0 37 1h38l1 1v30h2v1l-1 1q-2 0-2 4v5h-1v-5q0-4-42-4h-42v1h-1v2h-1v1h-1v-2l1-2 1-1v-2l1-2q1-2 5-21z" fill="#214572" stroke="#214572"/>
  <path d="m128 297q0 1 0 1h2q1 1 1 2-1 1-1 2h-1q-1 0-1 1-1 1-3 1h-2v-1q0-1-1-1t-2-2q0-1 2-2l1-1 1-1q2 0 2 0 1 0 2 1z" fill="#d3d4d6" stroke="#d3d4d6"/>
  <path d="m4 353v-1l4 1q3 1 24 1h22l4 2q3 2 4 3 0 1 1 22v22l-1 2q-2 1-2 2h-1q0-1-25-1-24 0-26-2-3-1-4-3v-23q0-20-1-22v-2h1v-1z" fill="#f7d1b1" stroke="#f7d1b1"/>
  <path d="m254 360v9h-4v-1t-1 0q-1-1 1-6 0-5 2-5 1-1 2 3z" fill="#e5c2a5" stroke="#e5c2a5"/>
  <path d="m1106 192v-1h2q3 1 4 1h2t-2 1-6 3-4 24l-1 21h-2v-21q-1-20-1-22 0-1-2-2l-2-1v-1h2t1 0v1l3 1q2 0 4-1 2-2 2-3z" fill="#b7a392" stroke="#b7a392"/>
  <path d="m496 408h2l24 2q25 0 26 2 2 2 2 2h1l-1 22q0 21-1 22v2h-1t-26 1q-25 1-26-1l-2-1v-1q0-1-2-23l-1-22v-1l3-2q2-2 2-2z" fill="#f4bc8f" stroke="#f4bc8f"/>
  <path d="m78 288v-9h2v26q0 26 1 36v10h-1q0 1 0 1h-1v-24q-1-25-6-25t-6 3l-1 3t-1-1v-4q1 0 1 0 0-1 1-1v-1q1 0 2 0 1-1 1-2l-1-1v-2l4 1q4 0 4 0h1v-10z" fill="#85786c" stroke="#85786c"/>
  <path d="m198 409h4l20 1q21 0 22 1l1 2q1 2 1 23t1 21q0 1-2 2t-8 2l-6 1t-21-1l-20-1q-1 0-1-1v-1q-1-1-1-22l-1-20 2-3q2-3 3-3 2 0 6-1z" fill="#f7d1b1" stroke="#f7d1b1"/>
  <path d="m129 302h1v1l-2 3q-2 4-2 23v19h-1v-1h-1v-20q0-20-1-21v-2h2q2 0 3-1 0-1 1-1z" fill="#b8a290" stroke="#b8a290"/>
  <path d="m883 385h3t1 1v1q-1 0-1 9-2 10-10 10l-8 1q0-1-2-1h-3v1h-1q-1-1-1-1v-1q-1-1-1-1 0-1-2-8v-7h-1v-2h1v-1h12q13 0 13-1z" fill="#ecc7a9" stroke="#ecc7a9"/>
  <path d="m480 301h1q0 1 3 1h2v1h1v1h1q0 1 1 19l1 18v8l1 1q1 1 2 2v1q0 1 0 2h-1q0 1 0 1h-3v-1h-1v-1t-1 0l-1-1q0-1-1 0h-7q-6-1-24-1-19 0-21-3l-2-3v-18q1-19 1-21v-2l2-1q2-2 24-2 21 0 22-1z" fill="#f8d1b1" stroke="#f8d1b1"/>
  <path d="m253 351h1v7q0 6 0 6v-4q-1-4-2-3-2 0-2 5-2 5-1 6 1 0 1 0v1h-5v-1h1v-4q0-4-2-6l-1-2q-1 0 0-2v-2h1l1 3q1 3 4 1 3-1 3-2v-2h1v-1z" fill="#b19c8b" stroke="#b19c8b"/>
  <path d="m335 258l1 2v15l-1 1h-1l-2-1q-1-1-9-1l-8-1v-1h-2q-2 0-2-1-1 0-1-8t0-11l1-2 3-1q3-1 11-1 9 0 9 4 0 3 1 6z" fill="#e5b188" stroke="#e5b188"/>
  <path d="m1103 304l-1 3q0 3-1 21v20h-1v-1h-1v-19q-1-20-1-22v-2h2q1 0 1-1h1t1 1z" fill="#b8a392" stroke="#b8a392"/>
  <path d="m93 190v-6h1v6h1l1 1 1 1h4l1 1q0 1 10 2t11 3q1 1 1 2v20q0 20-1 22v1h-1q-1 1-12 1l-11 2h-1l-1-1h-1v-1t-1 0v-12q-1-12-1-12v-12q0-12-1-18z" fill="#eec9ab" stroke="#eec9ab"/>
  <path d="m369 290l3 4q2 4 7 4h5l7 1 7 1h-9v1h-5q-5 1-8 1l-3 1v1q-1 0-1 0h-1v-1q0-1 1-1t1-2q1-1-1-2h-1v-1h-1v-1h-1l-1 1h-1v-1q1-1 1-2v-2q0-2 1-2z" fill="#b2a398" stroke="#b2a398"/>
  <path d="m146 697h2l-2 2q-2 3 0 3h2l-2 1h-3v2l5-1q5 0 14 2 10 2 10 2l-1 1q-1 1-1 14v13h2l-1 1q-1 1-1 2h-1v-1h-34v2l-1 3v-6q0-2 3-16t5-19q3-4 4-5z" fill="#24456f" stroke="#24456f"/>
  <path d="m674 242h1l1 2q1 2 2 2v1q-1 1-2 3l-1 2h-1q-1 0-1-1v-1q-1 0-2-2l-2-1v-1h1q0-1 1-2l1-1q1-1 2-1z" fill="#e1dcd7" stroke="#e1dcd7"/>
  <path d="m615 191l-1-3h1l1 1q1 1 2 1v2q0 2-1 2 0 0 0 1v1h-1v1q-1 1-2 0h-2t2-2q2-1 1-4z" fill="#d1bfb0" stroke="#d1bfb0"/>
  <path d="m94 250v-30t1 12v12t1 1v1t1 0l11 2q12 0 12 1 1 1 2 1l1 1q1 1 0 11 0 10-1 10t-1 1h-7q-6 1-10 1h-5l-1 1h-2v7h-1v-1h-1v-31z" fill="#dbaa83" stroke="#dbaa83"/>
  <path d="m298 352v-17t1 9v8l3-1q2-1 4-3 0-1 1-1v2h2v-3l2 2q1 3 2 4v1h-1q-1 0-1-1t-3-1q-2 1-3 2-1 2 2 3 2 2 2 1 1 0 1 0v1q0 1-1 2l-1 2v1h-1v-1l-1-2v-1q0-1-2-2l-2-1-2-1h-1v14h-1v-17z" fill="#a49081" stroke="#a49081"/>
  <path d="m426 188h1t1 1l-2 3q-1 2 2 4 3 1 3 0t1-1h1v1q-1 1-1 1l-1 3q-1 2-1 2l-1-2q-1-1-2-3-2-1-25-2l-23-1v-1h1v-1h-1v-1l23-1q23 0 24-1 0-1 0-1z" fill="#baa493" stroke="#baa493"/>
  <path d="m1139 632l1-29v31q0 30 1 30v137h-419v-1h373v-1h21q21-1 21-1h1v-14q0-14-1-14v-1q0-1 0-1h1q0-1 0-16v-14l-28-1h-28v-28h1v13l1 13v1h53v-1h1v-14q0-14-1-15 1 0 1-16v-28t1-30z" fill="#6b6f74" stroke="#6b6f74"/>
  <path d="m490 241h2l2 2q2 1 27 2h25v2h-23q-22 1-25 1l-3 1v-3q-1-1-3-2l-2-2q-1 0 0-1z" fill="#b39f8f" stroke="#b39f8f"/>
  <path d="m304 304v-1h1q1 0 1 1h2q1 0 2 0v4q0 2-1 20v21h-2v-21q-1-20-1-22 0-1-1-1t-1-1z" fill="#b19e8f" stroke="#b19e8f"/>
  <path d="m302 249v-1l2 2q2 1 2 12 0 10-3 10h-3v-9l1-7v-6q1 0 1-1z" fill="#d9b89c" stroke="#d9b89c"/>
  <path d="m736 387v-1h56q2 1 3 2l-1 8q-2 7-2 8-1 0-1 1h-1v1h-7v1h-34q0-1-5 0h-4q-1-1-1-1v-1q-1-1-1-1 0-1-2-8l-1-8q1-1 1-1z" fill="#f2ccad" stroke="#f2ccad"/>
  <path d="m857 422h1v29h1q0 1 14 1h14q1 1 1 0h13t-33 1-35 0l-2-1h3q4 0 4-4 0-5-3-6l-3-1h4q5 1 5 1h-1q0 1 0 5t0 4v1h10l2-1h3v-27l1-1q0-1 1-1z" fill="#85776c" stroke="#85776c"/>
  <path d="m992 751v-13h88q1 0 1 15v15h-88v-1q-1 0-1-1v-15z" fill="#f9f9f9" stroke="#f9f9f9"/>
  <path d="m1099 241q0 1 1 1 0 1-2 2t-2 2l1 2q1 1 1 2v1h-1q-1 0-1-1t-11-2l-11-2t-1 0l11-1q12-1 13-2 1 0 1-1t1-1z" fill="#baa593" stroke="#baa593"/>
  <path d="m255 302h7q6 0 6 0h1v6l-5 6q-6 5-8 14t-2 16v7h-1v1h-1v-1h-1v-1h-1v-2l-1-2-1-1v-38l2-2q3-3 5-3z" fill="#ebb78b" stroke="#ebb78b"/>
  <path d="m130 356q1 0 2 1h1v7l-1 5v1h-3l-1-1-1-1h-1v-7q0-1 1-2v-1h1t0-1h2q0-1 0-1z" fill="#ccb398" stroke="#ccb398"/>
  <path d="m34 194h22l3 2q3 1 3 2 0 2 1 22v21q-1 0-2 1-1 2-27 2-25 1-25 2v1h-1q0-1-2-2t-2 1v1h-1v-3q1-2 1-24v-22h1l1-1 1-1h2q2-2 25-2z" fill="#f6bd8f" stroke="#f6bd8f"/>
  <path d="m1071 194l9-1h8v1h4l1 1h1t1-1h1t1 0v1l-1 1t1 1q1 0 1 1 0 2 1 22v21q-1 0-1 1t-1 1q-1 1-13 2l-11 1h-2v-1h-1v-29q0-22 1-22z" fill="#f4cdad" stroke="#f4cdad"/>
  <path d="m1114 192h22l1 2q1 1 1 24v23t-1 2v2h-15q-16-1-18-2l-3-2 1-21q0-22 4-24t6-3 2-1z" fill="#f3bb8e" stroke="#f3bb8e"/>
  <path d="m693 675h24v30h-37q-37-1-37-1-1 0 1-5l1-5 18-6q18-6 24-10 6-2 6-3z" fill="#f6f6f6" stroke="#f6f6f6"/>
  <path d="m251 719v-1l41 2q41 2 80 3 38 1 38 1h-12q-12 0-28 1h-17v11h86t-43 1l-43 1h-90v8h-1v-4q0-4-5-5l-5-1h9v-16h-1q-1 0-5-1h-4z" fill="#2a476b" stroke="#2a476b"/>
  <path d="m1100 403l2 2q3 1 4 2v1q0 1-3 2l-3 2q-1 0-3-2l-2-1v-2l2-2q2-1 3-2z" fill="#d1d4da" stroke="#d1d4da"/>
  <path d="m485 408h1l2 2q2 2 2 2h1v1l-1 1q0 2-1 22-1 21-1 22v2t-1 0q-1 1-1 1 0-1-20-1h-19v2h-5q-6 0-8-2-2-1-4-1h-2v-1q0-1 2-1 1 0 1-20v-22l1-2q2-3 28-3 25-2 25-2z" fill="#f7d1b1" stroke="#f7d1b1"/>
  <path d="m672 274l1-23h1q0 1 0 1h1l1 22q0 21 1 21 0 1 1 1v2q-1 0-2-1t-4 0l-2 1q0 1-1 1h-1q0 1 0 1-1 0-1-1t2-2q1-1 3-23z" fill="#bcafa6" stroke="#bcafa6"/>
  <path d="m246 292v3l-1 2q-1 1-2 2-1 0-1 1 1 2 2 2t1 1q1 1 1 1v4t-2-2q-1-2-11-3l-10-1v1q-1 0-1 2v2t-1-6v-6l1 1q1 2 10 1 10-1 12-1 1-1 1-2 1-2 1-2z" fill="#baa491" stroke="#baa491"/>
  <path d="m1097 249v-1l2 1q2 1 3 1 1-2 2-2v2t-1 0v1h-1v17q0 18-1 19v1l-1 3q0 3 0 4-1-1-1-1v-20q-1-21-1-22v-2t-1 0v-1z" fill="#b8a391" stroke="#b8a391"/>
  <path d="m184 435l1-22h1q1 0 1 1v2l1 21q1 21 2 21t1 1 20 2 20 1h-19q-20 0-21-1l-1-1q-1 0-1-1h-1q0-1-2-1-1 0-3 2l-2 2h-2v-2h2v-1h1v-1h1t0-1q1 0 1-22z" fill="#b5a496" stroke="#b5a496"/>
  <path d="m977 444v7h-1q-1 1-6 1h-6v-2h-1v-4l-1-4v-1l3-1q3 0 4-2 1-3 2-3h1t2-1q2-2 2 0 0 3 1 10z" fill="#dbba9e" stroke="#dbba9e"/>
  <path d="m556 250l3-3 25 1q24 0 24 1 1 1 2 1v20q1 20 1 21h1v3q0 1-1 2l-1 2q-1 0-2 1h-24q-22-1-24-1-3 0-5-3l-2-2v-20q1-20 3-23z" fill="#f6bd8f" stroke="#f6bd8f"/>
  <path d="m749 407h-4q-4 0-4 1 0 2-2 4-3 1-3 22-2 22-2 22v-2q0-2-1-22-1-19-2-21l-2-2h1l3 1q3 2 5 0t2-2v-1h4q5-1 5 0z" fill="#b9a391" stroke="#b9a391"/>
  <path d="m856 388h1v1h1v7q2 7 3 8 2 2 2 2v1h-1q-1-1-1-1h-1t0-1-3-1q-2 0-3 1l-2 1v-1q0-1 1-1 1-1 1-8 2-7 2-8z" fill="#b9a594" stroke="#b9a594"/>
  <path d="m905 378h1l75 1q75 1 75 1h-2q-3 0-76 1h-72v3h1l3 1h4v1h-4q-4 1-4 2t1 10v8h3q2 0 2-1 1-1 2-2h1v3q-1 0-1 0h-1v1q0 1 0 2 1 0 1 1 0 0 1 0v2h-1q-1 0-1-1t-3-1l-3-1v5q-1 5-1 9v4h-1v-1h-1v-1l-1-1-1-1v-1h2v-22q0-22 1-22z" fill="#615e5c" stroke="#615e5c"/>
  <path d="m612 242v-1h2l2 2q2 1 27 2t25 1h1v1h-23q-23 1-26 1-2 0-2 1t-1 1h-1v-2t0-2q1-1 0-1-1-1-2-2 0-1-1-1h-1z" fill="#b3a090" stroke="#b3a090"/>
  <path d="m8 247h1l25 1q25 0 26 1l1 1h1v1h1v21q-1 22-1 23v1t-1 1-26 1h-25l-1 1v1h-1t-2-2q-1-2-2 0v1h-1v-2q1-2 0-26v-24h1v-1q0-2 2-1t2 2z" fill="#f7d1b1" stroke="#f7d1b1"/>
  <path d="m128 245h1q0 1 1 1l-1 1q-1 1-1 1v1t-1 1q-1 0-3-1l-2-1q0-1-1-2 0-1 1-2l2-1h1q1 0 2 1 1 0 1 1z" fill="#d2d5da" stroke="#d2d5da"/>
  <path d="m557 408v-1h1v2l25 1q25 0 27 2 1 2 2 2v2q0 3-1 22t-1 20q-1 0-22 1l-22 1h-4q-4 0-4 1v1q-1 0-1-1h-1v-1q0-2-1-2-1-1-1-23l-1-22q1 0 1-1l1-2t1-1q1 0 1-1z" fill="#f9d2b1" stroke="#f9d2b1"/>
  <path d="m125 350l1-1 1 1q1 2 1 2h1v1h1v1h1q-1 1-1 2 0 0 0 1h-2t-1 1h-1q-2 0-2-1v-1h-1t-1-1q-1 0 0-1v-2q1 0 1-1h1q0-1 1-1z" fill="#d0d2d3" stroke="#d0d2d3"/>
  <path d="m860 406h1t1 1v2h-1q-1 1-2 1l-1 1q0 1-2 1-1 0-2-2l-2-1v-1t-1 0v-1q1 0 1-1l2-1q1-1 3-1 3 1 3 1 0 1 0 1z" fill="#d6d3d1" stroke="#d6d3d1"/>
  <path d="m56 193v-1h1q1 0 1 1h1l2 2q2 1 4 1 3-1 4-2 1-2 1-2h1q1 1 1 2l-3 2q-3 2-3 22v20l-1 2-1 1h-1v-21q-1-20-1-22 0-1-3-2l-3-2v-1z" fill="#b9a392" stroke="#b9a392"/>
  <path d="m646 247h23l2 1q1 2 2 2v1q-1 0-1 23v22h-1q-1 0-1 1v1q0 1-1 1h-1q0-1 0 0h-4q-3-1-24-1-22 0-24-3l-2-3v-20q0-19 1-20l1-2t1 0v-1l3-1q3 0 26-1z" fill="#f8d1b1" stroke="#f8d1b1"/>
  <path d="m122 304l1 1v1q1 1 1 21v21t-1 2v1q0 1-1 1h-6q-6 0-13 1h-7v-1h-1v-8h1v-21q0-21 12-21t14 2z" fill="#f7d0b0" stroke="#f7d0b0"/>
  <path d="m676 200v-2l1 2 1 1v45q-1 0-2-2l-1-2v-22l1-18v-2z" fill="#dec7af" stroke="#dec7af"/>
  <path d="m184 359l1 3-1 3q0 3-2 4h-5v-3q1-3 1-7t2-3q2 0 4 3z" fill="#eacdae" stroke="#eacdae"/>
  <path d="m70 408q1 0 25 1h25l2 3q2 2 2 23v21t0 1h1l-3 2q-3 3-8 3h-4t-21-2q-21-1-21-2t-1-23-2-22h-1v-1h1q1 0 1-1h2q0-1 0-1 1 0 1-1v-1q1 0 1 0z" fill="#f7d1b1" stroke="#f7d1b1"/>
  <path d="m562 354v-1h8l16 1q16 0 19 1h3l1 2q1 2 2 9t1 21v14q-1 1-2 2-2 1-26 3h-24l-1 1h-2q0-1-2-2l-2-2v-21q1-21 2-24l2-3 2-1q3 0 3 0z" fill="#f6bd8f" stroke="#f6bd8f"/>
  <path d="m618 408h2l24 2q25 0 26 2 2 1 2 2l-1 22q-1 22-1 22t-1 1l-1 1h-2l-2 1-3 1h-21q-21 0-22-1v-1t-1 0q-1-1-1-2t-1-23l-1-22v-1l2-2q2-2 2-2z" fill="#f5bd8f" stroke="#f5bd8f"/>
  <path d="m849 139v1h2v1h1v1h1l1 1q0 1 1 17v16h-58v-1h-1v-1q0-1 1-16 1-14 3-16l2-3h24q23-1 23 0z" fill="#f4bd8f" stroke="#f4bd8f"/>
  <path d="m444 741v27h45q45 0 45-1l1-5v-4q1 0 1 6v35h77v1h-173v-1h2v-4l1-27q1-27 1-27z" fill="#1d4270" stroke="#1d4270"/>
  <path d="m1100 413l1 21q1 22 4 24 2 2 2 3v1h-1q-1 0-2-2-2-2-5 0-3 0-17 1l-15 1 1-1 2-1h13q13-2 14-3 1-2 2-23t1-21z" fill="#b6a497" stroke="#b6a497"/>
  <path d="m439 8v-5h241v5q0 4 1 4v1q0 1-120 0-119 0-120-1-1 0-1 1t-2 1l-2-1 1-1q1 0 2-4z" fill="#4c4d4e" stroke="#4c4d4e"/>
  <path d="m616 248t1 0v2q-1 0-1 0l-1 2q-1 1-1 20v20q0 1-1 2h-1v-3h-1q0-1-1-21v-20h2q2 0 2-1 1-1 2-1z" fill="#bba490" stroke="#bba490"/>
  <path d="m193 336v-3q1 0 1 18v18h12v1h-25v-1h1q2-1 2-4l1-3q1 0 1 2 0 1 1-2l1-4v-1q0-1 2-3l1-1v-1q1 0 1 0v-6q0-6 1-10z" fill="#897765" stroke="#897765"/>
  <path d="m625 734v-1q1 0 1 1v1l1 3 1 2v2h2-2q-1 1-1 14v12q-1 1-1 14v14h-1v-27h-89v-5q0-6-1-6v-20h1l40-1 41-1h8v-2zm0 32h1q-1 0-1 0z" fill="#1e4372" stroke="#1e4372"/>
  <path d="m436 245h48v1q0 1 0 1h-22q-23 1-25 1t-5 3l-3 2v-1q0-1 2-2 1-1 2-2 1 0 1 0v-1l1-1q1-1 1-1z" fill="#b8a18e" stroke="#b8a18e"/>
  <path d="m720 592l-1 1q-1 1-2 31-1 31-6 36-5 6-5 7-2 1-2 1l-1 1-1 1h-1l-1 1-1 1h-1v1q-1-1-2-1l-1 1q-1 1-1 1l-1 1q0 1-6 3-6 4-24 10l-18 6q-1-1-1-1v-1t-1 0v-1q-1-1-3-4t-12-8-16-6q-7-1-10 1l-4 2h-1v1h-1v1h-1v1h-1v1h-1v1h-1v4h1v1h1l8 4q9 4 9 4h1v1h1v1h2v1h1v2h1v1h-1l-1 1h-1v2h-1l-1-1h-4q-3 0-8 2l-4 2h-1q-1 0-25 4l-24 4t-12 0q-11 2-60 5l-50 3 2 1h1q0 1-9 1h-8t-38-1q-39-1-80-3l-41-2v1h-3q-2-1-39-6l-37-5t-10-2q-9-2-14-2l-5 1v-2h3l2-1h-4v-2h1v-1h1q0-1 0-1 1 0 1-1h1q1-1 9-4l8-3 1-1 1-1h1v-5h-1v-1h-1v-1h-1v-1h-1v-1h-1v-1l-5-2q-5-2-11 0-6 0-15 6-10 5-12 7t-2 3v1t-1 1l-1 1q-1 1-1 1h-1l-2-1q-1-1-13-5l-12-4-1-1-1-1h-2l-1-1q-2-1-12-5l-10-5v-1h-1v-1h-1v-1h-2l-1-1-1-1h-1t-1-1l-2-1h-2t0-1h-1q-1-1-2-2l-1-2q1-1 0-1v-1q0-1-2-2l-1-1h-1t-1-2-2-32l-1-30 2-1q1-1 342 0 340 1 340 1z" fill="#ededed" stroke="#ededed"/>
  <path d="m607 300v-1h1l2 3q2 2 2 2v1t-1 1v1l-1 21q0 22-3 23-2 1-2 2h-46q0-1-1-1-2 0-3-2-1-1-1-22l-1-20 3-3q2-3 26-3 25 0 25-2z" fill="#f8d1b1" stroke="#f8d1b1"/>
  <path d="m794 396l1-8 2 8q1 7 3 8 0 1 1 2v1h-1q0-1 0-1t-3-1l-2-1q-1 0-3 2l-2 1h-7v-1h7v-1h1q0-1 1-1 0-1 2-8z" fill="#baa696" stroke="#baa696"/>
  <path d="m617 699l1 1q2 1 2 4 0 2-1 2h-23l4-2q5-2 8-2 4 0 6-1l2-1h1v-1z" fill="#727272" stroke="#727272"/>
  <path d="m62 296v1l-2 1q-1 1 1 4 3 2 3 2v1h1v1h-3t-2-2-26-2l-25-1v-2l1-1h25q25 0 26-1t1-1z" fill="#ae9f93" stroke="#ae9f93"/>
  <path d="m368 166l1-22 1 22q2 22 3 23t2 1v2h-1q0-1-1-1h-1q0-1 0-1-1 0-2-1 0-1-2 1l-3 1v-1t1-1q0-1 2-23z" fill="#b9a391" stroke="#b9a391"/>
  <path d="m240 356h3l1 2q2 2 2 6v4h-1v1h-8q-1 0 0-7 0-7 3-6z" fill="#e9b58b" stroke="#e9b58b"/>
  <path d="m338 180v-2h8v1l1 1 1 1v12h1v40q1 28 1 35v22q0 11-1 36v38q-1 0-1 10v9h-1v1h-1l-4 1h-4v-2l-1-2v-5q-1-3-1-4v-181l1-1v-6q1-3 1-4z" fill="#f1f0f0" stroke="#f1f0f0"/>
  <path d="m675 164l1 19v4h2v4q-1-1-2-1-1-2-3-1l-2 1q-1 1-1 1-1 1-1 1v1h-2v-1q1-1 1-1 0-1 2-2t2-23l1-21 1-1q1 0 1 20z" fill="#baa390" stroke="#baa390"/>
  <path d="m114 273h201l8 1q8 0 9 1l2 1v10h-6q-3 0-10 1h-204q-8-1-12-1h-6v-11h2l1-1h5q4 0 10-1z" fill="#f3f3f3" stroke="#f3f3f3"/>
  <path d="m678 354q-1 0-2 2t-2 2h-1q-1-1-1-1v-1t-1 0q-1-1-1-1v-2t1-1l2-1q2-1 3 1 2 1 2 2z" fill="#d8dce2" stroke="#d8dce2"/>
  <path d="m1124 247h13v5l1 5v40t-1 1v1h-1q-1-1-16-1-16-2-18-6l-1-4v-1q1-1 1-19v-17h1v-1q1 0 1 0v-1l3-1q3 0 17-1z" fill="#f7d0b0" stroke="#f7d0b0"/>
  <path d="m485 300v-1h1l1 2q1 2 2 2v1h1t1 1h1q0-1 0-1h2l-1 2q-1 3-1 23v20h-2v-8l-1-18q-1-18-1-19h-1v-1h-1v-1h-2q-3 0-3-1h2q2 0 2-1z" fill="#b9a391" stroke="#b9a391"/>
  <path d="m552 306t1 1v1l1 20q0 21 1 22 1 2 3 2 1 0 1 1h-1q-1 0-1 1v1h-1v-1q0-1-2-2 0-1-3 0h-3v-1q0-1 1-1 1-1 1-22l1-21q0-1 1-1z" fill="#b9a493" stroke="#b9a493"/>
  <path d="m132 408v-1h45q3 0 3 1t1 1h1l1 1q1 0 1 0v2t0 1h1l-1 22q0 22-1 22 0 1 0 1h-1v1h-1v1q-1 0-1 0v1t-1 1h-24q-24 0-27-3l-3-2h-1q0-1 0-1h1q1 0 2-22 1-21 2-23l2-2q1 0 1-1z" fill="#f2bb8f" stroke="#f2bb8f"/>
  <path d="m185 292v2q1 1 1 1l-2 2q-3 2-1 5 3 3 3 3v1t1 2v1q-1 0-3-3-3-4-12-4h-11v-1l1-1v-1l-1-1v-2h1v1h1v1l9-1q10-1 11-3t2-2z" fill="#b5a394" stroke="#b5a394"/>
  <path d="m427 723l7 1q8 0 8 6v5q0 1-2 1h-87v-11h17q16-1 28-1h20q9 0 9-1z" fill="#f3f2f2" stroke="#f3f2f2"/>
  <path d="m124 347h1v1h1v1l-1 1q-1 0-1 1h-1q0 1-1 1v2q-1 1 0 1 1 1 1 1h1v1q0 1 4-1 3-2 3-2h1v1l1 1v1h-1q-1-1-2-1 0 0 0 1h-1l-1 1q-2 2-2 3v1q-1 0-3-3t-13-3l-11-2h-3l-1-1v-1h14q12 0 12-1t1-1 2-1q0-1 0-2z" fill="#b5a292" stroke="#b5a292"/>
  <path d="m633 739v-1h42q42 0 42 4v26h-90v-12q0-13 1-14h3v-1h1v-2h1z" fill="#f9f9f9" stroke="#f9f9f9"/>
  <path d="m118 693l3 15q3 14 5 21t2 9v1l1 1 1 1v1q1 2 2 2h1t-2 1q-2 0-3-3-1-4-24-4h-24v1q-1-1-2-1v-2h1v-4l-1-4v-22h-1l1-1 1-1h1l18 1h19v-3l-1-2v-4h-1t1-1l1-1q1-1 1-1z" fill="#234570" stroke="#234570"/>
  <path d="m352 248h6q6 1 8 2 2 2 2 2v-1h1v1q1 0 1 1v2q0 1-1 18v17q-1 0-1 2v1l-1 1q-1 1-1 1v1h-1v1h-1v1h-12v-2q0-2 0-10t-1-8l-1 1v-4l1-13 1-14z" fill="#ebb78c" stroke="#ebb78c"/>
  <path d="m689 181v-1h371v1h-58l-58 1h-1q-1 0-1 1h-1q-1-1-5 0h-3q0-1-122-1h-122v1q-1 1-1 1v-2q0-1 1-1z" fill="#5c5d5e" stroke="#5c5d5e"/>
  <path d="m245 290v-1h12q0 1-4 1t-4 1l1 1v3h1l1 1h1l1 1 2 1h6q6 0 6-1t1-1v6h-1t-6 0h-7q-2 0-5 3l-2 2q0-1-1-1h-1v-1h1q1-1 1-1 1 0 2-3 2-2-1-4l-3-2v-4q0-1-1-1z" fill="#baa797" stroke="#baa797"/>
  <path d="m691 462h33q2 1 2 14v12h1t1 1l1 1h1v1q-1 1 0 1 0 1 1 0l8 4q8 4 31 8 22 4 43 7 21 2 21 3h-1v1h1v3l6 20q6 19 10 42 2 22 4 43 0 21 1 35v15h-157v-1h1l1-1 1-1h1l1-1 1-1t2-1q0-1 5-7 5-5 6-36 1-30 2-31l1-1h2q1 0 1-1t1-1 5-1q3-1 4-16v-15h-5q-4 0-14 0h-10q0-1-1-21t-3-25l-2-6v-2t-1 0q-1-1-1-1v-1t-1 0q-1-1-1-1v-1t-2-1l-1-1q-1-1-1-1v-1t-1 0v-6q-1-7-1-7v-1t-3-1l-3-1v-1h-1v-1h1l2-1q1-1 0-1t1-2q1-2 2-6t5-4h3l-2-1-2-1z" fill="#d9e1eb" stroke="#d9e1eb"/>
  <path d="m147 295v7h-1t-5 0h-7q-3 0-4 1v-1q0-1 1-2 0-1-1-2h-2t0-1v-1t1 0h1v1h1v1h7q8 0 8-2 0-1 1-1z" fill="#b8a494" stroke="#b8a494"/>
  <path d="m239 385h61v1h-51v1q-1 0-1 6v7q0 2-1 2h-1v1q0 1 0 1h-1t-1 1v-1t-1 0-22 1l-22 1h-3q-4 0-6-2l-1-1v-1h-1v-16h26q25 0 25-1z" fill="#ebb68a" stroke="#ebb68a"/>
  <path d="m550 166l1-22h1q1 0 2 22 0 22 2 23t2 2h1v1q1 0 1 1v1h-1q-1 0-1-1h-1v-1q-1 0-1 0 0-1-3-2l-2-2v1q-1 0-2 2l-2 2h-1q0-1-2-1h-2t2-1l2-1h2v-1h1v-1q1 0 1-22z" fill="#b9a493" stroke="#b9a493"/>
  <path d="m263 742v-4h89v28q0 1-45 2h-44v-26z" fill="#f9f9f9" stroke="#f9f9f9"/>
  <path d="m738 406h1t1 1v2h-1q-1 1-2 1-1 2-4 0l-3-1v-1t-1 0v-1q1 0 1-1 0 0 1 0v-1q1 0 1-1h2q3 0 4 1 0 1 0 1z" fill="#d5d3d4" stroke="#d5d3d4"/>
  <path d="m119 288l4-1h12l1 1q1 0 4 1h2q0 1-8 1h-7v2l1 2v1l1 1q-1 0-1 0v1q-1-1-2-1 0 0-2 0l-1 1v-3q1-1 0-3v-1l-4-1q-4-1 0-1z" fill="#9d8d7f" stroke="#9d8d7f"/>
  <path d="m674 295h1q0 1 1 1v1q1 1 2 1v3q-1 1-3 2l-2 2v-1q-1 0-2-2l-2-3q1 0 1-1h1q1-1 1-2h1q1 0 1-1z" fill="#d7dadf" stroke="#d7dadf"/>
  <path d="m84 686h3l12 4q12 4 13 5l2 1h2v4l1 2v3h-19l-18-1v-10q0-9 4-8z" fill="#f0f0f0" stroke="#f0f0f0"/>
  <path d="m611 351l1-1 2 2q2 1 3 2-1 1-2 2-1 2-4 0l-3-1v-2l1-1q1 0 2-1z" fill="#d1d3d7" stroke="#d1d3d7"/>
  <path d="m1069 296v-57h1v6h1v1h2q1 0 1 0l11 2q11 1 11 1 0 1 0 1h1t1 1v1q0 1 1 22v20h-1t-2 2q-1 2-13 2-12 1-12 2v1h-1q0 1 0 1v50h-1v-56z" fill="#e4b085" stroke="#e4b085"/>
  <path d="m556 247v-1h1l1 1h1l-3 3q-2 3-3 23v20q0 1-1 1h-1v-2q-1-2-1-2v-20q0-19-3-21l-2-2h2q1 0 1 1 0 0 1 0v1l2 1q2 0 3-1 2-1 2-2z" fill="#baa391" stroke="#baa391"/>
  <path d="m1099 351v-1h2q1 0 1 1t1 2 1 1 0 1q-1 1-3 2t-2 0q-1-1-2-1-1-1-1-2l1-2q1 0 1 0v-1t1 0z" fill="#d2d6dc" stroke="#d2d6dc"/>
  <path d="m888 434h15v9q0 9 0 9h-16v-8q1-9 1-10z" fill="#c1c1c0" stroke="#c1c1c0"/>
  <path d="m368 350h1l2 2q1 1 0 3-1 3-2 3h-1q0-1-1-2-1 0-1-2v-3h1q1 0 1-1z" fill="#d1d5da" stroke="#d1d5da"/>
  <path d="m698 372l-2-5h1q1 0 3 3 1 4 9 4t9 1q0 1 2 2 3 1 3 1h-11v2h170q4 0 4 2v3h-189v-1h3v-2h-1v-1h1v-3q0-2-2-6z" fill="#d4d4d4" stroke="#d4d4d4"/>
  <path d="m678 274v-23l1 4q1 4 1 4v123t-1-6l-1-7v-15q0-1-3-2-2-2-3 0l-2 2h-1v-1q1-1 1-2 2-1 2-23l1-22h1v1l1 17 1 17v7h1v-1h1v-73z" fill="#6f655d" stroke="#6f655d"/>
  <path d="m375 192v-1h4v1h1v1h-1v1l-3 2q-4 2-5 4t-1 22v19h-2v-5q0-4-1-22 0-17-1-17t-1-1v-1h1l2 1q2 0 4-1t2-1v-1t1-1z" fill="#b9a493" stroke="#b9a493"/>
  <path d="m125 199l1-1v3l1 20q1 20 1 21t1 2q1 0 1 1v1h-1q-1 0-2-2-1-1-2-1h-2v-1q1-2 1-22v-20t1-1z" fill="#b8a290" stroke="#b8a290"/>
  <path d="m306 297l2-2 1 1q1 0 1 1h1l1 1q2 2 0 4t-2 2q-1 0-2 0h-2q0-1-1-1v-1q-1 0-1-2-1-1 2-3z" fill="#d6d5d5" stroke="#d6d5d5"/>
  <path d="m729 141l-4-3 5 2q4 2 6 1 3-1 6-2h2q0 1-2 1t-3 2l-1 1-1 1q-1 1-1 16v16h7v1h-30l-30-1h50v-1h1v-1q0-1-1-16-1-14-4-17z" fill="#968272" stroke="#968272"/>
  <path d="m1106 192q0 1-2 3-2 1-4 1l-3-1v-1q-1 0-1 0h-1l3-3q2-3 5-1 2 2 3 2z" fill="#d2d7de" stroke="#d2d7de"/>
  <path d="m729 459h332v29q-1 0-1 1t-4 4-19 7-49 9l-34 4q-1 1-60 1h-60q0-1-21-3-21-3-43-7-23-4-31-8l-8-4h-1v-2h-1l-1-1v-15q0-15 1-15z" fill="#f9f9fa" stroke="#f9f9fa"/>
  <path d="m441 25v-1l118 1q119 0 119 6v7t-6 2q-5 2-32 4-26 2-72 3-45 1-73-1t-41-5l-12-3h-1v-2h-1v-11h1z" fill="#eaea03" stroke="#eaea03"/>
  <path d="m367 244l1-2 2 2q2 1 2 2v3h-1v1h-1t0 1h-2v-1t-1 0-1-3q0-2 1-3z" fill="#cfd1d6" stroke="#cfd1d6"/>
  <path d="m431 348v-2l2 3q2 3 21 3 18 0 24 1h6l1 1v1h-25q-24 1-26 2l-2 1v-1q0-1 1-3l1-2h-1l-1-1q-1-1-2-1h-1v-1h2v-1z" fill="#bca491" stroke="#bca491"/>
  <path d="m717 758v-11h1v9q0 10 1 12v1q-1 0-1 12v12h1v6h6v1h-112v-1h12v-3h1v-30 1l1 1h90v-10z" fill="#1d4372" stroke="#1d4372"/>
  <path d="m62 405l1-2h3q0 1 0 1h1t1 1q0 1 0 1h1t1 1v1t-1 0v1q-1 0-1 1 0 0-1 0v1h-1q0 1-1 1h-1q-1 0-3-2-2-1-2-2v-1h1q0-1 2-2z" fill="#d0d3d9" stroke="#d0d3d9"/>
  <path d="m223 303v-1l10 1q10 1 11 3 2 2 2 2v38l-1 2q-1 2-1 2v1t-1 1h-6v-6q-1-7-1-11v-5t-2-4l-1-4v-1q-1-1-1-1l-1-1v-1q-1-1-1-1v-1q0-1-4-4t-4-4v-3q0-2 1-2z" fill="#f2cdad" stroke="#f2cdad"/>
  <path d="m941 183h1t2 1q1 0 5 8 3 8 3 34 0 25-2 34t-8 15q-6 5-25 16l-19 11-1 1-1 1h-1v1h-1v1l-1 2v1h2l2 1 9-1q9-1 26-5 18-4 30-10t19-12q7-5 16-20 9-14 25-42 15-28 15-28 1 0 1-1v-1h2v-1h1v-1h5v2h1v1h1v1l2 9q2 9 1 35 0 25 1 25t2 9q1 10 2 12 0 2 1 45t2 43q1 1 2 4l1 3v3h-6t-75-1l-75-1v-2q0-2-1-3t-2-1l-2-1q0-1-3-1l-2-2h-6q-7 0-30 2-24 0-80 4l-57 4t-3-1q-2-1-2-2-1-1-9-1t-8-2q-1-1-2-2l-2-2q-1-1-1-1v-3q0-3-1-5-1-3-3-7l-1-5 1-8q0-8 5-15 4-6 11-9 8-3 30-6 23-3 36-9 12-4 28-16 15-10 60-48 44-36 55-44 11-6 13-8 2 0 2-1h4q4-1 5 0z" fill="#f8fafc" stroke="#f8fafc"/>
  <path d="m431 237l1 3q2 4 3 4t1 1-1 1l-1 1q-1 1-1 1h-1t-1-1q-1 0-1-1t-2-2h-1l2-4q1-3 2-3z" fill="#c7bbb1" stroke="#c7bbb1"/>
  <path d="m613 188h1l1 2q1 3 1 4v1q-1 1-1 1h-1t0 1h-2q-1-1-1-1h-1v-1t-1 0v-1q-1 0-1-2v-1h2v-1l1-1q1-1 2-1z" fill="#e9e2db" stroke="#e9e2db"/>
  <path d="m230 317v1q0 1 1 1l1 1q0 2 0 2h1l1 4q2 4 2 4v1t-1 19v19h-41v-18q0-18-1-18v-2q1-2 1-5l1-2v-2h1t1-1v-1h1t0-1h1v-1q-1 0-1 0v-2h2t0-1q1-1 1-1h1t0-1q1-1 1-1l3-1q3-1 10 0 8 1 10 3 3 2 4 3z" fill="#b1d7e1" stroke="#b1d7e1"/>
  <path d="m4 186v-2l3 3q3 3 25 4h23v1h1v2h-22q-23 0-25 2h-2l-1 1-1 1h-1v-6q0-4 0-6z" fill="#bcaa9b" stroke="#bcaa9b"/>
  <path d="m369 350v-1h1l4 2q3 1 4 2h2v1h4v1l-5 1q-5 0-6 2-1 1-2 3t-1 7v4h-1v-4l-1-4v-6h1q1 0 2-3 1-2 0-3l-2-2z" fill="#bca898" stroke="#bca898"/>
  <path d="m375 408h1l24 2q25 0 28 4 2 2 2 3h1v20q0 20-1 20-1 1-1 1-1 0-1 0v1t-1 1q-1 0-27 1-25 1-28-2l-4-2v-44h1q0-1 0-1h1q1 0 1-1t1-1q2-1 2-1 1-1 1-1z" fill="#f1bb8f" stroke="#f1bb8f"/>
  <path d="m127 386h57v9q0 7-1 8t-1 2v1t0 1h-2q0-1-3-1h-3v1h-44q0-1-2-2l-2-1v-9q0-8 1-9z" fill="#f2cdad" stroke="#f2cdad"/>
  <path d="m889 424l7-1h6l1 1 1 1v4q0 3-1 4v1h-14q-1-1-1-6v-4h1z" fill="#e3e3e3" stroke="#e3e3e3"/>
  <path d="m189 403l1 1q2 2 6 2h3l-1 1-1 1h5v1h-4q-4 1-6 1-1 0-3 3l-2 3v-2q0-1-1-1h-2q0-1-2-2l-1-2h1l1 1q1 0 1 0v1t1 0q0 1 3-1 3-1 2-4l-2-2q0-1 1-1z" fill="#b8a89c" stroke="#b8a89c"/>
  <path d="m94 354v-11l1 1v8t1 1v1q0 1 1 1v-1h2l11 2q11 0 13 3t3 3v6h1l1 1 1 1h-4l-11 1q-12 1-16 1h-3v1h-1v9h-2v-2l1-8q1-8 1-18z" fill="#d1a581" stroke="#d1a581"/>
  <path d="m247 288l-1-1h64v1h7l-4 1q-4 1-3 3 0 3 1 4v1h-1q0-1-1-1l-1-1q-1-1-2-1v-1q0-1 0-2t-24-1l-25-1h-9q0-1-1-1z" fill="#7f766d" stroke="#7f766d"/>
  <path d="m310 244h1l1 2q0 2 0 2-1 0-1 1h-1q0 1 0 1-1 0-4-1l-3-2 3-2q3-3 4-2 0 1 0 1z" fill="#d0d3d8" stroke="#d0d3d8"/>
  <path d="m306 294q1 0 2 1l-2 2q-3 2-2 3 0 2 1 2h1v2h-2t0-1h-1q-1-1-10-1h-10v-5h1v1l10-1q10-1 11-1 1-1 1-2z" fill="#b4a294" stroke="#b4a294"/>
  <path d="m492 292l2 3q2 3 7 3h5l10 1q9 1 13 1h4v1h-16q-16 1-19 2l-4 1q0 1-1 1h-1v-1q0-1 2-2 1 0 1-2 1-1-1-2l-2-1v-1h-2v2h-2v-1q0-1 1-2l1-1h1v-1h1v-1z" fill="#b0a195" stroke="#b0a195"/>
  <path d="m490 242l2 2q2 1 3 2v2h-1t-2 1-4-1l-2-2 2-2q2-1 2-2z" fill="#d0d4d9" stroke="#d0d4d9"/>
  <path d="m4 706h74v30h-75v-14q1-15 1-16z" fill="#faf9f9" stroke="#faf9f9"/>
  <path d="m610 404l3-1 2 2q3 2 3 3 0 0-2 2l-2 2h-1q-1 0-3-2-2-1-2-2 0-2 2-4z" fill="#d3d7dd" stroke="#d3d7dd"/>
  <path d="m612 143h1v1l-1 4q0 4-1 22-1 17-1 18v3h-2v-1h-1q-1 0-23 1l-22 1-2-1h-2q0-1-2-2t-2-23q-1-22-2-22h-2t0-1h1l3-2q2-1 28-1t28 1 2 2z" fill="#f5bd8f" stroke="#f5bd8f"/>
  <path d="m321 409h6l19 1q18 0 20 2t2 2v43q0 1-2 2-1 1-26 2-26 1-28-2l-3-2v-42l1-1q0-2 2-3 3-1 9-2z" fill="#f5d0b0" stroke="#f5d0b0"/>
  <path d="m679 13h1v1t1 0v-1h3q3 1 5 2 1 2 1 5-2 3-6 4t-4 6q0 6-1 6l-1 1v-6q0-6-119-6l-118-1v1h-1v11h1v1h-2v-6q0-6-3-6-3-1-5-2l-1-1h-1v-1h-1v-4l1-1v-1h1l1-1h1l2-1h4q1 1 1 0h1q2 0 120 0 118 1 119 0z" fill="#4b4b48" stroke="#4b4b48"/>
  <path d="m992 690v-15h88t1 15v15h-89v-15z" fill="#f9f9f9" stroke="#f9f9f9"/>
  <path d="m352 303v-1l6 1q7 1 8 1 0 0 0 1h1v6q1 6 1 21v16q0 1 0 2t-1 1h-2q-1 1-4 1h-9l-1-5v-24l1-19v-1z" fill="#f3cdad" stroke="#f3cdad"/>
  <path d="m257 289l25 1q24 0 24 1t0 2v1q0 1-1 2-1 0-11 1l-10 1v-1h-1v-1q-1-2-1-2t-6-1q-5-1-6 1l-1 2q-1 0-1 1t-6 1h-6l-2-1-1-1h-1l-1-1h-1v-3l-1-1q0-1 4-1t4-1z" fill="#efcbac" stroke="#efcbac"/>
  <path d="m462 247h22l2 2q2 2 3 5 1 2 1 21v19q0 1-1 2v1h-1q0 1 0 1-1 0-2 1h-24q-22-1-25-1-3-2-5-5l-3-4v-36l3-2q3-3 5-3t25-1z" fill="#f4bc8f" stroke="#f4bc8f"/>
  <path d="m789 140v-1h1t1 1l3 1q2 1 4 0t3-2h1l-2 3q-2 2-3 16-1 15-1 16v1h1v1h51v1h-105v-1h51v-16q0-16-3-18-2-1-2-2z" fill="#857364" stroke="#857364"/>
  <path d="m351 342v5l1 5h6l4-1q4-1 4-3 2-2 2-2v2q0 1 1 1v1h-1q0 1-1 1l-1 1q-1 0 0 2 2 3 2 4v2t-2-2q-1-2-8-2l-7-1v2l-1 2v5h-1v-13h1v-5q0-4 1-4z" fill="#a08d7d" stroke="#a08d7d"/>
  <path d="m676 370v-10l1 4q1 5 1 5l1 7q1 6 1 6v3h109v1h-53v1t-1 1h-1q0 1-1 8-1 6-1 7v1q-1 0-1 1h-1q0 1 0 1h-50q-1 0-2-2-2-1-2-6l-1-5v-7q1-6 1-16z" fill="#e1ae84" stroke="#e1ae84"/>
  <path d="m114 371l11-1h184l11 1q10 1 13 1h3q0 1 1 4v3q-1 0-1 2v2h-3q-3 1-18 1l-15 1h-179q-5-1-15-1l-11-2h-1v-9h1v-1h3q4 0 16-1z" fill="#ebeceb" stroke="#ebeceb"/>
  <path d="m644 692v1h-1q-1 0-4 16t-5 19q0 3-1 5l-1 2v2l-1 1-1 2v2h-2v-2l-1-2-1-3v-1q0-1-1-1h-1v-3q0-2-3-13l-2-11q1 0 1-2 0-3-2-4l-1-1h-1v-2h-1v-1h-2v-1h-1v-1h-1t-9-4l-8-4h-1v-1h-1v-4h1v-1h1v-1h1v-1h1v-1h1v-1h1l4-2q3-2 10-1 6 1 16 6t13 9q3 3 3 4z" fill="#dcdcdc" stroke="#dcdcdc"/>
  <path d="m97 286h5q4 0 12 1h9l-4 1q-4 0 0 1l4 1v1q1 2 0 3v1q-1 0-2 1-1 2-13 2h-12v-6q0-5 1-6z" fill="#deae87" stroke="#deae87"/>
  <path d="m426 304v-1h1q1 0 1 1h2q1 0 2 0v3q0 2-1 21v21h-2v-21q-1-19-1-21t-1-2-1-1z" fill="#b7a18f" stroke="#b7a18f"/>
  <path d="m8 300h1v1l-1 1q-2 0-2 1h-1q0 1-1-2v-3q1-2 2 0 2 2 2 2z" fill="#d1d1d2" stroke="#d1d1d2"/>
  <path d="m131 407h1v1q0 2-2 4-2 1-3 22-1 22-2 22h-1v-21q0-21-3-23l-2-3v-1h1l2 2q2 2 4 1t4-2q1-1 1-2z" fill="#b8a391" stroke="#b8a391"/>
  <path d="m658 557h1v2h23l22-1h10q10 0 14 0h5v15q-1 15-4 16-4 1-5 1t-1 1-1 1h-2t-340-1q-341-1-342 0l-2 1-6-1q-5-1-6-3 0-2 0-15t1-14 317-1 316-1z" fill="#e9eaea" stroke="#e9eaea"/>
  <path d="m153 137h1v20q0 20 0 21v1q-1-1-2-1h-1l-11-1q-12-1-12-1t0-16 1-17 11-3h9v-1h1q2 0 2-1t1-1z" fill="#efcbac" stroke="#efcbac"/>
  <path d="m260 136v-1 19q0 18 1 20l1 1v2l1 1h-3l-6-1q-5-1-5-17 1-16 4-18l4-3 1-1q2-1 2-2z" fill="#edc8a9" stroke="#edc8a9"/>
  <path d="m80 206v-8h1v17q-1 17-1 41v23h-2v-1t0-16q0-15-4-14-5 0-6 2l-2 2q-1 0-1-1v-1q1 0 2-2 2-3-1-4l-2-2v-1l1-1 1-2v4h1t0 1h1l1 1q1 0 5 0h4v-3l1-14q1-14 1-21z" fill="#887a6f" stroke="#887a6f"/>
  <path d="m208 293l1-1 5 1q6 1 6 1t1 0v7q1 6 1 6v1q0 1 4 4 4 4 6 6 0 2 1 3v1h-1t-4-6q-4-4-13-5t-12 3l-3 4h-1v1h-1v2l-1 1v2h-2v-2h1v-3h1v-1h1v-2h1v-1q1-1 1-1t4-4l3-4v-10q1-2 1-3z" fill="#2f4f56" stroke="#2f4f56"/>
  <path d="m1008 138h20t-22 2q-22 0-23 2-1 1-3 17v17h51v1h-61v-1h7v-16q-1-16-1-17l-1-1h-1v-1h-1v-1h-2v-1h1l2 1h2l2 2q1 0 5-2t25-2z" fill="#9f8e80" stroke="#9f8e80"/>
  <path d="m850 408h1q1 0 1 0v1l1 2q1 2 2 7v33h-3l-2 1h-10v-1t0-4 0-5h1q1 0 3-5t0-10-12-5-11 0l-1 2-1 1-1 1v1l-1 1-1 1v4l3 4q3 3 7 4h3v1h-1v8h-1v1h-1v1h-13q-13 0-14 1h-1v-1h-1v-20q1-19 1-20h1v-1h1v-1t1 0v-1h25q24-1 24-1z" fill="#eac6a9" stroke="#eac6a9"/>
  <path d="m499 195l5-3h37l4 3q5 3 5 6t1 21l1 19v1q-1 0-3 3l-2 2h-1v-2h-25q-25-1-27-2l-2-2v-20q0-20 1-21 1-2 6-5z" fill="#f5bc8f" stroke="#f5bc8f"/>
  <path d="m490 403h1l3 1q2 2 2 3v1t-2 2l-3 2h-1t-2-2l-2-2v-1q0-1 2-2t2-2z" fill="#d2d6dd" stroke="#d2d6dd"/>
  <path d="m1079 674v-1h59v17q0 16-1 16h-54t-1-1h-1v-15q-1-15-1-15v-1t-1 0z" fill="#214572" stroke="#214572"/>
  <path d="m148 293l1-1 6 1q6 0 6 1v4l1 1v2t-1 1l1 3q1 3 4 6 2 2 2 3t0 1q-1-1-1-1h-1t0-1q-1-1-1-1h-1t0-1q-1-1-10 0h-9q0 1-1 1 0 0 0 1h-1q0 1-1 1 0 0 0 1h-1l-1 1q0 2-1 2h-1v-2h1v-1h1v-2h1v-1h1v-1h1q0-1 1-1 2-1 2-4l1-4v-8q1 0 1-1z" fill="#4a532b" stroke="#4a532b"/>
  <path d="m971 139v1h2v1h1v1h1l1 1q0 1 1 17v16h-59v-13q0-13 1-16t2-5l1-2t1 0v-1h24q24-1 24 0z" fill="#f4bc8f" stroke="#f4bc8f"/>
  <path d="m429 402h2l3 2q2 2 26 2 25 2 25 2t-25 2q-26 0-28 3l-1 2v-3t2-2q2-1 2-2-1-1-3-3l-3-2v-1z" fill="#a9998e" stroke="#a9998e"/>
  <path d="m428 352l1-2h1q1 0 2 1l1 1h1l-1 2q-1 2-1 3-1 1-2 0h-2v-1t-1 0q-1-1 1-4z" fill="#d1d5da" stroke="#d1d5da"/>
  <path d="m134 302h7q5 0 5 0h1l-1 4q0 3-1 4v1q0 1-1 1v1q-1 1-2 2h-1v-1q-1 0-1 0v1l-1 1v1h-1q0 1 0 1h1l-2 6q-3 7-3 22v14h-1v-4l-1-1v-1h-2v-1h-1v-1h-1t-1-2l-1-1v-20q0-19 2-23l2-3q1-1 4-1z" fill="#daad85" stroke="#daad85"/>
  <path d="m186 328h1v9l1 9v3h1v1h1l1 1h1v1t-1 0v1l-1-1q-2-2-4-1t-2 3 0 3q1 1 2 1h2l-1 4q-1 3-1 2 0-2-1-2l-1-3q-2-3-4-3-2-1-2 3t-1 7v3h4v1h-44l19-1h19v-37h1v3l1 7 1 8v2h3v-1h1v-1h1v-1h1v-2l1-9q1-9 1-10z" fill="#817567" stroke="#817567"/>
  <path d="m612 148l1-4 1 20q0 21 1 22v2h-2q-1 0-2 1l-1 1v1h-2v-1t1-1q1 0 2-19 1-18 1-22z" fill="#bca490" stroke="#bca490"/>
  <path d="m351 357v-2l7 1q7 0 8 2 2 2 2 2v4l1 4v16q1 13 1 15v2h-1q-1 0-1 1v1q0 1 0 1h-2q-1 0-22 1l-21 1h-5q-4 0-8-2l-3-2v-6q1-7 0-8l-1-2h-6v-1l15-1q15 0 18-1h3v-2q0-2 1-2v2l1 2v2h4l4-1h1v-1h1v-9q0-10 1-10h1v-5l1-2z" fill="#e8b58a" stroke="#e8b58a"/>
  <path d="m181 196l-3-3h61v1h-23q-23 0-24 1h-4q-4 1-2 1 1 2 1 1 1 0 1 1v6q0 7 0 10v4l5 1q5 1 24 1h19v1h-28l-27 1h-2v-1h1v-1h2q1 0 2-1 1 0 1-10-1-10-4-13z" fill="#8b7872" stroke="#8b7872"/>
  <path d="m119 179l4-1h29q1 0 2 1h54l2-1h55l35 2q35 0 35 1 1 0 1 3v4h1v2l-1 1h-1l-1 1h-10q-5 0-12 1h-188q-12-1-18-1h-9l-1-1-1-1h-1v-9h1v-1h3q3 0 10-1h11z" fill="#eee" stroke="#eee"/>
  <path d="m245 402h1v1q0 1 0 1h-1t-1 1l-1 2q-1 2 0 2 1 1 1 1v1q-1-1-22-1l-20-1v-1h-5l1-1 1-1h22q22-1 23-2 0-2 1-2z" fill="#a7978b" stroke="#a7978b"/>
  <path d="m1099 348v-1h1v1h1v-1l2 2q2 3 18 3 15 0 16 0l1-1v5h-1q-1 0-16 0t-16 0l-1 1v-2q0-1 0-1t-1-1-1-2-1-1h-1q0-1-1-2z" fill="#bba492" stroke="#bba492"/>
  <path d="m674 413h1l1 22q0 22 2 23 1 2 22 2 22 2 22 2h-37q-6 0-7-1-2-1-4-2t-3 1h-1l-1 1-1 1h-7l3-1 2-1h2l1-1q1-1 1-1t1-22l1-22q1 0 2-1z" fill="#b6a596" stroke="#b6a596"/>
  <path d="m588 354l-18-1h38l2 2q2 3 4 1 2-1 3-2h1t0-1h2q2 1 2 1h1t-2 1l-2 1h-2v1h-1v1l-1 1q-1 1-1 21v21l-1 1h-1v-15q0-14-1-21t-2-9q-2-1-21-3z" fill="#b6a190" stroke="#b6a190"/>
  <path d="m609 196v-1q1 0 1 0v1h1t1 1h1q1 1 1 0 0 0 1-1 0 0 1-1h1v1q-1 1-1 1l-1 1q-1 1-1 22v21h-2v-2h-1v-21q-1-20-1-21l-1-1z" fill="#baa28f" stroke="#baa28f"/>
  <path d="m828 452h3l2 1q2 1 35 0t33-1h2l5 1h25q21-1 21-1h7t1 1l16 1q17 0 21 1l4 1h4l-11 1q-10 1-29 1h-19v1h-105v-1h-61l-3-1-3-1h4l4-1q4-1 9-1h5l15-1q15-1 15-1z" fill="#a4a3a2" stroke="#a4a3a2"/>
  <path d="m971 427v1h1v3q0 3-1 3 0 0 0 1-1 0-2 3-1 2-4 2l-3 1h-11q-3-1-6-5l-3-4v-3l1-1 1-1v-1l1-1 1-1 1-2q1 0 11 0t11 2q1 3 2 3z" fill="#cdcbca" stroke="#cdcbca"/>
  <path d="m678 191v1q0 2-2 3-1 1-3 1l-2-1v-1q-1 0-1 0-1 0-1-1v-1q1 0 1 0v-1t1-1l2-1q2-1 3 1 1 0 2 1z" fill="#d7dbe1" stroke="#d7dbe1"/>
  <path d="m444 740v-2h91v24l-1 5q0 1-45 1h-45v-28z" fill="#f8f8f8" stroke="#f8f8f8"/>
  <path d="m486 354v-1l1 1q1 0 1 0v1h1v1h1q1 0 2-1h1v1q0 1-2 2-1 1-1 3t0 21v20h1v1h-1q0 1-2 2t-2 2v1h-1t-25-2q-24 0-26-2l-3-2v-20q1-20 1-22v-2l2-1q2-1 26-2h25q0-1 1-1zm1 3q0-1 0-1 1 0 1 0 0 1-1 1z" fill="#f6bd8f" stroke="#f6bd8f"/>
  <path d="m556 354v1q-1 1-2 1t-1 1-2 0l-2-1q-1-1-1-1 0-1 0-2v-1h3q3-1 3 0 2 1 2 2z" fill="#d2d5db" stroke="#d2d5db"/>
  <path d="m668 299h1l2 3q1 2 2 2v2l-1 22q0 22-1 23v1h-1t0 1q-1 1-1 1h-1t-22 0h-24t-2-1h-1v-1q-1 0-2-2-1-1-2-22l-1-22 4-2q5-2 28-3 22-1 22-1t0-1z" fill="#f4bc8f" stroke="#f4bc8f"/>
  <path d="m79 328v24t-3 1h-3q-1-1-3-2t-3-21l-1-21v-1q0-2-1-2v-2q1 0 1 0 0-1 1-1h6q5 0 6 25z" fill="#f0cbac" stroke="#f0cbac"/>
  <path d="m251 198l2-5h51v3h1v1h1v1q0 1 1 1l-1 21q0 22-3 24-2 2-5 2-2 0-2 1h-35l-35-1 15-1q15-1 15-1t1-7v-9q1-2 1-4 0-1-1-2h-3t0-1-2-1q-3 0-3-9-1-9 2-13z" fill="#eab489" stroke="#eab489"/>
  <path d="m887 387v17q1 18 1 19v5q0 5 1 6h-1q0 1 0 9t0 9h-16q-13 0-13-1h-1v-33q0-5 2-7l2-2t1-1v-1h5l8-1q8 0 10-10 0-9 1-9z" fill="#e4b086" stroke="#e4b086"/>
  <path d="m368 403h1l3 1q2 2 2 4v1t-2 1q-1 0-1 1t-1 1h-2t-2-2q-2-1 0-4l1-2h1t0-1z" fill="#d2d6dc" stroke="#d2d6dc"/>
  <path d="m595 706h24l2 11q3 11 3 13v3h1v3h-89v-10q0-10 5-11l5-1 24-4q24-4 25-4z" fill="#f8f8f8" stroke="#f8f8f8"/>
  <path d="m350 190v1h1v1l5-1q6-1 8-1h1v1l-1 1q0 2 1 2t1 1h-3q-2-1-7-1h-5v1q-1 0-1 5v5h-1v-15q1-2 1 0z" fill="#9d8c7e" stroke="#9d8c7e"/>
  <path d="m922 406v-1h1q1 1 25 1h24v3h-49v-2h-1q0-1 0-1z" fill="#a6968a" stroke="#a6968a"/>
  <path d="m550 292v-2t1 2v2l1 1q1 1 1 1l-3 2q-2 1-1 3 1 3 1 3 1 0 2 1v1q-1 0-1 1-1 0-2-2-1-1-9-3l-7-1v-1h-4q-4 0-13-1l-10-1 21-1q21-1 22-1 1-1 1-4z" fill="#bca899" stroke="#bca899"/>
  <path d="m689 183v-1h122q122 0 122 1h-1q0 1-2 1-2 2-13 8-11 8-55 44-45 38-60 48-16 12-28 16-13 6-36 9-22 3-30 6-7 3-11 9-5 7-5 15l-1 8h-1v1l-1 1-1 1v-166t1-1z" fill="#c4d6ed" stroke="#c4d6ed"/>
  <path d="m490 166l1-22 1 22q2 22 3 23t2 1v1q0 1-5 1t-6 1l-2 1v-2q0-1 2-2 2-2 4-24z" fill="#bda897" stroke="#bda897"/>
  <path d="m80 740v28h89v-2l1 1q0 1 1 1v1q-1 0-1 1v14q0 14 1 14l5 1h6v1h-104v-1l1-14v-29q1-16 1-16z" fill="#1c4272" stroke="#1c4272"/>
  <path d="m78 278v20h-1t-4 0l-4-1h-1q0-1-1-1-1-1-1-22v-22l2-2q1-2 6-2 4-1 4 14 0 16 0 16z" fill="#edb88d" stroke="#edb88d"/>
  <path d="m734 388h1l1 8q2 7 2 8 0 0 1 1v1h-1t-2-2q-3-1-3 0-1 1-2 2l-2 1v-1t1-2q2-1 2-8 2-7 2-8z" fill="#baa493" stroke="#baa493"/>
  <path d="m1098 351v1t-1 0l-1 2q0 1 1 2 1 0 2 1 0 1 2 0t3-2v2l-1 1q-1 1-1 18v18l-1 4-1 4-1-21q-1-21-1-23-2-1-5-2l-3-2h-4v-1l5-1q5 0 5-1t1-1 1 1z" fill="#b8a392" stroke="#b8a392"/>
  <path d="m914 386v-1h71v1h-3q-2 0-2 1l-1 1h-1q-1 0-2 8 0 7-2 8-2 2-2 2h-24q-24 0-24 1h-2q0-1 0-1v-2t-1 0q-1-1-2-9l-2-8v-1q-1 0-1 0h-2z" fill="#e7b286" stroke="#e7b286"/>
  <path d="m890 368h6l2 2q3 0 3 1h-6q-6 1-7 1t-2 4q0 3-4 3l-3 1h-167v-2h11l57-4q56-4 80-4 23-2 30-2z" fill="#bbc5d2" stroke="#bbc5d2"/>
  <path d="m243 142l-3-3 3 1q3 2 4 2 2 0 3-2 2 0 4-1h3l-4 3q-3 2-4 18 0 16 5 17l6 1h-42l14-1 13-1h1v-16q0-15-3-18z" fill="#a89485" stroke="#a89485"/>
  <path d="m162 301l10 1q9 0 12 4 2 3 3 3v19h-1q0 1-1 10l-1 9v2h-1v1h-1v1h-1v1h-3v-2l-1-8-1-7v-3h-1v-1q-1-1-3-8-3-7-4-7t-2-3l-2-2q1-1 0-1-1-2-2-5l-1-3h1t0-1z" fill="#e5b48a" stroke="#e5b48a"/>
  <path d="m0 764v-37t1 18l1 18v2h1v1q-1 0-1 1v1h1l1 1v1t0 14v14h74v-27h1v29h643v1h-722v-37z" fill="#777879" stroke="#777879"/>
  <path d="m552 242l2 2q2 1 2 2v1q0 1-2 2-1 1-3 1l-2-1v-1q-1 0-1 0 0-1-1-1l2-2q2-3 3-3z" fill="#e6dbd1" stroke="#e6dbd1"/>
  <path d="m332 192h2l1-1h1v17h-1q-1 1-1 18v18h-10q-10 0-12 0l-1-1v-1q-1 0-1-20l-1-20 1-3q2-3 10-5 9-2 9-2h3z" fill="#f2ccad" stroke="#f2ccad"/>
  <path d="m429 142v2l-1 22q0 22-1 22h-1t0 1q-1 1-24 1l-23 1h-1q-2 1-2 1h-1q-1 1-1 1l-1-1v-1h-1q0-1 0-1v-1q0-1-2-23l-1-22v-1l3-2q2-1 28-1 27 0 28 1 0 1 1 1z" fill="#f7d1b1" stroke="#f7d1b1"/>
  <path d="m1043 406h1t0 1h1v2h-1q-1 1-1 1h-1t0 1q-1 1-1 1h-3t-2-2l-2-1 2-3q2-2 4-2 2 2 3 2z" fill="#d1d4d9" stroke="#d1d4d9"/>
  <path d="m84 179v-1l4 1q4 0 4 1 0 2 1 3v7q1 6 1 18v146q0 10-1 18l-1 8v3q-1 1-4 1h-4t-1 0q-1-1-1-17l-1-16v-10q-1-10-1-36v-49q0-24 1-41v-21q1-5 1-10v-4h1v-1h1z" fill="#f0efee" stroke="#f0efee"/>
  <path d="m309 200v2l1 20q0 20 1 20v2h-1t0-1q-1-1-4 2l-3 2h-1q0 1 0 1t-1 1v7l-1 7v-1l-1-7q-1-7-2-7l-1-1q0-1 2-1 3 0 5-2 3-2 3-24l1-21 1-1q1 0 1 2z" fill="#a19286" stroke="#a19286"/>
  <path d="m246 351v-1l2 2q3 0 4 1v1q0 1-2 2-2 2-4 0l-3-1v-2h1q0-1 0-1 1 0 2-1z" fill="#d0d4d9" stroke="#d0d4d9"/>
  <path d="m190 195h1l-1 1q-1 2-2 2 0-1-2-1h-2v-1q1-2 4-2 2 0 2 1z" fill="#b6aea9" stroke="#b6aea9"/>
  <path d="m246 307v-1h1q1 0 1 1v38l1 1 1 2v2h1v1h1v2q-1-1-4-1l-2-2v1q-1 1-2 1v-2t1-2l1-2v-39z" fill="#b8a291" stroke="#b8a291"/>
  <path d="m349 233v-28h1v9q0 8 1 19l1 11h6q7 0 8-2 1 0 2-1v1l-1 2q-1 1-1 3 1 3 1 3 1 0 1 0v2t-2-2q-2-1-8-2h-6l-1 14-1 13v-7q0-7-1-35z" fill="#8b7d72" stroke="#8b7d72"/>
  <path d="m679 408v-1h1v1q0 1 24 1 24-1 24-1h1q1 0 1 0v1l1 2q1 2 2 21 1 20 1 22v4h-5v1q-1 0-1 15v15l1 1h1v1l1 1h-3v-1l-1-1-1-2v-12q0-13-2-14h-2t-22-2q-21 0-22-2-2-1-2-23l-1-22v-1q1 0 1 0v-1q0-1 0-1h2q1-1 1-2z" fill="#f5cfb0" stroke="#f5cfb0"/>
  <path d="m523 247h22v1q1 0 1 0v-1h1q1 0 1 1 0 0 1 0v2t0 1q1 0 1 19v22q0 3-1 4-1 0-22 1l-21 1h-5q-5 0-7-3l-2-3v-19q0-19 2-21l1-3 3-1q3 0 25-1z" fill="#f9d1b1" stroke="#f9d1b1"/>
  <path d="m428 298l3-2t1 1v1h2q1 1 0 3-2 3-2 3-1 0-2 0h-2q0-1-1-1v-1q-1 0-1-2-1-1 2-2z" fill="#d2d7de" stroke="#d2d7de"/>
  <path d="m856 693v19q-1 18 2 20 4 2 8 2h3t-2 1q-3 1-28 2l-26 1h-5t-44-1h-43v-1h87v-22t1-5v-5h1l22 1h23v-6q1-6 1-6z" fill="#21436e" stroke="#21436e"/>
  <path d="m283 296v8l1 3v2t-8 1q-7 0-7-1v-13l1-2q1-2 6-1 6 1 6 1t1 2z" fill="#773c0c" stroke="#773c0c"/>
  <path d="m305 404l2-1 3 1q3 2 3 4 0 1-2 2-2 2-3 2t-3-2l-2-2v-1q0-1 2-3z" fill="#d2d6dd" stroke="#d2d6dd"/>
  <path d="m678 407h1v1q0 1-1 2h-2t0 1q-1 1-1 1h-3v-1l-1-1q0-1-1-1t-1-1q0-2 1-2l1-1 2-1q2 0 3 1 2 1 2 2z" fill="#d2d6dc" stroke="#d2d6dc"/>
  <path d="m551 399v3h2v1l-3 1q-3 2-3 4 0 1 2 2 1 1 2 1v1l1-1q2-1 2-1h1l-1 2q0 1-1 1h-1q-1 1-1 1h-1t-2-2q-1-2-26-2l-24-2h-1v-2l25-1q26-1 27-3 1-3 2-3z" fill="#aa9b8e" stroke="#aa9b8e"/>
  <path d="m862 406h4q2 0 2 1h-2q-2 1-2 2-1 1-3 2-1 1-2 6l-1 5h-1q-1 0-1 1l-1 1v-6q-1-5-2-7l-2-2h1l2 1q1 2 2 2 2 0 2-1l2-1q2-2 2-2v-1q0-1 0-1z" fill="#b9a696" stroke="#b9a696"/>
  <path d="m1045 409h50l2 1q2 2 3 2v1t-1 21-2 23q-1 1-14 3h-13l-2 1-1 1h-4v12l-1 12v1h-1v-28h-6q0-1-8-1-8-2-8-24v-22h2q1 0 1 0v-1t1-1h1q1 0 1-1z" fill="#f4ceaf" stroke="#f4ceaf"/>
  <path d="m0 158v-158h357t-178 1h-178v2h1q1 0 1 57 1 58 0 68v12q1 3 1 24v22q0 2 0 6v28q0 22-1 24v27q1 24 0 26v5q1 3 1 20v16l-1 1-1 1v-10q0-10-1-12l-1-1v-159z" fill="#7f8388" stroke="#7f8388"/>
  <path d="m158 676l5 2v1h1v1h1v1h1v1h1v1h1v5h-1l-1 1-1 1-8 3q-8 3-9 4v-1t-1 0v1q-1 0-1 1 0 0-1 0v1q-1 0-1 1l-2 2q-2 2-4 18-4 15-4 17v7h-4v-3l-1-1-1-1v-1q0-2-6-23l-5-21q1-1 1-1v-1q0-1 2-3t12-7q9-6 15-6 6-2 11 0z" fill="#e0e0e0" stroke="#e0e0e0"/>
  <path d="m991 766v-2h1v2q0 1 1 1v1h88l1 14q0 13 1 13v4h12v1h-189v-1h85v-30h-82v-1h82v-2z" fill="#1d426f" stroke="#1d426f"/>
  <path d="m94 312v-31h1v1h1v4h1q-1 1-1 6v6h12q12 0 13-2 1-1 2-1v2l-1 1q-2 1-2 2 1 2 2 2t1 1v2l-1-1q-2-2-14-2t-12 21v21h-1l-1-1v-31z" fill="#82756a" stroke="#82756a"/>
  <path d="m427 406l2-3 3 2q2 2 3 3 0 1-2 2-2 2-2 2h-1q-1 0-3-2-2-1 0-4z" fill="#d3d7de" stroke="#d3d7de"/>
 </g>
</svg>
