<?xml version="1.0" encoding="UTF-8"?>
<!DOCTYPE svg  PUBLIC '-//W3C//DTD SVG 1.1//EN'  'http://www.w3.org/Graphics/SVG/1.1/DTD/svg11.dtd'>
<svg enable-background="new 0 0 223 122.7" version="1.1" viewBox="0 0 223 122.7" xml:space="preserve" xmlns="http://www.w3.org/2000/svg" xmlns:xlink="http://www.w3.org/1999/xlink">
<symbol id="n" viewBox="0 -122.15 223 122.131">
				<radialGradient id="k" cx="111.5" cy="-94.275" r="111.51" gradientTransform="matrix(1 0 0 -.25 0 -117.84)" gradientUnits="userSpaceOnUse">
				<stop stop-opacity=".2471" offset=".0863"/>
				<stop stop-opacity=".102" offset=".8667"/>
				<stop stop-opacity="0" offset="1"/>
			</radialGradient>
			<path d="m223-94.3c0-7.667-10.883-14.233-32.65-19.7-21.767-5.433-48.05-8.15-78.85-8.15-30.767 0-57.05 2.717-78.85 8.15-21.767 5.47-32.65 12.03-32.65 19.7 0 7.7 10.883 14.267 32.65 19.7 21.767 5.467 48.05 8.2 78.85 8.2s57.083-2.733 78.85-8.2c21.77-5.433 32.65-12 32.65-19.7z" clip-rule="evenodd" fill="url(#k)" fill-rule="evenodd"/>
				<use transform="translate(17.9 -86.95)" x="-0.025" y="-34.66" width="189.088" height="34.59" enable-background="new" opacity=".1484" xlink:href="#q"/>
				<path d="m198.15-39.9c1.367-4.167 2.6-12.983 3.7-26.45 1.167-14.267 1.1-22.95-0.2-26.05-1.633-3.934-3.95-6.867-6.95-8.8-1.967-1.3-6.65-3.367-14.05-6.2-5-1.934-12.833-3.9-23.5-5.9-11.667-2-19.467-3.367-23.4-4.1-20-3.667-36.65-4.25-49.95-1.75-8 1.267-14.083 2.4-18.25 3.4-7.267 1.733-13.2 4.183-17.8 7.35-1.4 0.967-3.533 1.95-6.4 2.95-4.333 1.534-6.733 2.4-7.2 2.6-5.667 2.4-8.867 5.883-9.6 10.45-1.066 6.767-0.017 17 3.15 30.7 3.167 13.733 6.6 22.767 10.3 27.1 3.767 4.467 8.917 8.567 15.45 12.3 0.466 0.3 6.1 3.167 16.9 8.6 7.066 3.534 12.983 6.167 17.75 7.9 6.133 2.233 12.433 3.816 18.9 4.75 6.567 0.933 13.133 1.233 19.7 0.9 5.7-0.3 10.8-1.033 15.3-2.2 5.767-1.5 11.5-4 17.2-7.5 4.333-2.667 9.566-6.517 15.7-11.55 2.333-1.9 6.667-4.383 13-7.45 5.47-3.133 8.88-6.817 10.25-11.05z" clip-rule="evenodd" fill="#4A5F99" fill-rule="evenodd"/>
			<g clip-rule="evenodd" fill-rule="evenodd">
				<path d="m166.15-16.25c-0.133-0.467 0.184-0.783 0.95-0.95 0.933-0.167 1.45-0.533 1.55-1.1 0.133-0.7 0.767-1.167 1.9-1.4 0.3-0.033 1.167-0.083 2.6-0.15-0.033-0.033-1.15-0.917-3.35-2.65-1.533-1.167-2.15-2.25-1.85-3.25 0.966 0.267 2.167 0.4 3.6 0.4 1.467 0 2.667-0.167 3.6-0.5 0.2-1.267-0.65-2.7-2.55-4.3-1.8-1.533-3.333-2.333-4.6-2.4 1.667-0.067 4.15 0.15 7.45 0.65 3.267 0.467 5.783 0.667 7.55 0.6 2.067-0.067 3.967-0.317 5.7-0.75 2.9-0.667 3.95-1.65 3.15-2.95-0.3-0.467-1.767-1.033-4.4-1.7-2.833-0.633-4.5-1.017-5-1.15-2.034-0.333-3.65-0.667-4.85-1-2.267-0.633-3.233-1.517-2.9-2.65 1.633-0.7 5.55-1.25 11.75-1.65 5.3-0.9 7.7-3.1 7.2-6.6-2.7 0.133-4.833 0.217-6.4 0.25-2.833 0.033-4.767-0.383-5.8-1.25 1.966-0.033 3.8-0.45 5.5-1.25 2-0.9 1.65-1.75-1.05-2.55-1.467-0.434-3.683-0.717-6.65-0.85-3.133-0.1-5.383-0.317-6.75-0.65 1.133-0.133 2.25-0.367 3.35-0.7 1.667-0.5 2.583-1.033 2.75-1.6 0.367-1.167-0.333-1.8-2.1-1.9-2.033 0.133-3.283 0.2-3.75 0.2 0.1-0.1 1.6-0.917 4.5-2.45 2.267-1.2 3.05-2.367 2.35-3.5-0.667-1.067-2.6-1.517-5.8-1.35-1.1 0.067-3.233 0.333-6.4 0.8-3.5 0.466-6.05 0.767-7.65 0.9-2.833 0.233-5.45 0.267-7.85 0.1-0.3-0.034-2.85-0.117-7.65-0.25-3.233-0.1-5.767-0.35-7.6-0.75-1.7-0.4-3.867-1.667-6.5-3.8-2.7-2.2-4.85-3.517-6.45-3.95-2.267-0.6-4.517-0.817-6.75-0.65-1.233 0.1-3.417 0.483-6.55 1.15-1.533 0.333-3.367 0.233-5.5-0.3-2.4-0.733-4.233-1.217-5.5-1.45-1.133-0.233-2.267-0.367-3.4-0.4-1.433-0.033-2.517 0.117-3.25 0.45-1.1 0.5-1.55 1.017-1.35 1.55 0.467 0.733 0.75 1.434 0.85 2.1 0.367 2-0.783 2.917-3.45 2.75-3.267-0.6-5.4-0.833-6.4-0.7-0.733 0.066-1.65 0.333-2.75 0.8-1.333 0.567-2.217 0.9-2.65 1-0.7 0.167-1.65 0.233-2.85 0.2-1.433-0.067-2.433-0.067-3 0-2.267 0.267-3.733 1.083-4.4 2.45-0.667 1.3-0.55 2.983 0.35 5.05 0.733 1.133 1.217 1.983 1.45 2.55 0.467 0.933 0.25 1.583-0.65 1.95-1.066 0.433-3.233-0.217-6.5-1.95-2-1.467-3.6-2.5-4.8-3.1-2.2-1.133-3.75-0.883-4.65 0.75l1.25-0.2c-0.567 0.3-1.633 0.333-3.2 0.1-1.767-0.333-2.967-0.533-3.6-0.6-2.433-0.233-4.3-0.25-5.6-0.05-2.6 0.4-3.716 1.5-3.35 3.3 0.167 0.7 0.767 1.4 1.8 2.1 1.467 1 2.25 1.55 2.35 1.65 0.533 0.533 0.95 1.233 1.25 2.1 0.333 0.9 0.717 1.6 1.15 2.1 0.967 1.033 2.767 1.967 5.4 2.8 1.434 0.433 3.434 1.033 6 1.8 0.7 0.267 2.75 0.867 6.15 1.8 3.067 0.934 4.534 1.8 4.4 2.6 0.4 0.133 2.55 0.483 6.45 1.05 3 0.433 4.85 1.183 5.55 2.25-0.633 0.966-1.934 1.533-3.9 1.7-2.267 0-3.816 0.017-4.65 0.05-0.867 0.033-2.417-0.034-4.65-0.2-1.967-0.133-3.5-0.15-4.6-0.05-2.3 0.267-5.133 1.05-8.5 2.35-4.3 1.667-6.367 3.3-6.2 4.9 1.933-0.8 3.983-1.333 6.15-1.6 2.633-0.333 4.717-0.15 6.25 0.55-0.267 0.167-1.133 0.5-2.6 1-1.233 0.434-1.983 0.883-2.25 1.35-0.567 0.933-0.45 1.683 0.35 2.25 0.667 0.467 1.517 0.7 2.55 0.7 0.667 0 1.583-0.167 2.75-0.5 1.133-0.333 2.05-0.5 2.75-0.5 0.8 0 1.733 0.117 2.8 0.35 0.6 0.133 1.5 0.35 2.7 0.65 1.633 0.333 3.717 0.533 6.25 0.6 1.4 0.034 3.483 0.083 6.25 0.15 3.4 0.133 5.483 0.283 6.25 0.45 2.6 0.5 2.867 1.517 0.8 3.05-0.434 0.333-1.167 0.75-2.2 1.25s-1.783 0.933-2.25 1.3c-1.7 1.4-2.983 2.45-3.85 3.15-1.2 0.934-1.883 1.533-2.05 1.8-0.434 0.733-0.083 1.417 1.05 2.05 0.767 0.4 2.15 0.567 4.15 0.5 1.209-0.023 2.234-0.114 3.075-0.275 0.04 1.873 1.482 2.881 4.325 3.025 2.767 0.167 5.167-0.267 7.2-1.3 1.967-1 3.017-1.534 3.15-1.6 1.333-0.367 2.383 0 3.15 1.1 0.466 0.7 0.5 1.716 0.1 3.05-0.4 1.4-0.433 2.45-0.1 3.15 1.933 0.1 3.7-0.117 5.3-0.65 0.5-0.167 1.317-0.617 2.45-1.35 1.033-0.667 1.85-1.066 2.45-1.2 0.167-0.034 0.483 0.017 0.95 0.15 0.433 0.167 0.783 0.217 1.05 0.15 0.367-0.033 0.8-0.15 1.3-0.35 0.267-0.1 0.667-0.267 1.2-0.5 1.667-0.6 2.917-1.25 3.75-1.95 0.033 0 0.567-0.567 1.6-1.7 0.567-0.633 1.2-0.983 1.9-1.05 0.633-0.067 2.15 0.183 4.55 0.75 1.2 0.167 4.05 1.283 8.55 3.35 3.433 1.6 6.533 2 9.3 1.2-0.733-0.7-1.5-1.75-2.3-3.15-0.8-1.567-1.433-2.7-1.9-3.4-0.333-0.5-1.067-1.4-2.2-2.7-1-1.133-1.683-2.067-2.05-2.8-0.4-0.9-0.533-2.467-0.4-4.7 1.167 0.633 2.15 0.933 2.95 0.9-0.033-1.033 0.2-1.983 0.7-2.85 1.033 1.267 2.783 2.383 5.25 3.35 1.367 0.533 3.333 1.283 5.9 2.25 3.567 1.633 5.7 2.533 6.4 2.7 1.2 0.3 3.62 0.35 7.25 0.15z" fill="#3E4F80"/>
				<path d="m197.5-54.9l2.9 2.5c1.033-8.067 1.717-15.917 2.05-23.55 0.4-8.733 0.133-14.216-0.8-16.45-1.733-4.233-3.833-7.367-6.3-9.4-2.467-2-6.95-4.25-13.45-6.75-4.933-1.9-12.617-3.784-23.05-5.65-11.367-1.833-19.017-3.117-22.95-3.85-5.245-0.972-10.211-1.789-14.9-2.45-8.772-0.167-13.322-0.25-13.65-0.25-7.267 0-12.9 0.267-16.9 0.8-3.744 0.492-6.644 0.867-8.7 1.125-2.273 0.299-3.523 0.458-3.75 0.475-5.167 0.434-9.167 1.017-12 1.75-3.417 0.83-7.875 2.563-13.375 5.2-0.024 0.021-0.049 0.037-0.075 0.05-0.333 0.16-0.659 0.318-0.975 0.475-1.283 0.78-2.558 1.605-3.825 2.475-1.4 0.967-3.533 1.95-6.4 2.95-4.333 1.534-6.733 2.4-7.2 2.6-5.667 2.4-8.867 5.883-9.6 10.45-0.733 4.533-0.383 11.217 1.05 20.05 1.367 8.434 3.283 16.35 5.75 23.75 0.833-1.333 1.417-2.967 1.75-4.9 0.2-1.1 0.5-2.867 0.9-5.3 0.467-1.967 1.033-3.967 1.7-6 0.5-1.467 1.233-2.467 2.2-3 0.6-0.333 1.684-0.9 3.25-1.7 0.5-0.367 1.1-1.083 1.8-2.15 0.7-1.167 1.333-1.983 1.9-2.45 0.333-0.3 1.033-1 2.1-2.1 0.867-0.833 1.6-1.466 2.2-1.9 1.4-1 3.583-1.483 6.55-1.45 4.4 0.033 6.716 0.033 6.95 0 3.933-0.553 8.25-2.37 12.95-5.47-0.133-0.067-0.35-0.1-0.65-0.1 0.733-0.967 1.9-1.8 3.5-2.5 0.7-0.3 2.117-0.783 4.25-1.45 1.8-0.6 3.2-0.7 4.2-0.3 0.367 0.133 1.017 0.7 1.95 1.7 0.867 0.9 1.483 1.367 1.85 1.4 0.5 0 1.2-0.533 2.1-1.6 0.5-0.6 1.117-1.333 1.85-2.2 1.9-1.633 3.85-2.467 5.85-2.5 0.733 0 1.367 0.117 1.9 0.35 0.3 0.167 0.833 0.45 1.6 0.85 0.167 0.067 0.467 0.25 0.9 0.55 0.267 0.2 0.6 0.283 1 0.25 0.333-0.034 0.833-0.284 1.5-0.75 0.833-0.6 1.333-0.934 1.5-1 0.067 0.667 0.083 1.15 0.05 1.45 1.4-1.2 2.733-2.017 4-2.45 0.733-0.233 2.216-0.5 4.45-0.8 4.1-0.566 6.7-0.833 7.8-0.8 2.433 0.133 4.65 1.05 6.65 2.75 1.967 0.1 4.767 0.7 8.4 1.8 4.297 1.266 6.513 1.916 6.65 1.95 0.143 0.035 1.567 0.418 4.275 1.15 2.708 0.729 5.408 1.604 8.1 2.625 2.687 1.025 5.662 1.567 8.925 1.625v0.15c1.033 0.067 2.65 0.083 4.85 0.05 1.934 0.066 3.467 0.4 4.6 1-0.133 0.167-0.217 0.333-0.25 0.5 0.833 0.333 2.333 0.433 4.5 0.3-0.633 1-0.583 1.783 0.15 2.35 0.4 0.333 1.2 0.767 2.4 1.3 0.033 0 0.75 0.65 2.15 1.95 0.933 0.8 1.683 1.167 2.25 1.1 0.167 0.667 0.667 1.517 1.5 2.55 1.066 1.3 1.7 2.117 1.9 2.45 0.8 1.466 1.717 3.783 2.75 6.95 0.367 1.767 0.65 3.083 0.85 3.95 0.33 1.5 0.88 2.667 1.65 3.5z" fill="#3A4B7B"/>
			</g>
			<g clip-rule="evenodd" fill="#566FB3" fill-rule="evenodd">
				<path d="m52.45-36.4c0.667-0.1 2.783 0.066 6.35 0.5 2.7 0.333 4.667-0.05 5.9-1.15-0.934-1.133-2.534-2.017-4.8-2.65-3.467-0.966-5.217-1.45-5.25-1.45-2.733-1.067-4.55-1.883-5.45-2.45-0.233-0.167-1.067-1.05-2.5-2.65-1.133-1.267-2.034-1.867-2.7-1.8-1.133 0.066-1.25 1.566-0.35 4.5 1.033 3.267 1.067 5.3 0.1 6.1-0.2 0.167-0.983 0.367-2.35 0.6-0.867 0.167-1.15 0.733-0.85 1.7s1.184 1.667 2.65 2.1c0.524 0.165 1.032 0.281 1.525 0.35 0.409 0.183 0.901 0.316 1.475 0.4 1.2 0.2 2.1 0.066 2.7-0.4 0.367-0.3 0.817-1.033 1.35-2.2 0.367-0.8 1.1-1.3 2.2-1.5z"/>
				<path d="m195.9-43.8c0.2-1.5-0.6-4.467-2.4-8.9-0.933-2.333-2.133-5.216-3.6-8.65-0.566-1.667-1.55-3.316-2.95-4.95-1.3-1.5-2.733-2.75-4.3-3.75-0.4-0.267-1.2-0.684-2.4-1.25-1.033-0.5-1.8-0.934-2.3-1.3-0.667-0.5-1.267-1.217-1.8-2.15-0.633-1.133-1.15-1.9-1.55-2.3-1.167-1.267-3.184-1.8-6.05-1.6-3.3 0.267-5.466 0.15-6.5-0.35 0.1-0.033 0.417-0.25 0.95-0.65s0.883-0.633 1.05-0.7c-1.3-1.233-3.85-2.1-7.65-2.6-4.2-0.367-7-0.617-8.4-0.75-2.767-0.3-5.567-0.3-8.4 0-1.633 0.133-2.934-0.066-3.9-0.6-1.2-0.967-2.317-1.8-3.35-2.5-4.067-2.8-8.983-3.483-14.75-2.05-0.2 0.033-0.417 0.3-0.65 0.8-0.267 0.433-0.5 0.667-0.7 0.7-0.267 0.033-0.567-0.1-0.9-0.4-0.333-0.367-0.583-0.55-0.75-0.55-1.8-0.233-3.217-0.284-4.25-0.15-1.8 0.267-3.05 0.5-3.75 0.7-1.434 0.4-2.55 1.033-3.35 1.9-2.6-2.066-5.117-2.633-7.55-1.7-0.1 0.767-0.133 1.333-0.1 1.7-1.1-0.3-2.184-0.217-3.25 0.25-0.267 0.1-1.267 0.667-3 1.7-1.167 0.667-2.533 1.15-4.1 1.45-1.767 0.233-3.15 0.483-4.15 0.75-1.1 0.233-2.283 0.917-3.55 2.05-1.633 1.4-2.7 2.233-3.2 2.5-1 0.566-2.417 0.95-4.25 1.15-2.434 0.3-3.917 0.517-4.45 0.65-1.233 0.333-4.017 0.6-8.35 0.8-3.5 0.133-6.15 0.783-7.95 1.95-1.434 0.833-2.517 1.467-3.25 1.9-1.3 0.8-2.3 1.5-3 2.1-1.133 0.967-1.833 2.184-2.1 3.65-0.247 1.571 0.403 2.388 1.95 2.45h-2.6c0.367 0.367 1.2 0.85 2.5 1.45 1.433 0.667 2.517 1 3.25 1 0.667 0 1.4-0.217 2.2-0.65 0.833-0.466 1.517-0.7 2.05-0.7 1.033-0.033 2.65 0.467 4.85 1.5 2.667 1.233 4.283 1.933 4.85 2.1 0.467-0.934 0.25-2.184-0.65-3.75-0.933-1.567-1.2-2.767-0.8-3.6 0.4-0.867 1.417-1.483 3.05-1.85 1.167-0.233 2.4-0.317 3.7-0.25 0.333 0 0.967 0.117 1.9 0.35 0.7 0.167 1.317 0.2 1.85 0.1 0.267-0.034 0.717-0.267 1.35-0.7 0.667-0.467 1.183-0.75 1.55-0.85 1.067-0.233 2.5-0.267 4.3-0.1 1 0.1 2.434 0.267 4.3 0.5 0.467 0 1.883 0.233 4.25 0.7 2.233 0.3 3.5 0.067 3.8-0.7 0.233-0.633-0.283-1.767-1.55-3.4-1.033-1.3-0.7-2.566 1-3.8 1.9-1.434 5.066-1.4 9.5 0.1 4.533 1.533 7.633 1.8 9.3 0.8 0.6-0.333 1.4-1.117 2.4-2.35 0.833-1 1.767-1.65 2.8-1.95 2.066-0.6 4.733-0.383 8 0.65 1.667 0.566 4.6 2.517 8.8 5.85 4.1 3.267 7.017 5.15 8.75 5.65 1.5 0.433 3.55 0.316 6.15-0.35 2.6-0.633 4.667-0.733 6.2-0.3 0.933 0.267 2.067 0.483 3.4 0.65 1.267 0.2 2.35 0.433 3.25 0.7 2.533 0.767 6.283 0.55 11.25-0.65 5.067-1.233 8.767-1.533 11.1-0.9 1.767 0.5 2.85 1.65 3.25 3.45 0.267 1.367 0.3 2.4 0.1 3.1-0.233 0.733-0.783 1.317-1.65 1.75 2.167 1.9 3.466 3.8 3.9 5.7 0.633 2.767-0.934 5.017-4.7 6.75 6.434 4.933 10.867 6.817 13.3 5.65 0.667-0.333 1.25-0.967 1.75-1.9 0.43-0.767 0.75-1.117 0.95-1.05z"/>
				<path d="m160.8-10.95c-0.8-0.433-2.15-0.9-4.05-1.4-2.1-0.566-3.567-1.033-4.4-1.4-0.6-0.267-2.383-1.467-5.35-3.6-2.2-1.566-4.083-2.367-5.65-2.4 0.133 0.467 0.417 1.1 0.85 1.9 0.5 0.9 0.816 1.517 0.95 1.85-2.667-1.133-4.05-1.333-4.15-0.6-0.033 0.633 0.75 1.767 2.35 3.4 1.4 1.5 2.883 2.817 4.45 3.95 0.821 0.615 1.429 0.999 1.825 1.15l-0.62 0.2c0.5 0.4 1.15 0.733 1.95 1 0.966 0.333 1.716 0.367 2.25 0.1 0.5-0.267 0.767-0.767 0.8-1.5 0-0.8 0.217-1.333 0.65-1.6 0.667-0.434 2.017-0.684 4.05-0.75 2.37-0.1 3.73-0.2 4.1-0.3z"/>
				<path d="m121.5-0.8c0.8 0 1.933-0.1 3.4-0.3 1.5-0.233 2.6-0.35 3.3-0.35 0.3 0 1.8 0.2 4.5 0.6 1.8 0.267 3.233 0.117 4.3-0.45-0.667-1.233-1.583-2.067-2.75-2.5-1.5-0.333-2.7-0.6-3.6-0.8-2.167-0.7-3.683-1.1-4.55-1.2-1.333-0.2-2.567 0.167-3.7 1.1-0.3 0.233-0.717 0.75-1.25 1.55-0.467 0.667-0.967 1.133-1.5 1.4-0.6 0.333-1.867 0.55-3.8 0.65-1.767 0.133-2.833 0.367-3.2 0.7l-1-0.3c1.033 0.567 2.633 0.733 4.8 0.5 1.2-0.133 2.88-0.333 5.05-0.6z"/>
				<path d="m68-15.4c0.833-0.033 2.817-0.05 5.95-0.05 2.733-0.333 4.083-1.3 4.05-2.9-2.567-0.9-5.95-1.5-10.15-1.8-5.867-0.434-9.283-0.733-10.25-0.9 1.1 1.466 3.033 2.9 5.8 4.3 2.633 1.3 4.95 2.083 6.95 2.35l-2.35-1z"/>
				<path d="m186.3-36.3c1.967 0.5 3.65 0.683 5.05 0.55-0.318-0.146-0.643-0.238-0.975-0.275 0.821-0.193 1.546-0.651 2.175-1.375 1.133-1.233 0.6-2.184-1.6-2.85-0.667 0.767-2.133 1.3-4.4 1.6-2.867 0.367-4.6 0.667-5.2 0.9 3.02 0.9 4.67 1.383 4.94 1.45z"/>
			</g>
			<g clip-rule="evenodd" fill="#33426B" fill-rule="evenodd">
				<path d="m167.65-16.05c-1.566-0.9-2.483-1.633-2.75-2.2-0.667-1.467-1.3-2.583-1.9-3.35 0.833 0.2 2.217 0.7 4.15 1.5 1.733 0.767 3.117 1.217 4.15 1.35-0.367-0.433-1.966-1.867-4.8-4.3-2.033-1.7-3.3-3.467-3.8-5.3 1.1-0.167 2.4-0.066 3.9 0.3 0.833 0.2 2.066 0.517 3.7 0.95-0.267-1.066-1.367-2.417-3.3-4.05-2.567-2.133-3.967-3.333-4.2-3.6 7.067 3.3 16.717 3.75 28.95 1.35-6.267-0.5-12.85-1.733-19.75-3.7-2.967-0.8-5.167-1.45-6.6-1.95-2.533-0.833-4.55-1.917-6.05-3.25 1-0.067 2.533-0.117 4.6-0.15-1.067-0.6-1.9-1.083-2.5-1.45-1.034-0.7-1.317-1.45-0.85-2.25 0.4-0.733 1.417-0.95 3.05-0.65 0.9 0.133 2.017 0.383 3.35 0.75 2.6 0.4 5.5 0.417 8.7 0.05 1.8-0.167 4.65-0.633 8.55-1.4-2.167 0.1-4.25-0.017-6.25-0.35-2.4-0.367-4.283-1-5.65-1.9 3.4-0.434 6.383-1.317 8.95-2.65-8.2-0.667-13.617-1.167-16.25-1.5-5.933-0.8-11.25-2-15.95-3.6 2.9 0.033 7.117 0.183 12.65 0.45 4.733 0 8.783-0.733 12.15-2.2-1.033-0.267-2.983-0.3-5.85-0.1-2.566 0.167-4.466-0.017-5.7-0.55 2.033-0.967 3.517-1.733 4.45-2.3 1.833-1.066 3.117-2.133 3.85-3.2-1.7-0.3-4.1-0.3-7.2 0-4.034 0.4-6.517 0.6-7.45 0.6-3.367 0.233-5.933 0.4-7.7 0.5-3.233 0.2-5.75 0.017-7.55-0.55-0.3 0.333-1.017 0.55-2.15 0.65-1.167 0.1-2.15 0.033-2.95-0.2-1.033-0.333-2.617-1.083-4.75-2.25-2.566-1.367-4.117-2.167-4.65-2.4-0.333-0.133-2.25-1.4-5.75-3.8-2.233-1.533-4.383-2.167-6.45-1.9-0.3 2.833-1.4 4.6-3.3 5.3-1.5 0.533-3.867 0.5-7.1-0.1-5-0.933-9-2.75-12-5.45 0.867 1.5 2.467 2.933 4.8 4.3 2.8 1.667 4.533 2.833 5.2 3.5-1.333 0.567-3.133 1-5.4 1.3-0.9 0.133-1.767 0.45-2.6 0.95-1.033 0.6-1.8 0.983-2.3 1.15-1.867 0.6-3.967 0.45-6.3-0.45-1-0.4-2.9-1.434-5.7-3.1 0.633 1.167 1.7 2.35 3.2 3.55-1.4 0-3.066-0.233-5-0.7-2.167-0.6-3.767-1.017-4.8-1.25-0.033 0.5 0.383 1.183 1.25 2.05l-4-1c1.933 3.067 5.25 5.083 9.95 6.05 0.767 0.167 4.667 0.533 11.7 1.1-0.9 0.633-2.083 1.184-3.55 1.65-1.667 0.466-2.917 0.867-3.75 1.2 1.6 0.6 3.633 0.8 6.1 0.6 2.367-0.167 4.383-0.65 6.05-1.45-0.4 1.5-2.15 2.75-5.25 3.75-3.5 0.833-5.717 1.367-6.65 1.6-0.667 0.167-1.667 0.317-3 0.45l-4.1-0.1c-2.067-0.2-4.45-0.717-7.15-1.55-4.767-1.767-8.367-3.083-10.8-3.95-4.367-1.5-8.033-2.1-11-1.8-3.667-1-6.5-1.317-8.5-0.95 0.034 1.633 0.95 2.867 2.75 3.7 1.1 0.533 2.717 0.966 4.85 1.3-1.333 0.8-2.133 1.333-2.4 1.6-0.367 0.367 0.1 0.933 1.4 1.7 0.733 0.434 1.883 0.8 3.45 1.1 0.2 0.033 1.383 0.217 3.55 0.55 4.533 0.733 8.934 1.683 13.2 2.85l0.7 0.2c5.467 1.533 10.15 3.317 14.05 5.35 0.367 0.2 1.517 0.6 3.45 1.2 1.767 0.6 2.733 1.167 2.9 1.7 0.2 0.7 0 1.283-0.6 1.75-1.067 0.433-2.417 0.817-4.05 1.15-1.667 0.267-2.733 0.45-3.2 0.55-1.167 0.2-2.35 0.483-3.55 0.85-4.667 0.667-8.05 1.483-10.15 2.45-0.033 0.4-0.033 0.817 0 1.25 0.633 0.333 1.434 0.583 2.4 0.75 1.867 0.367 4.434 0.4 7.7 0.1 1.8-0.167 4.183-0.434 7.15-0.8 3.833-0.4 6.267-0.617 7.3-0.65 1.466 0.133 2.633 0.184 3.5 0.15 0.8 0.133 2.183 0.45 4.15 0.95 1.967 0.533 3.383 0.867 4.25 1-0.934 1.467-1.733 2.567-2.4 3.3l-0.2 0.15c-1.367 0.9-3.233 2.017-5.6 3.35-2.867 1.633-4.75 2.717-5.65 3.25-2.4 0.9-4.183 1.684-5.35 2.35-1.9 1.067-3.3 2.317-4.2 3.75 0.767 0.033 2.65-0.066 5.65-0.3 2.533 0.066 3.533 0.833 3 2.3 2.967 0.2 6.066-0.9 9.3-3.3 4.367-3.233 7.233-5.117 8.6-5.65 2.1 1.3 2.85 3.533 2.25 6.7-1.133 3.633-1.867 6.167-2.2 7.6 2.633-2.233 6.65-5.75 12.05-10.55l0.35-0.3c0.3 0.2 0.5 0.6 0.6 1.2 0.934-0.4 2.017-1.017 3.25-1.85 1.034-0.533 2.184-0.6 3.45-0.2 0.833 0.233 1.833 0.784 3 1.65 1.4 1.066 2.367 1.733 2.9 2 1.8 0.9 4.017 1.733 6.65 2.5 1.5 0.466 3.717 1.083 6.65 1.85-0.4-0.433-1.55-1.533-3.45-3.3-1.467-1.333-2.55-2.517-3.25-3.55-0.667-1.034-1.35-2.417-2.05-4.15-1.167-2.8-1.767-4.25-1.8-4.35-1.033-2.333-1.083-3.583-0.15-3.75 2.2-0.4 3.6-0.9 4.2-1.5 0.633-0.633 0.966-1.55 1-2.75 0.066-1.667 0.133-2.633 0.2-2.9 0.233-0.767 0.684-1.617 1.35-2.55 0.4-0.533 0.967-1.317 1.7-2.35-0.467 2.467 0.816 5.317 3.85 8.55 0.867 0.966 3.35 3.167 7.45 6.6 3.5 2.9 5.6 4.55 6.3 4.95 1.5 0.9 3.95 1.717 7.35 2.45z"/>
				<path d="m84.65-51.8l-1-0.25c0.2-0.034 0.45-0.067 0.75-0.1 0.233-0.033 0.45-0.133 0.65-0.3-4.02-0.703-6.912-1.303-8.675-1.8 0.525-0.125 1.134-0.225 1.825-0.3 1.933-0.233 3.233-0.55 3.9-0.95-6.3-3-11.067-4.533-14.3-4.6 1.267 2.467 3.833 4.333 7.7 5.6 0.25 0.083 0.542 0.167 0.875 0.25-0.88 0.226-1.539 0.526-1.975 0.9 1.067 0.934 2.7 1.533 4.9 1.8 2.033 0.233 3.817 0.15 5.35-0.25z"/>
					<path d="m87.3-96.5c8.598-1.287 14.547-2.137 17.85-2.55 7.167-0.9 13.583-1.5 19.25-1.8 0.054-0.161 0.012-0.236-0.125-0.225l1.125-0.225c-14.967 0-25.7 0.233-32.2 0.7-11.767 0.867-22.25 2.783-31.45 5.75 1.4-1.066 3.733-2.05 7-2.95 3.767-1.067 6.233-1.883 7.4-2.45 1.033-0.5 2.483-1.083 4.35-1.75 2.1-0.7 3.533-1.217 4.3-1.55-1.267 0.033-3.917 0.367-7.95 1-3.367 0.533-6 0.683-7.9 0.45 0.5-0.4 1.5-0.8 3-1.2 1.466-0.367 2.466-0.767 3-1.2-2.5-0.133-6.117-0.083-10.85 0.15-5 0.267-8.633 0.367-10.9 0.3 0.566-0.7 1.6-1.25 3.1-1.65 0.833-0.233 2.017-0.533 3.55-0.9 1.767-0.6 4.3-1.683 7.6-3.25 0.566-0.233 2.483-0.9 5.75-2 2.333-0.767 4.15-1.566 5.45-2.4-3.8-0.267-7.983 0.1-12.55 1.1-2.6 0.6-6.684 1.783-12.25 3.55-6.1 1.967-11.333 4.317-15.7 7.05-1.267 0.8-3.566 1.783-6.9 2.95-3 1.067-5.2 2.15-6.6 3.25-1.767 1.4-2.583 3.184-2.45 5.35 0.066 0.933 0.617 3 1.65 6.2 1.066 3.267 1.65 5.066 1.75 5.4 0.467 2 0.566 3.883 0.3 5.65-0.2 1-0.35 1.767-0.45 2.3-0.167 0.934-0.184 1.733-0.05 2.4 0.133 0.533 0.65 1.483 1.55 2.85 0.733 1.133 1.05 2.1 0.95 2.9l0.75-0.25c0.033 0.8 0.367 1.683 1 2.65 3.033-4.533 5.2-8.567 6.5-12.1-2.066 0.1-2.833-0.3-2.3-1.2 0.433-0.733 1.367-1.433 2.8-2.1 2.967-1.367 4.967-2.45 6-3.25 1.233-0.934 3.067-2.333 5.5-4.2 2.133-1.6 4.033-2.85 5.7-3.75 0.467 0.8 0.017 1.783-1.35 2.95 2.533-0.5 5.083-1.267 7.65-2.3 1.367-0.533 3.767-1.583 7.2-3.15-0.934 0.533-1.9 1.3-2.9 2.3 1.966-0.3 4.45-1.183 7.45-2.65 4.1-2 6.517-3.133 7.25-3.4 0.767-0.267 2.367-0.8 4.8-1.6 1.299-0.418 2.415-0.801 3.35-1.15z"/>
					<path d="m199.15-60.8c1.067 0.133 1.717-0.967 1.95-3.3 0.1-1.233 0.117-2.883 0.05-4.95 0.067-1.133 0.3-3.117 0.7-5.95 0.367-2.5 0.55-4.5 0.55-6 0-2.667-0.017-4.367-0.05-5.1-0.067-1.933-0.267-3.583-0.6-4.95-0.4-1.567-1.817-3.534-4.25-5.9-2.567-2.5-4.583-3.683-6.05-3.55 0.333 0.467 0.917 1 1.75 1.6 0.966 0.667 1.6 1.183 1.9 1.55-0.4 0-1.033-0.15-1.9-0.45-0.767-0.267-1.35-0.383-1.75-0.35 1.167 0.867 1.917 1.483 2.25 1.85-0.534 0.633-0.717 1.466-0.55 2.5-0.767-0.167-2.433-0.8-5-1.9 0.367 0.567 1.133 1.517 2.3 2.85 0.966 1.267 1.466 2.333 1.5 3.2-2.2-1.567-3.883-2.717-5.05-3.45-2.066-1.3-3.9-2.05-5.5-2.25 3.267 2 6.417 4.533 9.45 7.6 3.233 3.3 5.633 6.5 7.2 9.6-0.833-1.033-1.617-1.533-2.35-1.5 0.333 0.7 0.583 1.217 0.75 1.55 0.267 0.6 0.417 1.15 0.45 1.65-0.667-0.066-1.883-0.566-3.65-1.5 0.033 0.467 0.333 1.217 0.9 2.25 0.467 0.9 0.617 1.7 0.45 2.4-3.4-1.667-5.867-2.75-7.4-3.25 1.433 0.933 3.9 3.667 7.4 8.2 3.57 4.6 5.08 7.117 4.55 7.55z"/>
			</g>
			<g clip-rule="evenodd" fill="#2C385C" fill-rule="evenodd">
				<path d="m74.35-46.45c5 0.367 9.233-0.483 12.7-2.55-6.1-0.333-10.6-0.667-13.5-1-2.566-0.267-5.417-0.983-8.55-2.15-3.5-1.467-6.2-2.533-8.1-3.2s-3.717-1.117-5.45-1.35c-1.633-0.2-3.483-0.233-5.55-0.1l1.875 0.75c-2.927-1.078-5.402-1.695-7.425-1.85 0.066 1.066 1.633 1.933 4.7 2.6 3.467 0.7 5.5 1.417 6.1 2.15 0.367 0.4 0.717 0.95 1.05 1.65 0.133 0.3 0.633 0.65 1.5 1.05 0.833 0.4 2.1 0.75 3.8 1.05 0.933 0.167 2.25 0.4 3.95 0.7 6.733 1.367 11.033 2.117 12.9 2.25z"/>
				<path d="m91.45-35.9c1.2 0.8 2.5 1.066 3.9 0.8 2.2-0.4 4-2.117 5.4-5.15 0.867-1.9 2.2-4.25 4-7.05 0.433-0.667 1.033-1.784 1.8-3.35 0.8-1.333 1.667-2.25 2.6-2.75-2.2 0.233-4.633 0.967-7.3 2.2-3.067 1.6-5.467 2.8-7.2 3.6-1.6 0.767-2.816 1.35-3.65 1.75-1.467 0.633-2.75 1.067-3.85 1.3-1.667 0.133-2.933 0.267-3.8 0.4-1.6 0.2-2.65 0.733-3.15 1.6 0.6 0.466 1.417 0.917 2.45 1.35 0.6 0.267 1.467 0.633 2.6 1.1 1.5 0.767 2.367 1.217 2.6 1.35 0.897 0.638 1.373 1.021 1.425 1.15 0.644 0.448 1.369 1.015 2.175 1.7z"/>
				<path d="m85.4-28.8c1.233-0.133 2.95-0.117 5.15 0.05 2.333 0.2 4.034 0.267 5.1 0.2l2.5-0.15c0.733-0.133 1.217-0.583 1.45-1.35 0.066-0.233 0.05-0.883-0.05-1.95-0.066-0.867 0.133-1.617 0.6-2.25-2.267 1-4.983 1.683-8.15 2.05-2.167 0.267-5.033 0.4-8.6 0.4-2.033 0-4.833 0.35-8.4 1.05-1.767 0.533-3.167 0.933-4.2 1.2-1.9 0.5-3.2 0.5-3.9 0l-0.25 0.5c1.934 1.533 4.983 2.1 9.15 1.7 2.333-0.233 5.533-0.717 9.6-1.45z"/>
				<path d="m105.4-32.3l-0.75 0.75c1.067 0.033 2.434-0.5 4.1-1.6 0.9-0.6 2.15-1.467 3.75-2.6 3.233-1.867 5.983-4.633 8.25-8.3 1.733-2.8 2.8-4.667 3.2-5.6 1.2-2.733 1.033-4.283-0.5-4.65-0.7-0.167-1.667 0.033-2.9 0.6-1.5 0.7-2.45 1.083-2.85 1.15-0.867 0.133-2.1 0.117-3.7-0.05-1.667-0.2-2.867-0.267-3.6-0.2-1.8 0.167-3.083 1.183-3.85 3.05-0.633 2.367-1.117 4.083-1.45 5.15-0.067 0.233-0.4 1.033-1 2.4-0.4 0.9-0.633 1.784-0.7 2.65-0.066 1.3 0.033 2.65 0.3 4.05 0.37 1.867 0.93 2.933 1.7 3.2z"/>
				<path d="m122.9-40.55c-2.167 2.867-4.85 5.583-8.05 8.15-1.533 1.267-4.617 3.533-9.25 6.8-3.1 2.167-6.767 4.517-11 7.05-0.332 0.211-3.415 2.002-9.25 5.375l0.55-0.875c-1.133 0.5-2.033 0.933-2.7 1.3 0.075 0.233 0.183 0.442 0.325 0.625-0.042 0.026-0.084 0.051-0.125 0.075l0.65 0.9 0.225-0.35c0.274 0.154 0.6 0.271 0.975 0.35 1.3 0.233 2.117 0.517 2.45 0.85-0.6 1.066-0.483 1.716 0.35 1.95 0.7 0.167 1.5 0.033 2.4-0.4s2.117-1.383 3.65-2.85c0.767-0.566 2.133-1.183 4.1-1.85 1.733-0.566 3.033-1.283 3.9-2.15 1.8-1.8 4.533-4.5 8.2-8.1 3.133-3.2 5.65-6.083 7.55-8.65 2.267-3.1 4.933-6.5 8-10.2 0.7-0.833 2.2-2.233 4.5-4.2 1.933-1.867 2.867-3.533 2.8-5-1.033 0.067-2.05 0.683-3.05 1.85-0.967 1.333-1.617 2.2-1.95 2.6-2.43 3.133-4.18 5.383-5.25 6.75z"/>
				<path d="m121.75-21.3c0.2-0.8 0.617-2.7 1.25-5.7 0.5-2.4 0.983-4.333 1.45-5.8 0.233-0.767 1.083-2.567 2.55-5.4 1.167-2.633 1.4-4.35 0.7-5.15-0.333 0.233-0.817 0.767-1.45 1.6-0.8 0.967-1.767 2.583-2.9 4.85-1.1 2.233-2.083 3.85-2.95 4.85-0.533 0.633-1.617 1.7-3.25 3.2-1.433 1.333-2.483 2.45-3.15 3.35-1.233 1.633-2.333 2.8-3.3 3.5-1 0.633-1.733 1.133-2.2 1.5-0.833 0.667-1.217 1.333-1.15 2 0.066 0.5 0.417 1.283 1.05 2.35 0.6 1.033 0.934 1.9 1 2.6 0.1 1.1 0 2.216-0.3 3.35-0.197 0.69-0.589 1.724-1.175 3.1 0.773-0.123 2.064-1.089 3.875-2.9l3.85-3.85c0.4-0.3 1.233-0.683 2.5-1.15 1.2-0.4 1.967-0.767 2.3-1.1 0.466-0.433 0.783-1.233 0.95-2.4 0.07-0.667 0.18-1.6 0.35-2.8z"/>
				<path d="m137.45-11c1.367 1.1 2.75 1.85 4.15 2.25l-0.1-0.1c-2.433-2.7-3.767-4.2-4-4.5-1.567-1.867-2.617-3.683-3.15-5.45-0.2-0.667-0.517-1.583-0.95-2.75-0.467-1.233-0.783-2.15-0.95-2.75-0.3-1.067-0.317-1.784-0.05-2.15 0.2-0.233 0.767-0.783 1.7-1.65 0.633-0.733 1.033-1.65 1.2-2.75 0.267-1.9 0.417-2.883 0.45-2.95 0.067-0.333 0.233-0.784 0.5-1.35 0.233-0.6 0.433-1 0.6-1.2 0.233-0.267 0.583-0.467 1.05-0.6s0.817-0.316 1.05-0.55c0.9-0.9 1.25-2.617 1.05-5.15-0.1-1.4-0.3-3.35-0.6-5.85-0.9-0.167-1.683 0.067-2.35 0.7-1 0.833-1.65 1.316-1.95 1.45-0.467 0.2-1.367 0.233-2.7 0.1-1.1-0.1-1.9 0.15-2.4 0.75-0.4 0.467-0.683 1.333-0.85 2.6-0.1 1.433-0.183 2.383-0.25 2.85l-0.8 5.75c-0.7 5.667-0.917 9.883-0.65 12.65 0.456 5.634 2.439 8.576 5.95 8.825 4e-3 -0.455 0.204-0.93 0.6-1.425 1.43 1.5 2.58 2.583 3.45 3.25z"/>
				<path d="m160.25-29.1c-0.7-1.066-1.05-1.717-1.05-1.95 0-0.367 0.433-0.85 1.3-1.45 0.6-0.433 1.133-0.8 1.6-1.1 0.1-0.167-0.367-0.667-1.4-1.5-0.534-0.433-1.367-1.017-2.5-1.75s-1.95-1.3-2.45-1.7c-1.133-0.934-2.383-2.3-3.75-4.1-1.7-2.133-2.867-3.533-3.5-4.2-1-1-2.9-2-5.7-3-3.133-1.133-4.85-1.033-5.15 0.3h1c0.6 0.767 1.117 2.35 1.55 4.75 0.4 2.2 1.033 3.65 1.9 4.35 0.4 0.3 1.133 0.65 2.2 1.05 1.133 0.4 1.917 0.767 2.35 1.1 0.7 0.5 1.934 1.6 3.7 3.3 0.667 0.667 1.566 1.817 2.7 3.45 1.067 1.6 1.967 2.75 2.7 3.45 1.233 1.167 3.183 2.35 5.85 3.55 0.167-0.9 0.117-1.717-0.15-2.45-0.13-0.367-0.53-1.067-1.2-2.1z"/>
				<path d="m172.5-33.7c2.3 0.733 4.883 1.167 7.75 1.3 3.165 0.196 5.673-0.088 7.525-0.85-1.98-0.464-4.506-0.998-7.575-1.6-4.8-0.933-8.483-1.9-11.05-2.9-2.2-0.8-3.85-1.417-4.95-1.85-1.934-0.733-3.534-1.4-4.8-2-1-0.5-2.4-1.45-4.2-2.85-1.536-1.166-2.778-2.016-3.725-2.55 1.091 0.576 2.649 1.442 4.675 2.6 2.133 1.033 4.033 1.483 5.7 1.35-3.6-1.7-7.233-4.017-10.9-6.95 3.267 0.4 8.417 1.3 15.45 2.7 6.333 1.033 11.567 1.133 15.7 0.3-3.867-0.333-8.067-0.85-12.6-1.55-1.233-0.167-2.733-0.45-4.5-0.85l-4.5-0.95c-1.867-0.3-3.317-0.583-4.35-0.85-1.8-0.433-3.033-1.033-3.7-1.8 1.133 0.1 3.05 0.4 5.75 0.9 2.5 0.467 4.466 0.733 5.9 0.8 4.066 0.167 6.333 0.233 6.8 0.2 3.333-0.033 5.25-0.5 5.75-1.4-4.133-0.133-7.233-0.233-9.3-0.3-3.667-0.133-6.733-0.45-9.2-0.95-2.6-0.7-4.566-1.233-5.9-1.6-2.367-0.6-4.383-0.816-6.05-0.65 0.1 0.333 0.3 0.783 0.6 1.35 0.3 0.6 0.5 1.033 0.6 1.3-0.733 0.033-1.933-0.1-3.6-0.4-1.533-0.3-2.733-0.383-3.6-0.25 4 4.133 7.133 7.183 9.4 9.15 3.967 3.434 7.6 5.817 10.9 7.15 1.32 0.533 5.32 1.867 11.99 4z"/>
				<path d="m107.15-54.05l-0.4-0.1c1.862 0.218 4.229-0.232 7.1-1.35-1.267-0.5-2.167-1.017-2.7-1.55 0.667-1.1 1.9-1.517 3.7-1.25-3.667-1.667-6.533-2.967-8.6-3.9-3.767-1.7-6.717-2.316-8.85-1.85-1.7 0.433-2.967 0.75-3.8 0.95-1.434 0.333-2.75 0.434-3.95 0.3-1.467-0.167-3.267-0.917-5.4-2.25-2.4-1.5-4.183-2.417-5.35-2.75 1.6 2.167 4.25 3.85 7.95 5.05 0.533 0.167 3.617 0.9 9.25 2.2-1.3 0.933-3.367 1.867-6.2 2.8-3.1 1.033-5.2 1.883-6.3 2.55 1.233-0.066 3.816-0.517 7.75-1.35 3.233-0.7 5.8-0.917 7.7-0.65-0.667 0.833-1.55 1.8-2.65 2.9-0.8 0.767-2.267 1.5-4.4 2.2-2.1 0.7-3.5 1.4-4.2 2.1 3.333-0.467 5.083-0.717 5.25-0.75 1.9-0.3 3.6-0.65 5.1-1.05 0.967-0.267 2.45-0.75 4.45-1.45 1.8-0.533 3.32-0.8 4.55-0.8z"/>
				<path d="m81.6-63.25c-4.633-0.467-7.367-0.983-8.2-1.55h-0.75c1.1 0.867 2.617 1.566 4.55 2.1 1.066 0.267 2.667 0.633 4.8 1.1 2.933 0.767 5.233 1.1 6.9 1-0.733-1.333-3.167-2.217-7.3-2.65z"/>
				<path d="m94.4-72.3l-1.25-1c1.767 3.367 5.483 6.55 11.15 9.55 6.167 3.3 10.6 3.783 13.3 1.45-8.17-2.7-15.9-6.033-23.2-10z"/>
				<path d="m121.35-64c1.5 1.667 3 2.783 4.5 3.35 1.367 0.566 3.217 0.85 5.55 0.85 3.533 0 7.533-0.567 12-1.7 2.367-0.567 5.1-0.967 8.2-1.2 1.8-0.1 4.566-0.233 8.3-0.4-1.066-1.167-3.65-1.733-7.75-1.7-3.267 0.033-6.183 0.35-8.75 0.95-2.2 0.833-3.967 1.483-5.3 1.95-1.217 0.444-2.259 0.719-3.125 0.825-1.69-0.521-3.148-1.112-4.375-1.775-1.833-1-3.583-2.383-5.25-4.15-1.934-2.1-3.2-3.417-3.8-3.95-1.505-1.377-2.963-2.31-4.375-2.8 0.799 0.301 1.307 0.935 1.525 1.9 0.1 1.267 0.167 2.2 0.2 2.8 0.133 1.267 0.35 2.2 0.65 2.8 0.23 0.467 0.83 1.217 1.8 2.25z"/>
				<path d="m170.15-65.05c-0.078 0.087-0.161 0.17-0.25 0.25h1l-0.75-0.25zm-0.25 0.25c-2.047 0.035-4.831 0.151-8.35 0.35-4.133 0.267-7.267 0.4-9.4 0.4-1.6 0-3.25 0.216-4.95 0.65-0.467 0.1-2.067 0.566-4.8 1.4-1.5 0.467-3.983 0.75-7.45 0.85-3.3 0.133-5.8 0.517-7.5 1.15 1.133 0.567 2.9 1.25 5.3 2.05 2.567 0.867 4.433 1.567 5.6 2.1 2.133 0.934 4.133 1.533 6 1.8 2.367 0.333 4.383 0.1 6.05-0.7-1.6-0.367-2.867-0.683-3.8-0.95-1.767-0.466-2.65-1.066-2.65-1.8 1.167-0.433 2.816-0.65 4.95-0.65 1.2 0 2.883 0.033 5.05 0.1 1.566 0 4.466-0.167 8.7-0.5 2.169-0.157 4.02-0.248 5.55-0.275-2.633-0.056-5.767-0.181-9.4-0.375-5.159-0.274-8.792-0.458-10.9-0.55 2.985 0.029 7.135-0.587 12.45-1.85 0.967-0.233 2.717-0.633 5.25-1.2 2.02-0.542 3.45-1.208 4.3-2z"/>
				<path d="m130.15-47.85c-0.867 1.267-1.133 2.133-0.8 2.6 0.367 0.533 1.5 0.65 3.4 0.35 0.4-0.067 1.617-0.35 3.65-0.85 2.667-0.633 5.15-1.667 7.45-3.1 3.133-2 3.65-3.816 1.55-5.45-1.333-1.034-3.45-2.017-6.35-2.95-4.066-1.3-6.333-2.05-6.8-2.25-7.367-3.067-13.733-3.683-19.1-1.85-1.167 0.367-1.883 0.917-2.15 1.65-0.2 1.034-0.467 1.917-0.8 2.65-1 1.133-1.667 1.917-2 2.35-0.534 0.7-0.133 1.4 1.2 2.1 1.833 1 4.65 0.967 8.45-0.1 1.677-0.471 3.152-0.796 4.425-0.975 0.277 0.223 0.585 0.481 0.925 0.775 0.667 0.5 1.4 0.85 2.2 1.05 0.6 0.133 1.65 0.3 3.15 0.5 1.333 0.2 2.367 0.4 3.1 0.6 0 0.467-0.5 1.433-1.5 2.9z"/>
				<path d="m74.65-54.3c0.6 1.133 2.267 1.883 5 2.25s4.633 0.117 5.7-0.75c-0.667-0.367-2.283-0.75-4.85-1.15-2.7-0.4-4.4-0.433-5.1-0.1l-0.75-0.25z"/>
			</g>
				<path d="m82.95-26.9c1.367-0.333 3.383-0.833 6.05-1.5 1.533-0.3 3.283-0.2 5.25 0.3 3.033 0.8 4.75 1.233 5.15 1.3 1.567 0.2 2 0.883 1.3 2.05l-1.55 1.7c2.667-2 3.9-3.4 3.7-4.2-0.133-0.467-0.833-0.767-2.1-0.9-2.6-0.333-4.7-0.684-6.3-1.05-2.434-0.6-4.75-0.65-6.95-0.15-2.233 0.7-3.933 1.133-5.1 1.3-1.333 0.2-3.433 0.367-6.3 0.5-4.267 0.2-6.967 0.333-8.1 0.4-2.467 0.133-5.35 0.483-8.65 1.05l-4.2 0.8 11.25-0.25c1.167 0 2.967-0.083 5.4-0.25 2.4-0.167 4.184-0.25 5.35-0.25 1.433 0 3.367-0.283 5.8-0.85z" clip-rule="evenodd" fill="#4A5F99" fill-rule="evenodd"/>
				<path d="m83.4-37.3c1.133 0.533 1.434 1.233 0.9 2.1l-1.15 1.15 1.7-0.3c1.233-0.333 2.167-0.816 2.8-1.45 0.6-0.6-0.433-1.733-3.1-3.4-3.5-2.133-5.3-3.25-5.4-3.35-0.667-0.667-2.117-1.367-4.35-2.1-1.566-0.5-3.95-1.133-7.15-1.9-2.467-0.6-5.167-1.034-8.1-1.3-2.7-0.267-4.667-0.333-5.9-0.2-0.933 0.133-2.217-0.117-3.85-0.75l-2.15-1c0.3 0.333 0.7 0.7 1.2 1.1 1.066 0.8 2.167 1.35 3.3 1.65 0.9 0.233 2.667 0.5 5.3 0.8 2.966 0.3 5.283 0.617 6.95 0.95 2.2 0.433 4.25 0.983 6.15 1.65 0.833 0.3 2.367 0.917 4.6 1.85 1.067 0.433 2.467 1.183 4.2 2.25 1.867 1.133 3.217 1.883 4.05 2.25z" clip-rule="evenodd" fill="#4A5F99" fill-rule="evenodd"/>
				<path d="m178.15-36.15c-4-0.833-9.167-2.467-15.5-4.9-1.367-0.534-1.183-0.733 0.55-0.6 0.9 0.066 2.167 0.217 3.8 0.45 0.667 0.1 0.75-0.267 0.25-1.1-0.567-0.9-1.683-1.733-3.35-2.5-1.566-0.733-1.833-1.25-0.8-1.55 0.533-0.133 1.217-0.2 2.05-0.2-1.333-0.167-2.85-0.034-4.55 0.4-1.067 0.267-0.733 0.833 1 1.7 0.867 0.434 1.833 0.833 2.9 1.2-1.733-0.033-3.45 0.283-5.15 0.95-1.1 0.433 0.45 1.417 4.65 2.95 1 0.4 4.533 1.6 10.6 3.6 2.2 0.733 4.35 1.233 6.45 1.5 1.233 0.133 3.284 0.367 6.15 0.7 2.1 0.3 3.483 0.417 4.15 0.35 0.367-0.033 0.5-0.1 0.4-0.2-5.73-1.1-10.27-2.017-13.6-2.75z" clip-rule="evenodd" fill="#4A5F99" fill-rule="evenodd"/>
				<path d="m175.9-49.3c0.533-0.1 2.333-0.35 5.4-0.75 2.333-0.3 3.7-0.55 4.1-0.75 0.667-0.333 1.167-1.333 1.5-3-0.367 0.4-0.833 0.833-1.4 1.3-1.133 0.867-2.167 1.35-3.1 1.45-2.767 0.133-4.983 0.267-6.65 0.4-3.1 0.2-4.233 0.533-3.4 1 1.033 0.566 2.667 1.1 4.9 1.6 2.267 0.5 4.15 0.75 5.65 0.75 2 0 3.167-0.167 3.5-0.5-2.2-0.167-4.3-0.35-6.3-0.55-3.93-0.433-5.33-0.75-4.2-0.95z" clip-rule="evenodd" fill="#4A5F99" fill-rule="evenodd"/>
					<use transform="translate(91.65 -62.55)" y="-12.35" width="15.75" height="12.35" enable-background="new" opacity=".75" xlink:href="#s"/>
				<path d="m137.1-17.9c-0.958-2.313-1.633-3.938-2.025-4.875-0.088 1.239 0.42 2.797 1.525 4.675 0.411 0.675 0.902 1.433 1.475 2.275-0.35-0.642-0.67-1.334-0.98-2.075zm-2.02-4.875c0.035-0.623 0.226-1.164 0.575-1.625 0.3-0.4 1.2-0.934 2.7-1.6 1.233-0.533 2.017-1.317 2.35-2.35 0.167-0.566 0.066-1.767-0.3-3.6-0.133-1.533 0.5-2.216 1.9-2.05 0.267 1.1 1.667 2.817 4.2 5.15 1.333 1.233 3.05 2.717 5.15 4.45 2.967 2.7 7.267 5.15 12.9 7.35-3.267-2-5.7-3.517-7.3-4.55-2.733-1.767-5.033-3.5-6.9-5.2-1.133-1.034-2.883-2.917-5.25-5.65-0.4-0.466-0.95-1.6-1.65-3.4-0.6-1.566-1.167-2.5-1.7-2.8-1.2 1.933-2.133 4.35-2.8 7.25-0.4 1.767-0.8 2.917-1.2 3.45-0.633 0.833-1.75 1.367-3.35 1.6-0.133 0.567-0.117 1.167 0.05 1.8 0.116 0.523 0.274 0.881 0.475 1.075l-0.29-0.225c0.04 0.062 0.18 0.371 0.43 0.925z" clip-rule="evenodd" fill="#4A5F99" fill-rule="evenodd"/>
				<path d="m81-54.3c-2.9-0.367-4.9-0.167-6 0.6h-0.175c0.976 0.034 2.734 0.317 5.275 0.85 2.566 0.567 4.517 0.817 5.85 0.75-0.333-1.1-1.983-1.833-4.95-2.2z" clip-rule="evenodd" fill="#4A5F99" fill-rule="evenodd"/>
				<path d="m87.8-50l2.95-0.75c2.167-0.8 3.8-1.9 4.9-3.3 1.395-1.731 2.412-2.889 3.05-3.475-2.122 1.701-3.805 2.909-5.05 3.625l-5.85 3.9z" clip-rule="evenodd" fill="#4A5F99" fill-rule="evenodd"/>
					<use transform="translate(79.65 -63.3)" y="-4.1" width="13.965" height="4.106" enable-background="new" opacity=".75" xlink:href="#r"/>
				<path d="m40.15-58.2l-0.15 0.8c0.316 0.108 0.658 0.2 1.025 0.275 0.739 0.487 1.897 0.762 3.475 0.825 1.367 0.066 3.15-0.017 5.35-0.25 1.233-0.067 2.6 0.1 4.1 0.5 0.867 0.233 2.167 0.683 3.9 1.35 0.933 0.333 2.233 0.917 3.9 1.75 1.733 0.833 3.033 1.417 3.9 1.75 3.9 1.4 7.233 2.167 10 2.3 5.667 0.333 9.4-0.217 11.2-1.65-4.367 0.066-7.633 0.1-9.8 0.1-3.833 0-7.017-0.433-9.55-1.3-3.633-1.6-6.35-2.783-8.15-3.55-3.2-1.367-6.033-2.067-8.5-2.1-2.367 0.2-4.167 0.35-5.4 0.45-1.742 0.128-3.217 0.07-4.425-0.175-0.436-0.286-0.728-0.645-0.875-1.075z" clip-rule="evenodd" fill="#4A5F99" fill-rule="evenodd"/>
				<path d="m166-60.2c-3.1 0.1-4.7 0.15-4.8 0.15-3.833 0-7.4 0.117-10.7 0.35h1c0.8 0.4 2.15 0.667 4.05 0.8 1.067 0.1 2.55 0.167 4.45 0.2h5.15c3.133 0 5.75-0.566 7.85-1.7-0.8-0.233-1.95-0.283-3.45-0.15-1.67 0.2-2.85 0.317-3.55 0.35z" clip-rule="evenodd" fill="#4A5F99" fill-rule="evenodd"/>
				<path d="m109.6-22.675c-2.305 2.288-3.505 3.83-3.6 4.625-0.067 0.566-0.95 1.35-2.65 2.35-1.233 0.733-2.633 1.45-4.2 2.15l-3.35 1.2c-1.367 0.5-2.5 1.1-3.4 1.8-0.47 0.369-0.953 0.669-1.45 0.9l-2.85 0.55 1.3-0.05c0.53-0.1 1.046-0.266 1.55-0.5l4.7-0.9c0.867-0.233 2.367-0.817 4.5-1.75 1.733-0.8 2.917-1.367 3.55-1.7 0.667-0.333 1.316-0.833 1.95-1.5 0.934-0.933 1.5-1.933 1.7-3 0.28-1.501 1.03-2.893 2.25-4.175z" clip-rule="evenodd" fill="#4A5F99" fill-rule="evenodd"/>
					<use transform="translate(99.65 -26.05)" y="-27.8" width="27.964" height="27.675" enable-background="new" opacity=".6797" xlink:href="#o"/>
				<path d="m123-45.05c0.467-0.767 1.017-1.934 1.65-3.5 0.2-0.367 0.567-0.883 1.1-1.55 0.4-0.633 0.533-1.217 0.4-1.75-0.133 0.267-0.7 1.233-1.7 2.9-0.767 1.3-1.25 2.317-1.45 3.05l-2.5 0.05 0.65 0.45c0.033 0.066 0 0.133-0.1 0.2-0.066 0.034-0.083 0.083-0.05 0.15 1.2 0.733 0.467 2.35-2.2 4.85-3.133 2.534-4.917 4.017-5.35 4.45-0.7 0.767-1.667 1.517-2.9 2.25-1.433 0.767-2.5 1.383-3.2 1.85-2.267 1.433-4.25 2.467-5.95 3.1 0.133 0.2 0.383 0.417 0.75 0.65l-0.15 0.2c2.7-0.767 4.6-1.583 5.7-2.45 1.466-1.133 3.25-2.567 5.35-4.3l5.3-4.4c0.933-0.767 1.8-1.733 2.6-2.9 0.47-0.667 1.15-1.767 2.05-3.3z" clip-rule="evenodd" fill="#4A5F99" fill-rule="evenodd"/>
			<g clip-rule="evenodd" fill="#273252" fill-rule="evenodd">
				<path d="m83.4-44.45c-1.6 0.4-2.617 1.083-3.05 2.05l-1.35-0.65c0.3 0.4 0.95 0.917 1.95 1.55 1.333 0.833 2.083 1.317 2.25 1.45 1.1 0.9 2.25 1.75 3.45 2.55 0.934 0.6 1.5 0.933 1.7 1 0.533 0.133 1.05-0.1 1.55-0.7 0.267-0.333 0.667-1 1.2-2 0.5-0.867 0.967-1.533 1.4-2 1.367-1.466 3.883-3.466 7.55-6 0.367-0.267 1.917-1.167 4.65-2.7 1.933-1.067 3.316-2.117 4.15-3.15 0.467-0.567 0.717-0.867 0.75-0.9 0.2-0.3 0.267-0.65 0.2-1.05-1.966 0.1-4.733 1.15-8.3 3.15-0.767 0.434-1.867 1.283-3.3 2.55-1.333 1.2-2.434 2.017-3.3 2.45-0.967 0.5-2.2 0.9-3.7 1.2-0.233 0.066-1.517 0.283-3.85 0.65-2.5 0.333-3.817 0.517-3.95 0.55z"/>
				<path d="m104.9-36.7c0.067-0.1 0.367-0.816 0.9-2.15 0.367-1 0.75-1.633 1.15-1.9s0.917-0.35 1.55-0.25c0.9 0.2 1.45 0.283 1.65 0.25-0.033-0.333-0.017-0.867 0.05-1.6 3.5-0.867 5.483-1.65 5.95-2.35 0.167-0.267-0.1-1.017-0.8-2.25-0.8-1.333-1.133-2.35-1-3.05 0.6-0.167 1.75-0.317 3.45-0.45 1.5-0.233 2.467-0.716 2.9-1.45-0.5-0.5-0.45-0.9 0.15-1.2 0.592-0.332 0.984-0.582 1.175-0.75l0.025-0.025c0.059-0.051 0.092-0.093 0.1-0.125-1.833-0.167-3-0.067-3.5 0.3-2.083 0.139-4.349 0.355-6.8 0.65-1.434 0.167-2.583 0.733-3.45 1.7-0.733 0.733-1.35 1.85-1.85 3.35-0.633 1.7-1.117 3-1.45 3.9-0.567 1.533-0.95 2.833-1.15 3.9-0.4 1.667-0.7 2.934-0.9 3.8-0.1 0.4-0.183 1.083-0.25 2.05-0.043 0.57-0.102 1.045-0.175 1.425 0.041-0.073 0.083-0.148 0.125-0.225 0.48-0.867 1.19-2.05 2.16-3.55zm-2.28 3.775c-0.75 1.406-1.125 2.631-1.125 3.675l1-3.15c0.04-0.148 0.09-0.323 0.12-0.525z"/>
				<path d="m86.15-48.7l-0.15 0.5c0.5-0.066 0.783-0.3 0.85-0.7 0.066-0.4-0.067-0.767-0.4-1.1-0.667 0.467-1.9 0.683-3.7 0.65-2.033-0.133-3.383-0.2-4.05-0.2-1.967 0.033-3.45 0.05-4.45 0.05-1.7-0.033-3.117-0.217-4.25-0.55-3.533-1.034-6.033-1.867-7.5-2.5-4.4-1.867-7.067-2.95-8-3.25-3.767-1.133-6.433-1.067-8 0.2 1.767 0.133 3.767 0.467 6 1 4.033 1.033 7.15 2.05 9.35 3.05 0.333 0.167 1.617 0.833 3.85 2 1.5 0.833 2.816 1.433 3.95 1.8 2.9 0.9 5.633 1.25 8.2 1.05 4.433-0.4 7.2-1.067 8.3-2z"/>
				<path d="m81.85-27.7c0.967-0.133 2.033-0.367 3.2-0.7 0.667-0.2 1.7-0.517 3.1-0.95 1.1-0.333 2.483-0.467 4.15-0.4 0.934 0 2.317 0.067 4.15 0.2-1.767-0.733-3.784-1.233-6.05-1.5-2.133-0.233-4.217-0.233-6.25 0-2.667 0.333-4.667 0.716-6 1.15-3.2 1.033-5.2 1.617-6 1.75-1.788 0.344-3.212 0.335-4.275-0.025-0.19-0.12-0.365-0.245-0.525-0.375l-0.7-0.35c0.333 0.313 0.742 0.554 1.225 0.725 2.372 1.428 7.03 1.586 13.975 0.475z"/>
				<path d="m81.65-65.4c-0.066-0.2 0.133-0.067 0.6 0.4 0.633 0.633 1 0.983 1.1 1.05 0.767 0.567 1.7 1.05 2.8 1.45s2.117 0.55 3.05 0.45c1.167-0.167 1.867-0.75 2.1-1.75-0.966 0.7-2.583 0.7-4.85 0-1.967-0.633-3.5-1.417-4.6-2.35-0.233 0.433-0.35 0.683-0.35 0.75h0.15z"/>
				<path d="m111.65-64.05c-3.767-1-6.583-1.8-8.45-2.4-2.037-0.679-3.82-1.462-5.35-2.35 0.655 0.763 1.655 1.563 3 2.4 0.867 0.5 2.083 1.233 3.65 2.2 1.2 0.867 2.433 1.4 3.7 1.6 1.67 0.267 2.82-0.217 3.45-1.45z"/>
				<path d="m109.1-57.45c1.867-0.733 3.316-1.65 4.35-2.75-1-0.033-2.367 0.083-4.1 0.35-1.934 0.267-3.283 0.417-4.05 0.45-0.433 0.033-1.316 0-2.65-0.1-1.133-0.033-2.017 0-2.65 0.1-1.233 0.233-2.217 1.167-2.95 2.8-0.9 1.934-1.7 3.117-2.4 3.55v0.65c1.1 0.133 2.684-0.267 4.75-1.2 1.133-0.5 2.717-1.2 4.75-2.1 1.1-0.4 2.75-0.983 4.95-1.75z"/>
				<path d="m130.7-16.75l-0.35-0.65c0-0.467-0.133-1.15-0.4-2.05-0.267-0.933-0.417-1.617-0.45-2.05-0.067-0.633-0.033-1.35 0.1-2.15 0.066-0.467 0.183-1.15 0.35-2.05 0.167-0.933 0.483-2.183 0.95-3.75 0.5-1.667 0.817-2.867 0.95-3.6 0.6-3 1.25-5.45 1.95-7.35 1.067-2.833 2.4-4.967 4-6.4 0.7-0.633 1.684-1.167 2.95-1.6 0.367-0.133 1.467-0.417 3.3-0.85 0.3-0.067 1.05-0.183 2.25-0.35 1.1-0.233 1.733-0.533 1.9-0.9 0.133-0.367-0.167-0.783-0.9-1.25-0.167-0.1-0.75-0.383-1.75-0.85-0.8-0.2-1.4-0.367-1.8-0.5-0.633-0.2-1.083-0.533-1.35-1-0.167-0.3-0.333-0.85-0.5-1.65-0.1-0.6-0.4-1.083-0.9-1.45-0.467-0.367-1.033-0.55-1.7-0.55-0.9 0-1.483-0.05-1.75-0.15-0.566-0.2-1.3-0.617-2.2-1.25-1.1-0.767-1.833-1.25-2.2-1.45-2.6-1.4-5.25-1.75-7.95-1.05-0.667 0.167-2.284 0.167-4.85 0-2.2-0.133-3.767 0.066-4.7 0.6-0.367 0.233-0.8 0.683-1.3 1.35-0.567 0.767-1.017 1.284-1.35 1.55-0.867 0.5-1.45 0.883-1.75 1.15-0.5 0.5-0.467 1.1 0.1 1.8 0.667 0.8 2.117 0.9 4.35 0.3 3.133-0.867 4.733-1.3 4.8-1.3 2.433-0.1 4.283-0.117 5.55-0.05 2.133 0.167 3.784 0.617 4.95 1.35l-1 0.35c1.033 0.466 1.617 1.017 1.75 1.65 0.1 0.566-0.167 1.35-0.8 2.35-0.8 0.9-1.333 1.566-1.6 2-0.434 0.767-0.217 1.383 0.65 1.85 0.533 0.233 1.333 0.317 2.4 0.25 0.416-0.046 0.941-0.104 1.575-0.175-1.044 0.14-1.803 0.315-2.275 0.525-0.967 0.434-1.534 1.233-1.7 2.4-0.2 1.467-0.417 4.3-0.65 8.5-0.567 4.067-0.9 7.233-1 9.5-0.17 4.167 0.62 7.15 2.35 8.95z"/>
				<path d="m122-35.7c-0.333 0.567-0.817 1.3-1.45 2.2-0.733 0.967-1.233 1.667-1.5 2.1-0.5 0.867-0.867 1.533-1.1 2-0.434 0.767-0.867 1.383-1.3 1.85-1.167 1.267-2.05 2.233-2.65 2.9-1.067 1.167-2.017 2.083-2.85 2.75-1.733 1.433-2.683 2.283-2.85 2.55-0.466 0.767-0.3 1.917 0.5 3.45 0.6 1.1 0.85 2.316 0.75 3.65-0.267 1.533-0.45 2.767-0.55 3.7l0.15-0.65 1.85-3.65c0.5-1.1 1.183-2.733 2.05-4.9 0.7-1.633 1.55-3.283 2.55-4.95 0.423 0.726 0.34 2.326-0.25 4.8 0.126-0.355 0.309-0.756 0.55-1.2 0.533-1.033 0.85-1.683 0.95-1.95 0.367-0.967 0.9-2.417 1.6-4.35 0.433-1 1.117-2.3 2.05-3.9 1.1-1.9 1.817-3.184 2.15-3.85l-0.6 0.9c2.446-4.023 4.271-7.656 5.475-10.9-0.239 0.49-0.748 1.057-1.525 1.7-1.133 0.9-1.817 1.534-2.05 1.9-0.267 0.4-0.583 1.033-0.95 1.9-0.43 0.9-0.77 1.55-1 1.95z"/>
				<path d="m185.98-33.2c-1.083-0.117-2.292-0.3-3.625-0.55-3.667-0.667-5.833-1.033-6.5-1.1-1.767-0.233-3.717-0.733-5.85-1.5-0.767-0.3-2.617-1.083-5.55-2.35-2.567-1.133-5.6-2.933-9.1-5.4-4.8-3.333-7.75-5.333-8.85-6l-1.25-0.75c0.567 0.733 1.467 1.55 2.7 2.45 0.7 0.533 1.7 1.267 3 2.2 0.333 0.267 0.933 0.767 1.8 1.5 0.733 0.633 1.333 1.117 1.8 1.45 2.967 2.033 5.4 3.5 7.3 4.4 7.2 3.5 13.533 5.383 19 5.65h5.12c1.083 0.117 2.042 0.167 2.875 0.15l0.14-0.15h-3.02z"/>
				<path d="m139.4-48.45c0.133 0.2 0.55 0.684 1.25 1.45 1.434 1.633 2.667 2.667 3.7 3.1 0.367 0.167 1.033 0.316 2 0.45 0.833 0.1 1.5 0.3 2 0.6s2.033 1.75 4.6 4.35c2.466 2.333 4.1 3.267 4.9 2.8 0.367-0.233 0.133-0.767-0.7-1.6-1-0.867-1.6-1.383-1.8-1.55-1.6-1.6-2.617-2.65-3.05-3.15-1.9-2.067-2.983-3.3-3.25-3.7-0.6-1.066-1.117-1.867-1.55-2.4l-0.9-0.9c-0.367-0.4-0.567-0.75-0.6-1.05l1.95 1.525c-0.072-0.113-0.139-0.238-0.2-0.375-0.333-0.767-0.633-1.25-0.9-1.45-0.4-0.3-0.934-0.417-1.6-0.35-0.8 0.1-1.383 0.15-1.75 0.15-0.967-0.133-1.75-0.2-2.35-0.2-1.167-0.067-1.867 0.117-2.1 0.55-0.27 0.467-0.15 1.05 0.35 1.75z"/>
				<path d="m145.35-49.4c-0.133 0.033-0.233 0.05-0.3 0.05-0.066 0.033-0.083 0.15-0.05 0.35 3 2.3 6.15 3.617 9.45 3.95 2.477 0.248 4.276 0.556 5.4 0.925-1.644-0.584-3.561-1.542-5.75-2.875-2.6-1.667-4.517-2.867-5.75-3.6-0.567-0.4-1.033-0.717-1.4-0.95-0.633-0.4-1.1-0.5-1.4-0.3-0.433 0.267-0.55 0.767-0.35 1.5 0.15 0.633 0.384 1.05 0.7 1.25l-0.55-0.3z"/>
				<path d="m178.35-52.4c-6.9-0.1-12.9-0.533-18-1.3-0.467-0.066-3.3-0.466-8.5-1.2-2.233-0.333-4.117-0.7-5.65-1.1-1.6-0.433-3.45-0.733-5.55-0.9l-2.65-0.15 2.65 2.35 3.8 0.2c3.167 0.167 6.233 0.433 9.2 0.8 1.133 0.133 4.717 0.6 10.75 1.4 3.867 0.533 6.35 0.767 7.45 0.7 1.87-0.067 4.03-0.333 6.5-0.8z"/>
				<path d="m146.85-55.2l-7.5-0.2c-0.233 0 0.367 0.583 1.8 1.75 1.434 1.167 2.267 1.75 2.5 1.75 3 0 6.067 0.433 9.2 1.3 3.1 0.867 8.816 1.717 17.15 2.55-5.433-1.333-9.6-2.383-12.5-3.15-1.8-0.5-4.117-1.316-6.95-2.45l-3.7-1.55z"/>
				<path d="m161-64.9c-1.9 0.333-6.85 0.5-14.85 0.5-1.667 0-3.483 0.433-5.45 1.3l-2.5 1.35 6.65-0.4c4.8-0.267 8.133-0.4 10-0.4 3 0 7.55-0.733 13.65-2.2-3.67-0.3-6.17-0.35-7.5-0.15z"/>
				<path d="m116.75-74.4c0.567 0.9 1.267 2.267 2.1 4.1 0.833 1.533 1.783 2.7 2.85 3.5 0.933 0.7 2 1.316 3.2 1.85 1.367 0.633 2.517 0.934 3.45 0.9l-1.35-0.85c-2.067-2.434-3.583-4.133-4.55-5.1-1.8-1.8-3.7-3.267-5.7-4.4z"/>
			</g>
			<g clip-rule="evenodd" fill-rule="evenodd">
				<path d="m64.2-72.55c-1.833-1.367-3.267-1.883-4.3-1.55-0.733 0.233-1.167 0.667-1.3 1.3-0.133 0.767-0.333 1.267-0.6 1.5-0.567 0.5-1.45 0.667-2.65 0.5-1.367-0.3-2.333-0.45-2.9-0.45 0.033 0.133 0.033 0.4 0 0.8-0.067 0.4-0.083 0.684-0.05 0.85-1.566 0.1-2.883 0.05-3.95-0.15 0.2 0.967-0.217 1.55-1.25 1.75-1.167 0.2-1.767 0.6-1.8 1.2l1.75 0.5c-0.066 0.033-0.167 0.033-0.3 0-0.1 0-0.15 0.083-0.15 0.25 1.267 0.767 2.216 1.333 2.85 1.7 1.2 0.7 2.233 1.117 3.1 1.25-0.033-0.167-0.017-0.45 0.05-0.85 0.033-0.4 0.033-0.7 0-0.9 0.3 0 2.367 1.167 6.2 3.5 3.133 1.867 4.883 2.05 5.25 0.55 0.2-0.8-0.2-2.067-1.2-3.8-1.133-1.9-1.7-3.2-1.7-3.9 0.567-0.033 1.267 0.05 2.1 0.25 0.467 0.1 1.15 0.25 2.05 0.45-0.066-0.133-0.167-0.417-0.3-0.85-0.1-0.434-0.217-0.717-0.35-0.85 0.867-0.167 1.917-0.117 3.15 0.15-2.2-1.933-3.433-3-3.7-3.2z" fill="#627FCC"/>
				<path d="m82.15-76.8c-2.1 1.5-5.517 2.25-10.25 2.25l1.25 0.75c3.033 1.767 5.783 2.75 8.25 2.95-0.033-0.233-0.017-0.6 0.05-1.1 0.066-0.5 0.066-0.85 0-1.05 0.533 0.1 1.8 0.5 3.8 1.2 1.567 0.566 2.867 0.8 3.9 0.7 0.2-1.333-0.717-3.15-2.75-5.45-0.933-1.1-1.583-1.633-1.95-1.6-0.267 0-1.033 0.45-2.3 1.35z" fill="#627FCC"/>
				<path d="m150.65-69.75c-0.066 0.467-0.133 0.767-0.2 0.9 1.767 0.233 4.466-0.483 8.1-2.15 3.833-1.8 5.8-3.5 5.9-5.1 0.066-1.4-2.15-2.133-6.65-2.2-4.966 0.167-7.917 0.233-8.85 0.2 0.9-1.467 0.316-2.417-1.75-2.85-2.534-0.2-4.15-0.333-4.85-0.4-5.434-0.667-9.4-1.45-11.9-2.35-0.6 0.567-1.784 0.684-3.55 0.35-1.967-0.5-3.283-0.8-3.95-0.9-0.233 1.267 0.417 2.467 1.95 3.6 1.633 1.233 2.467 2.183 2.5 2.85l0.25 0.5c1.6 0.566 3.583 2.033 5.95 4.4 2.333 2.3 4.283 3.7 5.85 4.2 1.133 0.333 2.933 0.083 5.4-0.75 2.33-0.8 4.27-0.9 5.8-0.3z" fill="#627FCC"/>
				<path d="m97.65-80.3c0.833 0.667 2.184 1.45 4.05 2.35 2.3 1.133 3.867 1.583 4.7 1.35 0.667-0.167 1.583-0.833 2.75-2 0.934-0.933 2.017-1.35 3.25-1.25 0.367-1.733-0.35-2.883-2.15-3.45-1.533-0.5-3.067-0.5-4.6 0-0.5 0.167-1.283 0.55-2.35 1.15-1 0.566-1.816 0.917-2.45 1.05-0.5 0.133-1.383 0.167-2.65 0.1-1.2-0.067-2.05 0-2.55 0.2l2 0.5z" fill="#627FCC"/>
				<path d="m182.35-69.75c-0.7-0.467-1.767-0.733-3.2-0.8-0.097 0-1.222 0.05-3.375 0.15 0.129 0.341 0.238 0.608 0.325 0.8 0.4 0.8 0.917 1.434 1.55 1.9 0.5 0.3 1.434 0.6 2.8 0.9 0.933 0.2 1.517 0.7 1.75 1.5-0.534 0.833-0.784 1.417-0.75 1.75 0.033 0.2 0.283 0.483 0.75 0.85 0.466 0.367 0.7 0.667 0.7 0.9 0.033 0.5-0.233 1.066-0.8 1.7-0.733 0.867-1.15 1.383-1.25 1.55 1.9 0.767 3.867 1.233 5.9 1.4 2.7 0.233 4.517-0.317 5.45-1.65-0.1-0.067-1.25-0.784-3.45-2.15-1.533-0.933-2.467-1.883-2.8-2.85-0.1-0.3 0.033-0.6 0.4-0.9 0.3-0.333 0.417-0.617 0.35-0.85-0.133-0.367-0.434-0.733-0.9-1.1-0.667-0.5-1.05-0.8-1.15-0.9-1.13-1.233-1.9-1.967-2.3-2.2zm-6.95-1.8l-3.25 0.75c0.9 0.333 2.05 0.466 3.45 0.4 0.062-3e-3 0.12-3e-3 0.175 0-0.11-0.322-0.24-0.705-0.38-1.15z" fill="#627FCC"/>
				<path d="m191.65-39.55c-0.833-0.333-1.483-0.517-1.95-0.55 0.1-0.033 1.017-0.133 2.75-0.3 1.4-0.167 2.25-0.45 2.55-0.85 0.633-0.833 0.583-1.5-0.15-2-0.633-0.433-1.434-0.6-2.4-0.5 0.233 1.367-0.95 2.3-3.55 2.8-2.9 0.3-4.65 0.534-5.25 0.7 0.6 1 1.934 1.583 4 1.75 1.167 0.067 2.75 0.05 4.75-0.05l-0.75-1z" fill="#627FCC"/>
				<path d="m42.65-36.15c0.133 0 0.967-0.067 2.5-0.2-0.133-0.733-0.45-1.65-0.95-2.75-0.133-0.733 0.6-1.05 2.2-0.95 0.567 0.033 1.6 0.183 3.1 0.45 1.3 0.233 2.35 0.333 3.15 0.3 0.467-0.034 1.5-0.15 3.1-0.35 1.3-0.133 2.333-0.184 3.1-0.15-2.833-0.267-5.633-0.967-8.4-2.1s-5.284-2.583-7.55-4.35c-0.021-0.024-0.038-0.049-0.05-0.075l0.3-0.225c-0.398-0.092-0.498-0.017-0.3 0.225l-0.7 0.525c-0.167 0.667 0.283 1.667 1.35 3 0.867 1.1 0.833 2.117-0.1 3.05-0.066 0.067-0.9 0.433-2.5 1.1-1 0.433-1.167 1.033-0.5 1.8 0.367 0.433 1.117 0.667 2.25 0.7z" fill="#5C77BF"/>
				<path d="m148.15-11.05c-0.409-0.107-0.801-0.249-1.175-0.425 0.038 0.145 0.096 0.287 0.175 0.425h0.99zm-1.17-0.425c-0.11-0.332-0.119-0.673-0.025-1.025 0.5-0.167 1.1-0.267 1.8-0.3 0.4 0 1.017-0.017 1.85-0.05-0.3-0.267-0.934-1.066-1.9-2.4-0.8-1.033-1.55-1.683-2.25-1.95 0.4 0.333 0.767 0.967 1.1 1.9-1.1-0.1-1.867-0.117-2.3-0.05-0.667 0.167-0.933 0.717-0.8 1.65 0.1 0.6 0.617 1.167 1.55 1.7 0.3 0.202 0.63 0.377 0.97 0.525z" fill="#5C77BF"/>
				<path d="m133.15-4.3c2.533-0.133 2.7-0.95 0.5-2.45-0.6 0.867-1.933 0.967-4 0.3-2.433-0.767-3.933-1.05-4.5-0.85-0.867 0.3-1.367 0.8-1.5 1.5 0.029 0.822 0.029 1.505 0 2.05-0.26 0.033-0.51 0.05-0.75 0.05l0.75 0.15c4e-3 -0.067 4e-3 -0.134 0-0.2 0.247-0.039 0.497-0.088 0.75-0.15 1.7-0.434 2.8-0.65 3.3-0.65 0.47 0 2.28 0.083 5.45 0.25z" fill="#5C77BF"/>
				<path d="m66.9-21c1.5 0.267 3.517 0.5 6.05 0.7 1.7 0.466 2.566 1.017 2.6 1.65 0.029 0.482-0.413 1.107-1.325 1.875l-0.075-0.025c-0.2 0.133-0.333 0.233-0.4 0.3-0.1 0.067-0.133 0.2-0.1 0.4 0.195-0.021 0.387-0.045 0.575-0.075 0.262 0.064 0.57 0.106 0.925 0.125 0.7 0.066 1.2 0.15 1.5 0.25l-1.35-0.55c2.051-0.384 3.702-1.067 4.95-2.05 1.8-1.434 1.033-2.667-2.3-3.7-1.867-0.566-4.367-1.05-7.5-1.45-4.133-0.467-6.633-0.784-7.5-0.95-0.067 1.8 1.25 2.967 3.95 3.5z" fill="#5C77BF"/>
			</g>
			<g clip-rule="evenodd" fill="#2C395C" fill-rule="evenodd">
				<path d="m37.65-70.75c0.6-0.533 2.967-2.217 7.1-5.05 2.9-2.034 5-4 6.3-5.9-0.233-0.167-1.2-0.617-2.9-1.35-1.033-0.4-1.633-1.184-1.8-2.35-0.167-1 0.267-2.15 1.3-3.45 1-1.267 1.434-2.316 1.3-3.15-1.5-0.9-3.684-1.6-6.55-2.1 0.267-0.933 0.85-2.233 1.75-3.9 0.5-0.933 1.217-2.25 2.15-3.95-1.2-0.733-1.333-1.633-0.4-2.7 1.167-1.4 1.633-2.517 1.4-3.35-5.133 1.133-10.583 3.867-16.35 8.2-3.2 2.367-5.133 4.05-5.8 5.05-1.033 1.633-1.217 4-0.55 7.1 0.233 1.133 0.65 3.633 1.25 7.5 0.5 3.167 1.017 5.65 1.55 7.45 0.434 1.434 0.783 4.017 1.05 7.75 0.267 3.3 0.783 5.817 1.55 7.55v0.8c0.114-1.841 0.897-4.158 2.35-6.95 1.633-3.133 3.4-5.533 5.3-7.2z"/>
				<path d="m200.35-56.7l0.3-1.35c1.167-0.867 1.567-2.767 1.2-5.7-0.167-1.567-0.45-3.667-0.85-6.3 0.033-1.267 0.217-3.467 0.55-6.6 0.3-2.8 0.45-5.05 0.45-6.75 0-5.367-1.133-10.2-3.4-14.5-2.867-5.434-6.833-7.8-11.9-7.1 2.4 2.967 3.65 4.533 3.75 4.7 1.367 2.2 1 3.316-1.1 3.35 0.6 1.267 1.867 2.684 3.8 4.25 2.1 1.7 3.417 3 3.95 3.9 0.733 1.233 0.95 2.8 0.65 4.7-0.367 2.1-1.267 3.017-2.7 2.75 0.733 1.3 1.284 2.317 1.65 3.05 0.7 1.367 0.466 2.35-0.7 2.95-0.767 0.367-2.417 0.033-4.95-1-2.833-1.133-4.617-1.683-5.35-1.65 0.5 1.267 1.583 2.9 3.25 4.9 2.167 2.6 3.433 4.167 3.8 4.7 0.3 0.433 0.933 1.333 1.9 2.7 0.767 1.1 1.35 1.983 1.75 2.65 0.4 0.633 0.9 1.883 1.5 3.75 0.63 1.567 1.45 2.433 2.45 2.6z"/>
				<path d="m182.35-105.05l1.3-0.35c-1.6-0.033-3.55-0.45-5.85-1.25-2.6-1.033-4.533-1.75-5.8-2.15-7.733-2.4-12.867-3.9-15.4-4.5-8.4-1.967-17.483-3.65-27.25-5.05-5.845-0.82-12.595-1.612-20.25-2.375-1.057-0.017-1.641-0.025-1.75-0.025-7.267 0-12.9 0.267-16.9 0.8-3.744 0.492-6.644 0.867-8.7 1.125-2.273 0.299-3.523 0.458-3.75 0.475-2.253 0.189-4.287 0.406-6.1 0.65-0.192 0.066-0.393 0.133-0.6 0.2-2.267 0.733-4.066 1.367-5.4 1.9-2.867 0.967-5.066 1.767-6.6 2.4-2.8 1.167-4.667 2.434-5.6 3.8 0.6-0.233 2.633-1.167 6.1-2.8 2.467-1.167 4.534-2 6.2-2.5 2.167-0.633 4.767-1.267 7.8-1.9 1.767-0.367 4.417-0.867 7.95-1.5 3.1-0.6 5.917-0.95 8.45-1.05 2.4-0.1 5.216 0.017 8.45 0.35 8.1 0.8 13.567 1.05 16.4 0.75l-0.95-0.35c4.167 0.133 8.383 0.6 12.65 1.4 3.633 0.733 7.717 1.8 12.25 3.2 2.267 0.7 5.733 1.8 10.4 3.3 4.033 1.2 7.533 1.917 10.5 2.15-0.033-0.133-0.183-0.35-0.45-0.65 1.333-0.067 3.05 0.167 5.15 0.7 1.2 0.333 2.9 0.833 5.1 1.5 1.1 0.3 3.267 0.917 6.5 1.85 2.93 0.62 4.98 0.59 6.15-0.11z"/>
			</g>
			<g clip-rule="evenodd" fill-rule="evenodd">
				<path d="m191-41.7v-0.7c0.2-0.233 0.483-0.417 0.85-0.55 0.1-0.1-0.15-0.283-0.75-0.55 0.5-0.5 1.333-1.083 2.5-1.75 0.066-0.233-0.1-0.4-0.5-0.5-0.434-0.067-0.667-0.217-0.7-0.45 2.633-1.566 2.4-2.8-0.7-3.7 2.167-1 3.367-2.483 3.6-4.45 0.233-2.033-1.167-2.75-4.2-2.15 0.133-0.133 0.4-0.617 0.8-1.45 0.434-0.833 0.783-1.383 1.05-1.65-0.534-0.1-3.034-0.7-7.5-1.8-3-0.733-5.583-1.017-7.75-0.85 0.6 0.433 1.966 1.133 4.1 2.1 1.867 0.833 3.184 1.65 3.95 2.45-1.233 1.034-3.4 1.534-6.5 1.5-3.733-0.033-6.017 0.083-6.85 0.35 1.3 0.2 3.9 0.75 7.8 1.65 3.267 0.767 5.917 1.2 7.95 1.3-1.833 0.933-4.467 1.4-7.9 1.4-3.867-0.2-6.667-0.233-8.4-0.1 2.233 1.367 4.816 2.367 7.75 3 1.667 0.367 4.316 0.917 7.95 1.65-0.3 1.167-0.5 1.95-0.6 2.35-0.2 0.6-0.767 1.184-1.7 1.75 1.83 0.9 3.75 1.283 5.75 1.15z" fill="#6D8DE3"/>
				<path d="m172.75-69.2c-0.332 0.053-0.657 0.103-0.975 0.15 0.351 0.211 0.675 0.378 0.975 0.5v-0.65zm-0.97 0.15c-0.895-0.531-1.953-1.348-3.175-2.45-1.7-1.567-3.2-2.6-4.5-3.1-1.467-0.533-3.483-0.8-6.05-0.8-2.966 0.133-5.1 0.217-6.4 0.25 0-0.133 0.117-0.617 0.35-1.45-2.167-0.867-4.817-1.566-7.95-2.1-1.566-0.3-4.367-0.7-8.4-1.2 1.533 1.5 3.2 2.467 5 2.9 1.133 0.3 3.133 0.483 6 0.55-0.133 3.267-3.867 5.284-11.2 6.05 2.966 0.967 7.05 0.95 12.25-0.05 7-1.3 11.1-1.966 12.3-2-0.4 1.434-0.733 2.3-1 2.6-0.467 0.5-1.417 0.75-2.85 0.75 1.6 1.233 4.25 1.617 7.95 1.15 1.82-0.213 4.38-0.579 7.68-1.1z" fill="#6D8DE3"/>
				<path d="m83.65-74.15c-2.066-0.233-3.983-0.017-5.75 0.65-0.566 0.2-1.316 0.667-2.25 1.4-0.867 0.7-1.566 1.133-2.1 1.3-1.667 0.5-4.3 0.167-7.9-1-0.1 0.167-0.45 0.933-1.05 2.3-0.367 0.8-0.817 1.367-1.35 1.7-1.4 0.267-2.367 0.45-2.9 0.55-0.9 0.2-1.067 1-0.5 2.4-2.233 0.067-3.85 0.15-4.85 0.25-1.7 0.133-3.183 0.4-4.45 0.8l1.7-0.35c1.833 0.233 4.033 0.883 6.6 1.95 1.433 0.6 3.55 1.5 6.35 2.7 0.167-1.7 0.066-3.417-0.3-5.15 0.1-0.9 1.533-1.417 4.3-1.55 0.066-2.367 1.216-3.167 3.45-2.4 1.233 0.4 3.083 1.2 5.55 2.4 0.066-0.633-0.133-1.5-0.6-2.6-0.467-1.067-0.684-1.95-0.65-2.65 1.033-0.033 2.8 0.117 5.3 0.45 2.233 0.267 3.983 0.317 5.25 0.15-0.033-1.867-1.317-2.967-3.85-3.3z" fill="#6D8DE3"/>
				<path d="m97.9-79.8c-0.3 0.933 0.783 1.966 3.25 3.1 1.567 0.7 3.35 1.317 5.35 1.85 0.067-0.6-0.1-1.4-0.5-2.4-0.367-1-0.533-1.833-0.5-2.5-0.933-0.367-2.2-0.583-3.8-0.65-1.6-0.1-2.867-0.017-3.8 0.25v0.35z" fill="#6D8DE3"/>
				<path d="m49.55-37.5c3.4 0.5 5.967 0.767 7.7 0.8 4.167 0.1 5.917-0.7 5.25-2.4-0.3-0.867-2.483-1.783-6.55-2.75-4.333-0.867-6.867-1.383-7.6-1.55 0.967 0.5 2.05 1.217 3.25 2.15 0.7 0.533 1.7 1.35 3 2.45-1.133 0.667-2.817 1-5.05 1v0.3z" fill="#627FCC"/>
				<path d="m68.55-22.15c1.133-0.467 2.983-0.283 5.55 0.55 2.767 0.867 4.133 2 4.1 3.4-0.862 0.247-1.371 0.38-1.525 0.4 0.833-0.073 1.925-0.339 3.275-0.8 1.6-0.533 2.683-0.85 3.25-0.95 0.2-1.633-1.717-2.65-5.75-3.05-1.167-0.133-3.9-0.2-8.2-0.2l-0.7 0.65z" fill="#627FCC"/>
				<path d="m122.8-4.65c1.567-1.033 2.817-1.55 3.75-1.55 1.1 0 2.85 0.367 5.25 1.1 2.267 0.733 4.067 1.033 5.4 0.9-0.4-1-1.15-1.566-2.25-1.7-1.333 0.033-2.35-0.05-3.05-0.25-0.533-0.133-1.5-0.65-2.9-1.55-1.067-0.633-2.1-0.9-3.1-0.8-1.066 0.133-2.517 1.367-4.35 3.7-0.434 0.542-0.917 0.959-1.45 1.25-0.516 0.095-1.033 0.111-1.55 0.05h-3c1.784 0.681 3.301 0.664 4.55-0.05 0.9-0.145 1.8-0.512 2.7-1.1z" fill="#627FCC"/>
				<path d="m145-18.15c-0.433 0.733-1.233 0.967-2.4 0.7 0.033 1.434 1.133 2.983 3.3 4.65l-0.35-0.7c0.233-0.433 0.284-1 0.15-1.7-0.067-0.4-0.2-1.033-0.4-1.9 1.067 0.067 2.8 0.883 5.2 2.45 2.167 1.4 4.067 1.983 5.7 1.75-0.467-0.733-1.267-1.4-2.4-2-1.333-0.633-2.3-1.15-2.9-1.55-0.333-0.233-1.3-1.017-2.9-2.35-1.133-1-2.15-1.667-3.05-2 0.47 1.067 0.48 1.95 0.05 2.65z" fill="#627FCC"/>
			</g>
				<use transform="translate(30.4 -.5)" x="-0.008" y="-95.715" width="169.311" height="95.697" enable-background="new" opacity=".1484" xlink:href="#p"/>
			<path d="m107.72-95.55c5.327-0.482 14.801-0.683 28.425-0.6-3-0.267-6.583-0.9-10.75-1.9-3.533-0.9-7.017-1.934-10.45-3.1 0.2 0.033 0.433 0 0.7-0.1-4.833-1.233-8.633-1.9-11.4-2 1.733-0.533 4.15-0.767 7.25-0.7 1.733 0.034 4.25 0.133 7.55 0.3-4.3-0.667-7.517-1.167-9.65-1.5 0.934-0.3 2.117-0.483 3.55-0.55 0.833-0.033 2.033-0.05 3.6-0.05-3.2-1-7.95-1.7-14.25-2.1-6.733-0.433-11.4-0.983-14-1.65 3.667-1.233 8.333-1.883 14-1.95 3.233-0.033 8.017 0.067 14.35 0.3-2.066-0.4-3.633-0.7-4.7-0.9-1.867-0.333-3.434-0.567-4.7-0.7 1.4-0.4 3.25-0.6 5.55-0.6 1.333 0.033 3.284 0.1 5.85 0.2-2.433-0.633-4.05-1.1-4.85-1.4 2.703-0.334 6.544-0.176 11.525 0.475-0.788-0.193-1.429-0.402-1.925-0.625 1.344 0 3.261 0.317 5.75 0.95-7.097-2.021-12.714-3.471-16.85-4.35-6.5-1.367-12.333-2.05-17.5-2.05-4.267 0-8.583 0.367-12.95 1.1-3.167 0.533-7.35 1.466-12.55 2.8-5.767 1.433-9.633 2.583-11.6 3.45-4.7 2.133-7.383 5.017-8.05 8.65-0.533 2.867 0.45 4.383 2.95 4.55 0.733 0.033 1.933 0.033 3.6 0 1.533 0 2.733 0.184 3.6 0.55 2 0.867 3.133 2.1 3.4 3.7 0.2 1.567-0.434 2.967-1.9 4.2l2 0.5c-0.4 0.933 1.25 1.15 4.95 0.65 1.933-0.267 4.433-0.7 7.5-1.3 2.9-0.434 7.2-1.05 12.9-1.85 0.636-0.104 2.644-0.412 6.025-0.925 3.376-0.505 7.725-0.997 13.045-1.475z" clip-rule="evenodd" fill="#33426B" fill-rule="evenodd"/>
			<path d="m193.85-72.3c-0.333-0.534-0.633-1.167-0.9-1.9-0.133-0.433-0.333-1.066-0.6-1.9 0.767 0.467 1.95 1.267 3.55 2.4 1.467 0.967 2.7 1.633 3.7 2 0.033-1.066-0.35-2.466-1.15-4.2-0.934-2.033-1.467-3.434-1.6-4.2 0.333 0.1 0.95 0.233 1.85 0.4-0.133-0.267-0.267-0.833-0.4-1.7-0.167-0.867-0.316-1.434-0.45-1.7 0.267 0.133 0.816 0.267 1.65 0.4 0.867 0.133 1.45 0.284 1.75 0.45-0.367-0.633-0.8-1.633-1.3-3-0.5-1.333-0.934-2.3-1.3-2.9-0.566-0.934-1.617-2.117-3.15-3.55-1.6-1.466-2.667-2.6-3.2-3.4 2.133 0.833 4.034 1.117 5.7 0.85-1.167-2.833-3.55-5.283-7.15-7.35-3.1-1.8-6.417-3-9.95-3.6 0.8 0.434 2.2 1.083 4.2 1.95 1.767 0.8 3.117 1.483 4.05 2.05-5.7-2.533-9.65-3.4-11.85-2.6 0.967 0.767 2.35 1.633 4.15 2.6 2.066 1.1 3.466 1.917 4.2 2.45-1 0.067-2.617-0.2-4.85-0.8-2.1-0.534-3.75-0.7-4.95-0.5 0.9 0.633 2.383 1.517 4.45 2.65 1.967 1.1 3.417 1.983 4.35 2.65-0.8 0-2.483-0.267-5.05-0.8-2.167-0.467-3.767-0.55-4.8-0.25 0.667 0.433 2.034 1.083 4.1 1.95 1.767 0.7 3.033 1.4 3.8 2.1-3.8-1.2-7.784-2.15-11.95-2.85-4.5-0.767-8.617-1.133-12.35-1.1 2.267 1.5 5.75 3 10.45 4.5 5.233 1.667 8.8 3 10.7 4-1.367-0.3-2.4-0.517-3.1-0.65-1.233-0.233-2.284-0.3-3.15-0.2 1.036 0.927 2.494 1.802 4.375 2.625-5.151-1.769-9.06-2.227-11.725-1.375 2.6 2.267 6.35 4.633 11.25 7.1 5.5 2.8 9.367 3.983 11.6 3.55l-1.05-0.825c0.679 0.393 1.463 0.852 2.35 1.375 1.72 1.1 2.97 2.2 3.74 3.3z" clip-rule="evenodd" fill="#33426B" fill-rule="evenodd"/>
			<path d="m39.25-87.2c1.133 1.567 2.517 2.883 4.15 3.95 1.9 1.267 3.667 1.817 5.3 1.65 0 1.233 0.033 1.717 0.1 1.45l1-1.5c-0.805 1.977 3.112 0.843 11.75-3.4 8.637-4.241 12.32-6.25 11.05-6.025-1.269 0.217-1.252 0.059 0.05-0.475-2.367-0.167-5.2-0.05-8.5 0.35-3.667 0.467-6.417 0.784-8.25 0.95 0.867-0.467 2.233-1.117 4.1-1.95 1.833-0.833 3.2-1.483 4.1-1.95-0.233 0.033-0.5 0-0.8-0.1 1.034-0.7 2.467-1.417 4.3-2.15 1.033-0.4 2.55-1 4.55-1.8-1.967-0.066-4.45 0.034-7.45 0.3-4.867 0.433-7.333 0.65-7.4 0.65 0.733-0.767 1.883-1.7 3.45-2.8 2.467-1.733 3.717-2.617 3.75-2.65-0.8-0.033-1.983 0.034-3.55 0.2-1.567 0.2-2.75 0.283-3.55 0.25 1-0.467 2.6-1.2 4.8-2.2 1.9-0.9 3.4-1.783 4.5-2.65-2.133-0.233-4.784-0.2-7.95 0.1-1.967 0.2-4.617 0.583-7.95 1.15 0.267-0.733 0.95-1.55 2.05-2.45 1.267-1.067 2.066-1.833 2.4-2.3-3.9-0.6-7.533 0.667-10.9 3.8-2.967 2.767-4.983 6.15-6.05 10.15-0.633 2.333-0.933 3.983-0.9 4.95 0.067 1.4 0.683 2.9 1.85 4.5z" clip-rule="evenodd" fill="#2C395C" fill-rule="evenodd"/>
			<path d="m103.3-103.65c1.2-0.2 2.184-0.667 2.95-1.4-0.4-0.067-1.117-0.25-2.15-0.55-0.934-0.233-1.667-0.383-2.2-0.45 1.4-0.1 3.1-0.15 5.1-0.15 1.167 0 2.883 0.017 5.15 0.05-4.066-0.233-7.267-0.417-9.6-0.55-4.3-0.233-7.05-1.017-8.25-2.35 1.7-0.4 4.067-0.784 7.1-1.15 3.567-0.4 5.983-0.716 7.25-0.95-1 0.066-2.4-0.017-4.2-0.25-1.934-0.233-3.317-0.35-4.15-0.35 0.8-0.8 2.267-1.633 4.4-2.5 2.267-0.9 3.783-1.667 4.55-2.3-0.7 0-2.233 0.083-4.6 0.25-1.9 0.133-3.45 0.15-4.65 0.05 2.567-0.867 5.433-1.333 8.6-1.4-10.267 0-20.717 1.033-31.35 3.1 1.8 0.533 4.35 0.767 7.65 0.7 1.867-0.066 4.55-0.183 8.05-0.35-2.267 0.967-5.367 1.9-9.3 2.8-5.533 1.267-8.733 2.017-9.6 2.25 4.7-0.067 7.6-0.083 8.7-0.05 3.267 0.1 6.1 0.483 8.5 1.15-0.5 0.566-1.117 0.983-1.85 1.25 0.033 0 0.6 0.216 1.7 0.65-2.1 0.2-3.684 0.367-4.75 0.5-1.9 0.2-3.417 0.483-4.55 0.85 2.3 0.966 5.733 1.566 10.3 1.8 3.8 0.2 7.316 0.117 10.55-0.25-0.3-0.133-0.633-0.367-1-0.7-0.533-0.433-0.816-0.667-0.85-0.7l2.5 1z" clip-rule="evenodd" fill="#2C395C" fill-rule="evenodd"/>
			<path d="m94.3-93.15l-5.5-1c1.912 0.681 3.745 1.014 5.5 1 0.05 1e-3 0.1 1e-3 0.15 0 2.2-0.067 3.966-0.7 5.3-1.9-0.467-0.034-1.017-0.2-1.65-0.5-0.8-0.367-1.267-0.567-1.4-0.6 0.3-0.2 0.816-0.684 1.55-1.45-1 0.233-2.317 0.417-3.95 0.55-2.4 0.167-3.733 0.267-4 0.3 1.633-0.667 4.133-1.217 7.5-1.65 4.233-0.533 6.85-0.917 7.85-1.15-11.2-0.8-19.8-0.333-25.8 1.4l2.75-0.05c-0.8 0.333-1.983 0.684-3.55 1.05-1.867 0.433-3.083 0.733-3.65 0.9 0.967 0.067 2.45 0.1 4.45 0.1 2-0.033 3.483 0 4.45 0.1-1.6 0.667-3.85 1.233-6.75 1.7-4.367 0.7-6.75 1.1-7.15 1.2 2.2 0.033 6.317-0.434 12.35-1.4 5.467-0.633 9.317-0.167 11.55 1.4z" clip-rule="evenodd" fill="#2C395C" fill-rule="evenodd"/>
			<path d="m87.8-97.55c-2.566 0-5.066-0.35-7.5-1.05 0.633-1.233 2.034-2.283 4.2-3.15 1.233-0.5 3.017-1.15 5.35-1.95-3.7 0.2-6.667 0.35-8.9 0.45-4 0.167-7.217 0.167-9.65 0 0.733-0.7 1.95-1.417 3.65-2.15 0.933-0.4 2.316-0.983 4.15-1.75-0.033-0.067-0.167-0.133-0.4-0.2-0.2-0.066-0.333-0.15-0.4-0.25 1.267-0.967 3.217-1.883 5.85-2.75 2.934-0.933 4.934-1.717 6-2.35-2.867 0.267-5.083 0.467-6.65 0.6-2.867 0.233-4.933 0.1-6.2-0.4 3.233-1.267 5.383-2.283 6.45-3.05-1.867-0.2-4.117-0.167-6.75 0.1-2.967 0.333-5.167 0.567-6.6 0.7 0.767-0.467 1.783-0.967 3.05-1.5 0.733-0.3 1.8-0.733 3.2-1.3-4-0.434-8.717 0.25-14.15 2.05-5.367 1.767-9.65 4-12.85 6.7-2.3 1.933-3.617 3.9-3.95 5.9-0.367 2.233 0.816 3.65 3.55 4.25 4.133 0.9 6.283 1.45 6.45 1.65 0.5 0.533 0.216 2.617-0.85 6.25 2.267 1.367 4.55 2.267 6.85 2.7 2.7 0.533 5.066 0.333 7.1-0.6l0.5-1c2.467-0.667 6.1-1.517 10.9-2.55 4.933-1.066 8.55-1.9 10.85-2.5-7.833 0.133-13.35 0.117-16.55-0.05 1.133-0.367 3.417-0.767 6.85-1.2 2.933-0.333 5.083-0.867 6.45-1.6z" clip-rule="evenodd" fill="#2C395C" fill-rule="evenodd"/>
			<path d="m57.725-101.68c0.061 0.016 0.102 0.041 0.125 0.075 0.033 0.033 0.083 0.233 0.15 0.6-1.633 0.633-3.367 1.167-5.2 1.6-1.767 0.433-3.367 0.933-4.8 1.5-7.667 2.833-11.5 4.767-11.5 5.8 0 0.556-0.425 1.148-1.275 1.775 0.52-0.155 1.095-0.313 1.725-0.475 3.066-0.8 5.5-1.2 7.3-1.2 0.4 0 0.667 0.033 0.8 0.1 0.167 0.133 0.317 0.267 0.45 0.4-3.133 1.433-5.433 2.5-6.9 3.2-2.6 1.233-4.467 2.466-5.6 3.7-0.4 0.434-1.117 1.783-2.15 4.05-0.494 1.127-1.077 1.861-1.75 2.2l-0.025 0.025c-1.594 1.851-2.553 4.276-2.875 7.275-0.071 2.395-0.204 4.311-0.4 5.75-0.033-0.172-0.066-0.348-0.1-0.525 0.126 0.734 0.26 1.409 0.4 2.025 0.933 4.066 2.333 6.283 4.2 6.65l-0.5-1c0.167-4.333 1.95-7.934 5.35-10.8 0.533-0.433 2.117-1.6 4.75-3.5 2.067-1.5 3.684-2.867 4.85-4.1-0.867-0.067-2-0.034-3.4 0.1-1.667 0.2-2.817 0.3-3.45 0.3 2.8-1.133 4.4-2.45 4.8-3.95-1.067-0.1-1.85-0.15-2.35-0.15 0.066-2.367 3.217-4.867 9.45-7.5 5.245-2.229 9.62-3.521 13.125-3.875-0.9 0.115-1.975 0.406-3.225 0.875-1.5 0.567-2.633 0.983-3.4 1.25 1.833-0.133 4.867-0.883 9.1-2.25 3.658-1.199 6.566-1.833 8.725-1.9-3.773 0.035-6.632 0.068-8.575 0.1-3.6 0.033-6.6-0.034-9-0.2 0.267-0.1 1.817-0.683 4.65-1.75 1.867-0.7 3.35-1.383 4.45-2.05-1-0.167-2.3-0.167-3.9 0-2.1 0.2-3.417 0.3-3.95 0.3 0.7-0.8 2.184-1.767 4.45-2.9 2.367-1.2 3.983-2.217 4.85-3.05-1.667-0.033-3.5 0.15-5.5 0.55-1.403 0.26-2.695 0.59-3.875 0.97zm-6.575-8.4c0.579-0.452 1.146-0.911 1.7-1.375-0.767 0.3-1.783 0.867-3.05 1.7 0.364-0.07 0.814-0.18 1.35-0.32zm5.475 8.33c0.458-0.726 1.283-1.525 2.475-2.4 0.833-0.633 2.05-1.517 3.65-2.65-1.433-0.167-3.617 0.216-6.55 1.15-3.1 0.967-5.367 1.433-6.8 1.4 1.067-0.633 3.2-1.733 6.4-3.3 2.733-1.633 4.2-3.267 4.4-4.9-1.233 0.267-2.967 0.717-5.2 1.35-1.334 0.365-2.459 0.666-3.375 0.9 0.169-0.039 0.344-0.08 0.525-0.125-2.86 1.465-5.127 2.856-6.8 4.175-3.3 2.6-7.4 5.5-12.3 8.7-4.2 2.667-6.3 4.017-6.3 4.05 0 0.1 0.1 0.316 0.3 0.65 0.2 0.333 0.35 0.55 0.45 0.65h2.25c1.5-0.933 5.317-2.617 11.45-5.05 7.212-2.92 12.354-4.45 15.425-4.61zm-30.625 10.15l0.1 0.1c-0.067-0.167-0.1-0.45-0.1-0.85-0.867 0.1-1.367 0.267-1.5 0.5 0.833 0.067 1.333 0.15 1.5 0.25z" clip-rule="evenodd" fill="#202942" fill-rule="evenodd"/>
			<path d="m26-91.6c-0.167-0.1-0.667-0.183-1.5-0.25 0.133-0.233 0.633-0.4 1.5-0.5 0 0.4 0.033 0.684 0.1 0.85l-0.1-0.1zm30.625-10.15c-3.071 0.157-8.213 1.69-15.425 4.6-6.133 2.433-9.95 4.117-11.45 5.05h-2.25c-0.1-0.1-0.25-0.316-0.45-0.65-0.2-0.333-0.3-0.55-0.3-0.65 0-0.033 2.1-1.383 6.3-4.05 4.9-3.2 9-6.1 12.3-8.7 1.673-1.319 3.939-2.71 6.8-4.175-0.181 0.045-0.356 0.086-0.525 0.125l-0.475 0.125c-0.617 0.225-1.233 0.45-1.85 0.675-0.016 0.01-0.033 0.019-0.05 0.025-3.348 1.264-6.714 2.639-10.1 4.125-4.035 1.766-7.26 3.516-9.675 5.25s-4.307 3.101-5.675 4.1c-2.5 1.833-3.3 4.217-2.4 7.15 0.267 0.8 0.883 1.933 1.85 3.4 0.833 1.3 1.35 2.533 1.55 3.7 0.167 0.967 0.167 2.467 0 4.5-0.133 2-0.133 3.5 0 4.5 0.111 1.118 0.228 2.168 0.35 3.15l0.55 3.675c0.034 0.178 0.067 0.353 0.1 0.525 0.196-1.439 0.33-3.355 0.4-5.75 0.322-3 1.281-5.425 2.875-7.275l0.025-0.015c0.673-0.339 1.256-1.072 1.75-2.2 1.033-2.267 1.75-3.617 2.15-4.05 1.133-1.233 3-2.467 5.6-3.7 1.467-0.7 3.767-1.767 6.9-3.2-0.133-0.133-0.283-0.267-0.45-0.4-0.133-0.067-0.4-0.1-0.8-0.1-1.8 0-4.233 0.4-7.3 1.2-0.63 0.161-1.206 0.319-1.725 0.475 0.85-0.627 1.275-1.219 1.275-1.775 0-1.033 3.833-2.967 11.5-5.8 1.433-0.567 3.033-1.067 4.8-1.5 1.833-0.434 3.567-0.967 5.2-1.6-0.067-0.367-0.117-0.567-0.15-0.6-0.023-0.034-0.064-0.059-0.125-0.075-0.079 0.023-0.154 0.049-0.225 0.075l-0.7 0.225c-0.125 0.052-0.25 0.102-0.375 0.15-0.021 6e-3 -0.046 0.014-0.075 0.025 0.068-0.18 0.16-0.36 0.275-0.55z" clip-rule="evenodd" fill="#171E33" fill-rule="evenodd"/>
			<path d="m60.8-87.65c4.434-0.6 8.867-1.367 13.3-2.3 5.167-1.133 9.517-2.333 13.05-3.6-0.867-0.167-3.25-0.383-7.15-0.65-3.067-0.2-5.3-0.65-6.7-1.35 5.167-0.9 8.65-1.467 10.45-1.7-0.5-0.2-1.817-0.417-3.95-0.65-1.767-0.2-2.966-0.617-3.6-1.25 1.233-1.067 3.283-1.983 6.15-2.75 4.433-1.167 6.683-1.767 6.75-1.8-0.6 0-3.667 0.15-9.2 0.45-3.733 0.2-6.767 0.2-9.1 0 0.1-0.1 0.583-0.45 1.45-1.05-0.033-0.067-0.233-0.184-0.6-0.35-0.333-0.167-0.483-0.333-0.45-0.5 1.2-1.6 3.466-2.717 6.8-3.35 4.533-0.9 7.083-1.467 7.65-1.7-5.9 0-11.767 0.767-17.6 2.3-5.833 1.566-11.267 3.783-16.3 6.65 4.567 0.3 9.867 0.033 15.9-0.8-1.733 0.6-3.183 1.367-4.35 2.3 1 0.067 2.483 0.1 4.45 0.1 2 0 3.483 0.033 4.45 0.1-0.733 0.667-4.217 2.117-10.45 4.35-5.367 1.9-8.167 3.717-8.4 5.45 2.6 0.233 6.066 0 10.4-0.7-1.367 0.6-2.333 1.05-2.9 1.35-1.1 0.6-1.967 1.233-2.6 1.9 1.133-0.1 2.317-0.417 3.55-0.95l-1 0.5z" clip-rule="evenodd" fill="#202942" fill-rule="evenodd"/>
				<path d="m51.85-109.68c-0.103 1.42 1.38 2.095 4.45 2.025l-1.85-0.925c0.878 0.284 4.578-0.308 11.1-1.775 7.934-1.733 12.5-2.633 13.7-2.7-1.1 0.867-1.917 1.433-2.45 1.7 0.867-0.267 4.567-1.066 11.1-2.4 4.567-0.933 8.133-2.083 10.7-3.45-4.167 0.3-7.4 0.483-9.7 0.55-4.2 0.167-7.267-0.167-9.2-1 0.515-0.432 1.198-0.824 2.05-1.175-2.273 0.299-3.523 0.458-3.75 0.475-5.167 0.434-9.167 1.017-12 1.75-3.417 0.83-7.875 2.563-13.375 5.2-0.47 0.55-0.729 1.13-0.775 1.73z" clip-rule="evenodd" fill="#202942" fill-rule="evenodd"/>
					<path d="m171.8-82.4c-0.446-0.028-0.904-0.053-1.375-0.075 0.361 0.01 0.753 1e-3 1.175-0.025 0.07 0.033 0.13 0.067 0.2 0.1zm-3.25-1.3c-0.233 0.434-0.35 0.817-0.35 1.15-0.1-0.633 0.02-1.017 0.35-1.15zm32.1 22.1c0.462 0.893 0.813 1.651 1.05 2.275 0.308-1.018 0.358-2.393 0.15-4.125-0.033-0.333-0.067-0.716-0.1-1.15 0.3-3.733 0.533-7.417 0.7-11.05 0.4-8.733 0.133-14.217-0.8-16.45-1.1-2.7-2.35-4.967-3.75-6.8-2.066-3.333-4.633-5.267-7.7-5.8-2.267-1.1-5.034-2.283-8.3-3.55-4.933-1.9-12.617-3.783-23.05-5.65-11.367-1.833-19.017-3.117-22.95-3.85-1.801-0.333-8.451-1.2-19.95-2.6-11.499-1.401-21.173-1.576-29.025-0.525s-13.235 1.834-16.15 2.35c-2.916 0.516-5.308 1.141-7.175 1.875-4.3 1.7-8.533 3.85-12.7 6.45-2.033 0.467-3.983 1.5-5.85 3.1-2.5 0.767-5.066 1.883-7.7 3.35-1.833 0.667-2.9 1.067-3.2 1.2-3.333 1.433-5.816 3.216-7.45 5.35-1.233 0.567-2.2 1.1-2.9 1.6-2.5 1.833-3.3 4.217-2.4 7.15 0.267 0.8 0.883 1.934 1.85 3.4 0.433 0.7 0.783 1.367 1.05 2 0.1 1.767 0.284 3.667 0.55 5.7-0.033 0.167-0.05 0.333-0.05 0.5-0.133 2-0.133 3.5 0 4.5 0.367 3.7 0.8 6.65 1.3 8.85 0.6 2.667 1.417 4.533 2.45 5.6 0.833 3.3 1.767 6.5 2.8 9.6 0.833-1.333 1.417-2.967 1.75-4.9 0.2-1.1 0.5-2.867 0.9-5.3 0.466-1.969 0.925-4.761 1.375-8.375 0.451-3.608 1.117-4.934 2-3.975 0.882 0.956 2.974 0.406 6.275-1.65-1.167 1.833-1.4 2.217-0.7 1.15 0.7-1.167 1.333-1.983 1.9-2.45 0.333-0.3 1.033-1 2.1-2.1 0.871-0.83 1.854-1.755 2.95-2.775 1.088-1.026 3.629-2.051 7.625-3.075s6.829-0.999 8.5 0.075c1.679 1.08 4.871 0.072 9.575-3.025-0.133-0.066-0.35-0.1-0.65-0.1 0.733-0.967 1.9-1.8 3.5-2.5 0.7-0.3 2.117-0.784 4.25-1.45 1.8-0.6 3.2-0.7 4.2-0.3 0.367 0.133 1.017 0.7 1.95 1.7 0.87 0.899 1.187 1.058 0.95 0.475-0.243-0.581-0.093-1.356 0.45-2.325 0.546-0.97 2.513-2.07 5.9-3.3 0.9 0.2 2.35 0.283 4.35 0.25 0.733 0 1.367 0.117 1.9 0.35 0.3 0.167 0.833 0.45 1.6 0.85 0.167 0.066 0.467 0.25 0.9 0.55 0.267 0.2 0.6 0.283 1 0.25 0.333-0.033 0.833-0.283 1.5-0.75 0.833-0.6 1.333-0.933 1.5-1 0.067 0.667 0.083 1.15 0.05 1.45 1.4-1.2 2.733-2.017 4-2.45 0.731-0.23 2.615-0.43 5.65-0.6 3.038-0.177 5.322 0.015 6.85 0.575 1.526 0.563 3.66 0.955 6.4 1.175 1.967 0.1 4.767 0.7 8.4 1.8 4.3 1.267 5.533 1.966 3.7 2.1-1.833 0.133 0.033 0.934 5.6 2.4 5.534 1.466 10.434 2.75 14.7 3.85 3.633 0.967 7.067 1.267 10.3 0.9 1.654-0.217 3.654 0.149 6 1.1 2.347 0.951 4.03 2.167 5.05 3.65 0.267 0.267 0.6 0.583 1 0.95 0.433 0.367 0.833 0.633 1.2 0.8 0.333-0.161 1.1 0.38 2.3 1.625 0.698 0.723 1.614 1.548 2.75 2.475 1.333 0.733 2.267 1.3 2.8 1.7 0.6 0.5 1.184 1.1 1.75 1.8 0.333 0.4 0.783 0.983 1.35 1.75 0.47 0.677 1.1 1.793 1.9 3.36z" clip-rule="evenodd" fill-opacity=".051" fill-rule="evenodd"/>
			<path d="m197.3-71.65h-1c0.5 0.733 1.284 1.367 2.35 1.9 2.233-2.867 3.267-6.55 3.1-11.05-0.133-4.061-1.133-7.786-3-11.175-0.132 0.067-0.933 0.359-2.4 0.875 0.233 0.4 0.4 1.05 0.5 1.95 0.133 1 0.25 1.65 0.35 1.95-1.067-0.333-3.034-1.083-5.9-2.25-2.466-1-4.466-1.667-6-2 1 1.434 2.583 2.934 4.75 4.5 0.833 0.6 2.7 1.833 5.6 3.7-2.133-0.433-3.583-0.8-4.35-1.1 0.867 0.8 2.167 2.017 3.9 3.65 1.466 1.434 2.65 2.717 3.55 3.85-2.933-1.533-4.617-2.383-5.05-2.55-2.133-0.934-3.934-1.317-5.4-1.15 0.3 0.333 2.083 1.85 5.35 4.55 2.4 2.033 3.62 3.483 3.65 4.35z" clip-rule="evenodd" fill="#2C395C" fill-rule="evenodd"/>
			<path d="m201.15-58.65c0.763-1.764 1.138-5.505 1.125-11.225-5e-3 -5.724 0.104-9.566 0.325-11.525 0.22-1.958 0.087-4.416-0.4-7.375-0.484-2.962-1.318-4.238-2.5-3.825 0 0.067-0.083 3.733-0.25 11-0.133 5.467-0.883 8.3-2.25 8.5 0.167 1.3 0.283 2.283 0.35 2.95 0.1 1.167 0.1 2.15 0 2.95-2.233-1.533-4.034-2.633-5.4-3.3 0.767 1.933 2.034 4.2 3.8 6.8 1.533 2.233 3.1 4.25 4.7 6.05l0.5-1z" clip-rule="evenodd" fill="#202942" fill-rule="evenodd"/>
			<path d="m193.8-72.65l-1.5 1c2.867 1.167 4.5-1.717 4.9-8.65 0.233-3.6 0.267-7.983 0.1-13.15-0.267-0.1-0.733-0.167-1.4-0.2-0.7-0.033-1.233-0.017-1.6 0.05 0.4 1.1 1.333 2.733 2.8 4.9-1.934-0.466-4.717-1.767-8.35-3.9-3.767-2.2-6.667-3.566-8.7-4.1 1.467 1.567 3.6 3.217 6.4 4.95 3.933 2.4 6.25 3.867 6.95 4.4l-1.6-0.2c0.367 0.333 0.817 0.917 1.35 1.75 0.567 0.933 0.917 1.466 1.05 1.6-1.4-0.333-3.667-0.983-6.8-1.95-2.967-0.934-5.25-1.583-6.85-1.95 0.633 0.767 2.684 2.117 6.15 4.05 2.767 1.566 4.267 3.183 4.5 4.85-1.9-0.733-3.267-1.216-4.1-1.45-1.6-0.434-3.033-0.567-4.3-0.4 1.034 1.566 2.767 3.333 5.2 5.3 2.63 2.1 4.57 3.133 5.8 3.1z" clip-rule="evenodd" fill="#2C395C" fill-rule="evenodd"/>
			<path d="m182.8-92.65l-0.975-0.475c0.386 0.167 1.361-0.091 2.925-0.775 1.933-0.8 3.267-1.25 4-1.35-2.033-1.433-5.417-2.383-10.15-2.85-4.3-0.467-7.867-0.417-10.7 0.15 1.267 1.367 3.583 2.517 6.95 3.45 1.88 0.533 4.53 1.15 7.96 1.85z" clip-rule="evenodd" fill="#33426B" fill-rule="evenodd"/>
			<path d="m149.05-43.65c-0.667-0.267-1.583-0.95-2.75-2.05-1.1-1.066-2.017-1.716-2.75-1.95-0.167 1.133-0.267 1.75-0.3 1.85-0.033 0.7 0.117 1.267 0.45 1.7 0.267 0.367 0.816 0.684 1.65 0.95 0.767 0.233 1.167 0.483 1.2 0.75l2.5-1.25z" clip-rule="evenodd" fill="#2C385C" fill-rule="evenodd"/>
			<path d="m139.55-59.4l-0.5 0.25c0.367-1.7-0.1-2.517-1.4-2.45-1.633 0.467-2.75 0.783-3.35 0.95-1.867 0.433-4.283 0.683-7.25 0.75-3.333 0-5.75 0.017-7.25 0.05 1.934 0.833 5.4 1.417 10.4 1.75 5.5 0.333 8.62-0.1 9.35-1.3z" clip-rule="evenodd" fill="#2C385C" fill-rule="evenodd"/>
			<path d="m105.05-55.15l-0.25-0.25c-1.033-0.567-1.017-1.267 0.05-2.1 0.566-0.433 1.383-0.983 2.45-1.65-2.2-1.367-4.883-2.483-8.05-3.35-3.333-0.9-6.233-1.267-8.7-1.1 0.267 0.934 1.467 1.717 3.6 2.35 2.967 0.9 4.483 1.367 4.55 1.4 1.533 0.833 1.933 1.5 1.2 2-1.333 0.6-2.3 1.167-2.9 1.7 0.667 0.867 1.917 1.316 3.75 1.35 0.2 0 1.63-0.117 4.3-0.35z" clip-rule="evenodd" fill="#3E4F80" fill-rule="evenodd"/>
						<radialGradient id="l" cx="121.05" cy="-55.75" r="72.9" gradientTransform="matrix(1 0 0 .464 0 -29.883)" gradientUnits="userSpaceOnUse">
						<stop stop-opacity=".6" offset="0"/>
						<stop stop-opacity=".251" offset=".302"/>
						<stop stop-opacity="0" offset="1"/>
					</radialGradient>
					<path d="m180-80.025c-6.808-0.999-18.475-3.257-35-6.775-16.521-3.513-34.671-4.263-54.45-2.25l-6.65-0.025c-6.058 1.691-11.724 3.849-17 6.475-14.933 7.367-22.4 16.317-22.4 26.85 0 10.5 7.467 19.467 22.4 26.9 14.934 7.4 32.983 11.1 54.15 11.1s39.217-3.7 54.15-11.1c14.933-7.433 22.4-16.4 22.4-26.9 0-9.337-5.87-17.429-17.6-24.275z" clip-rule="evenodd" fill="url(#l)" fill-rule="evenodd"/>
					<radialGradient id="m" cx="133.25" cy="-53.5" r="108.5" gradientTransform="matrix(1 0 0 .5187 0 -25.752)" gradientUnits="userSpaceOnUse">
					<stop stop-opacity="0" offset=".5098"/>
					<stop stop-opacity=".5686" offset="1"/>
				</radialGradient>
				<path d="m187.9-28.85c1.817-1.042 3.409-2.141 4.775-3.3 1.288-0.788 2.263-1.455 2.925-2 1.057-0.881 1.924-2.856 2.6-5.925 0.976-3.059 1.876-8.493 2.7-16.3l0.225-2.125c0.796-1 1.038-2.75 0.725-5.25-0.028-0.264-0.062-0.539-0.1-0.825 0.057 0.958-0.019 1.674-0.225 2.15-0.017 0.221-0.025 0.396-0.025 0.525-0.067 1.033-0.217 1.767-0.45 2.2-0.367 0.367-0.833 0.617-1.4 0.75-0.667 0.167-1.05-0.033-1.15-0.6-0.033-0.1-0.317-0.75-0.85-1.95-0.533-1.233-0.8-1.967-0.8-2.2l0.025-0.2c-1.253-1.143-2.753-2.726-4.5-4.75-1.879-2.178-3.971-4.645-6.275-7.4-1.127 0.086-2.286-0.239-3.475-0.975-1.19-0.729-2.34-1.263-3.45-1.6-1.104-0.335-2.045-0.71-2.825-1.125-0.777-0.406-3.644-1.806-8.6-4.2-4.961-2.401-8.395-4.042-10.3-4.925-1.903-0.875 1.531-0.434 10.3 1.325-0.556-0.297-1.114-0.589-1.675-0.875-10.995-5.606-25.604-8.381-43.825-8.325h-8.24l-20.85 3.65c-9.359-0.817-23.059 3.083-41.1 11.7l-13.95 9.05c-3.704 2.954-6.246 6.129-7.625 9.525-1.068 2.625-1.626 4.467-1.675 5.525-0.051-0.137-0.092-0.262-0.125-0.375 0.03 0.138 0.063 0.271 0.1 0.4l1.325 4.85c2.476 8.614 5.109 14.556 7.9 17.825 3.767 4.467 8.917 8.567 15.45 12.3 0.183 0.118 1.167 0.634 2.95 1.55 1.491 1.052 3.125 2.085 4.9 3.1 3.376 1.895 6.56 3.294 9.55 4.2 6.845 3.408 12.595 5.958 17.25 7.65 6.133 2.233 12.433 3.816 18.9 4.75 1.744 0.248 3.485 0.448 5.225 0.6 0.949 0.333 2.232 0.425 3.85 0.275 3.542 0.196 7.083 0.205 10.625 0.025 2.384-0.125 4.667-0.326 6.85-0.6 1.152-0.148 2.277-0.315 3.375-0.5 1.766-0.314 3.458-0.681 5.075-1.1 5.767-1.5 11.5-4 17.2-7.5 3.875-2.384 8.466-5.718 13.775-10 0.06 3e-3 0.119 3e-3 0.175 0l-0.075-0.075c0.598-0.476 1.207-0.968 1.825-1.475 2.33-1.9 6.67-4.383 13-7.45zm-75.3 28.425c0.023 2e-3 0.049 2e-3 0.075 0l-0.03 0.025-0.05-0.025z" clip-rule="evenodd" fill="url(#m)" fill-rule="evenodd"/>
			<g clip-rule="evenodd" fill-rule="evenodd">
				<path d="m158.15-103.35c0.533-0.322 1.533-0.356 3-0.1 1.613 0.287 2.43 0.412 2.45 0.375-1.744-0.582-3.161-0.99-4.25-1.225-0.97-0.211-2.37-0.695-4.2-1.45h-0.025c-0.131-0.056-0.264-0.114-0.4-0.175l-1.275-0.55c-1.698-0.744-3.681-1.669-5.95-2.775-10.586 0.761-15.687 1.011-15.3 0.75-0.729 0.172-1.588 0.397-2.575 0.675-1.685 0.474-3.81 0.649-6.375 0.525v0.05c0.092 0.092 0.433 0.158 1.025 0.2 0.021 0.096 0.045 0.196 0.075 0.3 0.733 0 1.95-0.033 3.65-0.1 1.486-0.043 2.603-0.093 3.35-0.15h0.675c5.723-0.833 9.665-1.25 11.825-1.25 1.267 0 2.083 0.083 2.45 0.25 0.145 0.064 0.253 0.165 0.325 0.3 0.186-0.033 0.394-0.05 0.625-0.05 1.6 0 4.35 1.158 8.25 3.475-0.302-0.093-0.61-0.185-0.925-0.275 0.383 0.118 0.758 0.235 1.125 0.35 0.19 0.07 1.01 0.35 2.47 0.86zm0.2 3.375c-0.626-0.266-1.16-0.491-1.6-0.675-2.417-1.027-6.067-1.902-10.95-2.625-0.502-0.078-1.019-0.153-1.55-0.225h-9.25c-8.433-1.3-12.683-1.983-12.75-2.05-0.1-0.133-0.483-0.2-1.15-0.2-1.633 0-4.35 0.217-8.15 0.65-4.133 0.5-7.034 0.783-8.7 0.85-0.667 0.133-1 0.5-1 1.1 0 0.333 0.333 0.633 1 0.9h9c1.036-0.096 1.878-0.488 2.525-1.175 0.642-0.695 2.225-0.878 4.75-0.55s3.858 0.386 4 0.175c0.147-0.204 0.072-0.371-0.225-0.5-0.633-0.233 2.934 0.033 10.7 0.8-0.767 0.133-1.283 0.267-1.55 0.4-0.2 0.167-3.184 0.483-8.95 0.95 5.5 0 10.691 0.017 15.575 0.05 1.771 0.012 3.587 0.212 5.45 0.6h1.725c4.533 0.333 7.617 0.867 9.25 1.6 0.72 0.36 1.729 0.918 3.025 1.675 0.5 0.1 1.925 0.508 4.275 1.225 2.7 0.833 4.6 1.25 5.7 1.25 0.349 0 2.54-0.125 6.575-0.375 0.527-0.03 1.085-0.063 1.675-0.1-1.368-0.449-3.143-1.083-5.325-1.9-0.084-0.032-0.168-0.065-0.25-0.1-2.674-0.994-4.857-1.786-6.55-2.375-1.726-0.594-2.942-0.977-3.65-1.15 0.563 0.391 1.639 0.774 3.225 1.15 0.26 0.34 0.443 0.657 0.55 0.95v1.3l-3.8-0.125c-1.47-0.597-2.66-1.097-3.64-1.5zm16.03 7.975c-0.462-0.279-0.92-0.563-1.375-0.85l-1.85-0.25-6.15-0.15c-0.189 0.024-0.38 0.041-0.575 0.05 0.89 0.471 1.582 0.838 2.075 1.1v0.1h7.88zm-8.2-10.55c0.24 0.117 2.282 0.133 6.125 0.05 3.849-0.088 6.99 0.545 9.425 1.9 2.426 1.361 4.385 2.386 5.875 3.075l6.8 1.875c-8.198-4.683-13.814-7.799-16.85-9.35-5.7-2.933-13.583-4.767-23.65-5.5-0.1-0.033-0.15 0.15-0.15 0.55s1.533 1.417 4.6 3.05c4.11 2.18 6.71 3.63 7.83 4.35zm-22.4 3.125c-5.781-0.719-9.373-1.077-10.775-1.075-12.333 0.333-18.5 1.117-18.5 2.35-3e-3 0.867 1.63 0.992 4.9 0.375 3.277-0.615 5.802-0.999 7.575-1.15 1.77-0.154 6.703-0.063 14.8 0.275 6.614 0.277 8.439 0.177 5.475-0.3h-0.05c-0.127-0.021-0.26-0.046-0.4-0.075l-1.525-0.2c-0.034-0.012-0.067-0.021-0.1-0.025-0.1-4e-3 -0.2-0.013-0.3-0.025-0.058-9e-3 -0.116-0.018-0.175-0.025-0.05-0.01-0.1-0.019-0.15-0.025-0.26-0.033-0.52-0.067-0.77-0.1zm-8.1-16.075h-1.925c-1.733 0.233-3.083 0.533-4.05 0.9-0.667 0.233-1.534 0.35-2.6 0.35-0.4 0-3.517-0.333-9.35-1h-4.76c-0.667 0.133-1 0.5-1 1.1 0 1.1 2.567 1.65 7.7 1.65 4.267 0 8.783-0.3 13.55-0.9l5.825 0.025c-2.55-0.56-3.68-1.26-3.4-2.12zm8.57 2.88c-0.4-0.027-0.85-0.068-1.35-0.125 0.259 0.079 0.542 0.162 0.85 0.25 0.19-0.01 0.35-0.05 0.5-0.13z" fill="#2B385B"/>
				<path d="m174.38-92h0.175c0.282 0.231 0.616 0.464 1 0.7 1.1 0.7 2 1.05 2.7 1.05 0.873 0 2.248 0.442 4.125 1.325 0.219 0.106 0.444 0.214 0.675 0.325 1.188 0.563 2.129 1.039 2.825 1.425 0.024 0.019 0.049 0.035 0.075 0.05 0.164 0.099 0.314 0.19 0.45 0.275-0.182-0.09-0.365-0.182-0.55-0.275 0.298 0.169 0.606 0.344 0.925 0.525 0.044 0.037 0.086 0.07 0.125 0.1 1.133 0.867 2.067 1.483 2.8 1.85 0.827 0.441 3.477 5.841 7.95 16.2 2.374-4.84 2.649-9.007 0.825-12.5-0.147-0.268-0.306-0.535-0.475-0.8 0.234-0.042 0.425-0.126 0.575-0.25 0.089-0.07 0.165-0.153 0.225-0.25 0.047-0.094 0.098-0.203 0.15-0.325 2.046 0.276 2.271-0.524 0.675-2.4-1.396-1.635-2.855-2.844-4.375-3.625v-0.15c0-1.867-1.95-3.417-5.85-4.65-0.058-0.019-0.116-0.035-0.175-0.05-1.25-0.399-2.358-0.757-3.325-1.075 0.034 9e-3 0.067 0.018 0.1 0.025-2.99-0.971-4.648-1.554-4.975-1.75h-0.675c0.162-0.027 0.328-0.052 0.5-0.075 0.04-0.01 0.081-0.018 0.125-0.025 1.552-0.268 3.36-0.601 5.425-1l8 1.7-6.8-1.875c-1.49-0.689-3.449-1.714-5.875-3.075-2.435-1.355-5.577-1.988-9.425-1.9-3.843 0.083-5.885 0.067-6.125-0.05 0.026 0.017 0.051 0.034 0.075 0.05l0.35 0.15-0.775 0.05c-0.793-0.286-1.535-0.544-2.225-0.775-0.021 0.037-0.837-0.088-2.45-0.375-1.467-0.256-2.467-0.222-3 0.1 0.892 0.306 2.025 0.698 3.4 1.175 0.071 0.144 0.213 0.286 0.425 0.425 0.708 0.173 1.924 0.556 3.65 1.15-0.25-0.171-0.375-0.321-0.375-0.45v-0.65c0.167-0.367 0.617-0.55 1.35-0.55 1.267 0 3.833 1.067 7.7 3.2 2 1.1 4.267 2.367 6.8 3.8 2.239 0.995 4.239 1.911 6 2.75-0.395-0.366-0.895-0.766-1.5-1.2-0.174-0.125-0.349-0.241-0.525-0.35-0.204-0.058-0.412-0.116-0.625-0.175 1.893 0.472 3.643 1.147 5.25 2.025 1.595 0.863 2.979 1.863 4.15 3-1.582-0.56-3.323-0.802-5.225-0.725-0.274-0.195-0.558-0.404-0.85-0.625-2.683-2.031-4.883-3.082-6.6-3.15s-2.958-0.485-3.725-1.25c-0.418-0.418-0.877-0.81-1.375-1.175-4.035 0.25-6.227 0.375-6.575 0.375-1.1 0-3-0.417-5.7-1.25-2.35-0.717-3.775-1.125-4.275-1.225-1.296-0.756-2.305-1.315-3.025-1.675-1.633-0.733-4.717-1.267-9.25-1.6h-1.725c0.102 0.021 0.201 0.046 0.3 0.075l1.475 0.475c0.06-0.019 0.126-0.035 0.2-0.05h4c0.9 0.167 2.9 1.283 6 3.35 1.565 1.048 2.765 1.957 3.6 2.725 0.303 0.154 0.595 0.304 0.875 0.45 0.937 0.489 1.753 0.914 2.45 1.275 0.195-9e-3 0.386-0.026 0.575-0.05l6.15 0.15 1.85 0.25c0.46 0.297 0.91 0.581 1.38 0.86zm-21.43-12.98l1.25 0.325 0.375 0.1c0.314 0.09 0.623 0.182 0.925 0.275-3.9-2.317-6.65-3.475-8.25-3.475-0.231 0-0.439 0.017-0.625 0.05-0.072-0.135-0.18-0.235-0.325-0.3-0.367-0.167-1.183-0.25-2.45-0.25-2.16 0-6.102 0.417-11.825 1.25h0.725c0.081-0.01 0.198-0.043 0.35-0.1h11c0.067 0.014 0.134 0.03 0.2 0.05l1.475 0.3c0.151 0.032 0.301 0.065 0.45 0.1 0.241 0.052 0.483 0.102 0.725 0.15 0.14 0.031 0.281 0.064 0.425 0.1l5.59 1.43zm41.3 21.055c-2e-3 0.038 0.473 0.396 1.425 1.075-0.564-0.185-1.173-0.401-1.825-0.65 0.053 1e-3 0.104 1e-3 0.15 0 0-0.033 0.05-0.05 0.15-0.05 0.05-0.031 0.08-0.156 0.09-0.375zm-7.43-3.825c-0.231-0.128-0.457-0.253-0.675-0.375 0.427 0.16 0.71 0.285 0.85 0.375 0.237 0.156 0.462 0.306 0.675 0.45-0.199-0.106-0.399-0.214-0.6-0.325-0.07-0.038-0.15-0.08-0.24-0.125zm7.93-0.5c-0.177-0.204-0.36-0.404-0.55-0.6 0.324 0.197 0.616 0.38 0.875 0.55-0.13 2e-3 -0.24 0.019-0.33 0.05zm-50.5-24.37c0.112-0.067 0.212-0.158 0.3-0.275 0.133-0.2 0.2-0.367 0.2-0.5 0-0.467-0.35-0.883-1.05-1.25-0.667-0.4-1.567-0.684-2.7-0.85h-5.325c-0.278 0.855 0.855 1.564 3.4 2.125 0.014 0.013 0.031 0.021 0.05 0.025h1.87l0.025 0.025 0.875 0.275c0.261 0.089 0.578 0.189 0.95 0.3h0.05c0.5 0.07 0.95 0.11 1.35 0.14z" fill="#25304E"/>
				<path d="m161.1-94.925c-0.835-0.769-2.035-1.677-3.6-2.725-3.1-2.067-5.1-3.184-6-3.35h-4c-0.074 0.015-0.141 0.031-0.2 0.05l5.35 1.75c0.063 0.027 0.121 0.052 0.175 0.075 0.975 0.435 1.958 0.91 2.95 1.425 2.05 1.062 3.83 1.988 5.33 2.775zm27.52 5c-0.25-0.307-0.375-0.598-0.375-0.875 0-0.438-0.383-1.005-1.15-1.7-1.761-0.839-3.761-1.755-6-2.75-2.533-1.433-4.8-2.7-6.8-3.8-3.867-2.133-6.433-3.2-7.7-3.2-0.733 0-1.184 0.183-1.35 0.55v0.65c0 0.129 0.125 0.279 0.375 0.45 1.692 0.589 3.876 1.381 6.55 2.375 0.082 0.035 0.166 0.068 0.25 0.1 2.183 0.817 3.958 1.451 5.325 1.9-0.59 0.037-1.148 0.07-1.675 0.1 0.498 0.365 0.957 0.757 1.375 1.175 0.766 0.765 2.008 1.182 3.725 1.25 1.717 0.069 3.917 1.119 6.6 3.15 0.31 0.221 0.59 0.43 0.86 0.625zm-9.62-4.725v0.05c-0.19-0.076-0.39-0.151-0.6-0.225h-0.025c-0.107-0.041-0.215-0.082-0.325-0.125l-0.35-0.1 0.85 0.025c0.16 6e-3 0.318 0.014 0.475 0.025-0.03 0.098-0.04 0.215-0.04 0.35zm15.75 6.4c0.094-0.031 0.202-0.048 0.325-0.05-0.259-0.17-0.551-0.354-0.875-0.55 0.19 0.196 0.37 0.396 0.55 0.6z" fill="#1B2238"/>
				<path d="m158.35-99.975c0.907 0.1 1.798 0.167 2.675 0.2-1.653-2.159-3.211-3.534-4.675-4.125-0.658-0.275-1.375-0.525-2.15-0.75l-1.25-0.325c-1.54-0.352-3.273-0.61-5.2-0.775 1.583 1.25-1.083 1.25-8 0-3.333 1.2-4.833 1.867-4.5 2l9.75 0.1c0.253 0.125 0.52 0.25 0.8 0.375 4.883 0.723 8.534 1.598 10.95 2.625 0.45 0.19 0.98 0.42 1.61 0.685zm-4.9-6.505l1.275 0.55c0.136 0.061 0.269 0.119 0.4 0.175h0.225c0.233 0 0.35-0.083 0.35-0.25s0.1-0.25 0.3-0.25c0.367 0 0.783 0.183 1.25 0.55 0.533 0.4 1.033 0.633 1.5 0.7 0-0.033 0.05-0.05 0.15-0.05 0.067-0.034 0.1-0.184 0.1-0.45-2.167-1.367-3.5-2.117-4-2.25h-1.85c-0.1-0.033-0.15 0.15-0.15 0.55 0.01 0.24 0.16 0.48 0.46 0.73zm-9.67 7.055c0.254 0.033 0.513 0.067 0.775 0.1 0.05 6e-3 0.1 0.015 0.15 0.025 0.059 7e-3 0.117 0.016 0.175 0.025 0.1 0.012 0.2 0.021 0.3 0.025 0.033 4e-3 0.066 0.013 0.1 0.025l1.525 0.2c0.14 0.029 0.273 0.054 0.4 0.075h0.05c2.228 0.068 3.528 0.218 3.9 0.45 0.067 0.033 0.117 0.15 0.15 0.35 2e-3 0.103 0.353 0.203 1.05 0.3 0.649 0.085 2.857 0.868 6.625 2.35-0.612-0.632-2.187-1.532-4.725-2.7-3.4-1.533-5.9-2.3-7.5-2.3-1.467 0-2.4 0.133-2.8 0.4-0.133 0.067-0.2 0.217-0.2 0.45-0.01 0.073 0 0.149 0.02 0.225zm3.12-5.025c-0.767-0.1-1.4-0.167-1.9-0.2l3.35 0.05 0.3 0.1c-0.53 0.1-1.12 0.12-1.75 0.05z" fill="#3E4F80"/>
			</g>
</symbol>
<symbol id="o" viewBox="0 -27.8 27.964 27.675">
		<path d="m21.55-14.7c1.1-1.5 2-2.767 2.7-3.8 0.8-1.2 1.65-2.783 2.55-4.75 1.067-2.433 1.4-3.95 1-4.55-0.367 0.733-0.95 1.667-1.75 2.8-0.9 1.333-1.5 2.25-1.8 2.75-0.667 1.467-1.183 2.367-1.55 2.7-0.534 0.5-1.65 0.6-3.35 0.3 0.3 0.1 0.65 0.283 1.05 0.55 0.2 0.167 0.483 0.383 0.85 0.65-0.333 0.1-0.55 0.183-0.65 0.25 0.367 0.3 0.6 0.566 0.7 0.8-0.5 0.5-1.2 1.083-2.1 1.75-0.967 0.7-1.7 1.283-2.2 1.75-2.267 2.267-3.767 3.683-4.5 4.25-1.567 1.233-3.55 2.45-5.95 3.65-2.867 1.433-5.05 2.133-6.55 2.1 0 0.3 0.55 0.667 1.65 1.1 1.1 0.467 1.633 0.85 1.6 1.15 0.036 0.106 0.186 0.231 0.45 0.375-0.097 0.133-0.163 0.258-0.2 0.375l2.125 0.375c-0.245-0.068-0.553-0.176-0.925-0.325-0.42-0.156-0.754-0.297-1-0.425 0.378-0.466 1.178-1.025 2.4-1.675 2.133-1.067 3.35-1.717 3.65-1.95 0.833-0.6 2.417-1.583 4.75-2.95 2.1-1.333 3.517-2.517 4.25-3.55 0.267-0.367 1.2-1.6 2.8-3.7z" clip-rule="evenodd" fill="#4A5F99" fill-rule="evenodd"/>
</symbol>
<symbol id="p" viewBox="-0.008 -95.715 169.311 95.697">
		<path d="m168.7-45.15c0.433-3.267 0.633-5.7 0.6-7.3-0.033-2.733-0.566-4.966-1.6-6.7-2.7-5.3-4.684-8.95-5.95-10.95-2.033-3.267-4.883-5.95-8.55-8.05-3.167-1.833-8.467-3.5-15.9-5-9.466-1.934-15-3.15-16.6-3.65-6.867-2.733-11.967-4.733-15.3-6-5.867-2.233-11.1-3.184-15.7-2.85-7.034 0.367-12.383 0.667-16.05 0.9-6.5 0.4-12.167 1-17 1.8-13.6 2.233-26.75 7-39.45 14.3-3.633 2.1-6.383 4.133-8.25 6.1-1.167 1.233-3.25 4.033-6.25 8.4-1.9 2.733-2.8 5.367-2.7 7.9 0.1 2.333 1.167 6.7 3.2 13.1 1.633 5.066 4.433 9.066 8.4 12 4.3 2.5 7.167 4.5 8.6 6 2.7 2.8 6.267 5.467 10.7 8 4.633 2.6 8.9 4.267 12.8 5 2.533 0.467 7.283 2.25 14.25 5.35 6.466 2.833 11.216 4.383 14.25 4.65 5.633 0.467 11.833 1.15 18.6 2.05 5.333 0.333 11.633-0.35 18.9-2.05 4.367-1.033 7.95-2.1 10.75-3.2 3.667-1.433 6.75-3.2 9.25-5.3 1.2-1.033 3.033-2.35 5.5-3.95 2.367-1.566 4.2-2.917 5.5-4.05 3.1-2.733 7.5-5.55 13.2-8.45 5.833-2.967 9.6-5.15 11.3-6.55 1.6-1.333 2.77-5.167 3.5-11.5z" clip-rule="evenodd" fill="#F7F7F7" fill-rule="evenodd"/>
</symbol>
<symbol id="q" viewBox="-0.025 -34.66 189.088 34.59">
		<path d="m169.25-1c5.833 0.533 9.467 0.683 10.9 0.45 1.067-0.167 3.167-1.133 6.3-2.9 2.8-1.533 3.35-3.8 1.65-6.8-1.5-2.667-4.283-5.283-8.35-7.85-3.6-2.3-9.6-4.683-18-7.15-8.233-2.433-14.9-3.833-20-4.2-11.633-0.767-30.867-2.433-57.7-5-7.7-0.733-18.583 0.45-32.65 3.55-10.833 2.4-18.933 4.667-24.3 6.8-10.333 4.133-18.55 8.133-24.65 12-3.067 1.934-3.284 4.417-0.65 7.45 1.333 1.5 2.967 2.816 4.9 3.95 5.8 0.767 33.316 0.833 82.55 0.2 50.13-0.633 76.8-0.8 80-0.5z" clip-rule="evenodd" fill-rule="evenodd"/>
</symbol>
<symbol id="r" viewBox="0 -4.1 13.965 4.106">
		<path d="m0-4.1c0.8 0.167 2.1 0.833 3.9 2 1.733 1.133 3.1 1.8 4.1 2 0.867 0.2 2.067 0.117 3.6-0.25 1.7-0.433 2.483-1 2.35-1.7-1.867 1.433-4.167 1.633-6.9 0.6-3-1.533-5.233-2.417-6.7-2.65h-0.35z" clip-rule="evenodd" fill="#4A5F99" fill-rule="evenodd"/>
</symbol>
<symbol id="s" viewBox="0 -12.35 15.75 12.35">
		<path d="m15.75 0c-0.733-0.267-1.667-0.65-2.8-1.15-2.2-1.033-4.183-2.233-5.95-3.6-2.833-2.167-5.167-4.7-7-7.6 1.667 3.233 3.583 5.85 5.75 7.85 1.367 1.233 3.433 2.35 6.2 3.35 1.4 0.5 2.667 0.883 3.8 1.15z" clip-rule="evenodd" fill="#4A5F99" fill-rule="evenodd"/>
</symbol>
<symbol id="t">
</symbol>
		<use transform="matrix(.9217 0 0 -.7803 6.2002 52.05)" y="-122.15" width="223" height="122.131" xlink:href="#n"/>
		<use transform="matrix(1 0 0 -1 139 146.1)" x="16383" y="16383" width="-32766" height="-32766" xlink:href="#t"/>
</svg>
