<?xml version="1.0" encoding="UTF-8"?>
<svg enable-background="new 0 0 406.534 410.804" viewBox="0 0 406.534 410.804" xmlns="http://www.w3.org/2000/svg">
 <path d="m107.514,149.012c-35.096,3.427-70.192,6.855-105.289,10.282 .582,5.95-.901,20.632 2.476,25.322 5.725,7.952 7.703.452 7.423,11.272l-1.797,69.467-1.698,65.628c-.259,10.002 19.665,14.755 27.523,18.782 22.502,11.532 45.005,23.065 67.508,34.598 9.289,4.761 11.291,5.896 21.213,4.937l134.671-13.03 102.007-9.869 25.788-2.495c5.682-.55 3.191-5.195 3.082-10.537-.705-34.218-1.41-68.435-2.114-102.652-.191-9.279-.52-18.139-1.579-27.354-.838-7.285-.984-12.71-.043-19.97 .438-3.373 11.015-7.029 14.037-8.685l-153.648-53.311c-1.326,11.364-6.322,28.444-16.515,35.11-13.411,8.771-31.881,12.09-47.62,13.786-15.051,1.622-36.418,4.007-48.239-7.813-10.122-10.121-19.565-21.334-27.186-33.468" fill="#ccb38c"/>
 <path d="m159.492,256.584c8.081,4.632 16.74,2.46 25.513,2.476 7.764.015 15.491,1.537 23.229,1.904 4.988.236 11.114,1.52 13.136-4.569 1.434-4.316-1.323-8.51-5.712-9.52 .362.333 1.247,3.039.571.951-8.354-7.112-31.302-.708-41.314.571-3.796.485-16.049-.045-18.087,3.617-1.76,3.162 1.514,8.904 2.664,4.57" fill="#9c8769"/>
 <path d="m287.818,259.06c8.327,8.012 24.917,4.63 35.223,3.617 3.241-.318 8.376.67 11.232-1.713 4.376-3.65 3.262-12.035-2.094-10.854-4.417-8.545-25.984-1.277-33.034.381-3.529.831-10.701-.326-12.85,3.428-1.941,3.393.023,6.677 3.616,7.425l-2.093-2.284" fill="#9c8769"/>
 <path d="m10.984,183.283c15.657,3.534 31.826,7.62 46.647,13.899 14.294,6.056 26.534,16.377 40.935,22.086 30.146,11.95 70.588,9.128 102.333,6.98 35.93-2.43 71.549-7.093 107.291-11.359 18.217-2.176 36.435-4.042 54.731-5.377 7.011-.512 20.283-4.293 24.854,2.33 18.955,27.467-52.16,29.372-64.669,29.519-34.491.406-69.298-2.165-103.449,3.896-32.746,5.81-66.359,4.642-99.463,4.107-6.373-.103-10.909.541-16.297-2.299-2.94-1.55-4.27-4.58-7.781-5.777-17.501-5.965-35.875-8.497-53.43-14.214-9.148-2.979-24.713-7.501-30.367-15.993-5.702-8.561.803-18.561-1.335-27.798" fill="#9c8769"/>
 <path d="m16.125 336.93c-6.251 6.925-9.785 18.118-2.476 25.322 4.398 4.335 28.009 10.161 32.938 5.141 2.056-2.094-0.076-10.708-1.333-12.757-5.682-9.266-21.324-10.285-29.129-17.706" fill="#802600"/>
 <path d="m335.99 372.34c-0.577 15.802 29.127 15.022 39.412 15.423 0.092-8.739 4.711-20.849-6.276-23.715-9.45-2.466-30.511-4.103-33.136 8.292" fill="#802600"/>
 <path d="m0.894 160.44 100.75 42.65c24.435 10.344 49.825 6.011 75.695 3.765 70.52-6.124 139.87-10.285 210.63-12.144-29.013-10.749-58.684-20.403-87.035-32.807l-52.325-22.892c-7.693-3.366-26.311 1.473-34.459 1.96l-128.08 7.652c-28.916 1.728-57.497 3.279-85.177 11.816" fill="#ffffc2"/>
 <path d="m117.605,165.576c-12.779-3.312-6.849,11.556-2.158,17.03 9.33,10.886 20.645,15.723 34.524,18.193 12.573,2.238 24.785,2.226 37.408.422 12.197-1.743 29.99-.549 40.846-6.134 11.004-5.661 14.6-19.137 14.991-30.554 .139-4.039-34.556-5.174-39.475-5.253-28.892-.467-57.46,3.198-86.136,6.296" fill="#8561cf"/>
 <path d="m116.271,104.65c-13.583,30.36-8.251,67.994 25.799,82.441 24.075,10.214 65.516,5.32 84.867-11.398 4.72-4.078 17.042-10.96 18.04-17.447 1.124-7.304 1.879-14.846 2.145-22.23 .311-8.662-1.878-28.802-9.569-34.983-3.514-2.824-11.794-.414-17.018.103l-34.508,3.414c-18.211,1.801-38.545-2.244-56.814-3.386-5.581-.35-7.649,1.086-12.942,3.486" fill="#bf8080"/>
 <path d="m118.94 104.65c-9.941 3.568-11.875 23.248-4.57 30.082 6.434 6.02 20.348 2.623 27.988 5.522 24.1 9.145 58.503 8.161 84.536 2.094 16.331-3.806 25.335-7.013 19.991-25.513-4.118-14.256-20.646-15.887-33.796-18.183-31.417-5.485-63.257-0.087-94.149 5.998" fill="#fff5c7"/>
 <path d="m117.796,143.11c8.955,13.131 34.463,12.607 48.169,11.423 21.779-1.882 62.012,11.51 77.491-9.71 5.147-7.057 1.289-12.549-7.045-11.424-5.915.799-13.021,6.113-19.231,7.616-8.358,2.022-16.901,2.284-25.454,2.284-16.519,0-32.988-3.773-49.189-6.631-5.175-.913-15.986-4.816-20.934-3.649-6.049,1.427-8.704,8.409-2.477,11.995-.127-.279-1.3-1.822-1.33-1.904" fill="#edd48f"/>
 <path d="m120.08,10.596-23.989,83.964c30.835,10.019 60.096,11.984 92.341,10.472 16.108-.755 32.486-1.448 48.378-4.367 16.915-3.107 30.267-8.923 19.141-27.753-8.428-14.262-13.827-26.656-19.494-42.725-1.948-5.525-4.822-17.205-9.564-20.732-4.509-3.354-15.206-3.879-20.651-4.968-30.092-6.021-56.686,3.071-86.162,6.109" fill="#ffff42"/>
 <path d="m221.37,3.17c3.368.335 7.806,3.574 5.141,7.235-2.795,3.839-19.891-.242-24.18-.719-21.241-2.362-40.392,3.702-61.349,1.953-2.932-.244-16.925,1.073-14.046-4.852 2.526-5.199 25.218-4.808 30.844-5.521 21.41-2.713 42.092-.589 63.59,1.904"/>
 <path d="m242.5 29.635c2.345 7.717 3.84 15.812 6.486 23.411 2.537 7.284 8.869 14.112 10.649 20.95 0.754 2.896 1.03 11.119-2.096 12.947-5.559 3.25-4.33-4.751-5.141-7.997-1.375-5.507-3.912-9.82-6.664-14.85-4.467-8.163-5.516-16.602-8.187-25.514-1.143-3.81-11.025-26.541-3.142-23.038 4.692 2.086 5.835 9.959 8.095 14.091"/>
 <path d="m118.176,21.829c-2.649,9.198-.679,16.354-4.407,25.844-2.743,6.983-4.346,14.381-6.099,21.656-1.025,4.254-9.037,19.079-8.152,22.375 1.895,7.065 27.371,7.899 34.045,8.77 15.585,2.033 32.003,1.944 47.669,1.262 15.646-.681 31.671-1.056 47.278-2.32 6.36-.516 32.298-10.384 34.557-7.521 10.563,13.392-55.98,15.434-61.308,15.803-21.437,1.485-44.398,3.154-65.876,1.618-8.481-.606-40.662-4.605-44.171-12.851-1.141-2.681 1.026-12.801 2.453-15.084 5.651-9.041 7.482-18.826 9.731-29.088 .826-3.771 8.327-36.48 14.28-30.464"/>
 <path d="m114.559,117.407c.448,3.942-1.158,7.217-1.333,11.042-.355,7.736 1.887,17.141 3.617,24.941 2.338,10.537 10.445,19.466 19.041,25.704 10.55,7.656 20.414,6.11 32.675,7.133 22.62,1.887 42.97,1.928 61.76-12.655 18.43-14.303 17.215-36.517 10.281-56.738 9.697-3.015 11.146,14.978 11.515,20.887 .756,12.093-4.945,25.854-12.276,35.279-17.376,22.338-47.683,23.43-73.588,22.276-12.063-.537-25.743,2.318-35.452-6.508-8.164-7.421-17.592-18.859-21.838-29.053-4.073-9.777-6.014-21.689-4.683-32.219 .592-4.683 7.523-23.472 10.281-10.089"/>
 <path d="m94.568,148.822c1.161,10.278-29.662,7.511-36.859,8.74-5.092.869-48.16,7.424-48.057-2.458 .016-1.552 79.354-13.119 84.916-6.282"/>
 <path d="m403.2 188.8c4.39 2.772 3.419 5.367 2.762 9.329-0.069 0.417-4.221 8.553-3.903 8.378-4.386 2.414-13.143-2.391-19.23-2.666-27.127-1.225-53.69-6.662-81.05-3.244-15.809 1.975-31.62 3.534-47.268 6.565-14.634 2.834-30.021 2.319-44.998 3.589-15.778 1.337-31.6 2.989-47.446 2.989-7.98 0-30.831 2.933-34.938-5.521 28.701-6.512 61.583-5.077 91.034-7.368 34.104-2.653 68.211-9.219 102.35-10.289 4.779-0.149 43.956 1.099 44.037-0.811 0.148-3.504-23.747-10.735-26.369-11.709-10.31-3.83-61.458-13.037-62.164-25.799 42.653 10.666 84.861 26.685 127.18 36.557"/>
 <path d="m30.023,171.669c19.806,4.735 38.792,11.983 57.553,19.836 8.051,3.37 32.066,8.838 34.598,18.813-13.2.395-34.845-7.194-46.854-13.352-14.546-7.458-73.737-17.124-74.427-37.293 10.405,1.374 20.078,7.04 29.13,11.996"/>
 <path d="m5.844,173.954c-3.721,9.575 15.344,8.163 21.419,10.187 9.367,3.12 17.7,7.914 27.223,10.961 13.565,4.342 26.464,9.938 39.32,14.647 6.454,2.364 12.398,6.813 18.279,10.281 9.093,5.362 13.726,4.746 24.435,3.865 69.34-5.708 138.723-7.667 207.898-15.713 3.591-.417 28.83-5.233 29.838-.148 1.235,6.231-28.545,8.802-32.557,9.14-27.527,2.315-56.9.917-83.773,7.616 4.509,11.044 2.606,20.373 2.827,30.777 .377,17.818 3.617,35.403 4.408,53.187 .383,8.613-1.207,17.213-.952,25.703 .213,7.088 2.213,13.813 1.809,21.134-.182,3.285.047,11.874-4.283,12.756-5.521,1.125-5.708-8.971-6.094-13.137-2.709-29.277 1.38-58.409.152-87.771-.346-8.271-1.173-16.341-2.419-24.527-.299-1.966-.709-15.442-1.922-16.979-4.562-5.78-41.033.274-49.728.542-28.067.864-61.077,7.157-88.022,1.171-6.792-1.509-13.493-8.214-19.705-11.424-8.59-4.439-17.728-7.989-26.809-11.257-14.993-5.396-35.547-15.081-51.444-15.397 3.47,10.54 1.054,17.033-1.608,27.233-2.825,10.826-3.877,27.378-3.343,38.453 .447,9.254 7.046,17.796 8.511,27.169 1.249,7.987 1.42,16.128.917,24.181-.233,3.741-1.987,22.307-6.001,23.855-10.864,4.192-8.097-22.772-7.967-27.564 .408-15.092 2.534-30.125.161-45.166-2.758-17.479-.17-36.583 1.375-54.107 .38-4.315.762-8.631 1.143-12.947 .273-3.105-2.644-2.368-4.04-4.725-1.776-2.997-4.312-5.857-4.76-9.52-.287-2.344-.14-4.923.761-7.235 2.97.826 4.299,2.664 4.951,4.759"/>
 <path d="m388.156,212.604c5.29,14.431 3.644,29.512 4.027,44.569 .374,14.646 6.063,27.559 6.063,42.152 0,13.963-5.958,25.779-7.045,39.128-.956,11.738 10.848,24.832-5.997,27.418-66.384,10.19-132.796,17.392-199.869,22.184-17.22,1.23-34.204,6.288-51.547,5.804 1.947,12.662-8.279,16.945-19.325,16.945-18.024,0-33.942-4.81-27.893-24.466 2.688-8.731-3.201-9.525-11.042-13.423-7.956-3.954-16.263-7.059-24.371-10.662-10.586-4.705-21.32-15.552-31.416-18.658-.853,6.023-5.148,10.319-.19,15.612 3.402,3.632 21.252,3.901 16.374,9.9-5.773,7.1-20.202-3.665-24.275-8.188-4.7-5.218-4.992-14.431-1.81-20.752-3.9-1.125-8.237-3.499-7.425-7.997 6.92,3.405 15.151,3.387 22.467,6.854 15.515,7.354 29.944,16.865 45.497,24.391 7.806,3.776 15.357,7.814 22.896,12.088 4.023,2.279 9.659,8.38 12.715,9.787 10.187,4.688 33.41-1.158 44.932-2.381 71.823-7.619 144.121-11.212 215.782-20.28 5.484-.693 15.774-.026 20.022-3.423 2.695-2.156.024-5.233-.286-7.807-2.172-17.995.1-34.5-.431-52.514-.458-15.579-3.302-31.073-3.948-46.682-.237-5.782-1.252-45.636 6.095-39.599"/>
 <path d="m343.222,246.494c1.854,25.895 14.753,56.208 3.808,80.822-3.529,7.937-14.399,10.284-22.276,10.758-5.794.349-35.386,6.409-38.079,1.904-4.488-7.507 30.379-9.448 35.604-10.416 5.981-1.107 15.2-2.864 15.708-9.48 .65-8.463-.42-16.79-1.47-25.181-.962-7.692-2.253-15.365-3.559-23.007-.711-4.163-.016-21.714-2.493-24.258-4.304-4.418-32.419.717-39.316,1.618-10.348,1.353-9.881-2.576-13.042-10.566 21.628.734 48.459-11.557 65.115,7.806"/>
 <path d="m119.89,240.211c3.833,14.29 4.876,28.562 5.235,43.314 .341,14.019 6.232,30.923 1.619,43.98-3.763,10.648-6.961,21.542-7.901,32.844-.348,4.185 3.243,19.608-4.284,16.563-7.456-3.016-2.917-22.583-2.573-28.403 .926-15.729 3.942-31.36 3.476-47.147-.374-12.649-.902-25.143-.902-37.832 0-7.968-3.982-20.784 1.523-27.318 1.236,1.145 3.324,2.993 3.807,3.999"/>
 <path d="m224.036,244.019c5.05,4.923.547,17.286.761,23.608 .426,12.599 3.196,25.117 4.451,37.65 1.005,10.032-1.535,19.757-1.403,29.559 .107,8.011 2.156,9.097-6.664,10.281-2.977.399-5.908-.828-10.29.444-6.676,1.938-13.44,3.116-20.357,3.787-11.416,1.106-28.054,1.454-34.278-8.991-6.439-10.806-2.792-27.835-1.814-39.53 1.098-13.138.828-26.29 1.814-39.483 7.979,5.549 5.704,27.105 7.058,36.128 1.142,7.608 2.095,15.238 3.236,22.847 .59,3.938-.602,20.833 1.893,23.276 5.567,5.454 32.269-3.932 39.362-4.478 1.873-.145 8.602.327 8.638-1.424 .088-4.242.16-8.425-.021-12.662-.331-7.773-.799-15.563-1.621-23.302-1.593-14.985-3.425-30.262-3.118-45.354 .167-8.222.394-9.285-7.446-10.453-4.393-.654-9.895.272-14.278.761-4.586.512-40.97,1.704-31.035-5.711 5.825-4.348 26.268-1.57 33.184-2.003 10.798-.675 22.783-.468 31.928,5.05"/>
 <path d="m289.722,267.247c1.996,9.415 6.151,18.475 6.663,28.179 .435,8.246-2.209,16.329-1.618,24.561 .705,9.822-7.558,4.077-10.187-1.523-2.588-5.515-.813-18.43-6.473-19.134-14.475-1.801-8.729-12.518-.572-18.183 1.643-1.141 5.142,2.645 5.142-1.619 0-2.862-.19-5.7-.19-8.567 0-5.712 2.879-10.105 7.235-3.714"/>
 <path d="m251.07 290.28c4.148 10.211-12.026 13.595-15.423 4.379-3.945-10.706 12.653-15.351 15.423-4.379"/>
 <path d="m139.691,290.285c1.731,9.854 7.235,19.723 7.235,29.796 0,3.788-.075,34.678-4,31.701-2.141-1.624-1.935-18.346-2.283-21.515-.774-7.034-1.333-14.008-1.333-21.092 0-6.422-2.048-12.163-1.144-19.081 .391.124 1.942.102 1.525.191"/>
 <path d="m367.97 308.56c-2.073 4.691-4.341 29.641-7.997 26.846-6.421-4.908 3.381-38.381 4.189-45.314 5.109 4.473 3.808 13.02 3.808 18.468"/>
 <path d="m353.12 342.07c-4.982 8.787-22.682 7.11-31.415 7.806-9.842 0.783-27.719 4.716-35.794-2.475 21.931-5.791 44.717-5.331 67.209-5.331"/>
 <path d="m224.607,355.209c2.742,9.331-21.945,4.378-26.889,4.378-9.751,0-27.721,5.051-36.513.572-8.783-4.474 18.026-5.384 21.93-5.613 13.699-.803 28.411-.155 41.472.663"/>
 <path d="m379.967,376.914c.488,7.044-6.061,13.762-12.375,15.803-9.767,3.157-18.782-2.143-26.464-7.521-6.073-4.251-8.969-8.396.381-8.473 7.528-.063 12.604,6.821 19.229,8.949 12.049,3.87 13.734-5.304 14.469-15.613 3.074.853 4.398,3.675 4.76,6.855"/>
 <path d="m129.22 394.24c-3.19 12.523-10.656 14.608-23.039 11.232-14.105-3.846-13.527-6.147-7.234-15.992 8.088 6.766 20.618 3.548 30.273 4.76" fill="#802600"/>
 <path d="m121.983,148.441c-.125,2.117 2.001,2.486.381,3.617 10.914,5.098 20.604,8.836 33.795,11.614 20.11,4.237 51.891,6.323 70.732-3.999 5.197-2.847 12.658-10.383 3.808-14.66-5.213-2.519-11.199,3.674-15.994,4.474-13.567,2.263-28.151,3.861-41.886,2.951-15.012-.995-32.428-7.63-47.218-5.902l1.142.761c-2.645-2.4-7.558-.733-4.568,3.428l-.192-2.284" fill="#fcb300"/>
 <path d="m188.62 18.211c-19.187-0.693-54.263 14.264-54.263 37.412 0 8.175 2.311 16.808 5.046 24.466 4.065 11.38 11.207 13.324 22.942 15.041 17.776 2.601 59.278-3.609 62.449-25.703 3.597-25.061-11.628-47.151-36.174-51.216" fill="#ffff9c"/>
 <path d="m186.15 44.867c-8.625-1.202-19.375 1.011-21.038 11.043-2.039 12.294 13.822 13.477 22.466 12.565 10.512-1.108 20.516-1.565 16.185-14.565-3.307-9.927-12.886-0.416-17.613-9.043" fill="#ffffc4"/>
</svg>
