<?xml version="1.0" encoding="UTF-8"?>
<svg viewBox="0 0 1141 803" xmlns="http://www.w3.org/2000/svg">
 <g fill-rule="evenodd">
  <path d="m820 0h321v402q0 401-5 401h-4v-1h7v-20q-1-19-1-19v-83h-8q-8 0-8-1h16v-325q0-324-1-338v-13h-153q-154 0-154 4v4l-1 1-1 1v-11h-238v-1h115q115-1 115-1z" fill="#5f646b" stroke="#5f646b"/>
  <path d="m1137 680h1v30h-16v-29h8q7-1 7-1z" fill="#886503" stroke="#886503"/>
  <path d="m270 590l1-85v1q1 2 1 12v10h5v-23h1v85q0 84-1 84v-5q0-5-3-5-2 0-2 6l-1 5q0 1-1 1 0 0 0-86z" fill="#5b5b5c" stroke="#5b5b5c"/>
  <path d="m994 696v-15h78v29h-78v-14z" fill="#8a6600" stroke="#8a6600"/>
  <path d="m589 1h1v1h238v11q0 1-2 1-2 1-119 1l-118 1v-1h-1v-11q0-3 1-3z" fill="#888" stroke="#888"/>
  <path d="m405 382h298-296v1q-1 0-1 63v62l1 2 1 2h6v-62q0-61 1-61v-1h132v5q1 4 0 4v-3q-1-4-65-4l-64-1-1 1q-1 0-1 61v61h18q16 0 17-1t1-1l-1 14q-1 14 0 75t3 84q4 23 4 23 0 1 1 2v2t-47 1h-46v30h2q1 1 1 1h-16v-1h11v-30h-175v-1h95q1 0 1-1h1q0 1 59 1h59v-1l1-14v-14h-4v-1h3v-1l1-45v-46h-15v-1h1v-1h13l1-2q0-3-1-4h-1 1t0-1 1-99v-98z" fill="#491b06" stroke="#491b06"/>
  <path d="m0 402v-402h820t-115 1h-116q-1 0-1 3v3t-1-2q0-2-291-2l-292 1v14q0 16 1 16t1 8q0 9-1 10-1 0-1 2t-1 314v311h23q24-1 24-7l1-7h1v15h-48v16q0 15 0 15v15q0 14 0 14v2t-1 14v29q-1 14-1 15v1h1v1h1129v1h-1132v-401z" fill="#696d72" stroke="#696d72"/>
  <path d="m895 255l1 1h5l2-1h2v11l-3 1h-8v-7q0-5 1-5z" fill="#e0e2e1" stroke="#e0e2e1"/>
  <path d="m1073 402h24q25 0 25 138v139q0 1 8 1h7t-7 1h-8v29h15t-31 1h-32v15q0 14 0 14l31 1 31 1h-99v-1h35v-30h-175v-1h95v-4q0-4 0-14v-11h-175v-1h254v-1h1v-19h-1v-1h2v-23q0-22-1-22t-1-2q0-1-1-2h-1v-1q1-1 1-1 0-1 1-40v-38q1-1 1-2v-63q0-63 1-63zm-79 294v-15h78v29h-78v-14z" fill="#4b1b07" stroke="#4b1b07"/>
  <path d="m528 488v15h1v1h19q1 0 1 1h-28q-28 1-31 0h-2v-1h32v-16q1-16 4-16 4 0 4 16z" fill="#120a04" stroke="#120a04"/>
  <path d="m909 504v-3 1q1 1 1 2t1 2v1q1 0 1 1 0 0 0 1h1l3 3q2 4 9 6t7 3v1h4t-19 0-21 1l-1 1q-1 0-1-2v-1h1q1-1 13-1h13l-1-1-1-1h-1v-1h-1v-1h-1v-1t-3-3l-2-2v-1q-1 0-1-1t-1-4z" fill="#747a81" stroke="#747a81"/>
  <path d="m93 505h1v23h8v-22 84q0 85 0 85v-5q0-6-4-6t-4 5v5h-1v1h-1v-7q0-8 0-86 0-77 1-77z" fill="#606161" stroke="#606161"/>
  <path d="m878 245v-24h1q1 0 3 9 2 10 6 16 4 7 4 12v5h1v1h1v3h4v1h1l-1 1-1 1h-18v-1h-1v-24z" fill="#c7d0d6" stroke="#c7d0d6"/>
  <path d="m1051 120h4l6 1q7 2 7 3 0 0 1 2v4q-1 0-1 2-2 1-17 16l-16 14h-1t0 1q-1 1-1 1h-1t-2 2l-2 2t-6 4q-4 4-15 12l-11 8h-6v-1h-1v-1h1v-3l-1-3q0-3 1-4 0 0 1-2 1-3 1-4h1v-1h1v-3l3-10q2-10 3-10 1-2 6-2t8 1h3v-5q1-6 16-10t15-9q-1-5 3-5z" fill="#4c5c2d" stroke="#4c5c2d"/>
  <path d="m319 772v-1h175l15 1q15 0 16 0h1v14q-1 15 0 15h2v1h-185v-1h4v-14l-1-14v-1h-27z" fill="#826000" stroke="#826000"/>
  <path d="m235 504q-1 0-1 83v83l1 2 1 1-1 2q-1 3-2 3t-1 1v1q-1 0-12 0h-11v-1q-1-1-2-3l-1-3t1-85v-84l1-1q1-1 14-1 12 0 12 1 0 0 1 1z" fill="#b9b9b9" stroke="#b9b9b9"/>
  <path d="m67 502l2-1-1 1q-2 2-2 88v86l12 1q13 1 13 1h-5l2 1q1 1 8 1h8q1 0 2-1h1l-1 1t-21 1-21 9v8h-1l-5 1h-5v-1l-1-1v-7q0-8-24-9l-24-1h47v-1q1 0 1-7v-7h-1v-55q1-54 1-54 0-1 0-14 1-14 6-14h6v-12q0-12 1-13 0-1 2-1zm-2 176l1-1q0 1 1 1t-1 1h-1v-1z" fill="#272727" stroke="#272727"/>
  <path d="m307 665v-1h2q2 0 2 6v6h1v1h1v1h21l-8 1q-7 1-15 1h-8v-2h2v-1h1v-7q0-5 1-5z" fill="#9aa7b7" stroke="#9aa7b7"/>
  <g fill="#808080" stroke="#808080">
   <path d="m327 152v-1l27 1q28 2 32 2h5t-23 0h-23l2 3q3 2 3 5 0 4-1 4-1-1-1-1v-3q0-2-2-3 0-1-4-2-3-1-5 1l-3 1v3l-1 1v1l-1 1v-1h-1v-2l1-2 1-2q1-2 2-2h1v-1h1v-1h-3q-3 0-6-1h-2v-1t1 0z"/>
   <path d="m308 151h19v1q-1 0-1 0v1h-6l-6 1 3 3q3 3 2 7-1 3-1 3h-1v-1q1-1 0-5-1-3-5-4t-5 0-2 5l-1 3h-2v-5l1-2q1-2 1-2h1v-1h1v-1h-22q-21 0-28 0h-7 8l16-2q16 0 35-1z"/>
  </g>
  <path d="m533 254l-3-11 2 3q2 4 2 5v1l1 2 1 2v2h1v-1h1v-1t2-4l1-4-1 5q0 5 0 11 0 5 0 8 2 3 2 5v2t-3-5q-2-6-4-1l-1 4-1 1-1 1v-4h1v-2l1-2v-1q0-2 1-4 1-1-2-12z" fill="#403c24" stroke="#403c24"/>
  <path d="m898 741h139v1h-5q-4 1-5 4t-1 14v11h3v1h-148t-16-1l-16-1v-24q1 0 1-2v-2h24q24 0 24-1z" fill="#836100" stroke="#836100"/>
  <path d="m235 504q1 1 1 12v12h6t0-1v69q0 69 0 69v-1t-1 0h-5v9l-1-1-1-2v-83q0-83 1-83z" fill="#616162" stroke="#616162"/>
  <path d="m500 723l10-14h1v1h118v1h-87v30h1q0 1-25 1l-24 1v-1t-1 0h-8v-1h1q2-1 4-2 1-1 10-16z" fill="#785901" stroke="#785901"/>
  <path d="m1032 742h106v29h-112v-11q0-11 1-14t5-4z" fill="#b18300" stroke="#b18300"/>
  <path d="m590 27v-1h119q119 0 119 1l1 1v5q-1 5-4 7t-25 4q-22 4-78 4-57 0-84-2t-37-4l-9-2h-1v-1h-1v-1l-1-6v-5q1 0 1 0z" fill="#ebeb02" stroke="#ebeb02"/>
  <path d="m922 244v7h13v1h2l1 1v1t-8 8l-8 8h-25l1-1 1-1h-1v-1h4l3-1h1v-8q2-7 5-15t4-9v-1l1-2q1-1 3 2 3 3 3 11z" fill="#cbd4da" stroke="#cbd4da"/>
  <path d="m880 73l-1-1h49q48 0 95 0h47l-39 1q-39 1-39 1h-14l3 5q3 4 7 15t4 18q2 6 2 28t-1 26l-1 3v5q0 1-1 4-1 2-1 2-1 1-1 4l1 3v3h-1q-1-1-4 6t-4 13l-1 6v7h-2l-4 1h-4l-1-1h-3v-8q0-2 2-18 2-15 3-35t-2-35q-3-14-7-23t-4-10l1-1 3-6q2-7 3-7v-1h1v-1h1v-1h1v-1h1v-1h-88t-1-1zm98 141v7h-11v-7q0-7 5-7 6 0 6 7z" fill="#465528" stroke="#465528"/>
  <path d="m932 238h1v-1h1v12l1 1v1h-12v-2l1-2v-9h8z" fill="#e7eaea" stroke="#e7eaea"/>
  <path d="m166 516v80q0 69 0 69l-1 6q-1 6-1 7 0 0-1 1v1h-1t-11 0h-11v-1q0-1-1-1t-1-1v-87q0-85-1-85l1-2q2-1 14-1 13 0 13 1 1 1 1 13z" fill="#b6b6b6" stroke="#b6b6b6"/>
  <path d="m187 740h1l82 1h83v1h-35v1t-1 14v14h2v1h-148l-1 1q-1-1-15-1-14-2-15-1h-1v-28l23-1q24-2 24-2t1 0z" fill="#826000" stroke="#826000"/>
  <path d="m1137 710h1v32h-2l-31-1-31-1t0-14v-15h32q31-1 31-1z" fill="#8b6700" stroke="#8b6700"/>
  <path d="m1064 506l2-3v3q-1 4-6 8-5 6 0 8 6 2 8 4t3 2h1q0 1-1 2h-1t-3-3-66-3l-63-2h-6v-1l58-1q58 0 64-4 6-3 7-4 1 0 1 0v-1q0-1 0-1h1t1-4z" fill="#6b6d70" stroke="#6b6d70"/>
  <path d="m4 742v-1h3v1h66q66 0 66 1v28h-136v-15q1-14 1-14z" fill="#b18300" stroke="#b18300"/>
  <path d="m236 668v-4h5t1 1v5q0 6 1 6l1 1q0 1 8 1h7l-1 1-2 1h-24v-1q0-1 1-1t2-3l1-2v-5z" fill="#9fabbb" stroke="#9fabbb"/>
  <path d="m340 504l-1 86q-1 86 0 87t-1 2q-1 0-1-1t-11-1l-12 1h-1v-1h-1v-1h-1v-1h1q1 0 1-82-1-82-1-85l-1-3 1-2q2-1 14-1t13 0q1 1 1 2z" fill="#b8b9b9" stroke="#b8b9b9"/>
  <path d="m306 590v-86 23h1v1h4v-23l1 3q0 3 1 85 0 82-1 82h-1v-5q0-6-2-6h-2v1q-1 0-1 5v6-86z" fill="#565656" stroke="#565656"/>
  <path d="m270 503l1 2v85q-1 84 0 84v1q0 1-1 1 0 0-6 1l-5 1h-7q-8 0-8-1l-1-1q-1 0-1-6l-1-6h1q1 0 1-68t-1-68h-1v-1q1-1 1-13 0-11 1-12 1 0 13 0 13 0 14 1z" fill="#b6b6b6" stroke="#b6b6b6"/>
  <path d="m333 167l-2-3h2l1 2q1 2 6 2 6 0 7-1t1-1v-1t1 1v1q-1 1-2 2l-1 1-1 1v1h3l23-1q23-1 23 0h-4q-4 1-7 1t-52 1-63-1h-13l-5-1h-4v-1l22 1q23 1 31 1h8v-2h-1q-1 0-2-3l-2-2h2v1t1 1v1h1q1 0 4 0h6v-1h2v1t-1 1l-1 1h-1v1h-1v1h22v-1q0-1-3-4z" fill="#7c7c7c" stroke="#7c7c7c"/>
  <path d="m526 224l2-1h42q0 1-6 1h-10q-4 0-7 10t-4 10-1 2l-1 2-1 4q-2 4-2 4v1h-1v1h-1v-2l-1-2-1-2v-1q0-1-2-3l-1-3v-1q-1-1-1-1v-1t-3-8-1-10z" fill="#7a7248" stroke="#7a7248"/>
  <path d="m348 162v4t-1 1-7 1q-5 0-6-2l-1-2v-1l1-1v-3l3-1q2-2 5-1 4 1 4 2 2 1 2 3z" fill="#f2f2f2" stroke="#f2f2f2"/>
  <path d="m200 504v1l-1 85v87h-1v1h-18q-7 0-8-3l-1-2h1v-84q0-84-1-84l1-2q1-1 14-1 12 0 13 0 1 1 1 2z" fill="#b7b7b8" stroke="#b7b7b8"/>
  <path d="m170 773l1-1h175v1l1 14v14h-177v-28z" fill="#b28300" stroke="#b28300"/>
  <path d="m306 504v173h-1v1h-2v2h-1t-10 0h-12v-1q0-1-2-3l-1-2q1 0 1-84v-85h-1l1-2q2-1 14-1t13 1 1 1z" fill="#b7b8b8" stroke="#b7b8b8"/>
  <path d="m318 743v-1h175t1 1v28h-177v-14q1-14 1-14z" fill="#b28300" stroke="#b28300"/>
  <path d="m901 666v-1l3 2q4 2 6 3 2 0 2 1h-6q-5-1-8-1h-4v-1q0-1 4-1h5l-1-1q-1 0-1-1z" fill="#3e5470" stroke="#3e5470"/>
  <path d="m908 140v1h1l4 15q3 14 3 39t0 29q-2 5-2 7v2h1v1q-1 1-4 9t-5 15v8h-1v-11h-2l-2 1h-5l-1-1q-1 0-1 5v4h-1v-1h-1v-5q0-5-4-12-4-6-6-16-2-9-3-9h-1q0-1 0-26l1-26v-1h1v-5l4-11q4-11 8-14 3-4 8-3 4 1 6 2 2 2 2 3z" fill="#c9d6b2" stroke="#c9d6b2"/>
  <path d="m554 224h4l8 2q8 0 13 13 5 12 5 13v2l1 1 1 1v5h1l-6 15q-7 15-7 19-1 3-1 4h-9v-1h-4q-5 0-8-1t-6-9l-4-9v-1q0-2-1-2v-2q-1-3-1-4t0-6q0-6 0-11l1-5 1-2q0-2 1-2t4-10 7-10z" fill="#8d844f" stroke="#8d844f"/>
  <path d="m106 680l1-1h20v1q0 1-9 1h-10v29h1t-49 1l-49 1h-1q-1 0-4-1h-2t0-15v-16l24 1q24 1 24 9v7l1 1v1h5l5-1h1v-8q0-8 21-9t21-1z" fill="#826000" stroke="#826000"/>
  <path d="m595 240l6-16 3 4q2 4 19 34t17 30v1l1 1 1 1v4h-41v-1l-1-1v-1q0-2-2-8-2-5-6-18l-4-13t7-17z" fill="#888050" stroke="#888050"/>
  <path d="m270 680h17l27 1q26 0 26 3 0 2 1 8v7h1q1 1 5 0 5 0 5-9l1-9h52v14l-1 14v1h-120v-1q0-1 1-15v-13h-7q-8-1-8-1z" fill="#876400" stroke="#876400"/>
  <path d="m206 668v5l1 3q1 2 2 3v1h-29l3-1 3-1h12v-1h1v-1q1 0 1-6t3-6 3 4z" fill="#99a5b5" stroke="#99a5b5"/>
  <path d="m638 704v-1l12 3q11 2 15 3l4 1h1l-20 1h-21v-1h10v-2q-1-3-1-4z" fill="#403410" stroke="#403410"/>
  <path d="m94 504v1h-1q-1 0-1 85 0 84 1 84h1v2h-1q-1 0-1 1v1h-1t-11-1q-12 0-12 1v1h-3v-1l1-1v-174h1q1-1 1-1l1-1h11q11 1 12 2 2 1 2 1z" fill="#b9b9b9" stroke="#b9b9b9"/>
  <path d="m207 504v84q-1 85-1 85v-5q0-4-3-4t-3 6-1 6v-86l1-85v23h6v-12q0-12 1-12z" fill="#5f5f60" stroke="#5f5f60"/>
  <path d="m588 257l4 13q4 13 6 18 2 6 2 8v1l1 1v1h-11l-11 1h-1v13l-1-7q-1-6-2-6l-2-1q0-1 1-4 0-4 7-19l6-15v-2q1-2 1-2z" fill="#7a7246" stroke="#7a7246"/>
  <path d="m880 74h89v1h-1v1h-1v1h-1v1h-1v1q-1 0-3 7l-3 6h-1q-2 0-6 0-3 0-5 2-3 2-5 8l-4 6v1h-1v1h-1q0-1-2-2-1-2-5-2t-7 3q-4 4-8 16l-4 12v3h-1v1h-1v-1q0-1-2-3-2-1-6-2-5-1-8 3-4 3-8 14l-4 11v5h-1v1h-1v-47q0-47 2-48z" fill="#d6e0ea" stroke="#d6e0ea"/>
  <path d="m130 590v-86t1 12l1 11v1h4v-11q0-11 1-11v-1q1 0 1 85v86t-1-6-3-6l-2 1-1 5v6h-1v-86z" fill="#595a5a" stroke="#595a5a"/>
  <path d="m543 741h172v1h-42v1q-1 0-1 14v14h1v1h-147t-1 0v1h-1q-1-1-16-1l-14-1v-13q0-14-1-15v-1h25q25 0 25-1z" fill="#826000" stroke="#826000"/>
  <path d="m171 516v-11q1 0 1 84v84h-1v-4q-1-4-1-4v-1h-2q-2 0-2 1 0 0 0-69v-69 1h4v-1l1-11z" fill="#585858" stroke="#585858"/>
  <path d="m814 710h83v16l1 15q0 1-24 1h-24v2q0 2-1 2v-2q-1-1-67-2h-67v-1h1q1-1 1-1h1v-14q0-13-1-14v-1h47q48-1 50-1z" fill="#836100" stroke="#836100"/>
  <path d="m188 712l1-1h175v30h-94l-82-1h-1v-14q1-14 1-14z" fill="#b48500" stroke="#b48500"/>
  <path d="m748 680h69v30h-3q-2 0-46 0-43 0-46 1l-4 1q0-1-1-1h-23l-22-1h2l10-2q9-2 19-8 9-6 20-12 10-6 15-8 5 0 10 0z" fill="#816001" stroke="#816001"/>
  <path d="m829 12l1-1v2q0 2 4 2 3 1 4 1 0 1 0 4 0 4-4 6l-5 2-1-1q0-1-119-1h-119v1t-1 0h-1q-1-1-4-1h-3l-1-1-1-1h-1v-6h1v-1h1v-1h1l3-1q3-1 4-1v1h1v1l118-1q117 0 119-1 2 0 2-1l1-1z" fill="#898988" stroke="#898988"/>
  <path d="m958 92h1l-1 1q0 1 4 10t7 23q3 15 2 35t-3 35q-2 16-2 18v2t-1-1-2 1q-1 3-2 10l-1 7t-1 2v2h-7l-4-1-1-7q-1-7-2-7l-2-1v1q-1 0-1 0v2-2q0-2 2-13t3-31-1-32q-2-11-6-24l-4-12h1v-1h1v-1l4-6q2-6 5-8 2-2 5-2 4 0 6 0zm0 138v5h-9v-5q0-6 5-6 4 0 4 6z" fill="#6e873a" stroke="#6e873a"/>
  <path d="m966 216v6h3l1 1h1q0 1-3 3l-4 4h-2v1l-1 1-1 1 1-7q1-7 2-10 1-2 2-1t1 1z" fill="#d3dadd" stroke="#d3dadd"/>
  <path d="m246 154h10q7 0 28 0h22v1h-1v1h-1t-1 2l-1 2v5l2 2q1 3 2 3h1v2h-8q-8 0-31-1l-22-1v1h-2q-3-1-16-3l-12-2h-2l-1-1-1-1v-4h2l2-1 1-1 13-2q14-2 16-2z" fill="#ebebeb" stroke="#ebebeb"/>
  <path d="m318 193q-256 0-254-1 3 0 257-1 254 0 254 1t-257 1z" fill="#dadada" stroke="#dadada"/>
  <path d="m541 276v2q1 1 1 1l4 9q3 8 6 9t8 1h4v1h-10q-11 1-12 7v7h-1v-7l-1-6-6-1h-7v-1h-2v-1l1-1v-2l1-2q1-1 3-8l2-6v1-1q0-1 0-2v-1h1l2-3q2-4 4 0 1 4 2 4z" fill="#736b41" stroke="#736b41"/>
  <path d="m894 521v1q0 2 1 2l14 20q13 21 18 32t5 22-1 14v5l1 3 2 8q4 7 11 13 8 5 17 11t10 6 50 1h49v1h-49q-50 0-53 3t-12 7q-9 2-27 2l-18-1q0-1-2-1-2-1-5-2l-3-2q0-1-1-1h-1v-1h-1t-3-6q-4-5-7-24-3-20-7-31-2-11-8-19-4-8-20-22-16-15-30-35-16-20-22-33l-8-13v-1h1v-1h1v-2h1v-1h1q1-2 14-4 12-2 19-1t17 6q10 6 20 16 11 11 18 19t8 9z" fill="#10243d" stroke="#10243d"/>
  <path d="m958 230v5h-9v-5q0-6 5-6 4 0 4 6z" fill="#e6e9ea" stroke="#e6e9ea"/>
  <path d="m51 196h-1v-6q0-6 3-8t263-1q259 1 262 2 2 2 4 4 1 3 2 3 2 0-1 3-3 2-7 5-3 2-10 4t-256 1-253-3-5-2q-1-2-1-2zm267-3q-256 0-254-1 3 0 257-1 254 0 254 1t-257 1z" fill="#0c0c0c" stroke="#0c0c0c"/>
  <path d="m849 770l16 1q16 1 16 1-1 1-1 15v14h170v1h-522v-1h172v-28h-1v-1h-26v-1h88q88-1 88-1z" fill="#7c5c00" stroke="#7c5c00"/>
  <path d="m943 222v-1l2 1q1 0 2 7l1 7 4 1h3q0 1-1 1t-1 1q-1 1-7 7l-8 7-1-1h-1v-9q0-9 3-14l3-5v-2t1 0z" fill="#d5dee4" stroke="#d5dee4"/>
  <path d="m1138 767v-4t1 19v20h-89v-1h5v-14l-1-14v-1h-25v-1h109v-4z" fill="#805f02" stroke="#805f02"/>
  <path d="m570 223h16q15 1 15 1l-6 16q-7 17-7 17t-1 2v2h-1v-5l-1-1-1-1v-2q0-1-5-13-5-13-13-13l-8-2h6q6 0 6-1z" fill="#746d44" stroke="#746d44"/>
  <path d="m600 114l1 45v19q-1 5-1 8 0 2-3 7t-9 8-269 3-267-2q-5-2-9-8-3-5-4-64t2-64q3-6 9-10t268-5q261-1 268 3t10 9q4 5 4 51zm-292 37h19l27 1q28 2 32 2h5l17 3q17 3 19 4 1 1 1 2t-11 4-15 3-6 1h-6q-4 1-7 1t-52 1-63-1h-13l-5-1h-6q-3-1-16-3l-12-2h-2l-1-1-1-1v-4h2l2-1 1-1 13-2q14-2 16-2h11l16-2q16 0 35-1zm-257 45h-1v-6q0-6 3-8t263-1q259 1 262 2 2 2 4 4 1 3 2 3 2 0-1 3-3 2-7 5-3 2-10 4t-256 1-253-3-5-2q-1-2-1-2z" fill="#f0f1f1" stroke="#f0f1f1"/>
  <path d="m277 669v5l1 2q2 2 2 3v1h-24l2-1 1-1 5-1q6-1 6-1 1 0 1-1l1-5q0-6 2-6 3 0 3 5z" fill="#a0adbd" stroke="#a0adbd"/>
  <path d="m168 664h2v1t1 4v4l1 2q1 3 8 3h6l-3 1-3 1h-17v-1q1-1 1-1 0-1 1-7l1-6q0-1 2-1z" fill="#9aa6b5" stroke="#9aa6b5"/>
  <path d="m664 159v11h16l-8 1q-9 1-10 3-2 2-4 5-3 3-8 3t-20-4q-16-6-22-6h-7v-13h1v1h1l9 3q10 3 11 3h1l2 1 1 1h2l1-1 2 1q2 2 9 2h7l1-1h1v-3l1-2 1-1-1-4q-1-4-5-7-4-4-4-10 0-7 3-10 3-2 5-4 3 0 8 0 4 0 7 3 3 2 5 5 2 2 1 6-1 5-3 8-4 4-4 9z" fill="#0d0e0f" stroke="#0d0e0f"/>
  <path d="m527 370l1 1q1 1 33 0t33-1v1h1v1h128v1h-1v1h-2v1h-1v1h-2l-6 3q-6 3-6 60v57h-1v-56q0-57-1-58h-299t-4-2l-3-2-1-1-1-1h-1l-1-1-1-1h-2v-2h136v-1l1-1z" fill="#a45609" stroke="#a45609"/>
  <path d="m347 157l-2-3h23q23 0 23 0l17 3q17 3 19 4 1 1 1 2t-11 4-15 3-6 1h-2q0-1-23 0l-23 1h-3v-1l1-1 1-1q1-1 2-2v-1q1 0 1-4 0-3-3-5z" fill="#e8e8e8" stroke="#e8e8e8"/>
  <path d="m897 726v-15h175v30h-174l-1-15z" fill="#b48500" stroke="#b48500"/>
  <path d="m317 157l-3-3 6-1h8q3 1 6 1h3v1h-1v1h-1q-1 0-2 2l-1 2-1 2v2t1 1l2 3q2 2 2 3v1h-22v-1h1v-1h1l1-1q1-1 1-1v-1t1-3q1-4-2-7z" fill="#f1f1f1" stroke="#f1f1f1"/>
  <path d="m1068 610h2q1 1 1 2 0 2 1 2t1 22v23h-51q-50-1-50-1-1 0-10-6t-17-11q-7-6-11-13l-2-8-1-3v-3h67q65 0 68-2 2-2 2-2z" fill="#4e1b06" stroke="#4e1b06"/>
  <path d="m479 505h9v1q0 1-3 2-3 0-3 1t-2 2q-3 1-9 1h-8l-1-1-1-1h1v-2q1-2 4-2 4 0 13-1z" fill="#40638f" stroke="#40638f"/>
  <path d="m678 169l-6 1h-8v-11q0-5 4-9 2-3 3-8 1-4-1-6-2-3-5-5-3-3-7-3-5 0-8 0-2 2-5 4-3 3-3 10 0 6 4 10 4 3 5 7l1 4-1 1-1 2v3h-1l-1 1h-7q-7 0-9-2l-2-1v-1l-1-1-1-1 1-25q1-25 2-26t27-1q25 0 27 1 1 2 1 27 0 26-2 27-1 1-6 2z" fill="#f4f5f6" stroke="#f4f5f6"/>
  <path d="m981 79l-3-5h92v55h-1v-3q-1-2-1-2 0-1-7-3l-6-1h-4q-4 0-3 5 0 5-15 9t-16 10v5h-3q-3-1-8-1t-6 2q-1 0-3 10l-3 10v3h-1v1h-1v-5l1-3q1-4 1-26t-2-28q0-7-4-18t-7-15z" fill="#d7e1ed" stroke="#d7e1ed"/>
  <path d="m138 676v1q0 1 1 1t1 1v1h-10v-1h-1q0-1 1-2l1-1v-6l1-5 2-1q2 0 3 6t1 6z" fill="#a8b5c4" stroke="#a8b5c4"/>
  <path d="m417 390l1-1 64 1q64 0 65 4v110h-18v-1h-1v-15q0-16-4-16-3 0-4 16v16h-32v1h-9q-9 1-13 1-3 0-4 2v2h-2q-1 0-2-1-2 0-2-1v-1l-1 1v1h-1l-2 1t-1 1-17 1h-18v-61q0-61 1-61z" fill="#c96400" stroke="#c96400"/>
  <path d="m317 166v1h-1v1h-6q-3 0-4 0h-1v-1q-1-1-1-1v-1l1-3q1-4 2-5t5 0 5 4q1 4 0 5z" fill="#f3f3f3" stroke="#f3f3f3"/>
  <path d="m130 504v172h1l-1 1q-1 1-1 2h1v1h-1q-1 0-1-1h-22q-1 1-2 1h-1l1-1q0-1-1-2l-1-2t0-85v-84l2-2q2-2 14-2 11 0 11 1 1 0 1 1z" fill="#b8b8b8" stroke="#b8b8b8"/>
  <path d="m1034 162h1v1q-1 1-25 24l-24 23h-1v1h-1v1h-1l-1 1h-1v1l-1 1 1-6q1-6 4-13t4-6v1h1v1h6l11-8q11-8 15-12 6-4 6-4l2-3q3-3 4-3z" fill="#d5dedf" stroke="#d5dedf"/>
  <path d="m881 772h173v1l1 14v14h-175v-14q0-14 1-15z" fill="#b28300" stroke="#b28300"/>
  <path d="m407 383v-1h296q1 1 1 58v57q0 1-3 1h-3q0-1-1-55t-66-54l-66 1h-1v114h-2q-1 0-7 1h-6q0-1-1-1h-1v-107q1 0 0-4v-5h-132v1q-1 0-1 61v62h-6l-1-2-1-2v-62q0-63 1-63z" fill="#b25800" stroke="#b25800"/>
  <path d="m4 18v-14l292-1q291 0 291 2 1 2 1 2v7q-1 0-4 1l-3 1h-1v1h-1v1h-1v6h1l1 1 1 1h3q3 0 4 1h1v5l1 6v1h1v1h1l9 2q10 2 37 4t84 2q56 0 78-4 22-2 25-4t4-7v-5l5-2q4-2 4-6 0-3 0-4-1 0-4-1-4 0-4-2v-6q0-4 154-4h153v13q1 14 1 338v325h-16v-139q0-138-25-138h-24q-1 0-1 63v63h-1q-1 0-3-2t-8-4q-5-2-2-5 4-3 4-5v-1q0-1 0-1h2q1 0 2-4v-3q0-1 0-6t-2-10-7-8-67-4q-63-1-68 2t-8 7q-4 5-4 12v10q-1 1 0 1h1q1 0 1 1 0 0 1 0v1h-1l-1 1 2 2q3 3 3 3v1h1v1h1v1h1l1 1 1 1h-13q-12 0-13 1h-1q-1-1-8-9t-18-19q-10-10-20-16-10-5-17-6t-19 1q-13 2-14 4h-1v1h-1v2h-1v1h-1q-1 0-4 2-4 2-25 8-21 8-41 8h-19v-59q0-57 6-60l6-3h2v-1h1v-1h2v-1h1v-1h-128v-1h-1v-2l1-1 1-1v-1q0-1 3-6 2-4 8-18 5-13-11-22l-17-8v-1h-1v-11h1l11-1h52v-4l-1-1-1-1v-1t-17-30-19-34l-3-4t-15-1h-62l-5 1q-1 0-20 35l-19 35-1 1-1 1v3h56l6 1 1 6v6h-1l-16 9q-16 8-14 13 2 4 8 16 6 13 6 14v2l1 1 1 1v1l1 1-1 1v1h-136v2h2l1 1 1 1h1l1 1 1 1 3 2q4 2 4 2h1v98q-1 99-1 99t-1 1q-1 0-5 2l-4 2v1l-1 1h-2v1h-1v1h15v46l-1 45v1h-50v-4q0-3 0-62t-2-72q0-13-6-14-5 0-6-12v-12q0-1-1-2-1 0-13 0t-14 1l-1 2v23h-4v-1h-1v-23t-1-1-13-1-14 1l-1 2v23h-5v-10q0-10-1-12v-1l-1-2q-1-1-14-1-12 0-13 0-1 1-1 13v12l-1 1h-5v-12q0-11-1-12t-1-1q0-1-12-1-13 0-14 1l-1 1q-1 0-1 12v12h-6v-24q0-1-1-2-1 0-13 0-13 0-14 1l-1 2v11l-1 11v1h-4v-12q0-12-1-13 0-1-13-1-12 0-14 1l-1 2v1q-1 0-1 11v11h-4v-1l-1-11q-1-12-1-12 0-1-1-1 0-1-11-1-12 0-14 2l-2 2v22h-8v-24t-2-1q-1-1-12-2h-11l-1 1q-2 0-2 0v1l-1 1q-1 0-1 12v12h-6q-5 0-6 14 0 13 0 14 0 0-1 54v69h-48v-311q1-312 1-314t1-2q1-1 1-10 0-8-1-8t-1-16zm596 96l1 45h1v1h1l9 3q10 3 11 3h1l2 1 1 1h2l1-1v-1l-1-1-1-1 1-25q1-25 2-26t27-1q25 0 27 1 1 2 1 27 0 26-2 27-1 1-6 2l-6 1h8l-8 1q-9 1-10 3-2 2-4 5-3 3-8 3t-20-4q-16-6-22-6h-7v6q-1 5-1 8 0 2-3 7t-9 8-269 3-267-2q-5-2-9-8-3-5-4-64t2-64q3-6 9-10t268-5q261-1 268 3t10 9q4 5 4 51zm263 60v-114h221v228h-221v-114zm45 329q0-1 0-1 0 1 0 1z" fill="#c3d6ed" stroke="#c3d6ed"/>
  <path d="m102 670v5l1 2q1 1 1 2l-1 1h-7q-7 0-8-1l-2-1h6v-1q0-1 1-1v-1h1q0-1 0-1v-5q0-5 4-5t4 6z" fill="#b1bfd1" stroke="#b1bfd1"/>
  <path d="m582 487l1-15h7v1l1 15v14h3l-2 1q-2 1-10 1h-8l4-1q4-1 4-16z" fill="#100a05" stroke="#100a05"/>
  <path d="m1066 503l-2 3q-1 4-1 4h-1t0 1v1t-1 0q-1 1-7 4-6 4-64 4l-58 1q0-1-7-3t-9-6l-3-3v-1q-1 0-1 0 0-1-1-1v-1q-1-1-1-2v-2q0-1-1-1l1-7q2-8 4-11 3-3 8-6t68-2q62 1 67 4t7 8 2 10 0 6z" fill="#fafafb" stroke="#fafafb"/>
  <path d="m526 772h173v1h1v28h-174q-1 0-1-14v-14h1q0-1 0-1z" fill="#b28300" stroke="#b28300"/>
  <path d="m673 743v-1h109q66 1 67 2v26t-88 1h-89v-14q0-14 1-14z" fill="#b18300" stroke="#b18300"/>
  <path d="m127 680v-1h1q0 1 1 1h22q11 0 11 0h58q11 0 12 0h38t8 1h7v28q-1 0-1 1h-176v-29h10q9 0 9-1z" fill="#ae8000" stroke="#ae8000"/>
  <path d="m978 214v7h-11v-7q0-7 5-7 6 0 6 7z" fill="#e8eae9" stroke="#e8eae9"/>
  <path d="m519 224l5-1h4l-2 1q-2 2 1 10t3 8v2q0 1 1 1l2 10q3 10 2 11-1 2-1 4v1l-1 2v2h-1v3l-2 6q-2 7-3 8l-1 2v2l-1 1v1h2v1h-49v-3l1-1 1-1 19-35q19-35 20-35z" fill="#898150" stroke="#898150"/>
  <path d="m1069 130v-1h1v140h-1q0 1-73 1h-74l8-8q8-8 8-8v-1l8-7q6-6 7-7 0-1 1-1t1-1h4v-2q1-2 1-2l1-1 1-1v-1h2l4-4q3-2 3-3h3l4-1h2v-7l1-1v-1h1l1-1h1v-1h1v-1h1l23-22q23-22 24-23v-1q1 0 1 0v-1t1-1l16-14q15-15 17-16 0-2 1-2z" fill="#f1f7a2" stroke="#f1f7a2"/>
  <path d="m892 669h2v1h4q3 0 8 1h6l18 1q18 0 27-2 9-4 12-7t53-3h50v19h-1v1h-319l-3-1-3-1h1l2-1 2-1h2l21-7q20-7 26-7 5-2 27-1t42 4 23 4z" fill="#bed1e8" stroke="#bed1e8"/>
  <path d="m794 480v1l8 13q6 13 22 33 14 20 30 35 16 14 20 22 6 8 8 19 4 11 7 31 3 19 7 24 3 6 3 6h1v1h1v1h1v1h1v1h-5q-4 0-4 1h-2q-3-1-23-4t-42-4-27 1q-6 0-26 7l-21 7h-2l-2 1-2 1h-1l3 1 3 1h-4q-5 0-10 0-5 2-15 8-11 6-20 12-10 6-19 8l-10 2h-5l-4-1q-4-1-15-3l-11-2q-1-1-1-1h-2l-1-1h-1q-2 0-12-4-9-2-34-10-25-6-38-6-12 0-18 2-5 4-12 11l-6 7v1l-1 1-1 1v1h-1v1h-1v2l-10 14q-9 15-10 16-2 1-4 2h-3l-2-1h-3v-1t-4-3-9-14l-6-12v-2q-1-1-1-2 0 0-4-23-2-23-3-84t0-75l1-14 2-1h1v-1l1-1v1q0 1 2 1 1 1 2 1h1l1 1 1 1h8q6 0 9-1 2-1 2-2t3-1q3-1 3-2v-1h2q3 1 31 0h34q6-1 7-1h20q8 0 10-1l2-1 8-2q8-2 18-6t24-4q13 0 32 4t20 4h5q3 0 3-1v-1h1v2h19q20 0 41-8 21-6 25-8 3-2 4-2z" fill="#528bd2" stroke="#528bd2"/>
  <path d="m634 702h1l1 1h2v1h1v6h-128v-1h-1v-2h1v-1h1v-1l1-1 1-1v-1l6-7q7-7 12-11 6-2 18-2 13 0 38 6 25 8 34 10 10 4 12 4z" fill="#ac8002" stroke="#ac8002"/>
  <path d="m554 299h19l2 1q1 0 2 6l1 7v-2h1v1l17 8q16 9 11 22-6 14-8 18-3 5-3 6v1l-1 1-1 1v1q-1 0-33 1t-33 0l-1-1-1-1v-1l-1-1-1-1v-2q0-1-6-14-6-12-8-16-2-5 14-13l16-9h1v1h1v-7q1-6 12-7z" fill="#f4b802" stroke="#f4b802"/>
  <path d="m109 710h80v1l-1 1t-1 14v14q-1 0-1 0t-24 2l-23 1q0-1-66-1h-66v-1h3v-29h1l49-1q49-1 49-1z" fill="#856200" stroke="#856200"/>
  <path d="m403 579h1v1q0 1 0 4v2h-11l1-1v-1l4-1q4-2 4-3t1-1z" fill="#975519" stroke="#975519"/>
  <path d="m4 726v-15h2q3 1 4 1v29h-6v-1t0-14z" fill="#b3c4d9" stroke="#b3c4d9"/>
  <path d="m170 773v28h173v1h-340v-1h-1v-1q0-1 1-15v-14h137q1-1 15 1 14 0 15 1z" fill="#805f00" stroke="#805f00"/>
  <path d="m670 710h2l22 1h23q0 1 1 1v28h-1t-1 1h-174v-30h108l20-1z" fill="#b38400" stroke="#b38400"/>
  <path d="m459 710l6 12q5 11 9 14t4 3v1h3l2 1h2v1h-116t-1-1h-2v-30h46q47-1 47-1z" fill="#866300" stroke="#866300"/>
  <path d="m339 590l1-86v12q1 12 6 12 6 1 6 14 2 13 2 72t0 62v4h47v1h-48l-1 9q0 9-5 9-4 1-5 0h-1v-7q-1-6-1-8 0-3-26-3l-27-1h-6 11q10 0 10 0h9q8 0 15-1l8-1h-20l12-1q11-1 11-1 1 0 2-86z" fill="#272727" stroke="#272727"/>
  <path d="m936 110l4 12q4 13 6 24 2 12 1 32t-3 31-1 11v2q-1 0-1 0t0 1v1l-3 5q-3 5-3 14v9h-1v-2l-1-1v-12h-1v1h-9v9l-1 2v2h-1v-7q0-8-3-11-2-3-3-2l-1 2h-1v-2q0-2 2-7 0-4 0-29t-3-39l-4-15v-1h1v-3l4-12q4-12 8-16 3-3 7-3t5 2q2 1 2 2z" fill="#b4c791" stroke="#b4c791"/>
  <path d="m936 522h2l63 2q63 0 66 3t3 3h1v38q-1 39-1 40 0 0-1 1v1h-1t-2 2q-3 2-68 2h-67v-2q1-3 1-14t-5-22-18-32l-14-20 1-1q2-1 21-1t19 0z" fill="#fcfcfc" stroke="#fcfcfc"/>
  <path d="m863 174v-114h221v228h-221v-114zm17-101l-1-1h49q48 0 95 0h47l-39 1q-39 1-39 1h78v195h-1q0 1-73 1h-117v-1h-1v-48q0-1 0-26l1-26h-1v-47q0-47 2-48h1t-1-1z" fill="#4e4e4e" stroke="#4e4e4e"/>
  <path d="m698 498h-2q-1 0-20-4t-32-4q-14 0-24 4t-18 6l-8 2h-3v-14l-1-15v-1h-7l-1 15q0 15-4 16l-4 1h-10v-114h1l66-1q65 0 66 54t1 55z" fill="#c56200" stroke="#c56200"/>
  <path d="m817 696v-15h175v11q0 10 0 14v4h-175v-14z" fill="#b28400" stroke="#b28400"/>
 </g>
</svg>
