<?xml version="1.0" encoding="UTF-8"?>
<svg viewBox="0 0 744.09448 1052.3622" xmlns="http://www.w3.org/2000/svg" xmlns:xlink="http://www.w3.org/1999/xlink">
 <path transform="matrix(1.8075 -1.304e-8 3.8597e-8 1.8075 -428.95 1469.4)" d="m436.59-579.47h16.118v335.56h-16.118z" fill="#8b4513"/>
 <g transform="matrix(.53587 -1.9493e-9 1.9493e-9 .53587 704.58 215.31)">
  <path transform="matrix(-1.2517 -1.304 1.304 -1.2517 -572.37 1476.4)" d="m735.57 384.31-268.52-114.52-157.98 161.68 147.64 249.15 279.08-6.6465z" fill="#5f9ea0"/>
  <path d="m-1001 98.544-57.43-4.1743 443.03-455 414.31 421.61 8.2042 20.872-57.43 12.523-360.99-400.73z" fill="#2f4f4f"/>
  <g fill="#2f4f4f" opacity=".7328">
   <g transform="matrix(3.0046 1.3497 -1.3497 3.0046 -1084.8 -3501.3)" fill="#2f4f4f">
    <path d="m617.58 1017.5c-7.8532-6.5868-16.615-12.089-25.959-16.303-6.0259-2.7172-12.279-4.8957-18.554-6.9726-4.9019-1.6224-9.8569-3.1994-14.391-5.6689-3.0635-1.6684-5.9437-3.7666-8.1109-6.5-3.9253-4.9507-5.1797-11.612-4.6709-17.91 0.29799-3.688 1.1634-7.351 2.77-10.684 2.3871-4.9522 6.5347-9.1607 11.705-11.028 4.7417-1.7128 10.063-1.3808 14.838 0.23661 4.2261 1.4314 8.1149 3.8484 11.269 7.004"/>
    <path d="m616.08 1018.2c0.13265-10.249 1.6797-20.479 4.5837-30.309 1.8728-6.3393 4.302-12.499 6.8227-18.61 1.969-4.7732 4.007-9.5571 5.0944-14.605 0.73462-3.4101 1.0239-6.9618 0.36661-10.388-1.1904-6.2048-5.4201-11.502-10.524-15.226-2.9892-2.1806-6.3297-3.9148-9.9038-4.8721-5.3104-1.4224-11.206-1.0253-15.995 1.6743-4.3919 2.4757-7.6122 6.7246-9.5023 11.399-1.6727 4.1365-2.3786 8.6605-2.0456 13.11"/>
   </g>
  </g>
  <path d="m-835.4 499.38h454.72v39.541h-454.72z" fill="#2f4f4f"/>
  <path transform="matrix(1.8661 0 0 1.8661 -1314.8 -401.79)" d="m339.02 154.49h74.161v60.918h-74.161z" fill="#2f4f4f"/>
  <path transform="matrix(-.89393 .0184 -.01874 -.87784 -741.16 -.21167)" d="m-68.864 118.73a76.809 83.431 0 1 1 -153.61 -1.3963l76.799 1.3963z" fill="#2f4f4f"/>
  <path transform="matrix(1.8661 0 0 1.8661 -1314.8 -401.79)" d="m373.45 117.41h6.6215v97.998h-6.6215z" fill="#f5fffa"/>
  <path transform="rotate(90)" d="m-60.369 545.02h12.356v138.39h-12.356z" fill="#f5fffa"/>
  <path transform="rotate(90)" d="m-127.09 542.55h12.356v138.39h-12.356z" fill="#f5fffa"/>
  <g transform="matrix(1.8661 0 0 1.8661 199.37 -321.19)">
   <text transform="matrix(.94551 -.18052 .19483 1.0204 0 0)" x="694.57117" y="-769.32617" fill="#1a1a1a" font-family="Marker Felt" font-size="80.818" letter-spacing="0" word-spacing="0">
    <tspan x="694.57117" y="-769.32617" font-family="LiSong Pro" font-size="72.307" font-weight="bold"/>
   </text>
   <text transform="matrix(.93939 -.17935 .1961 1.0271 0 0)" x="1176.2844" y="-798.56036" font-family="Heiti TC" font-size="81.345" letter-spacing="0" word-spacing="0">
    <tspan x="1176.2844" y="-798.56036"/>
   </text>
   <text transform="matrix(.93939 -.17935 .1961 1.0271 0 0)" x="1179.653" y="-822.14014" font-family="Heiti TC" font-size="81.345" letter-spacing="0" word-spacing="0">
    <tspan x="1179.653" y="-822.14014"/>
   </text>
   <text transform="matrix(.93939 -.17935 .1961 1.0271 0 0)" x="-154.28976" y="-296.64761" font-family="Heiti TC" font-size="81.345" letter-spacing="0" word-spacing="0">
    <tspan x="-154.28976" y="-296.64761"/>
   </text>
   <g transform="matrix(1.3225 0 0 1.3225 -289.72 -1295.5)">
    <path d="m-137.95 1669.6c5.9307 18.912 12.95 41.135 13.652 76.826h9.2938c-0.0585-21.836 2.2348-45.024 18.637-74.855-9.1596 14.99-18.132 30.598-22.635 60.954-9.3414-45.884-13.139-48.592-18.949-62.925z" fill="#788444"/>
    <path d="m-372.85 1668.2c5.9307 18.912 12.95 41.135 13.652 76.826h9.2938c-0.0585-21.836 2.2348-45.024 18.637-74.855-9.1596 14.99-18.132 30.598-22.635 60.954-9.3414-45.884-13.139-48.592-18.949-62.925z" fill="#788444"/>
    <path d="m-388.82 1673.2c33.195 4.0788 47.245 35.692 47.319 70.578h8.9113c4.1634-15.662 13.802-32.981 40.725-34.398-20.184-2.7177-30.842 2.2484-43.666 24.417-10.825-50.708-32.838-59.992-53.29-60.597z" fill="#008000"/>
    <path d="m-231.29 1667.4c5.9307 18.912 12.95 41.135 13.652 76.826h9.2938c-0.0585-21.836 2.2348-45.024 18.637-74.855-9.1596 14.99-18.132 30.598-22.635 60.954-9.3414-45.884-13.139-48.592-18.949-62.924z" fill="#788444"/>
    <path d="m-308.43 1666c5.9307 18.912 12.95 41.135 13.652 76.826h9.2938c-0.0585-21.836 2.2348-45.024 18.637-74.855-9.1596 14.99-18.132 30.598-22.635 60.954-9.3414-45.884-13.139-48.592-18.949-62.925z" fill="#788444"/>
    <path d="m-401.47 1684.4c34.21 3.4363 48.69 30.071 48.766 59.462h9.1838c4.2907-13.195 14.224-27.787 41.97-28.98-20.801-2.2896-31.785 1.8943-45 20.572-11.156-42.722-33.842-50.543-54.919-51.054z" fill="#008000"/>
    <path d="m-348.56 1667.8c5.9307 18.912 12.95 41.135 13.652 76.826h9.2938c-0.0585-21.836 2.2348-45.024 18.637-74.855-9.1596 14.99-18.132 30.598-22.635 60.954-9.3414-45.884-13.139-48.592-18.949-62.925z" fill="#788444"/>
    <path d="m-310.57 1667.2c5.1909 18.912 11.334 41.135 11.949 76.826h8.1344c-0.0512-21.836 1.956-45.024 16.312-74.855-8.017 14.99-15.87 30.598-19.811 60.954-8.1762-45.884-11.5-48.592-16.585-62.924z" fill="#788444"/>
    <path d="m-181.81 1697.8c5.9307 11.798 12.95 25.661 13.652 47.927h9.2938c-0.0585-13.622 2.2348-28.088 18.637-46.697-9.1596 9.351-18.132 19.088-22.635 38.025-9.3414-28.624-13.139-30.313-18.949-39.254z" fill="#788444"/>
    <path d="m-273.37 1673.2c33.195 4.0787 47.245 35.692 47.319 70.578h8.9113c4.1634-15.662 13.802-32.981 40.725-34.398-20.184-2.7176-30.842 2.2484-43.666 24.417-10.825-50.708-32.838-59.991-53.29-60.597z" fill="#008000"/>
    <path d="m-204.83 1667.6c5.9307 18.912 12.95 41.135 13.652 76.826h9.2938c-0.0585-21.836 2.2348-45.024 18.637-74.855-9.1596 14.99-18.132 30.598-22.635 60.954-9.3414-45.884-13.139-48.592-18.949-62.925z" fill="#788444"/>
    <path d="m-229.7 1674.1c33.195 4.0787 47.245 35.692 47.319 70.578h8.9113c4.1634-15.662 13.802-32.981 40.725-34.398-20.184-2.7176-30.842 2.2485-43.666 24.417-10.825-50.708-32.838-59.991-53.29-60.597z" fill="#008000"/>
    <path d="m-348.56 1667.8c5.9307 18.912 12.95 41.135 13.652 76.826h9.2938c-0.0585-21.836 2.2348-45.024 18.637-74.855-9.1596 14.99-18.132 30.598-22.635 60.954-9.3414-45.884-13.139-48.592-18.949-62.925z" fill="#788444"/>
    <path d="m-348.56 1667.8c5.9307 18.912 12.95 41.135 13.652 76.826h9.2938c-0.0585-21.836 2.2348-45.024 18.637-74.855-9.1596 14.99-18.132 30.598-22.635 60.954-9.3414-45.884-13.139-48.592-18.949-62.925z" fill="#788444"/>
    <path d="m-232.34 1697.4c10.047 12.203 20.415 23.434 20.853 46.161h22.457c1.4237-19.377 9.5624-37.074 42.418-27.982-16.587-7.2714-37.561-8.9653-46.339 20.674 0.024-29.053 7.5935-49.112 19.961-63.449-13.931 13.183-23.37 32.811-26.378 61.667-13.619-53.854-25.426-61.858-38.14-77.707 14.516 19.69 29.44 41.838 31.368 78.063-9.3618-23.299-17.291-29.105-26.199-37.427z" fill="#3c5c24"/>
    <path d="m-339.6 1704.6c10.047 10.374 20.415 19.922 20.853 39.244h22.457c1.4237-16.474 9.5624-31.519 42.418-23.789-16.587-6.182-37.561-7.622-46.339 17.577 0.024-24.7 7.5935-41.753 19.961-53.942-13.931 11.208-23.37 27.895-26.378 52.427-13.619-45.785-25.426-52.589-38.141-66.064 14.516 16.74 29.44 35.569 31.368 66.367-9.3618-19.808-17.291-24.744-26.199-31.819z" fill="#3c5c24"/>
    <path d="m-310.56 1672.9c33.195 4.0787 47.245 35.692 47.319 70.578h8.9113c4.1635-15.662 13.802-32.981 40.725-34.398-20.184-2.7176-30.842 2.2485-43.666 24.417-10.825-50.708-32.838-59.992-53.29-60.597z" fill="#008000"/>
    <path d="m-337.32 1703.7c4.7542 10.856 9.6606 20.848 9.8678 41.068h10.627c0.6737-17.239 4.5251-32.983 20.073-24.894-7.8492-6.4692-17.775-7.9762-21.928 18.393 0.0113-25.848 3.5934-43.693 9.446-56.448-6.5925 11.728-11.059 29.191-12.482 54.863-6.445-47.912-12.032-55.033-18.049-69.133 6.8694 17.518 13.931 37.222 14.844 69.45-4.4302-20.729-8.1826-25.894-12.398-33.298z" fill="#3c5c24"/>
    <path d="m-277.86 1708.8c10.047 8.9731 20.415 17.232 20.853 33.944h22.457c1.4237-14.249 9.5624-27.262 42.418-20.576-16.587-5.347-37.561-6.5925-46.339 15.203 0.024-21.364 7.5935-36.114 19.961-46.656-13.931 9.6938-23.37 24.128-26.378 45.346-13.619-39.601-25.426-45.486-38.141-57.141 14.516 14.479 29.44 30.765 31.368 57.403-9.3618-17.133-17.291-21.402-26.199-27.522z" fill="#3c5c24"/>
    <path d="m-249.1 1676.7c5.9307 16.078 12.95 34.972 13.652 65.315h9.2938c-0.0585-18.564 2.2348-38.278 18.637-63.639-9.1596 12.744-18.132 26.013-22.635 51.821-9.3414-39.009-13.139-41.311-18.949-53.496z" fill="#008000"/>
    <path d="m-188.64 1667.8c5.9307 18.912 12.95 41.135 13.652 76.826h9.2937c-0.0584-21.836 2.2348-45.024 18.637-74.855-9.1595 14.99-18.132 30.598-22.635 60.954-9.3414-45.884-13.139-48.592-18.949-62.925z" fill="#788444"/>
    <path d="m-286.89 1690.4c5.9307 13.257 12.95 28.835 13.652 53.855h9.2938c-0.0585-15.307 2.2348-31.562 18.637-52.473-9.1596 10.508-18.132 21.449-22.635 42.728-9.3414-32.164-13.139-34.062-18.949-44.11z" fill="#788444"/>
    <path d="m-309.73 1709.6c10.047 8.9731 20.415 17.232 20.853 33.944h22.457c1.4237-14.249 9.5624-27.262 42.418-20.576-16.587-5.347-37.561-6.5926-46.339 15.203 0.024-21.364 7.5935-36.114 19.961-46.656-13.931 9.6938-23.37 24.128-26.378 45.346-13.619-39.601-25.426-45.486-38.141-57.141 14.516 14.479 29.44 30.765 31.368 57.403-9.3618-17.133-17.291-21.402-26.199-27.522z" fill="#3c5c24"/>
    <path d="m-174.54 1698.9c10.047 12.203 20.415 23.434 20.853 46.161h22.457c1.4237-19.377 9.5624-37.074 42.418-27.982-16.587-7.2715-37.561-8.9653-46.339 20.674 0.0241-29.053 7.5935-49.112 19.961-63.449-13.931 13.183-23.37 32.811-26.378 61.667-13.619-53.854-25.426-61.858-38.141-77.707 14.516 19.69 29.44 41.838 31.368 78.063-9.3618-23.299-17.291-29.105-26.199-37.428z" fill="#3c5c24"/>
    <path d="m-182.27 1711.8c10.047 8.9731 20.415 17.232 20.853 33.944h22.457c1.4237-14.249 9.5624-27.262 42.418-20.576-16.587-5.347-37.561-6.5926-46.339 15.203 0.024-21.364 7.5935-36.114 19.961-46.657-13.931 9.6938-23.37 24.128-26.378 45.346-13.619-39.601-25.426-45.486-38.141-57.141 14.516 14.479 29.44 30.765 31.368 57.403-9.3618-17.133-17.291-21.402-26.199-27.522z" fill="#3c5c24"/>
    <path d="m-146.1 1680.4c5.9307 16.078 12.95 34.972 13.652 65.315h9.2938c-0.0585-18.564 2.2348-38.278 18.637-63.639-9.1596 12.744-18.132 26.013-22.635 51.821-9.3414-39.009-13.139-41.311-18.949-53.496z" fill="#008000"/>
    <path d="m-167.31 1672.6c33.195 4.0786 47.245 35.692 47.319 70.578h8.9113c4.1634-15.662 13.802-32.981 40.725-34.398-20.184-2.7176-30.842 2.2485-43.665 24.417-10.825-50.708-32.838-59.991-53.29-60.597z" fill="#008000"/>
    <path d="m-126.26 1666.3c5.9307 18.912 12.95 41.135 13.652 76.826h9.2938c-0.0585-21.836 2.2348-45.024 18.637-74.855-9.1596 14.99-18.132 30.598-22.635 60.954-9.3414-45.884-13.139-48.592-18.949-62.925z" fill="#788444"/>
    <path d="m-374.94 1741.4h283.81v5.9281h-283.81z" fill="#fff"/>
   </g>
  </g>
  <g transform="matrix(1.8661 0 0 1.8661 822.14 -321.19)">
   <text transform="matrix(.94551 -.18052 .19483 1.0204 0 0)" x="694.57117" y="-769.32617" fill="#1a1a1a" font-family="Marker Felt" font-size="80.818" letter-spacing="0" word-spacing="0">
    <tspan x="694.57117" y="-769.32617" font-family="LiSong Pro" font-size="72.307" font-weight="bold"/>
   </text>
   <text transform="matrix(.93939 -.17935 .1961 1.0271 0 0)" x="1176.2844" y="-798.56036" font-family="Heiti TC" font-size="81.345" letter-spacing="0" word-spacing="0">
    <tspan x="1176.2844" y="-798.56036"/>
   </text>
   <text transform="matrix(.93939 -.17935 .1961 1.0271 0 0)" x="1179.653" y="-822.14014" font-family="Heiti TC" font-size="81.345" letter-spacing="0" word-spacing="0">
    <tspan x="1179.653" y="-822.14014"/>
   </text>
   <text transform="matrix(.93939 -.17935 .1961 1.0271 0 0)" x="-154.28976" y="-296.64761" font-family="Heiti TC" font-size="81.345" letter-spacing="0" word-spacing="0">
    <tspan x="-154.28976" y="-296.64761"/>
   </text>
   <g transform="matrix(1.3225 0 0 1.3225 -289.72 -1295.5)">
    <path d="m-137.95 1669.6c5.9307 18.912 12.95 41.135 13.652 76.826h9.2938c-0.0585-21.836 2.2348-45.024 18.637-74.855-9.1596 14.99-18.132 30.598-22.635 60.954-9.3414-45.884-13.139-48.592-18.949-62.925z" fill="#788444"/>
    <path d="m-372.85 1668.2c5.9307 18.912 12.95 41.135 13.652 76.826h9.2938c-0.0585-21.836 2.2348-45.024 18.637-74.855-9.1596 14.99-18.132 30.598-22.635 60.954-9.3414-45.884-13.139-48.592-18.949-62.925z" fill="#788444"/>
    <path d="m-388.82 1673.2c33.195 4.0788 47.245 35.692 47.319 70.578h8.9113c4.1634-15.662 13.802-32.981 40.725-34.398-20.184-2.7177-30.842 2.2484-43.666 24.417-10.825-50.708-32.838-59.992-53.29-60.597z" fill="#008000"/>
    <path d="m-231.29 1667.4c5.9307 18.912 12.95 41.135 13.652 76.826h9.2938c-0.0585-21.836 2.2348-45.024 18.637-74.855-9.1596 14.99-18.132 30.598-22.635 60.954-9.3414-45.884-13.139-48.592-18.949-62.924z" fill="#788444"/>
    <path d="m-308.43 1666c5.9307 18.912 12.95 41.135 13.652 76.826h9.2938c-0.0585-21.836 2.2348-45.024 18.637-74.855-9.1596 14.99-18.132 30.598-22.635 60.954-9.3414-45.884-13.139-48.592-18.949-62.925z" fill="#788444"/>
    <path d="m-401.47 1684.4c34.21 3.4363 48.69 30.071 48.766 59.462h9.1838c4.2907-13.195 14.224-27.787 41.97-28.98-20.801-2.2896-31.785 1.8943-45 20.572-11.156-42.722-33.842-50.543-54.919-51.054z" fill="#008000"/>
    <path d="m-348.56 1667.8c5.9307 18.912 12.95 41.135 13.652 76.826h9.2938c-0.0585-21.836 2.2348-45.024 18.637-74.855-9.1596 14.99-18.132 30.598-22.635 60.954-9.3414-45.884-13.139-48.592-18.949-62.925z" fill="#788444"/>
    <path d="m-310.57 1667.2c5.1909 18.912 11.334 41.135 11.949 76.826h8.1344c-0.0512-21.836 1.956-45.024 16.312-74.855-8.017 14.99-15.87 30.598-19.811 60.954-8.1762-45.884-11.5-48.592-16.585-62.924z" fill="#788444"/>
    <path d="m-181.81 1697.8c5.9307 11.798 12.95 25.661 13.652 47.927h9.2938c-0.0585-13.622 2.2348-28.088 18.637-46.697-9.1596 9.351-18.132 19.088-22.635 38.025-9.3414-28.624-13.139-30.313-18.949-39.254z" fill="#788444"/>
    <path d="m-273.37 1673.2c33.195 4.0787 47.245 35.692 47.319 70.578h8.9113c4.1634-15.662 13.802-32.981 40.725-34.398-20.184-2.7176-30.842 2.2484-43.666 24.417-10.825-50.708-32.838-59.991-53.29-60.597z" fill="#008000"/>
    <path d="m-204.83 1667.6c5.9307 18.912 12.95 41.135 13.652 76.826h9.2938c-0.0585-21.836 2.2348-45.024 18.637-74.855-9.1596 14.99-18.132 30.598-22.635 60.954-9.3414-45.884-13.139-48.592-18.949-62.925z" fill="#788444"/>
    <path d="m-229.7 1674.1c33.195 4.0787 47.245 35.692 47.319 70.578h8.9113c4.1634-15.662 13.802-32.981 40.725-34.398-20.184-2.7176-30.842 2.2485-43.666 24.417-10.825-50.708-32.838-59.991-53.29-60.597z" fill="#008000"/>
    <path d="m-348.56 1667.8c5.9307 18.912 12.95 41.135 13.652 76.826h9.2938c-0.0585-21.836 2.2348-45.024 18.637-74.855-9.1596 14.99-18.132 30.598-22.635 60.954-9.3414-45.884-13.139-48.592-18.949-62.925z" fill="#788444"/>
    <path d="m-348.56 1667.8c5.9307 18.912 12.95 41.135 13.652 76.826h9.2938c-0.0585-21.836 2.2348-45.024 18.637-74.855-9.1596 14.99-18.132 30.598-22.635 60.954-9.3414-45.884-13.139-48.592-18.949-62.925z" fill="#788444"/>
    <path d="m-232.34 1697.4c10.047 12.203 20.415 23.434 20.853 46.161h22.457c1.4237-19.377 9.5624-37.074 42.418-27.982-16.587-7.2714-37.561-8.9653-46.339 20.674 0.024-29.053 7.5935-49.112 19.961-63.449-13.931 13.183-23.37 32.811-26.378 61.667-13.619-53.854-25.426-61.858-38.14-77.707 14.516 19.69 29.44 41.838 31.368 78.063-9.3618-23.299-17.291-29.105-26.199-37.427z" fill="#3c5c24"/>
    <path d="m-339.6 1704.6c10.047 10.374 20.415 19.922 20.853 39.244h22.457c1.4237-16.474 9.5624-31.519 42.418-23.789-16.587-6.182-37.561-7.622-46.339 17.577 0.024-24.7 7.5935-41.753 19.961-53.942-13.931 11.208-23.37 27.895-26.378 52.427-13.619-45.785-25.426-52.589-38.141-66.064 14.516 16.74 29.44 35.569 31.368 66.367-9.3618-19.808-17.291-24.744-26.199-31.819z" fill="#3c5c24"/>
    <path d="m-310.56 1672.9c33.195 4.0787 47.245 35.692 47.319 70.578h8.9113c4.1635-15.662 13.802-32.981 40.725-34.398-20.184-2.7176-30.842 2.2485-43.666 24.417-10.825-50.708-32.838-59.992-53.29-60.597z" fill="#008000"/>
    <path d="m-337.32 1703.7c4.7542 10.856 9.6606 20.848 9.8678 41.068h10.627c0.6737-17.239 4.5251-32.983 20.073-24.894-7.8492-6.4692-17.775-7.9762-21.928 18.393 0.0113-25.848 3.5934-43.693 9.446-56.448-6.5925 11.728-11.059 29.191-12.482 54.863-6.445-47.912-12.032-55.033-18.049-69.133 6.8694 17.518 13.931 37.222 14.844 69.45-4.4302-20.729-8.1826-25.894-12.398-33.298z" fill="#3c5c24"/>
    <path d="m-277.86 1708.8c10.047 8.9731 20.415 17.232 20.853 33.944h22.457c1.4237-14.249 9.5624-27.262 42.418-20.576-16.587-5.347-37.561-6.5925-46.339 15.203 0.024-21.364 7.5935-36.114 19.961-46.656-13.931 9.6938-23.37 24.128-26.378 45.346-13.619-39.601-25.426-45.486-38.141-57.141 14.516 14.479 29.44 30.765 31.368 57.403-9.3618-17.133-17.291-21.402-26.199-27.522z" fill="#3c5c24"/>
    <path d="m-249.1 1676.7c5.9307 16.078 12.95 34.972 13.652 65.315h9.2938c-0.0585-18.564 2.2348-38.278 18.637-63.639-9.1596 12.744-18.132 26.013-22.635 51.821-9.3414-39.009-13.139-41.311-18.949-53.496z" fill="#008000"/>
    <path d="m-188.64 1667.8c5.9307 18.912 12.95 41.135 13.652 76.826h9.2937c-0.0584-21.836 2.2348-45.024 18.637-74.855-9.1595 14.99-18.132 30.598-22.635 60.954-9.3414-45.884-13.139-48.592-18.949-62.925z" fill="#788444"/>
    <path d="m-286.89 1690.4c5.9307 13.257 12.95 28.835 13.652 53.855h9.2938c-0.0585-15.307 2.2348-31.562 18.637-52.473-9.1596 10.508-18.132 21.449-22.635 42.728-9.3414-32.164-13.139-34.062-18.949-44.11z" fill="#788444"/>
    <path d="m-309.73 1709.6c10.047 8.9731 20.415 17.232 20.853 33.944h22.457c1.4237-14.249 9.5624-27.262 42.418-20.576-16.587-5.347-37.561-6.5926-46.339 15.203 0.024-21.364 7.5935-36.114 19.961-46.656-13.931 9.6938-23.37 24.128-26.378 45.346-13.619-39.601-25.426-45.486-38.141-57.141 14.516 14.479 29.44 30.765 31.368 57.403-9.3618-17.133-17.291-21.402-26.199-27.522z" fill="#3c5c24"/>
    <path d="m-174.54 1698.9c10.047 12.203 20.415 23.434 20.853 46.161h22.457c1.4237-19.377 9.5624-37.074 42.418-27.982-16.587-7.2715-37.561-8.9653-46.339 20.674 0.0241-29.053 7.5935-49.112 19.961-63.449-13.931 13.183-23.37 32.811-26.378 61.667-13.619-53.854-25.426-61.858-38.141-77.707 14.516 19.69 29.44 41.838 31.368 78.063-9.3618-23.299-17.291-29.105-26.199-37.428z" fill="#3c5c24"/>
    <path d="m-182.27 1711.8c10.047 8.9731 20.415 17.232 20.853 33.944h22.457c1.4237-14.249 9.5624-27.262 42.418-20.576-16.587-5.347-37.561-6.5926-46.339 15.203 0.024-21.364 7.5935-36.114 19.961-46.657-13.931 9.6938-23.37 24.128-26.378 45.346-13.619-39.601-25.426-45.486-38.141-57.141 14.516 14.479 29.44 30.765 31.368 57.403-9.3618-17.133-17.291-21.402-26.199-27.522z" fill="#3c5c24"/>
    <path d="m-146.1 1680.4c5.9307 16.078 12.95 34.972 13.652 65.315h9.2938c-0.0585-18.564 2.2348-38.278 18.637-63.639-9.1596 12.744-18.132 26.013-22.635 51.821-9.3414-39.009-13.139-41.311-18.949-53.496z" fill="#008000"/>
    <path d="m-167.31 1672.6c33.195 4.0786 47.245 35.692 47.319 70.578h8.9113c4.1634-15.662 13.802-32.981 40.725-34.398-20.184-2.7176-30.842 2.2485-43.665 24.417-10.825-50.708-32.838-59.991-53.29-60.597z" fill="#008000"/>
    <path d="m-126.26 1666.3c5.9307 18.912 12.95 41.135 13.652 76.826h9.2938c-0.0585-21.836 2.2348-45.024 18.637-74.855-9.1596 14.99-18.132 30.598-22.635 60.954-9.3414-45.884-13.139-48.592-18.949-62.925z" fill="#788444"/>
    <path d="m-374.94 1741.4h283.81v5.9281h-283.81z" fill="#fff"/>
   </g>
  </g>
 </g>
 <g fill="#006400">
  <g fill="#006400">
   <g fill="#006400">
    <g fill="#006400">
     <g fill="#006400">
      <g fill="#006400">
       <g fill="#006400">
        <g fill="#006400">
         <g transform="matrix(.03425 -.0258 -.0275 -.0399 685.1 572.65)" fill="#006400">
          <path d="m79.486 3712.2c-150.66-195-943.77-319.31-1345.7-281.81-595.23 55.659-772.06 310.7-753.02 546.41 25.436 312.49 271.89 393.11 565.45 368.92 493.91-40.603 1108-838.77 1533.3-633.51z" fill="#006400" fill-rule="evenodd" opacity=".9"/>
         </g>
        </g>
       </g>
      </g>
     </g>
    </g>
   </g>
  </g>
 </g>
 <g fill="#006400">
  <g fill="#006400">
   <g fill="#006400">
    <g fill="#006400">
     <g fill="#006400">
      <g fill="#006400">
       <g fill="#006400">
        <g fill="#006400">
         <g transform="matrix(.03133 -.01328 .01648 .04207 480.53 248.25)" fill="#006400">
          <path d="m79.486 3712.2c-150.66-195-943.77-319.31-1345.7-281.81-595.23 55.659-772.06 310.7-753.02 546.41 25.436 312.49 271.89 393.11 565.45 368.92 493.91-40.603 1108-838.77 1533.3-633.51z" fill="#006400" fill-rule="evenodd" opacity=".9"/>
         </g>
        </g>
       </g>
      </g>
     </g>
    </g>
   </g>
  </g>
 </g>
 <g transform="matrix(.52388 1.5532e-9 -1.5532e-9 .52388 240.9 252.09)">
  <g fill="#f08080">
   <path transform="matrix(.79454 .48747 -.51076 .75832 321.5 66.673)" d="m355.93 328.94a57.838 77.414 0 1 1 -115.68 0 57.838 77.414 0 1 1 115.68 0z"/>
   <path transform="matrix(.73044 -.55905 .57998 .70408 71.732 396.48)" d="m355.93 328.94a57.838 77.414 0 1 1 -115.68 0 57.838 77.414 0 1 1 115.68 0z"/>
   <path transform="matrix(.37998 -.81061 .87324 .35273 -22.383 522.34)" d="m355.93 328.94a57.838 77.414 0 1 1 -115.68 0 57.838 77.414 0 1 1 115.68 0z"/>
   <path transform="matrix(.81538 0 0 .83908 190.82 69.755)" d="m355.93 328.94a57.838 77.414 0 1 1 -115.68 0 57.838 77.414 0 1 1 115.68 0z"/>
   <path transform="matrix(.49336 .75586 -.75428 .49438 591.84 11.064)" d="m355.93 328.94a57.838 77.414 0 1 1 -115.68 0 57.838 77.414 0 1 1 115.68 0z"/>
  </g>
  <g fill="#fff">
   <path transform="matrix(.46881 .28763 -.30137 .44744 365.9 211.4)" d="m355.93 328.94a57.838 77.414 0 1 1 -115.68 0 57.838 77.414 0 1 1 115.68 0z"/>
   <path transform="matrix(.43099 -.32986 .34221 .41543 218.53 406.01)" d="m355.93 328.94a57.838 77.414 0 1 1 -115.68 0 57.838 77.414 0 1 1 115.68 0z"/>
   <path transform="matrix(.22421 -.47829 .51524 .20813 162.99 480.26)" d="m355.93 328.94a57.838 77.414 0 1 1 -115.68 0 57.838 77.414 0 1 1 115.68 0z"/>
   <path transform="matrix(.48111 0 0 .49509 288.79 213.22)" d="m355.93 328.94a57.838 77.414 0 1 1 -115.68 0 57.838 77.414 0 1 1 115.68 0z"/>
   <path transform="matrix(.2911 .44598 -.44506 .29171 525.41 178.59)" d="m355.93 328.94a57.838 77.414 0 1 1 -115.68 0 57.838 77.414 0 1 1 115.68 0z"/>
  </g>
  <path d="m461.66 419.67a28.082 25.445 0 0 1 -56.163 0 28.082 25.445 0 1 1 56.163 0z" fill="#f0e060"/>
 </g>
</svg>
