<?xml version="1.0" encoding="UTF-8"?>
<svg viewBox="0 0 439.20163 608.06152" xmlns="http://www.w3.org/2000/svg">
 <g transform="translate(-107.79 -201.65)">
  <path d="m121.08 370.27c0-1.3549 4.1049-23.346 7.2399-37.647 3.2286-14.728 3.3182-15.203 3.7107-16.708 0.17666-0.67734 21.918-19.312 31.761-25.763 11.626-7.6202 44.294-23.627 45.608-22.313 0.199 0.19901-1.5842 7.678-3.1557 15.974s-4.1133 23.971-5.6485 34.026l-2.9232 18.81-11.461 3.4743c-20.344 6.4647-39.074 14.601-54.666 23.889-9.9123 5.9043-10.465 6.6515-10.465 6.2579z" fill="#efa"/>
  <path d="m198.19 336.2c-0.0712-1.0016 10.466-67.326 11.82-68.2 1.4243-0.91966 14.41-5.3328 23.73-7.6385 11.274-2.7892 22.802-4.3347 40.043-6.0735 12.879-1.2989 14.754-1.5677 14.635-1.0661-0.19137 0.80539-6.6903 28.595-8.8232 42.285-1.4413 9.2513-2.2298 18.126-2.5592 20.207l-0.59891 4.5744-21.81 3.9899c-23.065 4.2337-43.523 8.5191-51.301 10.874-4.6206 1.399-5.1465 1.4088-5.1352 1.0481z" fill="#afc6e9"/>
  <path d="m276.16 320.51c0.22456-0.80949 1.0492-6.1192 1.3483-8.8946 0.98071-9.0992 5.5221-34.829 8.1578-46.429l2.7155-12.294 13.066-1.8407c16.088-2.672 34.25-7.0928 53.19-13.448 8.6731-2.9103 15.769-5.2209 15.769-5.1347s-1.526 6.8407-3.3911 15.01c-2.7592 12.085-6.668 34.587-9.7381 52.052l-0.39605 3.7964-15.974 4.0626c-22.088 5.2333-55.546 11.416-54.673 11.552 0.59097 0.092-10.314 2.4334-10.074 1.569z" fill="#efa"/>
  <path d="m357.39 299.5c4.4704-26.248 12.428-66.528 13.83-67.878 0.91976-0.88601 20.98-8.3037 43.74-16.41 15.931-5.6742 33.702-10.81 42.159-11.973l4.4208-0.48099-1.7614 5.782c-6.377 20.562-16.54 59.672-18.175 70.239-0.29419 1.9021-0.93964 5.088-1.273 5.6274s-8.2784 1.7029-17.494 3.5539-27.23 5.8714-40.353 9.0956-25.606 6.3903-25.802 6.3903 0.41316-2.2115 0.7086-3.9461z" fill="#aef"/>
  <path d="m440.5 284.47c0.25113-1.0966 1.7845-8.2417 2.9233-13.619 3.6563-17.263 10.138-42.843 15.742-60.842 1.9317-6.2043 2.2321-6.95 2.488-7.1906 0.47155-0.44325 10.665-0.78807 14.828-0.50647 18.36 1.242 25.416 7.396 20.868 16.791-2.98 6.1558-14.102 15.199-23.614 18.839l-4.2804 1.343 0.20938 5.0049c0.2604 3.0432 0.18596 12.824 0.4801 21.412l0.93091 16.672-11.817 0.12124c-6.6445 0.57503-13.99 1.1257-15.516 1.3851-2.5761 0.43784-2.8742 1.6492-3.2425 0.59038z" fill="#efa"/>
  <path d="m473.59 309.69c-0.39611-0.22168-0.9409-8.5119-1.6068-17.939s-1.6018-24.774-1.9186-34.266l-0.57591-17.787 5.9684-2.3491c7.5563-3.4887 15.766-9.3602 19.463-13.99l3.767-5.9721-0.81331 10.836c-1.344 22.638-3.9041 63.444-4.7254 66.657-1.0587 4.1418-6.2469 10.201-11.22 12.576-3.6534 1.7447-8.3378 2.9078-8.3378 2.2336z" fill="#efa"/>
  <path d="m267.64 452.15c0.73931-28.747 1.3773-51.133 2.235-51.958 0.3622-0.34834 17.381-4.402 35.884-9.3308s34.958-8.9663 37.214-9.6177l4.1014-1.1844-0.51073 3.9812c-0.70078 5.4627-2.3171 42.562-3.0047 61.203l-0.56445 15.567-3.2742 0.84425c-1.2198 0.24647-5.2851 0.48445-9.6795 1.1744-13.44 2.1101-38.497 6.9147-50.312 9.6474-6.1623 1.4253-12.209 2.9875-12.47 2.9875s0.0561-10.709 0.38029-23.314z" fill="#afc6e9"/>
  <path d="m187.21 479.62c0.47749-17.81 2.4496-55.646 2.8089-56.113 0.33281-0.43256 44.718-13.601 59.523-17.628 9.4826-2.5792 18.772-5.1212 19.352-5.3262 0.80981-0.28605 0.67169 1.7325 0.27818 6.0715-0.28191 3.1085-0.68174 19.925-1.2113 37.209l-1.0948 31.821-16.112 4.3853c-20.396 5.5973-63.604 20.123-63.56 20.554 0.0653 0.63913-0.53128-0.58459 0.0154-20.974z" fill="#f00"/>
  <path d="m109.07 524.03c0.24355-5.2038 0.65531-18.659 0.915-30.223 0.45997-20.482 0.94159-41.785 1.6866-42.53 1.684-1.684 76.894-27.818 77.576-26.981 0.14915 0.1828-0.14573 5.6485-0.4938 11.662s-1.2621 18.881-1.547 28.595c-0.92594 31.574-0.69788 35.242-0.7636 36.781-0.0253 0.59286-39.104 15.517-56.308 23.027-11.005 4.8046-20.595 9.3959-20.825 9.3959s0.17608-4.9179 0.41962-10.122l-0.66017 0.39612z" fill="#aef"/>
  <path d="m112.73 442.06c1.8896-23.22 7.0932-66.849 8.4152-71.209 0.98552-3.2497 27.92-16.968 47.071-24.455 11.004-4.3018 29.194-10.011 29.811-9.3934 0.22202 0.22202-0.66572 5.4196-1.3272 10.259-1.5562 11.385-4.2256 37.938-5.8852 58.698-0.7206 9.0147-1.0513 17.146-1.3804 17.423s-10.359 3.0574-20.998 6.6614c-16.704 5.6588-35.47 12.531-51.518 18.866l-5.0805 2.1411 0.49536-5.4269 0.39611-3.565z" fill="#0055d4"/>
  <path d="m189.74 423.16c3e-3 -2.3569 2.7456-37.899 3.9786-49.99 2.4808-24.327 3.5155-35.571 4.5921-36.236 3.258-2.0136 76.917-17.36 77.899-16.221 0.0962 0.11163-1.3587 9.3785-2.4263 19.786-1.7806 17.359 0.0274 57.797-4.4589 59.769-2.6408 1.1608-0.88647-0.1157-15.06 3.7181-13.341 3.6085-44.406 12.903-58.476 17.277-2.891 0.89879-5.6525 1.4422-5.6524 1.369l-0.39612 0.52815z" fill="#faa"/>
  <path d="m270.04 392.65c3.2e-4 -9.5646 5.7102-70.994 6.6183-71.918 0.17365-0.17677 6.8177-1.3812 14.119-2.6766 16-2.8385 32.812-6.3895 51.2-10.757 7.5167-1.7855 14.359-3.7144 14.318-3.1314-0.0347 0.48873-0.75887 6.162-1.6755 12.101-2.0804 13.479-4.961 42.362-5.7225 52.597-0.31535 4.2382-1.0934 9.4403-1.4061 9.9464s-17.249 5.1268-37.153 10.43-39.72 10.543-40.488 10.837c-1.2014 0.46104-0.47067-2.6568 0.0576-5.1828l0.13204-2.2447z" fill="#87deaa"/>
  <path d="m348.23 372.49c1.7087-19.292 7.7333-67.934 8.6454-68.747 1.4193-1.2662 79.239-18.702 83.439-18.702 1.3178 0-0.80551 1.3647-2.2655 8.9922-2.2454 11.73-6.6208 46.08-7.8295 58.546l-1.2922 11.396-2.86 0.23053c-1.4278 0.19941-6.8414 0.11968-12.03 0.62972-12.542 1.2328-28.461 4.2879-46.914 9.0034-8.3262 2.1277-19.158 6.5854-19.205 5.486-0.0952-2.2138 0.16145-0.79179 0.70835-6.9664l-0.39612 0.13204z" fill="#e580ff"/>
  <path d="m468.27 365.29c-3.9318-0.60137-14.262-1.375-22.955-1.7191l-16.335 0.43057 0.1497-4.0272c0.22758-1.1983 0.65179-4.3569 0.94269-7.8262 1.3541-16.149 9.2592-66.014 10.596-67.193 1.0558-0.93127 15.543-2.4331 22.969-2.432l7.6946 1e-3 0.47567 4.8115c0.26162 2.4285 0.2131 10.678 0.69908 17.847s1.813 23.486 2.949 36.258 2.3294 24.577 2.3294 25.104c0 1.1045-0.0996 0.18607-9.5154-1.254v7e-5z" fill="#0055d4"/>
  <path d="m479.46 379.02c-1.3932-12.181-5.8306-58.449-5.8344-61.705-2e-3 -2.0434-0.52696-5.6044 0.41233-6.6952 0.66352-0.77056 13.329-5.2967 16.033-8.4895l3.0249-4.9763-0.76674 13.07c-0.27645 6.2446-0.7247 24.411-0.9961 40.369-0.29086 17.103 0.32931 28.394-0.19556 29.776-0.9231 2.4309-2.3616 5.6597-6.2916 6.7868l-4.4099 0.65886-0.97572-8.7948z" fill="#0055d4"/>
  <path d="m484.93 427.34c-2.1948-18.849-3.1-27.918-3.3028-29.19-0.28958-1.8169-1.358-9.5749-1.2017-9.839 0.43251-0.73059 5.1658-0.8027 6.8493-1.9452l4.1173-4.1898-0.39612 40.774c0 21.264 0.0993 43.862-0.90571 43.943-0.65234 0.053-2.9655-20.704-5.1603-39.553z" fill="#aef"/>
  <path d="m478.41 451.05c-2.7754-0.43408-16.002-1.1772-29.069-1.006l-24.551 1.2357 0.14424-13.879c0.0196-21.044 1.1472-73.478 4.2573-73.323 0.81429 0.0405 2.5291-1.0323 14.91-0.4828 11.057 0.49075 33.358 2.8101 34.081 3.5254 1.0195 1.0091 1.3144 10.877 2.079 18.795 0.67958 7.0384 2.0042 18.542 4.7452 41.21 1.3704 11.333 3.1533 24.626 3.1552 25.666 4e-3 2.1302-1.4974-0.45184-9.7516-1.7428z" fill="#aef"/>
  <path d="m493.02 564.02c-0.19274-0.17984-13.28-0.39351-30.857-0.95894s-31.914 0.52425-32.46-0.88072c-1.4903-3.8347-1.1142-9.9172-1.8632-21.25-1.9859-30.047-3.452-61.554-3.1559-75.981l0.25894-13.144 11.99-1.0779c12.869-0.80246 38.462-0.16073 45.752 1.1525l5.3828 1.0541 1.1805 9.792c2.0825 18.663 15.612 95.37 18.12 101.91 0.42191 1.0995-1.2546 0.11056-6.5513 0.11056-3.4416 0-6.6793-0.67529-7.7963-0.72311z" fill="#87deaa"/>
  <path d="m344.79 557.36c-0.0272-3.8616-1.1565-19.889-1.5414-35.616s-0.62776-34.974-0.37839-43.578l-0.0747-17.227 11.449-1.2932c23.748-3.6251 69.734-8.8216 70.442-8.0003 0.16231 0.1883-0.58116 15.895-0.0383 33.935 0.88236 29.325 3.1191 59.984 4.4133 71.062l0.46671 5.9754-16.326-0.25038c-17.436 0.0151-54.757 1.1836-62.338 2.0132l-6.0242 1e-3 -0.0494-7.021 2e-5 1e-5z" fill="#f00"/>
  <path d="m267.67 567.31c-0.289-2.765-0.6575-24.258-0.6575-47.922l0.26408-43.687 14.615-3.3885c15.633-3.4674 47.349-9.2539 55.328-10.157l5.675-0.97842-0.17688 37.117c0.048 19.834 0.86554 42.779 1.1713 50.991 0.48242 12.956 1.5775 15.326 0.4827 15.328-6.4592 0.0123-57.809 5.4747-71.142 7.5823l-5.6955 0.67074 0.79493-5.5555h-0.66015z" fill="#faa"/>
  <path d="m187.8 590.91c-0.24033-0.62627-0.79144-22.02-0.90194-45.766l-0.0689-43.835 5.7064-2.3383c13.669-5.6186 70.378-23.021 74.555-23.01 0.46121 1e-3 -0.4562 20.194-0.32544 48.691l1.012 48.161-3.9556 0.25926c-25.661 4.2453-58.556 11.774-69.523 15.94-0.5743 0.21814-5.9942 2.2609-6.2345 1.6346l-0.26407 0.26407z" fill="#0055d4"/>
  <path d="m110.83 612.39c-0.9034-15.857-2.2726-77.631-1.6669-78.27 1.3385-1.4128 75.544-33.537 77.221-32.488 0.63333 0.39612-6e-3 16.769 0.38279 42.633 0.34548 23.013 0.82235 45.236 0.89832 46.32 0.12682 1.8088-1.5546 0.21801-13.137 4.2636-20.997 7.3338-43.191 17.257-56.377 25.208-2.7598 1.6641-6.3067 4.2149-6.591 4.2161s0.26519-5.9999-0.07-11.883h-0.66019z" fill="#e580ff"/>
  <path d="m117.63 714.52c-0.95232-8.9585-2.7146-35.374-3.9768-54.851-0.68945-10.639-1.3532-22.016-1.6364-26.251l-0.51489-9.1524 6.6428-3.7032c8.2857-4.8391 31.591-15.635 41.392-19.477 12.173-4.7726 27.578-10.321 28.394-9.8167 0.40086 0.24774 0.0686 5.0485 0.0686 8.8932 0 8.3212 1.777 44.516 3.5295 67.498 1.5467 20.284 3.5302 20.762 2.0642 20.762-1.9549 0-27.553 7.6358-37.396 11.318-10.588 3.9614-23.812 10.994-30.565 15.479-2.5441 1.6895-7.0422 4.6616-7.5751 4.9908-0.66945 0.4136 0.72086-2.744 0.36575-6.0846h-1e-5l-0.79228 0.39612z" fill="#efa"/>
  <path d="m192.71 676.66c-2.5871-35.473-4.6141-68.849-4.6169-78.48l-0.26608-7.0427 10.229-3.0196c17.043-4.9455 69.052-14.96 69.169-14.878 0.49018 0.3451 0.81767-0.46102 0.83487 12.594 0.0132 10.006 1.7443 41.833 3.2881 68.794 0.58272 10.176 2.1174 17.687 0.98179 19.023-5.8712 6.9091-5.6974 0.81995-12.405 1.831-17.574 2.6491-42.072 7.2148-54.298 10.119-5.8127 1.381-11.838 2.9062-11.871 2.7749-2.116-8.3184-0.0917-2.3873-0.38685-6.4347l-0.66005-5.2815z" fill="#afc6e9"/>
  <path d="m272.71 673.59c-0.53015-3.7887-0.77401-7.2303-1.2311-14.631-1.2771-20.678-3.3662-68.726-3.3662-77.421l-0.39612-8.2987 6.7088-1.3007c12.158-2.0922 51.272-6.3144 64.862-6.9644l5.1538 0.0428 0.61456 11.005c1.3096 22.326 2.7185 49.177 4.4314 68.751 0.98324 11.236 2.0167 21.124 1.8124 21.328s-5.7597 0.63545-12.668 1.1195c-22.191 1.5549-56.334 5.2188-62.176 5.8165-1.0591 0.10835-3.7426 0.90861-3.7448 0.55287z" fill="#efa"/>
  <path d="m352.01 665.98c-2e-3 -0.40708-0.34182-9.4052-1.2393-19.35-3.0245-33.515-6.9075-80.851-6.0803-81.804 0.82373-0.9487 38.463-2.1182 61.937-2.1182l22.899-0.13204 0.28765 3.5256c0.23083 1.5033 0.68301 11.059 1.6504 21.236 1.5825 16.648 8.102 67.035 9.3069 73.564l0.48076 3.6616-40.625 0.0137c-22.126 0.29799-41.894 1.3114-44.091 1.6066s-4.5247 0.20359-4.5267-0.20349z" fill="#aef"/>
  <path d="m517.59 668.87c-12.627-1.4628-41.964-2.9666-60.745-3.6792l-15.173-0.43361-0.83902-3.16c-1.8393-10.93-7.9425-62.803-9.5123-80.451-0.49372-5.5508-0.97505-11.437-1.231-13.403l-0.46534-5.2908 15.796 0.31618c17.859 0.0605 61.356 1.3866 62.096 2.1262 0.78933 0.78933 16.75 69.322 21.008 89.313 1.4285 6.7072 3.8536 15.333 3.0714 16.068-1.5497 1.4548 0.46157 0.27064-14.006-1.4054v3e-5z" fill="#efa"/>
  <path d="m496.86 759.16c-15.496-0.39061-30.872-0.91932-34.169-1.1749l-6.6548 0.32748-5.5699-35.002c-7.0524-43.315-9.9672-58.037-8.8607-58.615 1.2152-0.63516 48.703 2.0861 75.229 4.6772l15.828 1.7199 0.32332 4.5105c3.4426 17.169 12.967 80.734 12.967 85.063 0 0.37895-14.049-0.62309-49.092-1.5064z" fill="#0055d4"/>
  <path d="m397.69 757.02-35.124 0.29882-3.5396-27.836c-2.4746-15.479-7.4272-62.175-6.7579-62.824 0.60631-0.58781 52.799-2.186 70.933-2.1838l18.045 0.26607 0.58856 2.841c0.25108 1.272 0.93495 6.5331 1.6811 11.853s3.6556 24.548 6.627 42.729 6.1947 35.056 6.1947 35.724c0 1.0096-3.1401 0.25644-12.752 0.0897-6.3603-0.1103-27.086-0.83191-45.896-0.95804v1e-5z" fill="#e580ff"/>
  <path d="m278.89 755.51c-2e-3 -0.59916-0.3353-3.9801-1.2243-13-2.1711-22.028-5.6669-67.791-5.1752-68.283 1.0313-1.0313 38.633-5.1509 64.151-6.9104 11.287-0.77827 15.06-1.4518 15.06-0.71469 0 2.5493 2.7566 29.706 6.2517 58.099 2.1253 17.265 4.7435 32.492 4.5273 32.708s-12.452 0.35312-25.578 0.78831c-24.395 0.80886-52.311 2.5306-57.256 2.8438-0.71617 0.0454 0.43438 0.11376-0.22862-1.0414l-0.52816-4.4893z" fill="#87deaa"/>
  <path d="m201.23 764.6c-1.9992-14.099-8.2194-75.522-7.2671-75.974 1.8768-0.8911 37.924-8.8231 58.989-12.072 7.6323-1.1773 19.107-3.8986 19.163-2.6457 0.25765 5.7688-0.20145-3.7888 3.091 38.198 1.1789 15.033 2.6173 32.291 3.1964 38.188 0.7149 7.2797 1.5655 10.988 0.9741 10.991-0.47915 2e-3 -10.328 0.67842-20.274 1.8259-17.397 2.0074-41.493 5.8856-51.437 8.2789l-5.5518 1.4096-0.22458-3.1822-0.6602-5.0175z" fill="#faa"/>
  <path d="m123.6 771.32c-1.9619-19.775-4.3146-39.228-4.5827-43.391l-0.88361-7.7013 7.5322-5.146c8.4365-5.5587 18.018-10.238 29.958-14.777 11.053-4.201 37.23-12.06 37.889-11.401 0.24987 0.24987 0.35359 7.4462 1.0374 15.024 1.5253 16.902 3.2393 33.45 5.5076 53.172 0.9492 8.2529 2.3749 15.413 2.2 15.588s-6.5778 1.6214-13.26 3.5371c-24.684 7.0763-42.587 15.722-56.298 27.187-2.5408 2.1246-5.3534 5.1834-5.6046 5.1834s-1.5338-17.5-3.4956-37.274z" fill="#0055d4"/>
  <path d="m343.69 444.27c0.65392-18.721 2.6923-53.181 3.4032-59.705 0.57602-5.2864 0.63135-4.8182 5.2238-6.2486 10.907-3.3971 36.153-9.4128 45.588-11.015 12.365-2.0998 30.113-3.7822 30.824-3.0711 0.28039 0.28039-0.16372 5.5185-0.66415 10.511-0.90717 9.0497-2.2544 35.172-3.1875 61.801l-0.0957 14.434-5.3844 0.57919c-28.025 2.8956-41.281 4.2995-57.139 6.5922l-18.482 2.3142-0.0854-16.191z" fill="#efa"/>
  <path d="m490.74 474.5c19.814 128.97 37.303 143.99 55.68 286.4m-47.313-548.25c-3.3023 86.137-7.5158 21.834-8.3676 262.35 2.8673 16.157-18.942-131.27-21.165-235.77 6.1734-0.50532 42.654-20.684 23.626-33.47-51.901-18.868-123.97 42.105-217.07 48.237-95.288 6.2762-144.22 62.019-144.22 62.019-37.387 152.91-21.14 340.28-4.9221 493.2 59.314-62.209 262.09-53.15 419.5-48.369" fill="none" stroke="#000"/>
  <path d="m120.59 371.14c58.016-38.482 120.75-43.747 181.6-55.267 60.354-11.425 129.72-35.159 168.86-33.331" fill="none" stroke="#000"/>
  <path d="m110.75 451.86c87.324-35.381 166.64-53.049 241.7-73.675 45.272-12.439 78.886-18.88 125.98-10.986" fill="none" stroke="#000"/>
  <path d="m108.29 534.55c102.51-45.837 146.28-60.993 257.32-76.664 27.682-3.9065 95.23-12.308 122.66-5.0438" fill="none" stroke="#000"/>
  <path d="m112.22 624.14c108.3-66.432 289.91-64.972 395.25-59.066" fill="none" stroke="#000"/>
  <path d="m118.13 720.61c58.809-48.256 274.72-67.143 413.95-49.714" fill="none" stroke="#000"/>
  <path d="m209.68 267.28c-32.71 157.51-26.546 348.49-7.3832 506" fill="none" stroke="#000"/>
  <path d="m288.44 253.5c-28.828 111.34-25.412 349.62-8.8598 508.46" fill="none" stroke="#000"/>
  <path d="m371.13 231.84c-41.566 168.34-31.197 357.84-8.3676 526.18" fill="none" stroke="#000"/>
  <path d="m461.7 202.31c-60.577 186.17-35.104 383.85-5.4144 556.2" fill="none" stroke="#000"/>
  <path d="m472.76 310.53c13.628-2.7212 22.973-10.421 20.925-24.339" fill="none" stroke="#000"/>
  <path d="m479.91 387.95c5.9353 0.39256 11.206-3.2691 11.674-9.3097" fill="none" stroke="#000"/>
  <path transform="translate(107.79 201.65)" d="m91.251 70.226c-69.164 199.98 6.7152 338.08 16.618 498.53-13.72 4.7301-33.79 7.5646-54.206 16.368-18.506 7.9797-33.563 22.347-34.365 21.493-2.4692-2.6292-19.265-164.95-17.638-265.59 0.96566-59.734 7.6501-178.34 21.913-224.52 3.419-11.071 53.154-42.629 67.678-46.288z" fill-opacity=".17262"/>
  <path transform="translate(107.79 201.65)" d="m370.25 1.2978-5.1282 35.487c12.527-6.0131 23.527-15.215 25.846-23.384-0.29931-6.8656-5.1606-11.776-20.718-12.102z" fill-opacity=".17262"/>
  <path transform="translate(107.79 201.65)" d="m362.25 60.169c4.9954 71.784 20.22 209.67 20.346 210.6 0.24946 1.8323 7.4653 35.509 8.5764 51.963-32.197-80.83-49.494-167.75-28.923-262.56z" fill-opacity=".17262"/>
 </g>
</svg>
