<?xml version="1.0" encoding="UTF-8"?>
<svg version="1.0" viewBox="0 0 540.90186 461.793" xmlns="http://www.w3.org/2000/svg" xmlns:xlink="http://www.w3.org/1999/xlink">
 <defs>
  <linearGradient id="b">
   <stop stop-color="#787878" offset="0"/>
   <stop offset="1"/>
  </linearGradient>
  <linearGradient id="a">
   <stop stop-color="#e85d5d" offset="0"/>
   <stop stop-color="#602c2c" offset="1"/>
  </linearGradient>
  <linearGradient id="i" x1="307.06" x2="425.34" y1="222.39" y2="222.39" gradientTransform="translate(-287.24 -85.758)" gradientUnits="userSpaceOnUse" xlink:href="#a"/>
  <linearGradient id="j" x1="307.06" x2="425.34" y1="222.39" y2="222.39" gradientUnits="userSpaceOnUse" xlink:href="#a"/>
  <linearGradient id="k" x1="424.18" x2="822.21" y1="247.49" y2="247.49" gradientUnits="userSpaceOnUse" xlink:href="#a"/>
  <linearGradient id="l" x1="424.18" x2="822.21" y1="247.49" y2="247.49" gradientTransform="translate(-287.24 -85.758)" gradientUnits="userSpaceOnUse" xlink:href="#a"/>
  <linearGradient id="m" x1="293.82" x2="823.14" y1="239.86" y2="239.86" gradientUnits="userSpaceOnUse" xlink:href="#b"/>
  <linearGradient id="n" x1="293.82" x2="823.14" y1="293.65" y2="293.65" gradientTransform="translate(-287.24 -85.758)" gradientUnits="userSpaceOnUse" xlink:href="#b"/>
 </defs>
 <g transform="translate(-288.82 67.83)" fill-rule="evenodd">
  <path d="m397.01 264.99-89.246-24.966c4.778-58.686 47.733-76.629 66.936-44.376l49.933-2.4162-27.622 71.759z" fill="url(#j)" stroke="#464646" stroke-width="1.4103"/>
  <path d="m643.75 337.21-209.58-63.725c-47.789-59.635 103.67-116.48 122.07-115.69l194.14 28.201c175.43 57.868-17.934 118.85-106.63 151.22z" fill="url(#k)" stroke="#464646" stroke-width="1.4103"/>
  <path d="m467.11 181.39-115.43 6.6376c-0.55-18.338 100.39-77.24 192.21-32.215l-76.789 25.577z" fill="#8d2929" stroke="#464646" stroke-width="1.4103"/>
  <path d="m525.23 147.89c5.3637-4.2308 53.844 9.5522 34.166 14.291l-84.207 38.636c-37.983 17.431-44.193 47.789-38.331 70.419l-46.402-10.431c-5.0958-5.1286-1.885-42.016 17.595-58.62 30.006-25.568 112.42-55.738 117.18-54.295z" fill="#eeeeec" stroke="#464646" stroke-width="1.4103"/>
  <path d="m389.51 160.63c-8.5932-3.3517 0.5312-48.772-3.5539-47.639l-18.55 5.155 0.78975 49.726-6.4355 3.4081c-0.88377-34.213 0.45128-42.43 0.34786-50.835-12.227 2.3692-18.987 8.0239-19.133 12.1l-2.3786 65.761c0.29146-17.158-4.1471 8.9411-6.7222-4.4611-2.271-11.818 2.3363-62.855 1.2678-62.315-12.359 6.2522-20.755 13.788-21.43 22.757l-2.5183 80.178 331.84 94.126 2.1953-58.596c-4.5646-16.721 3.0321-31.806 17.088-46.67 39.675-20.877 85.025-30.396 130.22-40.249 18.521-3.521 29.051 1.7675 30.603 17.121l-3.3846 121.48-10.436 3.6667 1.2692-43.756-153.82 64.28-1.2034 43.102-13.003-1.1658-1.9132-44.094-327.62-92.692-2.8365 51.733c-0.24256 6.5107-4.8193 8.6825-16.376 3.8735l2.1625-157.87c11.775-43.165 139.9-54.878 152.29-57.985 31.2 0.31435 20.247 37.708 25.883 49.947l-15.193-3.2295c3.6432-20.239 2.8628-46.608-30.405-35.249l0.98248 44.007-6.8727 4.1697-3.6244-45.842-25.197 5.6975-0.15513 52.006-4.2026-1.6359zm300.29 66.174-1.0671 91.343-33.057 13.35 2.2329-62.381c3.4269-21.709 7.7141-35.703 31.891-42.313zm102.46-31.75-27.594 7.8176-2.2564 84.583 28.017-10.784 1.8333-81.617zm-67.293 17.99-28.069 9.3218-3.5492 92.772 29.959-12.641 1.6594-89.453zm34.721-9.1714-0.25855 84.729-29.437 12.523 1.241-90.12 28.454-7.1312zm55.701 4.1133-2.4445 58.371-15.983 7.0654 1.0342-80.813c7.2864 2.012 13.727 0.67693 17.393 15.377z" fill="url(#m)"/>
  <path d="m401.99 202.73c-25.803 0.23034-51.926 10.516-75.844-6.224l5.6617-16.053c63.072-11.644 98.286 25.869 70.184 22.277z" fill="#eeeeec" stroke="#464646" stroke-width="1.4103"/>
  <path d="m411.33 202.7c-13.111-23.443-50.746-26.814-83.732-21.506 36.131-18.38 29.93-22.86 96.349-45.279 23.354-13.849 50.948-0.77189 72.365 16.665 0 17.755-64.576 31.186-84.982 50.121z" fill="#eeeeec" stroke="#464646" stroke-width="1.4103"/>
 </g>
 <path d="m109.77 179.24-89.246-24.966c4.778-58.686 47.733-76.629 66.936-44.376l49.933-2.4162-27.622 71.759z" fill="url(#i)" fill-rule="evenodd" stroke="#464646" stroke-width="1.4103"/>
 <path d="m356.51 251.45-209.58-63.725c-47.789-59.635 103.67-116.48 122.07-115.69l194.14 28.201c175.43 57.868-17.934 118.85-106.63 151.22z" fill="url(#l)" fill-rule="evenodd" stroke="#464646" stroke-width="1.4103"/>
 <path d="m179.87 95.635-115.43 6.6376c-0.55-18.338 100.39-77.24 192.21-32.215l-76.789 25.577z" fill="#8d2929" fill-rule="evenodd" stroke="#464646" stroke-width="1.4103"/>
 <path d="m237.99 62.132c5.3637-4.2308 53.844 9.5522 34.166 14.291l-84.207 38.636c-37.983 17.431-44.193 47.789-38.331 70.419l-46.402-10.431c-5.0957-5.1286-1.885-42.016 17.595-58.62 30.006-25.568 112.42-55.738 117.18-54.295z" fill="#eeeeec" fill-rule="evenodd" stroke="#464646" stroke-width="1.4103"/>
 <path d="m102.27 74.871c-8.5932-3.3517 0.5312-48.772-3.5539-47.639l-18.55 5.155 0.78975 49.726-6.4355 3.4081c-0.88377-34.213 0.45128-42.43 0.34786-50.835-12.227 2.3692-18.987 8.0239-19.133 12.1l-2.3786 65.761c0.29146-17.158-4.1471 8.9411-6.7222-4.4611-2.271-11.818 2.3363-62.855 1.2678-62.315-12.359 6.2522-20.755 13.788-21.43 22.757l-2.5183 80.178 331.84 94.126 2.1953-58.596c-4.5646-16.721 3.0321-31.806 17.088-46.67 39.675-20.877 85.025-30.396 130.22-40.249 18.521-3.521 29.051 1.7675 30.603 17.121l-4.5052 230.17-7.0744 4.7872-0.9718-153.57-153.82 64.28-1.2034 150.67-15.244-0.0453 0.32779-152.78-139.58-39.49-188.04-53.201-2.8365 51.733c-0.24256 6.5107-4.8193 8.6825-16.376 3.8735l2.1625-157.87c11.775-43.165 139.9-54.878 152.29-57.985 31.2 0.31435 20.247 37.708 25.883 49.947l-15.193-3.2295c3.6432-20.239 2.8628-46.608-30.405-35.249l0.98248 44.007-6.8727 4.1697-3.6244-45.842-25.197 5.6975-0.15513 52.006-4.2026-1.6359zm300.29 66.174-1.0671 91.343-33.057 13.35 2.2329-62.381c3.4269-21.709 7.7141-35.703 31.891-42.313zm102.46-31.75-27.594 7.8176-2.2564 84.583 28.017-10.784zm-67.293 17.99-28.069 9.3218-3.5492 92.772 29.959-12.641zm34.721-9.1714-0.25855 84.729-29.437 12.523 1.241-90.12zm55.701 4.1133-2.4445 58.371-15.983 7.0654 1.0342-80.813c7.2864 2.012 13.727 0.67693 17.393 15.377z" fill="url(#n)" fill-rule="evenodd"/>
 <path d="m114.75 116.97c-25.803 0.23034-51.926 10.516-75.844-6.224l5.6617-16.053c63.072-11.644 98.286 25.869 70.184 22.277z" fill="#eeeeec" fill-rule="evenodd" stroke="#464646" stroke-width="1.4103"/>
 <path d="m124.09 116.94c-13.111-23.443-50.746-26.814-83.732-21.507 36.131-18.38 29.93-22.86 96.349-45.279 23.354-13.849 50.948-0.77189 72.365 16.665 0 17.755-64.576 31.186-84.982 50.121z" fill="#eeeeec" fill-rule="evenodd" stroke="#464646" stroke-width="1.4103"/>
</svg>
