<?xml version="1.0" encoding="UTF-8"?>
<!DOCTYPE svg  PUBLIC '-//W3C//DTD SVG 1.1//EN'  'http://www.w3.org/Graphics/SVG/1.1/DTD/svg11.dtd'>
<svg enable-background="new 0 0 210.95 66.6" version="1.1" viewBox="0 0 210.95 66.6" xml:space="preserve" xmlns="http://www.w3.org/2000/svg" xmlns:xlink="http://www.w3.org/1999/xlink">
<symbol id="e" viewBox="-7.35 -89.2 278.35 92.4">
	<g clip-rule="evenodd" fill-rule="evenodd">
				<radialGradient id="d" cx="131.83" cy="-45.975" r="139.16" gradientTransform="matrix(1 0 0 -.3106 0 -60.255)" gradientUnits="userSpaceOnUse">
				<stop stop-opacity=".749" offset=".851"/>
				<stop stop-opacity="0" offset="1"/>
			</radialGradient>
			<path d="m230.25-76.6c-27.2-8.4-60-12.6-98.4-12.6-38.434 0-71.233 4.2-98.4 12.6-27.2 8.467-40.8 18.667-40.8 30.6s13.6 22.117 40.8 30.55c27.167 8.467 59.966 12.7 98.4 12.7 38.4 0 71.2-4.233 98.4-12.7 27.17-8.433 40.75-18.617 40.75-30.55s-13.58-22.133-40.75-30.6z" fill="url(#d)"/>
			<path d="m209.6-78.25l-0.7-0.1-0.15-0.1 0.85 0.2zm56.1 34.85c0-7.434-3.9-13.95-11.7-19.55-9.1-6.533-23.183-11.55-42.25-15.05l-3.35-0.55c-12-2.133-25.883-3.817-41.65-5.05-12.467-0.967-22.5-1.45-30.1-1.45-6.667 0-17.267 0.383-31.8 1.15-13.767 0.7-22.767 1.3-27 1.8-55.1 6.6-82.65 20.633-82.65 42.1 0 3.8 1.05 7.067 3.15 9.8 3.3 3.367 6.1 6.367 8.4 9l0.6 0.2c15.933 7.9 34.783 13.5 56.55 16.8 18.333 2.8 40.68 4.2 67.05 4.2 4 0 9.167-0.167 15.5-0.5 8.2-0.467 14.883-0.767 20.05-0.9h0.3l3.05-0.4c7.066-1.167 18.017-2.85 32.85-5.05 12.867-2.1 23.183-4.333 30.95-6.7 21.37-6.433 32.05-16.383 32.05-29.85zm-117.05 42.5l1-0.1v0.05l-1 0.05zm-46.75-82.5l-2.45 0.15 1.2-0.15h1.25z" fill="#23170C" fill-opacity=".9922"/>
			<path d="m165.95-71c0.566-0.633 1.667-0.967 3.3-1 0.833 0 1.617 0.067 2.35 0.2l-5.45 0.95 14.8 1.05 0.8-0.75c16.3 3.167 24.783 4.75 25.45 4.75 0.333 0 0.85-0.133 1.55-0.4 0.667-0.233 1.167-0.35 1.5-0.35s0.567 0.2 0.7 0.6 0.367 0.6 0.7 0.6c0.567 0 2.434 0.684 5.6 2.05s5.3 2.05 6.4 2.05c0.667 0 1.3 0.283 1.9 0.85 3.034 1.267 5.65 2.65 7.85 4.15 1.1 0.767 1.9 1.4 2.4 1.9-0.066-0.2-0.117-0.533-0.15-1-0.033-0.233-0.05-0.45-0.05-0.65 1.767 1.1 6.833 4.3 15.2 9.6 0.7 0.3 1.367 1.217 2 2.75 0.867 2.1 1.3 4.717 1.3 7.85 0 2.367-0.217 4.117-0.65 5.25-0.534 1.333-1.667 2.783-3.4 4.35-0.1-0.6-0.183-0.883-0.25-0.85l-0.35 0.2c-1.167 1.233-2.217 2.617-3.15 4.15-0.566 0.967-1.017 1.45-1.35 1.45-1.167 0-2.567 0.8-4.2 2.4-0.6 0.6-0.967 0.917-1.1 0.95-0.233 0.066-0.316-0.283-0.25-1.05-1.833 0.534-4.367 1.85-7.6 3.95-2.833 1.867-4.633 2.8-5.4 2.8-0.533 0-1.85 0.4-3.95 1.2-1.867 0.7-3.6 0.933-5.2 0.7 0.167 0.133 0.2 0.267 0.1 0.4-0.1 0.167-0.383 0.25-0.85 0.25-0.312 0-0.503 0.058-0.575 0.175v-0.025c-0.151 0.264-0.559 0.448-1.225 0.55-0.934 0.067-1.517 0.117-1.75 0.15l-8.5 1.55-0.8 0.15 2.9-0.2-5.35 1.05-4.95 0.65-1.3 0.55-0.95 0.2-6.95 1.2-0.2 0.4-0.25-0.25c-1.009 0.303-1.917 0.57-2.725 0.8-2.769 0.8-4.41 1.2-4.925 1.2-0.667 0-4.217 0.183-10.65 0.55 0.034-0.1-0.45-0.033-1.45 0.2-1.167 0.267-1.917 0.4-2.25 0.4-0.4 0-0.9 0.083-1.5 0.25l-0.75 0.3 0.25-0.25c0.167-0.2 0.217-0.367 0.15-0.5-3.5 0.566-8 0.95-13.5 1.15-3 0.133-7.35 0.217-13.05 0.25 0 0.1 0.033 0.183 0.1 0.25-0.233 0.167-2.767 0.25-7.6 0.25-0.66 0-4.76-0.208-12.3-0.625-1e-3 0.218-0.035 0.36-0.1 0.425-1.933-0.4-3.233-0.6-3.9-0.6l-19.6-0.6c-1.267-0.467-2.533-0.7-3.8-0.7-0.8 0-1.55-0.133-2.25-0.4s-2.283-0.4-4.75-0.4c-5.21 0-10.56-0.45-16.06-1.35-4.667-0.934-7.467-1.417-8.4-1.45-0.133 0.7-0.767 0.7-1.9 0-1.1-0.867-1.683-1.3-1.75-1.3-0.4 0-0.6 0.017-0.6 0.05l0.15 0.1c0 0.067-0.85-0.183-2.55-0.75-1.9-0.6-3-0.933-3.3-1-1.2-0.267-2.617-0.483-4.25-0.65-1.867-0.133-3.267-0.233-4.2-0.3-0.367 0-7.183-2.566-20.45-7.7l0.8-0.5c-4.267-3.167-7.617-5.75-10.05-7.75-4.5-3.667-6.75-7.217-6.75-10.65 0-2.9 1.383-6.583 4.15-11.05 0.353 0.908 0.378 1.475 0.075 1.7 0.574-0.31 1.199-1.277 1.875-2.9-0.1 0.3 1-0.483 3.3-2.35 1.167-0.934 2.333-1.883 3.5-2.85l-0.15-0.55c1.233-0.167 1.9-0.5 2-1 0.071-0.285 0.379-0.468 0.925-0.55-0.016 0.113-0.024 0.322-0.025 0.625 7e-3 -0.293 0.124-0.51 0.35-0.65 0.141-0.017 0.291-0.025 0.45-0.025-0.125-0.018-0.233-0.035-0.325-0.05 0.284-0.131 0.692-0.181 1.225-0.15-0.2-0.233 1.383-1.066 4.75-2.5 4.567-1.967 10.833-4.217 18.8-6.75 6.333-0.333 9.517-0.566 9.55-0.7 0.1-0.534 4.6-1.5 13.5-2.9l-0.2-0.05c6.167-1.3 9.733-1.95 10.7-1.95 2 0 6.65-0.633 13.95-1.9 0.333 0 1.267 0.15 2.8 0.45 1.533 0.333 2.467 0.5 2.8 0.5 1.566 0 3.267-0.35 5.1-1.05 1.833-0.667 3.284-1 4.35-1 0.833 0 2.117 0.217 3.85 0.65 1.8 0.433 2.783 0.65 2.95 0.65l2.2-0.75c0.4 0.033 0.8 0.117 1.2 0.25 0.267 0.2 2.983 0.167 8.15-0.1 2.567-0.133 5.117-0.283 7.65-0.45l0.35-0.7 0.75 0.65c0.567 0.467 1.05 0.7 1.45 0.7 0.333 0 1.75-0.2 4.25-0.6 2.5-0.367 3.917-0.55 4.25-0.55l2.9 0.7c1.9 0.5 3 0.75 3.3 0.75 0.333 0 0.783-0.217 1.35-0.65 0.567-0.434 1.017-0.65 1.35-0.65 0.667 0 4.333 0.367 11 1.1 0.066 0 0.167-0.117 0.3-0.35 0.37-0.1 1.22 0.167 2.55 0.8zm-17.3 73.3l1-0.1v0.05l-1 0.05zm17.85-0.5l0.3-0.1 3.05-0.3c7.066-1.167 18.017-2.85 32.85-5.05 12.867-2.1 23.183-4.333 30.95-6.7 21.367-6.433 32.05-16.383 32.05-29.85 0-7.433-3.9-13.95-11.7-19.55-9.1-6.533-23.183-11.55-42.25-15.05l-1.5-0.1-1.35-0.25-0.15-0.1-0.35-0.1c-12-2.133-25.883-3.816-41.65-5.05-12.467-0.967-22.5-1.45-30.1-1.45-6.667 0-17.267 0.383-31.8 1.15-13.767 0.7-22.767 1.3-27 1.8-55.1 6.6-82.65 20.633-82.65 42.1 0 3.8 1.05 7.066 3.15 9.8 3.3 3.367 6.1 6.367 8.4 9l0.6 0.2c15.933 7.9 34.783 13.5 56.55 16.8 18.333 2.8 40.684 4.2 67.05 4.2 4 0 9.167-0.167 15.5-0.5 8.2-0.467 14.88-0.767 20.05-0.9zm38.95-12.4l4.45-0.95c0.434-0.367 0.7-0.65 0.8-0.85l-0.15-0.05-5.1 1.85zm-13.75 3.3c0.248-0.047 0.665-0.147 1.25-0.3 0.337-0.186 0.688-0.369 1.05-0.55 1.3-0.633 3.683-1.434 7.15-2.4 0.667 0 0.983 0.15 0.95 0.45 9.267-3.033 14.6-5 16-5.9-1.567 0.167-16.917 3.767-46.05 10.8l2.8 0.15c0.667 0 1.533-0.284 2.6-0.85 0.288 0.169 0.571 0.336 0.85 0.5 3.103-0.389 5.77-0.755 8-1.1 3.03-0.5 4.83-0.767 5.4-0.8zm-22.35 3l2.4-0.35c-0.233-0.067-0.417-0.133-0.55-0.2-0.3-0.2-0.25-0.367 0.15-0.5-0.467-0.066-1.033-0.1-1.7-0.1-0.433 0-0.633 0.167-0.6 0.5 0 0.267 0.1 0.483 0.3 0.65zm-49.05 1.9l3.5 0.1-0.05-0.25-3.05 0.05-0.4 0.1zm7.5-0.25l-3.55 0.05c0.83 0.267 2.02 0.25 3.55-0.05zm-37.75-0.85c-0.6-0.333-1.383-0.583-2.35-0.75 1.527 0.487 2.085 0.721 1.675 0.7l0.675 0.05zm4.5 0.25l2.6 0.05 0.05-0.05h-2.65zm-69.85-17l0.7 0.35 9.5 4-4.85-8.65c1.767 1.267 6.383 3.267 13.85 6 7.467 2.7 12.033 4.05 13.7 4.05 0.1 0 0.767-0.15 2-0.45 1.267-0.3 2.033-0.5 2.3-0.6-0.133-0.034-4.017-1.067-11.65-3.1 0.9-0.7 0.75-1.217-0.45-1.55-2.066-0.333-3.8-0.667-5.2-1-5.9-1.4-8.85-4.533-8.85-9.4 0-0.833 1.15-2.283 3.45-4.35 3-2.7 6.767-4.966 11.3-6.8l5.95-3.1-0.1 0.45c2.033-1 4.767-1.9 8.2-2.7 2.667-0.633 4.85-1.017 6.55-1.15l-0.05 0.1 0.2 0.05c-0.067-0.933 2.967-1.4 9.1-1.4 0.55-0.059 1.142-0.126 1.775-0.2l1.3-0.125c3.171-0.381 7.263-0.889 12.275-1.525 6.233-0.667 12.183-0.967 17.85-0.9 0.132 1e-3 0.266 1e-3 0.4 0 1.762-0.1 3.045-0.15 3.85-0.15l0.5-9.1c-12.133 0.867-20.733 1.633-25.8 2.3l-3.95 0.7-6-0.85v-2.05l-8.9-0.3c-4.333 0.767-8.967 1.417-13.9 1.95-2.033 0.233-4.7 0.95-8 2.15-9.7 2.7-14.55 5.15-14.55 7.35 0 0.4 0.216 0.833 0.65 1.3l0.6 0.6c-8.367 3.5-13.517 6.45-15.45 8.85-0.8 1.2-1.467 2.133-2 2.8-0.933 1.1-2.383 2.217-4.35 3.35l-0.55-3.2-0.2 4.45c-0.233-0.4-0.383-0.6-0.45-0.6 0 2.167 0.933 4.35 2.8 6.55 2.433 2.833 3.667 4.283 3.7 4.35 0.633 0.033 1.55 0.55 2.75 1.55zm198.95 3.3l0.45-0.65c-0.567-0.133-1.333-0.1-2.3 0.1-1.433 0.3-2.517 0.933-3.25 1.9 0.3-0.133-0.833 0.65-3.4 2.35l8.5-3.7zm-26.67 11.75l-0.53 0.2-0.2-0.05c0.2 0 0.44-0.05 0.73-0.15zm-36.08-0.2l0.1 0.55 7.75-0.3c-1.833-0.467-3.683-0.65-5.55-0.55l-2.3 0.3zm11-73.9h1.65c2.2 0.233 1.65 0.233-1.65 0zm-72.45-0.75l1.2-0.15h1.25l-2.45 0.15zm-40.2 75.95c0.1 0.033 0.15 0.067 0.15 0.1l-0.1-0.05c-0.233-0.1-0.25-0.117-0.05-0.05zm-50.5-44.05l-0.6 0.8-0.1 0.1 0.7-0.9zm16.7 10.9l-0.1 0.15-0.4 0.05 0.05-0.85c0.267 0.267 0.417 0.483 0.45 0.65zm48.9-16.4c2.066 0.867 3.55 2.083 4.45 3.65-2 0.133-3.933 0.017-5.8-0.35-2.067-0.433-3.283-0.65-3.65-0.65-0.333 0-0.567 0.167-0.7 0.5-0.133 0.367-0.367 0.55-0.7 0.55-0.4 0-1.1-0.233-2.1-0.7l-1.35-0.7c0.167-1.467 0.983-2.417 2.45-2.85 0.767-0.233 2.017-0.35 3.75-0.35 0.967 0 2.183 0.3 3.65 0.9z" fill="#372616" fill-opacity=".9922"/>
			<path d="m196.25-5.6l4.95-0.65c-0.633-0.233-2.05-0.217-4.25 0.05l5.3-1.2 7.45-2-18 2.1c-0.567 0.033-2.367 0.3-5.4 0.8-2.23 0.345-4.897 0.711-8 1.1-2.003 0.239-4.187 0.489-6.55 0.75l-2.4 0.35c-10.934 1.867-18.217 2.417-21.85 1.65h-2.65l-16.8 1.2c-0.9-0.533-2.267-0.583-4.1-0.15l-0.15-0.7-3.5-0.1c-0.767 0.3-2.7 0.233-5.8-0.2-4.1-0.566-8.817-0.55-14.15 0.05l-0.6-0.6-0.1-0.05h-2.5l-2.6-0.05-4.5-0.25-0.675-0.05h-0.025c-1.767-0.534-4.067-0.733-6.9-0.6-2.6 0.233-4.017 0.35-4.25 0.35-5.667 0-8.567-0.3-8.7-0.9 0.833-0.6 0.8-0.9-0.1-0.9-0.333 0-0.417 0.117-0.25 0.35 0.167 0.267 0.083 0.4-0.25 0.4s-0.633-0.117-0.9-0.35c-0.267-0.2-0.517-0.283-0.75-0.25-0.767-0.1-1.533-0.25-2.3-0.45-1.567-0.367-2.4-0.733-2.5-1.1-0.8 0.333-1.534 0.5-2.2 0.5-0.333 0-0.7-0.1-1.1-0.3-0.433-0.2-0.817-0.3-1.15-0.3s-0.517-0.033-0.55-0.1c-0.067-0.066-0.267-0.1-0.6-0.1-0.434 0-1-0.167-1.7-0.5-1.433-0.667-2.45-1.117-3.05-1.35-2.567-0.033-4.317-0.283-5.25-0.75-0.5-0.533-0.883-0.833-1.15-0.9l0.55 0.55c-6.133-1.467-9.35-2.4-9.65-2.8 0.7-0.267 0.5-0.6-0.6-1-0.7-0.3-1.1-0.467-1.2-0.5-0.233 0.033-0.783 0.05-1.65 0.05-0.353 0-0.928-0.233-1.725-0.7 0.104 5e-3 0.079-0.011-0.075-0.05-0.081-0.047-0.165-0.097-0.25-0.15-0.8-0.533-1.184-0.767-1.15-0.7-0.067 0.067-0.2 0.117-0.4 0.15-0.933-1.4-1.733-2.1-2.4-2.1-0.1 0-0.367-0.233-0.8-0.7-0.4-0.433-0.717-0.817-0.95-1.15l-0.7-0.35-2.75-1.55c-0.034-0.067-1.267-1.517-3.7-4.35-1.867-2.2-2.8-4.383-2.8-6.55 0.066 0 0.216 0.2 0.45 0.6l0.2-4.45c1.066-4.733 4.816-8.983 11.25-12.75 6.367-3.767 14.5-6.534 24.4-8.3 3.3-1.2 5.967-1.917 8-2.15 4.933-0.533 9.567-1.183 13.9-1.95 13.767-1.767 25.067-3.017 33.9-3.75 10.7-0.867 21.45-1.3 32.25-1.3 14.667 0 31.867 1.8 51.6 5.4 26.5 4.8 41.15 11.1 43.95 18.9l0.85-0.85c0.667-0.567 1.2-0.85 1.6-0.85 2 0 4.65 1.117 7.95 3.35 1.833 1.233 4.35 3.066 7.55 5.5l-0.9-6.85c0-0.333 0.033-0.783 0.1-1.35-0.1-0.633-0.667-1.6-1.7-2.9-8.367-5.3-13.433-8.5-15.2-9.6 0 0.2 0.017 0.417 0.05 0.65 0.033 0.467 0.083 0.8 0.15 1-0.5-0.5-1.3-1.133-2.4-1.9-2.2-1.5-4.816-2.883-7.85-4.15-0.6-0.567-1.233-0.85-1.9-0.85-1.1 0-3.233-0.683-6.4-2.05s-5.033-2.05-5.6-2.05c-0.333 0-0.566-0.2-0.7-0.6-0.133-0.4-0.367-0.6-0.7-0.6s-0.833 0.117-1.5 0.35c-0.7 0.267-1.217 0.4-1.55 0.4-0.667 0-9.15-1.583-25.45-4.75l-0.8 0.75-14.8-1.05-0.2-0.15c-1.333-0.633-2.184-0.9-2.55-0.8-0.133 0.233-0.233 0.35-0.3 0.35-6.667-0.733-10.333-1.1-11-1.1-0.333 0-0.783 0.216-1.35 0.65-0.567 0.433-1.017 0.65-1.35 0.65-0.3 0-1.4-0.25-3.3-0.75l-2.9-0.7c-0.333 0-1.75 0.184-4.25 0.55-2.5 0.4-3.917 0.6-4.25 0.6-0.4 0-0.883-0.233-1.45-0.7l-0.75-0.65-0.35 0.7c-2.533 0.167-5.083 0.317-7.65 0.45-5.167 0.267-7.883 0.3-8.15 0.1-0.4-0.133-0.8-0.217-1.2-0.25l-2.2 0.75c-0.167 0-1.15-0.217-2.95-0.65-1.733-0.434-3.017-0.65-3.85-0.65-1.066 0-2.517 0.333-4.35 1-1.833 0.7-3.533 1.05-5.1 1.05-0.333 0-1.267-0.167-2.8-0.5-1.533-0.3-2.467-0.45-2.8-0.45-7.3 1.267-11.95 1.9-13.95 1.9-0.967 0-4.533 0.65-10.7 1.95l0.2 0.05c-8.9 1.4-13.4 2.367-13.5 2.9-0.033 0.133-3.217 0.367-9.55 0.7-7.967 2.533-14.233 4.783-18.8 6.75-3.367 1.434-4.95 2.267-4.75 2.5-0.532-0.031-0.941 0.019-1.225 0.15 0.091 0.016 0.2 0.032 0.325 0.05-0.159 0-0.309 8e-3 -0.45 0.025-0.226 0.14-0.343 0.356-0.35 0.65 0-0.303 9e-3 -0.512 0.025-0.625-0.545 0.082-0.854 0.265-0.925 0.55-0.1 0.5-0.767 0.833-2 1l0.15 0.55c-1.167 0.967-2.333 1.917-3.5 2.85-2.3 1.867-3.4 2.65-3.3 2.35-0.676 1.623-1.301 2.59-1.875 2.9 0.303-0.225 0.278-0.792-0.075-1.7-2.767 4.467-4.15 8.15-4.15 11.05 0 3.433 2.25 6.983 6.75 10.65 2.433 2 5.783 4.583 10.05 7.75l-0.8 0.5c13.267 5.133 20.083 7.7 20.45 7.7 0.934 0.067 2.333 0.167 4.2 0.3 1.633 0.167 3.05 0.383 4.25 0.65 0.3 0.067 1.4 0.4 3.3 1 1.7 0.567 2.55 0.817 2.55 0.75l-0.15-0.1c0-0.033 0.2-0.05 0.6-0.05 0.067 0 0.65 0.433 1.75 1.3 1.133 0.7 1.767 0.7 1.9 0 0.934 0.033 3.733 0.517 8.4 1.45 5.5 0.9 10.85 1.35 16.05 1.35 2.467 0 4.05 0.133 4.75 0.4s1.45 0.4 2.25 0.4c1.267 0 2.533 0.233 3.8 0.7l19.6 0.6c0.667 0 1.967 0.2 3.9 0.6 0.065-0.065 0.099-0.207 0.1-0.425 7.541 0.417 11.641 0.625 12.3 0.625 4.833 0 7.367-0.083 7.6-0.25-0.066-0.067-0.1-0.15-0.1-0.25 5.7-0.033 10.05-0.117 13.05-0.25 5.5-0.2 10-0.583 13.5-1.15 0.067 0.133 0.017 0.3-0.15 0.5l-0.25 0.25 0.75-0.3c0.6-0.167 1.1-0.25 1.5-0.25 0.333 0 1.083-0.133 2.25-0.4 1-0.233 1.483-0.3 1.45-0.2 6.434-0.367 9.983-0.55 10.65-0.55 0.515 0 2.156-0.4 4.925-1.2 0.808-0.23 1.716-0.497 2.725-0.8l0.25 0.25 0.2-0.4c0.297-0.134 0.714-0.284 1.25-0.45 0.681-0.208 1.548-0.441 2.6-0.7 1.21-0.29 2.269-0.499 3.175-0.625-0.08 0.202-0.11 0.394-0.08 0.575l0.95-0.2c-0.034-0.067-0.15-0.167-0.35-0.3-0.099-0.049-0.191-0.083-0.275-0.1 0.76-0.115 1.4-0.165 1.93-0.15zm42.75-35.9l0.15 0.75 0.85 0.3-0.9-1.1-0.1 0.05zm-34.55 34.25l0.5-0.4c-0.367 0.1-1.267 0.183-2.7 0.25l-1.15 0.6 2.55-0.3 0.8-0.15zm-126.85-38.75v0.05h2.6c1.7-0.333 4.433-1.017 8.2-2.05 1.934-0.5 4.2-0.833 6.8-1 4.066-0.2 23.433-0.15 58.1 0.15l-0.1-0.75 4.8 0.15 2.85 0.2 0.2 0.55 0.3 0.05c-0.033-0.067-0.083-0.083-0.15-0.05-0.1 0.034-0.117-0.05-0.05-0.25v-0.1l0.55-0.15 0.15 0.2 1.45 0.1 0.3 0.05h0.65l0.6 0.1c-0.2 0.1-0.3 0.2-0.3 0.3 0.733-0.033 1.733-0.15 3-0.35l0.15 0.3 0.95 0.05 0.2 0.3 1.1-0.15 3.2 0.6 0.1 0.05c0.167 0.033 0.283 0.1 0.35 0.2 0 0.067 0.3 0.05 0.9-0.05 0.067-0.1 0.083-0.2 0.05-0.3 0.034-0.067 0.25-0.1 0.65-0.1 0.7 0 1.167 0.083 1.4 0.25 0.733 0.5 1.2 0.8 1.4 0.9l0.35-0.15c0.2-0.1 0.467-0.15 0.8-0.15-0.533 0.1-0.433 0.183 0.3 0.25l0.1 0.45 1.6-0.3c4.233 0.467 6.533 0.816 6.9 1.05l0.45-0.35 0.1 0.35c0.833 0 1.55 0.142 2.15 0.425s0.9 0.625 0.9 1.025l0.05 0.05h0.1l0.15 0.15v-0.25c0.033-0.033 0-0.133-0.1-0.3-0.067-0.067 0.1-0.1 0.5-0.1 0.066 0 0.233 0.133 0.5 0.4 0.5 0.467 2.15 1.1 4.95 1.9l-0.1 0.35 0.7 0.95 4.7 2.65-2.15-2.05c1.667 1.333 2.55 2.066 2.65 2.2 0.267 0 0.5 0.083 0.7 0.25s0.3 0.367 0.3 0.6l0.15-0.25 0.5 0.95 0.1 0.3h-0.25c0.333 0.567 0.617 1.033 0.85 1.4 0.1 0.233 0.167 0.9 0.2 2l0.7-0.95 0.75 1.15-0.25 0.45c0 0.333 0.033 0.5 0.1 0.5 0.066-0.1 0.117-0.2 0.15-0.3l0.05-0.15c0.4 0.667 0.7 1.683 0.9 3.05v0.1l-0.4 0.7-0.15 0.15-0.05 0.3-0.25 0.5-0.5 1c1.066-0.033 2.183-0.2 3.35-0.5 1.133-0.333 1.983-0.5 2.55-0.5 1 0 2.083-0.2 3.25-0.6 0.9-0.3 1.667-0.65 2.3-1.05l0.1 0.05-0.15 0.6 0.15-0.05 0.65-0.95c-0.1-1.2-0.283-1.933-0.55-2.2l-0.2-0.55c-2.133-1.933-3.217-2.917-3.25-2.95-0.833-0.8-1.583-1.817-2.25-3.05-0.1-0.2-0.4-0.517-0.9-0.95-0.133-0.1-0.883-0.55-2.25-1.35-1.333-0.767-2.183-1.317-2.55-1.65-0.467-0.267-1.267-0.5-2.4-0.7l-1.5-0.25 0.05-0.1-0.6-1.2-5.85-2.2-0.2 0.75c-0.267-0.3-0.7-0.6-1.3-0.9-0.083-0.039-0.174-0.081-0.275-0.125-1.372-0.55-4.464-1.275-9.275-2.175h-0.35l-5.15-1.05v0.15l-13.9-2.05-0.15 0.35-8.05-0.75h-0.8l-4.8-0.2-7.3-0.15c-0.3 0.167-0.517 0.217-0.65 0.15l-0.1-0.15h-1.3c-0.033 0.033-1.2 0.033-3.5 0l-6.2 0.05c-0.594 0.396-7.228 0.546-19.9 0.45-0.135 1e-3 -0.268 1e-3 -0.4 0-5.667-0.067-11.617 0.233-17.85 0.9-5.012 0.636-9.104 1.144-12.275 1.525l-1.3 0.125c-0.633 0.074-1.225 0.141-1.775 0.2-6.133 0-9.167 0.467-9.1 1.4l-0.2-0.05-14.7 3.75 0.1-0.45-5.95 3.1c-4.533 1.833-8.3 4.1-11.3 6.8-2.3 2.067-3.45 3.517-3.45 4.35 0 4.867 2.95 8 8.85 9.4 1.4 0.333 3.133 0.667 5.2 1 1.2 0.333 1.35 0.85 0.45 1.55 7.633 2.033 11.517 3.066 11.65 3.1l8.6 1.3 0.4 0.05 5.5 0.5c1.033 0.1 6.9 0.534 17.6 1.3l9.75 0.65 0.825 0.05h0.125l1.8 0.2 0.45 0.05c4.767 0.5 7.233 0.75 7.4 0.75 0.333 0 1.267 0.083 2.8 0.25 1.333 0.067 2-0.1 2-0.5 0-0.333 3-0.367 9-0.1 5.967 0.3 8.95 0.283 8.95-0.05 0-0.4 0.8-0.583 2.4-0.55 0.833 0.033 1.867 0.117 3.1 0.25 0.333 0 1.767-0.133 4.3-0.4 4.068-0.329 10.26-0.712 18.575-1.15 0.95 0.2 2.809 0.3 5.575 0.3l0.15-0.3-0.5-0.45 2.9-0.2c0.333 0 1.066 0.15 2.2 0.45 1.5 0 3.35-0.233 5.55-0.7 2.275-0.49 3.875-1.056 4.8-1.7 0.153-0.096 0.287-0.196 0.4-0.3v-0.2c-9e-3 -0.02-0.026-0.036-0.05-0.05-0.276 0.013-0.542 0.03-0.8 0.05-0.701 0.141-2.118 0.458-4.25 0.95-1.031 0.252-1.964 0.46-2.8 0.625-0.778 0.106-1.578 0.215-2.4 0.325 0.294-0.141 0.577-0.3 0.85-0.475-0.864 0.102-1.848 0.194-2.95 0.275-1.233 0.533-2.967 0.767-5.2 0.7-0.211-0.016-0.419-0.032-0.625-0.05 0.172 0.035 0.347 0.068 0.525 0.1 0.218 0.042 0.435 0.075 0.65 0.1 8e-3 0.055 0.024 0.105 0.05 0.15-0.792-0.092-1.451-0.167-1.975-0.225-0.668-0.191-1.66-0.267-2.975-0.225-4.9 0.2-8.15 0.283-9.75 0.25l1-0.55c-4.033 1-6.083 1.3-6.15 0.9 0-0.1 0.05-0.3 0.15-0.6-0.033-0.267-0.434-0.4-1.2-0.4-0.273 0-0.74 0.025-1.4 0.075-0.286 0.032-0.602 0.065-0.95 0.1-0.447 0.053-0.947 0.111-1.5 0.175-2.066 0.233-3.117 0.383-3.15 0.45-0.233-0.067-2.483-0.067-6.75 0-5.566 0.066-10.517 0.033-14.85-0.1l-0.4 0.2-0.25 0.05c-0.533 0.2-1.583 0.25-3.15 0.15-1.2-0.066-2-0.133-2.4-0.2l-0.5 0.4-6.55-0.55-0.45-0.2h-0.6c-0.503-0.397-0.803-0.422-0.9-0.075-0.032 0.077-0.049 0.177-0.05 0.3-1e-3 -0.147-0.035-0.255-0.1-0.325l-0.55-0.05c-0.467 0.233-0.733 0.333-0.8 0.3l-2.65-0.05c-0.633 0.033-3.717-0.35-9.25-1.15-6.3-0.9-10.167-1.417-11.6-1.55l-9.8-0.95c-3.3-0.066-6.617-0.517-9.95-1.35-2.667-0.667-4.833-1.417-6.5-2.25-0.934-0.934-2.383-1.65-4.35-2.15-1.833-0.466-3.417-1.483-4.75-3.05l-0.2-0.2-1.05-1.5 0.4-0.2v-0.35c0-2.3 0.6-4.267 1.8-5.9s2.65-2.45 4.35-2.45l-0.05 0.1 0.2-0.2 2.4-2.15-2.15 2-0.05 0.1 4.7-2.7v-0.1l0.1-0.15c0.8-0.733 1.383-1.167 1.75-1.3 0.199-0.1 0.299-0.133 0.3-0.1 0-0.433 0.1-0.583 0.3-0.45 0.106 0.091 0.165 0.158 0.175 0.2 0.727-0.302 1.485-0.635 2.275-1 0.5-0.2 0.733-0.15 0.7 0.15l0.95-0.6c0.833-0.467 1.733-0.867 2.7-1.2v0.2l6.25-1 1.1-0.1 0.15-0.1c0.133 0 0.2 0.183 0.2 0.55 0.034-0.066 0.133-0.183 0.3-0.35 0.066-0.167 0.25-0.267 0.55-0.3l0.5 0.45 0.05-0.5 0.8-0.1c0.667-0.1 1.433-0.267 2.3-0.5l0.4 0.1 0.75-0.25 0.05-0.1 0.15-0.05-0.05 0.05zm140.65 12.65l0.1 0.15h0.05l-0.15-0.15zm12.3-15.45l-0.2-0.05c-0.233-0.033-0.467-0.133-0.7-0.3-0.124-0.099-0.208-0.158-0.25-0.175 0.108 0.032 0.324 0.107 0.65 0.225 0.3 0.167 0.47 0.267 0.5 0.3zm-33.57 43.6c-0.286 0.1-0.528 0.15-0.725 0.15l0.2 0.05 0.52-0.2zm1.62-36.35c-0.3-0.067-0.45-0.2-0.45-0.4l0.9 0.5c-0.13 0-0.28-0.033-0.45-0.1zm-3-1.4l-0.65-0.05c0.033 0.167 0.15 0.25 0.35 0.25s0.367-0.033 0.5-0.1l-0.2-0.1zm-49.65 40.5c0.1 0 0.183 0.017 0.25 0.05l-0.4 0.05c-0.03-0.033 0.02-0.067 0.15-0.1zm-11.8-9.5h-0.15l-0.15-0.05 0.2-0.05h0.8v-0.05l0.3 0.1 0.1 0.05v0.05l-0.4-0.05h-0.7zm-72.25 6.1c-0.1 0-0.191-0.042-0.275-0.125-0.083-0.083-0.125-0.175-0.125-0.275s0.042-0.192 0.125-0.275 0.175-0.125 0.275-0.125 0.192 0.042 0.275 0.125 0.125 0.175 0.125 0.275-0.042 0.192-0.125 0.275-0.175 0.125-0.275 0.125zm-1.1-0.35l0.1-0.2 0.15 0.2h-0.25zm-1.55 2.1c-0.2-0.066-0.183-0.05 0.05 0.05l0.1 0.05c0-0.033-0.05-0.067-0.15-0.1zm-13.75-20.4l3.15 2.2-1.05-0.55-2.1-1.65zm9.45-15.45v0.25l-0.2 0.05-0.55-0.1 0.3-0.05 0.3-0.25 0.15 0.1zm-42.85 9.45c-0.133 0-0.217-0.033-0.25-0.1 0.1-0.1 0.233-0.15 0.4-0.15 0.133-0.033 0.2 0 0.2 0.1-0.1 0.1-0.217 0.15-0.35 0.15zm-3.35-17.65l-0.7 0.9 0.1-0.1 0.6-0.8z" fill="#E1D0AF"/>
			<polygon points="166.8 1.8 169.85 1.4 166.8 1.7" fill="#121111" fill-opacity=".1608"/>
			<polygon points="166.5 1.8 166.8 1.8 166.8 1.7" fill="#413E3D" fill-opacity=".5961"/>
			<path d="m187.05-3.65l6.95-1.2c-0.03-0.181-5e-3 -0.373 0.075-0.575-0.91 0.127-1.97 0.335-3.18 0.625-1.052 0.258-1.919 0.492-2.6 0.7-0.54 0.166-0.95 0.316-1.25 0.45zm9.2-1.95c-0.528-0.015-1.17 0.035-1.925 0.15 0.084 0.017 0.176 0.051 0.275 0.1 0.2 0.133 0.316 0.233 0.35 0.3l1.3-0.55zm42.75-35.9l0.1-0.05 0.9 1.1-0.85-0.3-0.15-0.75zm-47.3 34.2l18-2.1-7.45 2-5.3 1.2c2.2-0.267 3.617-0.283 4.25-0.05l5.35-1.05-2.9 0.2-2.55 0.3 1.15-0.6c1.433-0.067 2.333-0.15 2.7-0.25l-0.5 0.4 8.5-1.55c0.233-0.034 0.816-0.083 1.75-0.15 0.666-0.102 1.074-0.286 1.225-0.55v0.025c0.072-0.117 0.264-0.175 0.575-0.175 0.467 0 0.75-0.083 0.85-0.25 0.1-0.133 0.066-0.267-0.1-0.4 1.6 0.233 3.333 0 5.2-0.7 2.1-0.8 3.417-1.2 3.95-1.2 0.767 0 2.567-0.933 5.4-2.8 3.233-2.1 5.767-3.417 7.6-3.95-0.066 0.767 0.017 1.117 0.25 1.05 0.133-0.033 0.5-0.35 1.1-0.95 1.633-1.6 3.033-2.4 4.2-2.4 0.333 0 0.783-0.483 1.35-1.45 0.934-1.533 1.983-2.917 3.15-4.15l1.25-3.35c0.267 0.133 0.65-0.267 1.15-1.2 0.5-0.967 0.983-2.267 1.45-3.9-3.2-2.434-5.716-4.267-7.55-5.5-3.3-2.233-5.95-3.35-7.95-3.35-0.4 0-0.933 0.283-1.6 0.85l-0.85 0.85c1.6 4.034 2.4 6.383 2.4 7.05 0 0.333-0.067 0.85-0.2 1.55-0.167 0.733-0.25 1.267-0.25 1.6 0 0.867-0.117 1.867-0.35 3-0.434 1.967-1.1 3.2-2 3.7-0.833 0.466-1.4 0.833-1.7 1.1-0.467 0.4-0.717 0.867-0.75 1.4-0.033 0.8-0.8 1.683-2.3 2.65-1.534 0.833-2.383 1.333-2.55 1.5-1.066 1.1-4.25 2.667-9.55 4.7-5.434 2.1-8.167 3.167-8.2 3.2v-0.55l-4.45 0.95c-3.967 0.867-7.25 1.633-9.85 2.3-1.104 0.303-1.988 0.536-2.65 0.7-0.59 0.153-1 0.253-1.25 0.3zm54.45-26.8h0.05l0.55 0.6-0.6-0.6z" fill="#C7B596"/>
			<path d="m250.8-46.4c1.034 1.3 1.6 2.267 1.7 2.9-0.067 0.567-0.1 1.017-0.1 1.35l0.9 6.85c-0.466 1.633-0.95 2.933-1.45 3.9-0.5 0.933-0.883 1.333-1.15 1.2l-1.25 3.35 0.35-0.2c0.067-0.034 0.15 0.25 0.25 0.85 1.733-1.566 2.867-3.017 3.4-4.35 0.433-1.133 0.65-2.883 0.65-5.25 0-3.133-0.434-5.75-1.3-7.85-0.63-1.533-1.3-2.45-2-2.75zm-15.45 3.95c-2.8-7.8-17.45-14.1-43.95-18.9-19.733-3.6-36.933-5.4-51.6-5.4-10.8 0-21.55 0.433-32.25 1.3-8.833 0.733-20.133 1.983-33.9 3.75l8.9 0.3v2.05l6 0.85 3.95-0.7c5.067-0.667 13.667-1.433 25.8-2.3 0.434-0.067 4-0.067 10.7 0 4.833 0.033 7.95-0.45 9.35-1.45l10.05 1.55c0.867-0.4 1.317-0.833 1.35-1.3 0-0.333 0.2-0.5 0.6-0.5 1.667 0 2.517 0.167 2.55 0.5 0.1 0.6 0.283 0.967 0.55 1.1-0.167 0.2-0.383 0.35-0.65 0.45l-0.05 1.1-0.15-0.9c-2.434 0.633-4.733 0.684-6.9 0.15l-4.25-1.05c-0.534 0-1.467 0.133-2.8 0.4-1.433 0.267-2.566 0.55-3.4 0.85-0.133 1.033 0.217 2.35 1.05 3.95 0.967 1.867 2.217 3.167 3.75 3.9 2.3 0.033 3.467 0.033 3.5 0l-0.5-0.4c0.267 0 0.6 0.083 1 0.25-0.31 0.093-0.259 0.143 0.15 0.15h1.4l7.3 0.15 3.85 0.05c0.967-0.434 2.733-0.95 5.3-1.55 0.133 0 0.733 0.167 1.8 0.5 1.267 0.4 2.25 0.767 2.95 1.1l-0.55 0.3h-0.35c-1.733-0.3-3.233-0.5-4.5-0.6-0.9-0.067-1.566-0.167-2-0.3l-0.1 0.25 0.25 0.35h-0.15c-0.733-0.267-1.233-0.4-1.5-0.4-0.066 0.1-0.05 0.267 0.05 0.5h0.55c2.567 0.033 4.133 0.066 4.7 0.1 0.8 0.066 1.917 0.283 3.35 0.65l0.15-0.35 0.2-0.1c1.233 0 2.1 0.033 2.6 0.1 0.3 0.067 0.667 0.183 1.1 0.35l10 1.7v-0.15c0.267-0.167 0.8-0.2 1.6-0.1 1.167 0.1 2.35 0.483 3.55 1.15h0.35c1.167-0.133 2.833 0.066 5 0.6 1.693 0.44 3.118 0.965 4.275 1.575 0.101 0.044 0.192 0.086 0.275 0.125 0.6 0.3 1.033 0.6 1.3 0.9l0.2-0.75 5.85 2.2 0.6 1.2-0.05 0.1 1.5 0.25c1.133 0.2 1.934 0.434 2.4 0.7 0.433 0.233 1.316 0.75 2.65 1.55 1.2 0.7 1.917 1.184 2.15 1.45 0.5 0.433 0.8 0.75 0.9 0.95 0.133 0.133 0.867 0.733 2.2 1.8 1.4 1.167 2.367 2.183 2.9 3.05l0.15 0.15h-0.05l0.3 1 0.2 0.55c0.267 0.267 0.45 1 0.55 2.2l-0.65 0.95-0.65 1.55-0.5-0.15-0.2 1.05c-0.133 0.033-0.533 0.35-1.2 0.95-0.7 0.6-1.467 1.067-2.3 1.4l-0.1 0.55-3.2 0.9 0.15 0.15c-0.019 0.021-0.019 0.088 0 0.2-0.7 0.3-1.917 0.65-3.65 1.05-3.233 0.8-6.233 1.567-9 2.3v0.2l0.45 0.1 0.05 0.1c0.4 0.1-0.317 0.367-2.15 0.8-1.916 0.466-5.349 1.066-10.3 1.8-0.924 0.644-2.524 1.21-4.8 1.7-2.2 0.467-4.05 0.7-5.55 0.7-1.133-0.3-1.867-0.45-2.2-0.45l-2.9 0.2 0.5 0.45-0.15 0.3c-2.766 0-4.625-0.1-5.575-0.3-8.315 0.438-14.507 0.821-18.575 1.15-2.533 0.267-3.967 0.4-4.3 0.4-1.233-0.133-2.267-0.217-3.1-0.25-1.6-0.033-2.4 0.15-2.4 0.55 0 0.333-2.983 0.35-8.95 0.05-6-0.267-9-0.233-9 0.1 0 0.4-0.667 0.567-2 0.5-1.533-0.167-2.467-0.25-2.8-0.25-0.167 0-2.633-0.25-7.4-0.75l0.05 0.15-0.05 0.05-0.45-0.25-1.8-0.2h-0.125c-0.554-0.02-0.896 0.063-1.025 0.25l0.2-0.3-9.76-0.65 0.25 0.15c-0.2 0-0.333-0.05-0.4-0.15h0.15c-10.7-0.767-16.567-1.2-17.6-1.3l-5.5-0.5c0.033 0.1 0.033 0.167 0 0.2l-0.2-0.2-0.2-0.05-8.6-1.3c-0.267 0.1-1.033 0.3-2.3 0.6-1.233 0.3-1.9 0.45-2 0.45-1.667 0-6.233-1.35-13.7-4.05-7.467-2.733-12.083-4.733-13.85-6l4.85 8.65-9.5-4c0.233 0.333 0.55 0.717 0.95 1.15 0.433 0.467 0.7 0.7 0.8 0.7 0.667 0 1.467 0.7 2.4 2.1 0.2-0.033 0.333-0.083 0.4-0.15-0.034-0.066 0.35 0.167 1.15 0.7 0.085 0.053 0.169 0.103 0.25 0.15 0.154 0.039 0.179 0.055 0.075 0.05 0.797 0.467 1.372 0.7 1.725 0.7 0.867 0 1.417-0.017 1.65-0.05 0.1 0.033 0.5 0.2 1.2 0.5 1.1 0.4 1.3 0.733 0.6 1 0.3 0.4 3.517 1.333 9.65 2.8l-0.55-0.55c0.267 0.066 0.65 0.367 1.15 0.9 0.933 0.467 2.683 0.717 5.25 0.75 0.6 0.233 1.617 0.683 3.05 1.35 0.7 0.333 1.267 0.5 1.7 0.5 0.333 0 0.533 0.033 0.6 0.1 0.033 0.067 0.216 0.1 0.55 0.1s0.717 0.1 1.15 0.3c0.4 0.2 0.767 0.3 1.1 0.3 0.667 0 1.4-0.167 2.2-0.5 0.1 0.367 0.933 0.733 2.5 1.1 0.767 0.2 1.533 0.35 2.3 0.45 0.233-0.033 0.483 0.05 0.75 0.25 0.267 0.233 0.567 0.35 0.9 0.35s0.417-0.133 0.25-0.4c-0.167-0.233-0.083-0.35 0.25-0.35 0.9 0 0.934 0.3 0.1 0.9 0.133 0.6 3.033 0.9 8.7 0.9 0.233 0 1.65-0.117 4.25-0.35 2.833-0.133 5.133 0.066 6.9 0.6h0.025c0.411 0.021-0.147-0.213-1.675-0.7 0.966 0.167 1.75 0.417 2.35 0.75l4.5 0.25h2.65l1.55 0.05h0.9l0.6 0.2h-0.3l-0.2-0.15 0.6 0.6c5.333-0.6 10.05-0.617 14.15-0.05 3.1 0.434 5.033 0.5 5.8 0.2l0.4-0.1 1.4-0.2c-0.367-0.367 2.2-0.55 7.7-0.55 0.4 0 0.583 0.05 0.55 0.15-0.1 0.133-0.15 0.217-0.15 0.25l-0.15 0.15-2.25 0.05c-1.533 0.3-2.716 0.316-3.55 0.05l-0.5 0.05 0.05 0.25 0.15 0.7c1.833-0.433 3.2-0.383 4.1 0.15l16.8-1.2 3.3-0.1-0.65 0.1c3.633 0.767 10.917 0.217 21.85-1.65-0.2-0.167-0.3-0.383-0.3-0.65-0.033-0.333 0.167-0.5 0.6-0.5 0.667 0 1.233 0.034 1.7 0.1-0.4 0.133-0.45 0.3-0.15 0.5 0.133 0.067 0.316 0.133 0.55 0.2 2.363-0.261 4.547-0.511 6.55-0.75-0.278-0.164-0.562-0.331-0.85-0.5-1.067 0.566-1.934 0.85-2.6 0.85l-2.8-0.15c29.133-7.033 44.483-10.633 46.05-10.8-1.4 0.9-6.733 2.867-16 5.9 0.033-0.3-0.283-0.45-0.95-0.45-3.467 0.966-5.85 1.767-7.15 2.4-0.362 0.181-0.712 0.364-1.05 0.55 0.662-0.164 1.545-0.397 2.65-0.7 2.6-0.667 5.883-1.434 9.85-2.3l5.1-1.85 0.15 0.05c-0.1 0.2-0.367 0.483-0.8 0.85v0.55c0.033-0.033 2.767-1.1 8.2-3.2 5.3-2.033 8.483-3.6 9.55-4.7 0.167-0.167 1.017-0.667 2.55-1.5 1.5-0.967 2.267-1.85 2.3-2.65 0.033-0.534 0.283-1 0.75-1.4 0.3-0.267 0.867-0.633 1.7-1.1 0.9-0.5 1.566-1.733 2-3.7 0.233-1.133 0.35-2.133 0.35-3 0-0.333 0.083-0.867 0.25-1.6 0.133-0.7 0.2-1.217 0.2-1.55 0-0.667-0.8-3.017-2.4-7.05zm-11.7 25.5l-8.5 3.7c2.567-1.7 3.7-2.483 3.4-2.35 0.733-0.967 1.817-1.6 3.25-1.9 0.967-0.2 1.733-0.233 2.3-0.1l-0.45 0.65zm-42.5-29.7l-1.6 0.3-0.1-0.45c-0.733-0.067-0.833-0.15-0.3-0.25-0.333 0-0.6 0.05-0.8 0.15l-0.35 0.15c-0.2-0.1-0.667-0.4-1.4-0.9-0.233-0.167-0.7-0.25-1.4-0.25-0.4 0-0.617 0.033-0.65 0.1 0.034 0.1 0.017 0.2-0.05 0.3-0.6 0.1-0.9 0.117-0.9 0.05-0.067-0.1-0.184-0.167-0.35-0.2l-0.1-0.05-3.2-0.6-7 4.95-4.95-6.1-4.8-0.15 0.1 0.75c-34.667-0.3-54.033-0.35-58.1-0.15-2.6 0.167-4.867 0.5-6.8 1-3.767 1.033-6.5 1.717-8.2 2.05h-2.65v0.05h-0.1l-0.75 0.25-0.4-0.1c-0.867 0.233-1.633 0.4-2.3 0.5l-0.8 0.1-0.05 0.5-0.5-0.45c-0.3 0.033-0.483 0.133-0.55 0.3-0.167 0.167-0.267 0.283-0.3 0.35 0-0.367-0.066-0.55-0.2-0.55l-0.15 0.1-1.1 0.1 6.05 2.65c-4.7 0.5-7.816 1.217-9.35 2.15-0.8 0.933-1.316 1.533-1.55 1.8-0.333 0.333-1.6 1.45-3.8 3.35-1.5 1.267-2.333 2.267-2.5 3l5.8-0.7-7.1 1.7 5.05 1.2-3.25 1.45 6.6 2c-1.867 0.733-3.133 1.55-3.8 2.45-0.367 0.5-0.55 1.133-0.55 1.9 0 0.4 0.733 0.883 2.2 1.45 0.7 0.267 1.417 0.5 2.15 0.7-0.933 0.367-1.466 0.567-1.6 0.6 3.267 0.2 5.15 0.4 5.65 0.6l-0.1 0.15c-0.067 0.033 0.3 0.05 1.1 0.05 0.933 0 1.4 0.2 1.4 0.6l1.3-0.3c1.4 0.033 3.333 0.617 5.8 1.75 1.433 0.133 5.3 0.65 11.6 1.55 5.533 0.8 8.617 1.184 9.25 1.15l-1.85-0.4-0.05-0.15h0.2l1.35 0.2h0.05l0.85-0.1-0.35-0.05c0.434 0 0.8 0.05 1.1 0.15h0.2v-0.1l1.95 0.2 0.55 0.05 0.15 0.025c0.097-0.347 0.396-0.322 0.9 0.075h0.6l0.45 0.2 6.55 0.55 0.5-0.4c0.4 0.066 1.2 0.133 2.4 0.2 1.567 0.1 2.617 0.05 3.15-0.15 0.341-0.104 0.441-0.212 0.3-0.325l0.35 0.075c4.333 0.133 9.284 0.167 14.85 0.1 4.267-0.067 6.517-0.067 6.75 0 0.033-0.067 1.083-0.217 3.15-0.45 0.553-0.063 1.053-0.122 1.5-0.175-1.048 0.092-1.715 0.083-2-0.025-0.2-0.2-0.4-0.35-0.6-0.45-0.3-0.2-0.934-0.3-1.9-0.3l-6 0.6c0.233 0.167 0.267 0.35 0.1 0.55-0.5-0.567-1.083-0.85-1.75-0.85l-5.225-0.6c1.309 0.117 2.284 0.117 2.925 0 0.367-0.1 0.767-0.2 1.2-0.3 0.333 0 0.833 0.167 1.5 0.5 0.633 0.333 1.117 0.5 1.45 0.5 1.133 0 1.683-0.033 1.65-0.1-0.066-0.133-0.083-0.2-0.05-0.2 0.7-0.2 5.917-0.3 15.65-0.3-2.534 0.433-4.534 0.725-6 0.875 0.66-0.05 1.126-0.075 1.4-0.075 0.767 0 1.167 0.133 1.2 0.4-0.1 0.3-0.15 0.5-0.15 0.6 0.066 0.4 2.117 0.1 6.15-0.9 1.548-0.63 3.364-0.889 5.45-0.775v-0.125c0-0.2 0.034-0.317 0.1-0.35h0.2c1.9 0.2 2.983 0.25 3.25 0.15 0.467-0.167 0.983-0.25 1.55-0.25l6-0.05c0.2-0.2 0.333-0.317 0.4-0.35h4.5c-0.233-0.2-0.3-0.45-0.2-0.75l1.15-0.1c-0.1-0.3-0.033-0.517 0.2-0.65l3.125-0.025c6.007-0.677 9.416-1.286 10.225-1.825 1.086-0.724 2.419-1.457 4-2.2-2.233 0.767-3.417 1.233-3.55 1.4l-14.8 2.65-2.1-0.9c1.233 0 1.95-0.167 2.15-0.5-0.033-0.167-0.133-0.383-0.3-0.65l0.85 0.05c0.5 0.9 1.383 1.15 2.65 0.75 2.033-0.667 3.167-1 3.4-1-0.8 0-1.3-0.1-1.5-0.3 1.933-0.833 3.4-1.95 4.4-3.35 0.5-0.7 0.8-1.317 0.9-1.85l-4.85-1.8 7.8-2.45-3.2-1.2 5.8-1.5-8-1.8c2.7 0.3 4.65 0.367 5.85 0.2 0.6-0.067 0.934-0.167 1-0.3-3.1-2.733-5.8-4.933-8.1-6.6-4.367-3.143-7.867-4.285-10.5-3.425l7.47-2.675zm-20.15 41.8h-1.55l1.45-0.55 2.3-0.3c1.867-0.1 3.716 0.083 5.55 0.55l-7.75 0.3zm2.55-17.7l0.8 0.4c-0.033 0.066-0.617-0.15-1.75-0.65l0.95 0.25zm13.85-8.3l0.25-0.8 0.3 0.8h-0.55zm1.35 5.85l0.25-0.75 0.3 0.75h-0.55zm-5.95-0.75l-0.05 0.05c-0.3-0.1-0.7-0.267-1.2-0.5l1.25 0.45zm-9.55-6.2c1.033-0.066 1.967 0.233 2.8 0.9-3.233 2.267-5.183 3.4-5.85 3.4-0.6 0-1.717-0.717-3.35-2.15-1.667-1.434-3.333-2.15-5-2.15-5.2-0.5-8.217-0.75-9.05-0.75-0.4 0-1.233 0.117-2.5 0.35l-1.8 0.4c-2.3 0.5-4.9 0.983-7.8 1.45-2.733 0.467-4.367 0.7-4.9 0.7-0.633 0-2-0.317-4.1-0.95-1.8-0.533-3-0.933-3.6-1.2 5.3 0.4 10.9-0.117 16.8-1.55 2.967-0.733 5.684-1.483 8.15-2.25 1.567 0.067 4.133-0.017 7.7-0.25 4.233-0.3 6.717-0.717 7.45-1.25 0.2 3.9 1.083 5.8 2.65 5.7 0.47-0.033 1.27-0.167 2.4-0.4zm2.75-8.05h0.15l0.75 0.5c-0.57-0.333-0.87-0.5-0.9-0.5zm8.4-13.85l0.6 0.1c0.667 0.333 1.133 0.633 1.4 0.9l-2-1zm-4.5-0.1c0.333 0.133 0.65 0.317 0.95 0.55l-1.95-0.75 1 0.2zm-4.65-1.1l-0.15 0.15c-0.367 0.3-0.6 0.35-0.7 0.15l0.85-0.3zm-19.3 52.6c-0.133 0.034-0.184 0.067-0.15 0.1l0.4-0.05c-0.07-0.033-0.15-0.05-0.25-0.05zm6.05-21.5l0.3 0.8h-0.6l0.3-0.8zm-17.95 11.9v0.05l-0.05 0.05h0.15l-0.05-0.1h-0.05zm1.1 0.05l-0.25-0.05h-0.05v0.1l0.4 0.05v-0.05l-0.1-0.05zm-10.05-7.9l0.05-0.05 0.45 0.05c0.1 0.2-0.07 0.2-0.5 0zm-2.4-3.65l0.8 0.4c-0.067 0.1-0.2 0.117-0.4 0.05-0.2-0.066-0.633-0.283-1.3-0.65l0.9 0.2zm8.9 3.85l-0.05-0.1 0.7-0.3c-0.1 0.333-0.32 0.467-0.65 0.4zm-0.9-2.75c-1.067 0-1.975-0.292-2.725-0.875s-1.125-1.292-1.125-2.125 0.375-1.542 1.125-2.125 1.658-0.875 2.725-0.875c1.066 0 1.975 0.292 2.725 0.875s1.125 1.292 1.125 2.125-0.375 1.542-1.125 2.125c-0.74 0.583-1.65 0.875-2.72 0.875zm3.2 4.1l-0.2-0.05c-0.333-0.067-0.567-0.25-0.7-0.55 0.1 0 0.267 0.083 0.5 0.25 0.23 0.167 0.37 0.283 0.4 0.35zm-1.7 1.1l0.25-0.7 0.25 0.7h-0.5zm-2.75-16.9c0.066 0 0.167-0.1 0.3-0.3 0.1-0.066 0.15 0.133 0.15 0.6l-0.45-0.3zm7.8 6.2l0.1-0.05c0.233 0.067 0.383 0.183 0.45 0.35l-0.55-0.3zm-9.1-17.7l-0.05-0.1c0.333-0.1 0.5-0.017 0.5 0.25h-0.15c-0.13-0.033-0.23-0.083-0.3-0.15zm33 10.45l0.1-0.05c0.633 0.433 0.95 0.683 0.95 0.75-0.1-0.033-0.284-0.133-0.55-0.3-0.3-0.167-0.47-0.3-0.5-0.4zm-27.6-5.25h-0.5l0.25-1.1 0.25 1.1zm12.05 9.8l-0.45-0.25c0.067-0.133 0.317-0.467 0.75-1l-0.3 1.25zm-1.05 4.6l0.25-0.8 0.3 0.8h-0.55zm3.15-4.1h-0.6l0.3-0.85 0.3 0.85zm-1.7 2.45c1.2-1.033 3-1.2 5.4-0.5 2.533 0.767 3.184 2.167 1.95 4.2-1.967-0.133-3.75-0.75-5.35-1.85-0.93-0.667-1.6-1.283-2-1.85zm11.75-10.1l0.25-1.1 0.25 1.1h-0.5zm-1.4-7.2l0.3-1.05 0.3 1.05h-0.6zm2.25 3.8c-0.633-0.066-1.067-0.216-1.3-0.45 0.133 0.033 0.383 0.1 0.75 0.2 0.33 0.133 0.52 0.217 0.55 0.25zm-42.15 38.25c0.5-0.167 0.6-0.15 0.3 0.05l-0.3-0.05zm-14.35-19.5h-0.5l0.25-0.75 0.25 0.75zm18 0.3l0.3-0.7 0.3 0.7h-0.6zm-19.95 10.45c0.133-0.133 0.283-0.15 0.45-0.05l-0.05 0.2-0.4-0.15zm-15.5-11.9c0.3 0.367 0.633 1.033 1 2v0.15c-0.2-0.1-0.533-0.817-1-2.15zm-2.55 2.4c0.066-0.167 0.583-0.35 1.55-0.55l-1.4 0.6-0.15-0.05zm13.15 3.95c-0.133 0.033-0.383-0.05-0.75-0.25l-0.55-0.25 1.5 0.4-0.2 0.1zm0.65-5.6h-0.55l0.25-0.85 0.3 0.85zm5.3-6.5c-0.1 0-0.167-0.05-0.2-0.15 0.133-0.133 0.333-0.25 0.6-0.35l-0.1 0.2c-0.1 0.233-0.2 0.333-0.3 0.3zm-4.65 8.7l0.9 0.15 0.95 0.35c0 0.267-0.617 0.1-1.85-0.5zm0.6-3.65c0.267 0.167 0.434 0.3 0.5 0.4-0.1 0.033-0.333-0.067-0.7-0.3l-0.55-0.4 0.75 0.3zm-4.2-3.9h-0.55l0.25-0.8 0.3 0.8zm3.1-2.45h-0.5l0.25-0.75 0.25 0.75zm-5.15 0.35h-0.55l0.25-0.75 0.3 0.75zm-2.85-0.05c0.267 0.133 0.417 0.25 0.45 0.35-0.133 0.033-0.383-0.067-0.75-0.3l-0.5-0.3 0.8 0.25zm3.65-4.95l0.35 1.05h-0.65l0.3-1.05zm-7 4.65l1.3 4c-1.733-1.233-2.467-2.267-2.2-3.1 0.133-0.433 0.433-0.733 0.9-0.9zm0.05-1.7h-0.7l0.35-1.05 0.35 1.05zm8.4-7.3h-0.5l0.25-1.05 0.25 1.05zm-5.35 7.3c-0.5-0.066-0.917-0.217-1.25-0.45h0.25c0.567 0.1 0.9 0.25 1 0.45zm6.45-8.3h-0.55l0.25-1.1 0.3 1.1zm24.65 12.4h-0.45l0.2-0.8 0.25 0.8zm-5.25 0.3l0.85 0.2 0.85 0.35-1.7-0.55zm-7.05 1.2c0.267 0.067 0.5 0.217 0.7 0.45l-0.8-0.45c0.03-0.033 0.07-0.033 0.1 0zm-0.75-0.6c-0.167-0.066-0.367-0.233-0.6-0.5 0.433 0.167 0.733 0.317 0.9 0.45-0.03 0.067-0.13 0.083-0.3 0.05zm2.5 1.75l-0.15 0.55c-0.167 0.033-0.217-0.133-0.15-0.5 0-0.2 0.034-0.383 0.1-0.55l0.2 0.5zm-1.8-4.85h-0.6l0.3-0.75 0.3 0.75zm-4.05-4.15h-0.5l0.25-1.5 0.25 1.5zm11.35-7.7c0.233 0.2 0.35 0.367 0.35 0.5-0.167 0.1-0.3 0.117-0.4 0.05-0.1-0.1-0.316-0.383-0.65-0.85l0.7 0.3zm38.3-12.75c0.067 0.267 0.067 0.466 0 0.6l-0.35 0.15c0.034-0.034 0.034-0.417 0-1.15 0.17 0 0.28 0.133 0.35 0.4zm-1.75-0.85h-0.6l0.3-1.15 0.3 1.15zm-89.6 49.7h0.25l-0.15-0.2-0.1 0.2zm1.1 0.35c0.1 0 0.192-0.042 0.275-0.125s0.125-0.175 0.125-0.275-0.042-0.192-0.125-0.275-0.175-0.125-0.275-0.125-0.191 0.042-0.275 0.125c-0.083 0.083-0.125 0.175-0.125 0.275s0.042 0.192 0.125 0.275 0.175 0.125 0.275 0.125zm6.15-8.6l0.15 0.1c-0.067 0.033-0.117 0.017-0.15-0.05v-0.05zm1.3-9.55l0.25-0.8 0.25 0.8h-0.5zm5.95 10.85h-0.5v-0.2h0.5v0.2zm5.25 0.7h-0.25l0.1-0.3 0.15 0.3zm-3.15-9.75c0.2-0.133 0.317-0.2 0.35-0.2-0.267 0.267-0.483 0.417-0.65 0.45 0.07-0.063 0.17-0.146 0.3-0.25zm-33.1-4l-0.65-1.7-0.4 0.2 1.05 1.5zm9.3 5.4c1.667 0.833 3.833 1.583 6.5 2.25 3.333 0.833 6.65 1.283 9.95 1.35l-12.2-2.3-4.25-1.3zm23.6-5.55l-0.1-0.05c0.533-0.434 0.933-0.65 1.2-0.65-0.133 0.233-0.5 0.467-1.1 0.7zm-0.85 1.2c-0.733 0.233-1.167 0.367-1.3 0.4l1.25-0.4h0.05zm3.65-15.75c0 0.033-0.117 0.1-0.35 0.2-0.233 0.133-0.467 0.2-0.7 0.2l-0.15-0.05 1.1-0.4 0.1 0.05zm-58.05 19.1l2.75 1.55c-1.2-1-2.117-1.517-2.75-1.55zm29.8-35.8c-9.9 1.767-18.033 4.533-24.4 8.3-6.434 3.767-10.184 8.017-11.25 12.75l0.55 3.2c1.967-1.133 3.417-2.25 4.35-3.35 0.533-0.667 1.2-1.6 2-2.8 1.933-2.4 7.083-5.35 15.45-8.85l-0.6-0.6c-0.434-0.466-0.65-0.9-0.65-1.3 0-2.2 4.85-4.65 14.55-7.35zm-14.45 38.55l6.35 3.8c-1.233-0.2-2.433-0.517-3.6-0.95-2.3-0.833-3.217-1.783-2.75-2.85zm37.05-34.6c-1.467-0.6-2.684-0.9-3.65-0.9-1.733 0-2.983 0.117-3.75 0.35-1.467 0.434-2.284 1.383-2.45 2.85l1.35 0.7c1 0.467 1.7 0.7 2.1 0.7 0.333 0 0.566-0.183 0.7-0.55 0.133-0.333 0.367-0.5 0.7-0.5 0.367 0 1.583 0.217 3.65 0.65 1.867 0.367 3.8 0.483 5.8 0.35-0.9-1.567-2.383-2.783-4.45-3.65z" fill="#422F1F"/>
			<path d="m195.8-21.4c-1.581 0.743-2.914 1.476-4 2.2-0.809 0.54-4.217 1.148-10.225 1.825l-3.125 0.025c-0.233 0.133-0.3 0.35-0.2 0.65l-1.15 0.1c-0.1 0.3-0.033 0.55 0.2 0.75h-4.5c-0.066 0.033-0.2 0.15-0.4 0.35l-6 0.05c-0.566 0-1.083 0.083-1.55 0.25-0.267 0.1-1.35 0.05-3.25-0.15h-0.2c-0.066 0.033-0.1 0.15-0.1 0.35v0.125c-2.085-0.114-3.902 0.145-5.45 0.775l-1 0.55c1.6 0.033 4.85-0.05 9.75-0.25 1.315-0.042 2.307 0.033 2.975 0.225 0.523 0.058 1.182 0.133 1.975 0.225-0.025-0.044-0.042-0.095-0.05-0.15-0.215-0.025-0.432-0.059-0.65-0.1-0.178-0.032-0.353-0.065-0.525-0.1 0.206 0.018 0.414 0.035 0.625 0.05 2.233 0.066 3.966-0.167 5.2-0.7 1.103-0.081 2.086-0.173 2.95-0.275-0.273 0.175-0.556 0.334-0.85 0.475 0.822-0.11 1.622-0.219 2.4-0.325 0.836-0.165 1.77-0.373 2.8-0.625 2.132-0.492 3.549-0.809 4.25-0.95 0.257-0.021 0.524-0.037 0.8-0.05 0.024 0.014 0.041 0.031 0.05 0.05v0.2c-0.113 0.104-0.247 0.204-0.4 0.3 4.952-0.734 8.385-1.334 10.3-1.8 1.833-0.433 2.55-0.7 2.15-0.8l-0.05-0.1-0.45-0.1v-0.2c2.767-0.733 5.767-1.5 9-2.3 1.733-0.4 2.95-0.75 3.65-1.05l-0.15-0.35 3.2-0.9 0.1-0.55c0.833-0.333 1.6-0.8 2.3-1.4 0.667-0.6 1.066-0.917 1.2-0.95l-0.2-0.8c0.1-0.133 0.233-0.217 0.4-0.25l0.5 0.15 0.5-1.5 0.15-0.6-0.1-0.05c-0.633 0.4-1.4 0.75-2.3 1.05-1.167 0.4-2.25 0.6-3.25 0.6-0.567 0-1.417 0.167-2.55 0.5-1.167 0.3-2.283 0.467-3.35 0.5l0.5-1h-0.6c-0.167 0.3-0.45 0.633-0.85 1-0.367 0.267-0.55 0.417-0.55 0.45l-1.2 1.25c-3.46 1.136-6.36 2.252-8.71 3.35zm-93.6 7.5l1.3 0.1-1.3-0.2v0.1zm-0.95-0.1l0.75 0.1c-0.3-0.1-0.667-0.15-1.1-0.15l0.35 0.05zm-0.55 0.45l2.65 0.05-2.95-0.4h-0.05l-1.35-0.2h-0.2l0.05 0.15 1.85 0.4zm33.15 1.55l0.15 0.05 0.05-0.05h-0.2zm1.3 0l-0.3-0.1 0.05 0.05 0.25 0.05z" fill="#D0BF9E"/>
			<path d="m165.95-71l0.2 0.15 5.45-0.95c-0.733-0.133-1.517-0.2-2.35-0.2-1.63 0.033-2.73 0.367-3.3 1zm-48.15 18.6l16.05-0.3 6.2-0.05c-1.533-0.733-2.783-2.033-3.75-3.9-0.833-1.6-1.183-2.917-1.05-3.95 0.833-0.3 1.967-0.583 3.4-0.85 1.333-0.267 2.267-0.4 2.8-0.4l4.25 1.05c2.167 0.533 4.466 0.483 6.9-0.15l0.2-0.2c0.267-0.1 0.483-0.25 0.65-0.45-0.267-0.133-0.45-0.5-0.55-1.1-0.033-0.333-0.883-0.5-2.55-0.5-0.4 0-0.6 0.167-0.6 0.5-0.033 0.467-0.483 0.9-1.35 1.3l-10.05-1.55c-1.4 1-4.517 1.483-9.35 1.45-6.7-0.067-10.267-0.067-10.7 0l-0.5 9.1zm85.8 14.2l-0.5-0.15-4.7-2.65-0.7-0.95 0.1-0.35c-2.8-0.8-4.45-1.434-4.95-1.9-0.267-0.267-0.434-0.4-0.5-0.4-0.4 0-0.567 0.033-0.5 0.1 0.1 0.167 0.133 0.267 0.1 0.3v0.25l-0.15-0.15h-0.1l-0.05-0.05c0-0.4-0.3-0.742-0.9-1.025-0.6-0.284-1.317-0.425-2.15-0.425l-0.1-0.35-0.45 0.35c-0.367-0.233-2.667-0.583-6.9-1.05l-7.45 2.675c2.633-0.859 6.133 0.282 10.5 3.425 2.3 1.667 5 3.867 8.1 6.6-0.066 0.133-0.4 0.233-1 0.3-1.2 0.167-3.15 0.1-5.85-0.2l8 1.8-5.8 1.5 3.2 1.2-7.8 2.45 4.85 1.8c-0.1 0.533-0.4 1.15-0.9 1.85-1 1.4-2.467 2.517-4.4 3.35 0.2 0.2 0.7 0.3 1.5 0.3-0.233 0-1.367 0.333-3.4 1-1.267 0.4-2.15 0.15-2.65-0.75l-0.85-0.05c0.167 0.267 0.267 0.483 0.3 0.65-0.2 0.333-0.917 0.5-2.15 0.5l2.1 0.9 14.8-2.65c0.133-0.167 1.317-0.633 3.55-1.4 2.353-1.098 5.253-2.214 8.7-3.35l1.2-1.25c0-0.033 0.183-0.183 0.55-0.45 0.4-0.367 0.683-0.7 0.85-1l0.85-0.5 0.05-0.3 0.15-0.15 0.4-0.7v-0.1c-0.2-1.367-0.5-2.383-0.9-3.05l-0.05 0.15c-0.033 0.1-0.083 0.2-0.15 0.3-0.067 0-0.1-0.167-0.1-0.5l0.25-0.45-0.75-1.15-0.7 0.95c-0.033-1.1-0.1-1.767-0.2-2-0.233-0.367-0.517-0.833-0.85-1.4h0.25l-0.1-0.3-0.5-0.95-0.15 0.25c0-0.233-0.1-0.433-0.3-0.6s-0.43-0.25-0.7-0.25zm-57.3 24.175c0.348-0.035 0.665-0.068 0.95-0.1 1.466-0.15 3.466-0.442 6-0.875-9.733 0-14.95 0.1-15.65 0.3-0.033 0-0.017 0.067 0.05 0.2 0.033 0.067-0.517 0.1-1.65 0.1-0.333 0-0.817-0.167-1.45-0.5-0.667-0.333-1.167-0.5-1.5-0.5-0.433 0.1-0.833 0.2-1.2 0.3-0.642 0.117-1.617 0.117-2.925 0l5.225 0.6c0.667 0 1.25 0.283 1.75 0.85 0.167-0.2 0.133-0.383-0.1-0.55l6-0.6c0.967 0 1.6 0.1 1.9 0.3 0.2 0.1 0.4 0.25 0.6 0.45 0.29 0.109 0.96 0.117 2.01 0.025zm-26.9 0.775l0.25-0.05 0.4-0.2-0.35-0.075c0.14 0.113 0.04 0.221-0.3 0.325zm-49.05-31.55l-6.25 1v-0.2c-0.967 0.333-1.867 0.733-2.7 1.2l-0.95 0.6c0.033-0.3-0.2-0.35-0.7-0.15-0.79 0.365-1.548 0.698-2.275 1-0.011-0.042-0.069-0.109-0.175-0.2-0.2-0.133-0.3 0.017-0.3 0.45-1e-3 -0.033-0.101 0-0.3 0.1-0.367 0.133-0.95 0.567-1.75 1.3l-0.1 0.15v0.1l-4.7 2.7 0.05-0.1-0.25 0.15-0.2 0.2 0.05-0.1c-1.7 0-3.15 0.817-4.35 2.45s-1.8 3.6-1.8 5.9l0.85 2.25c1.333 1.567 2.917 2.583 4.75 3.05 1.967 0.5 3.417 1.217 4.35 2.15l4.25 1.3 12.2 2.3 9.8 0.95c-2.467-1.133-4.4-1.717-5.8-1.75l-1.3 0.3c0-0.4-0.467-0.6-1.4-0.6-0.8 0-1.167-0.017-1.1-0.05l0.1-0.15c-0.5-0.2-2.383-0.4-5.65-0.6 0.133-0.033 0.667-0.233 1.6-0.6-0.733-0.2-1.45-0.433-2.15-0.7-1.467-0.567-2.2-1.05-2.2-1.45 0-0.767 0.183-1.4 0.55-1.9 0.667-0.9 1.933-1.717 3.8-2.45l-6.6-2 3.25-1.45-5.05-1.2 7.1-1.7-5.8 0.7c0.167-0.733 1-1.733 2.5-3 2.2-1.9 3.466-3.017 3.8-3.35 0.233-0.267 0.75-0.867 1.55-1.8 1.534-0.933 4.65-1.65 9.35-2.15l-6.05-2.65zm7.1-1.1h0.1l-0.05-0.1-0.05 0.1zm0.15-0.05v-0.05l-0.05 0.05h0.05zm121 4.4c0.167 0.066 0.316 0.1 0.45 0.1l-0.9-0.5c0 0.2 0.15 0.333 0.45 0.4zm-3-1.4l0.2 0.1c-0.133 0.067-0.3 0.1-0.5 0.1s-0.316-0.083-0.35-0.25l0.65 0.05zm-146.15 10.95l1.05-0.55h0.05l-1.1 0.55zm5.3-7.65l0.2-0.05v-0.25l-0.2 0.3zm-17.45 20.6c-0.466 1.066 0.45 2.017 2.75 2.85 1.167 0.434 2.367 0.75 3.6 0.95l-6.35-3.8z" fill="#3A2818"/>
			<path d="m230.55-48.8c-0.033-0.034-0.2-0.133-0.5-0.3-0.326-0.118-0.542-0.193-0.65-0.225 0.042 0.018 0.126 0.076 0.25 0.175 0.233 0.167 0.467 0.267 0.7 0.3l0.2 0.05z" fill="#AE9B78"/>
			<path d="m163.55-22.55l-0.95-0.25c1.133 0.5 1.717 0.716 1.75 0.65l-0.8-0.4zm6.35-31.4l-1-0.2 1.95 0.75c-0.3-0.233-0.62-0.417-0.95-0.55zm-87.8 32.75l0.15 0.05 1.4-0.6c-0.967 0.2-1.483 0.383-1.55 0.55z" fill="#3B2817"/>
			<path d="m143.55-52.75h0.65c-0.41-7e-3 -0.46-0.057-0.15-0.15-0.4-0.167-0.733-0.25-1-0.25l0.5 0.4zm9.25-8.4l-0.2 0.2 0.15 0.9 0.05-1.1zm24.6 30.3h0.55l-0.3-0.8-0.25 0.8zm-11.4-9.15c0.033 0 0.333 0.167 0.9 0.5l-0.75-0.5h-0.15zm-28.75 12.05l0.55 0.3c-0.066-0.167-0.216-0.283-0.45-0.35l-0.1 0.05zm-7.8-6.2l0.45 0.3c0-0.467-0.05-0.667-0.15-0.6-0.13 0.2-0.23 0.3-0.3 0.3zm4.1-6.3l-0.25-1.1-0.25 1.1h0.5zm27.6 5.25c0.033 0.1 0.2 0.233 0.5 0.4 0.267 0.167 0.45 0.267 0.55 0.3 0-0.067-0.317-0.317-0.95-0.75l-0.1 0.05zm-10.75-20.7l-0.3-1.15-0.3 1.15h0.6z" fill="#3D2A19"/>
			<path d="m178.75-25h0.55l-0.3-0.75-0.25 0.75zm-78.6 13.3l0.4 0.15 0.05-0.2c-0.17-0.1-0.32-0.083-0.45 0.05zm-4.1-18.95l-0.25-0.75-0.25 0.75h0.5zm-3.1 2.45l-0.3-0.8-0.25 0.8h0.55zm-23.6 4.2h0.5l-0.25-0.8-0.25 0.8z" fill="#3B2819"/>
			<path d="m172.8-25.75l-1.25-0.45c0.5 0.233 0.9 0.4 1.2 0.5l0.05-0.05zm-14.2-15.45c-0.033-0.033-0.217-0.117-0.55-0.25-0.367-0.1-0.617-0.167-0.75-0.2 0.23 0.233 0.67 0.383 1.3 0.45zm-2.25-3.8h0.6l-0.3-1.05-0.3 1.05zm-80 19.85h-0.05l-1.25 0.4c0.133-0.033 0.567-0.167 1.3-0.4z" fill="#3E2B1A"/>
			<path d="m166.9-52.1l3.7 0.45c-0.434-0.167-0.8-0.283-1.1-0.35-0.5-0.067-1.37-0.1-2.6-0.1zm-10.15-0.45l0.95 0.15h0.25c-0.1-0.233-0.117-0.4-0.05-0.5 0.267 0 0.767 0.133 1.5 0.4h0.15l-0.25-0.35 0.1-0.25c0.434 0.133 1.1 0.233 2 0.3 1.267 0.1 2.767 0.3 4.5 0.6h0.35l0.55-0.3c-0.7-0.333-1.683-0.7-2.95-1.1-1.067-0.333-1.667-0.5-1.8-0.5-2.57 0.6-4.33 1.117-5.3 1.55zm13.2 4.25l-1.1 0.15-0.2-0.3-0.95-0.05-0.15-0.3c-1.267 0.2-2.267 0.316-3 0.35 0-0.1 0.1-0.2 0.3-0.3l-0.6-0.1h-0.65l-0.3-0.05-1.45-0.1-0.15-0.2-0.55 0.15v0.1c-0.066 0.2-0.05 0.284 0.05 0.25 0.066-0.033 0.117-0.017 0.15 0.05l-0.3-0.05-0.2-0.55-2.85-0.2 4.95 6.1 7-4.95zm-6.7 16.35c-1.133 0.233-1.933 0.367-2.4 0.4-1.567 0.1-2.45-1.8-2.65-5.7-0.733 0.533-3.217 0.95-7.45 1.25-3.567 0.233-6.133 0.317-7.7 0.25-2.466 0.767-5.183 1.517-8.15 2.25-5.9 1.433-11.5 1.95-16.8 1.55 0.6 0.267 1.8 0.667 3.6 1.2 2.1 0.633 3.466 0.95 4.1 0.95 0.534 0 2.167-0.233 4.9-0.7 2.9-0.467 5.5-0.95 7.8-1.45l1.8-0.4c1.267-0.233 2.1-0.35 2.5-0.35 0.833 0 3.85 0.25 9.05 0.75 1.667 0 3.333 0.717 5 2.15 1.633 1.433 2.75 2.15 3.35 2.15 0.667 0 2.617-1.133 5.85-3.4-0.83-0.667-1.77-0.967-2.8-0.9zm11.15-21.9l2 1c-0.267-0.267-0.733-0.566-1.4-0.9l-0.6-0.1zm-43.7 31.4c1.066 0 1.975-0.292 2.725-0.875s1.125-1.292 1.125-2.125-0.375-1.542-1.125-2.125-1.658-0.875-2.725-0.875-1.975 0.292-2.725 0.875-1.125 1.292-1.125 2.125 0.375 1.542 1.125 2.125c0.74 0.583 1.65 0.875 2.72 0.875zm17-7.7l-0.3-0.85-0.3 0.85h0.6zm-3.15 4.1h0.55l-0.3-0.8-0.25 0.8zm1.05-4.6l0.3-1.25c-0.433 0.533-0.683 0.867-0.75 1l0.45 0.25zm12.15-7.15h0.5l-0.25-1.1-0.25 1.1zm-73.05 7.15c-0.467 0.167-0.767 0.467-0.9 0.9-0.267 0.833 0.467 1.867 2.2 3.1l-1.3-4zm34.2 2.4l-0.25-0.8-0.2 0.8h0.45zm33.25-26.8c-0.066-0.267-0.183-0.4-0.35-0.4 0.034 0.733 0.034 1.117 0 1.15l0.35-0.15c0.07-0.133 0.07-0.333 0-0.6zm-74.75 32.85c-0.13 0.104-0.23 0.188-0.3 0.25 0.167-0.033 0.383-0.183 0.65-0.45-0.033 0-0.15 0.067-0.35 0.2zm-0.2-4.15c0.6-0.233 0.966-0.467 1.1-0.7-0.267 0-0.667 0.216-1.2 0.65l0.1 0.05zm2.8-14.55l-0.1-0.05-1.1 0.4 0.15 0.05c0.233 0 0.466-0.067 0.7-0.2 0.233-0.1 0.35-0.167 0.35-0.2z" fill="#3C2918"/>
			<path d="m165.25-55.05l-0.85 0.3c0.1 0.2 0.333 0.15 0.7-0.15l0.15-0.15zm-13.25 31.1l-0.3 0.8h0.6l-0.3-0.8zm-29.3 0.4l-0.9-0.2c0.667 0.367 1.1 0.583 1.3 0.65s0.333 0.05 0.4-0.05l-0.8-0.4zm9.5 6.3h0.5l-0.25-0.7-0.25 0.7zm1.7-1.1c-0.033-0.066-0.167-0.183-0.4-0.35s-0.4-0.25-0.5-0.25c0.133 0.3 0.367 0.483 0.7 0.55l0.2 0.05zm-5.75-27.3c0.067 0.066 0.167 0.117 0.3 0.15h0.15c0-0.267-0.167-0.35-0.5-0.25l0.05 0.1zm-26.05 23.2l-0.25-0.75-0.25 0.75h0.5zm18 0.3h0.6l-0.3-0.7-0.3 0.7zm-24.85 4.9l0.2-0.1-1.5-0.4 0.55 0.25c0.367 0.2 0.617 0.283 0.75 0.25zm1.9-7.05l-0.75-0.3 0.55 0.4c0.367 0.233 0.6 0.333 0.7 0.3-0.067-0.1-0.233-0.233-0.5-0.4zm-0.6 3.65c1.233 0.6 1.85 0.767 1.85 0.5l-0.95-0.35-0.9-0.15zm4.65-8.7c0.1 0.033 0.2-0.066 0.3-0.3l0.1-0.2c-0.267 0.1-0.467 0.217-0.6 0.35 0.03 0.1 0.1 0.15 0.2 0.15zm-9.5-5.95l-0.3 1.05h0.65l-0.35-1.05zm-3.65 4.95l-0.8-0.25 0.5 0.3c0.367 0.233 0.617 0.333 0.75 0.3-0.033-0.1-0.183-0.217-0.45-0.35zm2.85 0.05l-0.3-0.75-0.25 0.75h0.55zm3.35-10.35l-0.3-1.1-0.25 1.1h0.55zm14.1 15.05l-0.2-0.5c-0.066 0.167-0.1 0.35-0.1 0.55-0.066 0.367-0.017 0.533 0.15 0.5l0.15-0.55zm-2.5-1.75c0.167 0.033 0.267 0.017 0.3-0.05-0.167-0.133-0.467-0.283-0.9-0.45 0.23 0.267 0.43 0.433 0.6 0.5zm8-14.95l-0.7-0.3c0.333 0.467 0.55 0.75 0.65 0.85 0.1 0.067 0.233 0.05 0.4-0.05 0-0.133-0.12-0.3-0.35-0.5z" fill="#3C291A"/>
			<path d="m171.9-79.3c3.3 0.233 3.85 0.233 1.65 0h-1.65z" fill="#5A3719"/>
			<polygon points="211.75 -74.8 208.4 -75.35 209.18 -75.15 209.6 -75.05 210.25 -74.9" fill="#302723" fill-opacity=".7843"/>
			<path d="m208.75-75.25l0.425 0.1-0.775-0.2 0.35 0.1zm1.5 0.35l-0.65-0.15-0.7-0.1 1.35 0.25z" fill="#2E281F" fill-opacity=".6235"/>
			<path d="m144.85-2.65h2.65l0.65-0.1-3.3 0.1zm-24.15 0.15l3.05-0.05 0.5-0.05 3.55-0.05 2.25-0.05 0.15-0.15c0-0.033 0.05-0.117 0.15-0.25 0.033-0.1-0.15-0.15-0.55-0.15-5.5 0-8.066 0.183-7.7 0.55l-1.4 0.2zm-21.95-0.7l-1.55-0.05-0.05 0.05h1.6zm0.9 0l0.1 0.05 0.2 0.15h0.3l-0.6-0.2zm61.25-2.2l-1.45 0.55h1.55l-0.1-0.55zm-44.45 2.45l0.3 0.05c0.3-0.2 0.2-0.217-0.3-0.05z" fill="#463424"/>
			<path d="m125.1-19.9c0.433 0.2 0.6 0.2 0.5 0l-0.45-0.05-0.05 0.05zm20.9-7.8c0.4 0.567 1.067 1.184 2 1.85 1.6 1.1 3.383 1.717 5.35 1.85 1.233-2.033 0.583-3.433-1.95-4.2-2.4-0.7-4.2-0.533-5.4 0.5zm-61.35 4.1c0.467 1.333 0.8 2.05 1 2.15v-0.15c-0.367-0.967-0.7-1.633-1-2zm0.1-8.75l-0.35-1.05-0.35 1.05h0.7zm28.9 4.4l1.7 0.55-0.85-0.35-0.85-0.2z" fill="#3C2919"/>
			<path d="m131.6-19.7c0.333 0.067 0.55-0.066 0.65-0.4l-0.7 0.3 0.05 0.1zm-25-7.05c-0.033-0.033-0.067-0.033-0.1 0l0.8 0.45c-0.2-0.233-0.43-0.383-0.7-0.45zm-4.1-7.85l-0.25-1.5-0.25 1.5h0.5zm4.05 4.15l-0.3-0.75-0.3 0.75h0.6z" fill="#3A2718"/>
			<path d="m95.9-22.85l-0.3-0.85-0.25 0.85h0.55zm-8.1-9.5c-0.1-0.2-0.433-0.35-1-0.45h-0.25c0.333 0.233 0.75 0.383 1.25 0.45zm5.35-7.3l-0.25-1.05-0.25 1.05h0.5z" fill="#3D2A1B"/>
			<path d="m70.9-14.2h-0.2l0.2 0.2c0.033-0.033 0.033-0.1 0-0.2zm-2.85-0.25v0.05c0.034 0.066 0.083 0.083 0.15 0.05l-0.15-0.1zm12.5 2l-0.15-0.3-0.1 0.3h0.25zm-5.25-0.7v-0.2h-0.5v0.2h0.5z" fill="#C1B091"/>
			<polygon points="49.45 -32 50.55 -32.55 50.5 -32.55" fill="#453223"/>
			<path d="m25.45-37.25c-0.034-0.167-0.184-0.383-0.45-0.65l-0.05 0.85 0.4-0.05 0.1-0.15z" fill="#463223"/>
	</g>
</symbol>
<symbol id="f">
</symbol>
		<use transform="matrix(.758 -.0059 0 -.7033 5.5498 34.3)" x="-7.35" y="-89.2" width="278.35" height="92.4" xlink:href="#e"/>
		<use transform="matrix(1 0 0 -1 105.5 93.35)" x="16383" y="16383" width="-32766" height="-32766" xlink:href="#f"/>
</svg>
