<?xml version="1.0"?>
<svg xmlns="http://www.w3.org/2000/svg" xmlns:xlink="http://www.w3.org/1999/xlink" version="1.1" id="Capa_1" x="0px" y="0px" viewBox="0 0 478.165 478.165" style="enable-background:new 0 0 478.165 478.165;" xml:space="preserve" width="512px" height="512px" class=""><g><g>
	<path id="Creative_Commons" d="M240.995,239.082c0-46.661,31.121-74.076,70.031-74.076c26.917,0,49.928,9.663,63.437,34.388   l-31.798,16.596c-7.431-15.839-20.163-19.246-26.558-19.246c-23.669,0-32.157,18.27-32.157,42.337   c0,24.167,10.181,42.437,32.157,42.437c12.671,0,22.832-4.762,29.447-20.621l29.726,15.022   c-12.871,22.454-35.842,37.357-62.879,37.357C270.283,313.278,240.995,286.381,240.995,239.082z M174.251,313.278   c27.036,0,50.148-14.903,62.938-37.357l-29.826-15.002c-6.615,15.68-16.636,20.601-29.387,20.601   c-21.976,0-32.057-18.27-32.057-42.437c0-24.068,8.487-42.417,32.057-42.417c6.395,0,19.107,3.447,26.538,19.326l31.798-16.616   c-13.548-24.685-36.619-34.368-63.337-34.368c-38.99,0-70.031,27.435-70.031,74.076   C102.945,286.381,132.113,313.278,174.251,313.278z M70.25,407.337C24.287,361.492,0,302.599,0,239.082   c0-62.839,24.904-123.107,70.808-169.729C115.417,24.267,173.215,0,238.684,0c65.708,0,124.642,24.267,170.525,70.071   c45.306,45.226,68.955,104.14,68.955,169.011c0,65.429-23.669,123.785-68.218,167.637   c-47.179,46.581-108.245,71.446-171.263,71.446C175.785,478.165,116.055,453.3,70.25,407.337z M43.254,239.082   c0,51.044,20.979,100.275,58.356,137.632c37.396,37.357,85.93,57.579,137.751,57.579c51.144,0,101.052-20.222,139.803-58.316   c36.619-36.022,55.646-83.181,55.646-136.875c0-53.036-19.625-101.55-56.404-138.229c-37.396-37.317-85.193-57.699-139.046-57.699   c-53.734,0-100.953,19.625-137.751,57.001C64.233,138.229,43.254,187.401,43.254,239.082z" data-original="#000000" class="active-path" data-old_color="#29516d" fill="#29516d"/>
</g></g> </svg>
