<?xml version="1.0" encoding="UTF-8"?>
<svg viewBox="0 0 900 550" xmlns="http://www.w3.org/2000/svg" xmlns:xlink="http://www.w3.org/1999/xlink">
 <defs>
  <filter id="u">
   <feGaussianBlur stdDeviation=".8815"/>
  </filter>
  <filter id="b">
   <feGaussianBlur stdDeviation="1.0357"/>
  </filter>
  <filter id="t">
   <feGaussianBlur stdDeviation="7.5073"/>
  </filter>
  <linearGradient id="a">
   <stop stop-color="#a39e9e" offset="0"/>
   <stop stop-color="#8e8a8a" offset=".125"/>
   <stop stop-color="#313131" offset=".25"/>
   <stop stop-color="#cecece" offset=".5"/>
   <stop offset="1"/>
  </linearGradient>
  <linearGradient id="s" x1="508.78" x2="419.49" y1="287.31" y2="316.59" gradientUnits="userSpaceOnUse">
   <stop stop-color="#ccc" offset="0"/>
   <stop stop-color="#ccc" stop-opacity="0" offset="1"/>
  </linearGradient>
  <linearGradient id="r" x1="199.29" x2="729.46" y1="559.59" y2="536.74" gradientUnits="userSpaceOnUse">
   <stop stop-color="#2b0000" offset="0"/>
   <stop stop-color="#5e0909" offset=".3001"/>
   <stop stop-color="#ab4a4a" offset=".6194"/>
   <stop stop-color="#ab5959" offset=".7198"/>
   <stop stop-color="#5e0909" offset=".9425"/>
   <stop stop-color="#2b0000" offset="1"/>
  </linearGradient>
  <linearGradient id="q" x1="370" x2="380" y1="684.29" y2="410" gradientUnits="userSpaceOnUse">
   <stop stop-color="#fff" offset="0"/>
   <stop stop-color="#fff" stop-opacity="0" offset="1"/>
  </linearGradient>
  <radialGradient id="p" cx="154.76" cy="517.23" r="55.262" gradientTransform="matrix(.99997 -.00715 .00914 1.2783 -4.7234 -149.15)" gradientUnits="userSpaceOnUse">
   <stop stop-color="#060000" offset="0"/>
   <stop stop-color="#333" offset="1"/>
  </radialGradient>
  <radialGradient id="o" cx="109.23" cy="465.99" r="48.872" gradientTransform="matrix(.99733 -.07307 .07234 .98743 -33.816 14.658)" gradientUnits="userSpaceOnUse">
   <stop stop-color="#999" offset="0"/>
   <stop stop-color="#999" stop-opacity="0" offset="1"/>
  </radialGradient>
  <radialGradient id="n" cx="118.09" cy="468.55" r="35.127" gradientTransform="matrix(1 0 0 .65789 0 160.29)" gradientUnits="userSpaceOnUse">
   <stop stop-color="#1e1b1b" offset="0"/>
   <stop stop-color="#1a1a1a" offset="1"/>
  </radialGradient>
  <radialGradient id="m" cx="953.9" cy="441.86" r="56.695" gradientTransform="matrix(.37482 .00502 -.0137 1.023 405.26 -19.174)" gradientUnits="userSpaceOnUse">
   <stop stop-color="#010101" offset="0"/>
   <stop stop-color="#333" offset="1"/>
  </radialGradient>
  <radialGradient id="l" cx="791" cy="381.6" r="55.394" gradientTransform="matrix(1.1531 .01378 -.01988 1.6632 -112.94 -265.9)" gradientUnits="userSpaceOnUse">
   <stop stop-color="#bcbcbc" offset="0"/>
   <stop stop-color="#3b3b3b" offset="1"/>
  </radialGradient>
  <radialGradient id="k" cx="458.86" cy="356.16" r="61.872" gradientTransform="matrix(.99949 -.01102 .00529 .37971 -1.649 225.98)" gradientUnits="userSpaceOnUse">
   <stop stop-color="#473939" stop-opacity=".0078" offset="0"/>
   <stop stop-color="#847d7d" offset=".9305"/>
   <stop stop-color="#adadad" offset="1"/>
  </radialGradient>
  <radialGradient id="j" cx="458.86" cy="356.16" r="61.872" gradientTransform="matrix(-.01271 .34235 -1.0279 -.03147 830.78 210.28)" gradientUnits="userSpaceOnUse">
   <stop stop-color="#3c3939" offset="0"/>
   <stop stop-color="#1d1d1d" offset=".1872"/>
   <stop stop-color="#c1c1c1" offset=".1872"/>
   <stop stop-color="#222" offset="1"/>
  </radialGradient>
  <radialGradient id="i" cx="-82.528" cy="187.39" r="54.53" gradientTransform="matrix(1 0 0 .72774 0 55.162)" gradientUnits="userSpaceOnUse">
   <stop stop-color="#c9c9c9" offset="0"/>
   <stop stop-color="#1a1a1a" stop-opacity="0" offset="1"/>
  </radialGradient>
  <radialGradient id="h" cx="-79.422" cy="229.69" r="47.797" gradientTransform="matrix(1 0 0 .26349 0 169.17)" gradientUnits="userSpaceOnUse">
   <stop stop-color="#b3b3b3" offset="0"/>
   <stop stop-color="#b3b3b3" stop-opacity="0" offset="1"/>
  </radialGradient>
  <radialGradient id="g" cx="465" cy="600" r="244.29" gradientTransform="matrix(1 0 0 .55263 0 268.42)" gradientUnits="userSpaceOnUse">
   <stop stop-color="#1a1a1a" offset="0"/>
   <stop stop-color="#1e1b1b" offset=".0156"/>
   <stop offset=".413"/>
   <stop stop-color="#1a1a1a" offset=".7463"/>
   <stop stop-color="#999" offset=".8117"/>
   <stop stop-color="#080808" offset=".8479"/>
   <stop stop-color="#ababab" offset=".8962"/>
   <stop stop-color="#1a1a1a" offset="1"/>
  </radialGradient>
  <radialGradient id="d" cx="471.95" cy="701.95" r="257.5" gradientTransform="matrix(.99991 .00559 -.00743 .23617 3.9137 313.26)" gradientUnits="userSpaceOnUse">
   <stop stop-color="#340202" offset="0"/>
   <stop stop-color="#0d0d0d" stop-opacity=".9961" offset=".125"/>
   <stop stop-color="#6e0808" stop-opacity=".9961" offset=".25"/>
   <stop stop-color="#010101" stop-opacity=".9961" offset=".671"/>
   <stop stop-color="#340202" stop-opacity=".993" offset="1"/>
  </radialGradient>
  <radialGradient id="c" cx="469.8" cy="466.7" r="257.5" gradientTransform="matrix(.99986 .0069 -.01115 .27308 5.1096 299.5)" gradientUnits="userSpaceOnUse">
   <stop stop-color="#b3b3b3" offset="0"/>
   <stop stop-color="#e5a8a8" offset=".8849"/>
   <stop stop-color="#b3b3b3" offset="1"/>
  </radialGradient>
  <radialGradient id="f" cx="-760.01" cy="818.52" r="271.78" gradientTransform="matrix(.10003 .99485 -.63831 .06589 1058.2 1114.8)" gradientUnits="userSpaceOnUse" xlink:href="#a"/>
  <radialGradient id="e" cx="-760.01" cy="818.52" r="271.78" gradientTransform="matrix(.102 1.016 -.65083 .06729 1070.9 1130)" gradientUnits="userSpaceOnUse" xlink:href="#a"/>
 </defs>
 <g transform="matrix(1.0621 0 0 1.0828 .90356 -317.83)">
  <path d="m418.34375,349.6031c-18.75815.0202-37.36944,5.27617-46.9375,15.8125-121.52634,10.5757-213.8619,56.59587-218.3125,112.40625-.37675,2.60872-.5625,5.2552-.5625,7.90625-2e-005,12.10202 3.98553,23.78157 11.40625,34.8125 .0202,5.70661.0641,11.41365.0937,17.125-5.97659-4.97051-10.70681-10.35378-11.46875-17.0625l-29.65625,2.75c-.0873-.0788-.1616-.1719-.25-.25-.15414-.13643-.31141-.27194-.46875-.40625-.0436-.0371-.0812-.088-.125-.125-.80529-.68048-1.64452-1.31055-2.53125-1.9375-.3103-.21944-.61743-.44324-.9375-.65625l-.46875-.3125c-.33355-.2155-.68756-.41617-1.03125-.625l-.0937-.0625c-.47638-.28781-.97326-.56851-1.46875-.84375-.15332-.0851-.31362-.16611-.46875-.25-.38422-.20795-.76102-.4243-1.15625-.625l-.4375-.21875c-.41604-.20633-.85344-.39516-1.28125-.59375-.1344-.0624-.2707-.12587-.40625-.1875-1.01807-.46283-2.07434-.9229-3.15625-1.34375-.12546-.0488-.2487-.10805-.375-.15625-.49431-.18882-.99289-.35086-1.5-.53125-.11183-.0397-.23131-.0857-.34375-.125-.53503-.18722-1.07613-.38439-1.625-.5625l-.28125-.0937c-1.21977-.3907-2.49553-.74645-3.78125-1.09375-.75483-.20384-1.50431-.40445-2.28125-.59375-.6808-.16586-1.39631-.31385-2.09375-.46875-.7388-.1641-1.46164-.34796-2.21875-.5-1.47237-.29567-2.99169-.56108-4.53125-.8125-10.27086-2.34217-20.68822-4.56171-33.65625-4.65625-.92629-.007-1.85973-.0153-2.8125,0s-1.92487.0547-2.90625.0937c-.47561.0525-.92238.11838-1.375.1875-.23263.0355-.46079.0852-.6875.125-.84269.14798-1.64251.32617-2.40625.53125-.23022.0617-.46416.12085-.6875.1875-.38779.11599-.78869.24438-1.15625.375-.70434.25035-1.36626.51125-2,.8125l-.0625.0312c-.30888.14815-.61336.30906-.90625.46875-.36541.1997-.72101.40805-1.0625.625l-.15625.0937c-.20833.1352-.42536.29604-.625.4375-.52137.36958-1.03476.74622-1.5,1.15625-.26823.2369-.49922.50057-.75.75-.15886.15753-.3166.30637-.46875.46875-.14167.15148-.27021.31323-.40625.46875-.3299.37688-.67018.75679-.96875,1.15625l-.0625.0937c-5.0207,6.79693-5.7615,16.66809-8.46875,25.125 3.3858,12.35239 2.88829,24.90578 18.9375,36.625 7.71869,3.40017 5.04944,9.90064 31.0625,7.8125 18.11286,1.44005 35.15704,4.32508 49.25,11.125h2.53125l8.0625-6.3125c.34824-2.74941.5413-5.40217.625-8l27.8125-2.9375c1.14244,29.04774 4.07323,58.96634 11.75,91.28125 78.86028,155.52684 450.40069,120.65714 501.40626-12.125 9.35897-43.3313 9.52238-87.82416 8.125-132.5 3.70997-5.03955 6.695-10.22573 8.90625-15.53125l10.0625-.4375c3.60048,3.9642 8.04082,7.38905 14.75,9.375l13.375-.5c24.43562-6.04741 47.0418-14.23941 67.4375-25 4.9083-2.28256 4.6699-5.40232 5.8125-8.3125l-1-6.1875c.50777-1.51906.56032-3.32938 0-5.46875-12.3497-29.76176-34.29765-38.86312-55.0625-50.5-2.10284-.85005-4.30072-1.1947-6.5625-1.25-3.76964-.0922-7.71328.63178-11.625,1.25-28.17148,10.26109-37.53742,20.97946-37.09375,31.90625l-1.03125.9375-.0625,2.375-.71875-.84375-2.5625-.28125c-5.02566-8.56484-12.07031-16.74597-20.90625-24.4375-.0777-.0676-.14082-.15123-.21875-.21875-38.46923-34.86686-114.42591-59.98842-204.03126-65.9061-10.33065-9.88265-28.81175-14.86349-47.15625-14.84375zm322.87501,96.1875c1.51591.0387 2.96699.51559 4.3125,1.40625 12.98578,5.33305 19.02286,12.6466 27.78125,19.1875 1.3174,1.74965.94643,2.84929-.40625,3.53125-.19324.0974-.39312.16808-.625.25l-27.5.25c-.38933.0347-.79732.0802-1.1875.0937-2.73126.0951-5.46219-.45402-8.1875-3.125-4.99117-1.89262-6.59953-5.13985-8.3125-8.34375v-2.3125-1.96875c1.08076-3.82989 4.93106-5.98177 9.34375-7.8125 1.68223-.7929 3.26534-1.19495 4.78125-1.15625zm-683.71876,87.46875c.52472-1e-005 1.10824.0331 1.71875.0937 .43529.0432.89577.11306 1.375.1875l.5625.0937c.61238.10612 1.22513.22051 1.90625.375 .88145.19983 1.81567.43749 2.8125.71875 12.04711,2.87939 19.56376,8.98338 27,15.15625-.34426.21494-.72817.42759-1.125.625s-.80461.38129-1.25.5625c-6.23541,2.53682-17.03563,3.54937-26.90625,4.875-5.67903-4.08331-7.6495-8.92598-10.09375-13.65625-2.31253-5.38293-1.64466-8.65576 3.15625-9 .27278-.0196.54391-.0312.84375-.0312z" fill="#808080" filter="url(#t)"/>
  <g transform="translate(-5.7143 58.571)">
   <path d="m735.7 383.66-6.0609 5.5558-1.0102 38.638c8.2365 8.6023 11.921 20.101 26.769 24.496l13.385-0.50508c24.436-6.0474 47.032-14.241 67.428-25.001 4.9083-2.2826 4.6658-5.4236 5.8084-8.3338l-1.5152-9.5964-63.387 5.8084-33.335-17.678z" fill="url(#m)"/>
   <path d="m779.39 355.13c-3.7696-0.0922-7.7133 0.63178-11.625 1.25-28.332 10.32-37.652 21.102-37.094 32.094 4.9697 8.2658 13.179 15.861 21.438 23.469 12.178 13.81 50.7 6.7263 80.812 6.3125 6.4142-1.6178 9.7505-5.0491 8.0937-11.375-12.35-29.762-34.298-38.863-55.062-50.5-2.1028-0.85005-4.3007-1.1947-6.5625-1.25zm-2.5312 26.125c1.5159 0.0387 2.967 0.51559 4.3125 1.4062 12.986 5.333 19.023 12.647 27.781 19.188 1.5056 1.9996 0.8238 3.1259-1.0313 3.7812l-27.5 0.25c-3.1146 0.27742-6.2604 0.0213-9.375-3.0312-4.9912-1.8926-6.5995-5.1398-8.3125-8.3438v-4.2812c1.0808-3.8299 4.9311-5.9818 9.3438-7.8125 1.6822-0.7929 3.2653-1.195 4.7812-1.1562z" fill="url(#l)"/>
   <path d="m747.57 411.19-1.7678 31.567-24.244 1.0102-0.25253-31.315z" fill="#ccc"/>
   <path d="m747.07 411.95-18.183-21.213-20.456-2.2728 13.132 24.496z" fill="#999"/>
   <path d="m778.04 360.29c-3.5249 0.11028-7.3006 0.92891-11.031 1.6562-6.5161 2.5221-12.842 6.0006-18.688 11.875-1.9571 3.6355-2.7355 7.5664-2 11.875 6.669 10.398 16.05 18.946 30.781 23.969l47.5-4.0312c-2.7443-18.971-18.767-32.326-38.906-43.938-2.3308-1.1466-4.9146-1.492-7.6562-1.4062zm-1.1875 20.969c1.5159 0.0387 2.967 0.51559 4.3125 1.4062 12.986 5.333 19.023 12.647 27.781 19.188 1.5056 1.9996 0.8238 3.1259-1.0313 3.7812l-27.5 0.25c-3.1146 0.27742-6.2604 0.0213-9.375-3.0312-4.9912-1.8926-6.5995-5.1398-8.3125-8.3438v-4.2812c1.0808-3.8299 4.9311-5.9818 9.3438-7.8125 1.6822-0.7929 3.2653-1.195 4.7812-1.1562z" fill="#4d4d4d"/>
   <path d="m778.04 360.29c-3.5249 0.11028-7.3006 0.92891-11.031 1.6562-6.5161 2.5221-12.842 6.0006-18.688 11.875-0.75986 1.4115-1.3339 2.8696-1.7188 4.375 7.1136 6.1507 11.528 10.003 16.125 14v-1.9688c1.0808-3.8299 4.9311-5.9818 9.3438-7.8125 1.6822-0.7929 3.2653-1.195 4.7812-1.1562s2.967 0.51559 4.3125 1.4062c12.986 5.333 19.023 12.647 27.781 19.188 0.1235 0.16409 0.2178 0.3162 0.3124 0.46875l14.5-0.875c-4.3371-16.783-19.438-29.012-38.062-39.75-2.3308-1.1466-4.9146-1.492-7.6562-1.4062z" fill="#333"/>
   <path transform="matrix(1.0555 0 0 2.5038 -35.341 -634.97)" d="m727.14 420.36c0 26.234-115.29 47.5-257.5 47.5s-257.5-21.266-257.5-47.5 115.29-47.5 257.5-47.5c132.4 0 243.22 18.521 256.25 42.825" fill="url(#d)"/>
   <path transform="matrix(.99977 -.0204 .01897 .8596 -14.135 76.936)" d="m709.29 600c0 74.558-109.37 135-244.29 135s-244.29-60.442-244.29-135 109.37-135 244.29-135c125.6 0 230.74 52.638 243.1 121.71" fill="url(#g)"/>
   <path d="m199.29 425c1.2506 58.006-2.6117 113.46 12.857 178.57 78.86 155.53 450.42 120.64 501.43-12.143 12.575-58.22 8.5078-118.52 6.4286-178.57 15.622 144.35-503.95 154.01-520.71 12.143z" fill="url(#r)"/>
   <g transform="translate(13.132 10.102)">
    <path d="m169.29 484.29 38.571-4.6428c-2.3904 10.952-2.6096 20.833 0.71428 31.786l-37.5 3.9286z" fill="#ccc"/>
    <path d="m169.29 484.29-12.143-25.357 31.071-2.8571c1.103 9.7117 10.526 16.65 20 23.571z" fill="#999"/>
    <path d="m91.594 440.78c-1.8526-0.0135-3.756 0.0154-5.7188 0.0937-20.142 2.2222-19.399 19.502-23.75 33.094 3.3858 12.352 2.8883 24.906 18.938 36.625 7.7187 3.4002 5.0494 9.9006 31.062 7.8125 18.113 1.44 35.157 4.3251 49.25 11.125h2.5312l8.0625-6.3125c2.1034-16.607-1.1293-30.155-3.5312-44.188-1.6398-19.578-18.012-29.482-43.188-33.594-10.271-2.3422-20.688-4.5617-33.656-4.6562zm0.71875 27.969c2.1822-0.15647 5.2246 0.31057 9.2188 1.4375 12.047 2.8794 19.564 8.9834 27 15.156-5.5082 3.4392-18.001 4.5475-29.281 6.0625-5.679-4.0833-7.6495-8.926-10.094-13.656-2.3125-5.3829-1.6447-8.6558 3.1562-9z" fill="url(#p)"/>
    <path d="m88.781 440.78c-0.95277 0.0153-1.9249 0.0546-2.9062 0.0937-7.6098 0.83957-12.233 3.8416-15.281 7.9688-0.25934 18.36 1.2648 36.098 17.531 48.625 3.0707 3.3986 8.6531 4.9996 16.438 5.0312 40.397 3.0508 54.622-10.161 63.75-24.719-2.2229-18.75-18.43-28.321-43.062-32.344-10.271-2.3422-20.688-4.5617-33.656-4.6562-0.92629-7e-3 -1.8597-0.0153-2.8125 0zm4.375 27.938c2.0989-2e-5 4.8802 0.48269 8.375 1.4688 12.047 2.8794 19.564 8.9834 27 15.156-5.5082 3.4392-18.001 4.5475-29.281 6.0625-5.679-4.0833-7.6495-8.926-10.094-13.656-2.3125-5.3829-1.6447-8.6558 3.1562-9 0.27278-0.0196 0.54391-0.0312 0.84375-0.0312z" fill="url(#o)"/>
    <path d="m94.438 445.44c-8.5551 0.72735-12.217 4.2291-11.344 10.344 0.62506 15.327-0.10185 31.622 16.156 35.875 30.773-2.6699 41.151-10.78 52.281-18.688 3.4743-4.9462 0.89696-7.8963-1.5312-10.875-12.537-9.7787-31.582-14.955-55.562-16.656zm-1.2812 23.281c2.0989-2e-5 4.8802 0.48269 8.375 1.4688 12.047 2.8794 19.564 8.9834 27 15.156-5.5082 3.4392-18.001 4.5475-29.281 6.0625-5.679-4.0833-7.6495-8.926-10.094-13.656-2.3125-5.3829-1.6447-8.6558 3.1562-9 0.27278-0.0196 0.54391-0.0312 0.84375-0.0312z" fill="url(#n)"/>
   </g>
   <path d="m460.67 301.76c-148.15 0-268.25 53.224-268.25 118.91s120.1 118.94 268.25 118.94 268.25-53.255 268.25-118.94l-1.2954-11.688c-13.575-60.852-129.02-107.22-266.95-107.22zm-0.98699 5.0312c133.31 0 244.88 43.22 258.01 99.938l1.2646 10.906c0 61.219-116.08 110.88-259.27 110.88s-259.3-49.656-259.3-110.88 116.11-110.84 259.3-110.84z" fill="url(#f)"/>
   <path d="m461.68 299.74c-151.06 0-273.51 54.354-273.51 121.43s122.45 121.46 273.51 121.46 273.51-54.386 273.51-121.46l-1.3208-11.936c-13.841-62.145-131.56-109.5-272.19-109.5zm-1.0064 5.1381c135.93 0 249.69 44.138 263.07 102.06l1.2894 11.138c0 62.519-118.35 113.23-264.36 113.23s-264.39-50.71-264.39-113.23 118.38-113.2 264.39-113.2z" fill="url(#e)"/>
   <path transform="matrix(.95567 0 0 1 18.206 -9.682)" d="m510.38 387.35c0 11.018-22.952 19.951-51.265 19.951s-51.265-8.9322-51.265-19.951 22.952-19.951 51.265-19.951c26.359 0 48.422 7.7789 51.016 17.987" fill="#333" filter="url(#u)"/>
   <path transform="matrix(1.0555 0 0 2.3974 -35.341 -585.23)" d="m727.14 420.36c0 26.234-115.29 47.5-257.5 47.5s-257.5-21.266-257.5-47.5 115.29-47.5 257.5-47.5c132.4 0 243.22 18.521 256.25 42.825" fill="url(#c)" opacity=".5697"/>
   <path transform="matrix(1.1959 0 0 1.3443 -93.311 -126.61)" d="m520.73 356.16c0 12.762-27.701 23.107-61.872 23.107s-61.872-10.345-61.872-23.107 27.701-23.107 61.872-23.107c31.813 0 58.44 9.0097 61.571 20.833" filter="url(#b)"/>
   <path transform="matrix(1.1959 0 0 1.3235 -93.311 -119.69)" d="m520.73 356.16c0 12.762-27.701 23.107-61.872 23.107s-61.872-10.345-61.872-23.107 27.701-23.107 61.872-23.107c31.813 0 58.44 9.0097 61.571 20.833" fill="url(#k)" filter="url(#b)"/>
   <g transform="translate(535 122.14)">
    <path transform="matrix(1.1959 0 0 1.3169 -628.31 -239.66)" d="m520.73 356.16c0 12.762-27.701 23.107-61.872 23.107s-61.872-10.345-61.872-23.107 27.701-23.107 61.872-23.107c31.813 0 58.44 9.0097 61.571 20.833" fill="url(#j)"/>
    <path d="m-126.52 229.01c13.821 15.496 73.736 19.701 94.197 0.25254l0.75762-13.385c41.015-70.331-140.94-71.295-95.712 1.2627z" fill="#1a1a1a"/>
    <path d="m-126.52 229.01c13.821 15.496 73.736 19.701 94.197 0.25254l0.75762-13.385c41.015-70.331-140.94-71.295-95.712 1.2627z" fill="url(#i)"/>
    <path d="m-31.625 217.09c-31.957 9.9577-63.97 10.392-95.594 1l0.6875 10.906c13.821 15.496 73.758 19.698 94.219 0.25l0.6875-12.156z" fill="url(#h)" opacity=".8648"/>
    <path transform="translate(-532.35 -119.45)" d="m502.05 304.77c0 8.9263-17.129 16.162-38.26 16.162s-38.26-7.2362-38.26-16.162 17.129-16.162 38.26-16.162c19.672 0 36.138 6.3018 38.074 14.572" fill="url(#s)" opacity=".2705"/>
   </g>
   <path d="m427.14 401.43c-33.229 47.553-81.26 114.94 122.86 114.29 73.764 14.136 95.619-31.881 110-58.571-29.524-101.9-70.476-131.43-122.86-88.571-13.577 48.473-68.476 29.798-110 32.857z" fill="url(#q)"/>
  </g>
 </g>
</svg>
