<?xml version="1.0" encoding="UTF-8"?>
<svg width="175.23" height="127.69" viewBox="0 0 999 728" xmlns="http://www.w3.org/2000/svg">
 <path d="m998 530a499 164 0 1 0 -998 0 499 164 0 1 0 998 0" fill="#bfbfdd"/>
 <path d="m960 524a471 154 0 1 0 -942 0 471 154 0 1 0 942 0" fill="#babadd"/>
 <path d="m922 517a443 144 0 1 0 -886 0 443 144 0 1 0 886 0" fill="#b5b5db"/>
 <path d="m884 511a415 134 0 1 0 -830 0 415 134 0 1 0 830 0" fill="#b2b2d8"/>
 <path d="m847 504a387 124 0 1 0 -774 0 387 124 0 1 0 774 0" fill="#adadd6"/>
 <path d="m809 498a359 114 0 1 0 -718 0 359 114 0 1 0 718 0" fill="#a8a8d3"/>
 <path d="m771 491a331 104 0 1 0 -662 0 331 104 0 1 0 662 0" fill="#a3a3d1"/>
 <path d="m734 484a303 94 0 1 0 -606 0 303 94 0 1 0 606 0" fill="#9e9ece"/>
 <path d="m696 478a275 84 0 1 0 -550 0 275 84 0 1 0 550 0" fill="#9b9bcc"/>
 <path d="m658 472a247 74 0 1 0 -494 0 247 74 0 1 0 494 0" fill="#9696cc"/>
 <path d="m621 465a219 64 0 1 0 -438 0 219 64 0 1 0 438 0" fill="#9191c6"/>
 <path d="m583 458a191 54 0 1 0 -382 0 191 54 0 1 0 382 0" fill="#8c8cc6"/>
 <path d="m546 452a163 44 0 1 0 -326 0 163 44 0 1 0 326 0" fill="#8989c4"/>
 <path d="m508 445a135 34 0 1 0 -270 0 135 34 0 1 0 270 0" fill="#8484c1"/>
 <path d="m470 439a107 24 0 1 0 -214 0 107 24 0 1 0 214 0" fill="#7f7fbf"/>
 <path d="m939 373 3-12 3-12 3-11 3-11 3-11 2-12 3-12 2-12 2-13 3-12 4-13 4-14 4-14 3-14 2-17 1-17 1-12 1-10-1-10-3-7-3-2-3-1-4-1h-2l-5 1-4 3-4 2-3 4-3 3-2 5-3 4-2 4-6-1-5-2-6-1-5-2-6-1-6-1-6-2-6-1-5-2-6-1-6-1-6-1-5-1-6-2-6-1-6-1-6-2-8-2-6-2-7-2-7-2-7-2-7-1-8-2-6-1-7-1-7-1-6-1-6-1-7-1-7-2-6-1-6-1-7-2-6-1-7-2-6-2-6-2-7-1-6-2v64l5 2h4l5 1 4 1 5 1 4 1 5 1 4 1-6 4-7 4-7 4-8 5-7 4-8 3-8 3-8 2 3-40h3l3 1h3l4 1v-65l-5-1-5-2-5-1-5-1-6-2-5-1-5-1-6-2v65h6l-2 56-2 1-2 1h-2l-3 1h-9l-1-10-1-10-3-10-6-8 1-29 2 1 3 1 2 1 3 1 2 1h2l3 1 2 1v-65l-6-2-6-1-7-2-6-1-6-2-7-1-6-1-7-1v60l9 3-1 4 1 6v5l1 6v4l-1 4-3 2h-5l-8 4-5 5-3 6-3 8-1 7v8l-1 7-1 7h-4v-9l1-8v-9l-1-7 3-6 3-6 1-6-1-7-3-5 3-29 12 4v-59h-3l-4-1h-3l-3-1h-7l-3-1h-3l-1-2-2-3-2-2-2-2-2-2-3-1-2-2-3-1v82l1-4 2-3v-4l1-4 4 4 1 7v15l-2-1h-3l-2-1-2-1v60h1l1-1h2l-1 9-19-6v-1l1-1v-4h3l4 1 3 2 4 1v-61h-1v-3l1-1v-85l-1-1h-1l-3-1h-6l-3 1h-3l-3 2-3 1-2 2-5-5-5-2-6-2-6-1-7-1-5-2-5-3-3-6h-3l-3 1h-3l-3 1-3 1-2 1-3 2-3 2-3-5-3-1-4-1-4-1h-4l-3-1-4-1h-4l-3-1v40l2 1 2 1h2l2 1 1 19v57l-2 3-3 4-4 2-3-2 3-5 1-6-1-5-1-6-2-5-2-6v-6l2-6-3-9-1-11 1-12-1-10h1v-41h-1l-2-1-1-1-2-1 1-2-1-2v-2l-1-2-1-3-1-2-2-2-1-2-3-1-2-2h-6l-3 2-2 2-2 3-2 3-1 3-1 3-2 2-4 2-8-1-7-2-9-1-8-1-8-1-8-1-9-1-8-2h-8l-8-1-8-1h-17l-8 1-8 1-8 1-6 1-6 2-5 2-5 2-6 2-6 2-6 2-6 1-4 4-5 2-6 2-6 1h-6l-6 1h-6l-6 1-2-3-2-4-2-4 1-4-2-4-3-2-4-2-4 1-3 1-3 1-3 1-3 3-3 2-2 3-2 3-1 3-4 20 1 21 2 21 1 21 1 12 1 12v12l2 12v13l1 12 2 13 3 11 3 13 3 12 3 12 2 13 4 24 4 23 4 24 3 24 3 10 4 10 2 9 3 9-7-1h-7l-7-1-7-1-7-1-7-1-6-1h-7l-7-1-6-1h-7l-7-1h-7l-6-1h-15l-3 1-2 1-3 2-3 1-2 3-1 2-2 3-1 3 6 11 8 8 10 5 11 3 11 3 12 3 12 2 10 5 5-1h23l6 1h11l6 1h5l5 1h22l5-1h4l5-1h4l5-1h8l4-1h4v-53l-5 1-5 1-5 1-5 1-5 2h-17l-3-27-1-26-1-26-3-26 8 4 7 6 8 5 7 5 8 5 7 6 7 5 7 6 7 6 8 5 7 6 7 5 7 6 7 6 7 5 8 6-6 2-6 2-7 1-6 2-7 1-6 1-6 1-6 2h-2v52h9l8-1 8-2 9-2 8-2 8-4 8-3 8-4 7-5 8-6 8-1 7 1 8 4 7 5 7 5 8 4 7 2 9 7 9 5 8 6 9 6 8 6 8 6 9 6 8 5 8 6 8 6 9 6 8 6 9 6 8 6 8 7 9 6 4 2 4 2 5 2 4 2 5 1 4 3 4 2 4 3-2 29-2 27v29l1 27-4 2-4 1-5 2-4 1h-10l-4-1-5-1h-13l-6-1h-13l-7-1h-6l-7-1h-14l-6-1h-27l-7 1-12 4-5 2-4 3-3 4-3 3-2 3-2 4-2 5-1 5 2 3 3 2 3 2 3 2 5 1 5 2 5 3 4 3 4 2 4 3 6 1 5 1 7 1 7 2 6 1 7 1 7 1 7 1h7l8 1h14l7 1h15l7 1h6l8 1 1-1h31l11-1 10-2 10-2 10-2 11-2 10-3 10-3 11-3 10-3 10-3 10-4 10-2 10-3h2l2-1h4v-71l-7 3-6 2-6 3-7 3-6 2-7 2-7 2-6 2-6 3-7 1-7 2-6 2-7 2-7 1-7 2-7 1 2-29-1-29-1-29 2-29 6-2 6-2 6-2 5-2 6-3 5-2 6-2 6-2 5-3 6-2 5-2 7-1 5-2 6-1 7-1 6-1 5-2 7-2 6-2 6-2 6-2 6-1 6-2 6-1 7-2 6-2 5-2 7-1 6-3 5-2 6-3 6-3 5-1 5-1 6-2 5-1 5-2 6-2 5-2 5-2 4-2 6-2 5-2 4-2 5-3 6-2 5-2 5-1-1 9-2 8-2 8-3 9-3 9-2 9-1 9 1 10-5 28-6 4-6 5-7 4-6 3-6 4-7 3-6 4-7 3-7 4-6 3-6 3-7 3-6 4-7 3-7 3-6 4-4 1-5 2-5 2-4 2-5 2-4 2-5 2-5 2v71l11-4 10-3 11-5 10-4 10-5 9-5 11-5 9-5 5-5 5-5 5-4 5-3 5-4 6-4 5-3 5-3 6-4 6-3 5-2 5-4 6-3 6-3 5-3 6-3 5-6 6-7 6-6 6-5 7-5 6-6 7-5 7-5 5-8 6-6 7-6 6-7 6-6 5-7 3-8 1-9-3-6-2-6-4-4-6-4-10-2-9 2-7 4-7 6-6 8-6 8-5 8-6 7 1-9 2-8 2-9 3-8 3-8 3-9 3-8 1-9 5-9 3-9 2-9 2-9 2-9 2-9 2-9 3-9z"/>
 <path d="m233 386v53h12l3-1v-52l-3-1h-4l-4 1h-4z"/>
 <path d="m706 618v71l2-1 3-1h2l2-1v-71l-2 1h-2l-3 1-2 1z"/>
 <path d="m693 155v-64h-2l-1-1h-2l-2-1v65h4l1 1h2z"/>
 <path d="m644 143v-65l-1-1h-4v65h3l1 1h1z"/>
 <path d="m588 126v-60h-4l-1-1h-2v59l7 2z"/>
 <path d="m415 66v-40l-1-1h-3l-2-1v41h5l1 1z"/>
 <path d="m538 129v-82h-1v85-1l1-1v-1z"/>
 <path d="m537 197h1v-60h-1v-1 61z"/>
 <path d="m402 684v-6l2-4 3-3 5-2h39l7 1h6l7 1h32l7-1h18l6-1 6-2h6l6 1 5 4 4 6h3l3-1 2-1 3-3-1-3-2-2-4-1-2-2-1-27 5-159 14-236 2-19 1-18 2-18 5-17 2-1h8l2 1 3 1 2 1 2 2 3 13v14l-2 14v13l-13 180-4 66-3 64-4 64-3 69-2 1-3-1-2 1-2 2v3l2 2 2 2 3 1 2-1 2-1 3-1 2-1 2-1 1-2 2-2 1-2 1-2 1-3v-6h17l9-1 9-1 9-2 8-1 9-3 9-2 8-2 9-4 8-2 8-3 9-4 8-3 8-3 8-3 7-5 8-4 8-4 8-4 8-5 7-4 8-4 8-3 8-4 8-5 8-4 8-4 7-4 8-5 7-5 8-5 2 4 2 1h2l3-1 2-2 3-1 3-1h2l4-3 3-2 2-3 2-4 2-3 2-3 1-4 1-4 3-1 7-6 7-6 6-7 7-6 6-6 6-6 7-6 7-5 5 1 2 3 2 4-2 5-9 12-9 13-10 11-11 10-11 10-12 9-11 9-13 9-12 8-12 8-13 8-12 8-13 8-12 9-12 8-12 9-19 8-19 8-20 8-20 7-20 6-20 6-20 6-21 4-21 4-21 4-21 2-21 1-22 1-22-1-22-1-22-3-6-2-5-2-6-2-5-2-5-2-6-3-4-4-4-4z" fill="#7fffff"/>
 <path d="m888 437 9-8 7-10 4-12 3-12 2-13 1-13 3-12 3-12 3-12 4-12 3-12 4-12 4-12 4-12 2-12 1-14 5-16 4-18 2-16 1-17 2-3 1-5 1-4v-4l-3-4-2-4-1-4 1-5 2-3 2-4 3-4 3-2h3l3 1 2 3 2 2-3 28-5 28-6 27-7 28-7 27-7 27-7 27-5 27-5 23-6 23-6 23-6 23-7 23-7 22-6 23-7 22-9 8 1-14 2-14 3-14 3-13 3-14 3-15 2-13 1-15z" fill="#56d6d6"/>
 <path d="m435 444-9-6-8-5-10-6-8-6-9-6-9-6-8-5-9-6-9-5-9-7-8-5-9-6-9-6-9-6-8-7-8-6 2-2 4-2 4-4 3-3 1-11 8 1-1 2v6l1 1h1l1 1h2l4-5 3-38 2-37 2-36 1-38-3-3-4-3-4-2-4-2-4-2-5-2-5-3-4-2-5-2-5-2-5-1-5-1-4 4 2 30 1 30 1 31v31l-4 11-2 12v13l-2 11-94-66-1-4-2-3-1-4v-5l3 4 4 2 3 2 4 2 4 2 4 2 3 2 4 2 5 1 3-2 2-4 2-3 1-38-3-36-3-37-3-36-6-4-6-3-8-3-7-2-7-2-7-2-7-4-6-4-3-20 12 2 12 3 12 4 12 3 11 4 12 4 11 5 12 5 11 5 11 5 12 5 11 6 11 5 11 4 12 5 12 4 7 3 8 4 9 3 7 2 9 3 8 4 8 3 8 3 8 3 8 3 8 3 8 4 7 3 8 4 8 4 7 5 6 1 7 3 7 2 6 2 7 2 6 3 6 3 6 3 6 2 6 4 7 2 6 3 6 2 7 2 7 2 6 2-4 58-11-5-9 10-2 43-4 44-3 43v43l2 1 2 2 3 2 2 1 3 1h2l4 1 3 1-3 44-8-4-7-4-7-4-7-5-7-5-8-4-7-6-6-5-8-5-7-5-6-5-8-5-6-5-8-4-7-5-7-5z" fill="#7fffff"/>
 <path d="m614 382 2-38 4-38 4-38 4-38h34l7-1 6-2 5-3 8-1 7-2 6-2 7-3 6-4 6-4 6-4 6-5 6-5 5-4 7-4 5-4 7-4 6-3 7-2 7-1 6-3 6-2 7-3 7-1 7-2 8-1 7-1h15l8 1 7 1 7 1 7 2 6 2 7 3 5 3 6 3 6 3 7 1 6 1 7-1h7l6-1h7l-6 30-7 30-7 30-7 30-7 30-7 30-7 30-6 30-12 8-17 7-17 6-17 5-17 5-18 6-17 5-17 5-18 6-17 5-17 5-17 5-17 6-17 6-18 6-16 7-17 6 1-33 4-33 3-34 2-35z" fill="#7fffff"/>
 <path d="m541 452v-39l2-39 4-38 6-37h2l1 1h1v80l-2 41-2 40h-4l-5-2-2-2-1-5z" fill="#bfffbf"/>
 <path d="m465 423-2-24 1-24 3-25 1-25 8-65 7-1 7 1 6 2 6 4 6 3 7 3 6 3 8 1 2 3-2 43-2 44-3 44-3 43-2 1-7-3-8-4-7-2-7-3-8-3-6-4-6-6-5-6z"/>
 <path d="m43 404 1-3 2-3 3-1 3-1 7 1 6 1 7 1 7 1 6 1 7 1 7 1 7 1h6l7 1 7 1 7 1h7l7 1 6 1h7l1 4 1 4 2 3 3 2 3 1 3-1 2-2 3-2-1-3-2-1-3-1-2-2-7-46-8-46-7-46-7-46-7-46-6-47-6-47-4-47 1-5 1-5 1-4 4-3h4l3 2 2 3 1 3 5 18 1 18 1 19 3 18 2 27 3 26 4 26 4 25 4 26 4 26 4 25 4 26v18l3 19 2 18 1 18 1 9 1 8v8l-2 8 1 1h4l3-2 2-2 2-4v-3l8-1h7l8-1 8-1 7-1h8l8-2 7-1 8-1 7-2 8-1 7-2 7-2 7-3 7-3 7-3 3 1h2l2 1 3 1 2 2 1 1 2 3 2 1-14 6-15 6-15 4-16 5-16 4-16 3-16 2-16 2-17 1-16 1h-17l-16-1-16-1-17-2-16-2-16-3-30-14z" fill="#7fffff"/>
 <path d="m473 415 1-23 2-22 3-22 2-22 3-14 1-13 1-14 3-12h4l4 2 4 1 5 1 4 2 4 3 3 4 2 4-2 37-2 37-2 36-1 36-5-3-5-3-5-2-5-2-6-2-4-2-5-3-4-4z" fill="#bfffbf"/>
 <path d="m402 386-2-5v-5l1-6 1-6-1-35 1-34 3-35 3-35 2-4 8 2 7 3 7 3 7 4 6 5 7 4 6 4 7 4-1 38-2 39-4 38-3 39-5 3-6-3-6-3-6-3-6-3-6-3-5-3-7-2-6-1z"/>
 <path d="m411 377-1-30-1-29 1-30 4-29 3 1h2l3 1h7l3-1h2l2-2 2-1 2-2 1-2 2-2 1-1 3-1 2 1 4 3v3l1 4 3 3-4 29-4 30-3 31-1 29-3 6-4-1-4-2-3-2-4-2-4-1-4-2-4-1h-4z" fill="#bfffbf"/>
 <path d="m335 342-1-34 3-33 2-34-2-33 2-6v-7l2-5 6-1 3 5 6 2 5 2 5 3 5 2 6 3 5 2 5 3 5 2 2 40v39l-2 40-5 41-4 2-2-2-2-4-4-2-6-2-5-2-5-3-5-3-5-4-5-4-5-4-4-3z"/>
 <path d="m342 324 2-30 3-30 2-30v-29h2l3 1 2 1 2 1 2 1 2 1 2 2 2 1v8l1 7 2 6 2 7 13 9-3 26-2 24-2 25-2 26-5-3-4-3-5-2-4-3-5-3-4-4-4-4-2-5z" fill="#bfffbf"/>
 <path d="m283 330 1-10-1-12 2-10 4-11-1-83 4-1 5-1 4-2 3-1 4-2 4-1h9l4-2v28l-1 32-3 32-3 31-2-1h-2l-3 1h-2l-2 1-2 1-2 2-1 2-1 4v5l-1 5-4 1-2-3-4-3-3-2h-4z" fill="#bfffbf"/>
 <path d="m259 298-5-3-5-4-5-2-5-3-6-4-5-3-4-5-4-5v-2l1-2v-1l2-2-1-31v-63l-4-30 1-5 3-2h4l4 1 6 6 7 3 8 3 8 4 6 3 4 6 2 7-2 10-1 32 2 31 1 30-2 31h-3l-2-1h-2l-3 1z"/>
 <path d="m229 268v-23l1-24v-49l4 1 5 2 3 4 4 3 3 3 4 2 4 2 4 2v25l1 24 1 24v25l-34-21z" fill="#bfffbf"/>
 <path d="m175 233-1-7-1-8v-7l4-7-1-3 1-4 2-3 1-3 2-3-1-2-2-1-5-1v-4l1-2 3-2 3-1 3-2 3-1 2-2 2-3 12 3 2 21 2 22v23l-1 22-4-2-4-3-4-3-4-3-4-3-4-3-3-3-4-5z" fill="#bfffbf"/>
 <path d="m417 234 20 12-3 3-4 2h-5l-4-1-4-2-2-3-1-5 3-6z" fill="#9e9e3f"/>
 <path d="m376 217 5 1 3 5 1 7v8l-4-4-3-5-2-6v-6z" fill="#9e9e3f"/>
 <path d="m628 211h14l7-1 6-1 7-2 6-2 7-2 6-2 6-3 6-2 6-4 5-3 7-3 5-3 6-3 6-4 9-5 9-4 9-5 9-4 9-4 9-3 10-3 10-2-11 4-11 4-10 5-11 5-10 6-11 5-10 7-10 6-10 5-11 6-10 5-11 5-12 4-11 3-12 2-12 1-1-1v-7z" fill="#7fffff"/>
 <path d="m552 209-1-3v-9h2l1-1 1-2-1 15h-2z" fill="#7fffff"/>
 <path d="m287 173 24 11-2 2-2 2-3 2-3 1-2 2-3 1-4 1-3 1-2-6v-17z" fill="#7fff7f"/>
 <path d="m438 165 2-1h2l3-1 1-2v-2l-1-2-1-1-4-1-3 2-3 2-3 3-9-5 2-2 2-2 1-2 2-2 2-2 2-1 3 1 2 1 4-1h4l4 2 4 2 3 2 4 1 4 1 5-2 3-3 3-1 3-1h4l3-1 2-1 2-3 1-4 4-6 3-6 1-8-1-7-2-5-1-5 2-4 2-6 2-4v-5l-1-4-5-4-4 4-1 4-2 5-1 5-3-2-4-2h-4l-4-1-4-1-2-1-1-4 1-5-3-1-3 1-3 3-1 4v4l-2 2-3 2-3 3-2-9 2-9 1-8-3-9v-7l3-6 4-5 6-4 5-2 3 7 5 4 6 2 6 1h7l7 2 5 2 5 6v1l2 1h1l2 1 1-3 2-3 2-1 3-2h10l3 1 4 2 4 3 3 3 2 3-1 7-2 6-2 5-2 6h-2l-2 2-2 1-1 2 2 11-1 12-3 10-7 10 2 4 4 2 3 2 3 2 4 1 4 1 3 2 4 1-4 8-3 8-3 8-1 9h-4l-4-1-5-2-4-2-4-1-3 1-2 3-1 6 2 1 1 2v3l-1 2-10-4-10-4-10-3-9-4-10-3-10-5-9-5-9-5z" fill="#9e9e3f"/>
 <path d="m663 147v25l-2 13-2 13-2-52 6 1z" fill="#7fffff"/>
 <path d="m240 167v-5l1-4 3-3 3-2 14 6 1 21-3-1-3-1-3-3-2-2-3-2-2-2-3-1-3-1z" fill="#7fff7f"/>
 <path d="m560 172a6 15 0 1 0 -12 0 6 15 0 1 0 12 0" fill="#ddddbf"/>
 <path d="m159 104 5 2 5 3 5 1 5 2 5 2 5 2 5 3 5 2 1 10 2 11 1 10-1 9-4-2-4-1-3 1-3 2-3 2-3 2-4 3-3 1-6 5-3-17-2-18-1-17-4-18z" fill="#5bdbdb"/>
 <path d="m227 142 12 6-2 3-3 3-2 4-2 4v-5l-1-5-1-5-1-5z" fill="#5bdbdb"/>
 <path d="m947 165a20 2 0 1 0 -40 0 20 2 0 1 0 40 0" fill="#7fffff"/>
 <path d="m607 131h3v29h-1l-2-29z" fill="#7fffff"/>
 <path d="m347 131-11-6 7 2 7 1 9 1h7l9 1h23l3 4 3 4 2 5v5l-8-2-7-2-7-2-8-2-7-2-7-3-7-2-8-2z" fill="#7fff7f"/>
 <path d="m543 100 3-7 4-8 3-7 4-7 16 3 15 2 15 4 15 3 16 4 15 3 14 4 15 4 16 4 15 3 14 4 16 3 15 3 16 3 15 3 16 2 47 13-7-1h-19l-6 1h-7l-6 1-7 1-6 1-6 1-6 2-6 2-6 2-6 2-5 3-6 3-13-2-13-3-13-4-13-3-13-4-12-4-13-4-12-4-13-3-13-4-12-4-13-4-13-3-13-3-13-2-14-3z" fill="#7fffff"/>
 <path d="m857 138 7 1 8 2 9 3 9 3 9 2 11 3 9 2 10 2v1h-8l-4 1h-17l-8-3-7-2-8-3-7-4-6-4-7-4z" fill="#7fffff"/>
 <path d="m452 133v-6l-1-1h3l3-1 3-1 3-2 2-2 3-2 3-3 2-3v-4l-2-4-4-4-4-2h-1 15l3 1 3 1 3 2 4 7 1 8v8l-1 8h-1l-1-1h-1v-1l-2 2-1 1v2l-1 3h-4l-4 2-6 2-4 1h-5l-3-1-3-4-2-6z" fill="#ddddbf"/>
 <path d="m557 119 2 6-1 6-1 7v7-26z" fill="#7fffff"/>
 <path d="m433 132 1 6-1-2v-4z" fill="#7fffff"/>
 <path d="m440 122h3l2 14-2-3-1-4-1-3-1-4z" fill="#ddddbf"/>
 <path d="m392 117-2-23v-24l-1-24-2-22-2-2-2-2-1-3 1-4 1-1 1-2 2-1h2l5 5 2 6v5l-1 5-1 6-1 7v6l1 6 5 6 2 5 1 7v14l-1 7v8l1 6 2 13-12-4z" fill="#7fffff"/>
 <path d="m324 116h-10l-10-3-10-4-11-4-10-4-10-5-10-4-9-5-10-4-10-4-10-5-10-4-10-4-10-4-10-3-11-4-11-2v-1l-1-1v-2l4-1 5-1h13l5-1h5l4-1 7-3 7-2 7-3 8-3 7-3 7-2 8-3 7-2 7-2 8-1 7-1 8-1 8 1 8 1 8 2 8 3 8 1 9 2 9 1 9 1h9l9 1h9l10-1 1 10v21l1 9 1 11-1 12v12l2 11-4 1-5 1h-16l-4-1-6-1-4-2-20 1z" fill="#7fffff"/>
 <path d="m440 71v8l-2 7v7l2 8-3 4-2 3-1 4v5-46h6z" fill="#7fffff"/>
 <path d="m462 110a9 5 0 1 0 -18 0 9 5 0 1 0 18 0" fill="#3f3f3f"/>
 <path d="m403 39v-5l4 1h5l5 1 5 1 5 2 5 1 5 1 4 1-1 3-1 5-2 5-1 6-5-2-6-2-6-1-5-1-6-1-4-3-2-5 1-7z" fill="#7fffff"/>
 <path d="m494 190 2-1 5-2 4-6 3-12 2-5h2l4 2 5 3 5 4 5 4 5 1 5-3-1 11h-6l-3-1-5-2-5-2h-2l-3 1-2 4 2 8-1 4-21-8z" fill="#777719"/>
 <path d="m524 138 1-1 2-2 3-3 3-5 2-5 1-8v-8l-2-10 6-6 8-19 1-1v-4l-3-5-7-3-4 1-1 4 1 6 1 7v8l-2 8-7 6-11 3-10 2-4 2 2 2 6 3 6 5 6 6 3 7-1 10z" fill="#777719"/>
 <path d="m533 79v-3l1-2-1-2-2-1h-4l-2-1-1-1v-2l1-1 2-2h8l3 2 1 2v8l-2 3h-4z"/>
 <path d="m462 144 21-5 4-8 1 2h2v-3l1-6v-8l-3-8-2-3h-1l-1 2v3l-2 4-2 5-5 3-6 2-5 2-2 1 1 1 3 1 2 3 1 3-2 4-5 5z" fill="#b7b799"/>
 <path d="m288 269v-2l1-2 3-3 4-3 7-2 9-2 13-2v-10l-37 4v22z" fill="#84c484"/>
 <path d="m348 250 34-2-2-1-4-2-4-4-2-4-22 4v9z" fill="#84c484"/>
 <path d="m343 305v-3l1-4 3-4 4-5 8-3 9-3 14-1 1-10-37 7-3 26z" fill="#84c484"/>
 <path d="m409 283 46-4 1-13-44 5-3 12z" fill="#84c484"/>
 <path d="m409 351v-1l1-2 2-4 3-4 5-5 7-5 10-3 12-3 2-12-42 14v25z" fill="#84c484"/>
 <path d="m482 324 36-10 1-12-34 5-3 17z" fill="#84c484"/>
 <path d="m473 393v-1l1-4 2-6 4-6 5-7 8-6 10-5 13-3v-12h-1l-4 1-5 1-6 2-7 3-7 4-6 4-4 6-3 29z" fill="#84c484"/>
 <path d="m544 351 14-1v-11l-12 2-2 10z" fill="#84c484"/>
 <path d="m541 427v-10l1-5 2-6 3-5 5-4 5-2v-19l-17 25 1 26z" fill="#84c484"/>
 <path d="m229 227v-4l1-3 3-4 4-4 6-3h8l11 2v-13h-1l-3-1h-11l-6 1-5 2-4 3-2 4-1 20z" fill="#84c484"/>
 <path d="m172 214v-4l2-7 3-9 3-6-6-4v-6l10-5 7-6 12 3 2 20v-1l-3-2-3-2-4-1-5 2-6 4-6 10-6 14z" fill="#84c484"/>
 <path d="m230 185 14-6-10-7h-4v13z" fill="#84c484"/>
 <path d="m190 64h21l7 1h33l7-1h6l4-1h4l9-1 12 1 13 3 13 4 12 5 10 8 6 8 1 10-1 12 2 1 2-1 2 5h-2l-2-1-3-1-2-1h-1l-3 1h-3l-4 1h-6l-7-1-9-1h-1l-4-2-7-2-9-3-11-4-12-5-14-6-13-7-50-22z" fill="#5bdbdb"/>
 <path d="m190 413h1l3-1h11l7-1 9-1h8l10-1h9l9-1h8l8-1h15l2 1 2-1 4-1 5-2 6-2 6-2 7-3 5-2 3-2-1-1-1-2-2-2-3-2-3-1-3-1-4-1h-5l2-1h1l-1 1-2 1-3 1-3 1-5 2-5 2-7 2-7 2-9 2-9 2-11 2-12 2-13 2-14 1-16 2-2 6z" fill="#56d6d6"/>
 <path d="m604 517 13-199 11-88h24l7-1 5-1 5-1 11-3 9-1h2l5-1 9-1h11l14-1 15-1 16-1h34l17 1 15 1 14 1 13 3 10 3 7 4 4 6 2 14-3 19-5 21-6 21-5 21-2 16 3 12 10 4 10 3 5 8-1 11-4 12-5 12-6 10-4 8-2 3-258 85z" fill="#56d6d6"/>
 <path d="m599 702h1l3-1h5l6-2 7-1 10-2 10-2 12-3 13-4 14-4 15-5 16-5 16-6 17-8 18-7 18-9 1-1 3-1 4-3 5-3 7-4 8-4 8-6 9-5 9-6 9-7 9-6 10-6 8-7 8-6 7-5 6-6 4-4h-1l-4 2-8 6-11 7-14 9-17 10-20 12-22 12-24 13-25 13-28 13-29 12-30 11-31 10-32 9z" fill="#56d6d6"/>
</svg>
