<?xml version="1.0" encoding="UTF-8"?>
<svg viewBox="0 0 369.06384 441" xmlns="http://www.w3.org/2000/svg" xmlns:xlink="http://www.w3.org/1999/xlink">
 <g transform="translate(-188.56 -282.18)">
  <path d="m214.15 648.3 5.0508 8.0812c5.7652 0.29569 11.786 0.33573 20.203-2.0203l-1.0102-41.416c8.157-0.76385 17.583 2.596 36.365 36.366l-1.0102 65.66c6.7344 5.8119 13.469 1.8046 20.203 0l20.203-60.609c66.906-24.882 122.33-22.216 191.93-12.122l7.0711 51.518c3.2914 4.3227 10.543 2.7047 19.193-1.0102l7.0711-362.64 14.142-4.0406v-5.0508l-91.924-27.274-260.62 7.0711v11.112l9.0914 2.0203 4.0406 334.36z" fill="#b3722e" fill-rule="evenodd" stroke="#63350d"/>
  <path d="m225.26 574.56 46.467 41.416-2.0203-243.45-45.457-24.244 1.0102 226.27z" fill="#ae7759" fill-rule="evenodd" stroke="#63350d"/>
  <path d="m219.62 317.74 1.6019 293.19 17.923 2.0203" fill="none" stroke="#63350d"/>
  <path id="a" d="m422.24 576.58c0 3.9032-4.0729 7.0711-9.0914 7.0711s-9.0914-3.1678-9.0914-7.0711 4.0729-7.0711 9.0914-7.0711 9.0914 3.1678 9.0914 7.0711z" fill="#864c26"/>
  <use transform="translate(-2.0203 -92.934)" width="744.09448" height="1052.3622" xlink:href="#a"/>
  <use transform="translate(1.0102 -187.89)" width="744.09448" height="1052.3622" xlink:href="#a"/>
  <path d="m300.02 622.04 211.12-15.152" fill="none" stroke="#000"/>
  <path d="m270.25 341.85 271.21-11.894m-260.71 10.714-1.9438 320.77-3.0305 52.528m-65.762-399.79 60.594 27.679m-70.665-41.284 72.792 31.773 281.79-11.674m-256.46 302.26 1.9856-271.5m0.20808-0.10487 213.92-10.607-2.3774 268.25" fill="none" stroke="#63350d"/>
  <path id="b" d="m513.13 432.57-213.79 12.161 0.10465-12.221 213.99-12.025-0.30537 12.085z" fill="#c28856" fill-rule="evenodd" stroke="#63350d"/>
  <use transform="translate(-.71429 94.954)" width="744.09448" height="1052.3622" stroke="#63350d" xlink:href="#b"/>
  <path d="m513.77 644.11c-77.853-10.908-151.33-9.5477-215.75 17.15l0.10465-39.495 213.99-14.698 1.6537 37.043z" fill="#c28856" fill-rule="evenodd" stroke="#63350d"/>
 </g>
</svg>
