<?xml version="1.0" encoding="UTF-8"?>
<svg viewBox="0 0 782.61938 1084.541" xmlns="http://www.w3.org/2000/svg">
 <defs>
  <filter id="b">
   <feGaussianBlur stdDeviation="6.65081"/>
  </filter>
  <filter id="a" x="-.28761" y="-.01252" width="1.5752" height="1.025">
   <feGaussianBlur stdDeviation="5.07899"/>
  </filter>
  <filter id="h" x="-.92" y="-.02464" width="2.84" height="1.0493">
   <feGaussianBlur stdDeviation="6.28892"/>
  </filter>
  <filter id="g" x="-.8752" y="-.05959" width="2.7504" height="1.1192">
   <feGaussianBlur stdDeviation="6.65081"/>
  </filter>
  <filter id="f" x="-1.3408" y="-.08328" width="3.6816" height="1.1666">
   <feGaussianBlur stdDeviation="6.65081"/>
  </filter>
  <filter id="e" x="-.49659" y="-.04203" width="1.9932" height="1.0841">
   <feGaussianBlur stdDeviation="6.65081"/>
  </filter>
  <filter id="d" x="-.28421" y="-.02624" width="1.5684" height="1.0525">
   <feGaussianBlur stdDeviation="6.65081"/>
  </filter>
  <filter id="c" x="-.14574" y="-.02559" width="1.2915" height="1.0512">
   <feGaussianBlur stdDeviation="6.65081"/>
  </filter>
 </defs>
 <g transform="translate(-2.325 35.955)">
  <path d="m65.265 39.596-61.556 2.033-0.88417-17.756 60.533-5.0787 1.9075 20.801z" fill="#78716e" stroke="#000"/>
  <path d="m127.15 13.323c-36.002-8.6587-65.168-13.216-83.397-1.3672l-5.4686 966.58 23.242 8.2029 75.194-17.773-9.5701-955.64z" fill="#dbdbdb" stroke="#000"/>
  <path transform="matrix(1.0001 0 0 .98904 -.00944 4.0363)" d="m94.334 6.4877 4.1015 973.42 38.28-8.2029-8.2029-958.38-34.179-6.8358z" fill="#cbc3bb" filter="url(#a)" stroke="#000"/>
  <g transform="matrix(1 0 0 1.0207 81.119 -7.9484)" stroke="#000">
   <path d="m127.15 13.323c-36.002-8.6587-65.168-13.216-83.397-1.3672l-5.4686 966.58 23.242 8.2029 75.194-17.773-9.5701-955.64z" fill="#dbdbdb"/>
   <path transform="matrix(1.0001 0 0 .98904 -.00944 4.0363)" d="m94.334 6.4877 4.1015 973.42 38.28-8.2029-8.2029-958.38-34.179-6.8358z" fill="#cbc3bb" filter="url(#a)"/>
  </g>
  <g transform="matrix(1 0 0 1.0401 165.88 -15.427)" stroke="#000">
   <path d="m127.15 13.323c-36.002-8.6587-65.168-13.216-83.397-1.3672l-5.4686 966.58 23.242 8.2029 75.194-17.773-9.5701-955.64z" fill="#dbdbdb"/>
   <path transform="matrix(1.0001 0 0 .98904 -.00944 4.0363)" d="m94.334 6.4877 4.1015 973.42 38.28-8.2029-8.2029-958.38-34.179-6.8358z" fill="#cbc3bb" filter="url(#a)"/>
  </g>
  <path d="m295.31-1.7152 47.85-5.4686 35.546 1030.8-75.194-30.077-8.2029-995.29z" fill="#d6d6d6" stroke="#000"/>
  <path d="m304.88 993.57 10.937 5.4686-16.406-612.49 5.4686 607.02z" fill="#7d7c71" filter="url(#h)" stroke="#000"/>
  <path d="m722.86-22.002 61.581 1.0309v17.778l-60.71 2.0619-0.87056-20.871z" fill="#78716e" stroke="#000"/>
  <path d="m346.93-1.484c-2.622 42.619 76.856 461.78 253.07 641.03-14.703 49.338-76.058 189.76-64.103 351.28 23.766 21.45 88.629 37.347 117.95 41.026 5.6367-128.37-7.6093-247.86-23.077-371.79 16.921 124.79 27.177 246.24 30.769 374.36h35.897c-2.2251-123.76-14.447-257.52-33.333-384.62 11.724 162.51 28.825 438.47 33.333 384.62 19.572 3.8444 34.7 1.0242 48.718-5.1282l-20.513-428.21c-16.831-100.55 11.879-422.14 2.8237-628.21-24.79-2.391-44.026-23.665-97.696 12.821-27.693-2.7336-44.279-36.568-89.744 5.1282-32.479 0-26.081-37.766-97.436 0-30.769-4.5677-72.551-24.541-96.656 7.6923z" fill="#d9d9d9" stroke="#000"/>
  <path d="m411.9-5.9711c19.444 227.78 103.17 437.7 179.76 626.19-61.905-193.65-109.52-413.49-125-627.38l-54.762 1.1905z" fill="#cbc3bb" filter="url(#b)" stroke="#cac2ba" stroke-width="1.0293"/>
  <path d="m513.69-8.9473c24.206 225.4 50.794 432.94 109.52 621.43-39.286-194.84-58.333-418.25-65.476-623.81l-44.048 2.381z" fill="#cbc3bb" filter="url(#c)" stroke="#cac2ba" stroke-width="1.0293"/>
  <path d="m607.51-12.324c9.9206 199.21 34.127 423.41 54.762 607.14 4.7619-184.13-3.5714-402.78-10.714-608.33l-44.048 1.1905z" fill="#cbc3bb" filter="url(#d)" stroke="#cac2ba" stroke-width="1.0293"/>
  <path d="m577.37 622.6c48.961-3.9688 93.296-26.988 143.41-58.341l18.505 48.816c-44.335 27.385-92.14 51.197-146.88 57.151-8.4815-12.303-14.65-26.988-15.035-47.625z" fill="#d9d9d9" stroke="#000" stroke-width=".98572"/>
  <path d="m609.52 672.6c8.7302 92.857 16.27 210.71-9.5238 267.86-2.7778-86.905 6.3492-178.57 9.5238-267.86z" fill="#cbc3bb" filter="url(#g)" stroke="#cac2ba"/>
  <path d="m696.43 1032.1c-3.5714-124.21-7.1429-251.98-32.143-379.76 8.3333 126.59 13.095 254.37 32.143 379.76z" fill="#cbc3bb" filter="url(#e)" stroke="#cac2ba"/>
  <path d="m653.57 1030.9 8.3333-1.1905-11.905-190.48c4.7619 66.27 7.1429 138.49 3.5714 191.67z" fill="#cbc3bb" filter="url(#f)" stroke="#cac2ba"/>
  <path d="m745.36-19.803v17.526h25.773l-2.0619-18.557-23.711 1.0309z" fill="#28221f" stroke="#000"/>
  <path d="m13.727 22.477v17.526h25.773l-2.0619-18.557-23.711 1.0309z" fill="#28221f" stroke="#000"/>
 </g>
</svg>
