<?xml version="1.0" encoding="UTF-8"?>
<svg viewBox="0 0 1439 695" xmlns="http://www.w3.org/2000/svg">
 <g fill-rule="evenodd">
  <path d="m1062 476h8l-4 1h-4v94q0 94-2 96-2 1-26 1-23 0-24-1-2-2-2-95l-1-92h-45l-4-1-5-1h11t2 1h2l44-1q43-2 50-2z" fill="#6e2400" stroke="#6e2400"/>
  <path d="m55 0h1384v387q-1 0-1-2t-4-6q-2-4-10-8-8-5-22-7l-13-4q1 0 21-170 20-169 18-174-2-4-13-6t-24-3q-13 0-14 1-1 2-21 177l-21 175h-13q-13 0-14-5v-5h-1v-16q1-17 1-54 2-38 0-48 0-9-4-17-4-9-10-13t-24-8-37-4l-19 1v-1h-152v-86q0-85-3-87-2-3-23-3-22 0-24 0-2 1-3 2-1 2-1 20l-1 19h-1l-2 1h-1l-8-1q-8 0-8-5-1-4-3-10-2-7-9-16-6-9-8-10-3-2-12-6t-22-5-17 1q-5 0-12 4-8 4-13 10-5 4-9 12-4 7-6 16t-15 9l-12 1v-1h-1v-18q0-18-2-20-1-1-24-2t-25 1q-1 1-2 17t-2 16q-1 1 0 1h1t-2 1q-1 1-7 5t-9 7q-4 4-9 7-5 4-12 9-8 5-33 13l-26 8h-2l-1 1h-1v-4l-1-39q-1-40-2-41t-25-2q-24 0-25 1-1 2-1 20l-1 19h-1v1h-10q-9 0-9-3-1-3-3-11-2-7-8-17-7-10-10-12-4-2-12-6-8-3-22-4t-21 2-15 8q-8 6-13 15-5 8-8 18-2 9-15 9h-12v-18q0-18-3-20-2-3-23-3-22 0-25 2t-3 88l-1 85h-51l-50 1h-16q-16 0-84 2l-67 2h-1l2 1 1 1 4 2q5 2 5 2v4q-2 3-6 10-6 8-8 20-4 12-4 32 0 21 7 52 7 32 7 34v1l-1 1v1h-27q-27-1-28-1-2 0-22-169t-21-175-5-7l-3-2v-1z" fill="#7f7f7f" stroke="#7f7f7f"/>
  <path d="m1326 549v-135h27q27 0 27 0v1l-1 137q-1 138-1 139t-2 2-24 0-24-2q-2-2-2-5v-137z" fill="#913000" stroke="#913000"/>
  <path d="m478 37v101h1q1 0 1 1h-1q-1 0-1 25v26h-156l50-1h51l1-85q0-86 3-88t25-2q21 0 23 3 3 2 3 20z" fill="#903001" stroke="#903001"/>
  <path d="m1307 334v16l1 39q2 39 2 55v17l-1 5q-1 6-1 8v3l-1 1-1 1v2l-1-2-1-2v-2l-1-1q-1-1-2-3t-4-4q-3-1-10-4t-21-3q-13 0-46 2l-33 3h-5q-6 1-29 3l-23 2h-3v1h-5q-4 1-28 2l-23 2h-1l-1 1h-7q-7 0-50 2l-44 1q0-1-2-1h-14q-1 0-11-2-10 0-47-7l-36-6v-1t-1 0h-3t-1-1h-3q-1-1-30-6l-29-6h-1q0-1-20-3-20-4-48-5l-29-1h-13q-12 0-28 2l-15 1h-1q0 1 0 1h-6q-5 0-74 11l-69 10h-5q-1 1-1 1h-3q-4 0-31 4l-27 3h-2q-3 1-10 1h-7v1h-17q-16-1-32-2l-15-2h-1q-2-1-28-8l-25-7t-1-1-20-7q-20-6-35-7t-21 1-24 9-24 9h-8v-1h-1v-1h-1v-6q0-3 5-20l6-18v-2q1 0 3-7t2-23q0-15-1-22l-1-7v-1q0-2-7-34-7-31-7-52 0-20 4-32 2-12 8-20 4-7 6-10v-4t-5-2l-4-2-1-1-2-1h1l67-2q68-2 84-2h150l54 1h197q143 1 143 0h364l19-1q19 0 37 4t24 8 10 13q4 8 4 17 2 10 0 48 0 37-1 54z" fill="#dbd6c0" stroke="#dbd6c0"/>
  <path d="m626 56h10v-1h1v37l1 36q0 1-1 6l-1 5h-156q0-1-1-1h-1v-83h12q13 0 15-9 3-10 8-18 5-9 13-15 8-5 15-8t21-2 22 4q8 4 12 6 3 2 10 12 6 10 8 17 2 8 3 11 0 3 9 3z" fill="#943100" stroke="#943100"/>
  <path d="m479 139h157v7q0 6 0 24v18l-36 1-37 1h1v1h-54l-54-1h22v-26q0-25 1-25z" fill="#7e7e7e" stroke="#7e7e7e"/>
  <path d="m1128 470h2v1q0 1-1 1h-2v107q-1 107-2 109t-25 3q-23 1-25-1-1-2-3-108v-106h-1v-1l23-2q24-1 28-2h6q0-1 0-1z" fill="#6f2400" stroke="#6f2400"/>
  <path d="m53 411v-1h52q52 0 52 1h-44v137q-1 137-2 138-1 2-25 2-23 0-25-1-1-2-2-139t-3-137h-3z" fill="#913101" stroke="#913101"/>
  <path d="m794 50l3 1q3 1 5 7t4 20 3 26q1 13 1 17v4l1 1v1h-138v-1l1-1v-4l5-7q5-7 8-10 4-2 5-3h1l1-1h2l26-8q25-8 33-13 7-5 12-9 5-3 9-7 3-3 9-7t7-5q2-1 2-1z" fill="#fdfdfd" stroke="#fdfdfd"/>
  <path d="m1389 360l13 4q14 2 22 7 8 4 10 8 4 4 4 6t1 2v1h-1v5l-1 1-1 1q0 1-1 2-1 2-6 5t-16 7q-11 3-22 5l-11 1v-1t-27 0h-27v270l-1-134v-134h-14v24l-1 25v-21q0-16-2-55l-1-39h1v5q1 5 14 5h13l21-175q20-175 21-177 1-1 14-1 13 1 24 3t13 6q2 5-18 174-20 170-21 170z" fill="#913101" stroke="#913101"/>
  <path d="m0 540v-154h1l2 4q1 3 8 8 7 4 20 8t17 4 4 1h4q2 0 3 137t2 139q2 1 25 1 24 0 25-2 1-1 2-138v-137h45q1 1 1 1-1 0-1 1v1h1l-6 18q-5 17-5 20v6h1v1h1v1h8q6-2 24-9t24-9 21-1 35 7q19 6 20 7t1 1l1 116q0 117 2 118 2 2 25 1t24-1q1-2 1-2h12q12 0 15-3 3-2 3-105l1-104h39l-2-1h-3v-1h7q7 0 10-1h2v1h3l1 96q0 95 3 97 3 3 25 2t24-2q2-2 2-101t2-100q2 0 1 0 0 0 1-1h3q2 1 2 0l69-10q69-11 74-11h5l1-1h1l1 111q0 112 3 114t25 1q21-1 23-3 3-3 3-114v-111l1-1 29 1q28 1 48 5 20 2 20 3h1l1 1q1 0 2 107 0 107 3 110t25 2 24-2q2-2 2-98t1-101v-6h2l1-1h1q1 1 1 1h1q1 0 1 0h1q1 0 1 0v1l36 6q37 7 47 7 10 2 11 2h6q4 0 4 0h4q2 0 2 1h-2q-2 1 20 1h21l1 92q0 93 2 95 1 1 24 1 24 0 26-1 2-2 2-96v-94h4l4-1h-1l1-1h1v1h1v106q2 106 3 108 2 2 25 1 24-1 25-3t2-109v-107h4l1 108q0 108 2 110t25 1 24-1q1-1 3-112 0-112 1-112v-1l33-3q33-2 46-2 14 0 21 3t10 4q3 2 4 4t2 3l1 1v2l1 2 1 2v-2l1-1 1-1v-3q0-2 1-8l1-5v4l1-25v-24h14v134l1 134v2q0 3 2 5 2 1 24 2t24 0 2-2 1-139l1-137 11-1q11-2 22-5 11-4 16-7t6-5q1-1 1-2l1-1 1-1v-5h1v307h-1439v-155z" fill="#7f7f7f" stroke="#7f7f7f"/>
  <path d="m0 193v-193h55v1l-20 2q-20 3-22 3-2 1-3 4 0 4 19 172 19 167 20 170v4l-12 2q-12 2-22 8-9 5-11 7t-2 3v2l-1 4v4h-1v-193z" fill="#7f7e7e" stroke="#7f7e7e"/>
  <path d="m1182 465h5v1q-1 0-1 112-2 111-3 112-1 0-24 1t-25-1-2-110l-1-108h-3v-1h-1v-1h3l23-2q23-2 29-3z" fill="#702602" stroke="#702602"/>
  <path d="m482 465h5q0 1-5 1-4 1-4 100t-2 101q-2 1-24 2t-25-2q-3-2-3-97l-1-96h-3v-1l27-3q27-4 31-4h4t0-1z" fill="#702601" stroke="#702601"/>
  <path d="m691 58l1 39v4q-1 1-5 3-3 3-8 10l-5 7v4l-1 1v1q0 1-17 1h-18l-1-36v-37l1-19q0-18 1-20 1-1 25-1 24 1 25 2t2 41z" fill="#923000" stroke="#923000"/>
  <path d="m848 37v54q0 35-1 36v1h-18q-18 0-18-1v-1l-1-1v-4q0-4-1-17-1-12-3-26t-4-20-5-7l-3-1h-1q-1 0 0-1 1 0 2-16t2-17q2-2 25-1t24 2q2 2 2 20z" fill="#913001" stroke="#913001"/>
  <path d="m284 572l-1-116 25 7q26 7 28 8h1v105q-1 106-1 109v3t-1 2q-1 0-24 1t-25-1q-2-1-2-118z" fill="#712500" stroke="#712500"/>
  <path d="m850 164v-25h156t1 25v26h-157t0-1v-25z" fill="#80807f" stroke="#80807f"/>
  <path d="m792 450l-1-1 29 6q29 5 30 6h2q1 1 2 1h3q1 0 1 0v2h-2l-2-1q-3-1-4-1h-1v6q-1 5-1 101t-2 98q-2 1-24 2t-25-2-3-110q-1-107-2-107z" fill="#6f2501" stroke="#6f2501"/>
  <path d="m995 55l8 1h1l2-1h1v41l-1 42v1h-156v50l-1-31q0-30-1-30h-1v-1q1-1 1-36v-36h1v1l12-1q13 0 15-9t6-16q4-8 9-12 5-6 13-10 7-4 12-4 4-2 17-1t22 5 12 6q2 1 8 10 7 9 9 16 2 6 3 10 0 5 8 5z" fill="#943100" stroke="#943100"/>
  <path d="m1062 104v86h152v1h-363v-1h156v-26q-1-25-1-25v-1l1-42v-41l1-19q0-18 1-20 1-1 3-2 2 0 24 0 21 0 23 3 3 2 3 87z" fill="#8c2e00" stroke="#8c2e00"/>
  <path d="m337 576v-105l15 2q16 1 32 2h20l2 1h-39l-1 104q0 103-3 105-3 3-15 3h-12v-3q0-3 1-109z" fill="#6e2602" stroke="#6e2602"/>
  <path d="m680 440h13l-1 1v111q0 111-3 114-2 2-23 3-22 1-25-1t-4-113l-1-111t1 0v-1l15-1q16-2 28-2z" fill="#702601" stroke="#702601"/>
  <path d="m673 127h138q0 1 18 1h19q1 0 1 30l1 31q0 1 0 1h1v1h-1q0 1-143 0h-143v-1h-1l37-1 36-1v-18q0-18 0-24v-7l1-5q1-5 1-6h18q17 0 17-1z" fill="#585858" stroke="#585858"/>
  <path d="m35 3l20-2 3 2q4 1 5 7t21 175 22 169q1 0 28 1h27v-1l1-1 1 7q1 7 1 22 0 16-2 22t-2 8v1l-1 1h-1v-2q0-1-1-1 0-1-52-1h-52v1h-1q0-1-4-1t-17-4-20-8q-7-5-8-8l-2-4v-4l1-4v-2q0-1 2-3t11-7q10-6 22-8l12-2v-4q-1-3-20-170-19-168-19-172 1-3 3-4 2 0 22-3z" fill="#933100" stroke="#933100"/>
 </g>
</svg>
