<?xml version="1.0" encoding="UTF-8"?>
<svg enable-background="new 0 0 850 818" version="1.1" viewBox="0 0 850 818" xmlns="http://www.w3.org/2000/svg">
 <style type="text/css">.st0{fill:#AFE2F2;} .st1{fill:#D7F1F9;} .st2{fill:#C2E9F9;} .st3{fill:#6C80B7;} .st4{fill:#6071A0;} .st5{fill:#B7B7B7;} .st6{fill:#E0E0E0;} .st7{fill:#434549;} .st8{opacity:0.69;fill:#E0E0E0;enable-background:new ;} .st9{fill:#AAA9A9;} .st10{fill:#C1BFBF;} .st11{fill:#7C7D7F;} .st12{fill:#473D33;} .st13{fill:#BCB7B7;} .st14{fill:#DDDDDD;}</style>
 <path class="st0" d="m693.5 573.3s2.1 125.7 0 128.1c-2 2.4-7.8 4.9-8.9 0.7s-3.2-132.1-3.2-132.1l12.1 3.3z"/>
 <path class="st1" d="m749.8 401.8c13 2.2 35.3 5.3 35.3 5.3l-11.3 70.5-5.3 77-21.6 21.4-49.2-5.6-41.5 6.9-90.5-32.2s17.9-7 31.3-7.4c13.4-0.3 60 7.1 66.4 8.4 7.7 1.5 17.7 3.1 18-4.5s-1.2-28.9-0.5-39 6-48.4 10.7-57.6 10.5-43.7 15.8-46.2c5.2-2.4 42.4 3 42.4 3z"/>
 <path class="st2" d="m783.7 406.9c6.2 1.3 5.7-1.7 3.5 7.6-2.3 9.4-10.7 50.6-10.3 60.8s20.7 263.3 19.1 267.3-6.8 4.9-9.2 4.8-5.4-3.5-5.4-3.5-8-140-14.9-157c-2.1-5.2-2.3-5.5-4.1-6.3s-24.8 2.9-29.9 2-35.5-5.2-44.9-5.9c-9.3-0.6-28.1 3.3-28.4 7.5s-12.6 179.3-14.7 182.6-8.4 2-10 1.8-5.8-0.7-5.6-3.6c0.2-2.8 9.6-166.1 8.6-170.9s-1.1-8-12.1-7.5-24.4-3.5-30.3-6.8-19.7-17-20-12.5c-0.3 4.4-16.3 151.2-18.2 155.1s-4.2 3.1-6 1.4 14.6-177.5 15-178.7 69.6 24.1 81.2 22.7c6-0.7 19.7-9 43.6-6.5 27.7 2.9 47.5 14.4 64.4-1 17.3-21.6 11.1-68.2 13-80.2 1.8-11.9 12.2-73.9 15.6-73.2z"/>
 <path class="st0" d="m138 577s-10.3 125.3-8.5 127.8 7.2 5.4 8.5 1.3 11.8-131.6 11.8-131.6l-11.8 2.5z"/>
 <path class="st1" d="m95.3 402.1c-12.6 1.3-34.3 2.9-34.3 2.9l6.2 71.1v77.2l19.3 22.8 47.6-2.2 39.4 9.7 89-25.9s-16.7-8.2-29.6-9.5-58.1 3-64.3 3.8c-7.5 0.9-17.2 1.9-17-5.7 0.3-7.6 3.1-28.8 3.1-38.9s-2.6-48.7-6.4-58.2c-3.9-9.5-7.2-44.3-12.1-47.1s-40.9 0-40.9 0z"/>
 <path class="st2" d="m62.3 404.9c-6 0.9-5.4-2.1-3.9 7.4s6.9 51.2 5.9 61.4c-1 10.1-37.3 261.3-36 265.4s6.2 5.4 8.5 5.4 5.4-3.2 5.4-3.2 17-139.1 24.7-155.6c2.3-5 2.6-5.4 4.4-6s23.7 4.6 28.6 4 34.5-2.8 43.5-2.8 26.8 5.3 26.8 9.4c0 4.2 0.3 179.7 2.1 183.2s8 2.5 9.5 2.5 5.7-0.3 5.7-3.2c0-2.8 1.8-166.4 3.1-171.1s1.5-7.9 12.1-6.6c10.5 1.3 23.7-1.8 29.6-4.7s20.1-15.6 20.1-11.1c0 4.4 5.7 152 7.2 156s3.9 3.4 5.7 1.8-2.3-178.1-2.6-179.4-68.4 19.3-79.5 17.1c-5.7-1.1-18.4-10.3-41.4-9.5-26.8 0.9-46.6 11.1-61.8-5.4-15.2-22.8-6.2-68.8-7.2-80.9-1.2-12-7.2-74.6-10.5-74.1z"/>
 <path class="st3" d="m527 736.6h-17.8c-1.6 0-3 1.8-3 4.1h-34.1c-37.8 0-51.8-51.3-51.8-83.7v-214.4h-11.8v214.4c0 32.4-14.1 83.7-51.8 83.7h-34.1c0-2.2-1.3-4.1-3-4.1h-17.6c-1.6 0-3 1.8-3 4.1v4.1c0 2.2 1.3 4.1 3 4.1h54.7c42.1 0 57.8-56.4 57.8-91.9 0 35.5 15.7 91.9 57.8 91.9h54.7c1.6 0 3-1.8 3-4.1v-4.1c0-2.3-1.3-4.1-3-4.1z"/>
 <path class="st4" d="m595.8 450.8c0 15.8-83.2 28.6-185.8 28.6s-185.8-12.9-185.8-28.6v-8.2h371.6v8.2z"/>
 <ellipse class="st3" cx="410" cy="443.6" rx="185.8" ry="28.6"/>
 <rect class="st3" x="410" y="589.6" width="8.2" height="155.2"/>
 <path class="st3" d="m417.8 757h-6.5c-3.4 0-6.2-2.8-6.2-6.2v-2.8c0-3.4 2.8-6.2 6.2-6.2h6.5c3.4 0 6.2 2.8 6.2 6.2v2.8c0 3.4-2.8 6.2-6.2 6.2z"/>
 <ellipse class="st4" cx="415" cy="441.5" rx="8" ry="2.5"/>
 <path class="st5" d="m415 444c-1.9 0.2-4.3-0.2-6-1v-266c0-3.3 2.7-6 6-6s6 2.7 6 6v266c-1.1 0.7-4.3 1-6 1z"/>
 <path class="st6" d="m686 179c-41.1-48-210.8-124.6-258.5-145.6-8-3.5-17.1-3.5-25.1 0-47.6 21-217.3 97.6-258.4 145.6-46.1 53.8 246.9 67.9 269.6 68.9h2.8c22.7-1 315.7-15.1 269.6-68.9z"/>
 <circle class="st7" cx="430" cy="435" r="0"/>
 <path class="st8" d="m435 433.2v10.8c0 0.3 0.2 0.5 0.4 0.7 0.7 0.3 2.1 0.8 3.6 0.8s2.9-0.5 3.6-0.8c0.3-0.1 0.4-0.4 0.4-0.7v-10.8c0-0.4-0.3-0.7-0.7-0.7h-6.6c-0.4 0-0.7 0.3-0.7 0.7z"/>
 <path class="st9" d="m434 432.5v1.5c0 0.4 0.2 0.7 0.6 0.9 0.9 0.4 2.7 1 4.4 1 1.8 0 3.7-0.7 4.5-1 0.3-0.1 0.5-0.4 0.5-0.7v-1.6l-10-0.1z"/>
 <ellipse class="st10" cx="439" cy="432.5" rx="5" ry="2"/>
 <ellipse class="st11" cx="437.2" cy="431.7" rx=".5" ry=".3"/>
 <ellipse class="st11" cx="439" cy="432.3" rx=".5" ry=".3"/>
 <ellipse class="st11" cx="440.8" cy="431.7" rx=".5" ry=".3"/>
 <ellipse class="st11" cx="440.8" cy="432.9" rx=".5" ry=".3"/>
 <ellipse class="st11" cx="437.2" cy="432.9" rx=".5" ry=".3"/>
 <path class="st12" d="m435.8 438.7v4.5s0.9 0.9 3.6 0.9c0.9 0 2.7-0.9 2.7-0.9v-5.5s-0.9-0.9-3.6-0.9c-1.8 0.1-2.7 1.9-2.7 1.9z"/>
 <path class="st8" d="m429.1 436v11.9c0 0.3 0.2 0.6 0.5 0.7 0.8 0.3 2.3 0.9 3.9 0.9s3.2-0.6 3.9-0.9c0.3-0.1 0.5-0.4 0.5-0.7v-11.9c0-0.4-0.4-0.8-0.8-0.8h-7.2c-0.4 0-0.8 0.4-0.8 0.8z"/>
 <path class="st9" d="m428 435.2v1.7c0 0.4 0.2 0.8 0.6 0.9 1 0.4 2.9 1.1 4.9 1.1s4.1-0.7 5-1.1c0.3-0.1 0.5-0.4 0.5-0.8v-1.8h-11z"/>
 <ellipse class="st13" cx="433.5" cy="435.2" rx="5.5" ry="2.2"/>
 <ellipse class="st11" cx="431.5" cy="434.3" rx=".5" ry=".3"/>
 <ellipse class="st11" cx="433.5" cy="435" rx=".5" ry=".3"/>
 <ellipse class="st11" cx="435.5" cy="434.3" rx=".5" ry=".3"/>
 <ellipse class="st11" cx="435.5" cy="435.7" rx=".5" ry=".3"/>
 <ellipse class="st11" cx="431.5" cy="435.7" rx=".5" ry=".3"/>
 <path class="st14" d="m430 442v5s1 1 4 1c1 0 3-1 3-1v-6s-1-1-4-1c-2 0-3 2-3 2z"/>
 <path class="st3" d="m705.2 496s-7.3-31.5 4.6-60 15.4-38.3 21.9-39.3 46.3 1.6 48.3 3.6c1.9 2 3.7 6.6 3.7 6.6h-6.9s-17.4 62.2-17.8 66.8c-1.3 13 3.1 38.3-5.8 35.3s-32.6-7.2-48-13z"/>
 <path class="st3" d="m781.2 443.6s2.3 47.6 1.2 47.6-4.4 0-4.4 0-1.4-15.9-1-19.5c0.3-3.7 4.2-28.1 4.2-28.1z"/>
</svg>
