<?xml version="1.0" encoding="UTF-8"?>
<!DOCTYPE svg PUBLIC "-//W3C//DTD SVG 1.1//EN" "http://www.w3.org/Graphics/SVG/1.1/DTD/svg11.dtd">
<!-- Creator: CorelDRAW X6 -->
<svg xmlns="http://www.w3.org/2000/svg" xml:space="preserve" width="3.89165in" height="2.11943in" version="1.1" style="shape-rendering:geometricPrecision; text-rendering:geometricPrecision; image-rendering:optimizeQuality; fill-rule:evenodd; clip-rule:evenodd"
viewBox="0 0 3892 2119"
 xmlns:xlink="http://www.w3.org/1999/xlink">
 <defs>
  <style type="text/css">
   <![CDATA[
    .str0 {stroke:#95633E;stroke-width:15.0118}
    .fil26 {fill:none;fill-rule:nonzero}
    .fil4 {fill:#007851;fill-rule:nonzero}
    .fil2 {fill:#008744;fill-rule:nonzero}
    .fil16 {fill:#238E38;fill-rule:nonzero}
    .fil14 {fill:#24A63F;fill-rule:nonzero}
    .fil1 {fill:#539A51;fill-rule:nonzero}
    .fil0 {fill:#5AAD3A;fill-rule:nonzero}
    .fil15 {fill:#88BD2F;fill-rule:nonzero}
    .fil3 {fill:#97BD8C;fill-rule:nonzero}
    .fil7 {fill:url(#id0);fill-rule:nonzero}
    .fil8 {fill:url(#id1);fill-rule:nonzero}
    .fil9 {fill:url(#id2);fill-rule:nonzero}
    .fil11 {fill:url(#id3);fill-rule:nonzero}
    .fil10 {fill:url(#id4);fill-rule:nonzero}
    .fil12 {fill:url(#id5);fill-rule:nonzero}
    .fil13 {fill:url(#id6);fill-rule:nonzero}
    .fil19 {fill:url(#id7);fill-rule:nonzero}
    .fil20 {fill:url(#id8);fill-rule:nonzero}
    .fil21 {fill:url(#id9);fill-rule:nonzero}
    .fil23 {fill:url(#id10);fill-rule:nonzero}
    .fil22 {fill:url(#id11);fill-rule:nonzero}
    .fil24 {fill:url(#id12);fill-rule:nonzero}
    .fil25 {fill:url(#id13);fill-rule:nonzero}
    .fil6 {fill:url(#id14);fill-rule:nonzero}
    .fil5 {fill:url(#id15);fill-rule:nonzero}
    .fil17 {fill:url(#id16);fill-rule:nonzero}
    .fil18 {fill:url(#id17);fill-rule:nonzero}
   ]]>
  </style>
  <linearGradient id="id0" gradientUnits="userSpaceOnUse" x1="153.232" y1="1566.25" x2="376.169" y2="1566.25">
   <stop offset="0" style="stop-color:#B38148"/>
   <stop offset="0" style="stop-color:#B38148"/>
   <stop offset="0.188235" style="stop-color:#8E6343"/>
   <stop offset="0.341176" style="stop-color:#B58148"/>
   <stop offset="0.478431" style="stop-color:#B38148"/>
   <stop offset="0.631373" style="stop-color:#8E6343"/>
   <stop offset="0.960784" style="stop-color:#B58148"/>
   <stop offset="1" style="stop-color:#B58148"/>
  </linearGradient>
  <linearGradient id="id1" gradientUnits="userSpaceOnUse" xlink:href="#id0" x1="414.705" y1="1566.22" x2="637.685" y2="1566.22">
  </linearGradient>
  <linearGradient id="id2" gradientUnits="userSpaceOnUse" xlink:href="#id0" x1="676.201" y1="1566.25" x2="899.106" y2="1566.25">
  </linearGradient>
  <linearGradient id="id3" gradientUnits="userSpaceOnUse" xlink:href="#id0" x1="937.642" y1="1566.24" x2="1160.53" y2="1566.24">
  </linearGradient>
  <linearGradient id="id4" gradientUnits="userSpaceOnUse" xlink:href="#id0" x1="1199.06" y1="1566.24" x2="1421.95" y2="1566.24">
  </linearGradient>
  <linearGradient id="id5" gradientUnits="userSpaceOnUse" xlink:href="#id0" x1="1460.45" y1="1566.24" x2="1683.4" y2="1566.24">
  </linearGradient>
  <linearGradient id="id6" gradientUnits="userSpaceOnUse" xlink:href="#id0" x1="1721.94" y1="1566.25" x2="1944.78" y2="1566.25">
  </linearGradient>
  <linearGradient id="id7" gradientUnits="userSpaceOnUse" xlink:href="#id0" x1="1987.17" y1="1566.25" x2="2210.13" y2="1566.25">
  </linearGradient>
  <linearGradient id="id8" gradientUnits="userSpaceOnUse" xlink:href="#id0" x1="2248.65" y1="1566.22" x2="2471.63" y2="1566.22">
  </linearGradient>
  <linearGradient id="id9" gradientUnits="userSpaceOnUse" xlink:href="#id0" x1="2510.13" y1="1566.25" x2="2733.07" y2="1566.25">
  </linearGradient>
  <linearGradient id="id10" gradientUnits="userSpaceOnUse" xlink:href="#id0" x1="2771.59" y1="1566.24" x2="2994.48" y2="1566.24">
  </linearGradient>
  <linearGradient id="id11" gradientUnits="userSpaceOnUse" xlink:href="#id0" x1="3032.96" y1="1566.24" x2="3255.83" y2="1566.24">
  </linearGradient>
  <linearGradient id="id12" gradientUnits="userSpaceOnUse" xlink:href="#id0" x1="3294.38" y1="1566.24" x2="3517.33" y2="1566.24">
  </linearGradient>
  <linearGradient id="id13" gradientUnits="userSpaceOnUse" xlink:href="#id0" x1="3555.88" y1="1566.25" x2="3732.14" y2="1566.25">
  </linearGradient>
  <linearGradient id="id14" gradientUnits="userSpaceOnUse" x1="1071.9" y1="1765.94" x2="1071.9" y2="1854.44">
   <stop offset="0" style="stop-color:#D1AB7C"/>
   <stop offset="0.0392157" style="stop-color:#A98666"/>
   <stop offset="0.14902" style="stop-color:#81634E"/>
   <stop offset="0.239216" style="stop-color:#A78464"/>
   <stop offset="0.419608" style="stop-color:#D1AB7C"/>
   <stop offset="0.529412" style="stop-color:#A8825D"/>
   <stop offset="0.678431" style="stop-color:#816043"/>
   <stop offset="0.858824" style="stop-color:#D1AB7C"/>
   <stop offset="0.941176" style="stop-color:#A6835C"/>
   <stop offset="1" style="stop-color:#7E6142"/>
  </linearGradient>
  <linearGradient id="id15" gradientUnits="userSpaceOnUse" xlink:href="#id14" x1="1074.78" y1="1389.66" x2="1074.78" y2="1478.23">
  </linearGradient>
  <linearGradient id="id16" gradientUnits="userSpaceOnUse" xlink:href="#id14" x1="2832.56" y1="1389.73" x2="2832.56" y2="1478.25">
  </linearGradient>
  <linearGradient id="id17" gradientUnits="userSpaceOnUse" xlink:href="#id14" x1="2832.68" y1="1766.01" x2="2832.68" y2="1854.46">
  </linearGradient>
 </defs>
 <g id="Ebene_x0020_1">
  <metadata id="CorelCorpID_0Corel-Layer"/>
  <polygon class="fil0" points="133,2031 3732,2031 3732,2123 133,2123 "/>
  <path class="fil1" d="M2936 1823c-23,-23 -36,-53 -50,-83 30,-69 5,-136 -7,-208 -8,-48 -12,-99 -8,-149 2,-1 5,-1 7,-1 79,-16 83,-111 36,-157 3,-9 6,-19 8,-28 10,-39 5,-68 -10,-90 6,-50 8,-100 12,-138 11,-115 2,-232 -52,-333 10,-30 7,-64 -8,-91 32,-44 47,-99 14,-149 -28,-41 -75,-65 -126,-51 -23,7 -44,18 -63,31 -19,-27 -38,-53 -58,-79 -15,-6 -30,-8 -46,-4 0,0 -12,38 -13,81l-44 21c-2,-30 -17,-40 -17,-40 -46,14 -64,44 -71,70 -6,-56 -59,-102 -59,-102 -69,55 -76,157 -76,178l-1 1c-17,-51 -44,-54 -44,-54 -36,47 -52,71 -60,82 -4,2 -7,4 -10,6 -2,-3 -4,-6 -6,-9 6,-33 -13,-72 -13,-72 -51,-16 -83,34 -83,34 35,-71 70,-74 70,-74 -34,-71 -116,-35 -123,-32 70,-31 92,-133 92,-133 -84,-11 -140,32 -172,68 13,-60 -21,-156 -21,-156 -130,59 -100,167 -100,167 -32,-77 -148,-88 -148,-88 -15,45 23,86 50,109 -32,-16 -64,-9 -64,-9 -19,15 -28,31 -32,47 -2,-3 -4,-6 -6,-9 0,0 -29,-14 -64,-6 32,-16 77,-48 73,-95 0,0 -116,-15 -164,52 0,0 41,-68 -48,-134 0,0 -57,54 -65,101 -22,-42 -67,-101 -154,-109 0,0 -3,105 59,151 -6,-5 -78,-59 -127,3 0,0 33,11 51,88 0,0 -20,-56 -74,-52 0,0 -42,52 -25,92 -8,-15 -43,-66 -140,-73 0,0 21,110 71,146 -28,-14 -82,-39 -117,-40 0,0 -21,41 51,74 -22,-9 -70,-25 -120,-24 0,0 21,45 74,79 -89,48 -103,147 -95,250 6,83 -22,176 19,246 -7,70 -5,141 2,212 9,83 -63,185 0,258 -13,25 -18,52 -14,79 -18,30 -16,64 -20,99 0,0 0,1 0,1 -34,42 -32,106 -11,161 -4,23 1,47 18,69 1,1 1,2 2,2 -21,45 1,111 66,111 320,0 641,-3 961,3 21,0 42,1 63,1l850 0c11,-1 21,-3 32,-4 0,0 1,0 1,0 0,0 0,0 0,0 7,-1 14,-2 20,-3 57,-8 67,-71 43,-113 9,-16 14,-33 16,-50 63,9 124,-73 67,-129z"/>
  <path class="fil2" d="M2131 971c-30,-23 -74,-29 -112,-29 75,-30 112,-127 112,-127 -187,-79 -246,57 -246,57 11,-104 -86,-166 -86,-166 -36,47 -24,111 -12,150 -20,-33 -52,-38 -52,-38 -83,33 -8,123 -75,128 -39,3 -29,-52 -29,-52 -6,2 -11,5 -15,9 -29,-7 -55,-9 -77,-8 -4,-2 -7,-2 -7,-2 -1,1 -1,2 -2,3 -47,5 -77,23 -91,34l0 -3c23,-37 3,-96 0,-105l0 -71 -23 0c-40,-63 -126,-33 -134,-30 88,-30 123,-151 123,-151 -103,-22 -176,28 -217,68 9,-56 -37,-139 -37,-139 -126,44 -105,136 -105,136 -31,-95 -169,-121 -169,-121 -22,52 19,106 49,136 -37,-23 -76,-17 -76,-17 -10,7 -19,14 -25,22 -15,-33 -31,-57 -31,-57 -79,86 -67,160 -62,180 -17,-49 -97,-60 -97,-60 -35,29 -31,70 -26,92 -1,0 -3,-1 -4,-1 -37,-72 -20,-104 -20,-104 -94,-13 -112,93 -113,102 16,-91 -73,-181 -73,-181 -69,79 -60,168 -44,223 -45,-35 -140,-35 -140,-35 -23,132 69,158 69,158 -98,-19 -137,45 -137,45 54,67 129,54 129,54 -66,12 -88,71 -88,71 8,98 108,93 103,95 -4,2 -8,3 -11,5 -2,0 -3,0 -3,0 0,1 0,1 0,2 -34,15 -44,24 -44,24 4,39 31,54 51,59 0,1 1,1 1,2 -62,0 -82,54 -82,54 2,5 6,8 9,12 -20,15 -33,29 -33,29 5,7 11,12 18,16 12,0 47,1 98,2 -10,21 -15,44 -19,68 -10,53 -47,96 -52,150 -3,36 4,66 18,90 -15,45 -31,89 -46,134 -22,65 -13,153 65,174 46,13 92,-7 138,-7 55,0 109,0 164,-2 134,-6 268,-3 403,-2 251,2 502,1 753,-1 62,0 123,7 184,11 38,2 95,15 132,1 41,-16 67,-37 79,-81 10,-38 -11,-78 -30,-114 7,-9 12,-19 15,-30 31,-122 41,-267 16,-394 16,-66 9,-133 7,-200 -29,-6 -43,-2 -50,5 12,-29 45,-54 45,-54 -17,-26 -146,-23 -146,-23 67,-69 157,-58 157,-58 -43,-37 -98,-35 -98,-35 78,-6 101,-104 101,-104z"/>
  <path class="fil3" d="M2369 1772c16,-188 68,-367 163,-524 -1,-4 -1,-8 -2,-12 -12,-108 72,-246 148,-317 3,-3 7,-6 10,-9 10,-19 24,-38 41,-55 6,-5 11,-10 17,-14 -11,-14 -23,-27 -38,-39 -2,-2 -4,-3 -6,-5 -6,-19 -7,-40 6,-58 0,0 64,-6 91,59 -5,-20 -9,-59 31,-83 0,0 16,8 55,42 4,4 -47,-88 42,-140 0,0 41,-3 78,22 -30,-34 -69,-91 -43,-145 0,0 143,34 169,135 0,0 -17,-98 117,-136 0,0 43,89 30,147 45,-40 124,-88 230,-59 0,0 -44,124 -137,151 9,-3 118,-34 148,60 0,0 -44,-2 -99,80 0,0 49,-56 110,-28 0,0 26,80 -12,119 16,-14 80,-58 197,-23 0,0 -74,120 -149,140 16,-2 37,-3 60,-4 22,-8 40,-13 56,-17 -1,33 -3,66 -4,99 23,10 41,25 55,43l0 722c-34,48 -91,77 -157,87 -112,16 -228,9 -341,18 -131,10 -263,82 -378,-18 -4,0 -8,1 -12,1 -190,6 -499,42 -474,-242z"/>
  <path class="fil4" d="M3663 1973c-8,-71 -16,-146 -42,-214 18,-88 22,-187 4,-275 13,-52 7,-105 5,-157 -22,-5 -34,-2 -40,4 10,-23 36,-43 36,-43 -13,-21 -115,-18 -115,-18 53,-55 124,-46 124,-46 -34,-29 -77,-27 -77,-27 62,-5 79,-82 79,-82 -23,-18 -58,-23 -88,-23 59,-24 88,-100 88,-100 -147,-62 -194,45 -194,45 9,-82 -68,-131 -68,-131 -28,37 -19,87 -9,118 -16,-26 -41,-30 -41,-30 -65,26 -6,97 -59,101 -31,2 -23,-41 -23,-41 -4,2 -8,4 -12,7 -23,-5 -43,-7 -61,-6 -3,-1 -6,-2 -6,-2 -1,1 -1,1 -2,2 -37,4 -60,18 -71,27l0 -2c18,-29 2,-76 0,-83l0 -56 -18 0c-32,-49 -99,-26 -106,-24 69,-24 97,-119 97,-119 -81,-17 -138,22 -170,54 7,-44 -29,-109 -29,-109 -99,34 -83,107 -83,107 -24,-75 -133,-95 -133,-95 -17,41 15,83 38,107 -29,-18 -59,-14 -59,-14 -8,5 -15,11 -20,17 -12,-26 -24,-45 -24,-45 -63,68 -53,126 -49,141 -14,-39 -77,-47 -77,-47 -28,23 -25,55 -20,72 -1,0 -2,-1 -3,-1 -29,-56 -16,-82 -16,-82 -74,-11 -88,73 -89,81 13,-72 -58,-142 -58,-142 -54,62 -48,132 -35,175 -35,-27 -110,-27 -110,-27 -18,104 54,124 54,124 -77,-15 -108,36 -108,36 42,53 102,43 102,43 -52,9 -69,56 -69,56 6,77 85,73 81,74 -3,1 -6,3 -9,4 -2,0 -3,0 -3,0 0,1 0,1 0,2 -26,12 -34,19 -34,19 3,31 24,42 40,47 0,1 1,1 1,1 -48,0 -64,42 -64,42 2,4 4,7 7,9 -16,12 -26,23 -26,23 4,5 9,10 14,13 10,0 37,0 77,1 -8,17 -11,35 -15,54 -8,42 -37,76 -41,118 -2,20 1,37 6,51 -19,48 -26,103 -31,153 -6,52 -29,147 34,177 55,27 102,3 141,-39 1,4 2,8 4,12 18,50 87,80 128,34 12,-14 22,-30 30,-46 19,22 51,34 78,24 10,-4 19,-8 27,-13 7,17 16,33 29,47 23,24 65,30 93,12 28,-18 48,-42 64,-68 12,14 27,24 45,29 45,13 78,-13 102,-46 3,6 6,13 9,19 24,41 86,52 120,15 2,-2 4,-5 6,-7 5,7 10,15 16,22 33,40 84,24 112,-9 12,14 26,26 45,32 52,17 87,-10 120,-42 4,4 8,8 10,10 21,21 45,31 74,31 18,0 35,-7 49,-18 26,31 78,25 105,0 48,20 115,-4 108,-67z"/>
  <g id="_334876808">
   <polygon class="fil5" points="2017,1477 133,1478 133,1391 2017,1390 "/>
   <polygon class="fil6" points="2011,1853 133,1854 133,1767 2011,1766 "/>
   <polygon class="fil7 str0" points="376,2094 154,2094 153,1190 272,1039 376,1189 "/>
   <polygon class="fil8 str0" points="638,2094 415,2094 415,1189 533,1039 637,1189 "/>
   <polygon class="fil9 str0" points="677,2094 899,2094 899,1189 780,1039 676,1189 "/>
   <polygon class="fil10 str0" points="1422,2094 1200,2094 1199,1189 1318,1039 1421,1189 "/>
   <polygon class="fil11 str0" points="1161,2094 938,2094 938,1189 1056,1039 1160,1189 "/>
   <polygon class="fil12 str0" points="1683,2094 1461,2094 1460,1190 1579,1039 1683,1189 "/>
   <polygon class="fil13 str0" points="1945,2094 1722,2094 1722,1189 1840,1039 1944,1189 "/>
   <g>
    <g>
     <path class="fil14" d="M707 2123c-1,-62 -2,-217 11,-262 0,0 -46,107 -40,262l28 0z"/>
    </g>
    <g>
     <path class="fil14" d="M753 2123l9 -5c0,0 -4,-181 4,-200 0,0 -31,127 -27,205l13 0z"/>
    </g>
    <g>
     <path class="fil14" d="M526 2123c0,-52 -1,-111 -6,-122 0,0 16,59 25,122l-19 0z"/>
    </g>
    <g>
     <path class="fil15" d="M828 2123l2 -148c0,0 -20,97 -19,148l16 0z"/>
    </g>
    <g>
     <path class="fil16" d="M647 2123c-1,-39 -4,-143 -19,-172 0,0 0,141 -7,169l5 4 21 0z"/>
    </g>
    <g>
     <path class="fil16" d="M943 2123c-2,-43 -7,-92 -17,-111 0,0 0,62 -2,111l19 0z"/>
    </g>
    <g>
     <path class="fil16" d="M783 2123c11,-34 30,-80 62,-97 0,0 -29,49 -43,97l-19 0z"/>
    </g>
    <g>
     <path class="fil16" d="M783 2123c11,-33 30,-76 60,-91 0,0 -27,45 -42,91l-19 0z"/>
    </g>
    <g>
     <path class="fil15" d="M738 2123c-1,-31 -5,-126 -44,-152 0,0 21,87 23,152l20 0z"/>
    </g>
    <g>
     <path class="fil14" d="M642 2123c1,-49 5,-121 22,-159 0,0 -5,90 -5,159l-18 0z"/>
    </g>
    <g>
     <path class="fil15" d="M603 2111c0,0 2,-103 -11,-143 0,0 -1,92 -8,155l13 0 5 -12z"/>
    </g>
    <g>
     <path class="fil14" d="M608 2123c-10,-32 -27,-73 -60,-97 0,0 23,49 39,97l21 0z"/>
    </g>
    <g>
     <path class="fil14" d="M911 2123c-7,-32 -24,-92 -66,-124 0,0 33,70 47,124l19 0z"/>
    </g>
    <g>
     <path class="fil14" d="M842 2123c4,-12 10,-27 23,-40 0,0 -3,18 -6,40l-17 0z"/>
    </g>
    <g>
     <path class="fil16" d="M830 2123c5,-36 14,-79 34,-102 0,0 -10,49 -16,102l-18 0z"/>
    </g>
    <g>
     <path class="fil15" d="M575 2123c-7,-46 -23,-144 -32,-156 0,0 9,94 9,156l23 0z"/>
    </g>
    <g>
     <path class="fil15" d="M757 2123c7,-44 18,-106 32,-130 0,0 -7,90 -9,130l-23 0z"/>
    </g>
    <g>
     <path class="fil15" d="M874 2123c7,-43 18,-100 31,-123 0,0 -6,79 -8,123l-22 0z"/>
    </g>
    <g>
     <path class="fil15" d="M665 2123c6,-42 19,-156 5,-199 0,0 26,113 23,199l-27 0z"/>
    </g>
    <g>
     <path class="fil14" d="M142 2123c1,-52 1,-153 -9,-195l0 -3c9,20 40,95 38,198l-28 0z"/>
    </g>
    <g>
     <path class="fil14" d="M343 2123l4 -3c0,0 -4,-231 4,-255 0,0 -30,158 -27,258l18 0z"/>
    </g>
    <g>
     <path class="fil14" d="M323 2123c0,-50 1,-106 6,-116 0,0 -15,55 -24,116l18 0z"/>
    </g>
    <g>
     <path class="fil15" d="M413 2123l2 -142c0,0 -18,90 -19,142l17 0z"/>
    </g>
    <g>
     <path class="fil16" d="M202 2123c1,-42 4,-138 19,-166 0,0 0,134 6,166l-25 0z"/>
    </g>
    <g>
     <path class="fil16" d="M527 2123c-2,-42 -7,-87 -17,-105 0,0 0,57 -2,105l19 0z"/>
    </g>
    <g>
     <path class="fil16" d="M370 2123c11,-33 30,-75 60,-91 0,0 -27,45 -41,91l-19 0z"/>
    </g>
    <g>
     <path class="fil15" d="M133 2004c6,-12 13,-21 21,-27 0,0 -16,65 -21,124l0 -97z"/>
    </g>
    <g>
     <path class="fil14" d="M207 2123c-1,-49 -5,-117 -22,-153 0,0 5,85 5,153l17 0z"/>
    </g>
    <g>
     <path class="fil15" d="M246 2117c0,0 -2,-103 11,-143 0,0 1,87 7,149l-15 0 -3 -6z"/>
    </g>
    <g>
     <path class="fil14" d="M494 2123c-8,-33 -25,-88 -65,-118 0,0 30,65 45,118l20 0z"/>
    </g>
    <g>
     <path class="fil14" d="M429 2123c4,-11 10,-23 21,-34 0,0 -3,15 -5,34l-16 0z"/>
    </g>
    <g>
     <path class="fil16" d="M415 2123c5,-35 14,-74 33,-96 0,0 -9,45 -15,96l-18 0z"/>
    </g>
    <g>
     <path class="fil15" d="M275 2123c7,-48 22,-139 31,-150 0,0 -8,88 -9,150l-22 0z"/>
    </g>
    <g>
     <path class="fil15" d="M343 2123c7,-43 18,-101 31,-124 0,0 -7,82 -9,124l-22 0z"/>
    </g>
    <g>
     <path class="fil15" d="M459 2123c7,-42 17,-95 30,-117 0,0 -6,73 -8,117l-22 0z"/>
    </g>
    <g>
     <path class="fil15" d="M183 2123c-6,-46 -18,-152 -4,-193 0,0 -24,108 -23,193l27 0z"/>
    </g>
    <g>
     <path class="fil16" d="M286 2123c-11,-32 -30,-71 -58,-85 0,0 25,41 40,85l19 0z"/>
    </g>
    <g>
     <path class="fil14" d="M412 2123c-10,-31 -28,-69 -58,-91 0,0 21,45 37,91l21 0z"/>
    </g>
   </g>
   <g>
    <g>
     <path class="fil14" d="M1554 2106l27 16 4 0c-1,-27 -6,-296 12,-364 0,0 -51,142 -42,348z"/>
    </g>
    <g>
     <path class="fil14" d="M1619 2101l23 -16c0,0 -5,-231 5,-255 0,0 -35,173 -28,271z"/>
    </g>
    <g>
     <path class="fil14" d="M1389 2123c1,-70 0,-171 -6,-186 0,0 22,96 30,186l-23 0z"/>
    </g>
    <g>
     <path class="fil15" d="M1696 2111l16 -16 2 -192c0,0 -26,152 -19,208z"/>
    </g>
    <g>
     <path class="fil16" d="M1519 2111c0,0 0,-191 -21,-238 0,0 0,180 -7,215l28 23z"/>
    </g>
    <g>
     <path class="fil16" d="M1837 2123c-2,-60 -7,-144 -20,-173 0,0 0,108 -3,173l23 0z"/>
    </g>
    <g>
     <path class="fil16" d="M1658 2123c8,-39 30,-127 74,-154 0,0 -43,85 -52,154l-21 0z"/>
    </g>
    <g>
     <path class="fil16" d="M1657 2123c9,-42 31,-122 72,-147 0,0 -40,80 -51,147l-21 0z"/>
    </g>
    <g>
     <path class="fil15" d="M1617 2104c0,0 2,-166 -47,-206 0,0 29,141 25,224l9 0 13 -18z"/>
    </g>
    <g>
     <path class="fil14" d="M1513 2123c0,-58 1,-176 24,-234 0,0 -7,143 -5,234l-19 0z"/>
    </g>
    <g>
     <path class="fil15" d="M1472 2077c0,0 2,-131 -12,-182 0,0 -2,152 -12,228l6 0 18 -46z"/>
    </g>
    <g>
     <path class="fil14" d="M1484 2123c-8,-41 -27,-115 -70,-154 0,0 34,86 49,154l21 0z"/>
    </g>
    <g>
     <path class="fil14" d="M1806 2119c0,0 -12,-128 -75,-185 0,0 47,119 56,188l17 0 2 -4z"/>
    </g>
    <g>
     <path class="fil14" d="M1724 2123c1,-19 6,-51 28,-82 0,0 -6,41 -9,82l-20 0z"/>
    </g>
    <g>
     <path class="fil16" d="M1712 2123c3,-49 13,-124 39,-160 0,0 -14,83 -20,160l-19 0z"/>
    </g>
    <g>
     <path class="fil15" d="M1446 2122c0,0 -25,-209 -38,-229 0,0 12,157 9,229l29 0 0 0z"/>
    </g>
    <g>
     <path class="fil15" d="M1633 2123c6,-53 20,-159 38,-197 0,0 -10,143 -10,182l-10 15 -18 0z"/>
    </g>
    <g>
     <path class="fil15" d="M1758 2123c7,-55 20,-152 37,-187 0,0 -10,143 -10,182l-4 5 -23 0z"/>
    </g>
    <g>
     <path class="fil15" d="M1536 2112c0,0 27,-206 7,-274 0,0 33,173 23,284l-23 0 -8 -10z"/>
    </g>
    <g>
     <path class="fil14" d="M1008 2117l-11 5 -19 0c1,-46 5,-238 -12,-290 0,0 51,116 42,284z"/>
    </g>
    <g>
     <path class="fil14" d="M1175 2109l23 -21c0,0 -5,-295 5,-325 0,0 -35,220 -28,346z"/>
    </g>
    <g>
     <path class="fil14" d="M1173 2123c-1,-70 0,-164 6,-178 0,0 -21,91 -29,178l23 0z"/>
    </g>
    <g>
     <path class="fil15" d="M1252 2118l16 -16 2 -192c0,0 -26,152 -19,208z"/>
    </g>
    <g>
     <path class="fil16" d="M1043 2118c0,0 0,-192 21,-238 0,0 0,180 7,215l-28 23z"/>
    </g>
    <g>
     <path class="fil16" d="M1392 2123c-2,-59 -7,-137 -20,-165 0,0 0,100 -3,165l22 0z"/>
    </g>
    <g>
     <path class="fil16" d="M1215 2123c9,-42 31,-121 72,-147 0,0 -40,79 -51,147l-21 0z"/>
    </g>
    <g>
     <path class="fil15" d="M945 2112c0,0 -2,-166 47,-205 0,0 -27,133 -25,216l-14 0 -8 -11z"/>
    </g>
    <g>
     <path class="fil14" d="M1048 2123c0,-60 -2,-171 -24,-226 0,0 6,136 5,226l19 0z"/>
    </g>
    <g>
     <path class="fil15" d="M1090 2084c0,0 -2,-131 12,-182 0,0 2,143 11,220l-8 0 -15 -38z"/>
    </g>
    <g>
     <path class="fil14" d="M1361 2123c-3,-22 -18,-130 -74,-181 0,0 44,111 55,181l20 0z"/>
    </g>
    <g>
     <path class="fil14" d="M1280 2123c2,-19 8,-48 28,-74 0,0 -5,36 -8,74l-20 0z"/>
    </g>
    <g>
     <path class="fil16" d="M1268 2123c4,-49 14,-119 39,-153 0,0 -13,78 -20,153l-19 0z"/>
    </g>
    <g>
     <path class="fil15" d="M1117 2123c5,-37 26,-204 37,-222 0,0 -11,146 -10,222l-28 0z"/>
    </g>
    <g>
     <path class="fil15" d="M1190 2123c6,-55 20,-153 37,-189 0,0 -10,143 -10,182l-5 8 -22 0z"/>
    </g>
    <g>
     <path class="fil15" d="M1314 2123c7,-56 20,-146 36,-179 0,0 -9,138 -10,179l-26 0z"/>
    </g>
    <g>
     <path class="fil15" d="M1026 2120c0,0 -27,-206 -7,-274 0,0 -32,166 -23,276l29 0 2 -3z"/>
    </g>
    <g>
     <path class="fil16" d="M1140 2123c-10,-43 -32,-115 -70,-139 0,0 37,74 50,139l21 0z"/>
    </g>
    <g>
     <path class="fil14" d="M1275 2123c-8,-42 -28,-110 -69,-147 0,0 32,80 48,147l21 0z"/>
    </g>
   </g>
   <g>
    <g>
     <path class="fil14" d="M1720 2123c-1,-72 -3,-283 12,-342 0,0 -50,140 -42,342l30 0z"/>
    </g>
    <g>
     <path class="fil14" d="M1757 2123l22 -15c0,0 -5,-231 5,-255 0,0 -35,172 -28,270l2 0z"/>
    </g>
    <g>
     <path class="fil14" d="M1526 2123c0,-67 0,-150 -6,-163 0,0 18,81 28,163l-21 0z"/>
    </g>
    <g>
     <path class="fil15" d="M1843 2123l6 -6 2 -192c0,0 -23,135 -20,197l11 0z"/>
    </g>
    <g>
     <path class="fil16" d="M1655 2123c0,-41 -3,-188 -21,-228 0,0 0,180 -7,215l16 13 12 0z"/>
    </g>
    <g>
     <path class="fil16" d="M1973 2123c-2,-57 -8,-125 -19,-150 0,0 0,86 -2,150l21 0z"/>
    </g>
    <g>
     <path class="fil16" d="M1799 2123c11,-44 32,-109 69,-132 0,0 -34,68 -48,132l-20 0z"/>
    </g>
    <g>
     <path class="fil16" d="M1799 2123c11,-43 32,-103 67,-125 0,0 -32,63 -47,125l-20 0z"/>
    </g>
    <g>
     <path class="fil15" d="M1753 2123c0,-25 -2,-166 -47,-202 0,0 24,118 25,202l22 0z"/>
    </g>
    <g>
     <path class="fil14" d="M1650 2123c0,-62 4,-161 24,-211 0,0 -6,122 -5,211l-19 0z"/>
    </g>
    <g>
     <path class="fil15" d="M1609 2099c0,0 2,-131 -12,-182 0,0 -1,126 -9,206l12 0 9 -24z"/>
    </g>
    <g>
     <path class="fil14" d="M1616 2123c-10,-42 -29,-99 -66,-132 0,0 27,69 44,132l22 0z"/>
    </g>
    <g>
     <path class="fil14" d="M1940 2123c-6,-38 -24,-123 -72,-166 0,0 38,96 52,166l20 0z"/>
    </g>
    <g>
     <path class="fil14" d="M1863 2123c3,-18 11,-39 26,-60 0,0 -4,27 -7,60l-19 0z"/>
    </g>
    <g>
     <path class="fil16" d="M1850 2123c5,-47 15,-107 38,-138 0,0 -11,68 -18,138l-19 0z"/>
    </g>
    <g>
     <path class="fil15" d="M1580 2123c-7,-54 -25,-191 -35,-207 0,0 10,129 10,207l26 0z"/>
    </g>
    <g>
     <path class="fil15" d="M1773 2123c7,-56 20,-142 35,-174 0,0 -9,128 -10,174l-26 0z"/>
    </g>
    <g>
     <path class="fil15" d="M1897 2123c7,-56 19,-134 34,-165 0,0 -8,112 -9,165l-25 0z"/>
    </g>
    <g>
     <path class="fil15" d="M1674 2123c5,-45 22,-204 6,-262 0,0 29,152 24,262l-30 0z"/>
    </g>
    <g>
     <path class="fil14" d="M1115 2123c1,-67 2,-222 -12,-268 0,0 48,109 43,268l-30 0z"/>
    </g>
    <g>
     <path class="fil14" d="M1321 2123l14 -12c0,0 -5,-295 5,-325 0,0 -33,211 -28,337l10 0z"/>
    </g>
    <g>
     <path class="fil14" d="M1309 2123c0,-66 1,-143 7,-156 0,0 -17,76 -27,156l20 0z"/>
    </g>
    <g>
     <path class="fil15" d="M1405 2123l2 -190c0,0 -21,125 -20,190l18 0z"/>
    </g>
    <g>
     <path class="fil16" d="M1180 2123c1,-49 4,-182 21,-220 0,0 0,180 7,215l-6 5 -21 0z"/>
    </g>
    <g>
     <path class="fil16" d="M1528 2123c-3,-55 -8,-119 -19,-143 0,0 0,79 -2,143l21 0z"/>
    </g>
    <g>
     <path class="fil16" d="M1357 2123c11,-43 32,-103 67,-125 0,0 -32,63 -47,125l-20 0z"/>
    </g>
    <g>
     <path class="fil15" d="M1081 2123c1,-38 5,-161 47,-194 0,0 -23,111 -25,194l-22 0z"/>
    </g>
    <g>
     <path class="fil14" d="M1185 2123c-1,-62 -5,-155 -24,-204 0,0 5,115 5,204l19 0z"/>
    </g>
    <g>
     <path class="fil15" d="M1226 2107c0,0 -2,-131 12,-182 0,0 1,118 8,198l-14 0 -6 -16z"/>
    </g>
    <g>
     <path class="fil14" d="M1494 2123c-7,-41 -26,-118 -71,-158 0,0 35,90 50,158l21 0z"/>
    </g>
    <g>
     <path class="fil14" d="M1420 2123c4,-16 11,-34 24,-52 0,0 -3,23 -6,52l-18 0z"/>
    </g>
    <g>
     <path class="fil16" d="M1406 2123c5,-46 15,-101 37,-131 0,0 -10,63 -17,131l-19 0z"/>
    </g>
    <g>
     <path class="fil15" d="M1256 2123c7,-58 24,-184 34,-200 0,0 -9,121 -10,200l-25 0z"/>
    </g>
    <g>
     <path class="fil15" d="M1329 2123c7,-56 19,-136 34,-167 0,0 -8,115 -9,167l-25 0z"/>
    </g>
    <g>
     <path class="fil15" d="M1454 2123c7,-55 19,-128 33,-157 0,0 -7,102 -9,157l-24 0z"/>
    </g>
    <g>
     <path class="fil15" d="M1160 2123c-6,-53 -21,-199 -5,-254 0,0 -28,145 -25,254l29 0z"/>
    </g>
    <g>
     <path class="fil16" d="M1271 2123c-12,-42 -32,-97 -65,-117 0,0 29,58 45,117l20 0z"/>
    </g>
    <g>
     <path class="fil14" d="M1407 2123c-10,-41 -29,-94 -64,-125 0,0 25,63 42,125l22 0z"/>
    </g>
   </g>
   <g>
    <g>
     <path class="fil14" d="M1799 2123c-1,-54 0,-150 13,-180 0,0 -44,72 -44,180l31 0z"/>
    </g>
    <g>
     <path class="fil14" d="M1859 2123c-1,-36 -2,-126 5,-137 0,0 -27,78 -29,137l24 0z"/>
    </g>
    <g>
     <path class="fil14" d="M1602 2123c0,-34 -2,-67 -7,-73 0,0 13,34 23,73l-16 0z"/>
    </g>
    <g>
     <path class="fil15" d="M1931 2123l2 -94c0,0 -15,54 -19,94l17 0z"/>
    </g>
    <g>
     <path class="fil16" d="M1733 2123c-2,-36 -6,-93 -21,-112 0,0 0,75 -4,112l25 0z"/>
    </g>
    <g>
     <path class="fil16" d="M2054 2123c-3,-27 -8,-54 -17,-66 0,0 0,33 -1,66l18 0z"/>
    </g>
    <g>
     <path class="fil16" d="M1891 2123c13,-22 31,-45 58,-55 0,0 -22,25 -38,55l-20 0z"/>
    </g>
    <g>
     <path class="fil16" d="M1892 2123c12,-20 31,-41 55,-50 0,0 -19,23 -35,50l-20 0z"/>
    </g>
    <g>
     <path class="fil15" d="M1832 2123c-3,-31 -13,-80 -46,-96 0,0 18,50 24,96l23 0z"/>
    </g>
    <g>
     <path class="fil14" d="M1729 2123c2,-35 7,-78 24,-102 0,0 -4,53 -5,102l-19 0z"/>
    </g>
    <g>
     <path class="fil15" d="M1686 2123c0,-22 -1,-75 -12,-98 0,0 -1,53 -6,98l18 0z"/>
    </g>
    <g>
     <path class="fil14" d="M1682 2123c-12,-20 -29,-41 -55,-55 0,0 17,25 33,55l23 0z"/>
    </g>
    <g>
     <path class="fil14" d="M2014 2123c-10,-25 -30,-56 -65,-75 0,0 26,38 43,75l22 0z"/>
    </g>
    <g>
     <path class="fil14" d="M1958 2123c3,-4 7,-8 12,-11 0,0 -1,4 -3,11l-10 0z"/>
    </g>
    <g>
     <path class="fil16" d="M1936 2123c6,-22 16,-45 33,-58 0,0 -7,26 -14,58l-19 0z"/>
    </g>
    <g>
     <path class="fil15" d="M1651 2123c-9,-38 -22,-92 -31,-99 0,0 7,54 9,99l21 0z"/>
    </g>
    <g>
     <path class="fil15" d="M1858 2123c7,-30 18,-65 30,-80 0,0 -5,46 -8,80l-22 0z"/>
    </g>
    <g>
     <path class="fil15" d="M1985 2123c7,-29 17,-60 29,-74 0,0 -5,41 -8,74l-21 0z"/>
    </g>
    <g>
     <path class="fil15" d="M1756 2123c7,-39 15,-104 1,-132 0,0 23,70 25,132l-26 0z"/>
    </g>
    <g>
     <path class="fil14" d="M1184 2123c1,-45 -1,-113 -13,-136 0,0 41,54 44,136l-31 0z"/>
    </g>
    <g>
     <path class="fil14" d="M1407 2123c-1,-44 -3,-162 5,-177 0,0 -27,102 -29,177l24 0z"/>
    </g>
    <g>
     <path class="fil14" d="M1381 2123c0,-32 2,-63 7,-69 0,0 -12,31 -22,69l15 0z"/>
    </g>
    <g>
     <path class="fil15" d="M1479 2123l2 -89c0,0 -14,50 -19,89l17 0z"/>
    </g>
    <g>
     <path class="fil16" d="M1251 2123c2,-36 7,-89 20,-107 0,0 0,69 4,107l-24 0z"/>
    </g>
    <g>
     <path class="fil16" d="M1601 2123c-3,-26 -8,-50 -17,-61 0,0 0,30 -1,61l18 0z"/>
    </g>
    <g>
     <path class="fil16" d="M1442 2123c12,-20 30,-41 55,-50 0,0 -19,23 -35,50l-20 0z"/>
    </g>
    <g>
     <path class="fil15" d="M1152 2123c4,-31 14,-77 46,-92 0,0 -17,47 -23,92l-23 0z"/>
    </g>
    <g>
     <path class="fil14" d="M1254 2123c-2,-34 -8,-74 -23,-97 0,0 4,50 5,97l19 0z"/>
    </g>
    <g>
     <path class="fil15" d="M1297 2123c0,-24 2,-72 12,-94 0,0 1,50 6,94l-18 0z"/>
    </g>
    <g>
     <path class="fil14" d="M1560 2123c-11,-24 -30,-53 -63,-70 0,0 24,35 41,70l23 0z"/>
    </g>
    <g>
     <path class="fil14" d="M1511 2123c2,-2 5,-5 8,-7 0,0 -1,3 -2,7l-6 0z"/>
    </g>
    <g>
     <path class="fil16" d="M1486 2123c6,-21 16,-41 32,-54 0,0 -7,24 -13,54l-19 0z"/>
    </g>
    <g>
     <path class="fil15" d="M1333 2123c9,-37 21,-88 30,-95 0,0 -7,51 -9,95l-21 0z"/>
    </g>
    <g>
     <path class="fil15" d="M1407 2123c7,-29 17,-61 29,-75 0,0 -5,42 -8,75l-21 0z"/>
    </g>
    <g>
     <path class="fil15" d="M1534 2123c7,-27 17,-56 28,-70 0,0 -4,38 -7,70l-20 0z"/>
    </g>
    <g>
     <path class="fil15" d="M1226 2123c-6,-39 -14,-101 -1,-127 0,0 -22,67 -25,127l25 0z"/>
    </g>
    <g>
     <path class="fil16" d="M1329 2123c-12,-19 -29,-37 -52,-46 0,0 17,20 33,46l20 0z"/>
    </g>
    <g>
     <path class="fil14" d="M1468 2123c-11,-19 -28,-37 -53,-50 0,0 15,23 30,50l22 0z"/>
    </g>
   </g>
   <g>
    <g>
     <path class="fil14" d="M1237 2123c-1,-61 -3,-225 12,-272 0,0 -50,111 -42,272l30 0z"/>
    </g>
    <g>
     <path class="fil14" d="M1280 2123l15 -9c0,0 -5,-186 5,-205 0,0 -34,134 -28,214l8 0z"/>
    </g>
    <g>
     <path class="fil14" d="M1042 2123c0,-54 -1,-117 -7,-128 0,0 18,63 27,128l-21 0z"/>
    </g>
    <g>
     <path class="fil15" d="M1364 2123l1 -1 2 -154c0,0 -22,104 -20,155l16 0z"/>
    </g>
    <g>
     <path class="fil16" d="M1172 2123c-1,-37 -3,-149 -21,-180 0,0 0,145 -7,173l10 7 18 0z"/>
    </g>
    <g>
     <path class="fil16" d="M1489 2123c-2,-45 -8,-98 -19,-117 0,0 0,66 -2,117l21 0z"/>
    </g>
    <g>
     <path class="fil16" d="M1317 2123c11,-35 32,-85 67,-103 0,0 -33,52 -47,103l-20 0z"/>
    </g>
    <g>
     <path class="fil16" d="M1317 2123c12,-35 32,-80 66,-97 0,0 -30,48 -45,97l-20 0z"/>
    </g>
    <g>
     <path class="fil15" d="M1270 2123c0,-28 -4,-131 -47,-159 0,0 23,92 25,159l22 0z"/>
    </g>
    <g>
     <path class="fil14" d="M1167 2123c0,-50 5,-127 24,-167 0,0 -5,95 -5,167l-19 0z"/>
    </g>
    <g>
     <path class="fil15" d="M1125 2107c0,0 2,-105 -12,-147 0,0 -1,98 -9,162l13 0 7 -15z"/>
    </g>
    <g>
     <path class="fil14" d="M1132 2123c-10,-34 -29,-77 -65,-103 0,0 26,53 43,103l22 0z"/>
    </g>
    <g>
     <path class="fil14" d="M1456 2123c-7,-32 -25,-97 -72,-130 0,0 36,74 51,130l21 0z"/>
    </g>
    <g>
     <path class="fil14" d="M1380 2123c4,-13 11,-29 25,-44 0,0 -4,20 -6,44l-19 0z"/>
    </g>
    <g>
     <path class="fil16" d="M1367 2123c5,-37 15,-84 37,-108 0,0 -11,52 -18,108l-19 0z"/>
    </g>
    <g>
     <path class="fil15" d="M1096 2123c-7,-46 -25,-151 -35,-163 0,0 9,100 10,163l25 0z"/>
    </g>
    <g>
     <path class="fil15" d="M1290 2123c7,-45 19,-111 35,-137 0,0 -8,97 -10,137l-25 0z"/>
    </g>
    <g>
     <path class="fil15" d="M1414 2123c7,-45 19,-105 33,-129 0,0 -7,85 -9,129l-24 0z"/>
    </g>
    <g>
     <path class="fil15" d="M1191 2123c6,-40 21,-162 5,-207 0,0 28,119 24,207l-30 0z"/>
    </g>
    <g>
     <path class="fil14" d="M632 2123c1,-56 2,-176 -12,-212 0,0 47,86 43,212l-30 0z"/>
    </g>
    <g>
     <path class="fil14" d="M843 2123l9 -6c0,0 -5,-238 5,-262 0,0 -33,166 -29,268l15 0z"/>
    </g>
    <g>
     <path class="fil14" d="M826 2123c0,-52 1,-112 7,-122 0,0 -17,59 -26,122l20 0z"/>
    </g>
    <g>
     <path class="fil15" d="M921 2123l2 -149c0,0 -20,96 -20,149l18 0z"/>
    </g>
    <g>
     <path class="fil16" d="M696 2123c1,-42 4,-144 21,-174 0,0 0,145 7,173l-1 1 -27 0z"/>
    </g>
    <g>
     <path class="fil16" d="M1044 2123c-3,-44 -8,-92 -18,-111 0,0 0,61 -2,111l20 0z"/>
    </g>
    <g>
     <path class="fil16" d="M874 2123c12,-35 32,-80 65,-97 0,0 -30,48 -45,97l-20 0z"/>
    </g>
    <g>
     <path class="fil15" d="M598 2123c1,-34 7,-127 47,-153 0,0 -22,86 -25,153l-22 0z"/>
    </g>
    <g>
     <path class="fil14" d="M701 2123c-1,-50 -5,-122 -24,-161 0,0 5,90 5,161l19 0z"/>
    </g>
    <g>
     <path class="fil15" d="M743 2113c0,0 -2,-105 12,-147 0,0 1,92 8,156l-15 0 -4 -9z"/>
    </g>
    <g>
     <path class="fil14" d="M1010 2123c-8,-34 -27,-93 -70,-124 0,0 34,69 49,124l21 0z"/>
    </g>
    <g>
     <path class="fil14" d="M938 2123c4,-12 11,-25 23,-38 0,0 -3,17 -6,38l-18 0z"/>
    </g>
    <g>
     <path class="fil16" d="M923 2123c5,-36 15,-79 36,-102 0,0 -10,49 -17,102l-19 0z"/>
    </g>
    <g>
     <path class="fil15" d="M773 2123c8,-49 24,-145 34,-157 0,0 -9,94 -10,157l-24 0z"/>
    </g>
    <g>
     <path class="fil15" d="M846 2123c7,-45 19,-106 34,-131 0,0 -7,88 -9,131l-24 0z"/>
    </g>
    <g>
     <path class="fil15" d="M971 2123c7,-44 19,-100 32,-123 0,0 -7,78 -9,123l-24 0z"/>
    </g>
    <g>
     <path class="fil15" d="M676 2123c-6,-45 -20,-158 -4,-201 0,0 -27,113 -25,201l29 0z"/>
    </g>
    <g>
     <path class="fil16" d="M787 2123c-12,-34 -32,-75 -63,-91 0,0 28,44 43,91l20 0z"/>
    </g>
    <g>
     <path class="fil14" d="M922 2123c-10,-33 -29,-73 -63,-97 0,0 24,49 41,97l22 0z"/>
    </g>
   </g>
   <g>
    <g>
     <path class="fil14" d="M597 2123c-1,-62 -2,-217 11,-262 0,0 -46,107 -40,262l28 0z"/>
    </g>
    <g>
     <path class="fil14" d="M643 2123l9 -5c0,0 -4,-181 4,-200 0,0 -31,127 -27,205l13 0z"/>
    </g>
    <g>
     <path class="fil14" d="M415 2123c0,-52 -1,-111 -6,-122 0,0 16,59 25,122l-19 0z"/>
    </g>
    <g>
     <path class="fil15" d="M718 2123l2 -148c0,0 -20,97 -19,148l16 0z"/>
    </g>
    <g>
     <path class="fil16" d="M536 2123c-1,-39 -4,-143 -19,-172 0,0 0,141 -7,169l5 4 21 0z"/>
    </g>
    <g>
     <path class="fil16" d="M833 2123c-2,-43 -7,-92 -17,-111 0,0 0,62 -2,111l19 0z"/>
    </g>
    <g>
     <path class="fil16" d="M673 2123c11,-34 30,-80 62,-97 0,0 -29,49 -43,97l-19 0z"/>
    </g>
    <g>
     <path class="fil16" d="M673 2123c11,-33 30,-76 60,-91 0,0 -27,45 -42,91l-19 0z"/>
    </g>
    <g>
     <path class="fil15" d="M628 2123c-1,-31 -5,-126 -44,-152 0,0 21,87 23,152l20 0z"/>
    </g>
    <g>
     <path class="fil14" d="M532 2123c1,-49 5,-121 22,-159 0,0 -5,90 -5,159l-18 0z"/>
    </g>
    <g>
     <path class="fil15" d="M493 2111c0,0 2,-103 -11,-143 0,0 -1,92 -8,155l13 0 5 -12z"/>
    </g>
    <g>
     <path class="fil14" d="M498 2123c-10,-32 -27,-73 -60,-97 0,0 23,49 39,97l21 0z"/>
    </g>
    <g>
     <path class="fil14" d="M801 2123c-7,-32 -24,-92 -66,-124 0,0 33,70 47,124l19 0z"/>
    </g>
    <g>
     <path class="fil14" d="M732 2123c4,-12 10,-27 23,-40 0,0 -3,18 -6,40l-17 0z"/>
    </g>
    <g>
     <path class="fil16" d="M719 2123c5,-36 14,-79 34,-102 0,0 -10,49 -16,102l-18 0z"/>
    </g>
    <g>
     <path class="fil15" d="M465 2123c-7,-46 -23,-144 -32,-156 0,0 9,94 9,156l23 0z"/>
    </g>
    <g>
     <path class="fil15" d="M647 2123c7,-44 18,-106 32,-130 0,0 -7,90 -9,130l-23 0z"/>
    </g>
    <g>
     <path class="fil15" d="M763 2123c7,-43 18,-100 31,-123 0,0 -6,79 -8,123l-22 0z"/>
    </g>
    <g>
     <path class="fil15" d="M555 2123c6,-42 19,-156 5,-199 0,0 26,113 23,199l-27 0z"/>
    </g>
    <g>
     <path class="fil14" d="M233 2123l4 -3c0,0 -4,-231 4,-255 0,0 -30,158 -27,258l18 0z"/>
    </g>
    <g>
     <path class="fil14" d="M213 2123c0,-50 1,-106 6,-116 0,0 -15,55 -24,116l18 0z"/>
    </g>
    <g>
     <path class="fil15" d="M302 2123l2 -142c0,0 -18,90 -19,142l17 0z"/>
    </g>
    <g>
     <path class="fil16" d="M417 2123c-2,-42 -7,-87 -17,-105 0,0 0,57 -2,105l19 0z"/>
    </g>
    <g>
     <path class="fil16" d="M259 2123c11,-33 30,-75 60,-91 0,0 -27,45 -41,91l-19 0z"/>
    </g>
    <g>
     <path class="fil15" d="M136 2117c0,0 -2,-103 11,-143 0,0 1,87 7,149l-15 0 -3 -6z"/>
    </g>
    <g>
     <path class="fil14" d="M384 2123c-8,-33 -25,-88 -65,-118 0,0 30,65 45,118l20 0z"/>
    </g>
    <g>
     <path class="fil14" d="M319 2123c4,-11 10,-23 21,-34 0,0 -3,15 -5,34l-16 0z"/>
    </g>
    <g>
     <path class="fil16" d="M305 2123c5,-35 14,-74 33,-96 0,0 -9,45 -15,96l-18 0z"/>
    </g>
    <g>
     <path class="fil15" d="M164 2123c7,-48 22,-139 31,-150 0,0 -8,88 -9,150l-22 0z"/>
    </g>
    <g>
     <path class="fil15" d="M233 2123c7,-43 18,-101 31,-124 0,0 -7,82 -9,124l-22 0z"/>
    </g>
    <g>
     <path class="fil15" d="M349 2123c7,-42 17,-95 30,-117 0,0 -6,73 -8,117l-22 0z"/>
    </g>
    <g>
     <path class="fil16" d="M175 2123c-9,-26 -23,-56 -43,-74l0 18c8,15 17,36 24,56l19 0z"/>
    </g>
    <g>
     <path class="fil14" d="M302 2123c-10,-31 -28,-69 -58,-91 0,0 21,45 37,91l21 0z"/>
    </g>
   </g>
   <g>
    <g>
     <path class="fil14" d="M921 2123c-1,-67 -4,-286 12,-347 0,0 -51,142 -42,347l30 0z"/>
    </g>
    <g>
     <path class="fil14" d="M956 2119l23 -16c0,0 -5,-231 5,-255 0,0 -35,173 -28,271z"/>
    </g>
    <g>
     <path class="fil14" d="M726 2123c0,-68 0,-154 -6,-168 0,0 19,84 28,168l-22 0z"/>
    </g>
    <g>
     <path class="fil15" d="M1039 2123l11 -10 2 -192c0,0 -24,142 -19,202l6 0z"/>
    </g>
    <g>
     <path class="fil16" d="M856 2123c0,-32 -2,-190 -21,-232 0,0 0,180 -7,215l21 17 7 0z"/>
    </g>
    <g>
     <path class="fil16" d="M1173 2123c-2,-58 -7,-129 -19,-155 0,0 0,90 -2,155l22 0z"/>
    </g>
    <g>
     <path class="fil16" d="M999 2123c10,-43 32,-113 70,-137 0,0 -36,72 -49,137l-20 0z"/>
    </g>
    <g>
     <path class="fil16" d="M998 2123c11,-44 32,-107 68,-129 0,0 -33,66 -48,129l-20 0z"/>
    </g>
    <g>
     <path class="fil15" d="M954 2122c0,0 2,-166 -47,-206 0,0 25,123 25,206l21 0 1 -1z"/>
    </g>
    <g>
     <path class="fil14" d="M850 2123c0,-62 4,-164 24,-216 0,0 -6,126 -5,216l-19 0z"/>
    </g>
    <g>
     <path class="fil15" d="M809 2095c0,0 2,-131 -12,-182 0,0 -2,131 -10,210l10 0 11 -28z"/>
    </g>
    <g>
     <path class="fil14" d="M817 2123c-9,-42 -29,-103 -67,-137 0,0 28,72 45,137l22 0z"/>
    </g>
    <g>
     <path class="fil14" d="M1141 2123c-5,-35 -23,-126 -73,-171 0,0 40,101 53,171l20 0z"/>
    </g>
    <g>
     <path class="fil14" d="M1063 2123c3,-18 10,-42 27,-64 0,0 -4,30 -7,64l-20 0z"/>
    </g>
    <g>
     <path class="fil16" d="M1050 2123c4,-48 14,-111 38,-143 0,0 -12,71 -19,143l-19 0z"/>
    </g>
    <g>
     <path class="fil15" d="M781 2123c-6,-51 -25,-195 -36,-212 0,0 10,134 10,212l26 0z"/>
    </g>
    <g>
     <path class="fil15" d="M972 2123c7,-56 20,-145 36,-179 0,0 -9,137 -10,179l-26 0z"/>
    </g>
    <g>
     <path class="fil15" d="M1097 2123c7,-56 19,-137 35,-169 0,0 -8,119 -10,169l-25 0z"/>
    </g>
    <g>
     <path class="fil15" d="M874 2123c5,-37 24,-206 6,-266 0,0 30,156 24,266l-30 0z"/>
    </g>
    <g>
     <path class="fil14" d="M315 2123c1,-65 3,-225 -12,-272 0,0 49,111 43,272l-30 0z"/>
    </g>
    <g>
     <path class="fil14" d="M516 2123l19 -17c0,0 -5,-295 5,-325 0,0 -34,216 -28,342l5 0z"/>
    </g>
    <g>
     <path class="fil14" d="M510 2123c0,-67 1,-147 7,-160 0,0 -18,79 -27,160l21 0z"/>
    </g>
    <g>
     <path class="fil15" d="M602 2123l3 -3 2 -192c0,0 -22,131 -20,194l14 0z"/>
    </g>
    <g>
     <path class="fil16" d="M380 2123c0,-44 3,-186 21,-225 0,0 0,180 7,215l-12 10 -16 0z"/>
    </g>
    <g>
     <path class="fil16" d="M729 2123c-2,-56 -8,-122 -19,-147 0,0 0,83 -2,147l21 0z"/>
    </g>
    <g>
     <path class="fil16" d="M556 2123c11,-44 32,-107 68,-129 0,0 -33,66 -48,129l-20 0z"/>
    </g>
    <g>
     <path class="fil15" d="M282 2123c0,-32 4,-164 47,-199 0,0 -24,115 -25,199l-22 0z"/>
    </g>
    <g>
     <path class="fil14" d="M385 2123c0,-62 -4,-159 -24,-208 0,0 5,119 5,208l19 0z"/>
    </g>
    <g>
     <path class="fil15" d="M427 2102c0,0 -2,-131 12,-182 0,0 1,123 9,203l-13 0 -8 -20z"/>
    </g>
    <g>
     <path class="fil14" d="M695 2123c-6,-39 -25,-121 -72,-163 0,0 37,94 51,163l21 0z"/>
    </g>
    <g>
     <path class="fil14" d="M619 2123c4,-17 11,-37 25,-57 0,0 -4,26 -7,57l-19 0z"/>
    </g>
    <g>
     <path class="fil16" d="M606 2123c5,-47 15,-105 37,-135 0,0 -11,66 -18,135l-19 0z"/>
    </g>
    <g>
     <path class="fil15" d="M456 2123c7,-56 25,-188 35,-204 0,0 -10,126 -10,204l-25 0z"/>
    </g>
    <g>
     <path class="fil15" d="M529 2123c7,-56 19,-139 35,-171 0,0 -8,123 -10,171l-25 0z"/>
    </g>
    <g>
     <path class="fil15" d="M653 2123c7,-56 19,-131 34,-162 0,0 -7,108 -9,162l-24 0z"/>
    </g>
    <g>
     <path class="fil15" d="M361 2123c-6,-49 -22,-202 -5,-259 0,0 -28,149 -24,259l30 0z"/>
    </g>
    <g>
     <path class="fil16" d="M473 2123c-11,-43 -32,-101 -66,-122 0,0 31,61 46,122l20 0z"/>
    </g>
    <g>
     <path class="fil14" d="M608 2123c-10,-42 -29,-97 -65,-129 0,0 26,67 43,129l22 0z"/>
    </g>
   </g>
  </g>
  <g id="_285133104">
   <polygon class="fil17" points="3732,1477 1933,1478 1933,1391 3732,1390 "/>
   <polygon class="fil18" points="3732,1853 1933,1854 1933,1767 3732,1766 "/>
   <polygon class="fil19 str0" points="2210,2094 1988,2094 1987,1190 2106,1039 2210,1189 "/>
   <polygon class="fil20 str0" points="2472,2094 2249,2094 2249,1189 2367,1039 2471,1189 "/>
   <polygon class="fil21 str0" points="2511,2094 2733,2094 2733,1189 2614,1039 2510,1189 "/>
   <polygon class="fil22 str0" points="3256,2094 3034,2094 3033,1189 3151,1039 3255,1189 "/>
   <polygon class="fil23 str0" points="2994,2094 2772,2094 2772,1189 2890,1039 2994,1189 "/>
   <polygon class="fil24 str0" points="3517,2094 3295,2094 3294,1190 3413,1039 3517,1189 "/>
   <polygon class="fil25" points="3732,2094 3556,2094 3556,1189 3674,1039 3732,1122 "/>
   <polyline class="fil26 str0" points="3732,2094 3556,2094 3556,1189 3674,1039 3732,1122 "/>
   <g>
    <g>
     <path class="fil14" d="M2541 2123c-1,-62 -2,-217 11,-262 0,0 -46,107 -40,262l28 0z"/>
    </g>
    <g>
     <path class="fil14" d="M2587 2123l9 -5c0,0 -4,-181 4,-200 0,0 -31,127 -27,205l13 0z"/>
    </g>
    <g>
     <path class="fil14" d="M2360 2123c0,-52 -1,-111 -6,-122 0,0 16,59 25,122l-19 0z"/>
    </g>
    <g>
     <path class="fil15" d="M2662 2123l2 -148c0,0 -20,97 -19,148l16 0z"/>
    </g>
    <g>
     <path class="fil16" d="M2481 2123c-1,-39 -4,-143 -19,-172 0,0 0,141 -7,169l5 4 21 0z"/>
    </g>
    <g>
     <path class="fil16" d="M2777 2123c-2,-43 -7,-92 -17,-111 0,0 0,62 -2,111l19 0z"/>
    </g>
    <g>
     <path class="fil16" d="M2617 2123c11,-34 30,-80 62,-97 0,0 -29,49 -43,97l-19 0z"/>
    </g>
    <g>
     <path class="fil16" d="M2617 2123c11,-33 30,-76 60,-91 0,0 -27,45 -42,91l-19 0z"/>
    </g>
    <g>
     <path class="fil15" d="M2572 2123c-1,-31 -5,-126 -44,-152 0,0 21,87 23,152l20 0z"/>
    </g>
    <g>
     <path class="fil14" d="M2476 2123c1,-49 5,-121 22,-159 0,0 -5,90 -5,159l-18 0z"/>
    </g>
    <g>
     <path class="fil15" d="M2437 2111c0,0 2,-103 -11,-143 0,0 -1,92 -8,155l13 0 5 -12z"/>
    </g>
    <g>
     <path class="fil14" d="M2442 2123c-10,-32 -27,-73 -60,-97 0,0 23,49 39,97l21 0z"/>
    </g>
    <g>
     <path class="fil14" d="M2745 2123c-7,-32 -24,-92 -66,-124 0,0 33,70 47,124l19 0z"/>
    </g>
    <g>
     <path class="fil14" d="M2676 2123c4,-12 10,-27 23,-40 0,0 -3,18 -6,40l-17 0z"/>
    </g>
    <g>
     <path class="fil16" d="M2664 2123c5,-36 14,-79 34,-102 0,0 -10,49 -16,102l-18 0z"/>
    </g>
    <g>
     <path class="fil15" d="M2409 2123c-7,-46 -23,-144 -32,-156 0,0 9,94 9,156l23 0z"/>
    </g>
    <g>
     <path class="fil15" d="M2591 2123c7,-44 18,-106 32,-130 0,0 -7,90 -9,130l-23 0z"/>
    </g>
    <g>
     <path class="fil15" d="M2708 2123c7,-43 18,-100 31,-123 0,0 -6,79 -8,123l-22 0z"/>
    </g>
    <g>
     <path class="fil15" d="M2499 2123c6,-42 19,-156 5,-199 0,0 26,113 23,199l-27 0z"/>
    </g>
    <g>
     <path class="fil14" d="M1976 2123c1,-56 1,-169 -12,-203 0,0 43,82 40,203l-28 0z"/>
    </g>
    <g>
     <path class="fil14" d="M2177 2123l4 -3c0,0 -4,-231 4,-255 0,0 -30,158 -27,258l18 0z"/>
    </g>
    <g>
     <path class="fil14" d="M2157 2123c0,-50 1,-106 6,-116 0,0 -15,55 -24,116l18 0z"/>
    </g>
    <g>
     <path class="fil15" d="M2247 2123l2 -142c0,0 -18,90 -19,142l17 0z"/>
    </g>
    <g>
     <path class="fil16" d="M2036 2123c1,-42 4,-138 19,-166 0,0 0,134 6,166l-25 0z"/>
    </g>
    <g>
     <path class="fil16" d="M2361 2123c-2,-42 -7,-87 -17,-105 0,0 0,57 -2,105l19 0z"/>
    </g>
    <g>
     <path class="fil16" d="M2204 2123c11,-33 30,-75 60,-91 0,0 -27,45 -41,91l-19 0z"/>
    </g>
    <g>
     <path class="fil15" d="M1945 2123c1,-35 7,-121 43,-146 0,0 -20,82 -23,146l-20 0z"/>
    </g>
    <g>
     <path class="fil14" d="M2041 2123c-1,-49 -5,-117 -22,-153 0,0 5,85 5,153l17 0z"/>
    </g>
    <g>
     <path class="fil15" d="M2080 2117c0,0 -2,-103 11,-143 0,0 1,87 7,149l-15 0 -3 -6z"/>
    </g>
    <g>
     <path class="fil14" d="M2328 2123c-8,-33 -25,-88 -65,-118 0,0 30,65 45,118l20 0z"/>
    </g>
    <g>
     <path class="fil14" d="M2263 2123c4,-11 10,-23 21,-34 0,0 -3,15 -5,34l-16 0z"/>
    </g>
    <g>
     <path class="fil16" d="M2249 2123c5,-35 14,-74 33,-96 0,0 -9,45 -15,96l-18 0z"/>
    </g>
    <g>
     <path class="fil15" d="M2109 2123c7,-48 22,-139 31,-150 0,0 -8,88 -9,150l-22 0z"/>
    </g>
    <g>
     <path class="fil15" d="M2177 2123c7,-43 18,-101 31,-124 0,0 -7,82 -9,124l-22 0z"/>
    </g>
    <g>
     <path class="fil15" d="M2293 2123c7,-42 17,-95 30,-117 0,0 -6,73 -8,117l-22 0z"/>
    </g>
    <g>
     <path class="fil15" d="M2017 2123c-6,-46 -18,-152 -4,-193 0,0 -24,108 -23,193l27 0z"/>
    </g>
    <g>
     <path class="fil16" d="M2120 2123c-11,-32 -30,-71 -58,-85 0,0 25,41 40,85l19 0z"/>
    </g>
    <g>
     <path class="fil14" d="M2246 2123c-10,-31 -28,-69 -58,-91 0,0 21,45 37,91l21 0z"/>
    </g>
   </g>
   <g>
    <g>
     <path class="fil14" d="M3388 2106l27 16 4 0c-1,-27 -6,-296 12,-364 0,0 -51,142 -42,348z"/>
    </g>
    <g>
     <path class="fil14" d="M3453 2101l23 -16c0,0 -5,-231 5,-255 0,0 -35,173 -28,271z"/>
    </g>
    <g>
     <path class="fil14" d="M3223 2123c1,-70 0,-171 -6,-186 0,0 22,96 30,186l-23 0z"/>
    </g>
    <g>
     <path class="fil15" d="M3530 2111l16 -16 2 -192c0,0 -26,152 -19,208z"/>
    </g>
    <g>
     <path class="fil16" d="M3353 2111c0,0 0,-191 -21,-238 0,0 0,180 -7,215l28 23z"/>
    </g>
    <g>
     <path class="fil16" d="M3671 2123c-2,-60 -7,-144 -20,-173 0,0 0,108 -3,173l23 0z"/>
    </g>
    <g>
     <path class="fil16" d="M3492 2123c8,-39 30,-127 74,-154 0,0 -43,85 -52,154l-21 0z"/>
    </g>
    <g>
     <path class="fil16" d="M3491 2123c9,-42 31,-122 72,-147 0,0 -40,80 -51,147l-21 0z"/>
    </g>
    <g>
     <path class="fil15" d="M3451 2104c0,0 2,-166 -47,-206 0,0 29,141 25,224l9 0 13 -18z"/>
    </g>
    <g>
     <path class="fil14" d="M3347 2123c0,-58 1,-176 24,-234 0,0 -7,143 -5,234l-19 0z"/>
    </g>
    <g>
     <path class="fil15" d="M3306 2077c0,0 2,-131 -12,-182 0,0 -2,152 -12,228l6 0 18 -46z"/>
    </g>
    <g>
     <path class="fil14" d="M3318 2123c-8,-41 -27,-115 -70,-154 0,0 34,86 49,154l21 0z"/>
    </g>
    <g>
     <path class="fil14" d="M3639 2119c0,0 -12,-128 -75,-185 0,0 47,119 56,188l17 0 2 -4z"/>
    </g>
    <g>
     <path class="fil14" d="M3558 2123c1,-19 6,-51 29,-82 0,0 -6,41 -9,82l-20 0z"/>
    </g>
    <g>
     <path class="fil16" d="M3546 2123c3,-49 13,-124 39,-160 0,0 -14,83 -20,160l-19 0z"/>
    </g>
    <g>
     <path class="fil15" d="M3280 2122c0,0 -25,-209 -38,-229 0,0 12,157 9,229l29 0 0 0z"/>
    </g>
    <g>
     <path class="fil15" d="M3467 2123c6,-53 20,-159 38,-197 0,0 -10,143 -10,182l-10 15 -18 0z"/>
    </g>
    <g>
     <path class="fil15" d="M3592 2123c7,-55 20,-152 37,-187 0,0 -10,143 -10,182l-4 5 -23 0z"/>
    </g>
    <g>
     <path class="fil15" d="M3370 2112c0,0 27,-206 7,-274 0,0 33,173 23,284l-23 0 -8 -10z"/>
    </g>
    <g>
     <path class="fil14" d="M2842 2117l-11 5 -19 0c1,-46 5,-238 -12,-290 0,0 51,116 42,284z"/>
    </g>
    <g>
     <path class="fil14" d="M3009 2109l23 -21c0,0 -5,-295 5,-325 0,0 -35,220 -28,346z"/>
    </g>
    <g>
     <path class="fil14" d="M3007 2123c-1,-70 0,-164 6,-178 0,0 -21,91 -29,178l23 0z"/>
    </g>
    <g>
     <path class="fil15" d="M3086 2118l16 -16 2 -192c0,0 -26,152 -19,208z"/>
    </g>
    <g>
     <path class="fil16" d="M2877 2118c0,0 0,-192 21,-238 0,0 0,180 7,215l-28 23z"/>
    </g>
    <g>
     <path class="fil16" d="M3226 2123c-2,-59 -7,-137 -20,-165 0,0 0,100 -3,165l22 0z"/>
    </g>
    <g>
     <path class="fil16" d="M3049 2123c9,-42 31,-121 72,-147 0,0 -40,79 -51,147l-21 0z"/>
    </g>
    <g>
     <path class="fil15" d="M2779 2112c0,0 -2,-166 47,-205 0,0 -27,133 -25,216l-14 0 -8 -11z"/>
    </g>
    <g>
     <path class="fil14" d="M2882 2123c0,-60 -2,-171 -24,-226 0,0 6,136 5,226l19 0z"/>
    </g>
    <g>
     <path class="fil15" d="M2924 2084c0,0 -2,-131 12,-182 0,0 2,143 11,220l-8 0 -15 -38z"/>
    </g>
    <g>
     <path class="fil14" d="M3194 2123c-3,-22 -18,-130 -74,-181 0,0 44,111 55,181l20 0z"/>
    </g>
    <g>
     <path class="fil14" d="M3114 2123c2,-19 8,-48 28,-74 0,0 -5,36 -8,74l-20 0z"/>
    </g>
    <g>
     <path class="fil16" d="M3102 2123c4,-49 14,-119 39,-153 0,0 -13,78 -20,153l-19 0z"/>
    </g>
    <g>
     <path class="fil15" d="M2951 2123c5,-37 26,-204 37,-222 0,0 -11,146 -10,222l-28 0z"/>
    </g>
    <g>
     <path class="fil15" d="M3024 2123c6,-55 20,-153 37,-189 0,0 -10,143 -10,182l-5 8 -22 0z"/>
    </g>
    <g>
     <path class="fil15" d="M3148 2123c7,-56 20,-146 36,-179 0,0 -9,138 -10,179l-26 0z"/>
    </g>
    <g>
     <path class="fil15" d="M2860 2120c0,0 -27,-206 -7,-274 0,0 -32,166 -23,276l29 0 2 -3z"/>
    </g>
    <g>
     <path class="fil16" d="M2974 2123c-10,-43 -32,-115 -70,-139 0,0 37,74 50,139l21 0z"/>
    </g>
    <g>
     <path class="fil14" d="M3109 2123c-8,-42 -28,-110 -69,-147 0,0 32,80 48,147l21 0z"/>
    </g>
   </g>
   <g>
    <g>
     <path class="fil14" d="M3554 2123c-1,-72 -3,-283 12,-342 0,0 -50,140 -42,342l30 0z"/>
    </g>
    <g>
     <path class="fil14" d="M3591 2123l22 -15c0,0 -5,-231 5,-255 0,0 -35,172 -28,270l2 0z"/>
    </g>
    <g>
     <path class="fil14" d="M3360 2123c0,-67 0,-150 -6,-163 0,0 18,81 28,163l-21 0z"/>
    </g>
    <g>
     <path class="fil15" d="M3677 2123l6 -6 2 -192c0,0 -23,135 -20,197l11 0z"/>
    </g>
    <g>
     <path class="fil16" d="M3489 2123c0,-41 -3,-188 -21,-228 0,0 0,180 -7,215l16 13 12 0z"/>
    </g>
    <g>
     <path class="fil16" d="M3633 2123c11,-44 32,-109 69,-132 0,0 -34,68 -48,132l-20 0z"/>
    </g>
    <g>
     <path class="fil16" d="M3633 2123c11,-43 32,-103 67,-125 0,0 -32,63 -47,125l-20 0z"/>
    </g>
    <g>
     <path class="fil15" d="M3587 2123c0,-25 -2,-166 -47,-202 0,0 24,118 25,202l22 0z"/>
    </g>
    <g>
     <path class="fil14" d="M3484 2123c0,-62 4,-161 24,-211 0,0 -6,122 -5,211l-19 0z"/>
    </g>
    <g>
     <path class="fil15" d="M3442 2099c0,0 2,-131 -12,-182 0,0 -1,126 -9,206l12 0 9 -24z"/>
    </g>
    <g>
     <path class="fil14" d="M3450 2123c-10,-42 -29,-99 -66,-132 0,0 27,69 44,132l22 0z"/>
    </g>
    <g>
     <path class="fil14" d="M3732 1995c-9,-15 -19,-28 -31,-39 0,0 16,40 31,88l0 -49z"/>
    </g>
    <g>
     <path class="fil14" d="M3697 2123c3,-18 11,-39 26,-60 0,0 -4,27 -7,60l-19 0z"/>
    </g>
    <g>
     <path class="fil16" d="M3684 2123c5,-47 15,-107 38,-138 0,0 -11,68 -18,138l-19 0z"/>
    </g>
    <g>
     <path class="fil15" d="M3414 2123c-7,-54 -25,-191 -35,-207 0,0 10,129 10,207l26 0z"/>
    </g>
    <g>
     <path class="fil15" d="M3606 2123c7,-56 20,-142 35,-174 0,0 -9,128 -10,174l-26 0z"/>
    </g>
    <g>
     <polygon class="fil15" points="3731,2123 3732,2115 3732,2123 "/>
    </g>
    <g>
     <path class="fil15" d="M3508 2123c5,-45 22,-204 6,-262 0,0 29,152 24,262l-30 0z"/>
    </g>
    <g>
     <path class="fil14" d="M2949 2123c1,-67 2,-222 -12,-268 0,0 48,109 43,268l-30 0z"/>
    </g>
    <g>
     <path class="fil14" d="M3155 2123l14 -12c0,0 -5,-295 5,-325 0,0 -33,211 -28,337l10 0z"/>
    </g>
    <g>
     <path class="fil14" d="M3143 2123c0,-66 1,-143 7,-156 0,0 -17,76 -27,156l20 0z"/>
    </g>
    <g>
     <path class="fil15" d="M3239 2123l2 -190c0,0 -21,125 -20,190l18 0z"/>
    </g>
    <g>
     <path class="fil16" d="M3014 2123c1,-49 4,-182 21,-220 0,0 0,180 7,215l-6 5 -21 0z"/>
    </g>
    <g>
     <path class="fil16" d="M3362 2123c-3,-55 -8,-119 -19,-143 0,0 0,79 -2,143l21 0z"/>
    </g>
    <g>
     <path class="fil16" d="M3190 2123c11,-43 32,-103 67,-125 0,0 -32,63 -47,125l-20 0z"/>
    </g>
    <g>
     <path class="fil15" d="M2915 2123c1,-38 5,-161 47,-194 0,0 -23,111 -25,194l-22 0z"/>
    </g>
    <g>
     <path class="fil14" d="M3019 2123c-1,-62 -5,-155 -24,-204 0,0 5,115 5,204l19 0z"/>
    </g>
    <g>
     <path class="fil15" d="M3060 2107c0,0 -2,-131 12,-182 0,0 1,118 8,198l-14 0 -6 -16z"/>
    </g>
    <g>
     <path class="fil14" d="M3328 2123c-7,-41 -26,-118 -71,-158 0,0 35,90 50,158l21 0z"/>
    </g>
    <g>
     <path class="fil14" d="M3254 2123c4,-16 11,-34 24,-52 0,0 -3,23 -6,52l-18 0z"/>
    </g>
    <g>
     <path class="fil16" d="M3240 2123c5,-46 15,-101 37,-131 0,0 -10,63 -17,131l-19 0z"/>
    </g>
    <g>
     <path class="fil15" d="M3090 2123c7,-58 24,-184 34,-200 0,0 -9,121 -10,200l-25 0z"/>
    </g>
    <g>
     <path class="fil15" d="M3163 2123c7,-56 19,-136 34,-167 0,0 -8,115 -9,167l-25 0z"/>
    </g>
    <g>
     <path class="fil15" d="M3288 2123c7,-55 19,-128 33,-157 0,0 -7,102 -9,157l-24 0z"/>
    </g>
    <g>
     <path class="fil15" d="M2994 2123c-6,-53 -21,-199 -5,-254 0,0 -28,145 -25,254l29 0z"/>
    </g>
    <g>
     <path class="fil16" d="M3105 2123c-12,-42 -32,-97 -65,-117 0,0 29,58 45,117l20 0z"/>
    </g>
    <g>
     <path class="fil14" d="M3241 2123c-10,-41 -29,-94 -64,-125 0,0 25,63 42,125l22 0z"/>
    </g>
   </g>
   <g>
    <g>
     <path class="fil14" d="M3633 2123c-1,-54 0,-150 13,-180 0,0 -44,72 -44,180l31 0z"/>
    </g>
    <g>
     <path class="fil14" d="M3693 2123c-1,-36 -2,-126 5,-137 0,0 -27,78 -29,137l24 0z"/>
    </g>
    <g>
     <path class="fil14" d="M3436 2123c0,-34 -2,-67 -7,-73 0,0 13,34 23,73l-16 0z"/>
    </g>
    <g>
     <path class="fil16" d="M3566 2123c-2,-36 -6,-93 -21,-112 0,0 0,75 -4,112l25 0z"/>
    </g>
    <g>
     <path class="fil16" d="M3725 2123c2,-4 4,-7 7,-11l0 11 -7 0z"/>
    </g>
    <g>
     <path class="fil16" d="M3726 2123c2,-3 4,-7 7,-10l0 10 -7 0z"/>
    </g>
    <g>
     <path class="fil15" d="M3666 2123c-3,-31 -13,-80 -46,-96 0,0 18,50 24,96l23 0z"/>
    </g>
    <g>
     <path class="fil14" d="M3562 2123c2,-35 7,-78 24,-102 0,0 -4,53 -5,102l-19 0z"/>
    </g>
    <g>
     <path class="fil15" d="M3520 2123c0,-22 -1,-75 -12,-98 0,0 -1,53 -6,98l18 0z"/>
    </g>
    <g>
     <path class="fil14" d="M3516 2123c-12,-20 -29,-41 -55,-55 0,0 17,25 33,55l23 0z"/>
    </g>
    <g>
     <path class="fil15" d="M3485 2123c-9,-38 -22,-92 -31,-99 0,0 7,54 9,99l21 0z"/>
    </g>
    <g>
     <path class="fil15" d="M3692 2123c7,-30 18,-65 30,-80 0,0 -5,46 -8,80l-22 0z"/>
    </g>
    <g>
     <path class="fil15" d="M3590 2123c7,-39 15,-104 1,-132 0,0 23,70 25,132l-26 0z"/>
    </g>
    <g>
     <path class="fil14" d="M3018 2123c1,-45 -1,-113 -13,-136 0,0 41,54 44,136l-31 0z"/>
    </g>
    <g>
     <path class="fil14" d="M3241 2123c-1,-44 -3,-162 5,-177 0,0 -27,102 -29,177l24 0z"/>
    </g>
    <g>
     <path class="fil14" d="M3215 2123c0,-32 2,-63 7,-69 0,0 -12,31 -22,69l15 0z"/>
    </g>
    <g>
     <path class="fil15" d="M3313 2123l2 -89c0,0 -14,50 -19,89l17 0z"/>
    </g>
    <g>
     <path class="fil16" d="M3085 2123c2,-36 7,-89 20,-107 0,0 0,69 4,107l-24 0z"/>
    </g>
    <g>
     <path class="fil16" d="M3435 2123c-3,-26 -8,-50 -17,-61 0,0 0,30 -1,61l18 0z"/>
    </g>
    <g>
     <path class="fil16" d="M3276 2123c12,-20 30,-41 55,-50 0,0 -19,23 -35,50l-20 0z"/>
    </g>
    <g>
     <path class="fil15" d="M2986 2123c4,-31 14,-77 46,-92 0,0 -17,47 -23,92l-23 0z"/>
    </g>
    <g>
     <path class="fil14" d="M3088 2123c-2,-34 -8,-74 -23,-97 0,0 4,50 5,97l19 0z"/>
    </g>
    <g>
     <path class="fil15" d="M3131 2123c0,-24 2,-72 12,-94 0,0 1,50 6,94l-18 0z"/>
    </g>
    <g>
     <path class="fil14" d="M3394 2123c-11,-24 -30,-53 -63,-70 0,0 24,35 41,70l23 0z"/>
    </g>
    <g>
     <path class="fil14" d="M3345 2123c2,-2 5,-5 8,-7 0,0 -1,3 -2,7l-6 0z"/>
    </g>
    <g>
     <path class="fil16" d="M3320 2123c6,-21 16,-41 32,-54 0,0 -7,24 -13,54l-19 0z"/>
    </g>
    <g>
     <path class="fil15" d="M3167 2123c9,-37 21,-88 30,-95 0,0 -7,51 -9,95l-21 0z"/>
    </g>
    <g>
     <path class="fil15" d="M3241 2123c7,-29 17,-61 29,-75 0,0 -5,42 -8,75l-21 0z"/>
    </g>
    <g>
     <path class="fil15" d="M3368 2123c7,-27 17,-56 28,-70 0,0 -4,38 -7,70l-20 0z"/>
    </g>
    <g>
     <path class="fil15" d="M3060 2123c-6,-39 -14,-101 -1,-127 0,0 -22,67 -25,127l25 0z"/>
    </g>
    <g>
     <path class="fil16" d="M3163 2123c-12,-19 -29,-37 -52,-46 0,0 17,20 33,46l20 0z"/>
    </g>
    <g>
     <path class="fil14" d="M3302 2123c-11,-19 -28,-37 -53,-50 0,0 15,23 30,50l22 0z"/>
    </g>
   </g>
   <g>
    <g>
     <path class="fil14" d="M3071 2123c-1,-61 -3,-225 12,-272 0,0 -50,111 -42,272l30 0z"/>
    </g>
    <g>
     <path class="fil14" d="M3114 2123l15 -9c0,0 -5,-186 5,-205 0,0 -34,134 -28,214l8 0z"/>
    </g>
    <g>
     <path class="fil14" d="M2876 2123c0,-54 -1,-117 -7,-128 0,0 18,63 27,128l-21 0z"/>
    </g>
    <g>
     <path class="fil15" d="M3198 2123l1 -1 2 -154c0,0 -22,104 -20,155l16 0z"/>
    </g>
    <g>
     <path class="fil16" d="M3006 2123c-1,-37 -3,-149 -21,-180 0,0 0,145 -7,173l10 7 18 0z"/>
    </g>
    <g>
     <path class="fil16" d="M3323 2123c-2,-45 -8,-98 -19,-117 0,0 0,66 -2,117l21 0z"/>
    </g>
    <g>
     <path class="fil16" d="M3151 2123c11,-35 32,-85 67,-103 0,0 -33,52 -47,103l-20 0z"/>
    </g>
    <g>
     <path class="fil16" d="M3150 2123c12,-35 32,-80 66,-97 0,0 -30,48 -45,97l-20 0z"/>
    </g>
    <g>
     <path class="fil15" d="M3104 2123c0,-28 -4,-131 -47,-159 0,0 23,92 25,159l22 0z"/>
    </g>
    <g>
     <path class="fil14" d="M3001 2123c0,-50 5,-127 24,-167 0,0 -5,95 -5,167l-19 0z"/>
    </g>
    <g>
     <path class="fil15" d="M2959 2107c0,0 2,-105 -12,-147 0,0 -1,98 -9,162l13 0 7 -15z"/>
    </g>
    <g>
     <path class="fil14" d="M2965 2123c-10,-34 -29,-77 -65,-103 0,0 26,53 43,103l22 0z"/>
    </g>
    <g>
     <path class="fil14" d="M3289 2123c-7,-32 -25,-97 -72,-130 0,0 36,74 51,130l21 0z"/>
    </g>
    <g>
     <path class="fil14" d="M3214 2123c4,-13 11,-29 25,-44 0,0 -4,20 -6,44l-19 0z"/>
    </g>
    <g>
     <path class="fil16" d="M3201 2123c5,-37 15,-84 37,-108 0,0 -11,52 -18,108l-19 0z"/>
    </g>
    <g>
     <path class="fil15" d="M2930 2123c-7,-46 -25,-151 -35,-163 0,0 9,100 10,163l25 0z"/>
    </g>
    <g>
     <path class="fil15" d="M3124 2123c7,-45 19,-111 35,-137 0,0 -8,97 -10,137l-25 0z"/>
    </g>
    <g>
     <path class="fil15" d="M3248 2123c7,-45 19,-105 33,-129 0,0 -7,85 -9,129l-24 0z"/>
    </g>
    <g>
     <path class="fil15" d="M3025 2123c6,-40 21,-162 5,-207 0,0 28,119 24,207l-30 0z"/>
    </g>
    <g>
     <path class="fil14" d="M2465 2123c1,-56 2,-176 -12,-212 0,0 47,86 43,212l-30 0z"/>
    </g>
    <g>
     <path class="fil14" d="M2677 2123l9 -6c0,0 -5,-238 5,-262 0,0 -33,166 -29,268l15 0z"/>
    </g>
    <g>
     <path class="fil14" d="M2660 2123c0,-52 1,-112 7,-122 0,0 -17,59 -26,122l20 0z"/>
    </g>
    <g>
     <path class="fil15" d="M2755 2123l2 -149c0,0 -20,96 -20,149l18 0z"/>
    </g>
    <g>
     <path class="fil16" d="M2530 2123c1,-42 4,-144 21,-174 0,0 0,145 7,173l-1 1 -27 0z"/>
    </g>
    <g>
     <path class="fil16" d="M2878 2123c-3,-44 -8,-92 -18,-111 0,0 0,61 -2,111l20 0z"/>
    </g>
    <g>
     <path class="fil16" d="M2708 2123c12,-35 32,-80 65,-97 0,0 -30,48 -45,97l-20 0z"/>
    </g>
    <g>
     <path class="fil15" d="M2432 2123c1,-34 7,-127 47,-153 0,0 -22,86 -25,153l-22 0z"/>
    </g>
    <g>
     <path class="fil14" d="M2535 2123c-1,-50 -5,-122 -24,-161 0,0 5,90 5,161l19 0z"/>
    </g>
    <g>
     <path class="fil15" d="M2577 2113c0,0 -2,-105 12,-147 0,0 1,92 8,156l-15 0 -4 -9z"/>
    </g>
    <g>
     <path class="fil14" d="M2844 2123c-8,-34 -27,-93 -70,-124 0,0 34,69 49,124l21 0z"/>
    </g>
    <g>
     <path class="fil14" d="M2772 2123c4,-12 11,-25 23,-38 0,0 -3,17 -6,38l-18 0z"/>
    </g>
    <g>
     <path class="fil16" d="M2757 2123c5,-36 15,-79 36,-102 0,0 -10,49 -17,102l-19 0z"/>
    </g>
    <g>
     <path class="fil15" d="M2607 2123c8,-49 24,-145 34,-157 0,0 -9,94 -10,157l-24 0z"/>
    </g>
    <g>
     <path class="fil15" d="M2680 2123c7,-45 19,-106 34,-131 0,0 -7,88 -9,131l-24 0z"/>
    </g>
    <g>
     <path class="fil15" d="M2805 2123c7,-44 19,-100 32,-123 0,0 -7,78 -9,123l-24 0z"/>
    </g>
    <g>
     <path class="fil15" d="M2510 2123c-6,-45 -20,-158 -4,-201 0,0 -27,113 -25,201l29 0z"/>
    </g>
    <g>
     <path class="fil16" d="M2620 2123c-12,-34 -32,-75 -63,-91 0,0 28,44 43,91l20 0z"/>
    </g>
    <g>
     <path class="fil14" d="M2756 2123c-10,-33 -29,-73 -63,-97 0,0 24,49 41,97l22 0z"/>
    </g>
   </g>
   <g>
    <g>
     <path class="fil14" d="M2431 2123c-1,-62 -2,-217 11,-262 0,0 -46,107 -40,262l28 0z"/>
    </g>
    <g>
     <path class="fil14" d="M2477 2123l9 -5c0,0 -4,-181 4,-200 0,0 -31,127 -27,205l13 0z"/>
    </g>
    <g>
     <path class="fil14" d="M2249 2123c0,-52 -1,-111 -6,-122 0,0 16,59 25,122l-19 0z"/>
    </g>
    <g>
     <path class="fil15" d="M2552 2123l2 -148c0,0 -20,97 -19,148l16 0z"/>
    </g>
    <g>
     <path class="fil16" d="M2370 2123c-1,-39 -4,-143 -19,-172 0,0 0,141 -7,169l5 4 21 0z"/>
    </g>
    <g>
     <path class="fil16" d="M2667 2123c-2,-43 -7,-92 -17,-111 0,0 0,62 -2,111l19 0z"/>
    </g>
    <g>
     <path class="fil16" d="M2507 2123c11,-34 30,-80 62,-97 0,0 -29,49 -43,97l-19 0z"/>
    </g>
    <g>
     <path class="fil16" d="M2506 2123c11,-33 30,-76 60,-91 0,0 -27,45 -42,91l-19 0z"/>
    </g>
    <g>
     <path class="fil15" d="M2462 2123c-1,-31 -5,-126 -44,-152 0,0 21,87 23,152l20 0z"/>
    </g>
    <g>
     <path class="fil14" d="M2365 2123c1,-49 5,-121 22,-159 0,0 -5,90 -5,159l-18 0z"/>
    </g>
    <g>
     <path class="fil15" d="M2327 2111c0,0 2,-103 -11,-143 0,0 -1,92 -8,155l13 0 5 -12z"/>
    </g>
    <g>
     <path class="fil14" d="M2332 2123c-10,-32 -27,-73 -60,-97 0,0 23,49 39,97l21 0z"/>
    </g>
    <g>
     <path class="fil14" d="M2635 2123c-7,-32 -24,-92 -66,-124 0,0 33,70 47,124l19 0z"/>
    </g>
    <g>
     <path class="fil14" d="M2566 2123c4,-12 10,-27 23,-40 0,0 -3,18 -6,40l-17 0z"/>
    </g>
    <g>
     <path class="fil16" d="M2553 2123c5,-36 14,-79 34,-102 0,0 -10,49 -16,102l-18 0z"/>
    </g>
    <g>
     <path class="fil15" d="M2299 2123c-7,-46 -23,-144 -32,-156 0,0 9,94 9,156l23 0z"/>
    </g>
    <g>
     <path class="fil15" d="M2481 2123c7,-44 18,-106 32,-130 0,0 -7,90 -9,130l-23 0z"/>
    </g>
    <g>
     <path class="fil15" d="M2597 2123c7,-43 18,-100 31,-123 0,0 -6,79 -8,123l-22 0z"/>
    </g>
    <g>
     <path class="fil15" d="M2388 2123c6,-42 19,-156 5,-199 0,0 26,113 23,199l-27 0z"/>
    </g>
    <g>
     <path class="fil14" d="M1866 2123c1,-56 1,-169 -12,-203 0,0 43,82 40,203l-28 0z"/>
    </g>
    <g>
     <path class="fil14" d="M2067 2123l4 -3c0,0 -4,-231 4,-255 0,0 -30,158 -27,258l18 0z"/>
    </g>
    <g>
     <path class="fil14" d="M2047 2123c0,-50 1,-106 6,-116 0,0 -15,55 -24,116l18 0z"/>
    </g>
    <g>
     <path class="fil15" d="M2136 2123l2 -142c0,0 -18,90 -19,142l17 0z"/>
    </g>
    <g>
     <path class="fil16" d="M1926 2123c1,-42 4,-138 19,-166 0,0 0,134 6,166l-25 0z"/>
    </g>
    <g>
     <path class="fil16" d="M2251 2123c-2,-42 -7,-87 -17,-105 0,0 0,57 -2,105l19 0z"/>
    </g>
    <g>
     <path class="fil16" d="M2093 2123c11,-33 30,-75 60,-91 0,0 -27,45 -41,91l-19 0z"/>
    </g>
    <g>
     <path class="fil15" d="M1834 2123c1,-35 7,-121 43,-146 0,0 -20,82 -23,146l-20 0z"/>
    </g>
    <g>
     <path class="fil14" d="M1931 2123c-1,-49 -5,-117 -22,-153 0,0 5,85 5,153l17 0z"/>
    </g>
    <g>
     <path class="fil15" d="M1970 2117c0,0 -2,-103 11,-143 0,0 1,87 7,149l-15 0 -3 -6z"/>
    </g>
    <g>
     <path class="fil14" d="M2218 2123c-8,-33 -25,-88 -65,-118 0,0 30,65 45,118l20 0z"/>
    </g>
    <g>
     <path class="fil14" d="M2153 2123c4,-11 10,-23 21,-34 0,0 -3,15 -5,34l-16 0z"/>
    </g>
    <g>
     <path class="fil16" d="M2139 2123c5,-35 14,-74 33,-96 0,0 -9,45 -15,96l-18 0z"/>
    </g>
    <g>
     <path class="fil15" d="M1998 2123c7,-48 22,-139 31,-150 0,0 -8,88 -9,150l-22 0z"/>
    </g>
    <g>
     <path class="fil15" d="M2066 2123c7,-43 18,-101 31,-124 0,0 -7,82 -9,124l-22 0z"/>
    </g>
    <g>
     <path class="fil15" d="M2183 2123c7,-42 17,-95 30,-117 0,0 -6,73 -8,117l-22 0z"/>
    </g>
    <g>
     <path class="fil15" d="M1907 2123c-6,-46 -18,-152 -4,-193 0,0 -24,108 -23,193l27 0z"/>
    </g>
    <g>
     <path class="fil16" d="M2009 2123c-11,-32 -30,-71 -58,-85 0,0 25,41 40,85l19 0z"/>
    </g>
    <g>
     <path class="fil14" d="M2136 2123c-10,-31 -28,-69 -58,-91 0,0 21,45 37,91l21 0z"/>
    </g>
   </g>
   <g>
    <g>
     <path class="fil14" d="M2755 2123c-1,-67 -4,-286 12,-347 0,0 -51,142 -42,347l30 0z"/>
    </g>
    <g>
     <path class="fil14" d="M2790 2119l23 -16c0,0 -5,-231 5,-255 0,0 -35,173 -28,271z"/>
    </g>
    <g>
     <path class="fil14" d="M2560 2123c0,-68 0,-154 -6,-168 0,0 19,84 28,168l-22 0z"/>
    </g>
    <g>
     <path class="fil15" d="M2873 2123l11 -10 2 -192c0,0 -24,142 -19,202l6 0z"/>
    </g>
    <g>
     <path class="fil16" d="M2690 2123c0,-32 -2,-190 -21,-232 0,0 0,180 -7,215l21 17 7 0z"/>
    </g>
    <g>
     <path class="fil16" d="M3007 2123c-2,-58 -7,-129 -19,-155 0,0 0,90 -2,155l22 0z"/>
    </g>
    <g>
     <path class="fil16" d="M2832 2123c10,-43 32,-113 70,-137 0,0 -36,72 -49,137l-20 0z"/>
    </g>
    <g>
     <path class="fil16" d="M2832 2123c11,-44 32,-107 68,-129 0,0 -33,66 -48,129l-20 0z"/>
    </g>
    <g>
     <path class="fil15" d="M2788 2122c0,0 2,-166 -47,-206 0,0 25,123 25,206l21 0 1 -1z"/>
    </g>
    <g>
     <path class="fil14" d="M2684 2123c0,-62 4,-164 24,-216 0,0 -6,126 -5,216l-19 0z"/>
    </g>
    <g>
     <path class="fil15" d="M2643 2095c0,0 2,-131 -12,-182 0,0 -2,131 -10,210l10 0 11 -28z"/>
    </g>
    <g>
     <path class="fil14" d="M2651 2123c-9,-42 -29,-103 -67,-137 0,0 28,72 45,137l22 0z"/>
    </g>
    <g>
     <path class="fil14" d="M2975 2123c-5,-35 -23,-126 -73,-171 0,0 40,101 53,171l20 0z"/>
    </g>
    <g>
     <path class="fil14" d="M2896 2123c3,-18 10,-42 27,-64 0,0 -4,30 -7,64l-20 0z"/>
    </g>
    <g>
     <path class="fil16" d="M2884 2123c4,-48 14,-111 38,-143 0,0 -12,71 -19,143l-19 0z"/>
    </g>
    <g>
     <path class="fil15" d="M2615 2123c-6,-51 -25,-195 -36,-212 0,0 10,134 10,212l26 0z"/>
    </g>
    <g>
     <path class="fil15" d="M2806 2123c7,-56 20,-145 36,-179 0,0 -9,137 -10,179l-26 0z"/>
    </g>
    <g>
     <path class="fil15" d="M2931 2123c7,-56 19,-137 35,-169 0,0 -8,119 -9,169l-25 0z"/>
    </g>
    <g>
     <path class="fil15" d="M2707 2123c5,-37 24,-206 6,-266 0,0 30,156 24,266l-30 0z"/>
    </g>
    <g>
     <path class="fil14" d="M2149 2123c1,-65 3,-225 -12,-272 0,0 49,111 43,272l-30 0z"/>
    </g>
    <g>
     <path class="fil14" d="M2350 2123l19 -17c0,0 -5,-295 5,-325 0,0 -34,216 -28,342l5 0z"/>
    </g>
    <g>
     <path class="fil14" d="M2344 2123c0,-67 1,-147 7,-160 0,0 -18,79 -27,160l21 0z"/>
    </g>
    <g>
     <path class="fil15" d="M2436 2123l3 -3 2 -192c0,0 -22,131 -20,194l14 0z"/>
    </g>
    <g>
     <path class="fil16" d="M2214 2123c0,-44 3,-186 21,-225 0,0 0,180 7,215l-12 10 -16 0z"/>
    </g>
    <g>
     <path class="fil16" d="M2563 2123c-2,-56 -8,-122 -19,-147 0,0 0,83 -2,147l21 0z"/>
    </g>
    <g>
     <path class="fil16" d="M2390 2123c11,-44 32,-107 68,-129 0,0 -33,66 -48,129l-20 0z"/>
    </g>
    <g>
     <path class="fil15" d="M2116 2123c0,-32 4,-164 47,-199 0,0 -24,115 -25,199l-22 0z"/>
    </g>
    <g>
     <path class="fil14" d="M2219 2123c0,-62 -4,-159 -24,-208 0,0 5,119 5,208l19 0z"/>
    </g>
    <g>
     <path class="fil15" d="M2261 2102c0,0 -2,-131 12,-182 0,0 1,123 9,203l-13 0 -8 -20z"/>
    </g>
    <g>
     <path class="fil14" d="M2529 2123c-6,-39 -25,-121 -72,-163 0,0 37,94 51,163l21 0z"/>
    </g>
    <g>
     <path class="fil14" d="M2453 2123c4,-17 11,-37 25,-57 0,0 -4,26 -7,57l-19 0z"/>
    </g>
    <g>
     <path class="fil16" d="M2440 2123c5,-47 15,-105 37,-135 0,0 -11,66 -18,135l-19 0z"/>
    </g>
    <g>
     <path class="fil15" d="M2290 2123c7,-56 25,-188 35,-204 0,0 -10,126 -10,204l-25 0z"/>
    </g>
    <g>
     <path class="fil15" d="M2363 2123c7,-56 19,-139 35,-171 0,0 -8,123 -10,171l-25 0z"/>
    </g>
    <g>
     <path class="fil15" d="M2487 2123c7,-56 19,-131 34,-162 0,0 -7,108 -9,162l-24 0z"/>
    </g>
    <g>
     <path class="fil15" d="M2195 2123c-6,-49 -22,-202 -5,-259 0,0 -28,149 -24,259l30 0z"/>
    </g>
    <g>
     <path class="fil16" d="M2307 2123c-11,-43 -32,-101 -66,-122 0,0 31,61 46,122l20 0z"/>
    </g>
    <g>
     <path class="fil14" d="M2442 2123c-10,-42 -29,-97 -65,-129 0,0 26,67 43,129l22 0z"/>
    </g>
   </g>
  </g>
 </g>
</svg>
