<?xml version="1.0" encoding="UTF-8"?>
<svg viewBox="0 0 402 397" xmlns="http://www.w3.org/2000/svg">
 <path d="m46.414 215.67c18.487-3.747 37.168-6.491 54.904-13.022-16.559 7.1-57.011 16.709-60.564 36.227-1.444 7.933 2.702 18.683 11.887 18.683 31.795 0 72.515-23.366 100.75-39.62-24.403 13.432-71.298 27.951-76.411 56.031 2.581 2.798 6.07 9.235 9.618 11.32 11.56 6.793 26.901-1.366 37.924-7.075 29.726-15.396 55.194-30.668 88.162-37.351 30.533-6.189 60.026-19.142 87.672-33.262 17.456-8.917 14.974-21.227 30.647-4.036 12.853 14.096 14.032 21.003 33.945 19.07 20.177-1.957 11.288-18.8 18.327-28.549 11.204-15.518 11.755-20.974 12.366-40.113 0.324-10.163 5.756-20.161 5.66-28.864-0.152-13.862-15.283-22.927-15.283-36.224 0-9.421-9.614-18.626-20.374-16.419-7.569 1.553-24.784 18.691-30.394 22.466-12.408 8.351-23.451 6.466-37.813 4.425-22.692-3.226-39.413-0.834-61.127 5.375-37.883 10.834-76.289 24.032-115.57 25.368-11.507 0.392-59.108-5.198-66.974 6.611-17.166 25.774 29.983 28.347 44.148 28.019-18.381 5.478-36.766 10.61-55.312 15.506-25.645 6.76-5.932 30.12 3.802 35.42" fill="#CC8F3D"/>
 <path d="m182.26 217.37c15.077 2.413 22.86-16.493 34.524-23.774 14.47-9.032 25.307-10.882 41.808-11.527 14.857-0.581 28.422-3.213 38.003-14.789 10.065-12.163 25.124-9.982 38.487-11.602-7.877 3.12-25.696 1.977-31.004 8.609-11.249 14.059-15.713 16.955-32.39 21.101-18.562 4.614-33.45-0.18-50.941 10.475-8.495 5.175-15.579 13.444-22.513 20.668-17.256 17.98-39.205-8.897-25.598-27.462 10.18-13.888 26.458-24.523 37.36-38.487 6.514-8.342 21.656-39.167 28.301-40.754-6.804 16.449-13.969 28.438-24.907 43.02-10.21 13.61-62.68 53.26-31.13 64.52"/>
 <path d="m395.07 177.75c-4.279 6.163-11.628 13.363-14.149 20.379-4.594 12.783 3.941 11.118-8.969 20.548-16.343 11.937-24.137 3.332-35.018-8.602-2.631-2.886-15.179-19.37-17.746-17.17-7.653 6.557-14.176 12.318-23.095 16.874-18.628 9.515-37.499 16.35-57.177 23.544-16.942 6.194-34.174 9.151-51.88 12.74-16.1 3.264-32.186 16.282-46.669 23.944-18.676 9.88-30.176 16.375-51.086 16.938-3.461 0.094-9.864-10.331-12.302-12.975 4.92-27.02 51.766-43.659 75.842-56.601-6.608 12.374-35.492 25.398-48.843 32.492-14.354 7.626-25.964 15.227-14.567 31.007 2.247 3.111 11.776 0.459 15.866 0.459 12.798 0 31.764-14.389 43.233-20.646 12.828-6.999 25.882-16.944 40.377-19.648 14.905-2.781 29.366-5.469 43.744-9.795 18.666-5.616 37.626-13.427 54.901-22.076 6.379-3.194 12.979-6.217 18.42-10.669 2.271-1.86 13.97-13.405 15.801-11.306 4.015 4.604 12.74 19.518 18.419 21.123 19.864 5.616 11.728-16.82 17.829-22.92 3.819-3.818 9.968-9.147 11.6-12.732 6.088-13.372-1.307-24.69-1.128-36.791 0.078-5.286 3.92-10.526 3.958-15.853 0.082-11.54-14.128-23.837-9.618-32.258-10.619-4.811-23.728 9.026-32.263 14.711-9.639 6.419-23.086 1.779-34.123 0.553-38.763-4.306-78.68 10.678-116.44 20.108-9.175 2.292-17.527 7.208-26.601 9.339-22.011 5.17-48.603 2.124-71.206 2.883-17.615 0.591-41.639 7.176-15.062 22.817 16.239 9.557 43.033 1.131 61.361 4.861-18.945 2.935-79.996 10.268-76.705-20.979 2.023-19.208 78.465-12.271 92.094-12.734 26.005-0.884 57.998-15.382 83.572-21.59 13.937-3.383 25.924-9.723 40.274-10.351 12.99-0.568 27.183 0.576 39.908 3.112 20.183 4.021 39.111-9.678 53.204-23.771 4.663-4.663 25.186-2.937 25.186 4.812 0 15.042 6.446 22.353 11.887 35.945 5.43 13.51-0.85 44.84-2.81 60.3"/>
 <path d="m143.77 188.5c-31.834 9.307-60.342 21.545-90.317 35.646-12.851 6.045-20.092 33.413-0.811 33.413 30.489 0 74.909-21.357 100.18-40.189-14.332 7.339-97.758 52.203-106.97 28.3-10.742-27.87 83.95-42.43 97.92-57.17"/>
 <path d="m145.46 188.5c-0.4 0.674-1.805 2.438-0.564 1.703-30.171 9.278-83.407 35.322-110.6 17.921-27.9-17.851 30.616-33.653 37.021-35.465 23.907-6.762 44.178-10.294 69.049-12.459-11.227 5.984-26.45 4.118-39.051 6.799-14.933 3.177-49.056 10.313-59.495 19.011-10.578 8.813-8.71 22.799 5.724 25.7 10.801 2.171 30.132-5.129 41.041-8.039 18.96-5.06 37.92-10.11 56.87-15.17"/>
 <path d="m357.72 83.223c4.688-6.396 25.185-8.601 24.817 1.26-0.568 15.255 7.496 21.256 12.612 35.214 3.19 8.704-2.882 14.977-3.009 24.277-0.154 11.253 3.423 28.396-3.378 37.814-3.661 5.07-7.321 10.14-10.981 15.21-2.55 3.531 2.346 9.789 0.313 13.013-3.775 5.985-11.88 8.206-18.108 9.054-8.654 1.178-12.748 1.337-17.55-7.356 3.604-1.396 15.619-3.708 17.55-6.793 2.575-4.117-3.343-12.505 0.479-16.326 13.544-13.542 13.674-18.361 15.775-37.699 0.547-5.025-4.249-9.559-4.37-14.459-0.144-5.819 4.527-11.717 4.527-17.544 1e-3 -12.35-16.104-23.81-9.623-33.396-2.71-0.22-7.4-2.291-9.06-2.261" fill="#7A8F3D"/>
 <path d="m378.09 121.15c-1.046 3.124-1.557 8.251-3.395 11.89 5.138-1.141 7.089-5.901 6.794-11.89-1.38 0.67-2.37 0.17-3.4 0"/>
 <path d="m375.26 135.87c-0.024 3.191 1.833 7.315 2.83 10.181 1.133-0.188 2.267-0.375 3.399-0.563-0.6-5.76-2.57-9.81-6.23-9.62"/>
 <path d="m378.66 148.88c-0.854 3.541 0 8.235 0 11.89 1.131 0.19 2.263 0.379 3.394 0.569 1.66-6.06 0.76-11.1-3.39-12.46"/>
 <path d="m378.09 163.6c-1.303 3.446-1.009 8.283-1.697 11.89 4.767-0.782 5.876-5.644 5.097-11.32-1.25 0.25-3.07-0.48-3.4-0.57"/>
 <path d="m374.7 177.75c-2.031 2.114-3.832 5.158-6.224 7.357 0.565 0.755 1.132 1.511 1.697 2.266 2.72-1.625 6.112-5.31 7.921-7.926-1.14-0.57-2.27-1.14-3.4-1.7"/>
 <path d="m368.48 189.64c-6.79-2.06-9.487 6.296-2.83 11.32-2.1-5.99 0.55-7.11 2.83-11.32"/>
 <path d="m362.24 202.65c7.729 4.364-0.644 9.324-6.793 6.799 5.91-0.98 4.69-4.32 6.79-6.8"/>
 <path d="m353.19 210.58c-2.535 0.801-4.473 2.019-7.357 2.267 5.57 2.58 7.82 2.18 7.36-2.27"/>
 <path d="m315.27 112.09c-2.074 0.567-4.149 1.135-6.224 1.703 8.944-5.818 20.462-2.915 30.561-7.926-3.006 0.96-5.693 3.59-8.489 5.096 1.749 0.969 3.829 2.71 5.659 3.394-7.18-2.82-13.54-3.13-21.51-2.26"/>
 <path d="m323.19 183.98c-5.435 2.878-12.237 4.114-18.113 2.261 6-0.4 16.16-4.04 18.11-2.26"/>
 <path d="m330.55 130.77c-6.63-0.954-13.31 0.521-18.677 3.394 6.16-1.24 17.02-0.68 18.68-3.39"/>
 <path d="m378.09 117.75c-0.354 0.053 5.181 0 2.83 0 0.739-5.647-0.308-10.399-5.091-11.32 0.82 2.77 2.24 11.24 2.26 11.32"/>
 <path d="m375.26 104.17c4.528-1.884 2.143-6.195-2.83-10.75-0.943 0.564-1.887 1.127-2.83 1.691 3.19 2.516 4.58 7.539 5.66 9.059"/>
 <path d="m368.48 92.847c-0.423-2.474-2.694-5.457 2.83-7.921 0.027 2.446-0.046 5.132 0 6.788-0.68 0.863-3.01 1.272-2.83 1.133"/>
 <path d="m320.36 168.12c-3.505 1.623-6.813 3.784-10.192 5.66 10.444-4.178 20.794-5.139 31.13 0.564-3.905-1.356-7.587-3.872-11.32-5.66 2.409-0.605 5.34-1.913 7.927-2.261-5.87-0.07-12.18 1.01-17.55 1.7"/>
 <path d="m315.27 127.38c4.611-1.506 9.318-2.071 14.15-1.703-3.79 1.1-10.25 1.9-14.15 1.7"/>
 <path d="m314.14 122.84c4.574-1.756 9.699-2.188 14.15-1.127-4.45 0.68-10.52 1.44-14.15 1.13"/>
 <path d="m312.44 117.18c4.533-1.758 9.742-2.205 14.15-1.128-4.61 0.59-10.4 1.33-14.15 1.13"/>
 <path d="m318.1 137.56c4.931-1.613 9.94-2.233 14.714-1.128-5.53 0.86-9.7 1.4-14.71 1.13"/>
 <path d="m320.93 142.09c4.705-1.846 9.944-2.204 14.714-1.133-4.86 0.73-10.07 1.54-14.71 1.13"/>
 <path d="m320.36 147.75c4.793-2.256 9.677-2.721 14.714-1.703-4.55 0.99-9.67 1.64-14.71 1.7"/>
 <path d="m322.06 152.28c4.574-1.753 9.696-2.187 14.15-1.133-4.45 0.67-10.53 1.43-14.15 1.13"/>
 <path d="m317.53 175.49c5.22 1.074 9.871 0.411 14.15-2.267-4.9 0.8-9.21 1.6-14.15 2.27"/>
 <path d="m320.36 163.03c5.395 1.02 10.877 0.126 14.714-2.261-5.01 0.74-9.58 1.7-14.71 2.26"/>
 <path d="m315.83 180.58c5.192 0.922 9.808 0.264 14.15-2.261-5.18 0.46-9.05 1.26-14.15 2.26"/>
 <path d="m323.76 182.84c1.959 1.745 4.422 4.157 6.224 5.66-3.99-1.85-6.07-5.44-6.22-5.66"/>
 <path d="m329.98 131.33c2.605-1.206 5.287-2.263 7.927-3.394-1.768 0.912-3.314 2.274-5.097 3.394 3.67 0.367 7.919 1.637 11.32 1.703-4.77-0.29-11.03-0.55-14.15-1.7"/>
 <path d="m358.85 81.526c4.362 1.43 7.609 2.55 11.884 1.133-4.86-3.558-7.86-2.801-11.88-1.133"/>
 <path d="m385.46 95.677c-1.806 0.564-4.69 2.462-7.362 2.83 3.079 0.844 6.978 1.069 10.192 1.133-0.64-0.886-2.11-3.156-2.83-3.963"/>
 <path d="m380.92 134.16c4.966-0.098 9.779-0.295 14.719-0.564-1.32 6.77-8.92 2.41-14.72 0.56"/>
 <path d="m380.92 175.49c4.371 0.281 9.108 0.938 13.586 1.127-1.97 5.7-8.31 1.54-13.59-1.13"/>
 <path d="m383.75 126.81c5.833-0.848 11.627-3.973 14.149 0-4.62 0.73-9.78 0.73-14.15 0"/>
 <path d="m368.48 194.16c5.817 0.626 13.116 1.346 11.32 6.799-3.53-2.15-8.5-4.91-11.32-6.8"/>
 <path d="m367.9 204.35c3.597 0.838 7.569 3.074 11.32 3.958-2.56 5.31-7.75 0.15-11.32-3.96"/>
 <path d="m383.19 86.617c-1.357 5.592-0.119 10.412 3.963 14.15-1.37-4.699-2.8-9.437-3.96-14.153"/>
 <path d="m32.827 256.99c15.604-10.57 31.811-20.136 45.281-33.391-8.697 9.256-46.549 40.045-43.048 52.886 2.927 10.734 8.5 19.861 19.844 17.011 25.267-6.348 62.418-53.257 76.975-75.557-12.444 18.101-71.7 69.792-40.185 85.465 20.703 10.296 39.514-21.638 50.623-35.213 8.723-10.661 17.966-27.704 29.32-35.453 12.129-8.278 26.179-15.69 36.936-25.701 24.172-22.494 49.47-43.184 65.145-72.702 4.994-9.407 26.544 6.508 35.237 11.191 10.489 5.65 30.585-9.277 31.219-21.547 0.342-6.616-6.926-9.167-4.994-16.713 1.343-5.244 6.514-15.861 4.365-21.018-3.901-9.365-8.503-18.398-11.26-27.929-3.082-10.652-1.122-19.801-9.054-27.731-6.095-6.093-9.437-9.507-17.566-13.354-4.366-2.066-3.249-10.979-6.771-13.813-6.005-4.832-18.297-4.351-24.906 1.127-15.206 12.604-14.011 36.596-36.791 44.153-12.138 4.027-24.245 6.61-35.942 11.602-14.242 6.079-24.137 12.787-35.375 24.055-18.567 18.616-43.459 30.218-62.553 48.551-20.529 19.711-55.783 23.12-79.516 38.611-13.188 8.608-16.52 21.592 1.133 27.736 12.456 4.335 28.036-3.696 39.057-9.054-12.674 10.617-35.864 23.547-45.28 36.791-13.11 18.4 1.887 30.21 18.086 29.99" fill="#CC8F3D"/>
 <path d="m158.48 206.62c14.194-3.564 15.425-22.539 21.667-33.895 7.024-12.776 17.707-20.591 30.406-26.391 11.615-5.304 28.805-12.479 32.744-25.377 5.886-19.269 15.737-21.2 33.48-30.939-7.334 4.917-21.135 11.465-26.04 18.677-9.637 14.167-3.585 21.857-19.522 31.415-16.2 9.715-32.241 14.322-43.866 29.718-5.11 6.768-8.38 14.167-11.649 22.219-10.07 24.802-44.445 21.366-37.031-8.069 4.244-16.847 15.174-32.643 19.811-49.813 2.776-10.279 4.533-43.951 10.187-48.674-0.834 17.853-1.671 31.387-6.224 49.238-4.63 18.16-37.79 68.85-3.97 71.9"/>
 <path d="m339.6 87.187c-2.862 14.002-6.43 22.086-0.314 34.933 4.5 9.455-14.558 21.1-20.912 24.807-6.8 3.967-17.006-5.634-23.559-8.669-19.172-8.881-17.628-10.467-27.514 8.152-23.477 44.211-76.386 62.385-106.46 99.134-10.842 13.249-56.939 85.364-77.081 52.764-11.899-19.259 33.835-64.937 47.547-80.368-1e-3 0.017 0.978 1.683 1.133 1.691-6.982 8.853-12.906 18.436-19.247 27.736-6.453 9.466-20.157 20.521-24.337 30.566-9.09 21.848 12.035 26.605 26.034 15.848 14.68-11.28 28.018-32.924 39.434-47.244 17.854-22.396 42.655-33.143 62.682-53.17 13.539-13.539 28.144-25.488 39.955-40.519 6.207-7.899 10.503-15.492 15.3-24.606 3.806-7.229 8.658-1.057 15.265 2.245 11.727 5.862 11.44 7.813 21.454-0.462 8.215-6.789-3.349-13.917 0.62-23.873 4.002-10.043 5.076-13.372 1.98-24.058-3.083-10.647-9.644-17.076-13.302-26.606-2.038-5.308-1.308-10.185-3.963-15.278-4.714-9.04-19.848-14.422-19.241-23.204-14.097-0.062-16.239 19.768-24.906 27.731-6.981 6.415-15.894 7.371-25.426 10.255-39.412 11.923-68.603 38.99-101.36 63.326-8.59 6.381-15.942 12.523-23.489 20.092-13.981 14.021-42.808 20.743-60.672 28.815-8.411 3.801-46.95 25.009-14.932 28.365 21.736 2.278 42.542-14.032 63.436-18.975-16.518 10.493-68.985 40.401-78.925 10.567-6.028-18.092 68.519-42.271 80.241-47.694 23.693-10.961 47.463-35.894 68.888-51.338 10.937-7.884 18.565-20.379 31.677-24.737 13.111-4.358 27.126-8.468 39.903-13.583 15.359-6.151 17.701-7.491 27.352-22.253 3.457-5.289 7.899-16.707 12.556-21.328 6.567-6.517 18.17-8.705 25.471-2.83 3.522 2.834 2.405 11.746 6.771 13.813 7.749 3.667 13.979 7.63 18.699 15.052 8.6 13.511 14.19 40.005 19.25 54.911"/>
 <path d="m112.07 194.73c-25.033 19.839-45.483 40.945-66.872 64.588-11.134 12.307-12.849 34.464 6.877 34.464 19.043 0 33.005-23.638 45.28-36.222 12.068-12.371 25.691-24.592 33.96-39.62-11.732 11.501-68.751 85.338-87.167 67.352-21.087-20.59 60.367-73.15 67.917-90.56"/>
 <path d="m113.2 193.6c-0.421 12.534-74.031 64.958-85.583 62.967-38.766-6.684-4.715-36.042 10.393-47.989 19.741-15.611 37.509-26.998 59.908-38.746-6.425 7.509-21.608 14.33-31.694 20.938-16.273 10.662-31.677 25.752-47.089 38.229-14.071 11.392-0.372 26.383 13.129 24.031 11.413-1.988 27.164-17.579 36.808-25.007 14.094-10.86 32.848-23.04 44.128-34.42"/>
 <path d="m268.85 14.739c1.603-8.248 20.245-17.408 23.437-8.546 4.953 13.749 12.543 13.846 21.5 24.083 8.555 9.776 5.466 15.91 9.928 27.147 4.158 10.471 14.004 24.963 11.371 36.287-1.408 6.056-2.816 12.112-4.225 18.168-0.982 4.226 6.493 7.861 5.91 11.53-1.029 6.475-8.294 12.813-13.58 15.853-7.771 4.469-11.067 5.417-19.247 0 2.787-2.565 13.622-9.53 14.15-13.022 0.717-4.734-8.31-10.006-6.206-14.964 7.596-17.899 5.869-22.383 0.39-41.353-1.424-4.933-8-7.084-10.03-11.604-2.388-5.316 7e-3 -12.735-2.267-18.108-4.689-11.083-24.003-15.365-22.071-26.604-2.78 0.344-6.48 0.031-9.05 1.128" fill="#7A8F3D"/>
 <path d="m302.25 41.906c-0.186 3.345 1.268 8.34 1.696 11.89 3.73-3.445 4.27-13.781-1.7-11.89"/>
 <path d="m305.08 56.625c2.191 5.138 5.265 8.113 9.623 6.224-1.152-2.618-4.483-6.806-6.793-8.49-0.69 1.442-2.73 2.196-2.83 2.266"/>
 <path d="m313.57 67.376c0.706 5.498 3.065 10.418 7.921 10.187-0.97-5.374-3.64-9.748-7.92-10.187"/>
 <path d="m318.66 81.526c0.063 3.18 1.962 7.497 2.83 10.751 0.943-0.188 1.887-0.376 2.83-0.564 0.214-3.01-0.914-8.62-2.261-11.32-1.13 0.378-2.27 0.755-3.4 1.133"/>
 <path d="m320.93 95.107c-1.158 2.95-1.833 6.642-2.83 9.628 0.756 0.376 1.511 0.752 2.267 1.128 3.33-4.57 5.44-9.251 0.56-10.763"/>
 <path d="m319.23 108.69c-6.881 0.931-4.993 9.539 2.261 11.884-3.26-4.95-2.13-8.02-2.26-11.88"/>
 <path d="m318.66 122.84c8.41 1.087 4.189 8.499-2.83 9.054 5.18-3.82 2.55-5.94 2.83-9.05"/>
 <path d="m313.57 133.6c-1.741 1.688-3.371 4.145-5.659 5.66 5.008 0.061 4.408-0.402 9.054-3.963-1.38-0.18-2.76-1.02-3.39-1.7"/>
 <path d="m240.55 57.753l-5.091 3.963c5.905-9.116 17.982-10.421 25.47-18.677-2.485 2.08-4.109 5.453-6.229 7.926 2.17 0.033 5.008 0.675 6.793 0.564-7.15 0.395-14.61 2.4-20.94 6.224"/>
 <path d="m275.65 121.15c-3.954 4.628-9.578 7.89-15.283 9.06 5.16-2.76 13.04-9.72 15.28-9.06"/>
 <path d="m262.06 69.073c-6.548 1.898-12.349 5.163-15.847 10.756 4.71-3.9 14.97-7.904 15.85-10.756"/>
 <path d="m301.12 38.506c3.237-2.535-1.263-11.152-6.793-9.054 1.72 2.684 5.68 8.256 6.79 9.054"/>
 <path d="m293.19 27.187c3.827-2.665-0.782-6.065-6.788-8.49l-2.266 2.266c4.08 1.228 5.92 4.494 9.06 6.224"/>
 <path d="m282.44 19.266c-1.305-1.825-4.459-3.398-0.569-7.921 1.118 2.439 1.841 4.347 2.83 6.224-0.01 0.037-2.53 3.539-2.26 1.697"/>
 <path d="m267.16 107.57c-2.558 2.921-4.908 6.04-7.357 9.054 8.166-7.907 16.623-12.559 28.864-11.32-4.066 0.211-8.384-0.858-12.453-1.133 2.223-1.6 3.932-3.727 6.229-5.09-5.23 2.35-10.67 5.28-15.28 8.49"/>
 <path d="m246.78 71.903c3.634-3.662 7.656-5.892 12.447-6.788-4.02 2.672-8 4.963-12.45 6.788"/>
 <path d="m243.95 68.509c3.384-3.879 7.517-6.187 12.447-6.793-4.12 2.411-8.14 4.608-12.45 6.793"/>
 <path d="m239.99 63.977c3.298-3.773 7.89-6.164 12.454-7.352-3.34 2.717-8.75 5.653-12.45 7.352"/>
 <path d="m253.01 80.393c3.627-3.669 8.479-6.108 13.017-7.357-3.66 2.871-8.45 5.462-13.02 7.357"/>
 <path d="m257.53 83.223c3.846-3.543 8.045-5.786 13.017-6.788-3.55 2.295-9.86 5.707-13.02 6.788"/>
 <path d="m259.23 88.32c3.699-3.398 7.85-5.742 12.453-6.793-3.32 2.531-9.27 5.75-12.45 6.793"/>
 <path d="m262.63 92.277c3.638-3.657 7.663-5.889 12.453-6.788-3.23 2.419-10.09 5.938-12.45 6.788"/>
 <path d="m267.16 115.49c5.096-1.072 9.19-3.555 12.453-7.357-4.15 2.01-8.42 4.94-12.45 7.36"/>
 <path d="m265.46 102.47c5.24-1.029 9.214-3.343 11.884-7.362-3.87 2.399-8.93 5.522-11.88 7.362"/>
 <path d="m267.72 120.58c4.908-1.006 9.139-3.606 11.89-7.352-3.99 2.4-7.94 4.84-11.89 7.35"/>
 <path d="m276.21 119.45c1.829 0.787 4.965 2.554 7.362 3.394-4.5-0.13-6.83-2.95-7.36-3.39"/>
 <path d="m261.5 69.637c2.024-2.121 4.15-4.15 6.224-6.224-0.904 1.049-2.264 3.561-3.394 5.096 3.522-0.849 7.39-1.3 10.756-2.83-4.61 2.255-10.34 4.494-13.59 3.958"/>
 <path d="m269.42 12.472c4.572-0.093 7.833 0.025 11.32-2.83-5.59-1.032-10.1-0.135-11.32 2.83"/>
 <path d="m299.42 15.866c-1.537 1.101-3.757 3.418-5.66 5.096 2.832-0.343 6.948-1.813 9.623-2.83-1-0.566-2.93-1.774-3.96-2.266"/>
 <path d="m309.61 52.657c4.67-1.616 9.286-4.014 13.587-6.224 0.4 7.318-8.04 5.863-13.59 6.224"/>
 <path d="m326.02 90.586c3.616-0.64 9.141-2.321 13.017-3.969-0.37 6.335-8.05 4.742-13.02 3.969"/>
 <path d="m309.61 44.736c4.936-3.214 9.585-8.538 13.018-5.091-4.02 2.099-9.28 4.147-13.02 5.091"/>
 <path d="m321.49 112.66c4.238-0.895 8.802-0.92 13.023-1.697-0.075 1.291-0.069 2.667 0 3.958-4.13-0.52-9.7-1.3-13.02-2.26"/>
 <path d="m324.89 122.84c3.803-1.005 8.475-0.626 12.454-0.563-0.16 0.953-0.149 2.439 0 3.394-3.97-0.58-8.72-1.24-12.45-2.83"/>
 <path d="m97.354 144.36c-0.685 10.729 3.451 15.023 6.793 24.332 1.527 4.254 0.014 10.99 3.497 14.141 4.028 3.644 8.323 7.083 10.653 11.329 2.349 4.279 1.581 10.959 4.527 14.72 2.984 3.81 13.458 11.562 18.114 15.283 8.678 6.936 14.476 5.7 26.604 3.958-20.476-2.844-36.552-11.143-44.422-31.61-3.602-9.366-11.456-14.898-14.697-24.611-3.12-9.36-7.86-18.15-11.066-27.54"/>
 <path d="m223.01 261.52c2.743 6.735 8.206 13.1 3.394 19.246-1.885-6.352-6.997-14.211-2.83-18.683" fill="none" stroke="#000" stroke-linecap="square" stroke-miterlimit="10" stroke-width=".2"/>
 <path d="m241.69 264.35c-7.41-1.277-14.623-4.982-20.374 0.563 6.79 1.09 16.57 5.24 20.37-0.56" fill="#fff"/>
 <path d="m241.69 264.35c-7.41-1.277-14.623-4.982-20.374 0.563 6.79 1.09 16.57 5.24 20.37-0.56" fill="none" stroke="#fff" stroke-linecap="square" stroke-miterlimit="10"/>
 <path d="m228.1 277.93c-7.033-1.353-12.396-4.254-18.108 0 6.59 0.94 15.75 4.51 18.11 0" fill="#fff"/>
 <path d="m228.1 277.93c-7.033-1.353-12.396-4.254-18.108 0 6.888 0.982 14.199 4.492 18.678 0" fill="none" stroke="#fff" stroke-linecap="square" stroke-miterlimit="10"/>
 <path d="m254.14 254.73c-7.034-1.896-12.262-5.403-18.113-1.139 6.44 1.15 14.12 5.97 18.11 1.14" fill="#fff"/>
 <path d="m254.14 254.73c-7.034-1.896-12.262-5.403-18.113-1.139 6.535 1.163 13.18 5.258 18.113 1.703" fill="none" stroke="#fff" stroke-linecap="square" stroke-miterlimit="10"/>
 <path d="m220.18 289.82c-7.425 0-13.492-2.28-17.55 3.964 6.94-0.43 14.46 1.12 17.55-3.96" fill="#fff"/>
 <path d="m220.18 289.82c-7.425 0-13.492-2.28-17.55 3.964 6.94-0.43 14.46 1.12 17.55-3.96" fill="none" stroke="#fff" stroke-linecap="square" stroke-miterlimit="10"/>
 <path d="m213.39 303.97c-7.531 0.278-13.539-1.521-18.113 4.533 6.84-0.65 15.03 1.63 18.11-4.53" fill="#fff"/>
 <path d="m213.39 303.97c-7.531 0.278-13.539-1.521-18.113 4.533 6.62-0.63 14.461 1.355 18.113-3.969" fill="none" stroke="#fff" stroke-linecap="square" stroke-miterlimit="10"/>
 <path d="m267.16 247.93c-6.165-3.751-10.224-8.538-16.98-6.224 5.94 3.42 13.13 9.52 16.98 6.22" fill="#fff"/>
 <path d="m283 243.41c-5.525-4.976-8.534-10.55-15.847-9.059 5.22 3.69 10.09 11.17 15.85 9.06" fill="#fff"/>
 <path d="m283 243.41c-5.525-4.976-8.534-10.55-15.847-9.059 5.22 3.69 10.09 11.17 15.85 9.06" fill="none" stroke="#fff" stroke-linecap="square" stroke-miterlimit="10"/>
 <path d="m297.15 238.31c-5.526-4.976-8.534-10.554-15.847-9.054 5.2 3.99 10.23 11.12 15.85 9.05" fill="#fff"/>
 <path d="m297.15 238.31c-5.526-4.976-8.534-10.554-15.847-9.054 5.13 3.944 9.582 10.401 15.847 9.617" fill="none" stroke="#fff" stroke-linecap="square" stroke-miterlimit="10"/>
</svg>
