<?xml version="1.0" encoding="UTF-8"?>
<svg version="1.1" viewBox="0 0 500 542.43" xmlns="http://www.w3.org/2000/svg" xmlns:xlink="http://www.w3.org/1999/xlink">
 <defs>
  <linearGradient id="a">
   <stop stop-color="#ececec" offset="0"/>
   <stop stop-color="#808080" offset="1"/>
  </linearGradient>
  <linearGradient id="an">
   <stop stop-color="#808080" offset="0"/>
   <stop offset="1"/>
  </linearGradient>
  <linearGradient id="ao">
   <stop stop-color="#ccc" offset="0"/>
   <stop stop-color="#808080" offset="1"/>
  </linearGradient>
  <linearGradient id="ap">
   <stop stop-color="#1a1a1a" offset="0"/>
   <stop stop-color="#ccc" offset="1"/>
  </linearGradient>
  <radialGradient id="ba" cx="338.44" cy="595.48" r="35.586" gradientTransform="matrix(1.39 0 0 .052832 -150.57 518.84)" gradientUnits="userSpaceOnUse" xlink:href="#a"/>
  <radialGradient id="bb" cx="393.04" cy="668.38" r="65.5" gradientTransform="matrix(4.5159 .76141 -.89535 5.3399 -663.96 -3099.7)" gradientUnits="userSpaceOnUse" xlink:href="#ap"/>
  <radialGradient id="bc" cx="325.41" cy="608.59" r="36.5" gradientTransform="matrix(.9569 .36398 -.56104 1.4832 388.33 -459.74)" gradientUnits="userSpaceOnUse" xlink:href="#a"/>
  <radialGradient id="bd" cx="425.59" cy="622.09" r="20.622" gradientTransform="matrix(2.819 .20594 -.36713 5.0535 -394.36 -2616.2)" gradientUnits="userSpaceOnUse" xlink:href="#ao"/>
  <radialGradient id="be" cx="308.12" cy="674.36" r="66.5" gradientTransform="matrix(2.8265 0 0 .10656 -627.6 702.02)" gradientUnits="userSpaceOnUse">
   <stop stop-color="#e6e6e6" offset="0"/>
   <stop stop-color="#4d4d4d" offset="1"/>
  </radialGradient>
  <radialGradient id="bf" cx="344.07" cy="545.16" r="20.5" gradientTransform="matrix(.72815 .051667 -.011081 .15616 97.128 450.65)" gradientUnits="userSpaceOnUse" xlink:href="#an"/>
  <radialGradient id="bg" cx="313.08" cy="554.43" r="1.5" gradientTransform="matrix(.38112 7.474e-6 -4.9748e-5 2.5369 194.35 -852.74)" gradientUnits="userSpaceOnUse" xlink:href="#an"/>
  <filter id="bs" x="-.030285" y="-.019876" width="1.0606" height="1.0398" color-interpolation-filters="sRGB">
   <feGaussianBlur stdDeviation="0.2809007"/>
  </filter>
  <filter id="bu" x="-.14256" y="-.088494" width="1.2851" height="1.177" color-interpolation-filters="sRGB">
   <feGaussianBlur stdDeviation="0.52162145"/>
  </filter>
  <filter id="bv" x="-.12588" y="-.077585" width="1.2518" height="1.1552" color-interpolation-filters="sRGB">
   <feGaussianBlur stdDeviation="0.47204152"/>
  </filter>
  <clipPath id="bm">
   <path d="m319 596.38c0.17113 1.1338-1.8149 2.5485-3 3-26.675 10.163-14.298 44.227-26 73l130-0.0312c-11.702-28.773 0.67522-62.837-26-73-1.1851-0.45148-3.1711-1.8662-3-3z" fill="url(#h)"/>
  </clipPath>
  <radialGradient id="h" cx="393.04" cy="668.38" r="65.5" gradientTransform="matrix(1.5977 .26863 -.31677 1.884 -12.865 -692.28)" gradientUnits="userSpaceOnUse" xlink:href="#ap"/>
  <radialGradient id="bi" cx="439.6" cy="598.65" r="3.495" gradientTransform="matrix(4.9405 .22006 -.17711 3.9983 -1451.7 -1930.7)" gradientUnits="userSpaceOnUse">
   <stop offset="0"/>
   <stop stop-color="#666" offset="1"/>
  </radialGradient>
  <filter id="ay" x="-.18204" y="-.10354" width="1.3641" height="1.2071" color-interpolation-filters="sRGB">
   <feGaussianBlur stdDeviation="2.5711547"/>
  </filter>
  <clipPath id="bn">
   <path d="m383 554.11a0.75008 0.75008 0 1 0 0 1.5s11.018 0.0421 17.746 2.457c1.2692 0.45555 2.0907 1.184 2.6484 2.166 0.5577 0.98199 0.83517 2.2436 0.86524 3.707 0.0601 2.9268-0.88715 6.6151-2.2051 10.189-2.6359 7.1488-6.6953 13.842-6.6953 13.842a0.75008 0.75008 0 1 0 1.2812 0.77929s4.1188-6.7694 6.8223-14.102c1.3518-3.6661 2.364-7.4724 2.2969-10.74-0.0336-1.6339-0.34087-3.1454-1.0625-4.416-0.72164-1.2706-1.8732-2.2743-3.4434-2.8379-7.2023-2.5851-18.254-2.5449-18.254-2.5449z" color="#000000" color-rendering="auto" fill="#4d4d4d" image-rendering="auto" shape-rendering="auto" solid-color="#000000" style="block-progression:tb;isolation:auto;mix-blend-mode:normal;text-decoration-color:#000000;text-decoration-line:none;text-decoration-style:solid;text-indent:0;text-transform:none;white-space:normal"/>
  </clipPath>
  <filter id="az" x="-.039831" y="-.025643" width="1.0797" height="1.0513" color-interpolation-filters="sRGB">
   <feGaussianBlur stdDeviation="0.36850491"/>
  </filter>
  <clipPath id="bo">
   <path d="m327 554.11s-11.052-0.0402-18.254 2.5449c-1.5702 0.56357-2.7217 1.5672-3.4434 2.8379-0.72163 1.2706-1.0289 2.7821-1.0625 4.416-0.0671 3.2678 0.94513 7.0742 2.2969 10.74 2.7035 7.3321 6.8223 14.102 6.8223 14.102a0.75008 0.75008 0 1 0 1.2812 -0.77929s-4.0594-6.693-6.6953-13.842c-1.3179-3.5744-2.2652-7.2626-2.2051-10.189 0.0301-1.4634 0.30754-2.725 0.86524-3.707s1.3792-1.7105 2.6484-2.166c6.7281-2.4149 17.746-2.457 17.746-2.457a0.75008 0.75008 0 1 0 0 -1.5z" color="#000000" color-rendering="auto" fill="#4d4d4d" image-rendering="auto" shape-rendering="auto" solid-color="#000000" style="block-progression:tb;isolation:auto;mix-blend-mode:normal;text-decoration-color:#000000;text-decoration-line:none;text-decoration-style:solid;text-indent:0;text-transform:none;white-space:normal"/>
  </clipPath>
  <clipPath id="bp">
   <path d="m314.48 585.78c-1.4255 0.15839-2.5121 1.2015-3.6894 2.3789-2.3548 2.3548-4.6152 5.6387-4.6152 5.6387a1.0001 1.0001 0 1 0 1.6445 1.1387s2.2395-3.218 4.3848-5.3633c1.0726-1.0726 2.2361-1.7775 2.498-1.8066 0.13098-0.0145-0.0339-0.10794 0.0508 0.0332s0.24414 0.66016 0.24414 1.5664v12a1.0001 1.0001 0 1 0 2 0v-12c0-1.0938-0.12179-1.9165-0.5293-2.5957-0.4075-0.67917-1.2755-1.0694-1.9883-0.99023z" color="#000000" color-rendering="auto" image-rendering="auto" shape-rendering="auto" solid-color="#000000" style="block-progression:tb;isolation:auto;mix-blend-mode:normal;text-decoration-color:#000000;text-decoration-line:none;text-decoration-style:solid;text-indent:0;text-transform:none;white-space:normal"/>
  </clipPath>
  <clipPath id="bq">
   <path d="m395.52 585.78c-0.71277-0.0792-1.5808 0.31106-1.9883 0.99023-0.40751 0.67918-0.5293 1.502-0.5293 2.5957v12a1.0001 1.0001 0 1 0 2 0v-12c0-0.90625 0.15946-1.4253 0.24414-1.5664 0.0847-0.14114-0.0802-0.0478 0.0508-0.0332 0.26197 0.0291 1.4254 0.73402 2.498 1.8066 2.1452 2.1452 4.3848 5.3633 4.3848 5.3633a1.0001 1.0001 0 1 0 1.6445 -1.1387s-2.2605-3.2839-4.6152-5.6387c-1.1774-1.1774-2.2639-2.2205-3.6894-2.3789z" color="#000000" color-rendering="auto" image-rendering="auto" shape-rendering="auto" solid-color="#000000" style="block-progression:tb;isolation:auto;mix-blend-mode:normal;text-decoration-color:#000000;text-decoration-line:none;text-decoration-style:solid;text-indent:0;text-transform:none;white-space:normal"/>
  </clipPath>
  <clipPath id="br">
   <path d="m152 42.013c-14.44 4.1595-16.998 19.821-18.139 35.786-0.34043 4.7636-1.4516 9.1909-9.8613 9.1909-8 3-4 23.525 0 23.525 33-3 28.112-26.51 25.688-48.346-0.69477-6.257 4.0372-11.046 9.3125-13.156 3.0013-2.0155-5.5991-0.45103-9 0-1.8876-1.3958 5-8.0128 2-7z" fill="url(#bj)"/>
  </clipPath>
  <radialGradient id="bj" cx="425.59" cy="622.09" r="20.622" gradientTransform="matrix(.99736 .072658 -.12989 1.783 -206.48 -1072.1)" gradientUnits="userSpaceOnUse" xlink:href="#ao"/>
  <filter id="ar" x="-.01387" y="-.0066832" width="1.0277" height="1.0134" color-interpolation-filters="sRGB">
   <feGaussianBlur stdDeviation="3.1870185"/>
  </filter>
  <filter id="as" x="-.011824" y="-.0057392" width="1.0236" height="1.0115" color-interpolation-filters="sRGB">
   <feGaussianBlur stdDeviation="2.6858926"/>
  </filter>
  <filter id="at" x="-.010597" y="-.0046692" width="1.0212" height="1.0093" color-interpolation-filters="sRGB">
   <feGaussianBlur stdDeviation="2.158974"/>
  </filter>
  <filter id="au" x="-.0091085" y="-.0036559" width="1.0182" height="1.0073" color-interpolation-filters="sRGB">
   <feGaussianBlur stdDeviation="1.6613241"/>
  </filter>
  <filter id="av" x="-.0067344" y="-.0027532" width="1.0135" height="1.0055" color-interpolation-filters="sRGB">
   <feGaussianBlur stdDeviation="1.1766741"/>
  </filter>
  <filter id="aw" x="-.0059293" y="-.0017142" width="1.0119" height="1.0034" color-interpolation-filters="sRGB">
   <feGaussianBlur stdDeviation="0.72026295"/>
  </filter>
  <filter id="ax" x="-.0032206" y="-.00084328" width="1.0064" height="1.0017" color-interpolation-filters="sRGB">
   <feGaussianBlur stdDeviation="0.34467867"/>
  </filter>
  <filter id="bt" x="-.13505" y="-.054881" width="1.2701" height="1.1098" color-interpolation-filters="sRGB">
   <feGaussianBlur stdDeviation="1.7379048"/>
  </filter>
  <clipPath id="bk">
   <path d="m182.57 255.18c-41.048 1.5123-81.35 26.041-97.779 42.516h203.51c-16.959-17.006-59.356-42.516-101.75-42.516-1.3249 0-2.6506-0.0487-3.9748 0z" fill="url(#bh)"/>
  </clipPath>
  <radialGradient id="bh" cx="325.41" cy="608.59" r="36.5" gradientTransform="matrix(.9569 .36398 -.56104 1.4832 199.07 -714.88)" gradientUnits="userSpaceOnUse" xlink:href="#a"/>
  <filter id="bw" x="-.12095" y="-.30993" width="1.2419" height="1.6199" color-interpolation-filters="sRGB">
   <feGaussianBlur stdDeviation="5.4930664"/>
  </filter>
  <filter id="aq" x="-.77191" y="-.14733" width="2.5438" height="1.2947" color-interpolation-filters="sRGB">
   <feGaussianBlur stdDeviation="3.069373"/>
  </filter>
  <clipPath id="bl">
   <path d="m319 596.38c0.17113 1.1338-1.8149 2.5485-3 3-26.675 10.163-14.298 44.227-26 73l130-0.0312c-11.702-28.773 0.67522-62.837-26-73-1.1851-0.45148-3.1711-1.8662-3-3z" fill="url(#h)"/>
  </clipPath>
 </defs>
 <g transform="translate(-189.26 -237.12)">
  <path d="m274.05 552.84c0.4837 3.2138-5.1299 7.2234-8.4795 8.5031-75.397 28.805-40.413 125.35-73.489 206.91l367.44-0.0884c-33.075-81.554 1.9085-178.1-73.489-206.91-3.3496-1.2797-8.9632-5.2894-8.4795-8.5031z" fill="url(#bb)"/>
  <ellipse cx="485.92" cy="567.32" rx="5.2674" ry="5.2821" fill-rule="evenodd" stroke="#3e3e3e" stroke-width="1.8"/>
  <ellipse cx="265.73" cy="567.24" rx="5.2674" ry="5.2821" fill-rule="evenodd" stroke="#3e3e3e" stroke-width="2"/>
  <path transform="matrix(2.8265 0 0 2.8344 -627.6 -1137.5)" d="m349.09 622.36h6.8173c-0.49125 17.018-0.46474 33.787 1.363 50h-9.5432c2.216-16.777 2.2615-33.424 1.363-50z" clip-path="url(#bl)" fill="#fff" fill-rule="evenodd" filter="url(#aq)"/>
  <path d="m371.83 510.32c-41.048 1.5123-81.35 26.041-97.779 42.516h203.51c-16.959-17.006-59.356-42.516-101.75-42.516-1.3249 0-2.6506-0.0487-3.9748 0z" fill="url(#bc)"/>
  <path d="m618.89 541.5c-40.815 11.79-48.044 56.18-51.269 101.43-0.96223 13.502-4.1028 26.05-27.873 26.05-22.612 8.5031-11.306 66.68 0 66.68 93.274-8.5031 79.459-75.139 72.606-137.03-1.9638-17.735 11.411-31.309 26.322-37.29 8.4832-5.7126-15.826-1.2784-25.438 0-5.3352-3.9561 14.132-22.711 5.653-19.841z" fill="url(#bd)"/>
  <path d="m356.02 493.32-2.8265 19.841c15.412-0.89987 30.416-0.71078 45.224 0l-2.8265-19.841c-12.811-1.2319-25.953-1.3911-39.571 0zm6.6246 2.8344c9.1034-0.76888 17.823-0.64216 26.322 0 2.0819 0.15731 3.7981 1.6264 3.7981 3.7201v3.8087c0 2.0937-1.7168 3.6429-3.7981 3.8087-8.932 0.71134-17.79 1.0888-26.322 0-2.071-0.2643-3.7981-1.715-3.7981-3.8087v-3.8087c0-2.3379 1.7056-3.5434 3.7981-3.7201z"/>
  <path d="m490.33 522.79c-2.0146-0.22448-4.4681 0.88166-5.6199 2.8067-1.1518 1.925-1.4961 4.2571-1.4961 7.3572v34.012a2.8268 2.8347 0 1 0 5.653 0v-34.012c0-2.5686 0.45072-4.0397 0.69006-4.4398 0.23941-0.40004-0.22668-0.13548 0.14359-0.0941 0.74046 0.0825 4.029 2.0805 7.0607 5.1207 6.0635 6.0804 12.394 15.202 12.394 15.202a2.8269 2.8348 0 0 0 4.6483 -3.2274s-6.3892-9.3078-13.045-15.982c-3.3279-3.3371-6.399-6.2938-10.428-6.7427z" color="#000000" color-rendering="auto" image-rendering="auto" shape-rendering="auto" solid-color="#000000" style="block-progression:tb;isolation:auto;mix-blend-mode:normal;text-decoration-color:#000000;text-decoration-line:none;text-decoration-style:solid;text-indent:0;text-transform:none;white-space:normal"/>
  <path transform="matrix(2.8265 0 0 2.8344 -627.6 -1137.5)" d="m395.41 586.53c-0.51163-0.0583-1.0358 0.16334-1.334 0.65039-0.29815 0.48705-0.42773 1.1853-0.42773 2.1777v12.518a0.35003 0.35003 0 1 0 0.69922 0v-12.518c0-0.92571 0.14407-1.5131 0.32617-1.8106 0.1821-0.29746 0.34459-0.35775 0.65625-0.32226 0.62333 0.071 1.7331 0.85786 2.8125 1.9238 2.1587 2.1319 4.3516 5.248 4.3516 5.248a0.35003 0.35003 0 1 0 0.57227 -0.40234s-2.1995-3.1393-4.4316-5.3438c-1.1161-1.1022-2.2014-2.0046-3.2246-2.1211z" clip-path="url(#bq)" color="#000000" color-rendering="auto" fill="#fff" filter="url(#bu)" image-rendering="auto" shape-rendering="auto" solid-color="#000000" style="block-progression:tb;isolation:auto;mix-blend-mode:normal;text-decoration-color:#000000;text-decoration-line:none;text-decoration-style:solid;text-indent:0;text-transform:none;white-space:normal"/>
  <path d="m454.95 433.05a2.1201 2.126 0 1 0 0 4.2516s31.142 0.11933 50.159 6.9641c3.5874 1.2912 5.9095 3.356 7.4858 6.1393s2.3606 6.3592 2.4456 10.507c0.16987 8.2957-2.5075 18.75-6.2326 28.881-7.4503 20.262-18.924 39.233-18.924 39.233a2.1201 2.126 0 1 0 3.6214 2.2088s11.642-19.187 19.283-39.969c3.8207-10.391 6.6819-21.18 6.4921-30.442-0.095-4.6312-0.96346-8.9151-3.0032-12.517-2.0397-3.6015-5.2946-6.4463-9.7326-8.0436-20.357-7.3271-51.595-7.2132-51.595-7.2132z" color="#000000" color-rendering="auto" fill="#4d4d4d" image-rendering="auto" shape-rendering="auto" solid-color="#000000" style="block-progression:tb;isolation:auto;mix-blend-mode:normal;text-decoration-color:#000000;text-decoration-line:none;text-decoration-style:solid;text-indent:0;text-transform:none;white-space:normal"/>
  <path d="m261.29 522.79c-4.0292 0.44894-7.1004 3.4056-10.428 6.7427-6.6557 6.6742-13.045 15.982-13.045 15.982a2.8269 2.8348 0 0 0 4.6483 3.2274s6.33-9.1211 12.394-15.202c3.0318-3.0402 6.3203-5.0382 7.0607-5.1207 0.37022-0.0411-0.0958-0.30594 0.14359 0.0941 0.2394 0.40004 0.69006 1.8711 0.69006 4.4398v34.012a2.8268 2.8347 0 1 0 5.653 0v-34.012c0-3.1001-0.34424-5.4322-1.4961-7.3572-1.1518-1.925-3.6052-3.0312-5.6199-2.8067z" color="#000000" color-rendering="auto" image-rendering="auto" shape-rendering="auto" solid-color="#000000" style="block-progression:tb;isolation:auto;mix-blend-mode:normal;text-decoration-color:#000000;text-decoration-line:none;text-decoration-style:solid;text-indent:0;text-transform:none;white-space:normal"/>
  <path transform="matrix(2.8265 0 0 2.8344 -627.6 -1137.5)" d="m319.22 596.38c0.17113 1.1338-1.8149 2.5485-3 3-26.675 10.163-14.298 44.227-26 73h2.8427c11.702-28.773 0.0981-62.837 26.773-73 1.1851-0.45148 1.3873-1.8662 1.2162-3z" clip-path="url(#bm)" filter="url(#bt)"/>
  <path transform="matrix(2.8265 0 0 2.8344 -627.6 -1137.5)" d="m314.51 586.46c-1.0614 0.14005-2.1992 1.0977-3.3691 2.2676-2.3398 2.3398-4.6484 5.6562-4.6484 5.6562a0.35003 0.35003 0 1 0 0.57422 0.40039s2.3001-3.2943 4.5684-5.5625c1.1341-1.1341 2.3002-1.9804 2.9668-2.0684 0.33332-0.044 0.50914 0.0181 0.70117 0.32617 0.19203 0.30804 0.34375 0.92032 0.34375 1.8867v12.299a0.35003 0.35003 0 1 0 0.69922 0v-12.299c0-1.0336-0.13724-1.7574-0.44922-2.2578-0.31197-0.50046-0.85603-0.71847-1.3867-0.64844z" clip-path="url(#bp)" color="#000000" color-rendering="auto" fill="#fff" filter="url(#bv)" image-rendering="auto" shape-rendering="auto" solid-color="#000000" style="block-progression:tb;isolation:auto;mix-blend-mode:normal;text-decoration-color:#000000;text-decoration-line:none;text-decoration-style:solid;text-indent:0;text-transform:none;white-space:normal"/>
  <path d="m296.67 433.05s-31.237-0.11394-51.595 7.2132c-4.438 1.5974-7.6929 4.4421-9.7326 8.0436s-2.9083 7.8855-3.0032 12.517c-0.18966 9.2623 2.6714 20.051 6.4921 30.442 7.6414 20.782 19.283 39.969 19.283 39.969a2.1201 2.126 0 1 0 3.6214 -2.2088s-11.474-18.971-18.924-39.233c-3.7251-10.131-6.4026-20.585-6.2326-28.881 0.0851-4.1479 0.86926-7.7238 2.4456-10.507 1.5763-2.7834 3.8984-4.8481 7.4858-6.1393 19.017-6.8447 50.159-6.9641 50.159-6.9641a2.1201 2.126 0 1 0 0 -4.2516z" color="#000000" color-rendering="auto" fill="#4d4d4d" image-rendering="auto" shape-rendering="auto" solid-color="#000000" style="block-progression:tb;isolation:auto;mix-blend-mode:normal;text-decoration-color:#000000;text-decoration-line:none;text-decoration-style:solid;text-indent:0;text-transform:none;white-space:normal"/>
  <path transform="matrix(2.8265 0 0 2.8344 -627.6 -1137.5)" d="m326.8 554.4s-10.79 0.27399-17.908 2.6328c-1.4045 0.46544-2.4068 1.3427-3.0332 2.4902s-0.88988 2.5532-0.90234 4.1113c-0.0249 3.1162 0.95307 6.8699 2.2539 10.527 1.3008 3.6574 2.9305 7.2136 4.2305 9.8945 0.64997 1.3405 1.2171 2.4629 1.6191 3.2656 0.20103 0.40136 0.36071 0.7235 0.4668 0.94922 0.053 0.11286 0.0924 0.20266 0.11523 0.25976 8e-3 0.0196 0.0122 0.0273 0.0156 0.0371 3.1e-4 8.9e-4 -2.7e-4 3e-3 0 4e-3a0.35003 0.35003 0 0 0 0.69727 -4e-3c0.0119-0.11906-0.01-0.14455-0.0215-0.18359-0.0116-0.039-0.0248-0.0748-0.041-0.11524-0.0324-0.0808-0.0749-0.1777-0.13086-0.29687-0.11203-0.23834-0.27296-0.56224-0.47461-0.96484-0.4033-0.80521-0.97016-1.9214-1.6172-3.2559-1.294-2.6688-2.9122-6.2057-4.1992-9.8242s-2.2366-7.3234-2.2129-10.287c0.0119-1.4818 0.26618-2.7733 0.81641-3.7812 0.55022-1.008 1.3835-1.7449 2.6367-2.1602 6.9312-2.2969 17.709-2.5976 17.709-2.5976a0.35073 0.35073 0 0 0 -0.0195 -0.70118z" clip-path="url(#bo)" color="#000000" color-rendering="auto" fill="#fff" filter="url(#az)" image-rendering="auto" shape-rendering="auto" solid-color="#000000" style="block-progression:tb;isolation:auto;mix-blend-mode:normal;text-decoration-color:#000000;text-decoration-line:none;text-decoration-style:solid;text-indent:0;text-transform:none;white-space:normal"/>
  <path transform="translate(189.26 237.12)" d="m430.9 304.09c-0.0593 4e-3 -0.1392 0.0226-0.20507 0.0312-5.3545 6.4974-14.418 17.925-8.5607 22.25 5.3194 2.091 17.859-3.0059 26.819-4.9354-2.5274-0.0496-4.8602 0.32497-7.8789 0.41016-5.8596 0.65291-12.89 1.8188-17.102 2.3789-5.0017-3.7089 11.795-20.425 6.9277-20.135z" fill="#999"/>
  <path d="m620.74 543.01c-1.8072 4.3535-11.465 15.4-7.5079 18.335 4.6376-0.61676 12.668-1.9766 18.814-2.5686-5.3191-0.10431-10.65-0.38208-14.486-1.5058-0.4584-2.0899 3.305-10.644 3.1798-14.26z" fill="url(#bi)"/>
  <path d="m192.09 768.21c121.49-2.305 243.56-3.2474 367.43 0 1.5697 0.0411 2.8344 1.2641 2.8344 2.8344v5.6687c0 1.5702-1.2641 2.8344-2.8344 2.8344h-367.43c-1.5702 0-2.8344-1.2641-2.8344-2.8344v-5.6687c0-1.5702 1.2644-2.8046 2.8344-2.8344z" fill="url(#be)"/>
  <path transform="matrix(2.8265 0 0 2.8344 -627.6 -1137.5)" d="m383.04 554.38a0.25002 0.25002 0 1 0 2e-3 0.5s11.299-0.0603 18.182 2.4102c1.3687 0.49126 2.2967 1.3186 2.9062 2.4102 0.60956 1.0915 0.89394 2.4562 0.91993 4 0.052 3.0877-0.93179 6.8779-2.2754 10.545-2.6872 7.3341-6.7949 14.176-6.7949 14.176a0.25002 0.25002 0 1 0 0.42774 0.25781s4.1286-6.8674 6.8379-14.262c1.3546-3.6972 2.3586-7.5267 2.3047-10.727-0.0269-1.5999-0.31889-3.0462-0.98243-4.2344-0.66353-1.1882-1.7051-2.1089-3.1758-2.6367-7.0477-2.5296-18.352-2.4395-18.352-2.4395z" clip-path="url(#bn)" color="#000000" color-rendering="auto" fill="#fff" filter="url(#bs)" image-rendering="auto" shape-rendering="auto" solid-color="#000000" style="block-progression:tb;isolation:auto;mix-blend-mode:normal;text-decoration-color:#000000;text-decoration-line:none;text-decoration-style:solid;text-indent:0;text-transform:none;white-space:normal"/>
  <g transform="matrix(2.8265 0 0 2.8344 -571.07 -1137.5)">
   <path d="m315 552.36s13.325-2 20-2 20 2 20 2v5s-13.325 2-20 2-20-2-20-2z" fill="url(#bf)"/>
   <path d="m314 550.36c0.554 0 0.93812 0.44945 1 1 0.26456 2.3536 0.20071 4.6821 0 7-0.0478 0.55195-0.446 1-1 1s-0.97284-0.44666-1-1c-0.1115-2.2716-0.20574-4.5527 0-7 0.0464-0.55206 0.446-1 1-1z" fill="url(#bg)"/>
   <path d="m307 553.36 6-1v5l-6-1c-0.13935-1-0.21206-2 0-3z"/>
   <path d="m356 550.36c-0.554 0-0.95599 0.44774-1 1-0.19452 2.4411-0.12566 4.7363 0 7 0.0307 0.55315 0.446 1 1 1s0.96651-0.44701 1-1c0.13962-2.3055 0.21614-4.6236 0-7-0.0502-0.55174-0.446-1-1-1"/>
   <path d="m357 552.36v5l6-1c0.0917-1.0152 0.12289-2.0204 0-3z"/>
  </g>
  <path d="m276.88 552.2 4.166-3.9052c63.983-1.7613 127.41-1.8512 190.19 0l3.9849 3.996z" color="#000000" fill="url(#ba)"/>
  <path transform="matrix(2.8265 0 0 2.8344 189.26 422.42)" d="m153.53 50.918c-10.3-0.10821-6.4508 19.616-5.4453 26.291 2.675 17.757-8.7828 27.959-27.189 29.229 0.85917 2.4148 1.9784 4.0781 3.1074 4.0781 33-3 28.112-26.51 25.688-48.346-0.4993-4.4967 1.8099-8.2308 5.1035-10.762-0.0602-0.24079-0.13072-0.40633-0.22266-0.41797-0.36229-0.04587-0.70875-0.06878-1.041-0.07227z" clip-path="url(#br)" fill-rule="evenodd" filter="url(#ay)"/>
  <g transform="matrix(.1876 0 0 .2639 213.43 243.98)" opacity=".75">
   <path d="m2201.7 1188.7c-1.6617-0.1999-6.0435-1.0724-9.7374-1.9387-5.5057-1.2913-7.7265-1.3654-12.323-0.4113-3.0836 0.6403-6.0358 0.8986-6.5604 0.5744-2.6779-1.655 2.5825-95.02 2.2219-129.72l-0.2664-25.625 4.2307-14.375 4.2307-14.375-0.7493-30c-0.8665-34.695-2.6203-49.766-9.0187-77.5-6.2496-27.089-10.426-50.333-11.343-63.125-0.9533-13.304 2.1706-35.563 6.6335-47.268 13.386-35.105 17.152-54.082 16.295-82.107-0.686-22.424-3.3817-32.826-10.569-40.781-3.7293-4.128-5.2155-4.9379-8.5355-4.6519-2.211 0.19049-4.8874-0.37355-5.9475-1.2534-1.0602-0.87988-4.0763-1.4228-6.7024-1.2066l-4.7747 0.39316-0.3389 6.25c-0.1864 3.4375-0.9643 7.4777-1.7286 8.9782-1.4995 2.9438-0.7028 6.6468 1.4301 6.6468 0.7238 0 1.9426-1.3753 2.7085-3.0562 1.3376-2.9358 4.5376-5.1268 5.7365-3.9278 1.2986 1.2986-5.27 18.876-11.791 31.552-13.05 25.368-29.092 48.371-42.708 61.24-17.253 16.307-32.837 20.076-48.859 11.816-27.252-14.049-40.147-48.207-33.212-87.975 5.6399-32.341 27.788-66.854 59.725-93.067 11.927-9.7896 31.063-18.615 46.585-21.484 4.0354-0.74597 7.8175-1.8368 8.4047-2.4239 2.8809-2.881 9.3093-37.699 14.108-76.411 4.1545-33.518 7.4264-53.389 11.91-72.334 2.0106-8.4958 3.6557-16.494 3.6557-17.774 0-1.512-3.3942-4.599-9.6875-8.8109-19.449-13.016-32.649-23.989-34.152-28.387-0.7837-2.2933-2.942-5.9496-4.7962-8.125-1.8543-2.1754-6.1218-7.8928-9.4834-12.705-3.3615-4.8125-12.928-15.781-21.258-24.375s-21.019-23.035-28.197-32.092c-10.726-13.534-14.239-19.101-19.722-31.25-3.6696-8.1304-7.7196-19.001-9-24.158-5.1307-20.661-6.3755-46.297-3.0273-62.346 1.058-5.0716 1.6027-9.5421 1.2103-9.9344-0.3923-0.39233-3.3678 2.3404-6.6122 6.0727s-7.7806 8.7653-10.08 11.184c-6.3391 6.6679-16.438 22.061-18.561 28.292-2.4621 7.226-1.6108 10.066 5.2153 17.396 3.1086 3.3381 5.652 6.3135 5.652 6.6119 0 0.29839 3.8647 5.1115 8.5883 10.696s9.8442 12.684 11.379 15.778 5.1759 8.1562 8.0908 11.25 6.563 8.7188 8.1069 12.5 4.1633 8.9723 5.8209 11.536c3.3635 5.2013 3.7737 7.2308 1.4514 7.1803-0.8594-0.0187-14.624-12.865-30.588-28.546-23.393-22.98-29.637-29.825-32.175-35.278-1.7323-3.7213-3.1514-8.4535-3.1535-10.516 0-2.0625-0.6344-7.9688-1.4048-13.125-1.284-8.5934-1.174-9.9482 1.3198-16.25 1.4963-3.7812 4.9818-13.344 7.7455-21.25 5.0944-14.574 10.128-25.163 13.154-27.675 2.361-1.9594 2.1733 0.66482-0.6906 9.6557-3.2753 10.282-4.0899 14.192-3.2429 15.563 1.2553 2.0311 6.7885-2.6197 10.301-8.6584 6.2017-10.661 9.1449-14.492 14.028-18.26 4.3333-3.3432 7.2189-6.7864 19.381-23.125 1.7911-2.4062 8.4658-13.126 14.833-23.822 16.896-28.384 18.376-30.133 13.129-15.51-1.4716 4.1012-2.9473 11.767-3.2793 17.035-0.5944 9.4346-0.5441 9.6369 3.3439 13.438 6.6556 6.5061 10.148 4.649 13.958-7.4224 2.2605-7.1624 2.5081-9.3705 1.3386-11.937-1.6761-3.6788-1.9047-9.2817-0.3786-9.2817 4.0872 0 6.8884 9.2712 4.3593 14.428-1.1779 2.4016-2.3788 28.095-2.1999 47.069 0.09 9.6035 0.6085 12.06 6.2772 29.776 1.6539 5.1686 3.0102 10.231 3.0139 11.25 0.013 3.4134 9.6224 31.694 15.92 46.852 8.0975 19.489 8.3327 20.663 5.7704 28.791l-2.1356 6.7747 5.3282 10.753c9.347 18.863 33.276 40.302 55.32 49.564 4.8143 2.0228 9.5489 3.3725 10.521 2.9993 2.6807-1.0287 2.2153-12.101-0.8605-20.476-3.4625-9.4267-4.0678-12.315-3.1056-14.823 0.7124-1.8565 1.1196-1.7822 3.744 0.68325 2.2991 2.16 4.1415 2.6805 8.4048 2.3747l5.4603-0.39159v-18.99c0-12.645 0.4806-19.474 1.4383-20.438 2.1224-2.1375 3.32 2.6322 1.7185 6.8443-0.705 1.8543-1.2818 6.6444-1.2818 10.645 0 6.9085 0.2526 7.5014 5.0388 11.825 4.9237 4.4482 5.02 4.6942 4.2151 10.762-0.5527 4.1665-0.3203 6.8166 0.7063 8.0536 0.8416 1.014 2.2333 4.2249 3.0926 7.1353s2.3521 5.7066 3.3173 6.2138 6.2549 3.0727 11.755 5.701c8.5392 4.0808 10 5.2331 10 7.8883 0 2.2171 0.7614 3.2181 2.6534 3.488 3.2836 0.46851 4.1973-1.6131 5.4411-12.396 0.6502-5.6371 1.9003-9.5495 3.9295-12.298 3.5522-4.8117 3.7614-13.657 0.5335-22.555-2.1385-5.895-8.7535-13.755-11.576-13.755-1.135 0-1.4102-0.9698-0.8775-3.0923 0.5561-2.2157-0.3231-4.8788-3.1012-9.3938-2.1325-3.4658-3.8827-6.9961-3.8892-7.8452-0.01-0.84906-1.907-7.45-4.2232-14.669s-4.5986-15.447-5.0721-18.284c-1.0037-6.0161-3.6516-8.7664-17.011-17.669-10.002-6.6656-23.682-19.019-23.682-21.385 0-2.4079 4.1069-1.488 10.625 2.3798 14.271 8.4685 19.907 9.3867 22.765 3.709 0.9634-1.9139 1.5802-8.2449 1.5915-16.336 0.011-8.3082 0.746-15.661 1.979-19.813 1.0784-3.6312 1.6807-7.3318 1.3385-8.2236-0.4832-1.2592-4.0938-1.4715-16.162-0.95028-13.517 0.58376-16.682 0.32427-24.313-1.9935-8.8414-2.6855-15.462-6.7023-13.799-8.3717 0.4946-0.4965 4.4321-0.20716 8.75 0.64298 9.5363 1.8776 37.487 1.9117 40.966 0.05 1.4735-0.78859 2.5102-2.6186 2.5102-4.431 0-3.238-2.9942-5.8563-22.429-19.614-15.979-11.311-22.293-23.57-29.347-56.981-4.8959-23.188-5.2748-30.655-1.996-39.332 2.9536-7.816 5.876-10.509 21.214-19.547 6.8323-4.0259 8.3339-5.5543 9.8111-9.9857l1.744-5.2323 5.814 0.77218c3.1977 0.42469 8.7844 1.6582 12.415 2.7412 5.221 1.5574 7.2657 1.6662 9.7812 0.52001 3.9266-1.7891 4.778-1.2814 8.8043 5.2503 3.8418 6.2323 6.2914 8.3298 9.7401 8.3401 1.4155 0.0037 4.2611 0.92928 6.3236 2.0556 5.0847 2.7769 17.313 3.0692 40 0.95646 32.096-2.989 39.711-3.9562 49.094-6.2352 9.0165-2.1902 9.1238-2.1865 12.671 0.43629 4.6367 3.428 27.131 5.3769 31.998 2.7722 2.5924-1.3874 4.2138-1.2332 11.222 1.0676 4.5057 1.4791 9.4986 2.6893 11.095 2.6893 1.5966 0 6.2255 1.1556 10.286 2.5679 4.3022 1.4964 8.8727 2.2808 10.953 1.8799 2.6836-0.51732 5.4755 0.45625 11.25 3.923 15.497 9.3037 22.78 14.038 27.056 17.587 4.3211 3.5868 17.938 7.8026 25.18 7.7954 1.9554-0.0025 7.5525 2.8725 13.707 7.0395 5.7211 3.8735 12.811 7.8636 15.756 8.867 2.9447 1.0034 5.6843 2.3588 6.0881 3.012 1.8473 2.9891-9.092 9.8282-15.721 9.8282-4.9887 0-5.433 1.6676-2.6643 10 2.519 7.5809 4.7341 8.5466 4.1621 1.8146-0.5434-6.3948 2.6512-5.528 5.9814 1.6229 1.5209 3.2656 3.6437 6.9273 4.7174 8.1372 1.6754 1.8877 1.7134 2.6458 0.2682 5.3462-0.9262 1.7306-2.964 3.4678-4.5284 3.8605-5.1938 1.3036-5.8129 3.3551-3.6082 11.957 2.5859 10.089 8.6414 40.317 11.471 57.262 1.5066 9.0216 2.2034 20.159 2.2287 35.625 0.044 26.613-2.3736 41.181-11.293 68.061-6.2268 18.766-11.086 37.431-12.261 47.092-0.835 6.8674-18.276 60.089-26.781 81.721-15.284 38.876-49.93 100.67-81.962 146.18-17.787 25.271-22.296 33.598-41.33 76.324-18.086 40.597-19.286 45.875-18.441 81.075 0.3994 16.636 0.066 32.244-0.8926 41.8-1.7728 17.671-7.9003 56.547-11.424 72.483-1.3358 6.0404-4.1407 19.54-6.2331 30-4.6006 22.998-10.551 43.623-18.636 64.593-8.9801 23.293-29.053 87.968-41.914 135.05-9.5038 34.791-16.238 55.035-22.1 66.435-6.6492 12.931-26.799 77.142-33.73 76.308zm-133.54-425.92c0-1.346 1.0172-1.8144 3.3931-1.5625 5.3882 0.57138 5.2388-3.4316-0.2489-6.6695-2.6009-1.5345-4.2701-3.366-3.9139-4.2943 0.3416-0.89023-0.2148-2.3123-1.2365-3.1602-1.0217-0.84792-1.5321-2.3899-1.1342-3.4266 0.4331-1.1287-0.8972-3.5569-3.3157-6.0522-3.1378-3.2374-3.7049-4.5014-2.5415-5.6648 1.5763-1.5762 1.9934-7.001 0.7813-10.16-0.6261-1.6316-1.1822-1.6051-4.4153 0.21028-3.5997 2.0212-3.7642 1.9931-6.1309-1.048-1.9158-2.4618-2.4315-5.1145-2.4299-12.5 1e-3 -5.1562 0.6075-11.625 1.3476-14.375 0.74-2.75 1.5971-8.3214 1.9047-12.381 0.3075-4.0595 1.0949-8.3819 1.7496-9.6053 0.6548-1.2234 1.1905-5.8337 1.1905-10.245 0-8.2275 1.8678-15.894 3.8723-15.894 0.6202 0 1.1277-1.9688 1.1277-4.375 0-3.8333-0.3869-4.375-3.125-4.375-2.0358 0-3.125 0.69953-3.125 2.007 0 1.1039-1.4063 3.6783-3.125 5.7209-1.7188 2.0426-3.125 4.7401-3.125 5.9945 0 1.2814-1.9168 3.4116-4.375 4.8619-3.553 2.0963-4.375 3.334-4.375 6.5875 0 2.2034-0.7573 4.8943-1.6828 5.9797s-3.2515 5.9109-5.1689 10.723c-5.6358 14.146-6.1025 33.168-1.1995 48.887 2.488 7.9766 3.8292 10.441 6.2932 11.564 1.7223 0.78471 4.1109 3.5355 5.3081 6.1129 2.9857 6.4276 11.828 15.608 16.755 17.395 5.987 2.1715 10.945 2.0556 10.945-0.25585zm37.5-18.555c0-0.78168 1.125-2.1238 2.5-2.9825 1.5222-0.95064 2.5-2.915 2.5-5.0226 0-1.9037 0.9058-4.7545 2.013-6.3352l2.013-2.8739-5.0225 2.5622c-4.344 2.2162-5.1421 3.2844-5.9081 7.9083-0.4872 2.9403-1.3631 6.2564-1.9466 7.3692-0.5835 1.1127-0.7105 2.3735-0.2823 2.8016 1.0093 1.0093 4.1335-1.5811 4.1335-3.4272zm-21.95-11.085c-5.0249-16.27-9.0296-21.083-8.061-9.6875 0.3005 3.536 1.9395 7.1015 4.7405 10.312 2.6596 3.0491 4.3565 2.7297 3.3205-0.625zm131.73-19.153c3.6057-8.9363 3.2772-19.755-0.8593-28.3-2.2272-4.6007-2.7284-8.5341-3.2948-25.856-0.3674-11.236-1.0241-21.006-1.4592-21.71-0.4352-0.70411-0.8483-10.725-0.9181-22.268l-0.1269-20.987-3.6714-3.8317c-2.0664-2.1567-4.9613-3.8317-6.6221-3.8317-3.0569 0-7.7869 4.2976-11.328 10.293-2.7115 4.5903-5.253 4.4485-5.253-0.29309 0-4.6391-1.654-4.7455-9.0975-0.58522-8.8308 4.9356-9.4349 6.2126-5.1556 10.898 5.1423 5.6298 7.0875 7.1025 9.4409 7.1478 1.4239 0.0274 2.5162 1.9297 3.5267 6.1416 0.8051 3.356 4.3768 10.585 7.9371 16.063 8.3334 12.824 17.098 31.882 17.098 37.178 0 1.6548 0.4805 3.3058 1.0679 3.6688 1.98 1.2237 2.6949 16.053 1.3193 27.366-1.0722 8.818-1.0238 11.872 0.225 14.206 2.2676 4.2369 3.7714 3.1254 7.1711-5.3003zm-113.53-2.4916c0-0.38896-0.623-1.8712-1.3844-3.2939-1.1103-2.0747-1.6013-2.244-2.4808-0.85532-1.8278 2.8861-1.2739 4.8564 1.3652 4.8564 1.375 0 2.5-0.31822 2.5-0.70717zm-23.97-33.463c0.5596-2.8856-3.0493-3.9893-5.3902-1.6484-1.7327 1.7327-1.7048 2.0523 0.2804 3.2061 2.812 1.6345 4.5962 1.0906 5.1098-1.5577zm216.52-130.83c0.39-22.532-2.0845-31.25-8.8702-31.25-2.3762 0-13.676 14.561-13.676 17.624 0 2.0868 6.318 11.498 8.7121 12.978 0.7575 0.46815 3.6816 4.4999 6.498 8.9594s5.5633 7.6482 6.1041 7.0861c0.5409-0.56212 1.0953-7.4908 1.2322-15.397zm-11.692-103.98c-0.399-0.99717-0.6952-0.70098-0.7552 0.75521-0.054 1.3177 0.2411 2.056 0.6565 1.6406s0.4598-1.4935 0.099-2.3958zm99.744-3.4622c1.0063-1.946 3.5694-5.2779 5.6959-7.4043 3.6806-3.6806 3.8474-4.2811 3.474-12.506-0.2158-4.7519-0.7552-8.4187-1.1988-8.1486s-1.1014-0.27709-1.4617-1.2161c-0.3697-0.96334 0.9628-2.9035 3.0579-4.4525 3.4762-2.57 3.6591-3.1187 2.8665-8.598-0.4656-3.2191-1.407-6.556-2.0919-7.4153-1.9467-2.4424-5.9393-1.915-5.9393 0.78445 0 1.2908-0.842 3.0457-1.871 3.8998-1.0291 0.85407-2.6598 4.1573-3.6237 7.3406-0.964 3.1832-2.9995 8.6002-4.5234 12.038-1.5238 3.4375-2.7228 8.0781-2.6643 10.312 0.058 2.2344-0.4391 4.0625-1.1057 4.0625-2.116 0-1.3051 7.4068 1.0711 9.783 1.2556 1.2556 2.6579 3.26 3.1162 4.4542 1.0321 2.6898 2.8086 1.6872 5.1982-2.9338zm-98.494-1.5378c-0.399-0.99717-0.6952-0.70098-0.7552 0.75521-0.054 1.3177 0.2411 2.056 0.6565 1.6406s0.4598-1.4935 0.099-2.3958zm-97.723-3.7507c1.7282-2.0538 4.603-6.227 6.3885-9.2738 3.9077-6.668 3.29-7.8105-6.3351-11.717-8.5182-3.4573-12.69-3.0669-12.222 1.1436 0.1859 1.669-0.5653 5.7538-1.6692 9.0772-1.2655 3.8101-1.7153 7.7691-1.2175 10.716 0.7884 4.6663 0.7977 4.6725 6.3511 4.2308 4.335-0.34478 6.2547-1.266 8.7038-4.1766zm91.228-94.811c-2.4285-6.8831-7.8302-16.204-9.3905-16.204-1.9978 0-7.6369 12.513-7.229 16.04 0.3451 2.9846 1.2389 3.5449 8.5106 5.336 4.4687 1.1006 8.5578 1.6241 9.0867 1.1633 0.529-0.46083 0.089-3.3117-0.9778-6.3352zm-58.109-2.504c0-1.4024-1.125-4.755-2.5-7.4502s-2.5-5.6794-2.5-6.6315c0-0.95209-1.1979-2.8026-2.662-4.1123s-3.6675-4.7099-4.8965-7.556c-1.2291-2.8461-2.8386-5.5481-3.5768-6.0043-1.3709-0.84724-7.088 2.6661-8.0294 4.9343-0.5865 1.413 1.2183 13.854 3.0238 20.843 1.2077 4.6755 3.6706 6.1984 12.391 7.6618 7.2516 1.217 8.75 0.92845 8.75-1.6849zm219.22-20.953c0.3407-0.55138 1.2725-9.3843 2.0705-19.629 1.1066-14.206 1.1017-23.09-0.021-37.435-1.4822-18.946-2.2811-23.951-11.283-70.684-5.8202-30.214-10.106-57.55-9.2412-58.948 0.3379-0.54673-0.011-3.3183-0.7764-6.159l-1.3907-5.1649-11.478 0.44856c-9.7424 0.38075-11.398 0.16509-10.948-1.4264 1.4067-4.9804 0.671-9.3223-1.658-9.7847-1.3082-0.2597-2.8555 0.3803-3.4387 1.4222-0.8618 1.5401-1.8198 1.6456-5.1215 0.56391-2.2338-0.73179-4.7773-1.5137-5.6522-1.7376-1.2877-0.32955-1.2877-0.90344 0-3.0123 1.2001-1.9653 2.4351-2.4405 5.0283-1.9346 4.1084 0.80148 4.6553-1.149 0.625-2.229-5.2701-1.4123-8.6587-0.79142-11.05 2.0246l-2.3879 2.8125-2.1875-2.5678c-1.2031-1.4123-3.099-3.9423-4.2131-5.6222-1.9109-2.8814-2.2793-2.9626-6.5069-1.4338-3.8864 1.4053-5.0282 1.3344-8.5995-0.53436-2.2649-1.1852-9.1805-2.8653-15.368-3.7336-9.7025-1.3616-11.645-1.3224-14.118 0.2844-5.1782 3.3636-5.5523 6.7052-3.9727 35.482 0.8113 14.781 1.6566 27.176 1.8783 27.544s1.0313 6.5553 1.7991 13.75c1.9474 18.248 2.6969 20.043 10.739 25.728 38.366 27.119 55.182 45.053 65.498 69.853 9.0324 21.714 9.6291 22.698 20.235 33.389 5.7428 5.7888 12.253 12.597 14.466 15.13 3.9938 4.5696 5.8804 5.5308 7.072 3.6028zm-424.22-59.717c0-3.1569-20.811-25.53-23.748-25.53-2.8045 0 3.9313 9.794 12.25 17.812 7.7499 7.4698 11.497 9.9851 11.497 7.7176zm463.24-52.864c-1.0053-24.684-2.0229-35.038-3.5356-35.973-1.2255-0.75738-0.01 56.646 1.244 58.78 0.3552 0.60391 1.1951 0.11625 1.8666-1.0836 0.7474-1.3356 0.9123-9.7598 0.425-21.723zm-44.888-36.651c-0.399-0.99716-0.6952-0.70097-0.7552 0.75522-0.054 1.3177 0.2411 2.056 0.6565 1.6406s0.4598-1.4935 0.099-2.3958zm-0.3638-26.802c-0.295-12.802-0.8413-23.771-1.2141-24.374-0.3767-0.60959-1.7488-0.5234-3.0894 0.19407-2.0803 1.1134-2.3952 2.6165-2.2922 10.941 0.066 5.3076 0.6892 12.181 1.3855 15.275 0.6964 3.0938 1.1784 7.9234 1.0711 10.733-0.2211 5.791 1.822 12.272 3.5349 11.213 0.6529-0.40352 0.9113-10.657 0.6042-23.982zm-27.903-41.714c0.6397 0 1.1631 1.125 1.1631 2.5 0 1.7965 0.8333 2.5 2.9614 2.5 2.4478 0 3.092-0.80424 3.7138-4.6361 0.4907-3.0238 0.2216-4.9734-0.7739-5.6059-2.5145-1.5976-9.006-1.1347-11.6 0.82723-1.3345 1.0094-3.4108 1.8531-4.6139 1.875s-2.1875 0.36118-2.1875 0.75404c0 1.6639 3.7689 4.2857 6.1607 4.2857 1.4241 0 2.6659 0.70312 2.7595 1.5625 0.094 0.85937 0.414 0.29687 0.712-1.25 0.2979-1.5469 1.0651-2.8125 1.7047-2.8125zm-34.175-64.505c-0.4154-0.41536-1.4935-0.45976-2.3959-0.09862-0.9971 0.39902-0.7009 0.69522 0.7552 0.7552 1.3177 0.05425 2.056-0.24116 1.6407-0.65652zm-312.73 280.84c-0.3956-0.63999-0.1475-1.5169 0.5512-1.9488 0.6987-0.43182 1.2704 0.0917 1.2704 1.1636 0 2.1957-0.7501 2.519-1.8216 0.78514zm-6.9284-7.6601c0-0.72808 0.5625-0.97613 1.25-0.55123s1.25 1.0206 1.25 1.3238c0 0.30318-0.5625 0.55123-1.25 0.55123s-1.25-0.5957-1.25-1.3238zm-44.386-170.86c7.4806-13.742 13.213-17.655 6.348-4.3334-2.8275 5.487-8.6748 12.771-10.252 12.771-0.379 0 1.3778-3.7969 3.904-8.4375z" filter="url(#ar)" opacity=".1"/>
   <path d="m2199.7 1146.2c-5.7809-7.3195-10.232-8.2336-13.699-2.8132-3.1177 4.8742-6.648-0.6553-8.284-12.976-2.122-15.98 0.3551-42.587 0.3297-70.641-0.024-26.558 0.1763-29.065 3.3081-41.395l3.3336-13.125-0.6964-36.875c-0.7744-41.007-2.139-57.137-6.5858-77.847-9.7251-45.29-11.988-58.208-11.98-68.403 0.01-13.772 1.3009-19.961 9.5205-45.625 10.048-31.372 14.415-53.732 14.415-73.806 0-5.3545 0.2738-9.4616 0.6085-9.1269 0.3348 0.3347 1.5178 5.3503 2.6291 11.146 3.1184 16.263 1.8794 30.837-5.04 59.287-10.656 43.814-11.078 46.263-10.277 59.707 0.3999 6.714 1.2662 13.17 1.925 14.348 1.0656 1.9041 1.3391 1.7984 2.4756-0.9572 0.7027-1.7038 2.512-10.129 4.0207-18.723 5.9593-33.945 14.021-57.384 34.169-99.344l11.989-24.969v-26.872l3.5454-1.8334c4.1924-2.168 9.2621-8.5195 12.76-15.986 3.3994-7.2568 7.6635-14.111 10.964-17.625 1.9966-2.1252 2.7303-4.4637 2.7303-8.7017 0-8.8155-2.4174-18.487-4.8095-19.243-6.9102-2.1823-11.44-7.5882-11.44-13.652 0-2.1597-0.6933-3.0237-2.4262-3.0237-1.3345 0-2.7829 0.57703-3.2187 1.2823-0.4775 0.77258-2.2662 0.0422-4.4999-1.8373-3.8255-3.2189-15.408-7.1444-27.243-9.2331-5.0577-0.89258-8.052-0.76374-11.875 0.51098-2.8115 0.9375-6.5182 1.9809-8.2369 2.3186-2.6225 0.51537-10.754 6.645-25.938 19.551-1.5469 1.3149-2.8125 3.5564-2.8125 4.9812 0 1.4247-0.6599 3.8191-1.4665 5.3208-2.4008 4.4697-11.029 34.851-10.254 36.105 1.0396 1.682-3.0698 5.7797-9.5281 9.501-5.494 3.1656-13.184 8.4854-20.528 14.201-2.0082 1.563-5.4779 3.8208-7.7103 5.0173l-4.0589 2.1754 3.0077-5.2601c1.6543-2.8931 3.0146-5.9798 3.0228-6.8594 0.01-0.8796 2.31-4.5026 5.1149-8.051 5.524-6.9884 11.15-17.236 11.15-20.308 0-3.1584-2.7214-2.1946-10.625 3.7634-6.0813 4.5842-8.3276 5.5866-11.875 5.2994-3.9025-0.31601-4.4163-0.77931-4.7572-4.29-0.2103-2.1646 0.5462-6.1022 1.6811-8.75 1.1792-2.7513 2.2347-9.1832 2.4632-15.01 0.2199-5.6076 1.0103-11.336 1.7564-12.73 0.7461-1.3941 1.3565-3.679 1.3565-5.0775 0-1.6136 2.3979-4.3281 6.5625-7.4289 9.4233-7.0162 12.579-10.739 11.632-13.723-0.6446-2.0308 0.029-2.7641 3.6281-3.952 7.9844-2.6351 8.0629-2.8529 17-47.166 3.4361-17.037 6.4812-31.539 6.7669-32.227 0.2858-0.6875 0.4542 9.2936 0.3744 22.18-0.08 12.887 0.2815 23.855 0.803 24.375 1.0482 1.0444 3.9467-2.2889 7.2872-8.3802 1.6118-2.9391 2.7858-3.7812 4.5088-3.2344 1.7913 0.56855 7.1149-4.0323 23.042-19.913 11.392-11.359 21.484-20.652 22.427-20.652 4.281 0 35.942-35.8 47.678-53.912 2.492-3.8456 2.038-4.1765-7.4877-5.4569-12.84-1.7259-35.202-6.8546-43.368-9.9464-16.149-6.1146-39.005-17.627-49.046-24.704-13.929-9.8174-25.127-21.846-27.387-29.419-1.1034-3.6972 1.8361-3.7749 5.0729-0.13401 1.3096 1.4732 6.0374 5.1406 10.506 8.1498 4.4687 3.0092 10.464 7.1499 13.322 9.2016 6.0077 4.3122 7.9793 3.965 11.174-1.9676 2.0343-3.7775 2.0905-4.5089 0.4698-6.1118-1.0125-1.0014-10.322-4.5652-20.688-7.9194-17.224-5.5734-19.704-6.7626-28.791-13.806-10.17-7.8834-15.124-13.168-26.112-27.861-3.4375-4.5961-11.031-13.812-16.875-20.479-15.172-17.31-24.283-30.505-31.943-46.26-14.599-30.029-18.926-69.843-10.142-93.331 3.9631-10.597 6.4283-11.291 5.3898-1.5171-0.4294 4.0412-1.1446 14.427-1.5894 23.079-0.903 17.569 0.6947 27.724 7.063 44.893 2.9628 7.988 17.747 34.384 21.318 38.062 2.7682 2.8513 0.8257-2.4441-3.2121-8.7562-3.1802-4.9714-4.7498-9.2811-5.7827-15.877-1.5573-9.9454-0.7845-36.382 1.1344-38.806 0.6522-0.82396 1.8782-4.4512 2.7243-8.0606 1.1437-4.8789 2.1085-6.5625 3.7606-6.5625 3.92 0 5.2964-3.444 7.2445-18.127 1.0488-7.9052 2.351-14.373 2.8938-14.373s1.327 2.6719 1.7426 5.9375c1.2115 9.5197 6.9387 35.365 8.9512 40.395 1.1735 2.9326 2.6166 4.5562 3.9589 4.4538 1.3928-0.10625 3.256 2.181 5.4693 6.7139 6.0427 12.375 7.9138 19.86 7.6258 30.505-0.147 5.434 0.046 10.386 0.4282 11.005 0.3826 0.619 2.068 0.22624 3.7453-0.87282l3.0498-1.9983-0.7808 7.8678c-0.7405 7.4616-0.5127 8.4002 4.411 18.178 11.678 23.192 45.141 49.689 68.276 54.063 3.3758 0.63821 9.794 2.0456 14.263 3.1275 4.4687 1.0819 13.188 2.1654 19.375 2.4078 6.1875 0.24239 16.584 0.87583 23.103 1.4076l11.853 0.96697 6.2721 5.7718c13.227 12.172 16.991 15.07 19.571 15.07 2.4371 0 2.6007-0.47887 1.9028-5.5706-0.4323-3.1539-0.2349-5.8974 0.4551-6.3238 1.9445-1.2018 1.442-5.1244-1.9519-15.234-4.0031-11.925-9.9556-24.151-13.02-26.741-1.2978-1.0969-3.9994-5.5969-6.0036-10-2.0043-4.4031-7.2851-13.349-11.735-19.881-4.4501-6.5312-9.8367-14.969-11.97-18.75-5.7762-10.237-12.481-31.354-16.868-53.125-1.6218-8.0486-0.4854-29.86 2.1817-41.875 2.8187-12.697 1.7256-31.306-2.1731-36.996-1.4659-2.1394-8.2536-7.7686-15.084-12.509-15.345-10.651-20.582-16.46-24.896-27.618-7.8617-20.332-7.3501-32.366 2.1947-51.627 5.655-11.411 8.3365-19.086 10.494-30.032 0.7486-3.7987 2.4753-8.7388 3.8371-10.978 2.2022-3.6211 2.7765-3.9106 5.1927-2.6175 2.7803 1.488 19.511 0.95168 23.818-0.76351 1.6104-0.64129 2.7418 0.16208 4.375 3.1065 3.9875 7.1894 4.6821 7.6595 15.992 10.824 13.574 3.7979 16.868 5.6909 15.959 9.1695-0.5045 1.929-0.062 2.5409 1.8355 2.5409 1.4863 0 2.7776-1.0616 3.1847-2.6181 0.665-2.5431 1.1432-2.5937 16.708-1.7662 21.416 1.1385 35.662-0.7094 47.778-6.1978 5.09-2.3056 9.9566-3.9226 10.815-3.5934 0.858 0.32924 1.8974 2.3972 2.3098 4.5956 0.726 3.8701 1.0545 4.0558 10.35 5.8509 12.097 2.3362 13.063 4.3602 2.6322 5.5165-13.405 1.4861-18.342 3.1891-21.566 7.4388-5.6633 7.4674-17.659 33.701-19.218 42.026-0.8363 4.4673-2.3314 12.06-3.3225 16.872-2.9163 14.162-3.2083 20.263-1.9151 40.026 2.1114 32.267 5.577 57.368 8.5741 62.102 1.1986 1.8931 7.3018 7.2513 13.563 11.907 38.2 28.406 49.846 41.278 59.121 65.34 2.2524 5.8438 5.6364 14 7.5198 18.125 4.2758 9.3641 15.114 24.174 17.171 23.464 2.6345-0.90935 10.237 8.5766 15.506 19.349 2.7746 5.6719 5.5124 10.312 6.0841 10.312 1.0116 0 3.7465-10.65 3.7465-14.59 0-1.5512 0.3725-1.6574 1.7637-0.50277 3.1291 2.5969 3.7865-0.9814 4.2869-23.332 0.5428-24.246-0.7976-42.311-6.0455-81.478-4.7171-35.206-6.1713-53.153-6.5998-81.457-0.2948-19.474-0.7-23.766-2.5035-26.519-2.2604-3.4498-2.9482-12.732-1.0312-13.917 1.6581-1.0248 0.7964-48.15-1.1391-62.298-1.2236-8.944-1.3001-12.589-0.2855-13.603 2.2276-2.2277 4.9948-0.3168 7.8886 5.4476 2.7091 5.3964 7.1316 10.998 8.6826 10.998 0.4573 0 1.5059-1.4802 2.3302-3.2892l1.4987-3.2892 5.5242 6.0171c3.0384 3.3094 6.7383 9.0083 8.2222 12.664 2.497 6.1523 3.0067 6.6472 6.8463 6.6472 6.1493 0 10.561-2.045 10.561-4.8953 0-3.426 1.2462-3.8707 7.1381-2.5468 4.7249 1.0616 13.996 5.9848 14.014 7.4421 0.01 0.34375-1.3402 2.2744-2.9881 4.2902l-2.9961 3.6652-4.7714-2.1464c-3.9943-1.7968-6.1388-1.952-13.166-0.95307-4.6169 0.6563-8.942 1.5317-9.6112 1.9453-1.7204 1.0632 3.1748 13.919 10.909 28.65 3.5594 6.7793 6.4717 12.915 6.4717 13.635 0 0.71978 3.8717 8.1106 8.6038 16.424s10.353 18.607 12.491 22.874 5.5409 9.6423 7.5626 11.945c5.9518 6.7787 9.1845 24.671 9.0181 49.911-0.1248 18.919-2.8006 34.304-10.394 59.761-3.3837 11.344-8.3307 29.062-10.993 39.375-5.4405 21.071-11.912 39.802-24.857 71.95-4.8613 12.072-9.6426 25.036-10.625 28.808-7.3583 28.25-39.539 86.106-81.057 145.73-7.9932 11.479-15.25 23.827-20.567 35-27.2 57.15-36.293 83.617-34.081 99.204 3.4286 24.161-0.4351 73.641-8.9688 114.86-1.3612 6.5746-4.7199 23.347-7.4636 37.272-5.6136 28.491-11.761 50.85-18.301 66.556-8.5972 20.65-21.128 60.338-39.27 124.38-19.591 69.153-40.049 107.3-44.952 119.09-2.7193 6.5355-9.8257 5.6876-15.807-1.8862zm23.354-148.76c2.2602-8.0827 4.0973-20.252 3.3509-22.197-1.0152-2.6456-4.0991-2.3104-7.1912 0.7817-2.39 2.39-2.5642 3.5128-1.7938 11.562 1.4893 15.562 3.2008 18.555 5.6341 9.853zm74.093-454.06c0.186-11.346-0.3783-28.022-1.2541-37.058-1.295-13.36-2.5927-47.893-2.753-73.259-0.029-4.5842-0.1337-4.6875-4.7515-4.6875-6.4694 0-9.4287 2.4368-14.856 12.234-2.557 4.6153-9.3232 16.063-15.036 25.44-14.394 23.626-18.075 31.843-18.153 40.524-0.081 9.0202 2.1155 12.021 14.121 19.294 5.0994 3.089 12.85 9.2765 17.223 13.75 7.3836 7.553 10.261 11.412 19.58 26.259l3.5307 5.625 1.0058-3.7452c0.5531-2.0598 1.158-13.029 1.3441-24.375zm31.353 14.957c4.4917-3.5332 19.013-24.655 23.409-34.049 2.007-4.2889 4.2233-10.826 4.9251-14.526 2.6113-13.769 1.2255-54.583-1.8492-54.462-1.7312 0.0686-33.735 39.778-38.242 47.45-2.5894 4.4075-3.4449 7.1713-2.9019 9.375 0.4235 1.7188 1.4857 8.1875 2.3604 14.375s2.5204 14.344 3.657 18.125c1.1367 3.7812 2.4074 8.9844 2.8238 11.562 0.8728 5.4041 1.4219 5.6069 5.8179 2.149zm-129.36-30.552c12.244-15.783 20.938-33.159 16.591-33.159-1.7645 0-12.823 13.314-20.76 24.994-7.2956 10.736-11.864 19.781-11.864 23.488 0 2.6224 8.1651-5.1812 16.033-15.323zm187.21-54.627c3.8972-6.9436 10.601-20.001 14.896-29.016 18.096-37.975 26.856-56.96 26.856-58.198 0-0.81371-3.9481-1.3394-10.312-1.373-11.98-0.0634-27.301-2.8662-22.188-4.0591 1.7187-0.40091 5.6562-1.0621 8.75-1.4693 7.9991-1.0528 13.417-2.9965 14.226-5.1034 1.4562-3.795-15.94-19.112-19.956-17.571-2.1667 0.83143-10.52 17.704-10.52 21.249 0 1.3403-0.9477 3.484-2.106 4.764-3.486 3.852-18.363 43.548-18.409 49.12-0.023 2.75 1.4431 11.469 3.2573 19.375 1.8143 7.9062 3.966 19.294 4.7816 25.307 0.8156 6.0126 1.9677 10.632 2.5603 10.266 0.5925-0.3662 4.2659-6.3469 8.163-13.291zm-180.83-70.987c1.4689-0.78611 3.5028-0.74705 5.8553 0.11237 2.6739 0.97688 4.8863 0.88444 8.5678-0.35799 4.2462-1.433 5.2811-2.5322 7.1646-7.6101 1.2108-3.2644 2.3524-8.3269 2.5369-11.25l0.3354-5.3148h-4.5691c-2.5131 0-4.9277-0.35207-5.3658-0.78239-1.2727-1.2501-39.902 0.34535-41.628 1.7193-3.6382 2.8971-1.2865 10.406 4.9607 15.84 8.6006 7.4804 17.018 10.386 22.142 7.6438zm43.546-6.9802c10.558-4.4113 12.952-10.595 6.5734-16.974-3.1103-3.1103-4.1291-3.495-6.25-2.3599-1.3937 0.74588-3.4171 2.7039-4.4964 4.3512-2.812 4.2917-6.8056 15.232-5.8932 16.145 1.3118 1.3118 5.2266 0.85974 10.066-1.1624zm107.79-30.088c0-1.0312-0.5625-1.5274-1.25-1.1025s-1.25 1.6163-1.25 2.6475 0.5625 1.5274 1.25 1.1025 1.25-1.6163 1.25-2.6475zm-181.75-6.4341c1.9766-1.3198 4.2496-5.9872 4.2496-8.7261 0-3.1954-4.0412-5.8963-23.75-15.873-9.2813-4.6984-18.074-9.4771-19.54-10.619-4.456-3.473-12.774-5.7604-14.537-3.9976-1.1692 1.1692-0.8641 2.7042 1.3773 6.9293 4.7025 8.8642 10.548 13.34 30.575 23.407 21.43 10.773 19.795 10.102 21.625 8.8797zm182.79-7.9689c2.1772-4.2216 3.9586-8.6533 3.9586-9.8484 0-2.1663-3.5615-4.1123-10.512-5.7436l-3.6371-0.85364 0.7658 9.93c1.3014 16.876 3.3508 18.293 9.4248 6.5156zm-44.643 2.3631c0.3846-4.058-3.4719-15.938-5.1739-15.938-0.5149 0-1.3283 3.1387-1.8076 6.9748-0.7412 5.9326-0.5293 7.2341 1.4185 8.7102 2.8747 2.1786 5.3697 2.2919 5.563 0.25245zm157.87-38.865c6.3317-24.322 9.9209-58.875 10.018-96.447 0.091-34.905-0.9461-45.053-6.3569-62.221-5.3722-17.046-5.9197-12.668-4.7177 37.723 1.6019 67.155 1.2845 98.285-1.16 113.78-1.1308 7.168-2.056 13.89-2.056 14.938 0 3.8062 2.3897-0.54168 4.2721-7.7729zm-91.904-49.885c-0.8084-1.5469-5.6618-6.8693-10.785-11.828-13.452-13.018-18.359-14.078-11.757-2.5386 4.552 7.956 6.2832 9.6042 14.549 13.851 8.089 4.1561 9.9588 4.2766 7.9933 0.51516zm-29.27-10.895c1.2601-2.0389-3.8871-10.585-9.3452-15.516-5.7242-5.1715-10.941-5.886-10.234-1.4017 2.0088 12.74 6.1235 18.125 13.85 18.125 2.7407 0 5.3188-0.54321 5.7291-1.2071zm-36.634-14.612c5.5687-5.0396 1.1911-7.9313-12.007-7.9313-10.168 0-10.619 0.37749-7.5501 6.3121 1.798 3.477 2.3466 3.6879 9.5891 3.6879 5.394 0 8.3628-0.61615 9.9679-2.0687zm-65.214-9.8063c0-1.9444-0.7083-3.125-1.875-3.125-1.8749 0-2.6141 3.8442-1.0417 5.4167 1.6995 1.6995 2.9167 0.74318 2.9167-2.2917zm66.677-47.656c-0.109-0.60156-1.3844-8.125-2.8341-16.719-2.328-13.8-4.2729-21.048-9.1765-34.199-1.2178-3.2661-1.746-3.5187-6.127-2.9311-4.0278 0.54024-5.181 0.15152-7.2125-2.4311-2.0062-2.5505-2.3997-4.9867-2.3097-14.301 0.097-10.047-0.1816-11.497-2.6512-13.798-2.5451-2.3711-3.3699-2.4649-10.603-1.2053-4.3136 0.75117-10.609 1.4218-13.99 1.4904-8.98 0.18201-12.333 1.4035-12.804 4.6648-0.6492 4.4958 3.5797 10.69 27.347 40.055 3.1299 3.867 7.6002 9.8434 9.9341 13.281 8.2842 12.202 25.972 28.92 29.29 27.685 0.7346-0.2735 1.2464-0.98947 1.1374-1.591zm138.07-10.719c0.825-0.825 1.5-2.9498 1.5-4.7219 0-1.772 0.7858-4.3438 1.7463-5.715 2.8404-4.0554 4.9006-20.664 3.1048-25.032-0.8269-2.0111-1.5719-7.594-1.6554-12.407-0.2409-13.869-4.622-19.544-12.028-15.581-1.7331 0.92756-2.4178 2.6266-2.4178 6 0 2.5883-0.5976 5.3036-1.328 6.034-3.1193 3.1193-2.0664 22.543 2.225 41.047 2.6976 11.632 4.953 14.275 8.853 10.375zm-6.5347-76.409c0.8293-2.1612-1.5299-8.3406-3.1844-8.3406-1.4051 0-1.7873 7.827-0.4476 9.1667 1.3337 1.3337 2.9437 0.96751 3.632-0.8261zm-201.97-22.091c1.6009-1.3885 4.6767-2.5 6.9179-2.5 3.1611 0 4.7759-0.97082 7.453-4.4807 2.5142-3.2962 3.049-4.8493 2.0234-5.875-0.7669-0.76685-1.3943-2.6808-1.3943-4.2533 0-2.7985-0.2052-2.8429-9.6875-2.0955-5.3281 0.41996-10.438 1.4641-11.354 2.3204-2.3185 2.1657-2.1004 12.593 0.3413 16.32 2.4147 3.6852 2.1343 3.6574 5.7004 0.56457zm26.464-17.069c2.6781-2.4236 3.0129-5.4313 0.6046-5.4313-2.3558 0-6.2345 4.566-5.2424 6.1712 1.1201 1.8124 1.9667 1.6773 4.6378-0.73998zm-64.004-19.369c-0.8517-4.0133-2.3473-8.2847-3.3235-9.492-1.5735-1.9458-1.7183-1.4146-1.2756 4.68 0.5724 7.881 4.6419 18.447 5.5815 14.492 0.3114-1.3107-0.1307-5.6667-0.9824-9.68zm71.055-13.889c0.31-1.6096-0.4156-2.1732-2.7982-2.1732-3.0558 0-4.3042 2.2458-2.3401 4.2099 1.5052 1.5052 4.7001 0.23874 5.1383-2.0367zm-191.88 732.36c-0.5578-0.97172-3.1439-2.6508-5.7468-3.7313-5.3861-2.2359-8.0602-7.1794-9.0699-16.767l-0.6226-5.9121 2.5842 5.625c4.0483 8.812 11.143 12.731 14.885 8.222 0.8116-0.97792 3.1305-2.3549 5.1531-3.06 3.4356-1.1977 3.6774-1.075 3.6774 1.8653 0 2.9043-6.016 13.158-8.6894 14.81-0.6363 0.39329-1.6134-0.08-2.1713-1.0517zm-16.715-47.752c-0.8976-1.0815-3.779-3.0617-6.4031-4.4004s-4.7711-2.9162-4.7711-3.5056c0-2.2664 3.7147-3.9672 10.012-4.5844 3.6043-0.35323 8.0985-1.4413 9.9871-2.4179 4.6782-2.4192 5.3445-1.1996 2.4471 4.4796-1.3455 2.6375-2.4464 6.1585-2.4464 7.8244 0 2.0845-0.877 3.264-2.8125 3.7827-3.9632 1.0621-4.1908 1.0175-6.0133-1.1785zm-87.424-490.28c0-2.9632 0.7839-5.6017 1.9524-6.5714 1.7311-1.4368 1.9082-0.93416 1.5625 4.4367-0.4873 7.5703-3.5149 9.4091-3.5149 2.1347zm58.017-83.695c4.6492-9.1252 13.149-22.79 13.201-21.223 0.061 1.8515-7.5909 17.758-11.395 23.686-5.6433 8.7942-6.763 7.2668-1.8058-2.4632zm466.46-35.145c-0.5385-0.87125-0.6415-1.9217-0.2289-2.3343 1.1187-1.1187 2.3385 0.52662 1.7343 2.3393-0.4234 1.2702-0.7179 1.2692-1.5054-5e-3zm-82.897-18.002c-1.4451-2.9102-4.6098-9.2287-7.0326-14.041-5.6172-11.157-14.697-33.393-13.944-34.147 0.3162-0.31624 1.1042 0.76866 1.7511 2.4109 3.8447 9.7603 5.5252 12.588 8.2065 13.81 2.2432 1.0221 3.9521 4.0664 6.8175 12.145 2.1031 5.9296 4.0637 12.187 4.3568 13.906 0.2932 1.7188 1.163 4.7499 1.933 6.7359 2.1696 5.5959 0.838 5.0733-2.0882-0.81965zm-26.288-55.916c-4.2878-6.7361-3.2455-10.333 1.4808-5.1105 1.294 1.4299 1.99 3.8143 1.7332 5.9375l-0.4292 3.548z" filter="url(#as)" opacity=".15"/>
   <path d="m2206.9 1116c-6.7353-3.4576-8.1006-3.7682-11.124-2.531-5.1625 2.1125-6.0512 1.7689-6.0512-2.3396s-1.1843-4.7786-3.3138-1.875c-2.2627 3.0853-4.1606 2.151-5.7134-2.8125-1.0749-3.4364-0.6443-22.31-0.6443-46.135 0-29.6 0.2509-33.485 2.8125-43.536 2.4302-9.536 2.8125-14.261 2.8125-34.759 0-13.048-0.9023-37.894-2.0052-55.214-2.1004-32.986-1.7734-69.743 0.7765-87.289 7.9365-54.612 15.781-79.054 40.865-127.33 14.009-26.959 16.547-31.039 38.218-61.433 10.078-14.134 19.831-28.605 21.674-32.157 3.9194-7.5544 4.0534-7.0523-6.6161-24.775-12.468-20.71-27.339-34.513-43.086-39.989-13.801-4.7996-18.831-3.0396-32.319 11.308-3.7765 4.0175-9.1202 8.4501-11.875 9.8502-2.7547 1.4001-9.2695 6.2636-14.477 10.808-5.2079 4.5442-11.542 9.9497-14.075 12.012-3.8155 3.1063-5.5633 6.2992-10.182 18.601-6.0256 16.049-9.026 21.654-10.69 19.97-1.0158-1.0284 0.7413-19.796 2.0518-21.916 0.3501-0.56635-0.8282-1.0297-2.6184-1.0297-2.3959 0-6.2916 2.923-14.761 11.076-11.838 11.395-16.278 14.599-18.407 13.283-2.1661-1.3387-1.3385-4.1692 4.4008-15.051 3.1533-5.9788 5.625-12.363 5.625-14.529 0-6.907 2.783-13.618 6.9726-16.813 2.2496-1.7158 5.2256-5.9179 6.7809-9.5744 1.5244-3.584 3.6452-7.5057 4.7128-8.7149s3.7647-7.3967 5.9936-13.75c2.886-8.2263 4.3072-10.916 4.9372-9.3453 0.4866 1.2134 0.5559 3.4634 0.154 5-0.4018 1.5366-0.3933 4.9032 0.019 7.4813 1.5263 9.5451 7.3148 4.8792 20.436-16.472 8.2491-13.424 15.053-21.671 15.884-19.253 0.2762 0.80426-1.4297 6.148-3.7909 11.875-4.9173 11.926-6.6325 18.538-4.8095 18.538 2.0081 0 13.376-12.196 23.885-25.625 5.3802-6.875 16.88-23.586 25.556-37.135s21.679-33.016 28.897-43.26 13.123-19.223 13.123-19.953c0-1.545-3.5187-2.3168-15.625-3.4272-13.964-1.2808-31.69-5.0826-42.5-9.1156-17.992-6.7122-40.952-18.496-45.625-23.415-4.0722-4.2873-4.1587-4.5379-1.25-3.6208 1.7188 0.54191 4.4978 0.88528 6.1757 0.76307 1.7901-0.1304 4.4107 1.0809 6.3423 2.9314 3.7652 3.6073 22.464 11.858 26.875 11.858 1.6196 0 4.525 0.60081 6.4564 1.3352s6.8899 1.8127 11.019 2.3964c4.1289 0.58369 10.038 1.8828 13.132 2.8868 10.737 3.4847 22.318 5.8816 28.418 5.8816 5.2363 0 6.9021-0.6589 11.4-4.5093 6.508-5.5706 10.182-12.529 10.182-19.284 0-4.5256-0.8237-6.0062-6.8659-12.341-9.1112-9.5521-18.382-14.247-27.71-14.032-3.8596 0.089-9.0497 0.70129-11.533 1.3607-5.7364 1.5229-14.81 2.0526-15.932 0.93008-0.4728-0.47284 0.1236-1.9463 1.3255-3.2744 3.3315-3.6812 1.9296-6.637-4.9245-10.383-7.0751-3.8668-23.687-9.7177-27.59-9.7177-1.5108 0-3.3173-1.3458-4.319-3.2175-1.1807-2.2062-6.453-5.5898-16.774-10.765-16.012-8.0284-30.199-17.404-40.961-27.069-13.589-12.204-20.704-17.717-25.39-19.675-9.3465-3.9052-16.566-11.335-27.118-27.907-1.7329-2.7214-1.9207-4.2616-0.9375-7.6896 0.6761-2.3576 1.2325-7.1028 1.2363-10.545 0.01-7.9202 2.0611-15.53 5.0677-18.791 1.9292-2.0923 2.3972-4.917 2.6927-16.25l0.3576-13.717 5.4121 15.617c6.1777 17.826 7.4452 20.025 9.7369 16.891 1.3912-1.9026 1.7195-1.8046 3.6074 1.0766 4.0577 6.1928 5.6836 14.463 4.8377 24.606-0.7081 8.4906-0.5183 9.885 1.6394 12.043 1.3422 1.3422 3.1753 5.0654 4.0736 8.2739 4.2661 15.237 22.809 38.423 40.522 50.668 10.765 7.4419 26.314 15.2 30.464 15.2 1.575 0 6.9346 1.1411 11.91 2.5358 5.3889 1.5105 14.859 2.8189 23.422 3.2361 7.9063 0.38521 18.796 1.4941 24.201 2.4642 5.4041 0.97012 9.9765 1.7639 10.161 1.7639s1.04 1.7016 1.9015 3.7812c1.7869 4.3141 19.454 20.409 25.641 23.36 7.5499 3.6004 8.241 2.3099 7.6597-14.304-0.4004-11.444-1.2376-16.933-3.7691-24.712-5.8233-17.894-24.637-52.582-32.645-60.192-11.72-11.136-18.888-26.284-25.004-52.843-1.7446-7.5755-3.5235-17.931-3.953-23.013-0.7036-8.323-0.4457-9.9685 2.6007-16.596 4.2876-9.3275 5.2466-20.078 3.2471-36.4-1.861-15.192-3.4228-17.484-20.666-30.331-14.082-10.492-18.533-15.685-21.844-25.489-3.1693-9.3848-3.1762-13.495-0.038-22.616 3.0381-8.8304 4.1553-10.259 8.8273-11.285l3.6479-0.80121-0.6897-15.217c-0.6797-14.997 0.681-18.205 2.4774-5.8416 0.9537 6.5636 9.3186 24.064 11.861 24.814 1.4184 0.41864 1.6204-1.1877 1.0871-8.6413-0.8066-11.274-9.5481-40.179-11.892-39.322-0.9823 0.35918-1.5625-0.57448-1.5625-2.5144 0-3.3073 1.1734-3.9124 3.3554-1.7304 0.7455 0.74549 4.7892 1.6668 8.9861 2.0474 7.5259 0.68242 7.6878 0.62951 11.796-3.8554 2.2909-2.501 4.7848-4.5474 5.542-4.5474 3.2755 0 4.1887 9.0022 3.9517 38.953-0.2437 30.804-0.04 33.672 3.4767 48.968 2.1523 9.3613 9.0655 20.868 26.354 43.866 22.585 30.042 39.532 48.128 51.435 54.889 6.3508 3.6073 12.571 11.3 11.732 14.51-1.1879 4.5424 2.1591 11.113 8.2649 16.225 8.4788 7.0988 11.633 8.0891 15.664 4.918l3.2326-2.5427 5.4036 3.1667c6.3884 3.7438 18.946 15.993 21.542 21.012 1.9702 3.81 0.6215 4.802-2.0888 1.5364-5.3133-6.4022-23.663-18.001-28.478-18.001-2.1144 0-2.3436 0.65084-1.7602 5 0.8292 6.1823-0.4744 6.3648-7.814 1.0939-4.3794-3.145-6.8548-3.9664-12.704-4.2156-3.9958-0.17023-13.171-0.96588-20.39-1.7681-7.2188-0.80223-16.941-1.8795-21.606-2.394-4.6644-0.51445-9.1374-0.52954-9.9399-0.0335-2.1497 1.3286 3.541 12.746 9.3221 18.703 3.2381 3.3367 4.7235 5.996 4.7235 8.4569 0 5.4688 4.4075 14.264 10.516 20.985l5.4968 6.0476 3.8313-2.2362 3.8313-2.2362 1.7846 4.2711c0.9815 2.3491 2.3293 4.6078 2.995 5.0192 2.4869 1.537 4.9598-3.8958 6.5288-14.343 2.0964-13.959 0.4096-21.1-4.9841-21.1-1.2067 0-2.9659-0.93443-3.9095-2.0765-1.5528-1.8795-1.3598-1.9886 2.0345-1.1493 2.0625 0.50994 5.8868 1.2248 8.4985 1.5886 3.181 0.4431 5.4058 1.6646 6.7398 3.7006 1.0952 1.6715 4.4342 4.4708 7.42 6.2205 4.9987 2.9295 5.928 3.0744 11.733 1.8294 5.7408-1.2312 6.72-1.0912 10.956 1.5663 11.974 7.5113 25.488 14.588 26.575 13.916 0.6613-0.40872 1.2024-1.5869 1.2024-2.6181 0-3.7394 2.5992-0.0804 10.136 14.269 4.2259 8.0456 9.5803 18.212 11.899 22.591 4.7506 8.9746 5.3225 14.844 2.2054 22.634-2.3041 5.7587-1.6518 8.7778 1.8967 8.7778 1.356 0 2.8144 0.56456 3.2409 1.2546 1.046 1.6924 7.118 0.17209 9.0597-2.2684 0.8593-1.0802 1.5625-3.8941 1.5625-6.2531 0-3.5954 0.2917-4.047 1.8035-2.7923 2.3092 1.9165 7.985 19.15 8.4589 25.684l0.3626 5 2.1632-3.9535c3.5587-6.5038 8.3342-27.108 9.8275-42.401 1.504-15.403 0.1157-45.335-3.2419-69.896-0.9398-6.875-2.0447-17.562-2.4553-23.75l-0.7466-11.25 2.9843 7.5c1.6413 4.125 3.6137 9.0469 4.3831 10.938 3.0116 7.4011 6.0448 2.6785 7.4263-11.562 0.5012-5.1677 1.4703-9.2452 2.1594-9.0859 1.275 0.29492 1.5577 2.9989 4.3946 42.029 2.8295 38.928-0.6361 62.422-16.069 108.93-8.0579 24.284-9.1263 28.75-6.8777 28.75 2.1056 0 12.608-15.824 17.344-26.133 4.1261-8.9809 8.5795-27.082 13.099-53.242 9.7097-56.201 9.3117-52.663 9.2811-82.5-0.021-20.536-0.6195-31.884-2.2181-42.056-3.0018-19.102-7.7267-36.217-11.855-42.944-1.8988-3.0938-5.0241-10.125-6.9453-15.625-1.9211-5.5-5.3579-13.938-7.6373-18.75s-6.7769-16.063-9.9945-25c-3.2175-8.9375-6.3669-16.784-6.9985-17.438-0.6317-0.65312-1.1154-5.7156-1.0749-11.25 0.061-8.2845 0.3366-9.6474 1.5625-7.7133 0.8189 1.2921 3.7991 5.1017 6.6227 8.4659 3.7286 4.4425 4.9781 6.9308 4.5651 9.091-0.3633 1.9007 0.3439 3.8867 1.9592 5.502 3.4898 3.4898 5.217 7.0013 5.217 10.607 0 1.6798 0.8719 3.7778 1.9377 4.6623 1.6003 1.3281 2.2978 1.2481 4.0055-0.45963 1.7585-1.7585 1.8426-2.6907 0.5623-6.2314-0.8281-2.29-1.5056-5.2569-1.5056-6.5933s-1.0169-4.3902-2.2598-6.7862c-2.3015-4.4366-2.0835-11.262 0.3848-12.049 1.793-0.57212 6.875 7.7355 6.875 11.239 0 1.6258 0.6209 4.7371 1.3797 6.9139 1.1115 3.1884 0.9983 4.5401-0.5824 6.9527-1.7548 2.6782-1.7709 3.8983-0.1515 11.541 0.9959 4.7005 1.8389 12.765 1.8733 17.921 0.062 9.3566 0.6852 11.729 8.0401 30.625 8.7769 22.55 12.24 39.089 15.074 71.996 2.5289 29.366 4.3647 43.629 5.6154 43.629 1.6337 0 7.4072-12.027 9.4577-19.702 1.054-3.945 2.2405-15.329 2.6366-25.298 0.8128-20.453-0.7931-32.155-7.1635-52.202-2.0234-6.3676-3.659-12.274-3.6346-13.125 0.1086-3.7955 9.302 16.662 15.033 33.452 3.061 8.9676 3.5345 9.6876 4.5872 6.9738 1.5814-4.077 2.4878-2.182 4.1999 8.7798 3.0348 19.431-0.1685 43.597-10.67 80.496-3.7177 13.062-8.4688 30.257-10.558 38.211-4.7083 17.924-13.437 41.926-26.279 72.265-8.9077 21.043-18.857 46.484-18.857 48.218 0 0.37284-2.3408 5.8818-5.2018 12.242-12.783 28.418-41.211 75.698-67.613 112.45-12.739 17.733-36.942 67.855-46.947 97.225l-4.4763 13.14 0.3219 33.75c0.435 45.598-0.7059 55.482-14.356 124.38-8.6497 43.655-13.777 62.898-22.298 83.692-8.9964 21.953-29.302 87.848-47.522 154.22-7.0535 25.693-19.8 49.263-23.128 53.975-3.8678 5.4765-10.296 5.696-20.057 0.685zm20.044-109.02c1.3834-9.17 2.8746-22.705 3.3138-30.077 0.7171-12.039 0.5762-13.489-1.384-14.242-1.5774-0.6053-3.9348 0.9147-8.5021 5.4821l-6.3196 6.3196 1.5329 15.422c1.3763 13.847 3.8688 28.768 5.8992 35.313 1.3345 4.3025 2.8001-0.588 5.4598-18.218zm-0.4339-131.98c1.5294-3.6602 1.8253-7.8069 1.3602-19.062-0.9119-22.073-2.9578-24.451-7.0387-8.18-1.6712 6.663-2.6535 14.53-2.6535 21.25 0 10.605 0.02 10.67 3.1888 10.67 2.5021 0 3.6097-1.0073 5.1432-4.6778zm95.658-302.54c18.008-23.014 32.515-44.375 38.227-56.291l4.379-9.1344-0.7464-20.241c-0.6497-17.618-3.2513-37.434-5.166-39.349-1.1097-1.1097-4.4779 2.4911-13.463 14.393-10.188 13.495-24.111 28.802-25.222 27.729-0.4191-0.40477 2.3868-5.7485 6.2355-11.875 7.2148-11.485 18.83-32.221 21.501-38.385 1.8703-4.3162 1.956-16.115 0.1639-22.569-1.2042-4.3369-1.6695-4.7489-4.6805-4.1453-7.7851 1.5606-42.985 14.244-43.974 15.845-1.1562 1.8708-0.3716 7.939 1.4994 11.597 0.6278 1.2272 1.3519 13.422 1.6092 27.1s0.8532 27.439 1.3243 30.58c0.8789 5.8609-1.436 21.964-3.1575 21.964-0.5211 0-1.3002-2.6719-1.7314-5.9375-1.1144-8.4398-3.2577-58.741-3.0883-72.478 0.174-14.109-0.8404-15.869-8.6389-14.99-7.0815 0.79819-8.9481 2.6661-17.666 17.679-4.0249 6.9311-11.98 20.477-17.679 30.102-11.236 18.979-18.716 34.09-18.716 37.809 0 3.4397 5.3712 7.8484 18.75 15.39 14.375 8.1037 25.99 19.49 35.201 34.51 7.8736 12.839 9.3721 14.246 10.912 10.245 1.3627-3.5408 2.0945-1.9945 3.1108 6.5731 0.8097 6.8261 3.0997 12.347 5.1216 12.347 0.7939 0 7.9466-8.3108 15.895-18.469zm64.934-97.23c9.0281-15.884 42.869-85.424 44.252-90.934l0.823-3.2793-6.3744 0.75497c-6.5562 0.77647-8.0901-0.36328-4.4994-3.3433 2.6854-2.2287 2.3308-4.8328-1.3889-10.2-4.034-5.821-15.467-14.8-18.845-14.8-3.5713 0-5.9576 3.1261-11.018 14.434-2.4467 5.4677-5.2755 11.629-6.2863 13.691-3.6001 7.3466-17.174 43.815-17.679 47.5-0.2831 2.0625 0.9158 9.9375 2.6641 17.5s4.1102 20.658 5.2486 29.102c1.2187 9.0384 2.5941 15.177 3.3447 14.927 0.7011-0.23372 5.0926-7.142 9.7589-15.352zm-95.215-59.123-0.042-3.3038-2.4517 2.9427c-2.6445 3.1742-2.2705 5.5088 0.6999 4.369 1.0092-0.38729 1.8163-2.1908 1.7934-4.0079zm75.278-12.975c1.6785-5.6022 0.854-6.8516-3.2791-4.9684-4.694 2.1388-5.7809 5.2136-3.6346 10.283 1.7787 4.2005 1.9109 4.2683 3.6724 1.8815 1.005-1.3618 2.4636-4.5998 3.2413-7.1956zm-33.674-19.325c1.7827-1.0001 0.9198-4.226-3.4532-12.91-2.4149-4.7953-5.1402-8.7188-6.0563-8.7188-3.6114 0-9.553 10.045-9.553 16.15 0 3.4173 0.5615 3.944 5.9375 5.5696 5.2308 1.5817 10.204 1.5471 13.125-0.0914zm35.758-9.6711c4.4232-2.3017 8.0936-6.4781 11.289-12.845 3.7923-7.5566 3.5068-12.35-0.8703-14.614-2.2721-1.1749-4.1471-1.4136-5.3125-0.67624-2.5647 1.6227-3.6761 1.4437-3.6761-0.5921 0-2.746-9.4233-9.5511-15.943-11.513-8.8067-2.6504-9.5442-1.9515-8.69 8.2369 0.6067 7.2364 3.8954 27.294 5.2484 32.01 0.5714 1.9913 14.125 1.9867 17.955-6e-3zm-57.218-7.2698c4.4792-4.6672 7.3886-10.11 7.3935-13.832 0.01-4.1476-6.6149-18.118-14.075-29.703-2.9123-4.5221-12.198-15.047-20.636-23.388-14.972-14.802-15.492-15.5-21.618-29.078-4.4869-9.9446-6.996-17.712-8.7989-27.237-1.3871-7.3288-3.0498-15.724-3.6948-18.655-0.6451-2.9317-1.1728-17.328-1.1728-31.991 0-25.512-0.1255-26.898-2.9133-32.17-1.6023-3.03-3.4304-5.2278-4.0625-4.8841-0.6515 0.3543-1.2587 17.137-1.4019 38.75-0.2841 42.857-0.031 44.673 8.5164 61.024 7.4866 14.323 8.6621 16.368 14.548 25.307 2.9715 4.5135 6.4683 11.545 7.7707 15.625 1.3023 4.0803 4.359 12.288 6.7927 18.238 2.4336 5.9509 5.6051 15.232 7.0476 20.625 3.1132 11.638 5.7501 17.333 12.499 26.993 5.6466 8.0816 9.1747 9.1997 13.805 4.375zm-141.9 435.75c0.472-2.6458 3.4045-13.529 6.5166-24.186s6.958-24.087 8.5466-29.846c4.8008-17.405 5.8922-13.954 1.8232 5.7643-4.4444 21.537-20.102 66.291-16.886 48.267zm-101.01-101.96c-3.538-1.2176-4.7082-3.4747-1.8014-3.4747 1.9858 0 6.7346 3.3228 5.8619 4.1017-0.3426 0.30585-2.1699 0.0238-4.0605-0.62696zm67.188-351.78c-14.269-7.3382-25.585-15.471-35.754-25.695-7.6724-7.7139-10.843-12.147-15.996-22.369-3.5352-7.0118-6.2233-12.953-5.9735-13.203 0.2497-0.24977 6.3086 6.1372 13.464 14.193 18.538 20.871 31.303 33.023 44.573 42.434 6.3594 4.5101 11.562 8.4228 11.562 8.695 0 1.3665-3.9646 0.0125-11.875-4.0558zm-82.359-95.226c-1.7405-2.7572-3.7499-5.3748-4.4652-5.8169-0.7154-0.44211-1.3007-1.6833-1.3007-2.7581 0-2.9409 2.9657-0.0813 6.9286 6.681 4.1294 7.0463 3.1238 8.6843-1.1627 1.894zm-11.939-22.18c-4.459-11.918-5.7401-21.664-5.2154-39.68 0.2428-8.3395 2.638-3.6841 2.6484 5.1476 0.01 5.0681 1.4797 14.274 3.7402 23.364 4.0706 16.368 4.3216 18.125 2.5898 18.125-0.6381 0-2.3314-3.1305-3.763-6.9566zm265.91-117.42c-0.4493-1.375-1.4468-5.875-2.2166-10s-3.1202-11.335-5.2233-16.022c-3.7533-8.3658-3.7928-8.6612-2.1469-16.08 0.9221-4.1567 2.6713-8.7046 3.8872-10.106 1.2158-1.4018 2.2105-3.6156 2.2105-4.9196s0.8844-4.0812 1.9654-6.1716 1.6319-4.6701 1.2242-5.7326c-0.6312-1.6448-1.1555-1.5372-3.528 0.72395-16.127 15.37-16.526 15.686-16.962 13.425-0.2389-1.2405 1.2167-4.024 3.2346-6.1857s6.3775-7.5866 9.688-12.055c3.3104-4.4688 7.8469-10.094 10.081-12.5s4.2598-5.4826 4.5014-6.8363c0.3604-2.0202 2.1178-2.7313 9.8045-3.9673 12.755-2.0511 15.368-2.0141 18.189 0.2572 1.98 1.5941 2.0931 2.0885 0.6148 2.6872-0.9964 0.40351-3.9076 2.7588-6.4695 5.234-7.4662 7.2136-22.344 42.132-22.344 52.442 0 1.6226-0.824 6.6868-1.8311 11.254-1.0071 4.5671-2.2883 12.523-2.847 17.679-0.6317 5.8292-1.3249 8.4295-1.8328 6.875zm173.97-13.194c-2.2626-4.2278-0.741-5.3355 1.6858-1.2272 1.2334 2.0881 1.6681 3.7965 0.9659 3.7965-0.7021 0-1.8954-1.1562-2.6517-2.5693z" filter="url(#at)" opacity=".15"/>
   <path d="m2212.8 1100.4c-6.2556-3.2014-9.4456-4.1523-12.13-3.6154l-3.6421 0.7284-0.3702-9.1072c-0.2353-5.7876-0.928-9.2916-1.9005-9.6131-0.8662-0.2863-3.0133 2.518-4.9479 6.4625-6.8537 13.974-8.5254 8.2245-8.5128-29.282 0.01-23.68 0.3597-28.435 2.9591-40 2.7922-12.423 2.9124-14.73 2.2459-43.125-0.3873-16.5-1.344-40.688-2.1259-53.75-2.5454-42.519 0.5147-86.481 8.3094-119.38 6.007-25.35 12.662-43.601 25.354-69.53 16.335-33.372 22.774-43.938 48.278-79.22 25.421-35.166 26.702-37.964 21.803-47.607-6.9509-13.68-20.968-31.248-31.825-39.888-11.294-8.9865-22.828-13.976-34.04-14.726-11.039-0.73824-12.294-0.0369-22.229 12.422-7.2025 9.0326-24.257 25.234-35.964 34.164-3.2874 2.5077-7.3774 6.7778-9.089 9.4891-2.623 4.155-3.5958 4.8083-6.1905 4.1571-4.3665-1.0959-12.961 4.2642-24.602 15.344-5.2845 5.0296-10.206 9.1448-10.938 9.1448-2.6211 0-1.1872-5.7472 3.1188-12.5 2.4111-3.7812 5.7838-11.302 7.4948-16.712 1.711-5.4103 4.2009-11.223 5.5331-12.916 1.3322-1.6936 3.6131-6.267 5.0686-10.163 3.8722-10.365 5.13-11.389 12.99-10.578 8.2907 0.85567 11.525-1.0954 17.121-10.329 4.5922-7.577 6.7965-8.7499 5.6475-3.0048-1.1986 5.993 2.1999 6.1725 8.1896 0.4325 13.509-12.946 27.589-31.613 51.292-68 7.8301-12.021 20-30.012 27.044-39.981 10.331-14.621 12.686-18.756 12.181-21.387-0.4724-2.4621 0.047-3.6242 2.1203-4.7402 1.5104-0.8131 6.543-6.6255 11.184-12.916l8.4375-11.438 0.014-10.072c0.024-17.168 2.5031-25.445 4.3491-14.519 1.141 6.7538 3.5859 8.6378 7.2108 5.557 1.5273-1.298 3.5174-3.3444 4.4225-4.5475 1.7065-2.2685 5.2538-3.0088 5.2538-1.0964 0 1.6795-5.9721 15.617-12.029 28.073-1.8973 3.9016-2.2599 11.801-0.6577 14.327 0.5637 0.88853 2.6231 2.043 4.5765 2.5654l3.5516 0.94985-4.9081 2.4216c-2.6995 1.3319-5.4707 2.4275-6.1582 2.4346-0.7155 7e-3 -1.25-3.7283-1.25-8.737 0-6.9073-0.3911-8.75-1.8572-8.75-2.107 0-10.018 11.424-10.018 14.467 0 1.0974-1.641 3.4574-3.6468 5.2445-2.0057 1.7871-6.0368 7.3645-8.958 12.394-2.9213 5.0296-10.03 17.02-15.798 26.645s-13.965 24.445-18.216 32.933l-7.7288 15.433 3.2416 2.7883c1.7829 1.5336 9.6517 6.37 17.486 10.748 16.992 9.4947 28.989 20.736 37.324 34.974 3.0186 5.1562 6.7254 10.781 8.2374 12.5s4.3017 6.6406 6.1994 10.938c1.8976 4.2969 4.1191 7.8125 4.9366 7.8125 2.0628 0 4.6848-3.0787 19.695-23.125 16.407-21.911 32.005-45.45 37.437-56.494 4.0242-8.1819 4.1568-8.9326 3.9079-22.127-0.4064-21.551-5.2387-49.504-8.5577-49.504-0.957 0-4.4276 3.362-7.7123 7.471-6.1446 7.6865-8.7069 8.1859-4.3809 0.85386 4.9488-8.3876 7.9684-18.514 7.1181-23.872-1.3992-8.8155-4.4986-18.344-6.1763-18.988-0.889-0.34115-3.7914 0.29736-6.4498 1.4189-7.5106 3.1686-27.326 9.3663-29.946 9.3663-1.5129 0-0.015-1.575 4.1918-4.4082 3.6002-2.4245 6.5459-4.9558 6.5459-5.625s1.7154-1.2168 3.812-1.2168c6.0217 0 10.742-3.081 11.646-7.6019 1.2656-6.3277 1.0025-7.0802-2.9578-8.4608-4.5685-1.5926-4.7242-3.0115-0.625-5.6974 2.3016-1.5081 3.125-3.1484 3.125-6.2258 0-5.3164-8.0888-21.636-11.216-22.628-2.3692-0.75195-3.0346-2.713-4.4572-13.136l-0.7678-5.625 6.3454 0.43314 6.3455 0.43315v4.9292c0 5.4432 3.3142 12.921 7.3409 16.562 2.3501 2.1254 2.684 2.1569 3.389 0.31968 1.289-3.3592 2.7653-1.1773 4.3346 6.407 0.8156 3.9411 2.6372 9.4157 4.0482 12.166 4.1871 8.1607 4.6373 9.2511 4.6373 11.233 0 3.3942 2.586 1.9914 4.4198-2.3976 0.9857-2.3592 2.3862-4.6566 3.1121-5.1052 0.7258-0.44862 0.9921-1.848 0.5917-3.1097-0.5167-1.6277 0.066-2.546 2.0061-3.1618 7.4628-2.3686 21.784-20.939 20.896-27.097-0.4618-3.2024-7.6472-8.4873-11.539-8.4873-1.4544 0-5.4993-1.9227-8.9888-4.2726-7.4143-4.9931-13.681-6.8962-22.413-6.8064-4.1034 0.0422-7.7983-0.80265-10.625-2.4295-2.3836-1.3719-9.0491-3.4912-14.812-4.7096l-10.479-2.2153-11.535-11.346c-6.3442-6.2402-13.16-13.858-15.146-16.928s-5.1213-7.0079-6.9666-8.75c-3.8845-3.6671-15.395-26.1-16.698-32.542l-0.8847-4.375 2.6638 2.3882c1.4651 1.3135 2.9554 2.0966 3.3118 1.7402 0.3563-0.35636-0.2587-5.931-1.3668-12.388-1.9358-11.281-4.1802-16.115-7.4815-16.115-0.8511 0-1.8889-0.88975-2.3062-1.9772-1.0049-2.6186-0.9717-17.895 0.05-23.003l0.8086-4.0431 2.6368 6.0744c1.4503 3.3409 4.7734 8.1583 7.3849 10.705 4.6925 4.5768 4.7385 4.7157 3.9314 11.875-0.6952 6.1661-0.3065 8.5172 2.6118 15.8 1.8857 4.7058 4.6473 10.05 6.1368 11.875 1.4896 1.8255 3.9304 6.5793 5.4241 10.564 4.7677 12.719 15.513 26.465 24.189 30.945 2.5064 1.2941 5.4841 3.28 6.6171 4.4131 4.3765 4.3764 15.805 5.4177 19.451 1.7722 2.2112-2.2113 2.4937-4.1241 2.4455-16.562-0.03-7.7344-0.5211-16.476-1.0915-19.426-0.7376-3.8148-0.6316-5.2252 0.3669-4.8838 0.7722 0.26403 1.4421 2.1153 1.4885 4.1138 0.1363 5.864 1.9565 13.309 4.4028 18.009l2.2773 4.375 0.061-5c0.034-2.75-0.8916-7.6591-2.0565-10.909-1.1649-3.25-1.7416-6.2854-1.2816-6.7454 0.46-0.45997 3.1204 0.67525 5.9121 2.5227l5.0758 3.359 3.2432-2.5511c1.7837-1.4031 4.0251-2.5511 4.9808-2.5511 2.736 0 18.854 8.4425 29.534 15.47 10.178 6.6971 11.651 8.7482 24.988 34.81 3.7676 7.3619 3.9731 13.348 0.639 18.61-7.4086 11.694-12.91 19.38-15.198 21.232-1.3777 1.1155-6.2288 9.5599-10.78 18.765-6.6786 13.507-8.7441 16.682-10.704 16.453-3.3441-0.39102-17.156 9.6706-18.467 13.452-1.2831 3.7027 3.5451 17.86 5.84 17.125 0.7964-0.25534 3.3944-5.0418 5.7733-10.637 2.379-5.5947 4.5461-9.9515 4.8159-9.6817 0.2698 0.26983-1.9057 7.3346-4.8344 15.699-5.9536 17.004-5.9492 13.215-0.047 41.048 1.3671 6.4471 3.1089 17.135 3.8707 23.75 1.7852 15.502 2.2082 16.947 4.4219 15.11 5.5256-4.5858 62.734-119.29 69.205-138.75 4.5081-13.562 8.4224-32.847 9.6636-47.611 0.8609-10.241 0.916-10.38 2.5457-6.4052 0.9162 2.2344 2.2267 4.0625 2.9122 4.0625 1.9234 0 1.4908 6.416-1.3017 19.305-4.318 19.93-13.759 45.298-31.005 83.309-11.777 25.958-14.657 33.733-13.557 36.599 2.3248 6.0583 12.109-7.2318 36.231-49.213 10.604-18.455 13.205-25.599 19.567-53.75 2.8744-12.719 6.292-26.5 7.5948-30.625 8.8199-27.927 11.407-93.191 5.0862-128.3-3.4343-19.074-8.0077-34.924-12.754-44.202-2.1102-4.125-5.4532-11.84-7.4289-17.145-1.9756-5.3046-4.8241-12.055-6.3299-15-2.6472-5.1779-6.4191-17.334-5.625-18.128 0.7044-0.70438 9.0687 12.643 11.921 19.023 5.1091 11.428 16.128 41.856 19.239 53.125 6.5514 23.736 8.7458 45.956 8.9125 90.245 0.079 21.103 0.5363 38.762 1.0152 39.241 1.6111 1.6112 5.0786-2.5571 8.6352-10.38 7.1752-15.783 12.772-40.168 14.347-62.504 0.4468-6.3382 1.2203-11.272 1.7188-10.964 1.6539 1.0222 2.6697 32.146 1.2847 39.363-2.1669 11.291-17.059 64.075-24.51 86.875-6.1483 18.813-26.101 67.644-44.692 109.38-13.569 30.46-35.15 68.125-60.16 105-7.6937 11.344-15.576 23.438-17.516 26.875s-7.296 11.594-11.902 18.125-11.336 17.5-14.954 24.375c-3.6182 6.875-9.1486 16.64-12.29 21.7l-5.7111 9.2002 1.5337 7.6748c0.8436 4.2211 2.2738 19.206 3.1783 33.3 2.5313 39.439-0.058 71.567-9.3701 116.25-2.0774 9.9688-5.1643 25.543-6.8597 34.61-5.2989 28.337-11.13 48.538-20.486 70.964-6.0156 14.421-21.781 65.026-37.011 118.8-14.385 50.791-19.981 68.093-23.389 72.311-4.558 5.6414-11.824 5.719-22.528 0.2408zm17.318-85.676c5.6858-33.442 6.8964-52.22 3.5804-55.536-3.2889-3.289-5.7311-2.28-13.287 5.4897-5.8614 6.0274-7.2468 8.2404-7.2385 11.562 0.027 10.736 6.5316 54.71 9.0067 60.887l1.2905 3.2211 1.8894-4.375c1.0391-2.4062 3.1805-11.969 4.7584-21.25zm1.2612-123.75c0.8897-9.0202 1.9686-18.195 2.3974-20.388 1.0282-5.258 6.6728-22.99 8.8299-27.738 0.937-2.0625 2.0718-5.8656 2.5217-8.4513 1.0251-5.8925 3.0345-7.3629 3.0345-2.2207 0 2.8942 0.7761 4.2042 3.125 5.2744 1.7187 0.78312 3.125 1.9158 3.125 2.5172 0 3.1112 5.0167-2.2492 7.494-8.0072 2.5852-6.0091 2.7836-7.9386 2.1751-21.149-0.6802-14.767-2.0447-19.838-5.3381-19.838-2.7189 0-2.3336-7.9434 1.3008-26.822 1.715-8.9084 3.1182-17.607 3.1182-19.33 0-2.7368-0.2261-2.9016-1.7869-1.3029-1.8306 1.875-13.236 26.259-22.197 47.455-8.8872 21.021-12.239 27.5-14.229 27.5-3.3005 0-5.9954 9.0667-11.704 39.375-5.0253 26.682-6.6401 47.015-3.8699 48.727 0.6673 0.41243 2.8894-0.11687 4.9379-1.1762 5.2144-2.6965 7.4788-2.4158 10.392 1.2881 1.7035 2.1657 2.9404 2.802 3.7917 1.9506 0.6949-0.69493 1.9915-8.6437 2.8813-17.664zm4.2835-158.27c0-1.0312-0.5625-1.5274-1.25-1.1025s-1.25 1.6163-1.25 2.6475 0.5625 1.5274 1.25 1.1025 1.25-1.6163 1.25-2.6475zm23.703-33.506c17.176-16.4 18.586-18.613 21.902-34.375 2.2317-10.609 2.192-10.096 0.7819-10.096-1.9542 0-15.846 21.426-22.49 34.688-6.3996 12.774-6.4587 15.766-0.1934 9.7838zm121.46-179.79c5.9991-9.6773 13.422-23.949 17.066-32.814 4.0647-9.8876 9.5398-29.265 8.5489-30.256-1.1453-1.1453-8.1201 10.859-19.614 33.758-9.5579 19.041-11.167 23.14-11.167 28.438 0 3.4045 0.4219 6.189 0.9375 6.1878 0.5156-1e-3 2.4189-2.3918 4.2294-5.3125zm27.112-23.214c9.1803-9.1802 43.034-71.011 49.519-90.442 3.7131-11.125 4.0541-13.705 1.4515-10.985-1.8099 1.8919-42.379 74.601-49.552 88.81-6.6439 13.16-7.2369 18.436-1.4181 12.617zm-34.778-195.69c0-0.94706-0.8438-2.4222-1.875-3.278-1.9878-1.6497-2.4397-0.42596-1.1163 3.0228 0.9334 2.4324 2.9913 2.608 2.9913 0.25529zm-102.78-32.307c-0.7725-2.2159-1.6235-3.3721-1.8911-2.5693-0.4682 1.4045 1.7198 6.5982 2.7796 6.5982 0.2837 0-0.116-1.813-0.8885-4.0289zm-47.84 153.15c-11.697-2.7775-46.099-17.816-50-21.857-0.6875-0.71214 0.5098-0.40767 2.6607 0.67661 5.5448 2.7952 18.707 7.7176 35.836 13.402 8.1105 2.6916 16.267 5.7192 18.125 6.7279l3.3787 1.834-3.75-0.095c-2.0625-0.0523-4.875-0.3621-6.25-0.68861zm201.56-48.804c-0.7182-8.2353-0.8316-7.9483 6.3311-16.017 4.3089-4.854 5.6203-5.7048 6.5434-4.2454 4.3809 6.9261-3.1061 27.45-10.014 27.45-1.8138 0-2.3521-1.3523-2.861-7.1875zm-195.56-9.9733c-2.5439-4.891-2.5905-5.375-0.625-6.4796 1.5681-0.88128 2.8472-0.51645 4.886 1.3936 2.1069 1.9738 5.26 2.8151 13.296 3.5475 10.598 0.96599 14.178 2.0932 16.842 5.3037 1.2231 1.4738-1.094 1.724-15.103 1.6308l-16.548-0.11013-2.7492-5.2858zm17.944-8.476c-3.2018-2.3412-11.423-3.5474-14.168-2.0786-1.7459 0.93437-3.1681 0.51586-6.0311-1.7747-2.0605-1.6486-4.4827-3.0002-5.3827-3.0036-0.8999-4e-3 -1.2886-0.56871-0.8637-1.2562 1.1633-1.8822 12.099-1.5012 18.146 0.63225 2.9341 1.0352 6.7463 3.2938 8.4715 5.0189 3.4972 3.4972 3.3877 5.0648-0.1719 2.462zm-134.11-65.657c-4.032-4.2204-10.445-9.8138-14.251-12.43-10.383-7.1363-16.529-14.417-15.664-18.555 0.3846-1.8404 1.2978-7.2837 2.0295-12.096s2.0203-12.623 2.8637-17.357l1.5335-8.6071 2.0909 4.8571c1.15 2.6714 2.9455 7.0069 3.9901 9.6345 1.7759 4.4673 4.4516 5.3524 4.4516 1.4725 0-3.7666 2.6565-3.0558 4.4284 1.1849 1.4137 3.3835 1.6744 6.9068 1.058 14.298-0.7487 8.9772-0.5459 10.326 2.3929 15.913 7.1567 13.605 13.742 28.024 13.095 28.671-0.3782 0.37815-3.9865-2.7655-8.0186-6.9859zm126.91-36.563c-3.4593-2.6347-7.1518-11.374-10.481-24.806-5.2805-21.304-5.6964-39.547-0.6224-27.297 0.8635 2.0846 1.9161 3.4453 2.3392 3.0239 0.423-0.42143 1.4262-8.6433 2.2292-18.271 1.3581-16.283 2.033-19.842 3.4873-18.387 0.3148 0.3148 0.8292 15.751 1.1431 34.303 0.5432 32.105 1.4821 41.132 5.3171 51.126 0.8766 2.2842-0.6387 2.4212-3.4123 0.3087zm96.716-22.132c-2.8758-1.2875-7.0809-2.3306-9.3448-2.318-8.7068 0.0485-40.4-2.7742-44.972-4.0054-2.6409-0.71111-6.6708-2.9341-8.9553-4.9399-3.5238-3.094-4.6853-5.6529-7.6603-16.877-2.013-7.5947-5.2507-16.126-7.601-20.029-2.2519-3.7396-4.7798-8.9182-5.6175-11.508-3.2565-10.068-10.333-21.584-13.263-21.584-0.8843 0-2.4804-1.6875-3.547-3.75s-2.4797-3.75-3.1403-3.75-2.0237-1.9685-3.0289-4.3745c-2.7821-6.6583-7.6327-12.394-15.473-18.296-10.927-8.2258-18.978-16.168-21.601-21.311-2.8706-5.6268-2.9376-7.1663-0.5144-11.813 1.027-1.9692 1.8708-5.3396 1.875-7.4898 0.015-7.8719 5.6318-7.9386 14.77-0.17534 2.2756 1.9332 4.6351 3.2072 5.2434 2.8313 0.6117-0.37807 0.3249-3.279-0.6417-6.4909-1.7739-5.8941-1.5509-7.8806 0.8845-7.8806 0.743 0 2.0559-0.9641 2.9175-2.1424 1.3778-1.8843 2.0082-1.1691 5.2322 5.9375 2.0161 4.444 5.3393 9.9108 7.3848 12.148 2.0455 2.2377 4.45 6.1752 5.3434 8.75 2.6958 7.7701 10.591 20.301 25.914 41.13 17.991 24.455 29.953 38.634 41.781 49.524 15.791 14.54 7.9029 11.222-14.446-6.075-4.8125-3.7247-9.5157-6.7723-10.452-6.7724-2.6857-4.3e-4 -0.6787 7.7444 4.4021 16.988 4.7432 8.6292 12.426 15.187 24.724 21.103 8.935 4.2984 13.2 5.1848 13.2 2.7431 0-4.1225 2.2815-3.0106 5.4165 2.6399 1.9757 3.561 5.7564 7.6356 9.5344 10.276 5.4864 3.8341 8.7251 7.9906 7.3205 9.3953-0.2513 0.25128-2.8097-0.59656-5.6855-1.8841zm-30.226-141.06c-2.4605-4.5974 2.6278-28.295 8.6274-40.18 7.715-15.283 9.9306-11.766 3.828 6.0765-2.0265 5.9254-4.6155 15.836-5.7532 22.023-1.1376 6.1875-2.2744 11.953-2.526 12.812-0.6672 2.2779-2.7618 1.9107-4.1762-0.73216zm-79.828-38.643c-2.8258-11.646-3.0317-17.108-0.9564-25.362 2.9418-11.7 3.2392-12.321 4.4707-9.3258 1.9993 4.8621 0.907 40.625-1.2408 40.625-0.4581 0-1.4812-2.6719-2.2735-5.9375zm99.718-25.339c0-1.6317 5.9863-4.4036 7.1015-3.2883 0.9886 0.98858-3.2698 4.4676-5.539 4.5254-0.8594 0.02187-1.5625-0.53481-1.5625-1.237z" filter="url(#au)" opacity=".15"/>
   <path d="m2214.4 1094.7c-3.7813-2.0125-8.3483-3.9479-10.149-4.3008-2.9877-0.5856-3.3511-1.322-4.1538-8.4177-1.9434-17.177-6.9495-20.801-11.299-8.1805-5.0109 14.538-7.3659 5.062-6.4497-25.953 0.3838-12.995 1.4666-26.105 2.5631-31.033 3.3009-14.837 3.6426-34.359 1.3605-77.717-3.5674-67.776-1.0144-105.47 9.991-147.5 3.7145-14.187 11.858-35.359 16.107-41.875 1.5689-2.4062 5.1866-9.4375 8.0392-15.625 10.109-21.927 23.595-46.382 31.02-56.25 15.793-20.99 35.813-50.89 38.094-56.893 3.6904-9.7124 3.1485-13.216-3.7758-24.409-16.986-27.458-37.314-44.292-58.925-48.798-13.062-2.7236-16.74-1.4765-24.296 8.2385-9.8903 12.716-20.15 23.165-35.452 36.103-15.966 13.5-14.585 12.531-24.118 16.936-3.8889 1.7971-11.131 6.908-16.093 11.358-13.563 12.162-14.488 11.392-6.0534-5.0348 2.4709-4.8125 5.4573-11.562 6.6365-15s4.4923-11.017 7.3623-16.843l5.2184-10.593 7.667-0.0819c6.1582-0.0657 8.6744-0.74849 12.786-3.4692 2.8153-1.8631 6.3044-3.3874 7.7537-3.3874 7.0143 0 31.104-28.518 55.877-66.149 9.315-14.15 22.894-34.07 30.176-44.268 16.568-23.201 17.597-24.784 17.622-27.084 0.011-1.0312 2.8023-4.9688 6.2025-8.75 3.4001-3.7812 6.1832-6.3125 6.1847-5.625 0 1.8358-4.9876 10.871-9.0717 16.422-9.7593 13.264-47.073 80.667-47.073 85.032 0 1.8183 3.9892 5.0582 14.688 11.929 8.0781 5.1877 16.094 10.155 17.812 11.038 1.7187 0.88299 6.4501 4.4683 10.514 7.9674 7.5376 6.4897 22.158 27.24 30.023 42.612 2.1107 4.125 4.8032 7.6783 5.9834 7.8961 3.8567 0.71197 46.454-59.111 57.216-80.354 3.5337-6.9749 4.4498-10.35 4.8248-17.776 0.7309-14.476-3.8834-47.354-7.7739-55.391-0.9006-1.8603-2.3778-2.9764-3.6503-2.7577-1.8352 0.31535-2.1517-0.83374-2.2375-8.125-0.055-4.6708-1.0394-11.867-2.1875-15.992-1.7593-6.3208-2.707-7.7729-6.0276-9.2355-3.5124-1.5471-4.0307-2.4608-4.775-8.4178-0.4592-3.6753-1.358-7.0056-1.9974-7.4008-1.2927-0.79893-1.5497-12.124-0.3746-16.508 1.2455-4.6477 5.846-3.6375 8.539 1.875 3.4541 7.0706 8.1207 22.745 7.3611 24.724-0.7618 1.9852 2.6046 12.93 5.8678 19.077 1.2009 2.2623 1.9207 5.1187 1.5993 6.3474-0.3213 1.2287 1.1284 10.628 3.2216 20.887s4.4144 24.278 5.1584 31.153 1.9037 13.835 2.5773 15.467c1.182 2.8636 1.3102 2.8894 3.6827 0.74236 1.3519-1.2234 4.4536-5.7929 6.8926-10.154 7.7012-13.771 6.3507-8.5629-2.3196 8.9451-7.0864 14.31-8.1736 17.609-8.9471 27.15-0.4057 5.0049-1.0114 12.475-1.346 16.6l-0.6082 7.5 3.1402-5c1.7271-2.75 4.6323-8.9375 6.4559-13.75s6.2434-14.656 9.8216-21.875c3.5783-7.2188 8.0102-17.062 9.8486-21.875 5.9241-15.507 8.0521-19.375 10.66-19.375 1.3341 0 3.9242-1.8281 5.7559-4.0625 1.9483-2.3767-0.7729 3.9776-6.5576 15.312-9.6241 18.858-13.997 31.702-22.789 66.934-1.5427 6.1821-15.725 30.151-26.196 44.274-4.2399 5.7184-9.1918 12.989-11.004 16.157-1.8123 3.1681-8.1138 13.354-14.003 22.635-12.186 19.204-12.312 19.8-7.8025 37.076 1.4644 5.6105 2.601 12.36 2.5259 15-0.075 2.6395 0.3014 13.922 0.8367 25.072 1.3697 28.525-2.8147 69.473-10.638 104.1-1.3202 5.8438-4.4235 20.905-6.8963 33.469-5.6705 28.812-10.385 45.337-18.829 65.999-7.3027 17.87-22.563 66.967-41.87 134.71-11.286 39.6-14.948 50.653-18.436 55.652-0.6791 0.9732-4.0774 1.8893-7.9032 2.1307-5.5239 0.3483-7.9286-0.2244-13.587-3.2359zm16.779-53.379c1.1992-5.3476 3.7906-17.317 5.7586-26.598 4.3567-20.547 7.6619-32.513 11.087-40.139 3.2369-7.2071 5.988-24.498 4.1847-26.301-0.8597-0.85972-3.4748-0.22664-8.0978 1.9604-7.5736 3.5829-10.919 4.0018-13.317 1.6676-1.2924-1.2582-2.5061-0.55534-6.2325 3.6094-2.5452 2.8445-6.2948 7.5862-8.3326 10.537-3.4278 4.964-3.6876 6.121-3.4736 15.471 0.3891 16.996 8.3281 64.264 11.964 71.233 1.1546 2.2132 1.3837 2.242 2.7686 0.3478 0.8305-1.1356 2.4911-6.4401 3.6904-11.788zm-30.654-90.109c0.07-1.6298-0.4196-2.55-1.1254-2.1137-0.6875 0.4249-1.1939 3.13-1.1254 6.0113 0.1064 4.4743 0.2706 4.7827 1.1254 2.1137 0.5504-1.7188 1.0569-4.4238 1.1254-6.0113zm29.478-22.704c0.4132-0.66858 1.8101-6.7723 3.1042-13.564 3.511-18.426 4.4785-20.131 14.142-24.916 10.046-4.9754 16.393-12.018 23.938-26.564 6.8555-13.216 9.4617-24.157 9.4617-39.721 0-9.3272 0.8855-15.639 3.891-27.735 4.1641-16.759 6.7133-22.936 11.104-26.907 3.7809-3.4195 5.2497-6.5864 10.437-22.503 4.746-14.563 8.3327-37.81 8.3013-53.803-0.032-16.133-2.1473-17.843-10.635-8.5986-10.888 11.859-18.95 29.578-21.853 48.027-0.8113 5.1562-3.1824 14.719-5.2693 21.25-5.732 17.94-8.0653 21.684-11.656 18.705-2.7976-2.3219-2.2417-11.671 1.9298-32.455 2.0625-10.276 3.75-18.98 3.75-19.342 0-6.4257-22.329 29.686-37.01 59.854-3.65 7.5003-8.2909 15.375-10.313 17.5-4.9052 5.1534-10.857 22.944-13.228 39.54-3.553 24.867-6.7893 77.931-5.1511 84.458l0.8401 3.3472 4.0534-3.9287c2.2293-2.1608 4.6984-3.9287 5.487-3.9287 0.7885 0 3.8554 2.8122 6.8155 6.2494 5.555 6.4505 6.58 7.107 7.8606 5.035zm-15.643-129.32c1.2396-2.8918 4.3554-11.127 6.9239-18.3 6.8474-19.122 23.444-47.399 44.466-75.756 11.299-15.242 12.843-18.553 16.516-35.416 4.3287-19.873 4.7001-22.307 3.5154-23.039-1.5382-0.95066-20.051 24.467-35.447 48.669-15.534 24.419-26.675 46.402-32.799 64.723-8.8104 26.355-11.405 58.318-3.1751 39.119zm115.93-189.15c4.7619-7.3906 10.461-16.32 12.665-19.843 3.6369-5.8134 11.959-26.603 17.702-44.22 4.3892-13.466 1.973-10.864-18.908 20.364-9.7502 14.581-20.173 29.958-23.161 34.17-2.9886 4.2123-5.4338 8.5996-5.4338 9.7496 0 3.6188 5.459 13.217 7.5173 13.217 0.5286 0 4.8572-6.0469 9.6191-13.438zm71.641-155.74c-0.043-1.6296 30.712-63.614 32.968-66.444 1.8158-2.2782 1.8149-2.0565-0.01 2.5-8.8466 22.087-32.835 68.627-32.958 63.944zm41.222-8.9972c0-0.45441 3.075-7.7746 6.8332-16.267 9.1752-20.733 14.888-38.509 13.925-43.326-1.2773-6.3861 7.9-34.703 16.319-50.353 10.263-19.079 23.829-47.544 26.672-55.967 4.8839-14.468 3.9781-8.521-1.9697 12.933-13.187 47.564-28.864 89.074-51.71 136.92-6.1974 12.978-10.07 19.156-10.07 16.064zm-151.25-43.143c0-0.72682 0.62-3.7839 1.3779-6.7935 1.0647-4.2285 2.4851-6.2048 6.25-8.6963 2.6796-1.7733 4.8721-2.6515 4.8721-1.9515 0 2.6522-9.3494 18.763-10.888 18.763-0.8863 0-1.6115-0.59466-1.6115-1.3215zm80.731-19.614c-1.6911-1.6911-0.4223-4.2866 4.6434-9.4988 5.821-5.9893 13.375-19.007 13.375-23.049 0-3.5737-8.0569-10.267-12.359-10.267-3.1553 0-5.1794-1.1204-14.639-8.1028-1.7847-1.3174-6.1774-2.0601-13.75-2.3248-6.1201-0.21396-12.437-1.0924-14.038-1.952s-8.9486-3.4751-16.329-5.812c-13.036-4.1277-13.651-4.4906-21.574-12.716-4.4853-4.6569-8.5653-10.12-9.0665-12.14-0.5011-2.0199-3.9514-8.7699-7.6672-15s-8.1646-14.798-9.8863-19.039c-3.1017-7.6412-5.4227-17.913-4.0476-17.913 0.3928 0 3.9376 5.7656 7.8774 12.812 13.064 23.368 21.492 33.473 35.478 42.538 7.4482 4.828 18.669 9.6493 22.457 9.6493 2.4599 0 5.6625-2.555 6.6309-5.2902 0.7437-2.1002 7.0388 4.5636 8.634 9.1395 1.2229 3.5078 14.716 16.151 17.236 16.151 0.7731 0 2.7862-1.3807 4.4737-3.0682 4.1813-4.1813 4.0908-9.7284-0.2097-12.861-2.5166-1.8332-3.0749-3.0277-2.4036-5.1428 0.744-2.3441 1.4912-2.6393 5.0098-1.9792 5.2218 0.97963 6.255-0.63297 3.946-6.1591-2.3028-5.5114-6.3245-9.5396-9.5243-9.5396-1.9537 0-2.5 0.83334-2.5 3.8136v3.8136l-4.1805-3.1886c-2.2993-1.7537-4.7433-3.1886-5.4313-3.1886-2.7233 0-5.5482-5.0446-6.9023-12.326-0.7828-4.2095-1.0879-7.989-0.6779-8.399s2.4237 0.49534 4.4749 2.0118c4.6304 3.4234 6.5063 2.4231 5.6263-3.0001-0.5164-3.182-0.1739-4.3599 1.4488-4.9826 3.3733-1.2944 21.574 8.0952 31.041 16.014 10.43 8.724 13.351 14.597 13.351 26.849 0 8.4874 1.826 16.333 3.8014 16.333 0.5813 0 1.9195-1.2317 2.974-2.7371 2.3206-3.3131 3.6413-2.3128 3.6413 2.7579 0 2.3032-1.5542 5.8304-3.9933 9.0625-2.1962 2.9104-5.4661 7.5417-7.2662 10.292-1.8002 2.75-4.8207 6.7821-6.7122 8.9603s-5.954 9.2692-9.0277 15.758c-4.655 9.8268-6.2247 12.019-9.3967 13.125-2.0944 0.73013-4.1371 0.99844-4.5393 0.59624zm54.269-8.3622c0-3.4886 5.7607-13.202 7.8297-13.202 1.9052 0 0.074 8.8635-2.5606 12.392-3.2634 4.3709-5.2691 4.6794-5.2691 0.81048zm-184.38-9.4524c-0.4519-0.73125 0.8449-1.25 3.125-1.25s3.5769 0.51875 3.125 1.25c-0.4249 0.6875-1.8312 1.25-3.125 1.25-1.2939 0-2.7001-0.5625-3.125-1.25zm209.51-20c0.031-1.0312 0.8531-3.8438 1.8261-6.25l1.7689-4.375-0.7575 4.375c-0.8586 4.959-2.9376 9.5382-2.8375 6.25zm-351-71.349c-3.9931-3.492-7.7301-7.1841-8.3044-8.2047-1.2967-2.3044-2.7729-30.446-1.5971-30.446 0.4703 0 1.9402 2.5312 3.2663 5.625s2.9386 5.625 3.5833 5.625 1.8098-1.8281 2.5891-4.0625c2.3649-6.7803 3.9459-1.7386 3.0554 9.7434-0.7058 9.0995-0.4838 10.645 2.3342 16.25 4.0309 8.0173 5.1873 11.819 3.595 11.819-0.6939 0-4.5286-2.857-8.5218-6.349zm131.14-41.513c-2.4631-8.6864-4.149-17.429-3.4883-18.09 0.9979-0.99784 2.8385 4.6796 4.4824 13.826 1.7481 9.7263 1.2097 12.036-0.9941 4.2646zm91.751-8.1446c-2.2735-3.6787-28.647-12.817-30.763-10.659-0.3503 0.35708 1.6019 2.5336 4.3383 4.8366 4.297 3.6166 4.6669 4.3056 2.7139 5.0551-3.4177 1.3115-17.74-0.36408-22.017-2.5758-4.4002-2.2754-7.1319-7.2714-11.929-21.817-5.0759-15.391-20.789-45.758-27.533-53.208-3.1114-3.4375-7.7242-9.2931-10.251-13.012-2.5266-3.7194-9.7842-11.265-16.128-16.767-11.551-10.019-17.674-18.137-14.52-19.251 1.0118-0.35742 1.5625-3.1589 1.5625-7.9478 0-9.1723 1.6435-9.5428 10.625-2.3958 8.4659 6.7368 9.9382 6.582 8.9164-0.9375-0.4437-3.2656-1.1642-7.5578-1.601-9.5381-0.5151-2.3352-0.3203-3.4335 0.5542-3.125 1.7778 0.62712 14.438 18.348 17.759 24.858 1.4343 2.8115 8.2297 13.594 15.101 23.962 6.8711 10.368 12.238 19.105 11.926 19.417-0.3116 0.31165-1.6658-0.0216-3.0093-0.74066-5.9946-3.2082-4.6323 1.1967 8.4596 27.355 5.6775 11.344 11.464 22.237 12.859 24.207 3.2885 4.6446 21.012 17.821 29.035 21.586 3.4375 1.6131 7.7741 2.9383 9.6369 2.945 3.4736 0.0125 10.175 5.7936 8.9724 7.7398-0.8122 1.3142-3.9001 1.3244-4.7091 0.0155zm-78.816-101.33c-2.037-3.9391-4.1746-5.8646-5.2817-4.7576-1.0418 1.0418 0.6854 5.3332 3.6773 9.1368 2.1801 2.7716 2.8344 3.0702 3.149 1.437 0.2183-1.1339-0.4767-3.7512-1.5446-5.8162z" filter="url(#av)" opacity=".15"/>
   <path d="m2216.6 1087.8c-3.1815-2.9711-5.8623-4.3605-8.4137-4.3605-4.5621 0-4.6334-0.2644-5.7288-21.25-0.4486-8.5937-1.3978-16.715-2.1094-18.048-1.1901-2.2286-1.4562-2.0782-3.3181 1.875-1.2776 2.7123-3.0671 4.4462-4.8508 4.6999-1.8272 0.26-3.5925 2.0277-4.9933 5l-2.1668 4.5979-0.3491-17.396c-0.2351-11.712 0.2754-20.729 1.5625-27.597 2.372-12.659 2.5244-42.607 0.449-88.233-1.1505-25.291-1.1719-38.833-0.09-56.705 0.7818-12.914 1.7628-23.821 2.1799-24.238 0.4172-0.41711 1.2598 0.0527 1.8725 1.0442 0.6127 0.99142 1.4993 1.4173 1.9702 0.94644s1.8778-8.8921 3.1264-18.714c3.4539-27.168 7.6755-44.828 15.922-66.608 15.229-40.219 27.514-62.638 60.578-110.55 9.472-13.725 18.05-27.303 19.062-30.172 4.0486-11.475 1.6913-18.974-11.58-36.838-17.322-23.317-38.566-37.846-57.074-39.033-5.1271-0.32904-10.65-0.2649-12.273 0.14251-1.7781 0.44627-6.2653 5.1061-11.287 11.721-14.224 18.737-39.948 41.866-53.445 48.054-3.7812 1.7336-11.234 6.6236-16.562 10.867-5.5567 4.4253-9.6875 6.9602-9.6875 5.9449 0-4.1196 19.878-44.645 22.5-45.869 1.0313-0.48179 4.9129-1.5718 8.6258-2.4222 3.713-0.85039 10.19-3.1053 14.392-5.011 14.144-6.4134 35.244-31.196 63.817-74.958 15.438-23.645 31.91-46.672 32.77-45.812 0.3224 0.32233-3.9925 8.5843-9.5885 18.36-16.264 28.411-25.016 45.869-25.016 49.899 0 2.5827 0.8574 4.165 2.8125 5.1902 1.5468 0.81116 4.9713 3.1674 7.6099 5.2361 2.6387 2.0687 9.2535 6.4677 14.7 9.7756 23.943 14.542 35.846 27.627 48.906 53.764 5.4942 10.995 7.2657 11.397 14.754 3.3479 3.3955-3.6496 6.1834-6.2328 6.1955-5.7404 0.013 0.49243-2.2281 4.3765-4.9781 8.6313-3.3165 5.1312-5 9.1558-5 11.953 0 4.3388 6.6759 19.146 8.6322 19.146 1.816 0 28.538-42.033 35.671-56.109 2.7859-5.4979 13.196-39.749 13.196-43.417 0-3.4385-2.9329-3.0478-7.1169 0.94809l-4.401 4.203 4.718-9.375c2.5949-5.1562 5.8896-13.131 7.3214-17.722 2.3704-7.5995 2.8018-8.2008 4.8188-6.7169 1.8473 1.3591 1.9902 2.2216 0.8607 5.1926-2.1684 5.7033-4.9497 20.204-4.9658 25.89-0.01 2.8769-0.7841 8.1198-1.7243 11.651-2.3181 8.7056-0.8373 10.943 4.1069 6.2065l3.7362-3.5795-1.9776 6.1014c-1.0877 3.3558-2.1177 7.8374-2.289 9.9591-0.1712 2.1217-1.2044 5.5847-2.2959 7.6954-2.0563 3.9764-22.096 35.055-37.161 57.631-4.747 7.1139-8.6309 14.29-8.6309 15.948 0 1.6574 1.4822 9.0556 3.2937 16.441 3.1575 12.872 3.2997 14.952 3.4375 50.302 0.1579 40.497-1.1816 53.818-9.3011 92.5-2.0925 9.9688-4.9073 24.03-6.255 31.248-5.5093 29.503-10.123 45.811-20.031 70.8-7.1523 18.039-21.432 63.99-39.372 126.7-14.144 49.441-17.149 58.195-20.61 60.048-3.4009 1.8201-6.1636-2.9579-6.1511-10.638 0.019-11.891 9.6399-53.382 23.051-99.409 3.9061-13.406 7.8542-28.227 8.7735-32.934 1.5656-8.0176 1.5209-8.6902-0.7066-10.625-1.3079-1.136-3.503-3.0499-4.878-4.253-3.8184-3.3411-6.5129-2.5332-10.678 3.2014-2.2295 3.0694-4.8157 5.2361-6.25 5.2361-2.1261 0-2.4396-0.86256-2.3923-6.5822 0.067-8.0494 2.8774-11.419 10.362-12.423 5.9653-0.80011 8.0078-3.0581 16.73-18.494 11.474-20.305 20.538-44.975 26.604-72.404 2.2851-10.334 10.584-37.553 16.036-52.596 7.8111-21.552 13.339-54.032 13.339-78.378 0-13.965-2.8517-30.658-5.7128-33.441-1.7981-1.749-2.4544-1.4013-6.9719 3.6942-14.23 16.05-22.034 31.741-32.938 66.229-3.6294 11.479-6.7431 18.263-6.8271 14.875-0.027-1.1113 1.3562-9.4833 3.075-18.605 3.3935-18.009 3.8257-23.081 1.8634-21.868-0.6938 0.42884-9.4503 13.108-19.459 28.177-22.58 33.996-25.996 37.116-13.62 12.441 5.6374-11.24 15.447-26.67 29.404-46.25 4.6556-6.5312 9.3334-14.125 10.395-16.875 1.6508-4.2759 6.0836-20.504 8.7919-32.188 0.8168-3.5238 3.2492-4.808 3.2492-1.7156 0 0.94706 0.8228 2.4048 1.8286 3.2395 1.4869 1.234 2.4104 0.88968 4.943-1.843 4.2475-4.5832 6.1338-10.959 5.4248-18.338-1.0128-10.541-4.674-10.875-9.7675-0.89142-1.472 2.8855-3.4397 4.8358-5.1289 5.0836-3.2549 0.47754-11.272 10.635-28.435 36.027-35.368 52.325-46.506 77.215-53.96 120.58-3.7897 22.047-4.8931 41.407-4.5979 80.672 0.2359 31.369-0.039 38.027-1.8385 44.587-2.8949 10.552-4.7188 26.143-4.7188 40.335 0 10.235 0.2416 11.612 1.7604 10.033 2.0594-2.1413 7.0249-17.719 10.032-31.472 1.1595-5.303 3.1989-10.928 4.5322-12.5 2.2772-2.6851 2.5269-2.7259 4.1224-0.67455 0.9341 1.201 2.4154 6.3757 3.2918 11.499l1.5935 9.3155-4.2285 10.376c-3.696 9.0692-4.2041 11.635-4.0349 20.376 0.1065 5.5 1.0687 15.625 2.1384 22.5s2.7794 17.844 3.7993 24.375c1.0199 6.5313 2.9766 16.672 4.3482 22.536 5.8254 24.903 6.326 40.046 1.3512 40.879-1.0069 0.1686-3.9318-1.6556-6.4998-4.0539zm-9.6398-66.298c-0.6057-2.0278-1.1496-2.7487-1.2087-1.6019-0.12 2.3279 1.2143 6.3848 1.8807 5.7184 0.2361-0.2361-0.066-2.0885-0.672-4.1165zm152.75-583.89c-0.8594-0.34676-1.5625-2.4922-1.5625-4.7676 0-8.7317-3.8473-23.704-6.7527-26.28-1.5513-1.375-4.053-5.9641-5.5593-10.198-2.2931-6.4452-2.495-8.2331-1.2405-10.986 0.8323-1.8267 2.3388-3.1264 3.3893-2.9241 2.3046 0.44382 6.3662 13.341 6.4115 20.358 0.019 2.9069 1.8573 9.1808 4.392 14.987 2.7345 6.2643 4.3597 11.972 4.3597 15.312 0 5.2565-0.3669 5.7365-3.4375 4.4975zm32.838-87.881c-0.411-0.665-0.3698-4.0542 0.091-7.5315 0.9659-7.2817-0.6257-9.8713-8.5542-13.918-2.7731-1.4153-4.6875-3.3039-4.6875-4.6241 0-1.2275-1.4063-4.1378-3.125-6.4674-4.0582-5.5005-3.946-6.2488 0.9375-6.2558 5.8152-9e-3 12.188-6.1892 12.188-11.821 0-3.156-0.9564-5.0052-3.846-7.4366-4.4302-3.7278-5.7965-3.9472-8.6273-1.3854-1.8209 1.6479-2.7906 1.4663-8.8484-1.6577-6.9771-3.598-9.1254-7.2671-6.2698-10.708 0.7545-0.90914 1.0038-3.3611 0.5647-5.5562-0.6391-3.1954-0.3816-3.929 1.3792-3.929 4.4584 0 17.767 7.5642 24.596 13.98 7.4724 7.0198 9.781 12.094 9.7944 21.526 0.01 4.6585-0.098 4.7864-2.2901 2.8024-2.1446-1.9409-2.4293-1.9328-4.288 0.121-5.0164 5.543-5.9083 13.402-2.0742 18.277 3.266 4.152 5.8058 4.1872 7.6653 0.106l1.4523-3.1876 1.3654 4.1251c1.2572 3.7984 1.7454 4.102 6.1651 3.8332l4.7997-0.29182-3.2835 4.0418c-1.806 2.223-5.2389 6.995-7.6288 10.604-4.2906 6.4801-6.016 7.7156-7.4759 5.3534zm-54.4-23.806c-1.0313-0.67449-8.2703-3.2375-16.087-5.6955-18.281-5.7489-23.226-10.034-32.47-28.14-3.5435-6.94-6.4427-12.95-6.4427-13.356 0-0.40577 4.6406 3.7613 10.312 9.2601s12.96 11.796 16.196 13.995c10.081 6.8479 23.564 12.701 29.26 12.701 4.8571 0 5.343 0.32095 7.0971 4.6875 1.3059 3.251 1.4915 5.1663 0.6056 6.25-1.5202 1.8596-5.8505 2.0119-8.4712 0.29789zm-56.875-106.74c-5.7595-2.5423-7.6625-5.4266-13.058-19.792-7.9822-21.251-21.403-46.356-31.635-59.179-17.147-21.487-29.097-39.58-31.514-47.714-1.3718-4.6163 2.9154-3.4769 10.583 2.8125 6.1745 5.0649 11.266 7.1882 11.24 4.6875-0.01-0.51563-1.0787-4.4531-2.3855-8.75-1.3067-4.2969-1.9594-7.8125-1.4504-7.8125 1.2792 0 11.196 13.462 13.627 18.5 1.6003 3.3156 1.6945 4.6003 0.4797 6.5455-0.8313 1.3311-1.5115 3.5716-1.5115 4.9788 0 3.8254 5.1946 13.249 12.827 23.269 3.7484 4.9211 11.78 18.925 17.921 31.244 9.0628 18.183 12.461 23.713 18.315 29.802 3.9531 4.1119 7.1875 7.9369 7.1875 8.5 0 0.56313-1.9688 0.65455-4.375 0.20313-3.8589-0.72392-4.375-0.51455-4.375 1.7749 0 1.4276 1.6747 4.503 3.7216 6.8342 5.1207 5.8322 2.5688 7.6995-5.5966 4.0952z" filter="url(#aw)" opacity=".15"/>
   <path d="m2236.1 1080.3c-2.4555-6.3987 1.9805-29.136 13.899-71.239 18.797-66.403 18.271-64.216 21.818-90.675 0.6913-5.1562 2.997-13.875 5.1239-19.375 10.692-27.648 32.69-100.49 38.191-126.46 7.0183-33.135 9.1144-71.05 5.1235-92.673-2.0358-11.03-6.0066-21.488-8.1588-21.488-4.2092 0-28.68 33.965-31.676 43.967-1.6244 5.4218-1.7477 5.5017-4.3991 2.8504-1.7441-1.7442-1.4791-2.9355 2.7109-12.188 2.5542-5.6399 6.487-12.223 8.7395-14.629 5.0899-5.4373 15.848-20.431 18.77-26.161 2.6436-5.1829 2.0288-12.913-1.7218-21.652-2.1709-5.0576-3.0659-5.9375-6.0395-5.9375-3.3765 0-3.4761-0.18658-3.0381-5.693 0.6606-8.3067-1.7573-16.281-7.9389-26.182-11.443-18.328-28.884-35.268-43.746-42.487-13.386-6.5023-31.122-8.4032-36.726-3.9362-0.9496 0.75683-4.9724 5.6402-8.9398 10.852s-10.212 12.756-13.876 16.766c-9.1427 10.004-29.374 26.036-38.862 30.797-4.3154 2.1653-10.544 5.9046-13.842 8.3095-9.3576 6.8238-9.292 6.3002 2.3878-19.052 2.4077-5.2263 4.4747-7.3014 12.619-12.669 5.3567-3.5304 11.763-7.0612 14.235-7.8462 15.156-4.8117 31.686-23.204 66.663-74.172 7.4307-10.828 13.712-19.688 13.957-19.688 0.832 0-1.77 5.847-9.239 20.762-7.8588 15.693-10.655 26.398-7.5261 28.81 0.9069 0.69914 5.3051 2.5722 9.7739 4.1623 22.568 8.0306 40.618 21.495 53.87 40.185 4.8286 6.8103 9.5429 14.199 10.476 16.419 0.9333 2.2203 3.5021 6.5209 5.7085 9.5568s4.5474 7.5359 5.2021 10c0.6548 2.4641 2.917 8.2771 5.0271 12.918 5.123 11.267 7.5376 11.371 14.497 0.625 10.175-15.711 18.972-28.085 16.217-22.812-0.7516 1.4386-12.185 20.085-18.185 29.658-4.9723 7.9328-5.1004 11.564-1.0405 29.495 7.7935 34.422 6.1727 86.594-4.2593 137.1-1.4201 6.875-4.784 23.469-7.4753 36.875-5.8884 29.333-8.9503 40.097-19.35 68.023-4.3731 11.744-10.019 28.102-12.546 36.352-10.865 35.465-21.102 70.112-28.184 95.389-12.016 42.886-15.962 53.087-18.24 47.15zm-17.047-9.3285c-2.2635-7.0807-2.9005-16.987-1.1614-18.062 1.5315-0.9465 4.2211 12.85 3.7485 19.228l-0.4167 5.6234-2.1704-6.7894zm-31.334-46.861c-0.3748-0.9765 0.087-8.1484 1.026-15.938 1.4441-11.979 2.5494-16.007 7.1693-26.129 3.0041-6.582 7.3996-17.691 9.7679-24.688 2.3682-6.9962 4.7322-12.72 5.2533-12.72 1.3746 0 1.1437 14.292-0.3838 23.75-0.9069 5.6155-2.6041 10.055-5.4949 14.375-4.2285 6.3185-7.0484 14.038-11.986 32.813-2.6437 10.052-3.963 12.157-5.352 8.537zm118.85-713.32c-2.435-1.4182-6.4936-8.5104-5.4611-9.5429 0.9157-0.91574 10.883 5.0607 13.781 8.2635 2.3749 2.6241 2.371 2.6295-1.8765 2.5915-2.3409-0.0209-5.2406-0.61136-6.4437-1.3121zm61.25-25c-2.6812-1.5616-2.7733-3.2426-0.3125-5.7034 1.0312-1.0312 1.875-2.9977 1.875-4.37 0-1.9947 0.5639-2.3321 2.8125-1.6827 3.571 1.0313 8.7542 4.6814 9.4003 6.6198 0.2889 0.8666-0.7256 1.4864-2.433 1.4864-1.6106 0-3.631 1.125-4.4897 2.5-1.7254 2.7628-3.556 3.07-6.8526 1.1499zm-99.346-91.462c-4.2785-10.018-19.918-40.419-23.309-45.312-1.4297-2.0625-5.3293-7.125-8.6658-11.25-3.3364-4.125-7.3967-10.031-9.0227-13.125-1.6261-3.0938-5.2357-9-8.0213-13.125-4.7368-7.0143-6.1814-10.625-4.2508-10.625 0.4522 0 3.7646 2.2702 7.3611 5.0448 6.5519 5.0548 7.9397 6.8179 18.167 23.08 3.0265 4.8125 7.4151 11.281 9.7524 14.375 5.908 7.8202 27.157 51.622 25.337 52.228-0.7918 0.26393-1.4397 1.8393-1.4397 3.5007 0 5.2737-2.4621 3.2768-5.9082-4.7917z" filter="url(#ax)" opacity=".15"/>
  </g>
  <path transform="translate(189.26 255.14)" d="m184.56 255.16c-0.66256-6e-3 -1.3243-7e-3 -1.9863 0.0176-41.048 1.5123-81.35 26.041-97.779 42.516h15.562c15.849-15.893 53.914-39.274 93.434-42.264-2.411-0.15935-4.8264-0.25196-7.2422-0.25196-0.66246 0-1.3257-0.0115-1.9883-0.0176z" clip-path="url(#bk)" filter="url(#bw)"/>
 </g>
</svg>
