<?xml version="1.0" encoding="UTF-8" standalone="no"?>
<svg
   xmlns:dc="http://purl.org/dc/elements/1.1/"
   xmlns:cc="http://creativecommons.org/ns#"
   xmlns:rdf="http://www.w3.org/1999/02/22-rdf-syntax-ns#"
   xmlns:svg="http://www.w3.org/2000/svg"
   xmlns="http://www.w3.org/2000/svg"
   viewBox="0 0 377.95334 377.95334"
   height="377.95334"
   width="377.95334"
   xml:space="preserve"
   id="svg2"
   version="1.1"><metadata
     id="metadata8"><rdf:RDF><cc:Work
         rdf:about=""><dc:format>image/svg+xml</dc:format><dc:type
           rdf:resource="http://purl.org/dc/dcmitype/StillImage" /></cc:Work></rdf:RDF></metadata><defs
     id="defs6"><clipPath
       id="clipPath18"
       clipPathUnits="userSpaceOnUse"><path
         id="path16"
         d="m 93.938,159.397 c 22.404,-24.566 50.085,-51.259 50.085,-51.259 v 0 c 0,0 9.533,9.534 12.11,12.109 v 0 c 1.193,1.194 3.363,-1.418 3.363,-1.418 v 0 l 9.523,9.524 c 0,0 -61.093,61.093 -79.942,79.943 v 0 c -11.898,11.897 -30.065,13.992 -30.065,13.992 v 0 c 0,0 4.154,-29.146 34.926,-62.891" /></clipPath><linearGradient
       id="linearGradient38"
       spreadMethod="pad"
       gradientTransform="matrix(22.717657,22.717661,22.717661,-22.717657,95.315918,156.62012)"
       gradientUnits="userSpaceOnUse"
       y2="0"
       x2="1"
       y1="0"
       x1="0"><stop
         id="stop24"
         offset="0"
         style="stop-opacity:1;stop-color:#b2b1b1" /><stop
         id="stop26"
         offset="0.408602"
         style="stop-opacity:1;stop-color:#b2b1b1" /><stop
         id="stop28"
         offset="0.47233246"
         style="stop-opacity:1;stop-color:#cac9c9" /><stop
         id="stop30"
         offset="0.725807"
         style="stop-opacity:1;stop-color:#cac9c9" /><stop
         id="stop32"
         offset="0.85828383"
         style="stop-opacity:1;stop-color:#cac9c9" /><stop
         id="stop34"
         offset="0.962366"
         style="stop-opacity:1;stop-color:#cac9c9" /><stop
         id="stop36"
         offset="1"
         style="stop-opacity:1;stop-color:#cac9c9" /></linearGradient><clipPath
       id="clipPath48"
       clipPathUnits="userSpaceOnUse"><path
         id="path46"
         d="m 93.938,159.397 c 11.705,-12.834 24.846,-26.244 34.731,-36.129 v 0 c 9.038,-9.037 15.354,-15.13 15.354,-15.13 v 0 c 0,0 9.533,9.534 12.11,12.109 v 0 c 0.871,0.871 2.262,-0.285 2.949,-0.973 v 0 c 0.256,-0.254 0.414,-0.445 0.414,-0.445 v 0 l 9.523,9.524 c 0,0 -61.093,61.093 -79.942,79.943 v 0 c -11.898,11.897 -30.065,13.992 -30.065,13.992 v 0 c 0,0 4.154,-29.146 34.926,-62.891 m 35.014,-35.847 c -9.228,9.227 -22.741,22.984 -34.718,36.117 v 0 c -28.08,30.792 -33.983,58.054 -34.735,62.15 v 0 c 3.074,-0.461 18.761,-3.27 29.294,-13.805 v 0 l 79.66,-79.659 -8.943,-8.943 c -0.044,0.045 -0.092,0.095 -0.145,0.148 v 0 c -1.447,1.447 -2.695,1.793 -3.516,0.973 v 0 L 144.02,108.699 c -1.327,1.284 -7.197,6.98 -15.068,14.851" /></clipPath><linearGradient
       id="linearGradient64"
       spreadMethod="pad"
       gradientTransform="matrix(22.717657,22.717661,22.717661,-22.717657,95.315918,156.62012)"
       gradientUnits="userSpaceOnUse"
       y2="0"
       x2="1"
       y1="0"
       x1="0"><stop
         id="stop54"
         offset="0"
         style="stop-opacity:1;stop-color:#a09f9f" /><stop
         id="stop56"
         offset="0.70890864"
         style="stop-opacity:1;stop-color:#deddde" /><stop
         id="stop58"
         offset="0.811828"
         style="stop-opacity:1;stop-color:#deddde" /><stop
         id="stop60"
         offset="0.97857767"
         style="stop-opacity:1;stop-color:#cccbcc" /><stop
         id="stop62"
         offset="1"
         style="stop-opacity:1;stop-color:#cccbcc" /></linearGradient><clipPath
       id="clipPath74"
       clipPathUnits="userSpaceOnUse"><path
         id="path72"
         d="m 156.41,121.886 2.477,-2.478 9.539,9.539 -2.479,2.476 z" /></clipPath><clipPath
       id="clipPath82"
       clipPathUnits="userSpaceOnUse"><path
         id="path80"
         d="M -32768,32767 H 32767 V -32768 H -32768 Z" /></clipPath><linearGradient
       id="linearGradient96"
       spreadMethod="pad"
       gradientTransform="matrix(2.477612,-2.477612,-2.477612,-2.477612,161.17871,126.65527)"
       gradientUnits="userSpaceOnUse"
       y2="0"
       x2="1"
       y1="0"
       x1="0"><stop
         id="stop84"
         offset="0"
         style="stop-opacity:0;stop-color:#ffffff" /><stop
         id="stop86"
         offset="0.63483817"
         style="stop-opacity:0.50000763;stop-color:#ffffff" /><stop
         id="stop88"
         offset="0.693548"
         style="stop-opacity:0.50000763;stop-color:#ffffff" /><stop
         id="stop90"
         offset="0.70017465"
         style="stop-opacity:0.50000763;stop-color:#ffffff" /><stop
         id="stop92"
         offset="0.930107"
         style="stop-opacity:1;stop-color:#ffffff" /><stop
         id="stop94"
         offset="1"
         style="stop-opacity:1;stop-color:#ffffff" /></linearGradient><mask
       id="mask98"
       height="1"
       width="1"
       y="0"
       x="0"
       maskUnits="userSpaceOnUse"><g
         id="g108"><g
           id="g106"
           clip-path="url(#clipPath82)"><g
             id="g104"><g
               id="g102"><path
                 id="path100"
                 style="fill:url(#linearGradient96);stroke:none"
                 d="M -32768,32767 H 32767 V -32768 H -32768 Z" /></g></g></g></g></mask><linearGradient
       id="linearGradient126"
       spreadMethod="pad"
       gradientTransform="matrix(2.477612,-2.477612,-2.477612,-2.477612,161.17871,126.65527)"
       gradientUnits="userSpaceOnUse"
       y2="0"
       x2="1"
       y1="0"
       x1="0"><stop
         id="stop114"
         offset="0"
         style="stop-opacity:1;stop-color:#bfbebe" /><stop
         id="stop116"
         offset="0.63483817"
         style="stop-opacity:1;stop-color:#c6c5c5" /><stop
         id="stop118"
         offset="0.693548"
         style="stop-opacity:1;stop-color:#c6c5c5" /><stop
         id="stop120"
         offset="0.70017465"
         style="stop-opacity:1;stop-color:#c6c5c5" /><stop
         id="stop122"
         offset="0.930107"
         style="stop-opacity:1;stop-color:#747273" /><stop
         id="stop124"
         offset="1"
         style="stop-opacity:1;stop-color:#747273" /></linearGradient><clipPath
       id="clipPath136"
       clipPathUnits="userSpaceOnUse"><path
         id="path134"
         d="M 0,283.465 H 283.465 V 0 H 0 Z" /></clipPath><clipPath
       id="clipPath144"
       clipPathUnits="userSpaceOnUse"><path
         id="path142"
         d="M 59.0122,222.288 H 169.02 V 108.138 H 59.0122 Z" /></clipPath><clipPath
       id="clipPath148"
       clipPathUnits="userSpaceOnUse"><path
         id="path146"
         d="m 59.012,222.288 c 0,0 18.167,-2.095 30.065,-13.992 18.849,-18.85 79.943,-79.943 79.943,-79.943 l -9.524,-9.524 c 0,0 -2.17,2.611 -3.363,1.418 -2.576,-2.575 -12.11,-12.109 -12.11,-12.109 0,0 -27.681,26.693 -50.085,51.259 -30.772,33.745 -34.926,62.891 -34.926,62.891" /></clipPath><clipPath
       id="clipPath152"
       clipPathUnits="userSpaceOnUse"><path
         id="path150"
         d="M -32768,32767 H 32767 V -32768 H -32768 Z" /></clipPath><linearGradient
       id="linearGradient180"
       spreadMethod="pad"
       gradientTransform="matrix(-62.994747,-134.34875,-134.34875,62.994747,128.96436,207.2002)"
       gradientUnits="userSpaceOnUse"
       y2="0"
       x2="1"
       y1="0"
       x1="0"><stop
         id="stop154"
         offset="0"
         style="stop-opacity:0;stop-color:#ffffff" /><stop
         id="stop156"
         offset="0.0268817"
         style="stop-opacity:0;stop-color:#ffffff" /><stop
         id="stop158"
         offset="0.0470799"
         style="stop-opacity:0;stop-color:#ffffff" /><stop
         id="stop160"
         offset="0.204301"
         style="stop-opacity:1;stop-color:#ffffff" /><stop
         id="stop162"
         offset="0.29855844"
         style="stop-opacity:0;stop-color:#ffffff" /><stop
         id="stop164"
         offset="0.311828"
         style="stop-opacity:0;stop-color:#ffffff" /><stop
         id="stop166"
         offset="0.38172"
         style="stop-opacity:0;stop-color:#ffffff" /><stop
         id="stop168"
         offset="0.430107"
         style="stop-opacity:0.50000763;stop-color:#ffffff" /><stop
         id="stop170"
         offset="0.5"
         style="stop-opacity:0;stop-color:#ffffff" /><stop
         id="stop172"
         offset="0.62649971"
         style="stop-opacity:0;stop-color:#ffffff" /><stop
         id="stop174"
         offset="0.747312"
         style="stop-opacity:0;stop-color:#ffffff" /><stop
         id="stop176"
         offset="0.87656153"
         style="stop-opacity:0;stop-color:#ffffff" /><stop
         id="stop178"
         offset="1"
         style="stop-opacity:0;stop-color:#ffffff" /></linearGradient><mask
       id="mask182"
       height="1"
       width="1"
       y="0"
       x="0"
       maskUnits="userSpaceOnUse"><g
         id="g192"><g
           id="g190"
           clip-path="url(#clipPath152)"><g
             id="g188"><g
               id="g186"><path
                 id="path184"
                 style="fill:url(#linearGradient180);stroke:none"
                 d="M -32768,32767 H 32767 V -32768 H -32768 Z" /></g></g></g></g></mask><linearGradient
       id="linearGradient220"
       spreadMethod="pad"
       gradientTransform="matrix(-62.994747,-134.34875,-134.34875,62.994747,128.96436,207.2002)"
       gradientUnits="userSpaceOnUse"
       y2="0"
       x2="1"
       y1="0"
       x1="0"><stop
         id="stop194"
         offset="0"
         style="stop-opacity:1;stop-color:#dad9d9" /><stop
         id="stop196"
         offset="0.0268817"
         style="stop-opacity:1;stop-color:#dad9d9" /><stop
         id="stop198"
         offset="0.0470799"
         style="stop-opacity:1;stop-color:#dad9d9" /><stop
         id="stop200"
         offset="0.204301"
         style="stop-opacity:1;stop-color:#ffffff" /><stop
         id="stop202"
         offset="0.29855844"
         style="stop-opacity:1;stop-color:#ffffff" /><stop
         id="stop204"
         offset="0.311828"
         style="stop-opacity:1;stop-color:#ffffff" /><stop
         id="stop206"
         offset="0.38172"
         style="stop-opacity:1;stop-color:#ffffff" /><stop
         id="stop208"
         offset="0.430107"
         style="stop-opacity:1;stop-color:#ffffff" /><stop
         id="stop210"
         offset="0.5"
         style="stop-opacity:1;stop-color:#e5e4e4" /><stop
         id="stop212"
         offset="0.62649971"
         style="stop-opacity:1;stop-color:#f5f5f5" /><stop
         id="stop214"
         offset="0.747312"
         style="stop-opacity:1;stop-color:#f5f5f5" /><stop
         id="stop216"
         offset="0.87656153"
         style="stop-opacity:1;stop-color:#9c9a9b" /><stop
         id="stop218"
         offset="1"
         style="stop-opacity:1;stop-color:#9c9a9b" /></linearGradient><clipPath
       id="clipPath246"
       clipPathUnits="userSpaceOnUse"><path
         id="path244"
         d="m 157.971,118.491 c 0,0 21.189,-23.912 32.144,-34.866 v 0 c 5.558,-5.559 10.01,-13.682 13.676,-17.349 v 0 c 3.855,-3.855 8.418,-4.746 8.418,-4.746 v 0 l 12.244,12.243 -55.599,55.6 z" /></clipPath><linearGradient
       id="linearGradient266"
       spreadMethod="pad"
       gradientTransform="matrix(24.750263,24.750267,24.750267,-24.750263,176.99219,81.914063)"
       gradientUnits="userSpaceOnUse"
       y2="0"
       x2="1"
       y1="0"
       x1="0"><stop
         id="stop252"
         offset="0"
         style="stop-opacity:1;stop-color:#302c2d" /><stop
         id="stop254"
         offset="0.41503072"
         style="stop-opacity:1;stop-color:#302c2d" /><stop
         id="stop256"
         offset="0.698925"
         style="stop-opacity:1;stop-color:#3d3a3b" /><stop
         id="stop258"
         offset="0.80194771"
         style="stop-opacity:1;stop-color:#3d3a3b" /><stop
         id="stop260"
         offset="0.854839"
         style="stop-opacity:1;stop-color:#484546" /><stop
         id="stop262"
         offset="0.88992531"
         style="stop-opacity:1;stop-color:#484546" /><stop
         id="stop264"
         offset="1"
         style="stop-opacity:1;stop-color:#484546" /></linearGradient><clipPath
       id="clipPath276"
       clipPathUnits="userSpaceOnUse"><path
         id="path274"
         d="M 0,283.465 H 283.465 V 0 H 0 Z" /></clipPath><clipPath
       id="clipPath284"
       clipPathUnits="userSpaceOnUse"><path
         id="path282"
         d="m 172.481,115.094 h 5.277 v -5.276 h -5.277 z" /></clipPath><clipPath
       id="clipPath288"
       clipPathUnits="userSpaceOnUse"><path
         id="path286"
         d="m 176.932,110.645 c -1,-1.001 -2.623,-1.002 -3.625,0 -1,1.001 -1,2.623 0,3.623 1.002,1.001 2.623,1.002 3.625,0 1.002,-1.001 1,-2.623 0,-3.623" /></clipPath><linearGradient
       id="linearGradient308"
       spreadMethod="pad"
       gradientTransform="matrix(1.3266876,4.9512658,4.9512658,-1.3266876,174.45605,109.98145)"
       gradientUnits="userSpaceOnUse"
       y2="0"
       x2="1"
       y1="0"
       x1="0"><stop
         id="stop290"
         offset="0"
         style="stop-opacity:1;stop-color:#a9a8a8" /><stop
         id="stop292"
         offset="0.17011919"
         style="stop-opacity:1;stop-color:#a9a8a8" /><stop
         id="stop294"
         offset="0.295699"
         style="stop-opacity:1;stop-color:#ffffff" /><stop
         id="stop296"
         offset="0.37883978"
         style="stop-opacity:1;stop-color:#d3d2d2" /><stop
         id="stop298"
         offset="0.424731"
         style="stop-opacity:1;stop-color:#d3d2d2" /><stop
         id="stop300"
         offset="0.59336294"
         style="stop-opacity:1;stop-color:#ffffff" /><stop
         id="stop302"
         offset="0.61828"
         style="stop-opacity:1;stop-color:#ffffff" /><stop
         id="stop304"
         offset="0.77856015"
         style="stop-opacity:1;stop-color:#918f90" /><stop
         id="stop306"
         offset="1"
         style="stop-opacity:1;stop-color:#918f90" /></linearGradient><linearGradient
       id="linearGradient316"
       spreadMethod="pad"
       gradientTransform="matrix(3.73057,-3.73057,3.73057,3.73057,173.253,172.873)"
       gradientUnits="userSpaceOnUse"
       y2="0"
       x2="1"
       y1="0"
       x1="0"><stop
         id="stop310"
         offset="0"
         style="stop-opacity:1;stop-color:#5e5b5c" /><stop
         id="stop312"
         offset="0.37928785"
         style="stop-opacity:1;stop-color:#322f30" /><stop
         id="stop314"
         offset="1"
         style="stop-opacity:1;stop-color:#322f30" /></linearGradient><clipPath
       id="clipPath342"
       clipPathUnits="userSpaceOnUse"><path
         id="path340"
         d="m 188.336,98.5322 h 5.275 v -5.2754 h -5.275 z" /></clipPath><clipPath
       id="clipPath346"
       clipPathUnits="userSpaceOnUse"><path
         id="path344"
         d="m 192.785,94.083 c -1,-1.001 -2.623,-1.001 -3.623,0 -1.002,1.001 -1.002,2.623 0,3.624 1,1 2.621,1.001 3.623,0 1.002,-1.001 1,-2.623 0,-3.624" /></clipPath><linearGradient
       id="linearGradient366"
       spreadMethod="pad"
       gradientTransform="matrix(1.7284373,6.4506164,6.4506164,-1.7284373,190.32813,93.487305)"
       gradientUnits="userSpaceOnUse"
       y2="0"
       x2="1"
       y1="0"
       x1="0"><stop
         id="stop348"
         offset="0"
         style="stop-opacity:1;stop-color:#a9a8a8" /><stop
         id="stop350"
         offset="0.17011919"
         style="stop-opacity:1;stop-color:#a9a8a8" /><stop
         id="stop352"
         offset="0.295699"
         style="stop-opacity:1;stop-color:#ffffff" /><stop
         id="stop354"
         offset="0.37883978"
         style="stop-opacity:1;stop-color:#d3d2d2" /><stop
         id="stop356"
         offset="0.424731"
         style="stop-opacity:1;stop-color:#d3d2d2" /><stop
         id="stop358"
         offset="0.59336294"
         style="stop-opacity:1;stop-color:#ffffff" /><stop
         id="stop360"
         offset="0.61828"
         style="stop-opacity:1;stop-color:#ffffff" /><stop
         id="stop362"
         offset="0.77856015"
         style="stop-opacity:1;stop-color:#918f90" /><stop
         id="stop364"
         offset="1"
         style="stop-opacity:1;stop-color:#918f90" /></linearGradient><linearGradient
       id="linearGradient374"
       spreadMethod="pad"
       gradientTransform="matrix(3.72988,-3.72988,3.72988,3.72988,189.107,189.4347)"
       gradientUnits="userSpaceOnUse"
       y2="0"
       x2="1"
       y1="0"
       x1="0"><stop
         id="stop368"
         offset="0"
         style="stop-opacity:1;stop-color:#5e5b5c" /><stop
         id="stop370"
         offset="0.37928785"
         style="stop-opacity:1;stop-color:#322f30" /><stop
         id="stop372"
         offset="1"
         style="stop-opacity:1;stop-color:#322f30" /></linearGradient><clipPath
       id="clipPath400"
       clipPathUnits="userSpaceOnUse"><path
         id="path398"
         d="m 204.543,82.3252 h 5.275 v -5.2754 h -5.275 z" /></clipPath><clipPath
       id="clipPath404"
       clipPathUnits="userSpaceOnUse"><path
         id="path402"
         d="m 208.992,77.876 c -1,-1.001 -2.621,-1.002 -3.623,-0.001 -1.002,1.002 -1,2.624 0,3.624 1,1.001 2.623,1.002 3.623,0 1.002,-1.001 1.002,-2.623 0,-3.623" /></clipPath><linearGradient
       id="linearGradient424"
       spreadMethod="pad"
       gradientTransform="matrix(1.9671426,7.3414764,7.3414764,-1.9671426,205.98242,75.217773)"
       gradientUnits="userSpaceOnUse"
       y2="0"
       x2="1"
       y1="0"
       x1="0"><stop
         id="stop406"
         offset="0"
         style="stop-opacity:1;stop-color:#a9a8a8" /><stop
         id="stop408"
         offset="0.17011919"
         style="stop-opacity:1;stop-color:#a9a8a8" /><stop
         id="stop410"
         offset="0.295699"
         style="stop-opacity:1;stop-color:#ffffff" /><stop
         id="stop412"
         offset="0.37883978"
         style="stop-opacity:1;stop-color:#d3d2d2" /><stop
         id="stop414"
         offset="0.424731"
         style="stop-opacity:1;stop-color:#d3d2d2" /><stop
         id="stop416"
         offset="0.59336294"
         style="stop-opacity:1;stop-color:#ffffff" /><stop
         id="stop418"
         offset="0.61828"
         style="stop-opacity:1;stop-color:#ffffff" /><stop
         id="stop420"
         offset="0.77856015"
         style="stop-opacity:1;stop-color:#918f90" /><stop
         id="stop422"
         offset="1"
         style="stop-opacity:1;stop-color:#918f90" /></linearGradient><linearGradient
       id="linearGradient432"
       spreadMethod="pad"
       gradientTransform="matrix(3.72988,-3.72988,3.72988,3.72988,205.314,205.6418)"
       gradientUnits="userSpaceOnUse"
       y2="0"
       x2="1"
       y1="0"
       x1="0"><stop
         id="stop426"
         offset="0"
         style="stop-opacity:1;stop-color:#5e5b5c" /><stop
         id="stop428"
         offset="0.37928785"
         style="stop-opacity:1;stop-color:#322f30" /><stop
         id="stop430"
         offset="1"
         style="stop-opacity:1;stop-color:#322f30" /></linearGradient><clipPath
       id="clipPath458"
       clipPathUnits="userSpaceOnUse"><path
         id="path456"
         d="m 157.617,118.138 c 0,0 21.19,-23.912 32.144,-34.866 v 0 c 5.56,-5.559 10.01,-13.683 13.677,-17.35 v 0 c 3.855,-3.854 8.417,-4.745 8.417,-4.745 v 0 l 0.885,0.883 c 0,0 -4.562,0.891 -8.418,4.747 v 0 c -3.666,3.666 -8.119,11.79 -13.678,17.348 v 0 c -10.953,10.954 -32.142,34.866 -32.142,34.866 v 0 z" /></clipPath><linearGradient
       id="linearGradient478"
       spreadMethod="pad"
       gradientTransform="matrix(-12.085434,-10.788063,-10.788063,12.085434,191.04395,95.333984)"
       gradientUnits="userSpaceOnUse"
       y2="0"
       x2="1"
       y1="0"
       x1="0"><stop
         id="stop464"
         offset="0"
         style="stop-opacity:1;stop-color:#302c2d" /><stop
         id="stop466"
         offset="0.41503072"
         style="stop-opacity:1;stop-color:#302c2d" /><stop
         id="stop468"
         offset="0.698925"
         style="stop-opacity:1;stop-color:#403c3d" /><stop
         id="stop470"
         offset="0.80194771"
         style="stop-opacity:1;stop-color:#403c3d" /><stop
         id="stop472"
         offset="0.854839"
         style="stop-opacity:1;stop-color:#5c595a" /><stop
         id="stop474"
         offset="0.88992531"
         style="stop-opacity:1;stop-color:#5c595a" /><stop
         id="stop476"
         offset="1"
         style="stop-opacity:1;stop-color:#5c595a" /></linearGradient><clipPath
       id="clipPath488"
       clipPathUnits="userSpaceOnUse"><path
         id="path486"
         d="M 0,283.465 H 283.465 V 0 H 0 Z" /></clipPath><clipPath
       id="clipPath496"
       clipPathUnits="userSpaceOnUse"><path
         id="path494"
         d="M 210.135,74.2305 H 224.1 V 61.0654 h -13.965 z" /></clipPath><clipPath
       id="clipPath500"
       clipPathUnits="userSpaceOnUse"><path
         id="path498"
         d="m 223.289,74.23 -0.885,-0.883 -5.324,-5.326 -6.945,-6.944 c 0.968,-0.056 1.72,0.1 1.72,0.1 l 6.036,6.034 5.324,5.325 0.885,0.884 z" /></clipPath><clipPath
       id="clipPath504"
       clipPathUnits="userSpaceOnUse"><path
         id="path502"
         d="M -32768,32767 H 32767 V -32768 H -32768 Z" /></clipPath><linearGradient
       id="linearGradient514"
       spreadMethod="pad"
       gradientTransform="matrix(0.8890744,-0.889075,-2.0030296,-2.0030301,216.58398,67.782227)"
       gradientUnits="userSpaceOnUse"
       y2="0"
       x2="1"
       y1="0"
       x1="0"><stop
         id="stop506"
         offset="0"
         style="stop-opacity:0;stop-color:#ffffff" /><stop
         id="stop508"
         offset="0.263441"
         style="stop-opacity:0;stop-color:#ffffff" /><stop
         id="stop510"
         offset="0.44488567"
         style="stop-opacity:0;stop-color:#ffffff" /><stop
         id="stop512"
         offset="1"
         style="stop-opacity:1;stop-color:#ffffff" /></linearGradient><mask
       id="mask516"
       height="1"
       width="1"
       y="0"
       x="0"
       maskUnits="userSpaceOnUse"><g
         id="g526"><g
           id="g524"
           clip-path="url(#clipPath504)"><g
             id="g522"><g
               id="g520"><path
                 id="path518"
                 style="fill:url(#linearGradient514);stroke:none"
                 d="M -32768,32767 H 32767 V -32768 H -32768 Z" /></g></g></g></g></mask><linearGradient
       id="linearGradient536"
       spreadMethod="pad"
       gradientTransform="matrix(0.8890744,-0.889075,-2.0030296,-2.0030301,216.58398,67.782227)"
       gradientUnits="userSpaceOnUse"
       y2="0"
       x2="1"
       y1="0"
       x1="0"><stop
         id="stop528"
         offset="0"
         style="stop-opacity:1;stop-color:#464344" /><stop
         id="stop530"
         offset="0.263441"
         style="stop-opacity:1;stop-color:#464344" /><stop
         id="stop532"
         offset="0.44488567"
         style="stop-opacity:1;stop-color:#464344" /><stop
         id="stop534"
         offset="1"
         style="stop-opacity:1;stop-color:#797677" /></linearGradient><clipPath
       id="clipPath562"
       clipPathUnits="userSpaceOnUse"><path
         id="path560"
         d="m 167.68,128.201 55.599,-55.601 1.174,1.173 -55.599,55.6 z" /></clipPath><clipPath
       id="clipPath570"
       clipPathUnits="userSpaceOnUse"><path
         id="path568"
         d="M -32768,32767 H 32767 V -32768 H -32768 Z" /></clipPath><linearGradient
       id="linearGradient582"
       spreadMethod="pad"
       gradientTransform="matrix(1.0294076,1.0294067,4.6741476,-4.6741462,195.62891,100.54785)"
       gradientUnits="userSpaceOnUse"
       y2="0"
       x2="1"
       y1="0"
       x1="0"><stop
         id="stop572"
         offset="0"
         style="stop-opacity:0;stop-color:#ffffff" /><stop
         id="stop574"
         offset="0.33215053"
         style="stop-opacity:0;stop-color:#ffffff" /><stop
         id="stop576"
         offset="0.699948"
         style="stop-opacity:1;stop-color:#ffffff" /><stop
         id="stop578"
         offset="0.82275753"
         style="stop-opacity:1;stop-color:#ffffff" /><stop
         id="stop580"
         offset="1"
         style="stop-opacity:1;stop-color:#ffffff" /></linearGradient><mask
       id="mask584"
       height="1"
       width="1"
       y="0"
       x="0"
       maskUnits="userSpaceOnUse"><g
         id="g594"><g
           id="g592"
           clip-path="url(#clipPath570)"><g
             id="g590"><g
               id="g588"><path
                 id="path586"
                 style="fill:url(#linearGradient582);stroke:none"
                 d="M -32768,32767 H 32767 V -32768 H -32768 Z" /></g></g></g></g></mask><linearGradient
       id="linearGradient610"
       spreadMethod="pad"
       gradientTransform="matrix(1.0294076,1.0294067,4.6741476,-4.6741462,195.62891,100.54785)"
       gradientUnits="userSpaceOnUse"
       y2="0"
       x2="1"
       y1="0"
       x1="0"><stop
         id="stop600"
         offset="0"
         style="stop-opacity:1;stop-color:#4d4a4a" /><stop
         id="stop602"
         offset="0.33215053"
         style="stop-opacity:1;stop-color:#4d4a4a" /><stop
         id="stop604"
         offset="0.699948"
         style="stop-opacity:1;stop-color:#514e4f" /><stop
         id="stop606"
         offset="0.82275753"
         style="stop-opacity:1;stop-color:#514e4f" /><stop
         id="stop608"
         offset="1"
         style="stop-opacity:1;stop-color:#464344" /></linearGradient></defs><g
     transform="matrix(1.3333333,0,0,-1.3333333,0,377.95333)"
     id="g10"><g
       id="g12"><g
         clip-path="url(#clipPath18)"
         id="g14"><g
           id="g20"><g
             id="g22"><path
               id="path40"
               style="fill:url(#linearGradient38);stroke:none"
               d="m 93.938,159.397 c 22.404,-24.566 50.085,-51.259 50.085,-51.259 v 0 c 0,0 9.533,9.534 12.11,12.109 v 0 c 1.193,1.194 3.363,-1.418 3.363,-1.418 v 0 l 9.523,9.524 c 0,0 -61.093,61.093 -79.942,79.943 v 0 c -11.898,11.897 -30.065,13.992 -30.065,13.992 v 0 c 0,0 4.154,-29.146 34.926,-62.891" /></g></g></g></g><g
       id="g42"><g
         clip-path="url(#clipPath48)"
         id="g44"><g
           id="g50"><g
             id="g52"><path
               id="path66"
               style="fill:url(#linearGradient64);stroke:none"
               d="m 93.938,159.397 c 11.705,-12.834 24.846,-26.244 34.731,-36.129 v 0 c 9.038,-9.037 15.354,-15.13 15.354,-15.13 v 0 c 0,0 9.533,9.534 12.11,12.109 v 0 c 0.871,0.871 2.262,-0.285 2.949,-0.973 v 0 c 0.256,-0.254 0.414,-0.445 0.414,-0.445 v 0 l 9.523,9.524 c 0,0 -61.093,61.093 -79.942,79.943 v 0 c -11.898,11.897 -30.065,13.992 -30.065,13.992 v 0 c 0,0 4.154,-29.146 34.926,-62.891 m 35.014,-35.847 c -9.228,9.227 -22.741,22.984 -34.718,36.117 v 0 c -28.08,30.792 -33.983,58.054 -34.735,62.15 v 0 c 3.074,-0.461 18.761,-3.27 29.294,-13.805 v 0 l 79.66,-79.659 -8.943,-8.943 c -0.044,0.045 -0.092,0.095 -0.145,0.148 v 0 c -1.447,1.447 -2.695,1.793 -3.516,0.973 v 0 L 144.02,108.699 c -1.327,1.284 -7.197,6.98 -15.068,14.851" /></g></g></g></g><g
       id="g68"><g
         clip-path="url(#clipPath74)"
         id="g70"><g
           id="g76"><g
             id="g78" /><g
             mask="url(#mask98)"
             id="g110"><g
               id="g112"><path
                 id="path128"
                 style="fill:url(#linearGradient126);stroke:none"
                 d="m 156.41,121.886 2.477,-2.478 9.539,9.539 -2.479,2.476 z" /></g></g></g></g></g><g
       id="g130"><g
         clip-path="url(#clipPath136)"
         id="g132"><g
           id="g138"><g
             id="g140" /><g
             id="g238"><g
               style="opacity:0.69999701"
               id="g236"
               clip-path="url(#clipPath144)"><g
                 id="g234"><g
                   id="g232"
                   clip-path="url(#clipPath148)"><g
                     id="g230"><g
                       id="g222" /><g
                       id="g228"
                       mask="url(#mask182)"><g
                         id="g226"><path
                           id="path224"
                           style="fill:url(#linearGradient220);stroke:none"
                           d="m 59.012,222.288 c 0,0 18.167,-2.095 30.065,-13.992 18.849,-18.85 79.943,-79.943 79.943,-79.943 l -9.524,-9.524 c 0,0 -2.17,2.611 -3.363,1.418 -2.576,-2.575 -12.11,-12.109 -12.11,-12.109 0,0 -27.681,26.693 -50.085,51.259 -30.772,33.745 -34.926,62.891 -34.926,62.891" /></g></g></g></g></g></g></g></g></g></g><g
       id="g240"><g
         clip-path="url(#clipPath246)"
         id="g242"><g
           id="g248"><g
             id="g250"><path
               id="path268"
               style="fill:url(#linearGradient266);stroke:none"
               d="m 157.971,118.491 c 0,0 21.189,-23.912 32.144,-34.866 v 0 c 5.558,-5.559 10.01,-13.682 13.676,-17.349 v 0 c 3.855,-3.855 8.418,-4.746 8.418,-4.746 v 0 l 12.244,12.243 -55.599,55.6 z" /></g></g></g></g><g
       id="g270"><g
         clip-path="url(#clipPath276)"
         id="g272"><g
           id="g278"><g
             id="g280" /><g
             id="g334"><g
               style="opacity:0.69999701"
               id="g332"
               clip-path="url(#clipPath284)"><g
                 id="g326"><g
                   id="g324"
                   clip-path="url(#clipPath288)"><g
                     id="g322"><g
                       id="g320"><path
                         id="path318"
                         style="fill:url(#linearGradient308);stroke:none"
                         d="m 176.932,110.645 c -1,-1.001 -2.623,-1.002 -3.625,0 -1,1.001 -1,2.623 0,3.623 1.002,1.001 2.623,1.002 3.625,0 1.002,-1.001 1,-2.623 0,-3.623" /></g></g></g></g><g
                 id="g330"
                 transform="translate(176.9316,110.6445)"><path
                   id="path328"
                   style="fill:none;stroke:url(#linearGradient316);stroke-width:0.15000001;stroke-linecap:butt;stroke-linejoin:miter;stroke-miterlimit:10;stroke-dasharray:none;stroke-opacity:1"
                   d="m 0,0 c -1,-1.001 -2.623,-1.002 -3.625,0 -1,1.001 -1,2.623 0,3.623 1.002,1.001 2.623,1.002 3.625,0 C 1.002,2.622 1,1 0,0 Z" /></g></g></g></g><g
           id="g336"><g
             id="g338" /><g
             id="g392"><g
               style="opacity:0.69999701"
               id="g390"
               clip-path="url(#clipPath342)"><g
                 id="g384"><g
                   id="g382"
                   clip-path="url(#clipPath346)"><g
                     id="g380"><g
                       id="g378"><path
                         id="path376"
                         style="fill:url(#linearGradient366);stroke:none"
                         d="m 192.785,94.083 c -1,-1.001 -2.623,-1.001 -3.623,0 -1.002,1.001 -1.002,2.623 0,3.624 1,1 2.621,1.001 3.623,0 1.002,-1.001 1,-2.623 0,-3.624" /></g></g></g></g><g
                 id="g388"
                 transform="translate(192.7852,94.083)"><path
                   id="path386"
                   style="fill:none;stroke:url(#linearGradient374);stroke-width:0.15000001;stroke-linecap:butt;stroke-linejoin:miter;stroke-miterlimit:10;stroke-dasharray:none;stroke-opacity:1"
                   d="m 0,0 c -1,-1.001 -2.623,-1.001 -3.623,0 -1.002,1.001 -1.002,2.623 0,3.624 1,1 2.621,1.001 3.623,0 C 1.002,2.623 1,1.001 0,0 Z" /></g></g></g></g><g
           id="g394"><g
             id="g396" /><g
             id="g450"><g
               style="opacity:0.69999701"
               id="g448"
               clip-path="url(#clipPath400)"><g
                 id="g442"><g
                   id="g440"
                   clip-path="url(#clipPath404)"><g
                     id="g438"><g
                       id="g436"><path
                         id="path434"
                         style="fill:url(#linearGradient424);stroke:none"
                         d="m 208.992,77.876 c -1,-1.001 -2.621,-1.002 -3.623,-0.001 -1.002,1.002 -1,2.624 0,3.624 1,1.001 2.623,1.002 3.623,0 1.002,-1.001 1.002,-2.623 0,-3.623" /></g></g></g></g><g
                 id="g446"
                 transform="translate(208.9922,77.876)"><path
                   id="path444"
                   style="fill:none;stroke:url(#linearGradient432);stroke-width:0.15000001;stroke-linecap:butt;stroke-linejoin:miter;stroke-miterlimit:10;stroke-dasharray:none;stroke-opacity:1"
                   d="m 0,0 c -1,-1.001 -2.621,-1.002 -3.623,-0.001 -1.002,1.002 -1,2.624 0,3.624 1,1.001 2.623,1.002 3.623,0 C 1.002,2.622 1.002,1 0,0 Z" /></g></g></g></g></g></g><g
       id="g452"><g
         clip-path="url(#clipPath458)"
         id="g454"><g
           id="g460"><g
             id="g462"><path
               id="path480"
               style="fill:url(#linearGradient478);stroke:none"
               d="m 157.617,118.138 c 0,0 21.19,-23.912 32.144,-34.866 v 0 c 5.56,-5.559 10.01,-13.683 13.677,-17.35 v 0 c 3.855,-3.854 8.417,-4.745 8.417,-4.745 v 0 l 0.885,0.883 c 0,0 -4.562,0.891 -8.418,4.747 v 0 c -3.666,3.666 -8.119,11.79 -13.678,17.348 v 0 c -10.953,10.954 -32.142,34.866 -32.142,34.866 v 0 z" /></g></g></g></g><g
       id="g482"><g
         clip-path="url(#clipPath488)"
         id="g484"><g
           id="g490"><g
             id="g492" /><g
             id="g554"><g
               style="opacity:0.5"
               id="g552"
               clip-path="url(#clipPath496)"><g
                 id="g550"><g
                   id="g548"
                   clip-path="url(#clipPath500)"><g
                     id="g546"><g
                       id="g538" /><g
                       id="g544"
                       mask="url(#mask516)"><g
                         id="g542"><path
                           id="path540"
                           style="fill:url(#linearGradient536);stroke:none"
                           d="m 223.289,74.23 -0.885,-0.883 -5.324,-5.326 -6.945,-6.944 c 0.968,-0.056 1.72,0.1 1.72,0.1 l 6.036,6.034 5.324,5.325 0.885,0.884 z" /></g></g></g></g></g></g></g></g></g></g><g
       id="g556"><g
         clip-path="url(#clipPath562)"
         id="g558"><g
           id="g564"><g
             id="g566" /><g
             mask="url(#mask584)"
             id="g596"><g
               id="g598"><path
                 id="path612"
                 style="fill:url(#linearGradient610);stroke:none"
                 d="m 167.68,128.201 55.599,-55.601 1.174,1.173 -55.599,55.6 z" /></g></g></g></g></g></g></svg>