<?xml version="1.0" encoding="UTF-8"?>
<svg version="1.1" viewBox="0 0 405.89 334.62" xmlns="http://www.w3.org/2000/svg">
 <g transform="translate(-102.71 -316.5)">
  <path d="m467.86 455.22c14.35-31.632 29.27-58.847 40.714-93.571 0.53422-4.1323-6.555-7.6084-10.714-7.8571-57.451-3.4357-115.82-3.7805-162.14 7.1428-7.9366 1.8714-12.223 10.164-13.929 16.786-5.1634 20.042-16.786 59.286-16.786 59.286l6.0714 2.5s13.664-37.706 18.929-59.286c1.2399-5.0825 7.5452-9.363 12.5-10.357 45.695-9.168 156.2-9.8958 152.86 0.35716-9.3294 28.605-21.955 54.467-34.643 82.5z" fill="#333"/>
  <path d="m291.54 467.9 9.0944 1.6378 5.1913-14.495-9.2857-1.7857z"/>
  <path d="m443.57 485.58 9.0944 1.6378 5.1913-14.495-9.2857-1.7857z"/>
  <path d="m407.09 569s5.666-47.155 18.183-68.185c5.0431-8.4731 19.378-32.423 26.987-54.646 14.347-41.901 21.562-89.282 15.439-96.876-22.762-28.234-123.24-20.203-140.92 4.0406-10.109 13.864-8.2907 63.935-20.708 88.893-10.344 20.79-13.81 33.437-17.678 51.013-4.7277 21.482-6.566 65.66-6.566 65.66h-8.5863s-0.95412-46.633 6.0609-75.256c3.0827-12.578 11.988-35.723 16.162-47.982 9.0785-26.661 11.186-51.784 18.183-82.327 7.5605-33.002 54.6-34.219 88.388-36.365 34.116-2.1674 87.486 2.3357 84.853 31.82-2.4298 27.208-5.4796 58.157-20.745 97.548-7.3367 18.931-27.302 52.399-32.793 64.582-9.2378 20.496-10.458 42.943-15.152 58.084z"/>
  <path d="m303.19 427.99c-4.6798 2.261-7.9582 8.2334-5.4234 14.618 2.5348 6.385 3.1305 26.605 3.1305 26.605l14.777-37.15s-8.5429-5.9775-12.484-4.0732z" fill="#333"/>
  <path d="m247.99 515.47c-4.0955 11.462-3.5745 21.391-2.5254 31.567l99.5 1.0102-2.7779-51.518z" fill="#808080"/>
  <path d="m321.16 500.75-73.156 14.719c-1.4477 4.0517-2.3066 7.909-2.7812 11.656 9.5857 12.117 20.862 3.2232 46.219-3.5625l-1.4688 23.906 36.219 0.375z" fill="#1a1a1a"/>
  <g transform="matrix(1.0059 .026292 -.031195 .84783 -144.78 68.851)">
   <path d="m286.97 577.86c-10.46 0-20.074 16.907-21.469 39.641s7.461 38.126 16.406 39.388l16.842 2.5208c10.46 0 20.074-18.422 21.469-41.156s-5.9458-41.156-16.406-41.156z"/>
   <path transform="matrix(.97546 0 -.063756 1.0392 47.833 -20.833)" d="m318.96 614.97c0 21.339-8.4799 38.638-18.94 38.638s-18.94-17.299-18.94-38.638c0-21.339 8.4799-38.638 18.94-38.638s18.94 17.299 18.94 38.638z" fill="#333"/>
   <path transform="matrix(.76074 0 -.049721 .81046 103.62 119.85)" d="m318.96 614.97c0 21.339-8.4799 38.638-18.94 38.638s-18.94-17.299-18.94-38.638c0-21.339 8.4799-38.638 18.94-38.638s18.94 17.299 18.94 38.638z" fill="#e3dbdb"/>
   <path transform="matrix(.63804 0 -.041702 .67974 135.5 200.23)" d="m318.96 614.97c0 21.339-8.4799 38.638-18.94 38.638s-18.94-17.299-18.94-38.638c0-21.339 8.4799-38.638 18.94-38.638s18.94 17.299 18.94 38.638z" fill="#c8b7b7"/>
   <path d="m302.88 592c-0.57417 0-1.1243 0.0817-1.6875 0.25 5.1036 2.8185 8.3819 13.163 7.625 25.5-0.81367 13.263-6.014 24.219-12 26 0.89602 0.49426 1.8473 0.75 2.8438 0.75 6.6742 0 12.829-11.745 13.719-26.25s-3.8258-26.25-10.5-26.25z" fill="#483737"/>
  </g>
  <path d="m130.89 571.29c-11.407 0.6984-16.515-0.78051-18.75 6.7857-2.3214 7.8571-4.8214 30.893-5.3572 44.643 0 0 131.96 6.25 139.82 8.3929 7.8571 2.1429 30.684-1.5818 36.398-1.5818 5.7143 0 59.343 11.297 88.959 8.1889 14.38-1.5092 41.217-5.652 41.429-12.857l0.17857-6.0714 17.143-1.4286s1.6684-32.78-1.4286-47.518c-0.9615-4.5755-13.023-6.977-13.023-6.977l-19.957-1.0535c-10.264-0.54184-16.306-18.737-25.592-19.452-9.2857-0.71428-136.43 0.35715-146.43 1.7857-22.235 6.7557-29.805 23.58-49.643 24.464z" fill="#501616"/>
  <path d="m423.57 571.29s2.3214-3.9286 0.71429-4.4643c-1.6072-0.53572-11.429 1.9643-11.429 1.9643l-0.53571 9.2857z" fill="#280b0b"/>
  <path d="m261.07 577.54-5.1786 16.786s-0.71429 36.429 0.35714 36.25 16.964-1.4286 16.964-1.4286l3.2143-52.679z" fill="#280b0b"/>
  <path d="m447.84 482.84-8.0181 15.203c-0.78751 6.1666-1.3469 4.7108-0.53106 11.001 0.77175 5.9507 3.1625 13.187 6.9526 17.928 2.2231 3.6865 5.3866 6.8713 6.9905 10.887 0.55571 4.8829-4.6317 8.3002-8.345 10.445-6.4372 2.6403-13.252 4.2649-20.225 4.4346-5.4185 0.35001-10.572-2.1045-15.556-3.927-9.4202-4.1171-17.987-10.036-27.566-13.772-6.4852-2.4673-13.381-0.22877-19.969 0.52158-3.5271 1.4232-13.343-0.33517-10.573 5.8757 4.1396 2.0015 9.2837-1.3322 13.858-1.3795 5.6642-0.8282 11.795-2.272 17.107 0.6827 10.344 4.7443 19.902 11.114 30.433 15.454 9.2283 3.048 19.181 2.3513 28.647 1.0042 5.5986-1.0676 10.79-4.4542 14.277-8.9073 2.876-3.3785 4.4422-8.1227 2.2776-12.3-2.6392-6.7915-8.1455-12.035-11.039-18.672-1.1169-5.2647-1.9289-10.752-1.5231-16.138 0.98657-5.5244 3.1571-10.748 5.5221-15.81 0.52361-1.8972-1.0643-2.6863-2.7188-2.5313z" color="#000000" fill="#1a1a1a" style="block-progression:tb;text-indent:0;text-transform:none"/>
  <g transform="matrix(.77915 -.029688 .029688 .77915 183.91 126.97)">
   <path d="m278.81 578.11c-10.46 0-20.074 16.907-21.469 39.641s7.461 38.126 16.406 39.388l25 2.2678c10.46 0 20.074-18.422 21.469-41.156s-5.9458-41.156-16.406-41.156z"/>
   <path transform="matrix(.97546 0 -.063756 1.0392 47.833 -20.833)" d="m318.96 614.97c0 21.339-8.4799 38.638-18.94 38.638s-18.94-17.299-18.94-38.638c0-21.339 8.4799-38.638 18.94-38.638s18.94 17.299 18.94 38.638z" fill="#333"/>
   <path transform="matrix(.76074 0 -.049721 .81046 103.62 119.85)" d="m318.96 614.97c0 21.339-8.4799 38.638-18.94 38.638s-18.94-17.299-18.94-38.638c0-21.339 8.4799-38.638 18.94-38.638s18.94 17.299 18.94 38.638z" fill="#e3dbdb"/>
   <path transform="matrix(.63804 0 -.041702 .67974 135.5 200.23)" d="m318.96 614.97c0 21.339-8.4799 38.638-18.94 38.638s-18.94-17.299-18.94-38.638c0-21.339 8.4799-38.638 18.94-38.638s18.94 17.299 18.94 38.638z" fill="#c8b7b7"/>
   <path d="m302.88 592c-0.57417 0-1.1243 0.0817-1.6875 0.25 5.1036 2.8185 8.3819 13.163 7.625 25.5-0.81367 13.263-6.014 24.219-12 26 0.89602 0.49426 1.8473 0.75 2.8438 0.75 6.6742 0 12.829-11.745 13.719-26.25s-3.8258-26.25-10.5-26.25z" fill="#483737"/>
  </g>
  <path d="m371.97 637.72c14.427-0.96272 41.226-5.6386 41.438-12.844v-62.156z" fill="#501616"/>
  <path d="m116.38 573.6s-7.1174 7.6527-1.1506 5.5664c10.531-3.6823 113.64-2.3126 133.34-1.0857 9.9445 0.61934 2.3485 16.092 7.1862 16.299 3.3391 0.14247 4.1483-16.742 9.7041-16.742 6.4505 0 68.031 3.4592 73.03 3.3727 14.596-0.25254 64.924 0.62456 71.403-7.388 2.2117-2.7351-3.1097-5.1913-3.1097-5.1913s-6.498 1.1146-8.2143 3.5714c-2.4869 3.56-93.714 3.1484-103.36 1.4106-7.7646-1.3985-177.82-2.2107-178.83 0.18753z" fill="#782121"/>
  <g transform="matrix(.99952 .030996 -.030996 .99952 19.302 -17.226)">
   <path d="m278.81 578.11c-10.46 0-20.074 16.907-21.469 39.641s7.461 38.126 16.406 39.388l25 2.2678c10.46 0 20.074-18.422 21.469-41.156s-5.9458-41.156-16.406-41.156z"/>
   <path transform="matrix(.97546 0 -.063756 1.0392 47.833 -20.833)" d="m318.96 614.97c0 21.339-8.4799 38.638-18.94 38.638s-18.94-17.299-18.94-38.638c0-21.339 8.4799-38.638 18.94-38.638s18.94 17.299 18.94 38.638z" fill="#333"/>
   <path transform="matrix(.76074 0 -.049721 .81046 103.62 119.85)" d="m318.96 614.97c0 21.339-8.4799 38.638-18.94 38.638s-18.94-17.299-18.94-38.638c0-21.339 8.4799-38.638 18.94-38.638s18.94 17.299 18.94 38.638z" fill="#e3dbdb"/>
   <path transform="matrix(.63804 0 -.041702 .67974 135.5 200.23)" d="m318.96 614.97c0 21.339-8.4799 38.638-18.94 38.638s-18.94-17.299-18.94-38.638c0-21.339 8.4799-38.638 18.94-38.638s18.94 17.299 18.94 38.638z" fill="#c8b7b7"/>
   <path d="m302.88 592c-0.57417 0-1.1243 0.0817-1.6875 0.25 5.1036 2.8185 8.3819 13.163 7.625 25.5-0.81367 13.263-6.014 24.219-12 26 0.89602 0.49426 1.8473 0.75 2.8438 0.75 6.6742 0 12.829-11.745 13.719-26.25s-3.8258-26.25-10.5-26.25z" fill="#483737"/>
  </g>
  <path d="m327.29 337.43c3.3768-5.7099 15.222-15.087 61.367-18.435 52.017-3.7743 81.317 5.3033 87.378 12.122 2.9683 3.3393-1.0102 3.7881-1.0102 3.7881s-28.428-14.942-76.014-13.637c-19.599 0.5376-41.189 4.287-54.071 8.166-2.7464 0.82703-17.959 8.5188-17.65 7.9964z" fill="#4d4d4d"/>
  <path d="m221.48 483.59c-5.3033 5.3033-13.069 17.149-9.849 25.759 4.0096 10.723 18.964 14.598 30.305 16.162 19.465 2.6842 38.152-9.683 57.579-12.627 23.555-3.5695 54.276 10.692 71.216-6.0609 8.1176-8.028 10.404-25.169 3.283-34.093-10.207-12.792-46.401-11.83-69.953-10.607-28.403 1.4759-76.08 14.966-82.58 21.466z" fill="#782121"/>
  <path transform="matrix(.95782 .28737 -.28737 .95782 -4.1631 -130.74)" d="m460.38 454.73c0 1.7434-0.62186 3.1567-1.389 3.1567s-1.389-1.4133-1.389-3.1567 0.62186-3.1567 1.389-3.1567 1.389 1.4133 1.389 3.1567z"/>
  <path d="m217.44 514.65c30.3 8.8768 61.962-0.48903 82.833-8.0812l-3.7881 4.7982s-37.872 13.877-48.235 14.142c-10.354 0.26484-22.476-4.7982-30.81-10.859z" fill="#501616"/>
  <path d="m225.01 483.08c-5.8827 3.7632 48.162 2.5818 71.721-1.5152 17.493-3.0422 45.258-14.771 50.508-16.92 4.7596-1.9487-37.506-2.7954-53.538-0.25254-5.332 0.84571-42.734 7.9912-49.497 10.859-7.1131 3.0162-8.8094 1.1863-19.193 7.8287z" fill="#a02c2c"/>
  <path d="m458.09 445.91c-4.8444 1.8827-8.5863 7.5762-6.566 14.142 2.0203 6.566 1.0102 26.769 1.0102 26.769l17.678-35.86s-8.0418-6.6364-12.122-5.0508z" fill="#333"/>
  <path d="m281.22 543.01 1.1148 4.6862s13.023 4.3074 17.666 8.5931c4.6429 4.2857 11.071 12.5 14.286 13.214 3.2143 0.71428 37.702 0.50508 49.845-0.20921 12.143-0.71428 24.441-1.9336 23.727-5.1479-0.71428-3.2143-16.071-20-16.071-20z" fill="#2b0000"/>
  <path d="m297.86 510.58c-0.73565 11.053-1.7857 25.928-1.7857 30 0 7.5 14.388 14.565 23.571 14.286 13.327-0.40498 36.429 1.4286 41.429-1.0714s8.5714-13.214 8.5714-13.214 12.208-30.19 5.7143-39.643c-13.352-19.438-53.929-7.5-62.857-3.5714-8.2311 3.6217-14.101 5.0747-14.643 13.214z" fill="#4d4d4d"/>
  <path d="m297.5 541.29c-0.17627-2.5507 11.19-1.6061 11.25 0.17856 0.19713 5.8428 5.219 9.8738 12.857 12.679h-7.5c-8.4589-2.8241-16.171-6.5522-16.607-12.857z" fill="#1a1a1a"/>
  <path d="m299.82 508.08c-0.26948 2.217 10.122 2.5766 10.714 0.35714 0.7022-2.6328 4.2323-5.6287 9.9726-7.8343 6.8293-2.6241 24.05-7.8292 26.099-8.5942 1.3487-0.50368-7.3-1.3815-11.071-0.62499-11.386 2.2839-21.683 5.7299-27.946 8.5239-4.2232 1.8839-7.2736 4.1033-7.7682 8.1725z" fill="#808080"/>
  <path d="m328.3 521.65c0 4.3934-1.809 7.955-4.0406 7.955s-4.0406-3.5616-4.0406-7.955 1.809-7.955 4.0406-7.955 4.0406 3.5616 4.0406 7.955z"/>
  <path d="m323.19 514c-1.7102 0.92613-2.9688 3.9951-2.9688 7.6562s1.2586 6.7301 2.9688 7.6562c1.7102-0.92613 2.9688-3.9951 2.9688-7.6562s-1.2586-6.7301-2.9688-7.6562z" fill="#333"/>
  <path transform="matrix(.932 .36245 -.36245 .932 196.02 -135.44)" d="m460.38 454.73c0 1.7434-0.62186 3.1567-1.389 3.1567s-1.389-1.4133-1.389-3.1567 0.62186-3.1567 1.389-3.1567 1.389 1.4133 1.389 3.1567z"/>
  <path d="m218.7 547.07c1.2032-1.2915 62.127-1.6658 61.985-0.52937 0 0 1.7503-2.2437 0.13262-2.9998-1.4958-0.69917-54.826 0.61952-56.19 1.0931-2.394 0.83155-5.9283 2.4361-5.9283 2.4361z" fill="#782121"/>
  <path d="m413.41 572.63s0.96876 0.89285-3.4062 3.125c-1.7132 0.87407-4.8214 2.3214-4.4643 5.1786 0.35714 2.8571-0.53572 45-0.17858 46.964 0.35715 1.9643 1.0858 2.3773 2.8572 1.6071 2.0536-0.89286 3.7353-1.8917 5.1639-4.3024z" fill="#2b0000"/>
 </g>
</svg>
