<?xml version="1.0" encoding="UTF-8"?>
<svg width="764.21mm" height="558.94mm" version="1.1" viewBox="0 0 2707.8193 1980.4801" xmlns="http://www.w3.org/2000/svg">
 <defs>
  <pattern id="a" width="10" height="10" patternTransform="translate(0) scale(10)" patternUnits="userSpaceOnUse">
   <circle cx="2.567" cy=".81" r=".45" fill="#fff"/>
   <circle cx="3.048" cy="2.33" r=".45" fill="#fff"/>
   <circle cx="4.418" cy="2.415" r=".45" fill="#fff"/>
   <circle cx="1.844" cy="3.029" r=".45" fill="#fff"/>
   <circle cx="6.08" cy="1.363" r=".45" fill="#fff"/>
   <circle cx="5.819" cy="4.413" r=".45" fill="#fff"/>
   <circle cx="4.305" cy="4.048" r=".45" fill="#fff"/>
   <circle cx="5.541" cy="3.045" r=".45" fill="#fff"/>
   <circle cx="4.785" cy="5.527" r=".45" fill="#fff"/>
   <circle cx="2.667" cy="5.184" r=".45" fill="#fff"/>
   <circle cx="7.965" cy="1.448" r=".45" fill="#fff"/>
   <circle cx="7.047" cy="5.049" r=".45" fill="#fff"/>
   <circle cx="4.34" cy=".895" r=".45" fill="#fff"/>
   <circle cx="7.125" cy=".34" r=".45" fill="#fff"/>
   <circle cx="9.553" cy="1.049" r=".45" fill="#fff"/>
   <circle cx="7.006" cy="2.689" r=".45" fill="#fff"/>
   <circle cx="8.909" cy="2.689" r=".45" fill="#fff"/>
   <circle cx="9.315" cy="4.407" r=".45" fill="#fff"/>
   <circle cx="7.82" cy="3.87" r=".45" fill="#fff"/>
   <circle cx="8.27" cy="5.948" r=".45" fill="#fff"/>
   <circle cx="7.973" cy="7.428" r=".45" fill="#fff"/>
   <circle cx="9.342" cy="8.072" r=".45" fill="#fff"/>
   <circle cx="8.206" cy="9.315" r=".45" fill="#fff"/>
   <circle cx="9.682" cy="9.475" r=".45" fill="#fff"/>
   <circle cx="9.688" cy="6.186" r=".45" fill="#fff"/>
   <circle cx="3.379" cy="6.296" r=".45" fill="#fff"/>
   <circle cx="2.871" cy="8.204" r=".45" fill="#fff"/>
   <circle cx="4.59" cy="8.719" r=".45" fill="#fff"/>
   <circle cx="3.181" cy="9.671" r=".45" fill="#fff"/>
   <circle cx="5.734" cy="7.315" r=".45" fill="#fff"/>
   <circle cx="6.707" cy="6.513" r=".45" fill="#fff"/>
   <circle cx="5.73" cy="9.67" r=".45" fill="#fff"/>
   <circle cx="6.535" cy="8.373" r=".45" fill="#fff"/>
   <circle cx="4.37" cy="7.154" r=".45" fill="#fff"/>
   <circle cx=".622" cy="7.25" r=".45" fill="#fff"/>
   <circle cx=".831" cy="5.679" r=".45" fill="#fff"/>
   <circle cx="1.257" cy="8.519" r=".45" fill="#fff"/>
   <circle cx="1.989" cy="6.877" r=".45" fill="#fff"/>
   <circle cx=".374" cy="3.181" r=".45" fill="#fff"/>
   <circle cx="1.166" cy="1.664" r=".45" fill="#fff"/>
   <circle cx="1.151" cy=".093" r=".45" fill="#fff"/>
   <circle cx="1.151" cy="10.093" r=".45" fill="#fff"/>
   <circle cx="1.302" cy="4.451" r=".45" fill="#fff"/>
   <circle cx="3.047" cy="3.763" r=".45" fill="#fff"/>
  </pattern>
 </defs>
 <g transform="translate(1279.6 77.15)">
  <path d="m266.67-34.817-151.28 110.26-153.85 130.77l-48.718 61.538-71.795 17.949-187.18 64.103-164.1 87.179-541.03 405.13-166.67 158.97-53.846 176.92 20.513 105.13 97.436 102.56 207.69 151.28 197.44 133.33 325.64 187.18 110.26 33.333 133.33-10.256 141.03-61.538 438.46-284.62 133.33-105.13 184.62-135.9 261.54-217.95 56.41-100 41.026-38.462 220.51-207.69 105.13-135.9 17.949-92.308-23.077-125.64-64.103-64.103-333.33-182.05-274.36-130.77-164.1-66.667-105.13 5.1282-94.872 12.821z" fill="#fff" fill-rule="evenodd"/>
  <path d="m-231.95 425-185.56 92.779-220.9 152.42-284.97 220.9-148.01 148.01-30.926 68.48 11.045 90.57 79.525 103.82 187.77 128.12 145.8 77.316 181.14 79.525 119.29 50.808 88.361 13.254 134.75-19.881 238.58-128.12 214.28-145.8 238.58-194.4 196.6-159.05 81.734-94.988 8.8362-64.062-28.717-72.898-90.57-79.525-172.3-72.898-262.88-112.66-198.81-75.107-159.05-30.926-83.943 8.8361z" fill="#74d1ad" fill-rule="evenodd"/>
  <path d="m455.06 5.2795-90.57 59.644-77.316 72.898-57.435 53.017-26.508 64.062 19.881 92.779 430.76 176.72 123.71 68.48 88.361-39.763 128.12-141.38 26.508-75.107l-22.09-114.87-90.57-72.898-174.51-79.525-123.71-39.763-81.734-17.672z" fill="#74d1ad" fill-rule="evenodd" stroke="#000" stroke-width="1px"/>
  <path d="m-231.95 425-185.56 92.779-220.9 152.42-284.97 220.9-148.01 148.01-30.926 68.48 11.045 90.57 79.525 103.82 187.77 128.12 145.8 77.316 181.14 79.525 119.29 50.808 88.361 13.254 134.75-19.881 238.58-128.12 214.28-145.8 238.58-194.4 196.6-159.05 81.734-94.988 8.8362-64.062-28.717-72.898-90.57-79.525-172.3-72.898-262.88-112.66-198.81-75.107-159.05-30.926-83.943 8.8361z" fill="url(#a)" fill-rule="evenodd"/>
  <path d="m-270.98 1903c-0.42079-0.4913-7.7493-1.0898-16.286-1.3299-8.5365-0.2403-20.092-1.2523-25.678-2.2492-5.5866-0.9966-13.588-2.3205-17.78-2.9423-4.1926-0.6216-9.767-1.6627-12.387-2.3139-2.6205-0.6508-9.3303-2.1714-14.911-3.3788-27.979-6.0535-76.753-26.081-119.44-49.045-4.1926-2.2554-16.628-8.7688-27.633-14.474-22.456-11.641-118.89-67.316-152.46-88.018-49.631-30.609-60.731-37.482-75.277-46.612-8.3852-5.263-21.678-13.782-29.539-18.932-7.8612-5.1494-21.154-13.657-29.539-18.907-8.3852-5.2493-17.39-11.213-20.01-13.253-2.6205-2.0398-10.339-7.2473-17.152-11.572-6.8131-4.3249-15.389-9.8796-19.057-12.344-82.587-55.475-104.4-70.609-166.29-115.4-13.37-9.6749-27.091-19.536-30.492-21.914-27.183-19.004-113.88-88.076-142.45-113.49-51.534-45.844-71.709-74.944-85.788-123.74-5.6106-19.446-6.6647-29.839-6.4184-63.282 0.2755-37.386 5.9249-63.084 22.007-100.1 39.872-91.783 129.22-192.96 276.03-312.58 18.981-15.466 106.3-83.346 121.97-94.819 6.8129-4.9882 24.162-17.772 38.554-28.409 28.389-20.982 75.393-54.349 89.13-63.271 4.7166-3.0634 10.72-7.2864 13.34-9.3843 15.324-12.268 150.59-100.65 200.29-130.86 70.485-42.853 147.32-85.996 184.67-103.69 6.8129-3.2278 13.876-6.8448 15.696-8.0379s4.1877-2.1692 5.2617-2.1692c1.0738 0 5.5876-1.8817 10.031-4.1817 35.517-18.384 92.394-39.351 124.33-45.831 17.854-3.6231 62.535-7.7442 84.952-7.8354 0.60465-2e-3 -10.088 7.9844-10.525 4.5118-0.71671-5.7022 12.776-20.065 38.317-47.3 132.06-140.82 255.61-236.83 339.87-264.11 34.871-11.291 74.739-22.853 88.159-25.568 2.8926-0.58515 10.182-2.0867 16.199-3.3368 6.0167-1.2501 14.799-2.8376 19.515-3.5277 4.7167-0.69014 11.577-1.7003 15.246-2.2448 42.565-6.3175 104.25-5.344 135.31 2.1353 9.0896 2.189 14.329 3.2795 21.404 4.4543 21.337 3.5435 50.401 13.643 107.23 37.262 11.53 4.7917 23.965 9.7553 27.633 11.03 3.6686 1.275 10.529 4.1279 15.246 6.3397 4.7167 2.2118 17.152 7.6957 27.633 12.186 10.482 4.4907 20.773 9.0555 22.869 10.144 2.0963 1.0885 13.245 6.0897 24.775 11.114 40.954 17.846 45.786 19.988 50.026 22.181 5.8178 3.0086 8.6871 4.3559 40.497 19.015 15.198 7.0041 30.635 14.202 34.303 15.996 3.6686 1.7938 8.3852 4.0694 10.482 5.0569 18.264 8.604 49.263 23.508 56.219 27.029 4.7167 2.3877 10.291 5.2101 12.387 6.272 2.0963 1.0619 16.246 8.158 31.445 15.769 44.497 22.284 70.545 35.592 84.805 43.328 7.3371 3.9801 22.774 12.234 34.303 18.342 54.781 29.022 123.45 70.231 164.85 98.932 53.794 37.294 78.582 61.86 91.046 90.23 9.7561 22.206 17.607 48.852 21.116 71.666 1.6276 10.579 1.5464 56.787-0.1199 68.215-4.5717 31.36-15.937 63.712-33.32 94.849-25.921 46.43-48.936 71.593-197.96 216.43-93.513 90.886-144.43 142.16-158.2 159.31-4.2771 5.326-10.669 15.191-14.204 21.922-15.861 30.199-39.068 61.669-63.778 86.487-29.063 29.19-51.787 48.92-146.74 127.42-18.093 14.957-201.22 157.05-229.2 177.84-13.907 10.334-32.601 24.297-41.542 31.028-31.004 23.34-64.743 48.476-79.538 59.256-8.1785 5.9591-19.756 14.436-25.727 18.837-321.1 236.66-463.09 325.85-581.98 365.58-13.301 4.444-45.218 12.231-56.752 13.846-4.6825 0.6558-9.0193 1.5572-9.6378 2.0035-0.61838 0.4464-9.6511 1.4095-20.073 2.1406-10.421 0.7309-23.343 1.7512-28.714 2.2671-5.3713 0.516-10.11 0.5363-10.531 0.044zm39.842-24.507c95.826-7.4562 218.91-69.315 426.4-214.29 286.46-200.16 638.16-469.72 739.43-566.73 89.933-86.154 125.88-193.99 96.048-288.15-12.992-41.009-39.947-78.152-77.943-107.4-16.377-12.607-95.118-58.302-152.2-88.321-262.44-138.02-539.53-250.01-746.05-301.53-101.86-25.41-185.61-27.592-256.63-6.6888-117.82 34.677-359.21 176.29-604.12 354.41-238.32 173.33-369 299.8-425.86 412.16-21.856 43.185-30.557 78.849-29.211 119.73 1.8517 56.215 21.857 96.932 70.116 142.71 137.43 130.36 572.86 419.65 765.6 508.66 43.777 20.216 91.796 33.292 133.9 36.464 21.395 1.6119 28.191 1.4976 60.519-1.018zm-79.576-214.89c-61.844-5.3-174.06-48.136-328.67-125.46-126.99-63.513-281.81-153.41-332.01-192.78-46.399-36.396-89.933-80.614-109.08-110.8-21.348-33.65-29.69-61.318-29.596-98.153 0.058-22.792 0.7094-27.72 5.9526-45.083 7.9416-26.3 15.71-40.67 34.912-64.582 101.82-126.79 468.42-413.65 696.02-544.63 106.64-61.366 173.68-83.376 262.05-86.034 59.233-1.7813 81.335 1.582 154.88 23.568 146.77 43.879 530.5 195.28 640.11 252.55 67.722 35.387 120.61 87.325 140.37 137.86 15.487 39.598 13.765 83.52-4.5585 116.24-25.495 45.526-149.97 155.95-359.52 318.94-140.85 109.56-213.24 162.21-330.51 240.39-122.32 81.556-166.65 108.22-223.41 134.4-72.04 33.226-151.46 49.173-216.95 43.562zm73.371-23.006c7.3371-0.864 14.752-2.0473 16.477-2.6295 1.7251-0.5821 5.7573-1.4457 8.9606-1.9191 15.472-2.2862 57.053-14.444 81.284-23.766 25.039-9.6331 62.818-28.413 98.145-48.788 31.135-17.957 54.163-32.49 126.73-79.98 3.1445-2.0578 19.867-13.282 37.162-24.942 17.294-11.66 34.446-23.095 38.115-25.411 7.3853-4.6619 65.709-45.25 76.229-53.048 3.6685-2.7195 17.39-12.803 30.492-22.408 109.01-79.912 223.88-169.16 333.5-259.12 94.945-77.91 177.81-156.19 192.21-181.57 21.479-37.861 18.567-79.903-8.5573-123.55-10.583-17.032-40.568-48.846-60.783-64.492-18.236-14.114-43.732-30.314-61.884-39.321-33.154-16.451-56.331-26.997-101-45.961-16.246-6.8967-31.254-13.454-33.35-14.571-2.0963-1.1175-7.6706-3.5344-12.387-5.3709-12.397-4.8269-37.334-15.052-65.748-26.959-28.705-12.029-42.907-17.659-133.4-52.888-96.6-37.605-138.34-53.386-168.66-63.759-7.8612-2.6899-16.437-5.8229-19.057-6.9623-2.6205-1.1393-10.767-3.9971-18.105-6.3506-7.3371-2.3535-18.057-5.9283-23.822-7.9441-10.401-3.6369-21.19-7.178-26.68-8.7568-1.5723-0.45211-9.2905-2.8829-17.152-5.4017-30.444-9.7548-70.271-20.248-85.758-22.594-8.9094-1.3499-18.772-2.9878-21.916-3.6398-7.7483-1.6065-67.296-1.3661-83.852 0.33853-11.976 1.233-39.886 5.9572-52.408 8.8708-2.6205 0.60971-7.766 1.7449-11.434 2.5226-3.6686 0.77767-7.9565 2.1843-9.5287 3.1257-1.5723 0.94149-5.4314 2.2496-8.5758 2.907-16.468 3.4429-59.409 21.082-88.197 36.229-5.5338 2.9117-10.485 5.294-11.002 5.294-1.3028 0-86.24 49.656-103.76 60.662-27.261 17.123-55.058 35.349-99.098 64.977-5.7649 3.8784-14.109 9.7384-18.543 13.022-4.4338 3.2839-8.4856 5.9708-9.0039 5.9708s-11.898 7.9088-25.289 17.575c-13.39 9.6663-27.777 20.044-31.969 23.061-149.87 107.85-309.07 237.78-388.77 317.3-65.788 65.633-83.943 91.66-91.654 131.4-3.9098 20.147-2.7144 46.833 2.8862 64.433 13.222 41.551 47.814 85.564 104.01 132.34 22.812 18.987 58.616 45.96 61.008 45.96 0.55602 0 4.4394 2.5269 8.6298 5.6154 15.327 11.297 139.7 83.607 186.69 108.54 15.018 7.9685 57.867 30.428 77.182 40.455 7.7719 4.0347 67.127 33.133 84.805 41.575 7.8611 3.754 17.928 8.7103 22.372 11.014 4.4433 2.3038 8.7333 4.1887 9.5336 4.1887s10.457 4.0623 21.46 9.0273c41.323 18.647 123.74 50.669 140.07 54.421 3.1445 0.7226 6.5748 1.5857 7.6229 1.9179 32.795 10.395 84.427 14.243 125.78 9.3726zm1305.1-709.53c8.5936-8.9188 54.645-54.163 102.34-100.54 119.59-116.3 136.21-133.13 166.87-168.98 49.189-57.517 70.204-104.65 72.708-163.09 1.5436-36.016-3.5618-63.011-18.959-100.25-5.988-14.482-10.291-21.27-20.254-31.958-13.686-14.68-48.897-42.765-79.352-63.292-27.878-18.79-115.47-70.068-164.85-96.502-151.29-81-402.82-197.25-515.95-238.47-44.936-16.372-109.26-26.052-153.92-23.164-56.245 3.6373-133.83 21.136-188.97 42.621-71.873 28.004-172.47 105.03-282.07 215.98-29.619 29.983-60.342 62.714-61.192 65.19-0.29745 0.86731 9.5119 2.2786 21.798 3.1363 54.226 3.7852 135.19 22.189 231.94 52.723 15.575 4.9154 28.704 8.4871 29.175 7.937 0.47114-0.55011 0.59515-9.0857-1.9626-18.484-14.003-51.455-4.7032-92.561 12.187-123.29 9.4632-17.219 92.599-95.707 141.47-133.56 64.438-49.913 110.53-68.471 154.62-62.254 63.659 8.977 186.47 48.23 290.81 92.95 94.559 40.527 162 81.223 191.31 115.44 26.405 30.83 41.155 94.799 32.868 142.55-9.3743 54.018-43.082 110.51-94.59 158.53-32.485 30.286-72.927 59.649-106.4 77.247-10.131 5.3271-18.419 10.255-18.419 10.951 0 0.69608 17.152 10.546 38.115 21.889 53.883 29.156 104.14 59.236 121.97 72.999 18.419 14.221 46.899 46.621 58.071 66.063 19.15 33.326 30.195 71.659 31.969 110.94 1.0525 23.313-1.7133 55.905-6.2314 73.434-1.3426 5.2088-2.0525 9.4705-1.5772 9.4705 0.4751 0 7.8951-7.2972 16.489-16.216zm1.3989-199.47c-1.0852-2.3672-1.9729-5.6503-1.9729-7.2959 0-7.321 62.993-71.399 202.55-206.05 44.105-42.552 49.771-47.341 55.266-46.721 5.6526 0.63799 6.1235 1.3082 6.1235 8.714 0 7.8046-1.5294 9.5008-56.219 62.353-73.253 70.791-137.65 134.46-169.05 167.12-26.153 27.21-32.521 31.005-36.706 21.876zm-259.25-165.42c69.763-35.076 140.61-98.523 172.06-154.09 11.339-20.034 27.546-56.674 25.069-56.674-0.5345 0-0.1696-1.7523 0.81-3.8939 6.9424-15.171 5.0662-60.527-3.5988-87.003-14.763-45.11-33.55-64.739-97.555-101.93-44.829-26.047-79.742-42.381-158.72-74.26-15.722-6.3461-31.159-12.309-34.303-13.251-3.1445-0.94225-16.008-5.4533-28.586-10.025-12.578-4.5713-30.158-10.616-39.068-13.433-27.817-8.7951-67.44-20.792-72.418-21.926-2.6204-0.59718-8.6235-2.0633-13.34-3.2581-51.08-12.939-71.44-13.75-101.96-4.0596-1.0482 0.33281-8.7664 3.7335-17.152 7.557-42.144 19.217-95.918 61.405-169.61 133.07-35.475 34.498-36.718 35.93-42.408 48.894-7.2818 16.588-8.5779 23.384-8.8124 46.202-0.31289 30.447 0.68783 41.587 5.7114 63.581 4.7947 20.992 4.4065 20.183 10.331 21.515 2.4225 0.5447 11.329 3.5749 19.792 6.7337 8.4629 3.1588 20.533 7.5759 26.822 9.8158 72.405 25.788 201.08 76.983 221.35 88.067 3.3029 1.806 6.9592 3.2836 8.1252 3.2836s3.6092 0.98557 5.4292 2.1902c1.8201 1.2046 8.0259 4.139 13.791 6.5208 15.986 6.6048 55.734 24.306 60.031 26.733 2.0963 1.1843 17.962 8.6844 35.256 16.667 17.295 7.9824 40.878 19.131 52.408 24.775 11.53 5.6437 26.966 13.08 34.303 16.526 7.3371 3.4456 19.772 9.6796 27.633 13.853 7.8612 4.1738 18.152 9.4664 22.869 11.761 4.7167 2.295 9.4302 5.0362 10.474 6.0915 3.1992 3.2329 16.28-0.48894 35.263-10.034zm-94.262-33.532c-3.0711-2.6219-3.3478-4.9131-2.1889-18.122 3.0416-34.661 13.657-65.446 34.15-99.033 12.781-20.946 82.837-104.17 106.13-126.08 20.159-18.96 41.575-35.356 56.159-42.996 31.357-16.427 57.234-13.421 51.398 5.9699-1.7765 5.9029-2.5371 6.2568-14.22 6.6161-14.739 0.45329-24.95 4.4529-42.834 16.778-19.984 13.772-38.986 31.315-68.652 63.385-46.831 50.625-76.789 91.616-89.577 122.56-6.5268 15.796-11.774 38.136-13.702 58.344-0.5256 5.5072-1.8242 11.265-2.8857 12.794-2.5352 3.6534-9.3701 3.5443-13.779-0.22007z"/>
 </g>
</svg>
