<?xml version="1.0" encoding="UTF-8"?>
<svg viewBox="0 0 677.12122 454.88687" xmlns="http://www.w3.org/2000/svg">
 <defs>
  <linearGradient id="a" x1="-747.36" x2="93.639" gradientUnits="userSpaceOnUse">
   <stop stop-color="#c2c0c5" offset="0"/>
   <stop stop-color="#c2c0c5" stop-opacity=".49804" offset=".82759"/>
   <stop stop-color="#c2c0c5" stop-opacity="0" offset="1"/>
  </linearGradient>
 </defs>
 <g transform="matrix(.72362 0 0 .76806 540.81 -23.66)">
  <path d="m91.711 615.26-5 5.7143-5.7142 0.71429-107.14-10.714-82.857-7.1428-628.57-60-7.1428-3.5714-1.4286-8.5714-0.71428-438.57 1.4286-10.714 5.7143-5 675 22.857 148.57 2.1428 5.7143 3.5714 3.5714 6.4286-1.4286 502.86z" fill="url(#a)" fill-rule="evenodd" stroke="#000"/>
  <path d="m-78.289 100.26-0.71428 127.5 0.71428 158.21v96.786l0.35714 123.21 158.78 15.628 7.2908-0.98477 4.2857-5.3571-0.3571-15.714 1.0714-488.57-2.1428-4.6428-7.1429-4.2857-162.14-1.7857z" fill="#dedde0" fill-rule="evenodd" stroke="#000" stroke-width="3"/>
  <path d="m-674 180.26-8.5714 5.7143 0.71429 247.86 3.5714 8.5714 12.143 4.2857 587.14 45v-287.14l-595-24.286z" fill="#0c0200" fill-rule="evenodd" stroke="#000"/>
  <path d="m67.068 600.62-122.86-10-4.2857-3.2143-1.0714-2.1428-1.4286-42.5 4.2857-2.1429h7.5l119.64 10.714 3.9286 1.4286 2.1428 2.8571 2.1429 41.786-3.5714 3.5714-6.4286-0.35714z" fill="#c2c0c5" fill-rule="evenodd" stroke="#000" stroke-width="3.7"/>
  <path d="m-77.324 491.76 140.18 11.011 4.9674-1.7858 4.2578-2.8573-1.0644-276.45-2.9855-7.378-4.1716-5.087-142.63-4.6432 1.4445 287.19z" fill="#110705" fill-rule="evenodd" stroke="#c9cfce" stroke-width="6.479"/>
  <path d="m-58.459 130.52 129.05 3.283 3.5356 1.5152 0.2525 6.0609 0.7576 44.447-0.505 1.5152-5.3033 1.2627-127.78-4.5457-2.2728-1.7678 0.25254-3.5355-0.50508-47.73 2.5254-0.50508z" fill-rule="evenodd" stroke="#000"/>
  <path d="m91.602 611.17 12.143-11.429-0.3572-490.71-2.1428-7.8571-3.9286-6.0714-4.6428-1.4286-485-15.714-318.93-10.357h-7.5l-16.071 4.2857-6.0714 6.4286 9.2857-1.0714 108.57 4.2857 403.93 13.571 141.07 4.2857 161.07 3.2143 6.7858 4.6429 3.5715 4.2857-0.7144 496.79-1.0714 2.8571z" fill="#696b68" fill-rule="evenodd" stroke="#000"/>
  <path d="m103.57 600.22 82.857-142.5 1.4286-398.57-2.5-4.6429-4.6428-3.5714h-3.5714l-80.357 42.5 4.2857 8.5714 2.1429 6.7857 0.35714 491.43z" fill="#5c676e" fill-rule="evenodd" stroke="#000"/>
  <path d="m96.429 93.939 82.143-44.077-684.29-18.571-9.2857 0.71429-177.88 31.526-24.073 3.5102 813.38 26.898z" fill="#383c44" fill-rule="evenodd" stroke="#000"/>
  <path d="m96.786 93.612-14.107 8.6607" fill="none" stroke="#000"/>
  <path d="m-595.01 54.53 71.721-14.142 57.579 2.0203-62.124 13.637-67.175-1.5152z" fill="#637d87" fill-rule="evenodd" stroke="#000"/>
  <path d="m-509.14 57.561 69.701 1.5152 58.589-14.142-60.609-2.0203-67.68 14.647z" fill="#637d87" fill-rule="evenodd" stroke="#000"/>
  <path d="m-639.72 200.26-6.4286 0.71428-0.71428 211.43 5.7143 13.571 17.143 7.8572 422.14 31.429 7.8571-2.8572 2.1429-7.8571 2.1429-223.57-3.5714-7.1428-9.2857-3.5714-437.14-20z" fill="#252733" fill-rule="evenodd" stroke="#000"/>
  <g transform="translate(-807.14 543.57)" fill="#9cba36" fill-rule="evenodd">
   <path d="m799.54-391.9 7.3236-0.25254-0.50508 5.5558h-7.5761v3.0305l7.0711 0.25254-0.25253 6.3134h-8.8388l-0.25254 3.283 9.3439 0.25253 2.2728-1.7678 2.5254-18.183-0.50508-1.5152h-10.354l-0.25254 3.0305z" stroke="#9bbb34"/>
   <path d="m830.35-391.65-0.25253 15.657h-7.3236l1.0102-15.91 3.1567-0.1894-0.12627-3.0936 5.0508 0.50508 1.7678 1.0102-1.0102 20.203-2.0203 0.75762-8.7757-0.06314-2.0834-1.7046 1.2627-19.951 3.0305-0.75762h2.1466l-0.12627 2.7779 4.2932 0.75762z" stroke="#99bc34"/>
   <path d="m847.52-390.89-0.25253 15.657h-7.3236l1.0102-15.91 3.1567-0.12627-0.12627-3.1567 5.0508 0.50508 1.7678 1.0102-1.0102 20.203-2.0203 0.75762-9.3439 0.50507-1.5152-2.2728 1.2627-19.951 3.0305-0.75762h2.5254l-0.44195 3.1567 4.23 0.37881z" stroke="#a0b732"/>
   <path d="m815.45-390.26 1.1364 1.389v1.4521l-1.8309 0.63135-1.1364-0.88389 0.06314-1.7046 1.7678-0.88388z" stroke="#a1b539"/>
   <path d="m814.94-381.99 1.0733 1.0733-0.88388 1.3258-1.9572 0.63135-0.50508-2.2728 2.2728-0.75761z" stroke="#9fbc2e"/>
  </g>
  <g transform="translate(-709.71 539.42)" fill-rule="evenodd">
   <path d="m351.8-27.479 6.228 5.0037 3.114 5.2981 0.56618 7.0641-2.8309 5.2981-3.6802 5.2981-13.022-0.58868-22.647-1.766-7.3604-1.766-7.3604-7.6528-1.6986-8.5358 3.114-6.7698 5.6618-4.1207 13.872 1.1774 26.045 2.0604z" fill="#fbfaf8"/>
   <path d="m349.26-25.723 5.5558 4.2932 2.7779 4.5457 0.50508 6.0609-2.5254 4.5457-3.283 4.5457-11.617-0.50508-20.203-1.5152-6.566-1.5152-6.566-6.566-1.5152-7.3236 2.7779-5.8084 5.0508-3.5355 12.374 1.0102 23.234 1.7678z" fill="#8e8588" stroke="#000"/>
   <path d="m336.76-21.556 0.50507 8.5863h4.7982l-0.75762 5.0508-9.3439-0.50508-1.0102-14.142 5.8084 1.0102z" fill="#f0f0f2" stroke="#000"/>
   <path d="m349.26-15.369 4.2932-0.50508-1.0102-3.0305-4.5457-3.283-4.7982 2.5254-0.25254 5.3033 1.0102 5.3033 4.2932 2.2728 5.3033 0.75761v-8.0812l-5.3033 0.25254 0.50507 2.0203-2.0203-1.2627 1.0102-3.0305 1.5152 0.75762z" fill="#f0f0f2" stroke="#000"/>
   <path d="m322.49-26.986 3.7881 4.7982 2.5254 5.5558-4.7982 9.2176-9.5964 2.0203-6.9448-6.0609-1.6415-7.4499 2.5254-5.6821 4.7982-3.6618 9.3439 1.2627z" fill="#f0f0f2" stroke="#000"/>
  </g>
  <g transform="translate(-808.12 545.48)">
   <path d="m774.28-281.29 0.75761 21.466v47.225l-2.0203 3.7881-5.5558 3.283-8.0812 0.50508-5.0508-3.5355-3.7881-7.0711v-65.66h23.739z" fill="#4c4c56" fill-rule="evenodd" stroke="#000"/>
   <path d="m756.1-278.26h13.132a3.283 3.283 0 0 1 3.283 3.283 3.283 3.283 0 0 1 -3.283 3.283h-13.132a3.283 3.283 0 0 1 -3.283 -3.283 3.283 3.283 0 0 1 3.283 -3.283" fill="#070712"/>
   <path d="m756.1-278.26h13.132a3.283 3.283 0 0 1 3.283 3.283 3.283 3.283 0 0 1 -3.283 3.283h-13.132a3.283 3.283 0 0 1 -3.283 -3.283 3.283 3.283 0 0 1 3.283 -3.283" fill="#070712"/>
   <path d="m756.86-223.97h13.132a3.283 3.283 0 0 1 3.283 3.283 3.283 3.283 0 0 1 -3.283 3.283h-13.132a3.283 3.283 0 0 1 -3.283 -3.283 3.283 3.283 0 0 1 3.283 -3.283" fill="#070712"/>
   <path d="m756.6-232.8h13.132a3.283 3.283 0 0 1 3.283 3.283 3.283 3.283 0 0 1 -3.283 3.283h-13.132a3.283 3.283 0 0 1 -3.283 -3.283 3.283 3.283 0 0 1 3.283 -3.283" fill="#070712"/>
   <path d="m756.35-241.9h13.132a3.283 3.283 0 0 1 3.283 3.283 3.283 3.283 0 0 1 -3.283 3.283h-13.132a3.283 3.283 0 0 1 -3.283 -3.283 3.283 3.283 0 0 1 3.283 -3.283" fill="#070712"/>
   <path d="m756.35-250.99h13.132a3.283 3.283 0 0 1 3.283 3.283 3.283 3.283 0 0 1 -3.283 3.283h-13.132a3.283 3.283 0 0 1 -3.283 -3.283 3.283 3.283 0 0 1 3.283 -3.283" fill="#070712"/>
   <path d="m756.6-260.33h13.132a3.283 3.283 0 0 1 3.283 3.283 3.283 3.283 0 0 1 -3.283 3.283h-13.132a3.283 3.283 0 0 1 -3.283 -3.283 3.283 3.283 0 0 1 3.283 -3.283" fill="#070712"/>
   <path d="m756.35-269.17h13.132a3.283 3.283 0 0 1 3.283 3.283 3.283 3.283 0 0 1 -3.283 3.283h-13.132a3.283 3.283 0 0 1 -3.283 -3.283 3.283 3.283 0 0 1 3.283 -3.283" fill="#070712"/>
   <path transform="rotate(2.4796)" d="m769.79-311.21h41.727a3.3327 3.3327 0 0 1 3.3327 3.3327v5.2988a3.3327 3.3327 0 0 1 -3.3327 3.3327h-41.727a3.3327 3.3327 0 0 1 -3.3327 -3.3327v-5.2988a3.3327 3.3327 0 0 1 3.3327 -3.3327" fill="#c1c1c3"/>
   <path transform="rotate(2.4796)" d="m770.42-310.68h40.837a2.8851 2.8851 0 0 1 2.8851 2.8851v4.587a2.8851 2.8851 0 0 1 -2.8851 2.8851h-40.837a2.8851 2.8851 0 0 1 -2.8851 -2.8851v-4.587a2.8851 2.8851 0 0 1 2.8851 -2.8851" fill="#070712"/>
   <g transform="translate(81.822 4.5457)">
    <path d="m774.28-281.29 0.75761 21.466v47.225l-2.0203 3.7881-5.5558 3.283-8.0812 0.50508-5.0508-3.5355-3.7881-7.0711v-65.66h23.739z" fill="#4c4c56" fill-rule="evenodd" stroke="#000"/>
    <path d="m756.1-278.26h13.132a3.283 3.283 0 0 1 3.283 3.283 3.283 3.283 0 0 1 -3.283 3.283h-13.132a3.283 3.283 0 0 1 -3.283 -3.283 3.283 3.283 0 0 1 3.283 -3.283" fill="#070712"/>
    <path d="m756.1-278.26h13.132a3.283 3.283 0 0 1 3.283 3.283 3.283 3.283 0 0 1 -3.283 3.283h-13.132a3.283 3.283 0 0 1 -3.283 -3.283 3.283 3.283 0 0 1 3.283 -3.283" fill="#070712"/>
    <path d="m756.86-223.97h13.132a3.283 3.283 0 0 1 3.283 3.283 3.283 3.283 0 0 1 -3.283 3.283h-13.132a3.283 3.283 0 0 1 -3.283 -3.283 3.283 3.283 0 0 1 3.283 -3.283" fill="#070712"/>
    <path d="m756.6-232.8h13.132a3.283 3.283 0 0 1 3.283 3.283 3.283 3.283 0 0 1 -3.283 3.283h-13.132a3.283 3.283 0 0 1 -3.283 -3.283 3.283 3.283 0 0 1 3.283 -3.283" fill="#070712"/>
    <path d="m756.35-241.9h13.132a3.283 3.283 0 0 1 3.283 3.283 3.283 3.283 0 0 1 -3.283 3.283h-13.132a3.283 3.283 0 0 1 -3.283 -3.283 3.283 3.283 0 0 1 3.283 -3.283" fill="#070712"/>
    <path d="m756.35-250.99h13.132a3.283 3.283 0 0 1 3.283 3.283 3.283 3.283 0 0 1 -3.283 3.283h-13.132a3.283 3.283 0 0 1 -3.283 -3.283 3.283 3.283 0 0 1 3.283 -3.283" fill="#070712"/>
    <path d="m756.6-260.33h13.132a3.283 3.283 0 0 1 3.283 3.283 3.283 3.283 0 0 1 -3.283 3.283h-13.132a3.283 3.283 0 0 1 -3.283 -3.283 3.283 3.283 0 0 1 3.283 -3.283" fill="#070712"/>
    <path d="m756.35-269.17h13.132a3.283 3.283 0 0 1 3.283 3.283 3.283 3.283 0 0 1 -3.283 3.283h-13.132a3.283 3.283 0 0 1 -3.283 -3.283 3.283 3.283 0 0 1 3.283 -3.283" fill="#070712"/>
   </g>
   <path d="m768.21-187.28 3.9286 5.3571 1.0714 5.3571-0.71429 6.0714-6.0714 5-7.1429 0.35714-6.7857-4.6428-2.5-6.7857 2.1429-7.5 6.4286-5.3571 9.6429 2.1429z" fill="#4c4c56" fill-rule="evenodd" stroke="#000"/>
   <path d="m768.57-182.99 0.35714 12.143-13.214-0.35714-0.35715-12.5 13.214 0.71428z" fill="#fbffff" fill-rule="evenodd" stroke="#000"/>
   <path d="m757.26-181.98 9.5727 0.55301 0.18579 8.4912h-9.2083l-0.55017-9.0442z" fill="#070712" fill-rule="evenodd" stroke="#000" stroke-width=".88434"/>
   <path d="m757.93-180.16-0.0424-1.1346h4.4643l0.17857 1.6072 3.75 0.17857v-0.53572" fill="#070712" fill-rule="evenodd" stroke="#f3f0f0"/>
   <path d="m758.25-174.45-0.0424-1.1346h4.4643l0.17857 1.6072 3.75 0.17857v-0.53572" fill="#070712" fill-rule="evenodd" stroke="#f3f0f0"/>
   <path d="m757.99-177.38-0.0424-1.1346h4.4643l0.17857 1.6072 3.75 0.17857v-0.53572" fill="#070712" fill-rule="evenodd" stroke="#f3f0f0"/>
   <path d="m808.12-170.93-6.0609-9.849-6.6923 10.468 0.50507 0.26523 12.248-0.88389z" fill-rule="evenodd" stroke="#f3f6f6" stroke-width="2"/>
   <path d="m802.29-176.04 0.08928 3.8616-1.0045 0.02232-0.06697-3.817 0.98215-0.06696z" fill="#f3f6f6" fill-rule="evenodd"/>
   <path d="m803.72-173.63-3.8616 0.08928-0.02232-1.0045 3.817-0.06697 0.06696 0.98215z" fill="#f3f6f6" fill-rule="evenodd"/>
   <path d="m838.49-175.97 6.0609 9.849 6.6923-10.066-0.50507-0.66702-12.248 0.88389z" fill-rule="evenodd" stroke="#f3f6f6" stroke-width="2"/>
   <path d="m846.44-172.74-3.8616 0.08928-0.02232-1.0045 3.817-0.06697 0.06696 0.98215z" fill="#f3f6f6" fill-rule="evenodd"/>
   <path d="m746.5-141.13 6.566-2.0203 5.8084-1.2627 8.3338 0.50508 6.8185 2.7779 3.7881 3.7881 0.25254 3.0305-5.5558 2.7779-6.0609 0.75761-7.5761-0.50507-4.7982-0.75762-5.3033-2.7779-2.2728-2.5254v-3.7881z" fill="#4c4c56" fill-rule="evenodd" stroke="#000"/>
   <path d="m746.5-141.13 6.566-2.0203 5.8084-1.2627 8.3338 0.50508 6.8185 2.7779 3.7881 3.7881 0.25254 3.0305-5.5558 2.7779-6.0609 0.75761-7.5761-0.50507-4.7982-0.75762-5.3033-2.7779-2.2728-2.5254v-3.7881z" fill="#4c4c56" fill-rule="evenodd" stroke="#000"/>
   <path d="m830.09-135.83 6.566-2.0203 5.8084-1.2627 8.3338 0.50508 6.8185 2.7779 3.7881 3.7881 0.25254 3.0305-5.5558 2.7779-6.0609 0.75761-7.5761-0.50507-4.7982-0.75762-5.3033-2.7779-2.2728-2.5254v-3.7881z" fill="#4c4c56" fill-rule="evenodd" stroke="#000"/>
   <path d="m787.67-138.86 6.566-2.0203 5.8084-1.2627 8.3338 0.50508 6.8185 2.7779 3.7881 3.7881 0.25254 3.0305-5.5558 2.7779-6.0609 0.75761-7.5761-0.50507-4.7982-0.75762-5.3033-2.7779-2.2728-2.5254v-3.7881z" fill="#4c4c56" fill-rule="evenodd" stroke="#000"/>
   <path d="m756.73-139.37-1.389-1.5152 2.7779-1.389h1.5152l0.12627 8.3338-2.0203-0.12627 0.12627-6.4397-1.1364 1.1364z" fill="#f3f0f0" fill-rule="evenodd"/>
   <path d="m766.07-135.96 0.3788-3.5355-1.5152-2.3991-3.1567 0.12627-0.88388 1.7678 0.50507 4.5457 1.389 1.2627h2.2728l1.0102-1.7678z" fill="#f3f0f0" fill-rule="evenodd"/>
   <path d="m764.02-139.53 0.08929 2.8571-1.6964-0.08928 0.08928-2.8572 1.5179 0.08929z" fill="#4c4c56" fill-rule="evenodd"/>
   <path d="m844.11-133.94-1.389-1.5152 2.7779-1.389h1.5152l0.12627 8.3338-2.0203-0.12627 0.12627-6.4397-1.1364 1.1364z" fill="#f3f0f0" fill-rule="evenodd"/>
   <path d="m805.47-137.91 0.06314-1.7678-4.6088-0.1894v3.283l1.8309 0.25253-0.06314 2.4622-2.1466-0.12627-0.06314 1.2627 3.1567 0.18941 0.94702-0.56821 0.31567-1.0102v-1.1364l-0.63135-1.7046-1.5152-0.25253-0.25254-0.75761 2.9673 0.06313z" fill="#f6f2ef" fill-rule="evenodd"/>
  </g>
 </g>
</svg>
