<?xml version="1.0" encoding="UTF-8"?>
<svg viewBox="0 0 744.09447 1052.362179" xmlns="http://www.w3.org/2000/svg" xmlns:xlink="http://www.w3.org/1999/xlink">
 <defs>
  <linearGradient id="b">
   <stop stop-color="#5a5a5a" offset="0"/>
   <stop stop-color="#fff" offset=".24675"/>
   <stop stop-color="#f0f0f0" offset=".78479"/>
   <stop stop-color="#464646" offset="1"/>
  </linearGradient>
  <linearGradient id="a">
   <stop stop-color="#5a5a5a" offset="0"/>
   <stop stop-color="#f0f0f0" offset=".78479"/>
   <stop stop-color="#646464" offset="1"/>
  </linearGradient>
  <linearGradient id="f" x1="237.32" x2="327.97" gradientUnits="userSpaceOnUse" xlink:href="#b"/>
  <linearGradient id="e" x1="315.62" x2="412.09" gradientUnits="userSpaceOnUse" xlink:href="#b"/>
  <linearGradient id="d" x1="379.04" x2="370.77" y1="526.78" y2="500.62" gradientUnits="userSpaceOnUse" xlink:href="#a"/>
  <radialGradient id="c" cx="363.85" cy="416.4" r="48.237" gradientTransform="matrix(1 0 0 .26409 0 306.43)" gradientUnits="userSpaceOnUse" xlink:href="#a"/>
 </defs>
 <g transform="translate(-10.16 87.813)">
  <path d="m307.75 581.95 3.5379-1.4515 0.81644-0.99788s0.36287-2.2226 0.31751-2.9936-0.36287-2.5401-0.0454-3.5833 1.134-2.6308 1.769-2.9936 2.0865-1.4968 3.6286-2.1318 3.4019-2.0411 3.9915-2.5401 2.8576-2.54 3.2658-3.039 3.039-4.6265 3.3112-5.3976 1.0886-5.3069 1.0886-6.4862 1.0886-2.6308 1.0886-2.6308l0.90716-5.8512-4.0369-1.27-9.6159 3.4019-6.7584 9.4798-6.7584 12.746-5.3523 3.3565 4.1276 5.7605 4.7172 6.6223h4e-5z" fill="#9e9f97"/>
  <path d="m376.7 538.05-2.4947-7.0305-16.329 3.3565-22.225 7.0305-2.9483-1.6329-4.4904 1.3154 1.27 3.2658s-0.68038 2.5401-0.18144 3.5833-0.27215 1.769 1.3154 1.6782 4.5812-0.95252 5.6698-1.3608 1.905-0.36286 2.1318 0.0907 1.8597 2.6308 1.8597 2.6308l16.284-0.8618 11.34-6.0326 8.7995-6.0326z" fill="#b3b5a8"/>
  <path d="m378.4 534.64-0.9622-5.9656 39.899-13.791-1.8602 2.4376s-3.1432 1.7961-5.1317 2.4376-4.0412 2.181-6.0939 3.5922-5.8373 4.4902-6.9278 5.8373-3.2073 3.079-3.6563 3.9771-1.7961 1.8602-2.3093 3.0149-2.5017 7.1844-2.5017 8.8522 0 7.7617 0.19243 9.237 0.51317 4.4902 1.4112 7.5051 2.4376 5.1317 3.2714 6.5429 2.1168 3.1432 2.5017 5.0675 1.1546 1.6036 1.0905 7.0561 1.0263 6.6712 0.38487 11.29-0.12829 6.7353 0 9.237-1.0263 3.0149-1.4754 3.0149-9.7502-17.255-9.7502-17.255l-12.958-14.625 0.38488-18.667 4.4902-18.795z" fill="#95968e"/>
  <path d="m327.14 511.1 12.059-9.8144 11.803-7.0561 12.573-13.599 5.1958-2.4376 1.732-0.0641 7.6975 9.9426 7.0561 6.7353 4.3619 8.1466-29.7 9.686-25.658 8.6597-5.6448-4.1695-1.4754-6.0297z" fill="#dededc"/>
  <path d="m383.53 564.15s-0.19244 2.8224 1.732 5.3241 4.6185 5.5166 4.8751 7.0561-0.12829 6.9278 0.32073 7.7617 1.8602 4.4902 1.8602 4.4902 0 3.079 1.1546 1.0905 2.0527-4.4261 1.3471-5.1958-1.6678 0.12829-2.1168-2.8866 0.12829-3.9771 0-5.26-1.7961-4.6185-2.63-6.4788-1.2829-3.0149-0.70561-3.2714 0.76976-0.12829 1.5395 0.89805 0.25658 2.8866 1.0263 3.7846 1.9885 1.7961 2.3093 3.5922 0.7056 4.0412 1.0263 4.2978 0.96219 0.64147 1.2188-0.96219-0.12829-4.5544-0.19244-5.3241-2.4376-3.528-2.63-4.6185-1.2829-3.9129-2.181-4.2978-1.6037-1.5395-3.528-1.0263-3.7846 0.0641-4.4261 1.0263z" fill="#939486"/>
  <path d="m394.63 615.27 2.8224-0.64146s1.6678-1.4112 1.2829-3.7205 0.12829-4.3619-0.38487-5.9014-5.0034-13.214-5.0034-13.214l-6.5429-11.418-6.158-8.339-7.6975-10.392-4.6185-14.754-5.6448-0.38488-5.1317 3.4639-4.2336 9.8785 2.181 8.9804 1.5395 6.158 10.135 10.263 4.6185 5.7732 3.3356 6.7995 4.4902 10.392 3.8488 4.1054 11.161 2.9507z" fill="#a6a79f"/>
  <path d="m378.14 565.81s-0.44902-8.9163 0.12829-10.905 1.0905-7.5692 2.2451-10.456 3.8488-7.6975 3.1432-9.1087-1.6036-2.0527-3.3997-2.4376-15.138-2.3734-15.138-2.3734l9.5578 1.8602 0.1283 1.4112-1.9885 2.7583-4.2336 3.079-5.26 1.4112-4.6827 2.6941-1.3471 3.2073-2.0527-2.3093s-2.3734-1.2188-4.2336 0.38487-4.5544 2.181-5.7732 3.2073-0.12829 6.4146-0.12829 6.4146l2.7583 7.5051-1.1546 10.712 2.5017 4.1054 4.4261 0.12829 4.8751-2.5017s2.2451-0.0641 2.3734-5.5166-0.96219-9.6219-0.57732-10.841-0.12829-6.607 1.0263-7.1202 3.7846-1.7961 4.7468-0.38488 2.8866 1.732 3.079 4.9392 1.2829 6.2222 2.1168 7.1202 2.5017 3.528 3.3356 3.7205 3.5922-0.64146 3.528-0.70561z" fill="#c7c8c0"/>
  <path d="m359.47 555.61c-0.57731-2.4376-1.3471-6.158-1.2188-7.3127s0.57731-2.63 1.7319-3.6563 3.3997-2.7583 6.158-3.4639 5.8373-1.4754 6.3505-2.1168 3.6563-4.3619 3.7846-5.0034-2.0527-1.0263-2.0527-1.0263-2.3093 1.8602-2.8866 2.63-1.5395 1.4112-2.6941 2.181-3.5922 2.1168-4.811 2.5017-4.0412 2.2451-5.4524 2.3734-2.5658 1.1546-2.5658 1.7961-0.25659 2.63 0.12829 3.9129 0.96218 2.0527 1.0263 2.8224c-0.3275 1.2231 1.9678 5.899 2.5017 4.3619z" fill="#dee0d5"/>
  <path d="m340.04 542.21s0.8339 0.7056 2.1168 0.38487 3.7205-0.89804 4.9392-1.0905 22.836-8.2748 23.798-8.2748 2.5017 0 3.2073 0.57731 2.7583 0.51317 3.8488 0.44902 14.112-2.8224 15.203-3.977 7.2485-3.4639 7.9541-4.3619 0.64146-1.1546 0.64146-1.1546-1.4754-0.57731-2.8866 0.0641-6.7353 2.5658-8.9163 3.3997-6.8636 2.0527-7.9541 1.9885-2.181 0.0642-2.181 0.0642l6.0939-2.3093s7.1844-2.8224 10.263-3.528 20.206-7.3768 20.206-7.3768 2.4376-1.2188 2.5017-1.7961 0.38488-1.7961-0.0641-2.181-10.841 2.3093-10.841 2.3093l-68.316 25.594 0.38487 1.2188z" fill="#8a8b83"/>
  <path d="m330.35 511.87s9.7502-9.1087 13.022-10.263 8.8522-4.5544 9.6861-5.3241 6.2863-5.9014 6.8636-7.5692 9.3012-10.135 9.3012-10.135l-34.96 4.8751-12.637 1.7319-0.44902 16.357 9.1729 10.328z" fill="#dadad8"/>
  <path d="m334.33 541.57 26.492-11.546 58.758-20.912s1.6678-1.1546 1.0263 0.51317-1.2188 3.528-2.5017 4.2336-82.043 30.277-82.043 30.277-3.079 0.51317-3.0149-0.0642 1.4112-2.3734 1.2829-2.5017z" fill="#d2d3cb"/>
  <path d="m330.45 546.6c2.0848-3.079 2.7583-6.8636 2.7583-6.8636l1.5074-3.079 3.0149 1.5395s0.1283 1.5395-1.9244 3.9129-5.292 4.5223-5.3562 4.4902z" fill="#7a7c71"/>
  <path d="m327.95 543.49s5.0675-1.4433 7.4409-4.2978 4.5223-7.3126 4.5223-7.3126l-1.5716-11.899-6.4788-2.0206-4.9713 17.736 1.0584 7.7938z" fill="#b1b2ad"/>
  <path d="m316.24 552.22c2.9324 1.6026 6.4146-2.2772 8.0183-3.977s5.4203-3.7846 6.0618-5.4845 1.4754-4.5864 1.2188-5.6769 0.41695-2.9828-0.73768-3.7846-3.8434-2.1193-6.0297-2.2451-4.5354-0.14547-6.5108 1.6036-2.8143 5.1873-3.2394 8.5314-1.7136 9.4305 1.2188 11.033z" fill="#c8c9c4"/>
  <path d="m315.15 559.55s3.3111-2.9483 4.3997-3.5833 2.5854-2.0865 3.7647-2.1772 1.6782 0.36287 1.769 0.95253-0.95252 1.9504-1.2247 3.1751-4.173 5.7605-5.0348 6.1234-2.4947-0.40822-3.3112 0.31751-0.72573 0.90716-1.5875 2.5854-2.404 2.3586-3.1751 2.0865-1.0432-1.7236-0.58966-2.4493-0.0453-3.3112 0.22679-4.4905 0.0454-2.0865 1.3608-2.8122 3.4472 0.18143 3.4019 0.27215z" fill="#cfd1c6"/>
  <path d="m313.55 555.87s4.9084-3.3884 6.4146-5.1958c1.6036-1.9244 1.5778-0.78963 2.0527-6.4467 0.0853-1.0157-0.20432-0.96189-1.0584-5.8373-0.76975-4.394 0.93012-4.2336 0.93012-4.2336l-2.181-1.1546-4.6185 4.7789-1.5395 18.089z" fill="#e2e3dd"/>
  <path d="m317.65 534.25c0.39219-1.2493 2.8793-5.1806 4.4902-6.4467s2.8972-1.2563 4.1374-1.6036 2.4429-0.68872 3.2394-0.57732 0.89385-0.0752 1.3791 0.67354 0.2389 2.4814 0.12829 3.8167-0.51317 2.2451-0.8339 4.1374-2.181 3.5922-3.5601 3.9771-4.1374 0.866-4.811-0.0641-0.76976-1.8923-2.0848-1.9885-2.0848-1.8282-2.0848-1.9244-0.39219 1.2492 0-5e-5z" fill="#e2e3de"/>
  <path d="m318.61 525.72 2.5017-10.52-0.64146-8.7239 3.528-1.8602 4.2978 0.32073 2.3093 1.7961 1.4754 3.1432 1.4754 3.079 0.44902 3.7846-0.38488 4.8751-4.2978 2.8224-6.9919 0.89805-3.7205 0.38487z" fill="#d2d3cd"/>
  <path d="m319.51 526.11-1.2829-2.8866 2.4376-0.57732s1.2188 0.57732 3.1432 0.51317 3.7846 0.38488 4.811 0 3.2714-2.9507 3.3997-3.4639 0.12829-5.0675-0.25658-6.7995 0.51317-2.63 0.51317-2.63l1.8602 4.4261 0.0641 8.8522-3.5922 2.5017s-2.8224 0.44903-4.2336 1.4754-4.0412 1.5395-5.3883 3.3998-2.8866 2.5017-2.8866 2.5017l-0.96219-6.2222 2.3734-1.0905z" fill="#b3b4ac"/>
  <path d="m315.09 510.58 1.3471-2.63 4.7468 3.8488 1.6036 3.4639-0.44903 3.9129s-0.7056 0.64147-0.57731 1.4754 0.44902 3.2714-0.38488 3.7846-2.8224 0.51317-2.7583-0.64146-1.6678-6.6712-1.6036-6.9278-1.9885-6.4788-1.9244-6.2863z" fill="#d2d2d2"/>
  <path d="m312.33 477.23 9.3012-2.5017c2.4091-0.69443 3.6575-0.86644 9.4936-3.0149 1.3753-0.50629 3.4639-1.4112 4.811-2.6941s8.9163-3.2714 8.9163-3.2714l8.5314 2.5658 10.52 4.1695 6.2863 4.5544s1.4754 1.2188 0.25658 2.1168-5.8373 3.2714-8.1466 3.5922-12.765 2.4376-16.614 2.8224-10.905 1.0905-14.561 1.4754-9.6219-0.44902-11.097-1.0263-7.6334-8.8522-7.6975-8.788z" fill="#c2c2c0"/>
  <path d="m309.89 496.7 0.89804-3.3035 6.1901-5.6448 5.7731-1.1867 0.70561 0.86598-0.51317 4.2657 1.4433 5.4524-0.80183 1.9885-4.2978 1.6357-7.0882-0.19244-2.3092-3.8808z" fill="#b9bab2"/>
  <path d="m322.78 497.56s-2.5017-2.8866-2.4376-4.5544-0.70561-3.2073 0.38487-4.5544 1.9244-3.079 2.6941-3.2714 2.7583-1.4754 2.9507-0.64146 0.12829 3.2714-0.44903 4.6185-1.0905 2.3734-0.7056 3.9129 1.2188 2.63 1.2829 3.7205 0.12829 4.0412 0.76975 4.7468 2.2451 2.3734 3.0149 3.528 2.5658 2.63 2.63 3.7846 2.0527 1.2829 1.7961 6.158 1.4754 11.418 0.7056 12.38-2.0527 0.32073-2.9507 1.6678-1.6678 2.9507-2.3092 1.6036-1.0263-4.6827-0.51317-5.8373-0.57732-1.4754 1.0905-2.7583 2.7583-1.732 2.4376-2.7583 0-3.9771-0.51317-4.8751-1.4112-2.181-1.6678-2.8224-1.2829-4.4261-2.5658-5.26-3.7205-1.0905-4.6827-0.25659-3.3356 1.0263-3.8488-0.57731-1.2188-4.6185-1.0263-5.1317 2.1168-2.181 2.8224-2.181 1.1546-0.70561 1.0905-0.64146z" fill="#83847c"/>
  <path d="m310.34 497.63c-0.3233-1.7598 1.5967-2.3295 2.5017-3.8488s1.7862-1.945 2.5658-2.8224 1.2684-1.8625 2.1168-2.4376 1.8066-0.66201 2.7583-0.96219 2.2042-0.31572 2.9507-0.8339 1.2026-1.2479 1.4112-1.9244 0.18821-1.2273-0.0641-1.8602-0.85171-1.1717-1.4754-1.6678-0.05-0.94355-2.2451-1.2188-7.8551 1.6503-10.392 2.63-3.6226 1.4-4.9392 2.63-2.888 1.383-2.7583 4.4261 0.1405 3.1853 1.9244 5.1317 5.9795 4.5801 5.6448 2.7583z" fill="#e8e8e6"/>
  <path d="m312.07 485.05c0.14924-0.5291-1.5939-2.1768-0.76975-3.2073s3.3842-0.11356 4.6185 0.0642 2.004 0.27324 2.7583 0.76975 1.4683 1.2848 1.6036 1.9885-0.13753 1.0949-0.51317 1.6678-1.0335 1.151-1.7961 1.5395-1.6317 0.81054-2.6941 0.64146-2.7016-1.1735-3.1432-1.9244-0.15752-1.3002-0.0642-1.5395-0.14919 0.52905 5e-5 -5e-5z" fill="#fcfdf8"/>
  <path d="m303.86 489.29c0.11935-2.0906 2.7296-4.6807 4.3619-5.709s3.3196-1.5862 4.2978-0.89805-0.11241 1.9832 0.38488 2.7583 1.8022 0.95033 2.3093 1.4754 0.83981 0.93633 0.8339 1.4112-0.20762 0.88644-0.64146 1.0263-0.93648-0.45004-1.4112-0.57731-0.87296-0.40759-1.4112-0.19244-0.81252 1.0156-1.2829 1.6036-0.76888 1.2652-1.5395 1.9244-1.6924 2.1768-3.1432 1.7961-2.8776-2.5279-2.7583-4.6185z" fill="#6c6d67"/>
  <path d="m284.81 471.46c0.70687-0.71442 4.496 0.15902 6.0297-0.0641s1.9058-0.78248 3.1432-0.89804 2.8222 0.53012 4.1695 0.83389 2.8656 1.089 4.0412 1.5395 2.1988 0.95845 3.2073 1.4754 1.9209 0.90852 2.63 1.2829 1.0496 0.44416 1.6678 0.64146 1.0859 0.16329 2.0527 0.19244 1.0478 0.17359 3.7205-0.38488 7.5988-1.0066 12.444-3.2073c-0.41443 2.482-0.82254 2.9529-2.2451 4.6827s-4.8841 3.4869-6.7995 4.4261-3.1022 1.2016-4.4261 1.5395-2.2172 0.13582-3.4639 0.57731-2.6563 1.331-3.8488 2.181-0.13004 2.8369-3.2714 2.8866-7.9798-7.1483-11.161-9.237-6.2164-1.9867-7.441-3.7846-0.41156-3.8995-0.44902-4.6827-0.70687 0.71437 0-5e-5z" fill="#b2b2b0"/>
  <path d="m276.47 471.46c0.72542-1.1006 1.0802-0.9893 2.3093-1.3471s3.5348-0.25095 5.0034-0.19244 2.9 0.13775 3.7846 0.44902 0.99166 0.69304 1.5395 0.96219 1.3723 0.30202 1.7319 0.64147 0.50964 0.43633 0.44902 1.0263-0.70847 1.3531-1.4112 1.9885-1.1822 0.9853-2.8224 1.6036-5.1887 1.598-7.1202 1.4754-3.2597-0.0576-4.1054-1.4112-0.084-4.0953 0.64146-5.1958z" fill="#b3b4af"/>
  <path d="m270.38 478s1.7105-3.6494 2.8224-4.7468 1.66-1.1389 2.4375-1.6037 1.4-0.76743 2.0527-0.96218 2.2123-0.16649 2.9507 0.12834 1.1546 0.19243 1.3471 1.2188 0.25659 1.0905-0.19244 2.3734-7.1844 4.811-7.1844 4.811l-4.2336-1.2188v-5e-5z" fill="#f5f6f0"/>
  <path d="m240.53 504.66-0.27215-2.0411s0.68037-1.769 1.4968-2.3586 1.27-1.1793 2.2679-1.2247 1.9958-0.0907 3.2658 0.13607 1.6284-1.3536 1.905-1.905c2.258-4.4997 1.8143-3.2204 1.9504-4.0822s0.0907-2.0411 0.4989-2.6761 2.1318-1.769 2.1318-1.769l2.6761 3.1751-6.713 18.325-9.2077-5.579h4e-5z" fill="#666"/>
  <path d="m251.71 490.51c1.3083-2.2366 2.1625-4.8728 3.6563-6.7353s2.3093-2.8866 4.811-4.6185 3.9836-3.4504 6.2863-4.6827 5.4908-2.0004 7.3768-2.63 0.1639-0.15119 3.9129-1.2188c-2.1524 1.6907-1.936 1.6025-2.6941 2.2451s-1.594 0.93355-1.8602 1.6036 1.3151-0.4342 0.19244 1.8602-8.6338 4.7574-11.418 7.1202-3.5832 5.3206-5.5807 6.3505-1.629 0.18394-4.6827 0.70561z" fill="#696a65"/>
  <path d="m286.6 477.61s4.7569-0.93106 6.3505-1.0263 2.4779 0.56955 3.1432 0.1283 0.0728-1.1012 0.57731-1.5395 1.5756-0.59832 2.3093-0.51317 1.2543 0.34683 1.8602 0.89805 0.92957 1.8839 1.4754 2.4376 1.3178 0.44285 1.5395 0.96219 0.13741 1.1078-0.32073 1.5395-1.5087-0.27625-2.181 0.32073-0.0644 2.223-0.8339 3.079-3.4639 1.3471-3.4639 1.3471l-10.456-7.6334z" fill="#fafbf6"/>
  <path d="m310.39 562.36s1.27-0.36286 1.8143 0.72573 0.5443 1.8143 1.8597 1.27 2.3133-2.2226 2.3586-2.8576-0.8618-4.173-1.905-4.6265-3.6286 0.27215-3.6286 0.27215l-0.49894 5.2162z" fill="#eff0ea"/>
  <path d="m299.32 573.65 2.2226-2.9936 2.2226-0.81645s-0.0907 1.3608 0.5443 1.905 3.2658 0.81645 3.7194 0.58966 1.27-0.27215 1.27 0.22679-1.134 1.8597-0.99788 2.7668-0.0907 4.0822 0.22679 5.0348 0.68037 1.1793 0.40822 1.4061-4.7626 1.769-5.443 1.4061-1.9504-0.99788-2.3133-1.9504-2.3133-2.8122-2.1318-4.4451 0.22679-3.1751 0.27215-3.1297z" fill="#c2c3b5"/>
  <path d="m285.26 573.74s1.4061 0.58966 2.3586 0.95252 1.9958 0.68037 2.4493 1.0886 1.905 0.90716 2.3133 1.4515 2.2679 1.8597 2.6308 2.4493 1.1793 2.1318 1.7236 2.4493 1.8143 1.6782 2.1772 1.7236 0.45358 0.31751 1.9958 0.36287 2.0411-0.22679 3.039-0.31751 1.8143-0.49894 2.5401-0.81645 3.8101-1.8143 4.2183-1.9504 1.6329-1.1793 1.5422-1.4968-1.4968 0.54429-1.7236 0.77108-1.769 1.0886-2.4493 1.0886-3.039 0.58966-3.9915 0.31751-1.134 0.27215-1.6782-1.0432-1.0886-1.8597-1.4061-2.6308-2.3586-6.9852-2.3586-6.9852l-9.7066-1.3154-3.674 3.9008z" fill="#9a9a98"/>
  <path d="m288.8 572.97c0.18143 0.0454 5.1255 2.3586 5.8512 3.5379s0.99788 0.99787 1.9958 2.9936 0.8618 1.4968 1.6782 1.7236 0.99788 0.36287 1.7236-0.90716 1.2247-2.1772 1.1793-3.4926-0.18143-0.90716 0.18144-2.54-0.0907-2.3133 0.49893-3.4926-0.27214-2.9936-0.27214-2.9936l-9.117 0.18143-4.4451 2.8122 0.72573 2.1772z" fill="#e3e2dd"/>
  <path d="m246.79 523.99-1.2247-6.1234s-1.3154-5.8966-1.905-7.1212-2.2226-3.4926-2.54-4.4451-1.0432-1.1793-0.81645-2.2226 0.13607-1.9958 0.99788-1.27 2.4947 1.6782 3.4019 1.6329 2.3133-0.36286 2.9483-1.0432 1.9504-1.4968 2.5854-2.1772-1.4515 12.111-1.4515 12.111l-1.9958 10.659z" fill="#bebebe"/>
  <path transform="matrix(.91824 0 0 .81728 24.421 97.245)" d="m321.98 530.27c0 16.839-3.4458 30.729-11.29 41.642-7.6204 10.601-12.358 12.073-23.859 12.073-23.342 0-45.821-31.441-45.821-64.638s14.891-57.178 38.233-57.178c10.124 0 20.276 7.5003 27.453 18.1 9.3698 13.838 15.285 31.203 15.285 50.002z" fill="#e1e1e1"/>
  <path d="m418.02 417.26 4.3544-15.059 6.9852-10.886 9.0716-16.51 9.6159-17.145 6.078-15.875 3.0844-17.055-0.36287-20.774-0.0907-5.3523 11.612-0.63501 0.90716 14.242 0.81644 21.228-3.4472 13.88-6.078 16.782-13.335 18.778-10.432 18.143-8.7995 14.605-2.7215 6.078-7.2573-4.4451z" fill="#d1d1c7"/>
  <path d="m424.1 423.61c0.85628-5.0718 5.9017-16.439 8.7088-22.225s4.4189-7.907 7.4387-12.7 10.795-15.966 10.795-15.966 2.4493-0.81645 2.5401 0.27215-2.8139 8.3544-4.9894 12.156-6.5754 10.97-8.9809 15.694-4.3977 9.3155-5.6244 12.519-1.4137 3.6619-2.0865 6.5316-1.6329 10.705-1.6329 10.705h-5.8966s-1.1284-1.9134-0.27214-6.9852z" fill="#d1d1c5"/>
  <path d="m434.26 465.07s-1.2014-3.0324-1.905-6.1687-1.4994-8.7297-1.8143-12.7-0.4313-7.7904-0.18143-11.067 1.1544-6.4523 1.4515-8.5273 0.45358-3.9008 0.45358-3.9008-3.0276 2.7279-6.1687 5.9873-10.661 8.6073-12.428 13.789 0.65627 10.51 1.0886 14.242 1.27 8.1645 1.27 8.1645l18.234 0.18143z" fill="#b7b8b3"/>
  <path d="m429.81 432.04s-0.36287-11.975 1.8143-16.692 5.6244-14.877 8.1645-17.599 12.337-21.409 12.882-23.768 7.6202-15.785 8.7088-18.869 5.2616-17.055 5.2616-21.59 0.18143-15.603-0.36287-19.232-2.3586-14.515-2.3586-14.515l9.6159-3.2658-1.27 9.4345-0.18143 17.418s-0.18143 11.158-0.81644 14.605-3.1751 12.882-7.0759 21.046-8.9523 17.416-12.61 24.04-8.2552 14.152-9.1623 15.785-5.0397 9.4363-6.713 13.607-2.5624 7.9805-3.5379 11.249-2.3586 8.3459-2.3586 8.3459z" fill="#bebdb8"/>
  <path d="m486.06 293.16c0.30771-0.6663 2.9331-0.58121 4.173-1.4061s1.8226-2.5534 2.9936-3.4019 1.9941-1.254 3.8101-1.6329 4.0199-0.1166 6.9852-0.0453 3.2514 1.5165 10.795 0.58965 32.51-10.952 33.248-10.251-0.29429 2.0439-0.90716 3.5379-1.8537 3.7053-3.039 5.2162-2.7127 2.801-3.9462 3.8101-1.6454 1.3718-3.3565 2.3133-5.1714 2.2681-7.0305 2.9936-2.2774 0.98936-4.0822 1.4515-4.6333 0.92671-6.7584 1.0886-4.1495 0.16378-5.9419-0.0454-3.7924-1.3958-4.7626-1.0886 0.26672 0.53077-0.81645 0.90716-3.7571-0.80595-5.579-0.95252-3.6438 0.0383-5.3069 0.0454-3.1097-0.36203-4.6719 0-3.0387 1.4111-4.4451 2.1772-2.6418 1.709-3.9915 2.404-2.7777 1.4213-4.0822 1.769-2.3077 0.38332-3.6286 0.40822-3.4958 0.47844-4.2637-0.31751-0.51745-1.5555-0.0907-2.3586 0.22623-0.337 2.6308-1.6329 11.246-3.5205 12.065-5.579-0.30773 0.66625-2e-5 -5e-5z" fill="#b68e36"/>
  <path d="m462.17 275.3s0.92144-3.4023 3.5922-5.3883c2.5017-1.8602 3.2073-2.6941 6.5429-3.079s3.3681-0.58565 6.3505-1e-5c3.2776 0.64361 3.4639 1.2188 4.2336 1.732s2.2451 0.96219 3.2714 0.8339 3.8488 0.57731 6.9278-0.96219 6.2934-4.3417 10.328-5.7732c3.977-1.4112 4.4699-1.9111 8.2107-2.2451 9.1384-0.81587 5.8386-1.1125 14.818-0.57732 9.6861 0.57732 13.342 2.7583 15.459 4.4261s6.4788 4.4902 7.3126 6.5429 1.6036 6.0297 0.12829 9.6861-1.8602 4.7468-4.5544 7.4409c-2.5538 2.5538-5.1958 5.0034-11.097 7.3127s-8.788 3.3356-12.829 3.4639-8.5956 0.32073-13.791-1.4754-10.199-1.0905-13.407-1.2188-7.3126 2.8224-9.4936 4.2978-4.5544 2.4376-7.2485 2.7583-5.0034-0.25659-5.0034-0.25659l-10.456-23.734 0.70561-3.7846z" fill="none" stroke="#717171"/>
  <path d="m485.83 294.2s3.3185-0.62223 4.7626-1.5875 1.9812-3.1239 3.5379-4.0822 3.5532-1.1929 5.3976-1.3607 3.1066 0.18573 5.5337 0.36286 5.8335 0.60476 9.0263 0.72573 7.0809 0.25023 10.115-0.0454 5.6727-0.83197 8.0284-1.5422 5.8512-2.4494 6.078-2.5401 5.4537-2.8502 6.8491-3.9008 1.4409-1.151 1.8597-1.8143 0.61734-0.95087 0.68037-1.9958-0.21974-2.7494-0.8618-4.0822-1.0745-3.9777-2.9936-3.6286 2.4136 2.9532-2.2679 6.6223-19.819 1.4557-28.576 2.54-19.367-0.36051-23.949 3.8101-3.2204 12.519-3.2204 12.519v4e-5z" fill="#e1be60"/>
  <path d="m487.1 286.54c2.6721 2.0667 4.573-0.0802 6.9398-0.40822s5.5193-0.86379 7.2119-1.5875 1.4942-1.328 3.039-2.0411 4.3324-1.4975 6.3048-1.769 3.2247 0.10324 5.3976 0 5.2034-0.65097 7.6202-0.72573 4.6609 0.38057 6.8491 0.22679 4.2312-0.52196 6.2141-1.0886 4.2988-1.1794 5.6244-2.2679 2.0106-2.3639 2.3133-3.5379 0.0815-2.1223-0.22679-3.039-0.67861-1.5654-1.4968-2.3133-3.4472-1.8143-3.4472-1.8143l-3.8101-1.0886-2.7668 0.90716-48.352 7.4841s-0.0867 10.996 2.5854 13.063z" fill="#efd36f"/>
  <path d="m420.56 416.08s0-8.7088 6.5316-18.869 7.8016-10.523 12.337-17.962 10.705-18.688 13.426-26.671 6.3501-21.046 6.1687-26.308 0.36286-13.97-0.36287-17.962 0.5443-11.067 0.5443-11.067l-5.6244-1.27 1.8143 5.3523s0.18143 10.251 0.36286 13.154 0 11.34-0.90716 15.059c-0.56791 2.3284-0.5443 6.3501-3.1751 13.154s-4.3544 12.065-6.4408 16.329-14.515 24.766-16.329 27.85-6.4408 11.158-7.5294 13.97-2.6308 7.0759-3.2658 10.07-0.72573 4.3544-0.72573 4.3544l3.1751 0.81645z" fill="#71716f"/>
  <path d="m371.03 478.67 1.9958-2.9029 6.713 0.18143 4.8987-1.0886 4.173-6.3501 2.1772-6.5316 1.27-7.983 5.0801-6.3501 5.2615-1.6329 4.5358 2.9029 2.7215 1.0886 1.27 3.2658-2.3586 4.5358 0.54429 3.8101-2.1772 5.443-2.9029 7.983 5.443-11.43 3.2658 2.3586 4.5358 6.3501 4.1729 10.886 2.5401 5.8058-2.5401 2.9029s-7.4387 3.8101-11.612 4.8987-14.696 3.9915-16.692 3.9915-5.443 1.0886-6.3501 0.36286-2.3586-2.9029-2.3586-4.8987-5.0801-9.2531-5.0801-9.2531l-8.5273-8.3459z" fill="#c7c8c3"/>
  <path d="m328.21 425.88 23.768 4.7172 24.312 0.90716h24.312l11.793-0.90716-11.612 12.882-3.4472 5.6244s-1.27 4.3544-2.9029 7.983-1.0886 7.4387-3.2658 9.6159-1.8143 8.8902-5.2615 9.4345-9.4345 3.0844-13.245 0.72573-7.4387-4.8987-10.705-5.6244-14.515-5.443-14.515-5.443l-5.0801-21.953-13.245-14.696-0.90716-3.2658z" fill="#edede5"/>
  <path d="m366.31 468.33s-1.6329-4.173 0.72573-8.1645 3.9915-8.7088 3.9915-10.523 1.0886-5.6244-0.18144-7.983-1.8143-4.173-0.54429-4.7172 1.4515-3.0844 3.9915-3.0844 8.7088-0.36286 11.975 0 13.245-1.9958 10.16 0.36287-8.1645 6.713-8.3459 9.2531-0.72573 4.5358-1.6329 9.253-5.2615 10.342-4.7172 12.156-0.36286 3.0844 0.5443 5.6244 1.4515 4.7172-0.36286 4.8987-3.0844 1.9958-6.713 0.90716-7.8016-2.3586-8.3459-3.6286-0.72573-4.3544-0.5443-4.3544z" fill="#e1e0db"/>
  <path d="m404.96 431.68s-4.7172 5.9873-5.443 8.5273-3.0844 7.0759-3.0844 8.5273 0.36286 3.8101 2.54 1.27 3.8101-2.3586 5.0801-0.90717 0.72573 1.8143 2.5401 2.3586 3.6286 1.27 5.6244 0.18143 3.4472-2.3586 3.9915-3.6286-0.72573-1.6329 0.18143-3.6286 2.0865-5.8058 4.2637-7.8016 3.8101-4.5358 5.8058-5.8058 3.0731-4.1108 2.7215-6.2594c-0.81644-4.9894-7.348-7.7109-9.5252-7.8923s0.72574 5.0801 0.72574 5.0801l-15.422 9.9788z" fill="#6a6a62"/>
  <path d="m394.79 624.38 2.8545 2.0527 16.229-4.5864-0.0321-5.2279s0.0321-0.83389-1.1226-1.315-4.4582-1.6357-6.7353-3.1432-3.6243-2.4696-5.3562-4.9713-2.8866-4.6506-2.8866-4.6506l-6.6712 8.2428 3.7205 13.599h1e-5z" fill="#ababa9"/>
  <path d="m441.76 471.42 10.279-7.8258 1.8923-0.14433 1.2027 1.8763-0.6575 2.8385-3.2554 1.8763-3.4639 3.4478-2.5498 1.6036-1.5716-1.1386-1.8763-2.5338z" fill="#d9dad5"/>
  <path d="m449.03857,463.78986 1.20274-1.15463c0,0 .75372-.32073 1.55554-.24055s1.25085-.016 1.81213.0481 .8339-.11226 1.3631.20847 .0962,1.34707-.25658,1.36311-1.0103-.28866-1.20274-.22451-1.95645.41695-2.11682.72164-1.74798,1.10652-2.11682.97823-1.20274-.56128-.97823-.84994 .78579-.84993.73768-.84993z" fill="#b3b2b7"/>
  <path d="m439.02 470.36s1.8602-0.67353 2.4055-1.0263 1.2508-1.4433 1.8923-1.8602 1.742-1.5141 2.7262-2.2451c0.53082-0.39424 1.8036-1.0313 2.181-1.2829 0.4811-0.32073 1.8282-1.5395 2.0527-1.2188s-0.35281 0.57732-0.38488 1.0263-1.0263 1.2829-1.315 1.6037-5.5807 4.3619-5.5807 4.3619l-2.3734 1.3791-0.86597 0.12829-0.73768-0.86597z" fill="#d6d6d4"/>
  <path d="m440.97 470.69 5.6128-4.5223s1.2508-1.0584 2.7904-1.5395 2.3413-1.2188 2.3413-0.32073-0.89804 1.2508-1.4112 2.0206-6.8636 5.1317-7.5051 5.6769-1.764-1.315-1.8282-1.315z" fill="#fffffd"/>
  <path d="m446.01 484.99s1.9565-0.93012 3.3677-2.213 1.764-1.2829 2.63-2.2772 2.0206-3.2714 2.63-4.2657c0.46357-0.75634 1.6999-2.7904 1.9565-3.5922 0.23643-0.73884 0.51317-1.732 0.51317-1.732l-5.3883 1.2188-1.3791 3.8167-3.6884-1.0263-2.3413 1.5716 0.80182 5.1958 0.16037 2.3413 0.73768 0.96224v-4e-5z" fill="#949691"/>
  <path d="m444.08 476.65 3.3997-3.1432 2.4376-3.528 3.8488-2.6941 0.76975-1.5395-0.8339-1.6036s-1.4112-0.76975 0.12829-1.3471 1.78 0.16037 1.78 0.16037 0.70561 0.46506 1.2829 1.8763 1.0263 2.4857 0.96218 3.7044 0.0321 2.3093-0.48109 3.6403c-0.34614 0.89778-3.1592 5.1157-4.9553 6.142s-2.4376 1.732-3.528 1.0905-1.7319-1.0263-1.7961-1.9244 0-0.89804-1.0905-0.83389-1.8602 0-1.9244 0z" fill="#64655d"/>
  <path d="m445.24 474.34s1.6036-2.2451 2.5658-2.181 1.0905 0.70561 0.70561 1.6036-1.5395 2.5658-2.63 3.5922-2.9507-0.76975-2.9507-0.76975l2.3093-2.2451z" fill="#f1f3ef"/>
  <path d="m303.14 604.32c5.7586 2.6987 19.066 5.7197 19.066 5.7197l20.496-5.4814s0.19857-2.0632 0.23832-3.0982c0.14329-3.7309-1.0192-7.6092 0-11.201 0 0 0.54535-3.9791 1.5945-5.6193 0.75071-1.1737 3.1719-2.7219 3.1719-2.7219s10.028 5.3702 14.299 9.0562c2.3028 1.9871 4.6881 4.1474 5.958 6.9113 0 0 2.7855 4.9162 4.0514 8.8179 1.298 4.0004 2.3832 8.3412 1.4299 14.299-0.16037 1.0023 0.25344 2.2721 1.5355 2.5833 7.1848 1.7441 23.25 4.0896 23.25 4.0896l16.682-4.7664v-5.8577s0.44442-2.0721-1.9602-2.9392-7.5074-3.0894-10.085-6.0408c-2.3164-2.6518-4.1208-6.1886-4.1603-9.7094 0 0 0.86463-15.66-0.3472-22.626-0.3746-2.1534-2.036-4.781-2.036-4.781l-5.0047-9.5328s-0.85263-3.707-1.0622-6.1346-0.52677-4.8028 0.10888-8.4029c0.617-3.4945 0.2244-4.5866 1.2327-7.0613 0.98029-2.4058 0.83746-4.558 5.3725-8.4441 4.4809-3.8397 3.2627-5.9048 10.418-8.9473 5.5916-2.3775 12.528-6.2907 12.528-6.2907l1.4299-5.4814 1.6682-8.1029 8.3412-0.71497s8.5941-2.042 10.977-4.1869c1.191-1.0719 2.8341-2.9461 3.9622-5.8602 1.1293-2.9172 1.7429-6.8737 1.7429-6.8737s2.9208-1.6208 4.3037-2.9548c1.3343-1.2872 4.2573-6.6976 5.4674-8.9612 0.92481-1.73 1.7034-5.043-0.70042-9.4385-1.2784-2.3378-3.1634-1.8199-4.9079-1.8303-2.5127-0.0151-2.0275 0.11161-3.9571 1.1625-3.063 1.6682-5.2104 3.6716-6.8787 5.5782s-6.673-5.4814-6.673-5.4814-2.6846-7.8979-2.8598-13.823c-0.16701-5.7499-1.1916-6.9113 0-16.444s3.4344-18.737 8.8178-28.122l17.636-30.743s5.243-10.724 6.673-14.061 6.2413-14.567 6.9113-18.351c0.69439-3.922 1.6416-10.33 1.6416-17.241s0.26492-21.128 0.26492-21.128l-0.1149-3.8748s3.8071-4.6164 3.5688-7.9529 1.4976-4.8983-2.3155-10.256c-3.3279-4.6762-8.1937-6.0052-12.66-6.0524-3.8794-0.041-9.4034 1.4916-12.025 4.8281s-2.5775 10.371-2.3421 12.278c0.30003 2.4304 3.0098 7.694 5.8697 7.9323 1.4445 5.5732 0.0823 25.977 0.0823 25.977s-1.0712 9.5643-3.8954 17.159c-2.9421 7.9117-6.9113 16.682-6.9113 16.682l-15.967 27.883s-9.0562 14.538-10.486 25.262c-6.1116-3.1028-4.9175-3.2954-15.253-5.243-18.649-3.5146-28.917-3.3856-40.538-3.2542s-18.845 0.26492-29.596 2.2332c-9.9513 1.8219-19.086 5.2551-19.801 9.3066s0.12817 6.194 1.3198 7.3856 3.9286 3.4862 5.2032 5.2277c1.6179 2.2106 5.4125 6.0431 7.9638 10.857 1.1058 2.0865 5.0054 5.1796 6.7464 18.925 0.42771 3.3769 0.91617 4.5525 1.3076 10.666-8.1013 4.1666-22.214 6.3354-22.214 6.3354s-10.762-4.9873-16.409-6.0572c-4.9601-0.93976-16.748-0.41231-21.958 1.1825-4.6924 1.4365-11.284 4.3106-17.736 10.996-3.7793 3.9158-5.5824 10.465-8.2813 14.949-0.97517 1.6201-1.363 1.318-3.8831 1.4601-1.3735 0.0775-3.4813 3.243-3.792 4.4944-0.87256 3.5145 2.1888 5.9509 3.0332 9.56 1.281 5.4756 0.86805 11.948 1.0926 15.416 0.31407 4.8506 2.8515 16.339 7.7416 25.074 4.8755 8.7092 10.943 13.415 14.86 16.565 4.1584 3.3442 10.268 5.5101 15.988 6.2251 1.7682 0.22103 7.0827 1.2406 8.9611 2.2395 1.6891 0.89822 6.813 7.6742 8.1898 7.6028 1.299-0.0673 4.626 0.0906 8.2386-1.8052 1.9061-1.0002 5.1756-2.1134 5.3387-3.4703 0.6906-5.743-0.18278-4.2501 0.78934-7.3848 0.90851-2.9295 5.4564-3.4665 8.716-6.6807s7.3553-6.4725 7.4957-14.689c3.4253-0.72678 6.508-1.8164 6.508-1.8164s0.29765 10.446-0.1083 12.648-6.9127 3.3103-9.7634 5.654-4.6273 4.4135-7.1573 8.1686c-1.8112 2.6883-5.6708 10.075-6.2865 17.641-3.7034 1.1273-5.4157 0.37245-5.4157 0.37245s-3.9948 0.71497-5.6952 1.5292c-0.71496 1.6682-0.47664 7.3879-0.47664 7.3879s0.76674 1.3574 1.4299 1.6682h-2e-5z" fill="none" stroke="#000"/>
  <path transform="matrix(.59242 0 0 .59878 115.56 213.09)" d="m327.05 528.88c1.4702 14.992-2.5736 29.75-8.495 40.277-3.7525 6.6713-11.166 11.06-17.401 12.782-6.7102 1.8531-13.675 0.68659-20.963-1.6772-11.193-3.6302-20.014-11.177-27.828-21.308-7.6702-9.9456-14.436-22.355-14.436-38.8 0-12.382 0.72338-24.795 4.8373-34.85 3.4179-8.3538 9.6314-14.967 15.544-19.614 6.0513-4.7561 14.48-5.6448 21.883-5.6448 23.342 0 46.858 35.639 46.858 68.836z" fill="url(#f)"/>
  <path d="m309.13 530.27c0.871 8.9768-1.5247 17.814-5.0326 24.117-2.2231 3.9946-3.478 3.5899-7.2586 4.2337-4.345 0.73991-6.715 0.3187-11.033-1.0967-6.6309-2.1737-9.8234-4.382-14.452-10.449-4.544-5.9552-10.309-14.403-10.309-24.25 0-7.4139-0.80733-8.8682 1.2021-15.045 1.7476-5.3718 4.8741-9.7939 8.2841-13.5 3.0998-3.3694 6.4525-5.2285 10.838-5.2285 13.828 0 27.76 21.34 27.76 41.218z" fill="#8c8c8c"/>
  <path transform="matrix(.79031 0 0 .91317 60.1 46.061)" d="m292.43 522.49c0 3.9304-2.5035 7.1167-5.5917 7.1167s-5.5917-3.1862-5.5917-7.1167 2.5035-7.1167 5.5917-7.1167 5.5917 3.1863 5.5917 7.1167z" fill="#dcdcdc"/>
  <path transform="translate(1.0758 1.2606)" d="m275.89 512.14c0 1.8887-1.0966 3.4197-2.4493 3.4197s-2.4493-1.5311-2.4493-3.4197 1.0966-3.4197 2.4493-3.4197 2.4493 1.5311 2.4493 3.4197z"/>
  <path transform="translate(-6.7932 -1.1091)" d="m275.89 512.14c0 1.8887-1.0966 3.4197-2.4493 3.4197s-2.4493-1.5311-2.4493-3.4197 1.0966-3.4197 2.4493-3.4197 2.4493 1.5311 2.4493 3.4197z"/>
  <path transform="translate(-3.3735 -8.7804)" d="m275.89 512.14c0 1.8887-1.0966 3.4197-2.4493 3.4197s-2.4493-1.5311-2.4493-3.4197 1.0966-3.4197 2.4493-3.4197 2.4493 1.5311 2.4493 3.4197z"/>
  <path transform="translate(4.9447 -7.4864)" d="m275.89 512.14c0 1.8887-1.0966 3.4197-2.4493 3.4197s-2.4493-1.5311-2.4493-3.4197 1.0966-3.4197 2.4493-3.4197 2.4493 1.5311 2.4493 3.4197z"/>
  <path transform="translate(.69318 -16.636)" d="m275.89 512.14c0 1.8887-1.0966 3.4197-2.4493 3.4197s-2.4493-1.5311-2.4493-3.4197 1.0966-3.4197 2.4493-3.4197 2.4493 1.5311 2.4493 3.4197z"/>
  <path transform="translate(8.1796 -15.527)" d="m275.89 512.14c0 1.8887-1.0966 3.4197-2.4493 3.4197s-2.4493-1.5311-2.4493-3.4197 1.0966-3.4197 2.4493-3.4197 2.4493 1.5311 2.4493 3.4197z"/>
  <path transform="translate(15.574 -14.603)" d="m275.89 512.14c0 1.8887-1.0966 3.4197-2.4493 3.4197s-2.4493-1.5311-2.4493-3.4197 1.0966-3.4197 2.4493-3.4197 2.4493 1.5311 2.4493 3.4197z"/>
  <path transform="translate(12.154 -6.1)" d="m275.89 512.14c0 1.8887-1.0966 3.4197-2.4493 3.4197s-2.4493-1.5311-2.4493-3.4197 1.0966-3.4197 2.4493-3.4197 2.4493 1.5311 2.4493 3.4197z"/>
  <path transform="translate(20.287 -4.9909)" d="m275.89 512.14c0 1.8887-1.0966 3.4197-2.4493 3.4197s-2.4493-1.5311-2.4493-3.4197 1.0966-3.4197 2.4493-3.4197 2.4493 1.5311 2.4493 3.4197z"/>
  <path transform="translate(27.404 -4.344)" d="m275.89 512.14c0 1.8887-1.0966 3.4197-2.4493 3.4197s-2.4493-1.5311-2.4493-3.4197 1.0966-3.4197 2.4493-3.4197 2.4493 1.5311 2.4493 3.4197z"/>
  <path transform="translate(23.984 -12.755)" d="m275.42 513.51s-0.32518 1.1152-0.58147 1.382c-0.31774 0.33074-0.65094 0.67138-1.3997 0.67138-1.3527 0-2.4493-1.5311-2.4493-3.4197s0.5399-1.9521 1.4498-2.8757c1.1503 1.5941 2.9806 4.2421 2.9806 4.2421z"/>
  <path transform="translate(23.799 5.0834)" d="m275.89 512.14c0 1.8887-1.0966 3.4197-2.4493 3.4197s-2.4493-1.5311-2.4493-3.4197 1.0966-3.4197 2.4493-3.4197 2.4493 1.5311 2.4493 3.4197z"/>
  <path transform="translate(31.193 6.0076)" d="m275.89 512.14c0 1.8887-1.0966 3.4197-2.4493 3.4197s-2.4493-1.5311-2.4493-3.4197 1.0966-3.4197 2.4493-3.4197 2.4493 1.5311 2.4493 3.4197z"/>
  <path transform="translate(27.866 13.586)" d="m275.89 512.14c0 1.8887-1.0966 3.4197-2.4493 3.4197s-2.4493-1.5311-2.4493-3.4197 1.0966-3.4197 2.4493-3.4197 2.4493 1.5311 2.4493 3.4197z"/>
  <path transform="translate(35.352 14.141)" d="m273.66 511.85c0 1.8887 0.0168 1.7877 0.0811 3.7613-1.3527 0-2.7529-1.5817-2.7529-3.4703s0.9574-3.1793 2.3101-3.1793c0.12548 1.088 0.12136 1.0882 0.36174 2.8883z"/>
  <path transform="translate(-9.3811 8.041)" d="m275.89 512.14c0 1.8887-1.0966 3.4197-2.4493 3.4197s-2.4493-1.5311-2.4493-3.4197 1.0966-3.4197 2.4493-3.4197 2.4493 1.5311 2.4493 3.4197z"/>
  <path transform="translate(-2.5417 9.3349)" d="m275.89 512.14c0 1.8887-1.0966 3.4197-2.4493 3.4197s-2.4493-1.5311-2.4493-3.4197 1.0966-3.4197 2.4493-3.4197 2.4493 1.5311 2.4493 3.4197z"/>
  <path transform="translate(-5.4069 17.191)" d="m275.89 512.14c0 1.8887-1.0966 3.4197-2.4493 3.4197s-2.4493-1.5311-2.4493-3.4197 1.0966-3.4197 2.4493-3.4197 2.4493 1.5311 2.4493 3.4197z"/>
  <path transform="translate(1.3631 17.881)" d="m275.89 512.14c0 1.8887-1.0966 3.4197-2.4493 3.4197s-2.4493-1.5311-2.4493-3.4197 1.0966-3.4197 2.4493-3.4197 2.4493 1.5311 2.4493 3.4197z"/>
  <path transform="translate(-.62546 26.284)" d="m275.89 512.14c0 1.8887-1.0966 3.4197-2.4493 3.4197s-2.4493-1.5311-2.4493-3.4197 1.0966-3.4197 2.4493-3.4197 2.4493 1.5311 2.4493 3.4197z"/>
  <path transform="translate(7.0079 27.503)" d="m275.89 512.14c0 1.8887-1.0966 3.4197-2.4493 3.4197s-2.4493-1.5311-2.4493-3.4197 1.0966-3.4197 2.4493-3.4197 2.4493 1.5311 2.4493 3.4197z"/>
  <path transform="translate(14.128 28.337)" d="m275.89 512.14c0 1.8887-1.0966 3.4197-2.4493 3.4197s-2.4493-1.5311-2.4493-3.4197 1.0966-3.4197 2.4493-3.4197 2.4493 1.5311 2.4493 3.4197z"/>
  <path transform="translate(21.505 30.005)" d="m275.89 512.14c0 1.8887-1.0966 3.4197-2.4493 3.4197s-2.4493-1.5311-2.4493-3.4197 1.0966-3.4197 2.4493-3.4197 2.4493 1.5311 2.4493 3.4197z"/>
  <path transform="translate(24.712 21.538)" d="m275.89 512.14c0 1.8887-1.0966 3.4197-2.4493 3.4197s-2.4493-1.5311-2.4493-3.4197 1.0966-3.4197 2.4493-3.4197 2.4493 1.5311 2.4493 3.4197z"/>
  <path transform="translate(32.73 23.334)" d="m275.89 512.14c0 1.8887-1.0966 3.4197-2.4493 3.4197s-2.4493-1.5311-2.4493-3.4197 1.0966-3.4197 2.4493-3.4197 2.4493 1.5311 2.4493 3.4197z"/>
  <path transform="translate(29.01 31.095)" d="m275.89 512.14c0 1.8887-1.0966 3.4197-2.4493 3.4197s-2.4493-1.5311-2.4493-3.4197 1.0966-3.4197 2.4493-3.4197 2.4493 1.5311 2.4493 3.4197z"/>
  <path transform="translate(3.3516 34.431)" d="m275.89 512.14c0 1.8887-1.0966 3.4197-2.4493 3.4197s-2.4493-1.5311-2.4493-3.4197 1.0966-3.4197 2.4493-3.4197 2.4493 1.5311 2.4493 3.4197z"/>
  <path transform="translate(10.857 36.291)" d="m275.89 512.14c0 1.8887-1.0966 3.4197-2.4493 3.4197s-2.4493-1.5311-2.4493-3.4197 1.0966-3.4197 2.4493-3.4197 2.4493 1.5311 2.4493 3.4197z"/>
  <path transform="translate(17.592 37.061)" d="m275.89 512.14c0 1.8887-1.0966 3.4197-2.4493 3.4197s-2.4493-1.5311-2.4493-3.4197 1.0966-3.4197 2.4493-3.4197 2.4493 1.5311 2.4493 3.4197z"/>
  <path transform="translate(26.123 38.152)" d="m275.89 512.14c0 1.8887-1.0966 3.4197-2.4493 3.4197s-2.4493-1.5311-2.4493-3.4197 1.0966-3.4197 2.4493-3.4197 2.4493 1.5311 2.4493 3.4197z"/>
  <path transform="translate(15.796 46.298)" d="m275.79 512.39c-0.94193 0.0179-0.96071 0.0148-2.2848-0.26191-1.1503-0.24038-1.1968-0.2912-2.1962-0.56044 0-1.8886 1.0333-1.7117 2.386-1.7117s1.8256 1.5515 2.095 2.5341z"/>
  <path d="m325.53 586.55s3.0668-6.5311 4.8842-7.951 4.657-4.0323 10.677-6.7583 4.7706 2.3853 4.7706 2.3853 0.22717 1.9877-3.4643 2.8396-5.4521 1.0791-9.1436 3.294-7.383 5.736-7.7238 6.1904z" fill="#1e1e1e"/>
  <path d="m374.62 564.55s-1.1738 1.8446-0.67076 2.3477 1.0062 2.4315 2.18 3.8569 4.9469 4.4438 5.3662 5.1984 4.2761 5.1146 4.4438 5.9531 3.6892 5.7015 4.2762 7.1269 3.6054 5.9531 3.9408 7.63 1.6769 4.7792 2.5154 6.9592 1.6769 3.27 1.6769 3.27 2.0123 0.58693 1.5931-0.83845-2.3477-4.1085-2.4315-4.9469-1.2577-5.2823-1.6769-6.7915-1.5931-5.0308-3.6054-7.4623-4.7792-6.9592-5.45-8.1331-3.0184-4.5277-4.1084-5.8692-3.4377-3.3538-3.6054-4.5277-0.16769-3.6054-1.09-3.6892-1.0062-0.25153-1.0062-0.25153l-2.3477 0.16769z" fill="#fff"/>
  <path d="m338.83 547.86c0.77982-0.6527 6.0314-0.4137 6.7022 0.0894s3.6054 2.5992 4.1923 4.4438 2.0962 6.6238 2.0123 9.6423-1.09 5.8692-1.8446 7.7977-0.83846 2.18-0.67077 3.6892 6.6238 5.7015 6.6238 5.7015l11.235 9.5584 8.3008 11.822 2.0123 10.984 5.7015 3.0185 14.509 2.8906 0.0533 8.9419-22.389-4.0746s-0.4786-0.044-0.47343-1.2179c5e-3 -1.1505 0.75735-3.9134 0.31591-6.6484-0.1742-1.0792-1.2591-5.839-1.6574-7.1862-1.1812-3.9949-3.6156-9.0689-4.5277-10.313-0.70979-0.96818-1.9188-3.498-5.7422-6.64-1.2549-1.0313-3.4317-2.5603-4.725-3.3691-0.46773-0.29251-2.7119-1.8926-4.9892-3.2406-2.1552-1.2758-4.8206-2.8112-5.3506-2.9335-1.09-0.25154-2.0411 0.75549-2.0411 0.75549l-10.145 2.9765-7.2527 5.45-3.7731 8.8877-1.4275 9.4134s-0.88933 0.59289-1.7194 0.47431-16.23-4.3681-17.846-5.4545-0.97423-1.5807-0.88201-2.4396c0.074-0.68959-0.0152-0.98729-0.037-2.1256s0.20473-2.5472 0.56324-2.8755 4.6243 1.3627 5.4545 0.56327 2.2238-0.94714 3.083-1.1858 0.38538 0.38538 1.6897-0.56323 1.2672-5.0746 1.5118-5.7213c0.41502-1.0968 1.6775-5.6073 2.3715-6.8774 1.5611-2.857 3.0825-6.0107 4.0316-7.2331 1.1006-1.4175 4.743-6.0177 6.8774-7.0849s5.6349-2.6744 6.4328-2.9199c2.3122-0.71145 2.8606-2.3715 2.8162-3.498-0.0231-0.58422 0.0889-7.2332 0.0445-8.1521-0.0394-0.81466-0.19268-4.1057 0.10375-4.4614s0.0757-0.23164 0.85554-0.88435l-1e-5 -3e-5h3e-5v-3e-5h4e-5z" fill="#646464"/>
  <path d="m303.16 596.2 7.6102 1.8174s3.0668 0.45434 4.2026 0.22717-2.0445-3.9755-2.0445-3.9755-3.294-0.11358-5.5657 0.34076-3.8619 1.1358-4.2026 1.5902z" fill="#d2d2d2"/>
  <path d="m322.64 608.96s-0.56255-7.1612 0.45972-11.023 4.7706-10.109 6.2472-11.018 5.2249-3.8619 8.1781-4.8842 7.7238-2.0445 9.0868-1.4766 0.34076 1.2494 0.34076 1.2494-2.5987 1.0895-3.5211 3.5211-1.0332 3.4051-1.363 4.8842c-0.40404 1.812-0.54464 5.6184-0.36513 6.9882 0.20648 1.5756-0.13651 4.4188 0.17307 5.6495 0.22849 0.90835 0.26228 0.96816-0.45972 1.1832-1.4524 0.43248-15.615 4.285-18.777 4.9261z" fill="#969696"/>
  <path d="m349.81 575.61s5.45 3.8569 7.2946 5.7854 5.8692 4.8631 7.63 7.3784 5.7854 6.0369 7.2108 8.6361 3.1862 5.0308 3.7731 8.3846 0 5.0308 0.92231 6.2046 1.8868 2.16 3.6892 3.1023 3.7909 1.0334 7.1269 1.9285c3.4377 0.92231 6.4561 2.0123 8.6361 1.7608s4.36-2.6831 4.36-2.6831 0.41923-1.8446-1.3415-2.0962-6.1208-1.1738-8.0492-2.18-6.2884-2.4315-8.5523-4.9469-2.6103-8.8398-2.9346-9.8938c-1.0062-3.27-3.4377-7.2108-5.1146-9.3908-1.4639-1.9031-4.9469-6.2884-9.4746-9.9777-4.3826-3.571-4.1923-4.4438-7.4623-4.4438s-6.7915 0.16769-7.2108 1.2577-0.33539 1.09-0.50308 1.1738z" fill="#fff"/>
  <path d="m350.51 466.48s10.672 2.1344 14.822 4.5059 7.5889 5.3359 10.553 8.6561 3.3201 5.2174 6.0474 7.826 4.8616 4.5059 5.9288 4.743 2.7272 2.253 1.5415 3.5573-4.5059 3.2016-5.9288 1.1858-4.6245-4.0316-8.1818-9.4861-6.5217-9.4861-8.8932-11.383-7.1146-4.2687-10.672-5.5731-6.4031-2.3715-6.4031-2.3715l1.1858-1.6601z" fill="#90908e"/>
  <path d="m334.62 470.27s3.913-2.3715 8.3003-2.1344 5.9288-0.23715 7.5889 0.94861 0.23715-0.94861 1.6601-2.1344 3.2016-0.71146 4.0316-2.4901 2.8458-8.5375-0.11857-9.4861-5.4545-4.2687-5.0988-6.2845 3.2016-6.4031-2.1344-8.7746-9.3675-6.8774-10.79-6.996-5.5731-4.8616-5.5731-4.8616l-7.826-2.3715-11.62-9.4861s-1.6601 1.0672-0.94861 2.4901-0.11858 2.0158 0.4743 2.4901 2.7273 3.6759 3.7944 4.0316 4.2687 4.1502 4.8616 5.2174 3.083 4.0316 4.1502 5.4545 3.2608 5.5138 4.6245 7.5889c0.85652 1.3034 3.2016 9.2489 3.4387 10.909s0.89027 7.7006 1.3044 9.3082c1.0079 3.913-1e-5 6.6996-0.11858 6.581z" fill="#737373"/>
  <path transform="matrix(1.2028 .06827 -.03467 1.2265 -53.263 -115.16)" d="m412.09 416.4c0 7.0357-21.597 12.739-48.237 12.739s-48.237-5.7035-48.237-12.739 21.597-12.739 48.237-12.739 48.237 5.7035 48.237 12.739z" fill="url(#c)"/>
  <path transform="matrix(.99861 .05415 -.04114 .80158 23.218 64.279)" d="m412.09 416.4c0 7.0357-21.597 12.739-48.237 12.739s-48.237-5.7035-48.237-12.739 21.597-12.739 48.237-12.739 48.237 5.7035 48.237 12.739z" fill="url(#e)"/>
  <path d="m424.5 498.37 5.9288-8.6561 0.4743-8.7746 2.0158-4.2688 0.11857-8.8932 1.0672-3.6759 2.7272 3.5573 4.3873 3.913 2.8458 3.3201 0.94861 5.2174-0.23715 6.2845-0.35573 3.5573-1.5415 2.253-2.9644 2.1344-5.4545 2.3715-3.913 2.3715-3.083 1.0672-2.9644-1.7786z" fill="#babbb6"/>
  <path d="m417.39 462.56c1.0546-1.3441 4.0067-0.80012 5.8102-1.4229s3.5011-2.2011 4.9802-2.253 2.3573 0.44085 3.2016 1.1858 1.0048 1.8587 1.5415 2.9644 0.96653 1.7133 1.6601 3.6759 1.952 6.0664 2.1344 8.1818 0.38781 2.9875-0.35573 4.2687-2.1062 2.7123-3.7944 2.6087-2.9736-2.2756-4.1502-3.6759-1.5766-2.9776-2.8458-4.6245-3.4115-4.0592-4.8616-5.0988-2.6091-0.4275-3.3201-1.5415-1.0546-2.9247 0-4.2688z" fill="#f7f8f3"/>
  <path d="m414.54 468.97 2.6087-2.6087 1.3043-1.6601 0.83003-3.3201-2.6087-0.83003 0.47431-6.4031-1.4229-5.0988-2.4901-0.11857-1.0672 2.3715 0.71146 7.1146 0.11857 5.4545-2.0158 3.2016-0.23715 1.5415 1.7786 1.1858 2.0158-0.83003z" fill="#6b6b6d"/>
  <path d="m407.31 467.07c0.4743-0.11858 5.6916-0.35573 5.9288-0.83004s0.4743-1.8972 0.59288-2.6087-0.59288-11.739-0.59288-11.739l-3.4387 5.2174-0.59288 6.166-2.6087 2.6087 0.71146 1.1858z" fill="#fff"/>
  <path d="m395.45 471.22 11.265-6.7588s2.3715-1.3043 1.7786-2.9644-2.8458-1.5415-1.4229-4.9802 5.8102-9.1304 6.166-6.996 1.3043 1.7786-0.71146 4.8616-1.3043 3.913-2.3715 6.996-0.94861 2.9644-1.5415 5.3359-0.94861 8.0632-0.23716 9.8418 2.1344 4.743 3.4387 5.0988 5.4545 2.3715 5.4545 4.2687-2.253 4.743-3.4387 4.6245-3.3201-1.4229-4.3873-0.71145-1.3043 2.3715-1.8972 2.8458-3.5573 1.4229-4.0316 0.35573-2.7272-4.2687-2.3715-7.1146-2.1344-5.2174 0.11858-10.079 5.5731-6.996 2.7272-6.166-5.5731 2.6087-6.7588 2.4901-3.728 0.221-1.7786-0.94861z" fill="#878882"/>
  <path d="m423.79 491.5-2.0158-6.8774-3.3201-7.2332-0.94861-3.4387 2.2529-2.0158 5.9288 4.0316 2.9644 7.7074 0.11858 5.0988-2.253 6.2845-2.9644 1.3043-1.5415-0.23715 1.7786-4.6245z" fill="#d0d2c5"/>
  <path d="m413.12 468.37 3.5573 8.5375s2.253 5.6916 3.7944 8.6561 1.4229 5.0988 2.253 4.0316 0.94861-3.6759-0.11858-6.4031-3.913-6.8774-3.7944-8.0632 0.23716-1.3043 1.3043-0.94861 2.1344 0.94861 3.3201 0.59288 4.3873-0.47431 4.2688-1.6601 0.71145-1.4229-0.94861-3.083-6.0474-4.8616-7.2332-5.2174-3.2016-1.1858-3.6759 0.23715-0.4743 2.8458-1.3043 2.8458-2.0386-1.0033-1.4229 0.47431z" fill="#9c9d95"/>
  <path d="m425.21 470.39c2.2216 0.1134 3.6983 2.4218 4.9802 4.0316s1.9639 3.5837 2.6087 5.3359 1.2668 2.8458 1.3043 5.0988-0.77788 5.8078-1.7786 8.0632-2.3229 3.8443-3.7944 5.3359-3.1187 2.9197-4.8616 3.5573-3.6638 1.7178-5.0988 0.35572-1.2288-5.337 0.11858-6.7588 3.5114 0.31498 4.9802-0.35573 2.6068-1.8455 3.3201-3.3201 0.64567-3.201 0.59288-5.0988-0.3316-4.4391-1.0672-6.166-1.7425-2.9663-2.9644-4.0316-4.0713-0.31092-4.1502-2.2529 3.5886-3.9078 5.8102-3.7944z" fill="#a6a799"/>
  <path d="m420.35 474.78s3.4964 2.2861 4.743 3.913c0.87143 1.1373 1.4024 2.5306 1.7786 3.913 0.39665 1.4572 0.57229 2.9988 0.47431 4.5059-0.12128 1.8655-0.23531 3.9209-1.3043 5.4545-0.73345 1.0522-3.2016 2.1344-3.2016 2.1344" fill="none" stroke="#717171"/>
  <path d="m335.42 541.24s1.8218-20.445 0.20242-22.064 87.043-29.352 87.043-29.352-0.8097 8.7043-1.2146 12.146-0.80971 8.7043-2.4291 8.9068-79.958 29.352-79.958 29.352-2.4291 1.6194-3.6437 1.0121z" fill="url(#d)"/>
  <path d="m426.16 500.03 7.7074-3.7944 6.996-2.9644 2.9644-2.8458 0.4743-6.7588-1.1858-8.7746-6.4031-6.0474-3.913-4.1502 0.59288-3.3201 0.71146 0.35573 1.6601 3.6759 4.3873 3.7944 4.2687 3.083 2.1344 6.4031 0.23715 6.166-1.0672 5.6916-3.4387 5.5731-3.7944 2.1344-5.9288 2.3715-5.6917 0.71145-0.71145-1.3043z" fill="#9c9e9b"/>
  <path d="m506.74 296.29c-1.9481-1.109 3.8851 0.13617 6.3501 0.13607s6.2184 0.0684 8.4366-0.18143 2.8379-0.39162 4.8533-0.99788 4.7573-1.6582 7.1212-2.8576 5.0052-2.6171 6.9852-4.3544 3.7614-4.0855 4.808-5.8512 1.6526-3.0659 1.769-4.3997-0.3374-2.1028-0.68037-3.2204-0.72103-2.4766-1.4061-3.4472-1.5564-1.5619-2.5401-2.2679-2.2372-1.4093-3.3565-1.905-2.1827-0.79293-3.3111-1.0886-2.9247 0.11169-3.4472-0.68037-0.24989-1.6383 0.45358-2.1318 1.9805 0.25679 2.9483 0.40823 1.8016 0.13848 2.8576 0.49894 2.2532 1.0517 3.3565 1.769 2.399 1.7914 3.2204 2.5401 1.1607 0.98331 1.769 1.8597 1.316 2.1672 1.6782 3.4472 0.57025 2.6034 0.40822 4.1276-0.72922 3.2222-1.5422 4.808-2.1253 3.1484-3.3565 4.5358-2.3594 2.579-3.9915 3.7647-3.6572 2.209-5.8058 3.1751-5.2065 1.9671-7.0759 2.5401-2.3036 0.76333-4.0822 1.0432-4.5127 0.4656-6.5769 0.40822-4.1199-0.38411-5.7605-0.68037-2.1341 0.11114-4.0822-0.99788z" fill="#bfae82"/>
  <path d="m485.56 274.11s7.0305 0.8618 9.2531 0.90716 7.7562 0.49894 9.2984 0.36286 8.6634 0.18144 12.746-0.3175 11.43-1.2247 13.834-2.0865 3.5379-1.5422 4.4451-2.8122 1.2039-4.2704 0.40823-5.443c-0.8618-1.27-1.7213-2.5664-5.3523-2.9936-3.8554-0.45358-4.2183-0.63501-6.5769-0.63501s-4.4905-0.0907-8.0738 0.27214c-3.4276 0.34708-5.9873 0.58965-9.2984 1.7236s-7.0759 3.5833-8.9809 4.4905-5.6244 3.2658-7.348 3.3565-5.3976-0.40823-6.3501-0.95252-0.49894 1.134-0.49894 1.134l2.4947 2.9936z" fill="#f7e674"/>
  <path d="m464.42 276.77-0.51317-2.9186s0.54524-1.1867 1.2829-2.0527 2.2772-2.2451 3.1111-2.7262 1.4112-0.89805 2.4696-1.1867 2.4376-0.54524 3.7526-0.54524 2.5017-0.0321 3.6242 0.32073 2.5338 0.57732 3.2394 0.89805 2.9186 1.7319 3.079 1.9885 1.8282 1.6357 2.7904 3.4318 1.9885 4.0733 2.3093 5.8373 1.4433 3.7205 1.3471 6.8636-1.8602 6.8957-2.6621 7.89-2.3734 3.079-3.3677 4.0733-3.1752 2.181-4.1054 2.5338-2.6941 1.2188-3.8488 1.2188-2.5017 0.41695-3.496-0.0641-1.5395-1.1226-1.4754-2.3413 2.0527-9.7823 2.0527-9.7823l-9.5898-13.439z" fill="#f8ec96"/>
  <path d="m464.03 274.33s1.4754-2.0527 3.079-2.8224 3.5922-1.0263 5.7731-0.76976 3.7205 0.38488 5.0034 1.4754 3.9263 4.2925 4.4261 6.3505c0.5452 2.2451 1.3791 7.6655 0.73767 10.905-0.5909 2.9841-1.6999 5.3883-3.6242 7.7296-1.8442 2.2437-3.5922 3.4318-4.8751 3.6242s-10.777-21.361-10.777-21.361l0.25659-5.1317z" fill="#e8c95f"/>
  <path d="m453.26 279.59c0.83893-0.2695 2.6766-2.478 4.2978-3.079s3.358-0.47978 5.0675-0.44902 3.6417 0.17917 5.1317 0.64146 2.6768 1.1312 3.7205 1.9244 1.8543 1.7691 2.5017 2.6941 1.0966 1.7723 1.4112 2.7583 0.33887 1.6773 0.44902 3.079 0.33592 3.8521 0.0641 5.3241-0.81081 2.3059-1.3471 3.3998-0.75114 2.2291-1.8602 3.1432-3.0422 1.3307-4.6827 1.6678-3.343 0.31874-5.0675 0.32073-3.1179 0.56381-5.26-0.32073-5.2223-3.1935-6.4788-5.709-0.73101-5.9522-0.64146-8.2107 0.23842-4.0666 0.8339-5.26 1.4496-1.7502 1.8602-1.9244-0.83888 0.2695 5e-5 0z" fill="#d8d9d4"/>
  <path d="m461.27 279.47c1.0501-1.2256 5.3816 1.2282 6.9278 2.3093s2.0035 2.2055 2.5017 3.1432 0.8089 1.1881 0.7056 2.2451-0.8029 2.1404-1.9244 3.528-2.8365 5.5123-5.0675 4.3619 1.2535-6.017 0.76975-8.339-2.1772-3.9198-2.8224-5.1317-2.1406-0.8912-1.0905-2.1168z" fill="#efe9ed"/>
  <path transform="translate(.54438,.32663)" d="m467.95 288.49c0 6.5542-4.4846 11.867-10.017 11.867s-10.017-5.3132-10.017-11.867 4.4846-11.867 10.017-11.867 10.017 5.3132 10.017 11.867z" fill="#969696"/>
  <path transform="matrix(2.0952 0 0 1.4912 -495.05 -138.22)" d="m456.08 286.7c0 1.7137-0.51182 3.103-1.1432 3.103s-1.1432-1.3892-1.1432-3.103 0.51182-3.1029 1.1432-3.1029 1.1432 1.3892 1.1432 3.1029z"/>
  <path d="m311.43 499.94s1.6036-5.1317 3.3997-5.1317 3.6563 0.76975 3.8488 1.6678 0.8339 2.4376 1.2829 4.2336 1.6678 3.528 2.4376 4.6827 2.63 1.5395 2.6941 2.7583 1.4754 2.8866 1.1546 4.2978 0 4.4902-1.1546 5.709-2.5658 2.3093-3.4639 1.8602 0.25658-4.4261-0.89805-5.7731-3.7205-4.4902-5.1958-4.8751-4.1054-9.4295-4.1054-9.4295z" fill="#f7f6f1"/>
  <path d="m384.62 560.62c-2.5017-0.76975-2.63 0.70561-3.2714-1.8602s-2.3734-5.9014-1.0905-6.9919 2.4376-2.8866 3.6563-0.96219 3.0149 1.6678 3.079 3.5922 0.76975 3.3997 0.32073 4.7468-1.7961 1.3471-2.6941 1.4754z" fill="#b2b3a5"/>
 </g>
</svg>
