<?xml version="1.0" encoding="UTF-8"?>
<svg width="177.93" height="165.46" viewBox="0 0 999 929" xmlns="http://www.w3.org/2000/svg">
 <path d="m57 809 631 63 208-789-626 23-213 703z" fill="#aaf9ff"/>
 <path d="m666 27 6 12 7 13 7 12 8 12 7 12 8 13 9 11 8 12 9 12 9 12 8 11 9 12 9 11 9 12 8 12 8 12 11 11 11 13 11 12 10 12 11 12 11 12 11 12 11 12 11 11 12 12 11 11 12 10 11 10 13 10 12 9 13 8 4 5 4 4 3 5 3 5 2 5 1 6-1 6-1 6-9 7-8 6-9 5-10 5-10 4-9 4-9 5-9 6-13 10-13 10-13 10-13 10-14 10-13 10-14 10-13 10-14 10-13 10-14 10-13 10-14 10-13 11-13 10-13 11-13 10-13 11-13 11-13 11-12 12-12 11-11 12-12 12-12 12-11 12-10 13-11 13-10 13-10 14-9 14-9 14-3 7-4 8-5 6-5 6-6 5-7 5-7 4-6 3-8 2-6 1-7 1-6-1-6-1-5-2-4-3-3-4-5-13-7-14-6-13-7-13-7-13-7-12-8-13-7-12-9-13-8-12-9-12-8-12-9-12-10-11-9-12-9-11-123-153-7-7-6-6-7-5-7-6-7-5-7-4-8-5-7-4-3-3-4-6-3-6-2-7-1-6 1-7 3-7 5-6 19-11 18-12 19-11 18-11 19-12 18-11 19-12 18-11 18-13 18-12 18-12 18-13 17-14 18-13 17-15 17-15 19-9 9-8 8-8 9-7 9-8 9-9 9-8 8-8 9-8 8-9 9-8 9-9 8-8 8-8 8-8 8-8 8-9 10-8 8-10 6-11 4-11 5-12 5-11 6-11 9-10 6-3h11l6 3 5 3 4 4 4 5 4 5z"/>
 <path d="m964 414-7-3-8-4-9-5-10-6-10-7-10-8-11-8-10-8-10-8-10-8-8-7-8-6-7-6-4-4-3-3-1-1-18-9-18-14-17-17-16-19-15-22-15-23-13-23-13-24-12-23-10-23-9-20-7-18-6-15-5-12-3-7-1-3 1-5-12-18-2-1-3-2-3-2-3-1-3-1h-2l-3 2-2 3-4 8-3 8-5 9-4 7-5 8-4 7-4 8-4 9-9 9-9 9-10 9-8 9-9 10-9 9-9 10-10 9-9 9-9 9-9 10-9 9-10 9-10 9-9 8-10 8-10 7-10 7-10 7-10 8-10 7-10 8-10 8-10 8-10 8-10 7-10 8-10 8-11 8-10 7-10 7-10 7-148 90-3 6-2 6v6l3 6 10 5 9 6 8 5 9 7 8 6 7 8 8 7 8 8 7 8 7 9 6 8 7 8 7 9 7 9 7 8 6 8 105 134 7 9 7 9 7 8 6 9 5 8 6 8 5 7 5 8 5 8 5 8 4 8 5 9 4 9 4 9 4 10 3 11 2 2 2 2 4 2 4 2 4 1 5 1h9l3-6 2-6 3-6 3-7 2-6 3-5 2-6 2-5 4-5 5-8 7-10 8-11 10-13 10-13 11-14 11-14 12-14 11-15 11-13 10-11 9-11 9-10 6-7 5-4 6-4 8-6 10-6 12-7 13-8 13-8 15-9 15-8 14-8 14-8 13-7 12-7 10-5 7-4 6-3 2-1h3l3-1 2-1 2-2 2-1 2-2 2-1 2-2 2-2 2-1h-3l-3-1h-6l-3-1h-8l-11-1-5-2-2-1 1-2 4-2 5-3 5-4 4-4 3-5 1-5v-14l1-4 3-5 5-6 3-3 4-1 5-2 6-1 7-1 7-1 7-1h55l5 1 8-5 8-4 9-5 8-4 9-5 8-5 9-4 8-6v-4l-1-3v-3l-2-3h-2l-2-1h-3l-2-1h-2l-2-1h-2z" fill="#007fff"/>
 <path d="m838 322 1 1 3 3 4 4 7 6 8 6 8 7 10 8 10 8 10 8 11 8 10 8 10 7 10 6 9 5 8 4 7 3h2l2 1h2l2 1h3l2 1h2l-2-4-4-4-4-3-4-3-5-2-4-3-5-2-4-2-14-14-14-14-14-13-15-14-14-14-14-15-15-14-13-15-14-14-14-15-13-16-13-15-12-16-12-16-11-16-11-16-6-10-6-10-8-10-8-9-7-9-7-10-6-10-5-11-20-33-1 5 1 3 3 7 5 12 6 15 7 18 9 20 10 23 12 23 13 24 13 23 15 23 15 22 16 19 17 17 18 14 18 9z" fill="#0038b7"/>
 <path d="m544 788 6-8 7-8 6-8 8-8 6-8 7-8 7-8 7-8 7-8 8-8 8-7 7-8 8-7 7-7 8-7 8-8 122-96 3-2 4-2 3-3 4-2 3-2 3-3 4-2 4-3-3 1h-3l-2 1-6 3-7 4-10 5-12 7-13 7-14 8-14 8-15 8-15 9-13 8-13 8-12 7-10 6-8 6-6 4-5 4-6 7-9 10-9 11-10 11-11 13-11 15-12 14-11 14-11 14-10 13-10 13-8 11-7 10-5 8-4 5-2 5-2 6-3 5-2 6-3 7-3 6-2 6-3 6h4l3-1 3-2 3-2 7-10 7-10 7-9 6-10 7-9 8-10 7-9 8-9z" fill="#0038b7"/>
 <path d="m816 477-5 6-3 5-1 4v14l-1 5-3 5-4 4-5 4-5 3-4 2-1 2 2 1 5 2 11 1h8l3 1h6l3 1h3l9-7 9-8 9-7 9-7 9-8 9-7 9-7 9-7 2-2 2-1 3-2 2-1 2-2 2-1 3-1 2-1-5-1h-55l-7 1-7 1-7 1-6 1-5 2-4 1-3 3z" fill="#0038b7"/>
 <path d="m567 369 1 1 1 2 3 3 3 2 5 2h5l6-2 7-4 7-5 5-1 3 2 3 4 1 4-1 5-1 4-2 2-3 2-4 3-5 3-4 3-4 3-1 2v2l3 1h61l13 1h13l14 1h14l15 1h14l15 1 16 1 14 1 12 1 12 1 10 1 9 2 7 1 7 1 5 1 4 1 4 1 3 1 1 1 1 1 1 1-1 2h-1l-3 1-6 1-7 1-10 1-12 2-14 1-14 2-16 2-16 1-16 2-16 2-16 1-15 2-14 1-13 1-11 1-19 1-15-1-13-3-10-4-8-3-6-3-5-2h-4l-4 5-3 7-1 8v10l-3 2-2 2-4 2-3 1-3 1h-3l-3-1-3-4-2-6-1-5v-2l-1 6-1 15-2 21-3 26-2 26-3 26-2 21-2 14-2 12-5 11-5 13-7 14-8 14-7 13-7 14-6 13-5 9h-4l-1-5-1-9v-21l1-8 1-5 3-11 8-26 9-37 12-41 10-41 11-35 6-26 3-9-36 46-33 8 9-20-62 17 79-46h-45l-16 1h-72l-17 1h-41l-9-1h-4l-4-2 1-4 4-5 6-6 8-6 8-6 9-3 7-2h4l6 1h15l9 1h10l11 1h10l10 1 9 1h9l8 1 7 1h9l82-12-65-24-5-39 3 1 6 2 8 3 11 5 10 5 10 7 8 8 5 8 4 8 4 6 4 3 4 2 3 1 3-1 3-2 1-3 1-22v-40l-1-39v-17l1-4 4-10 5-13 6-16 6-16 6-14 5-11 3-5 3-4 5-7 7-9 8-9 7-10 6-8 5-5 1-2-1 5-4 12-5 19-5 21-6 22-6 21-5 16-3 9-5 14-5 17-3 16-1 11v10l-2 13-1 12-1 5z" fill="#0038b7"/>
 <path d="m581 427a38 38 0 1 0 -76 0 38 38 0 1 0 76 0"/>
 <path d="m544 399h-6l-5 2-5 3-4 3-4 4-3 5-2 5v12l2 6 3 5 4 4 4 3 5 3 5 2h7l1-2 1-3 1-2 2-3 6-9 2-10-1-8-2-7-4-5-3-5-3-2-1-1z" fill="#ff1900"/>
 <path d="m573 427-1-6-2-5-3-5-3-4-4-3-5-3-6-2h-5l1 1 3 2 3 5 4 5 2 7 1 8-2 10-6 9-2 3-1 2-1 3-1 2h5l5-2 5-3 4-3 4-5 3-4 1-6 1-6z" fill="#a00000"/>
 <path d="m735 266v29l1 28 2 29 3 29 4 28 4 29 4 29 4 29 8 31 7 31 7 32 8 32 8 31 10 30 12 28 14 28 3 11v12l-2 11-8 10-5 1-6 1-5 1h-21l-5-1h-6l-5-1h-10l-6-1h-10l-5 1-16 2-17 3-16 3-16 2-17 2-16 3-17 2-16 2-17 3-16 2-17 3-17 2-17 3-17 2-16 3-16 3-17 3-17 3-17 4-16 4-16 4-16 4-16 4-16 5-16 6-16 6-15 5-16 7-15 6-15 8-14 7-15 9-7 5-6 4-8 4-7 2-8 2-8 1h-8l-7-1-7-2-7-2-6-2-6-4-4-3-3-5-2-5-1-5 2-29 1-29v-29l-2-29-2-30-4-29-4-29-5-29-35-194-3-8-3-9-3-8-4-8-4-8-4-8-4-7-4-7-1-5-1-6 1-7 1-6 3-7 4-6 5-5 8-2 10-1h11l11-1h11l11-1h11l11-1h11l10-1h11l11-1 11-1h11l10-1 11-1 12-1h10l11-1 11-1 11-1 11-2 11-1 10-1 11-2 12-1 10-2 11-2 11-1 12-2 10-3 11-2 11-3 21 1 11-3 12-2 11-3 12-3 12-3 11-3 12-3 12-3 11-3 11-3 12-3 11-4 11-3 11-3 11-4 11-3 7-1 6-2 6-2 6-3 5-3 5-4 4-3 6-4 4-4 5-4 5-4 5-3 5-4 5-3 6-3 7-2h7l5 2 5 4 3 5 3 5 2 6 1 6 1 6z"/>
 <path d="m298 611 2 11 3 10 2 10 2 10 2 10 2 11 2 10 1 10 9-2 8-1 8-2 9-2 8-1 7-2 8-1 8-2 8-1 7-2 7-1 7-2 7-1 6-1 7-1 6-1-16-67-6 1h-7l-7 1h-7l-7 1h-8l-7 1h-7l-8 1h-8l-7 1h-9l-8 1h-8l-8 1h-8z" fill="#eaff00"/>
 <path d="m241 615h-10l-9 1h-9l-9 1h-17l-8 1h-8l-8 1h-15l-7 1h-24l18 110v2l6-1 7-2 7-1 7-2 7-1 8-2 8-2 8-2 8-1 8-2 9-2 8-2 9-2 9-2 9-2 9-2-2-11-2-11-2-11-3-11-3-11-3-12-3-11-3-11z" fill="#eaff00"/>
 <path d="m583 583-7 1-7 1-7 2-6 1-7 1-7 1-7 1-7 1-8 1-7 1-7 1h-7l-7 1-8 1-7 1-8 1 13 64h9l5-1h6l6-1 7-1 7-1 8-1 8-1 9-1 8-1 9-2 10-1 10-2 9-1 10-2-3-7-2-6-2-5-1-3-1-5-3-10-4-12-4-16z" fill="#eaff00"/>
 <path d="m571 532-3-17-3-17-3-18-2-19-7 1-7 2-7 1-6 1-7 2-8 1-7 1-7 2-7 1-7 1-8 2-7 1-8 2-7 1-7 1-8 1 13 62 4-1h5l6-1 6-1h6l7-1 6-1 7-1h8l7-1 9-1 8-1 8-1h9l8-1 9-1z" fill="#eaff00"/>
 <path d="m391 489-7 1-9 1-7 1-8 1h-8l-7 1-8 1h-8l-7 1h-23l-7 1h-22l3 13 4 14 3 14 4 14h17l8-1h41l7-1h29l7-1h12l-14-60z" fill="#eaff00"/>
 <path d="m198 491h-5l-1-1h-3l-3 1h-21l-7 1h-16l-8 1h-39l3 15 3 14 2 15 3 15h112l-3-8-3-8-2-7-3-9-2-7-2-7-3-8-2-7z" fill="#eaff00"/>
 <path d="m391 489-13-55-8 1h-7l-8 1h-8l-7 1h-9l-8 1h-23l-8 1h-23l-8-1h-8l2 7 2 7 2 7 3 7 2 8 2 7 2 8 2 8h22l7-1h23l7-1h8l8-1 7-1h8l8-1 7-1 9-1 7-1z" fill="#e03838"/>
 <path d="m560 461-2-16-2-16-1-17-1-16-10 2-10 3-10 2-10 2-9 2-8 2-8 2-7 1-7 2-6 1-5 1-5 1-3 1h-3l-1 1h-3l-2 1-2 1h-2l-3 1-2 1h-2l-2 1 11 58 8-1 7-1 7-1 8-2 7-1 8-2 7-1 7-1 7-2 7-1 8-1 7-2 6-1 7-1 7-2 7-1z" fill="#e03838"/>
 <path d="m198 491-2-7-2-8-3-8-2-7-2-7-2-6-2-7-2-7h-9l-9-1-8-1-9-1h-8l-8-1-8-1-7-1-6-1-7-1-6-1-6-1h-5l-5-1-4-1h-4l4 8 4 9 3 9 3 8 2 9 3 9 2 10 2 9h39l8-1h16l7-1h21l3-1h3l1 1h5z" fill="#e03838"/>
 <path d="m469 599 8-1 7-1 8-1 7-1h7l7-1 7-1 8-1 7-1 7-1 7-1 7-1 6-1 7-2 7-1 7-1-3-11-3-13-3-13-3-14-9 1-8 1h-9l-8 1-8 1-9 1-7 1h-8l-7 1-6 1-7 1h-6l-6 1-6 1h-5l-4 1 11 55z" fill="#384cea"/>
 <path d="m405 549h-12l-7 1h-29l-7 1h-41l-8 1h-17l4 14 3 15 4 15 3 15h8l8-1h8l8-1h9l7-1h8l8-1h7l7-1h8l7-1h7l7-1h7l6-1-13-54z" fill="#384cea"/>
 <path d="m234 597-2-6-2-5-2-6-2-6-2-6-2-5-2-6-2-5h-112l1 2v4l1 3 9 59h24l7-1h15l8-1h8l8-1h17l9-1h9l9-1h10l-2-5-1-4-2-4-2-5z" fill="#384cea"/>
 <path d="m262 704-9 2-9 2-9 2-9 2-8 2-9 2-8 2-8 1-8 2-8 2-8 2-7 1-7 2-7 1-7 2-6 1 4 22 3 20 2 19 2 19 5-2 7-2 6-2 7-2 7-2 7-2 8-2 8-2 8-3 8-2 8-2 9-2 9-2 8-3 9-2 9-2-1-18-2-18-2-19-2-19z" fill="#e03838"/>
 <path d="m314 693 3 18 3 18 2 18 2 18 9-2 9-3 9-2 9-2 9-2 8-2 9-2 8-2 8-2 7-1 8-2 7-2 7-1 7-1 6-2 6-1-16-66-6 1-7 1-6 1-7 1-7 2-7 1-7 2-8 1-8 2-8 1-7 2-8 1-9 2-8 2-8 1-9 2z" fill="#e03838"/>
 <path d="m483 663h-1l14 68 5-1h12l6-1 8-1h7l8-1 9-1 9-1 9-1h10l10-1 10-1 10-2 11-1 11-1-4-10-4-10-4-10-4-9-3-9-3-8-3-8-3-7-10 2-9 1-10 2-10 1-9 2-8 1-9 1-8 1-8 1-7 1-7 1-6 1h-6l-5 1h-8z" fill="#e03838"/>
 <path d="m595 626 1 3 2 5 2 6 3 7 7-1 7-1 7-1 7-1 7-1 7-1 7-1 7-1-3-7-2-6-2-3v-1l-3-7-2-5-3-6-2-6-3-6-2-6-2-6-2-6-6 1-6 1-6 2-6 1-7 1-6 1-7 1-6 1 4 16 4 12 3 10 1 5z" fill="#6bf438"/>
 <path d="m571 532 6-1 6-1 6-1h7l6-1 6-1 6-1h6l-4-20-4-19-3-19-2-18-6 2-5 1-6 1-6 1-6 2-6 1-6 1-6 2 2 19 3 18 3 17 3 17z" fill="#6bf438"/>
 <path d="m607 450-2-17-1-18-1-16v-16l-6 2-6 2-6 1-6 2-6 1-7 2-6 1-6 2 1 16 1 17 2 16 2 16 6-2 6-1 6-1 6-2 6-1 6-1 5-1 6-2z" fill="#ba8c38"/>
 <path d="m583 583 6-1 7-1 6-1 7-1 6-1 6-2 6-1 6-1-4-12-3-12-3-12-3-12h-6l-6 1-6 1-6 1h-7l-6 1-6 1-6 1 3 14 3 13 3 13 3 11z" fill="#6ba5ea"/>
 <path d="m659 639-7 1-7 1-7 1-7 1-7 1-7 1-7 1-7 1 3 7 3 8 3 8 3 9 4 9 4 10 4 10 4 10 7-1h7l8-1 7-1 8-1h8l7-2h7l-4-11-5-10-4-10-4-10-4-9-4-9-3-7-3-7z" fill="#ba8c38"/>
 <path d="m468 599h-5l-5 1h-5l-6 1h-7l-7 1-7 1h-8l16 67 8-2 8-1 7-1 6-1 6-1h5l5-1h3l-13-64h-1z" fill="#60f4ff"/>
 <path d="m450 545h2l2-1h4l-13-62-6 1-7 1-7 1-7 1-7 1-6 1h-7l-7 1 14 60 8-1h13l6-1h6l4-1h4l4-1z" fill="#60f4ff"/>
 <path d="m445 482-11-58-7 1-7 2-7 1-7 2-7 1-7 1-7 1-7 1 13 55 7-1h7l6-1 7-1 7-1 7-1 7-1 6-1z" fill="#d3a5ff"/>
 <path d="m450 545-4 1h-4l-4 1h-6l-6 1h-13l-8 1 13 54h8l7-1 7-1h7l6-1h5l5-1h6l-11-55h-4l-2 1h-2z" fill="#60bcff"/>
 <path d="m434 670 16 66 6-1 6-1 5-1h4l5-1h3l2-1h15l-14-68h-3l-5 1h-5l-6 1-6 1-7 1-8 1-8 2z" fill="#d3a5ff"/>
 <path d="m298 611-7 1h-8l-7 1h-14l-7 1h-7l-7 1 3 11 3 11 3 12 3 11 3 11 2 11 2 11 2 11 6-1 7-2 6-1 7-1 7-2 6-1 7-1 6-2-1-10-2-10-2-11-2-10-2-10-2-10-3-10-2-11z" fill="#6bf438"/>
 <path d="m270 497h-10l-9-1h-9l-10-1-9-1h-8l-9-2-8-1 2 7 3 8 2 7 2 7 3 9 2 7 3 8 3 8h66l-4-14-3-14-4-14-3-13z" fill="#6bf438"/>
 <path d="m253 438h-9l-10-1h-18l-9-1h-8l-9-1-9-1 2 7 2 7 2 6 2 7 2 7 3 8 2 8 2 7 8 1 9 2h8l9 1 10 1h9l9 1h10l-2-8-2-8-2-7-2-8-3-7-2-7-2-7-2-7z" fill="#ba8c38"/>
 <path d="m284 552h-66l2 5 2 6 2 5 2 6 2 6 2 6 2 5 2 6 2 5 2 4 1 4 2 5 7-1h7l7-1h14l7-1h8l7-1-3-15-4-15-3-15-4-14z" fill="#6ba5ea"/>
 <path d="m262 704 2 19 2 19 2 18 1 18 7-2 7-2 7-1 7-2 7-2 6-1 7-2 7-1-2-18-2-18-3-18-3-18-6 2-7 1-6 1-7 2-7 1-6 1-7 2-6 1z" fill="#ba8c38"/>
 <path d="m722 593-3-7-3-9-2-10-3-10-8 2-9 2-9 2-9 2-10 2-11 2-11 3-11 2 2 6 2 6 2 6 3 6 2 6 3 6 2 5 3 7v1l2 3 2 6 3 7 11-1 10-2 10-1 10-1 10-1 10-1 10-1 9-1-2-4-2-5-2-5-3-5-2-4-2-5-2-4-2-5z" fill="#eaff00"/>
 <path d="m147 375-76 3-2 2-3 2-2 2-2 3-2 3-2 2v7l4 6 4 5 3 6 3 6h4l4 1 5 1h5l6 1 6 1 7 1 6 1 7 1 8 1 8 1h8l9 1 8 1 9 1h9l-3-14-4-14-3-13-3-11-3-1-2-1-3-1-3-1h-2l-3-1-2-1-3-1z" fill="#eaff00"/>
 <path d="m358 384h2l2 2 2 1 3 2-8-35h-4l-4 1-4 1h-3l-4 1-4 1-5 1h-4l4 4 5 4 5 4 4 4 4 3 4 3 3 2 2 1z" fill="#eaff00"/>
 <path d="m260 369h-2l-3 1-3 2-3 1-2 1-3 1-3 1-3 1-3 1 2 7 2 7 2 7 3 7 2 8 2 7 3 9 2 8h8l8 1h23l8-1h23l8-1h9l7-1h8l8-1h7l8-1-7-29-5-2-7-1-7-2-8-3-8-2-9-3-9-3-9-3-9-3-8-3-8-3-7-2-6-2-5-2-3-1-3-1z" fill="#eaff00"/>
 <path d="m720 286 2 2-1-30-2-1-1-2-1-2-1-2-7 6-7 8-9 8-8 9-8 9-8 7-6 5-3 3-2 1-3 1-6 2-6 3-8 3-9 3-11 4-10 3-1 13-1 13v31l7-2 8-3 8-2 8-2 7-2 7-3 8-2 7-2 7-3 7-2 6-2 7-3 6-2 6-3 5-2 6-2 3-25 2-19 2-12v-4z" fill="#eaff00"/>
 <path d="m553 343-6 1-6 2-6 1-6 2-5 1-6 1-5 1-5 1-5 1-6 1h-21l-5-1h-6l-5-1-5-1-5-1-5-1-5-1-5-2-5-1-5-1h-6l-2 1 17 78 2-1h2l2-1 3-1h2l2-1 2-1h3l1-1h3l3-1 5-1 5-1 6-1 7-2 7-1 8-2 8-2 9-2 10-2 10-2 10-3 10-2v-13l-1-14v-26z" fill="#eaff00"/>
 <path d="m707 424-4 1-5 2-4 2-6 1-5 2-6 1-6 2-6 1-7 2-6 2-7 1-7 2-8 2-7 2-8 1-8 2 2 18 3 19 4 19 4 20 6-1 6-1 5-1 6-1 6-1h5l6-1 6-1 5-1 6-1 5-1 5-1 5-1 5-1 5-1 5-1-1-21v-43l1-23z" fill="#eaff00"/>
 <path d="m732 760h7l7 2h6l7 1 6 1 6 1h6l5 1 5 1 5 1h4l5 1 4 1 4 1h4l3 1h2l2-2 1-2v-3l1-2-7-3-7-5-7-6-6-7-6-8-6-10-6-10-5-11-5 1h-5l-5 1h-5l-5 1h-4l-5 1h-5l-6 1h-5l-5 1-6 1h-5l-5 1h-5l-6 1 3 6 3 6 2 5 3 6 2 6 3 5 3 6 3 6h7l3 1h7l3 1z" fill="#eaff00"/>
 <path d="m596 764h7l6-1 5-1 6-1 6-1 6-1 7-1 7-1-2-5-2-5-2-4-1-5-2-5-2-5-2-5-2-5-11 1-11 1-10 2-10 1-10 1h-10l-9 1-9 1-9 1-8 1h-7l-8 1-6 1h-12l-5 1 9 43 7-1 7-1 7-1 7-1 7-1h6l6-1 6-1 6-1h6l5-1h5l5-1h11z" fill="#eaff00"/>
 <path d="m402 787h6l6-1h7l8-1 7-1 8-1 8-1 8-2-10-44-6 1-6 2-7 1-7 1-7 2-8 2-7 1-8 2-8 2-9 2-8 2-9 2-9 2-9 2-9 3-9 2 1 14 1 13 1 14v13l12-6 11-6 10-6 10-4 10-4 8-3 8-2 6-1z" fill="#eaff00"/>
 <path d="m269 854v-17l1-19v-20l-1-20-9 2-9 2-8 3-9 2-9 2-8 2-8 2-8 3-8 2-8 2-7 2-7 2-7 2-6 2-7 2-5 2v36l-2 20-3 21v4l3 4 4 5 4 5 6 4 5 3 6 1h6l1-1h1l2-2 3-1 4-2 4-3 5-3 5-4 5-3 6-4 6-4 7-4 6-5 8-4 7-5 8-5 8-5 8-6z" fill="#eaff00"/>
 <path d="m713 346-6 2-5 2-6 3-6 2-7 3-6 2-7 2-7 3-7 2-8 2-7 3-7 2-8 2-8 2-8 3-7 2v16l1 16 1 18 2 17 8-2 8-1 7-2 8-2 7-2 7-1 6-2 7-2 6-1 6-2 6-1 5-2 6-1 4-2 5-2 4-1 1-21 2-20 1-20 2-17z" fill="#e03838"/>
 <path d="m707 511-5 1-5 1-5 1-5 1-5 1-5 1-6 1-5 1-6 1-6 1h-5l-6 1-6 1-5 1-6 1-6 1 3 12 3 12 3 12 4 12 11-2 11-3 11-2 10-2 9-2 9-2 9-2 8-2-1-11-2-11-1-11v-13z" fill="#384cea"/>
 <path d="m739 630-9 1-10 1-10 1-10 1-10 1-10 1-10 2-11 1 3 7 3 7 4 9 4 9 4 10 4 10 5 10 4 11 6-1h5l5-1h5l6-1 5-1h5l6-1h5l5-1h4l5-1h5l5-1h5l5-1-4-8-4-9-5-9-4-9-4-10-4-9-4-9-4-10z" fill="#e03838"/>
 <path d="m605 326-6 2-7 2-6 3-6 2-7 2-7 2-7 2-6 2v26l1 14v13l6-2 6-1 7-2 6-1 6-2 6-1 6-2 6-2v-31l1-13 1-13z" fill="#6bf438"/>
 <path d="m712 758-3-6-3-6-3-5-2-6-3-6-2-5-3-6-3-6h-7l-7 2h-8l-8 1-7 1-8 1h-7l-7 1 2 5 2 5 2 5 2 5 1 5 2 4 2 5 2 5 6-1h38l11 1 11 1z" fill="#6bf438"/>
 <path d="m359 354 8 35 5 3 4 3 3 3 3 3 2 2-1 2-3 1h-5l-1-1h-3l7 29 7-1 7-1 7-1 7-1 7-2 7-1 7-2 7-1-17-78-7 1h-7l-7 1-7 1-7 1-8 2-7 1-8 1z" fill="#60f4ff"/>
 <path d="m505 774-9-43h-15l-2 1h-3l-5 1h-4l-5 1-6 1-6 1 10 44 6-1h5l6-1 6-1 5-1h6l5-1 6-1z" fill="#60f4ff"/>
 <path d="m168 382 3 11 3 13 4 14 3 14 9 1 9 1h8l9 1h18l10 1h9l-2-8-3-9-2-7-2-8-3-7-2-7-2-7-2-7-9 3-9 2-9 1-8 1h-8l-9-1-7-1-8-1z" fill="#6bf438"/>
 <path d="m269 854 7-4 7-5 8-4 7-5 8-4 7-5 7-4 7-4v-13l-1-14-1-13-1-14-7 1-7 2-6 1-7 2-7 2-7 1-7 2-7 2 1 20v20l-1 19v17z" fill="#6bf438"/>
 <path d="m712 758 2 4 2 4 2 4 2 4h1l6-1h83l6-1-3-1h-4l-4-1-4-1-5-1h-4l-5-1-5-1-5-1h-6l-6-1-6-1-7-1h-6l-7-2h-7l-3-1h-7l-3-1h-7z" fill="#bfd300"/>
 <path d="m596 764h-11l-5 1h-5l-5 1h-6l-6 1-6 1-6 1h-6l-7 1-7 1-7 1-7 1-7 1 7 33 64-11h5l5-1h5l5-1h5l5-1h5l5-1 6-1 5-1h5l5-1 5-1 5-1 6-1 5-1-3-6-3-7-3-7-3-8-7 1-7 1-6 1-6 1-6 1-5 1-6 1h-7z" fill="#bfd300"/>
 <path d="m402 787-6 1-8 2-8 3-10 4-10 4-10 6-11 6-12 6 1 8v15l-1 8 7-2 5-2 6-2 6-2 6-2 6-2 6-2 6-1 6-2 6-2 6-1 6-2 6-1 6-2 6-1 6-1 45-8-8-35-8 2-8 1-8 1-7 1-8 1h-7l-6 1h-6z" fill="#bfd300"/>
 <path d="m177 914 6-3 5-2 6-3 5-2 5-3 5-3 6-2 5-3 5-2 5-2 5-3 6-2 5-2 6-3 5-2 5-2 1-1h2l1-1h2v-14l1-5-8 6-8 5-8 5-7 5-8 4-6 5-7 4-6 4-6 4-5 3-5 4-5 3-4 3-4 2-3 1-2 2z" fill="#bfd300"/>
 <path d="m646 757 3 8 3 7 3 7 3 6 8-1 7-1 8-2 8-1 7-2 8-1 8-2 8-1-2-4-2-4-2-4-2-4-11-1-11-1h-38l-6 1z" fill="#3fc90c"/>
 <path d="m460 780 8 35 44-8-7-33-6 1-5 1h-6l-5 1-6 1-6 1h-5l-6 1z" fill="#3aced8"/>
 <path d="m327 819-7 4-7 4-7 5-8 4-7 5-8 4-7 5-7 4-1 5v14l7-3 7-3 8-3 7-3 8-2 7-4 8-2 7-3 1-8v-15l-1-8z" fill="#3fc90c"/>
 <path d="m777 629-3-10-3-11-3-10-3-10-3-10-3-11-3-10-2-11-4 1-4 1-5 2-5 1-6 1-5 2-7 1-7 2 3 10 2 10 3 9 3 7 2 5 2 4 2 5 2 4 3 5 2 5 2 5 2 4h10l5-1h23z" fill="#bfd300"/>
 <path d="m723 316a5 30 0 1 0 -10 0 5 30 0 1 0 10 0" fill="#bfd300"/>
 <path d="m733 417h-1l-1 1h-2l-3 1-3 1-5 1-5 2-6 1-1 23v43l1 21 5-1 6-1 5-2 4-1 5-1 4-2 4-1 4-2-4-20-3-22-2-20-2-21z" fill="#bfd300"/>
 <path d="m805 723-2-5-1-7-2-5-2-6-3 1h-6l-4 1h-6l-4 1h-3l5 11 6 10 6 10 6 8 6 7 7 6 7 5 7 3v-6l-1-5-1-5-3-5-3-5-3-5-3-4-3-5z" fill="#bfd300"/>
 <path d="m733 417v-5l-1-17-3-18-3-18-3-17-2 1-3 1-2 1-3 1-2 17-1 20-2 20-1 21 6-1 5-2 5-1 3-1 3-1h2l1-1h1z" fill="#9b0000"/>
 <path d="m744 500-4 2-4 1-4 2-5 1-4 1-5 2-6 1-5 1v13l1 11 2 11 1 11 7-2 7-1 5-2 6-1 5-1 5-2 4-1 4-1-3-11-2-11-3-12-2-12z" fill="#000082"/>
 <path d="m777 629h-23l-5 1h-10l4 10 4 9 4 9 4 10 4 9 5 9 4 9 4 8h3l4-1h6l4-1h6l3-1-3-8-2-9-3-9-3-9-2-9-3-9-3-9-2-9z" fill="#9b0000"/>
 <path d="m167 378a10 4 0 1 0 -20 0 10 4 0 1 0 20 0" fill="#bfd300"/>
 <path d="m327 359-8 2-8 1-9 1-8 1-8 2-9 1-8 1-9 1 3 1 3 1 5 2 6 2 7 2 8 3 8 3 9 3 9 3 9 3 9 3 8 2 8 3 7 2 7 1 5 2-4-16-3-2-2-1-2-2h-2l-2-1-3-2-4-3-4-3-4-4-5-4-5-4-4-4z" fill="#bfd300"/>
 <path d="m258 373a13 4 0 1 0 -26 0 13 4 0 1 0 26 0" fill="#bfd300"/>
 <path d="m702 247-7 6-7 5-8 4-7 5-8 4-8 5-7 5-8 6-4 1-4 1-4 1-4 2-4 1-5 1-4 1-5 2-1 5v7l-1 8-1 9 10-3 11-4 9-3 8-3 6-3 6-2 3-1 2-1 3-3 6-5 8-7 8-9 8-9 9-8 7-8 7-6-3-3-3-3h-3l-5 2z" fill="#bfd300"/>
 <path d="m443 343h-4l-2 1h-7l-3 1h-2l5 1 5 1 5 2 5 1 5 1 5 1 5 1 5 1h6l5 1h21l6-1 5-1 5-1 5-1 6-1 5-1 6-2 6-1 6-2 6-1v-29l-7 2-6 2-7 2-7 2-7 2-7 2-7 2-7 2-6 2-7 2-7 2-7 1-7 2-7 1-7 2-7 1z" fill="#bfd300"/>
 <path d="m553 314v29l6-2 7-2 7-2 7-2 6-2 6-3 7-2 6-2 1-9 1-8v-7l1-5-7 2-6 2-7 2-7 2-7 2-7 3-7 2-7 2z" fill="#3fc90c"/>
 <path d="m375 406h5l3-1 1-2-2-2-3-3-3-3-4-3-5-3 4 16h3l1 1z" fill="#3aced8"/>
 <path d="m234 378a34 7 0 1 0 -68 0 34 7 0 1 0 68 0" fill="#3fc90c"/>
 <path d="m802 247-11 26-10 27-8 27-8 28-8 29-7 28-7 28-7 28-5 32-5 32-5 31-5 33-4 32-2 31v31l2 31v6l-2 6-1 5-2 6-3 4-4 5-5 3-5 2-11-2-10-3-10-3-10-5-9-4-9-5-9-4-10-4-16-3-16-4-16-4-16-4-16-4-17-4-16-4-16-4-17-4-16-5-16-4-17-4-16-3-17-4-16-4-17-3-16-4-17-3-17-3-16-3-17-2-16-2-17-2-17-1-16-2h-17l-17-1-16 1h-17l-16 1-17 2-17 2-6 2-6 1-7 1h-13l-6-2-7-1-5-2-6-3-5-3-5-3-5-3-4-4-3-4-3-4-2-4-1-5v-8l1-4 13-25 11-27 11-27 9-28 9-28 8-28 7-29 6-29 41-191 1-19v-17l-2-18-3-17 1-5 2-5 3-6 4-6 5-5 6-4 6-2h9l10 4 10 3 10 4 10 4 11 3 10 4 10 4 10 3 11 4 10 3 10 4 11 3 10 4 10 3 11 3 10 4 10 3 11 3 10 4 11 3 10 3 11 2 11 3 10 3 11 3 11 2 11 3 11 2 10 2 11 2 11 2 12 2 19 9 11 2 12 1 12 2 11 2 12 1 12 2 12 2 12 1 11 1 12 2 12 1 12 1 11 1 12 1 11 1 11 1 7 2 7 1h6l7-1 6-1 6-1 5-1 6-2 6-2 6-2 6-2 6-1 6-1 7-1h6l7 1 6 2 4 4 3 5 1 6 1 6-1 6-1 7-1 5z"/>
 <path d="m787 228h3l-1-5-1-4-3-3h-6l-9 3-8 2-9 2-9 1-9 1-8 2-9 1-10 3-12-2-13-1-13-1-13-1-13-1-12-1-13-1-13-1-13-2-13-1-13-1-13-2-13-1-13-2-13-2-12-3-12-3-11-3-12-4-12-3-12-2-13-4-12-3-13-2-12-3-12-3-13-3-12-3-13-3-12-3-12-3-12-4-163-58-3 1-3 1-4 1-3 1-3 2-2 2-2 3-1 4 4 14 1 15 1 15-1 15 2 30v67l-1 36-3 34-4 31-7 28-10 23-7 15-7 14-6 14-5 14-4 13-4 13-4 13-3 13-4 11-4 12-5 10-5 11-6 9-6 9-8 7-9 7 1 4v3l1 3v3l1 1 1 1v1l3-1 3-1 4-1h5l4-1h11l6-1h6l7-1h16l9-1 9-1h19l10-1h96l13 1h14l13 1 14 1 14 1 14 1 15 1 14 1 15 1 15 2 15 1 29 5 29 6 28 7 27 9 27 9 24 10 24 11 22 10 19 10 19 10 15 9 13 8 11 6 8 5 5 4 1 1 6-5 3-6 1-6 1-7-1-7-1-7-1-7-1-6-8-38-3-39v-40l3-40 6-40 8-39 10-38 11-35 11-33 11-31 11-27 11-23 8-19 7-14 5-9 1-3z" fill="#3ff200"/>
 <path d="m772 291 19-57v-3l-1-1v-2h-3l-1 3-5 9-7 14-8 19-11 23-11 27-11 31-11 33-11 35-10 38-8 39-6 40-3 40v40l3 39 8 38 3-39 4-40 4-39 4-41 7-40 7-39 9-39 11-37 4-12 4-11 2-11 3-12 2-12 4-12 4-10 5-11z" fill="#11c400"/>
 <path d="m106 424 10-23 7-28 4-31 3-34 1-36v-67l-2-30-1 14-2 14-3 13-2 14-3 14-3 13-3 14-2 13-39 166-5 22-5 20-4 19-6 18-7 17-7 17-9 19-11 18v3l1 2 1 2v2l9-7 8-7 6-9 6-9 5-11 5-10 4-12 4-11 3-13 4-13 4-13 4-13 5-14 6-14 7-14 7-15z" fill="#11c400"/>
 <path d="m353 439h1v1l-2 2-4 3-9 6-14 9-20 12-12 7-10 7-10 8-9 7-7 7-7 7-7 7-5 6-5 6-5 6-3 4-3 4-2 4-1 2-1 2 115-59 34-42-14-16z" fill="#11c400"/>
 <path d="m436 438 1 1h2l4 2 5 2 6 2 6 3 8 3 8 4 7 4 8 5 7 4 8 6 6 6 6 6 4 6 4 6 5 12 4 10 3 8 3 8 2 6 4 7 5 8 6 9 4 8 1 4h-3l-5-1-6-3-5-3-4-3-2-1-1-3-5-7-6-11-8-12-9-12-8-11-7-8-5-4-5-3-6-5-8-8-7-10-8-10-7-10-7-8-5-7z" fill="#11c400"/>
 <path d="m378 401-1-2-4-5-5-7-7-11-8-12-9-14-10-15-11-16-11-15-10-15-11-15-10-13-9-12-8-9-7-8-5-4-8-4-8-2-6-2-5-1h-9l1 2 2 3 3 6 5 7 6 9 7 10 7 10 7 11 8 12 7 11 7 11 7 10 7 9 6 9 4 6 4 4 7 8 11 8 12 8 13 9 11 8 10 6 7 4 3 1z" fill="#11c400"/>
 <path d="m418 401 3-1 8-5 12-7 16-9 19-10 21-12 23-12 24-14 24-12 24-13 23-11 21-10 18-9 16-6 11-4h6l7 1 9 2 9 2 10 1 8 2 7 1 5 1h2l-1 1-1 1-2 1-4 2-4 3-5 4-6 3-8 4-9 4-9 5-11 5-12 5-14 5-15 6-16 6-18 6-4 1-6 2-6 2-7 3-8 3-8 3-8 3-9 3-7 3-8 3-7 3-7 2-6 3-5 1-3 2-2 1-3 1-3 1-5 3-6 3-6 2-7 4-8 3-7 3-7 4-7 3-6 3-6 2-5 3-4 1-2 1-1 1-7-12z" fill="#11c400"/>
 <path d="m459 354-13 55 1 1 2 2 4 4 5 3 5 5 4 4 4 4 3 2v3l-1 3-4 3-4 4-5 5-5 5-4 5-3 5-3 4-4 1h-10l-5 2-4 4-3 9-1 13-1 24-3 7-5-5-6-15-5-15-2-11-1-7v-2l1-6-1-12-2-14-8-11-6-4-6-3-5-2-6-2-6-1h-11l-5 1-4 1-4-1-4-1-2-3-3-4-2-5-3-7-3-8-1-7 2-3 4 1 6 2 8 4 7 4 7 4 6 3 5 1 6 1h6l5-2 5-3 2-5-1-7-4-10-6-11-5-12-4-12-4-12-4-11-3-10-2-7-2-6-1-5 1-8 3-8 4-7 5-5h5l6 4 6 11 5 14 4 12 2 9 1 8 2 6v5l1 5 2 4 2 3 5 2 5 2h6l5 1 5-1h5l-16 44 48-38z" fill="#11c400"/>
 <path d="m440 410a48 48 0 1 0 -96 0 48 48 0 1 0 96 0"/>
 <path d="m21 621-1-4v-5l-2-6-1-6-1 4 1 5 1 6 3 6z" fill="#11c400"/>
 <path d="m387 627-15-1-15-2-15-1-14-1-15-1-14-1-14-1-14-1-13-1h-14l-13-1h-96l-10 1h-19l-9 1-9 1h-16l-7 1h-6l-6 1h-11l-4 1h-5l-4 1-3 1-3 1 2 2 2 2 1 2 2 2 2 1 3 1 2 1 2 1 6-1h13l6-1h12l5-1h12l6-1h77l11 1h21l11 1h10l11 1 11 1 10 1 11 2 10 1 11 2 11 2 151 33 8 3 9 2 9 3 8 2 9 2 9 2 9 2 9 2 9 2 9 2 9 2 9 2 10 2 9 2 9 1 9 2 5 3 6 2 6 2 6 2 5 2 6 3 5 2 6 2 5 3 6 2 5 2 6 3 6 2 6 2 5 2 6 2-1-1-5-4-8-5-11-6-13-8-15-9-19-10-19-10-22-10-24-11-24-10-27-9-27-9-28-7-29-6-29-5z" fill="#11c400"/>
 <path d="m362 426 2 3 3 2 5 2 5 2 6 1 6 1 7-1 7-2 6-3 5-5 4-6 3-6 2-5 1-5 1-3v-4l-1-1-3-6-5-5-5-4-6-4-7-2-6-1-7 1-7 2-7 4-5 5-4 5-3 6-2 7-1 6 1 7 2 7h1v2h2z" fill="#fcff00"/>
 <path d="m406 443 6-4 4-4 4-5 4-5 2-6 1-6v-7l-2-6v1l-1 3-1 5-2 5-3 6-4 6-5 5-6 3-7 2-7 1-6-1-6-1-5-2-5-2-3-2-2-3h-2l4 6 4 5 6 4 6 2 6 2h13l7-2z" fill="#adaf00"/>
 <path d="m353 537-58 59 27 12 16-10 15-61z" fill="#11c400"/>
 <path d="m169 330 3 4 7 8 12 12 13 14 13 15 13 13 11 10 6 4 1 2-4 2-9 3-10 3-10 3-10 2-7 2h-2l-47 23-24-4 1-1 5-4 6-5 8-7 9-7 7-6 7-5 5-3 1-5-1-10-3-12-4-15-3-14-1-11 1-8 6-3z" fill="#11c400"/>
 <path d="m541 406 3-1 7-3 11-4 12-5 13-5 11-5 10-4 5-2 4 1 2 5v5l-1 2-2 1-7 2-9 3-11 3-12 3-13 2-12 2h-11z" fill="#11c400"/>
 <path d="m457 513 2 2 4 5 7 7 7 9 7 9 6 9 5 9 1 9-2 5-4 4-5 1h-5l-6-1-5-2-4-2-1-2-1-12-3-21-2-20-1-9z" fill="#11c400"/>
 <path d="m671 576-1-3-2-10-3-13-2-16-2-17 1-18 2-16 6-15 7-12 5-11 4-10 3-10 2-7 1-7v-4l-1-3h-1l-3 1-5 2-5 2-7 3-7 3-7 4-8 4-8 4-8 4-7 4-7 3-6 3-5 2-4 1h-3v5l7 15 11 21 14 24 14 25 12 21 9 15 4 6z" fill="#11c400"/>
 <path d="m633 552-2-5-6-11-9-17-11-19-12-20-13-18-14-13-12-6-11-1-10-1h-8l-7 1h-5l-3 1-3 1 73 99 3 3 7 8 11 12 12 14 13 14 12 12 10 10 6 5 3-1-1-8-4-11-4-13-5-13-5-12-3-8-2-3z" fill="#70f200"/>
 <path d="m629 263-2 1-4 2-6 4-8 4-10 6-11 6-11 7-13 6-12 7-13 6-12 6-11 6-10 4-9 5-7 2-4 1-7-1-7-2-7-4-6-3-5-2-5-1-5 1-3 4-4 3h-4l-3-3-4-6-3-7-3-8-2-9-1-8-1-10-3-9-4-9-5-9-4-8-4-6-3-5-2-3v-4l2-1h3l3 1 4 1 6 2 6 3 6 2 8 4 8 3 8 3 9 3 10 2 10 2 10 2 10 1 9 1 8-1h7l7-1 6-2 6-1 5-2 6-1 6-2 6-1 7-1h25l11 1 18 3 11 3 5 3 1 3-2 3-3 2-3 1h-1z" fill="#70f200"/>
 <path d="m225 348 1 2 2 6 5 8 6 10 8 12 9 10 10 9 11 7 5 3 2 3v3l-2 4-3 4-5 4-6 4-7 4-8 4-8 4-9 3-8 3-7 3-7 2-6 2-5 1-4 1-6 1-6 1-7 2-7 1-7 2-6 2-7 3-6 2-5 3-5 3-3 4-2 3v5l2 4 3 5h1l2-1 3-1 4-2 5-2 5-3 7-2 7-3 8-2 9-3 9-2 10-2 10-1 10-1h22l19-2 15-5 11-8 8-9 5-10 2-8 1-6 1-2-1-4-2-8-4-11-5-14-7-16-9-15-11-13-11-10-11-6-9-3-7 1-4 4-3 4-1 4-1 3v2z" fill="#70f200"/>
 <path d="m179 137 1 1 4 4 4 5 7 8 8 8 8 10 9 10 10 11 10 10 9 11 9 10 7 9 7 8 6 6 3 4 2 3 3 3 3 4 4 4 4 5 4 4 4 2h3l2-3v-6l-3-10-4-11-5-14-6-13-6-12-5-10-4-6-3-3-3-4-5-4-7-4-7-5-7-5-9-5-8-5-8-5-8-4-8-4-7-4-6-2-6-2h-3l-3 1z" fill="#70f200"/>
</svg>
