<?xml version="1.0" encoding="UTF-8"?>
<svg width="82.78" height="85.127" version="1.1" viewBox="0 0 82.780272 85.126999" xml:space="preserve" xmlns="http://www.w3.org/2000/svg" xmlns:xlink="http://www.w3.org/1999/xlink"><defs><radialGradient id="h" cx="59.35" cy="-28.575" r="46.578" gradientTransform="matrix(1 0 0 -1 0 -57.15)" gradientUnits="userSpaceOnUse"><stop stop-color="#CCEFE7" stop-opacity="0" offset="0"/><stop stop-color="#C7EDDC" stop-opacity=".0431" offset=".0627"/><stop stop-color="#BAE9C1" stop-opacity=".1686" offset=".1686"/><stop stop-color="#A5E193" stop-opacity=".3725" offset=".3059"/><stop stop-color="#88D755" stop-opacity=".651" offset=".4706"/><stop stop-color="#66C912" offset=".651"/></radialGradient></defs>
<symbol id="e" transform="translate(-47.588 -52.125)" viewBox="0 -7.73 20.75 7.73">
		<path d="m18.5-4.3-2.7-1.1c-1.767-0.6-3.7-1.117-5.8-1.55-2.033-0.4-3.617-0.633-4.75-0.7-0.867-0.133-1.4-0.1-1.6 0.1l-1.65 0.95-2 1.95 7.8 4.65 1.65-0.45c0.2-0.033 0.65-0.1 1.35-0.2 0.567-0.1 1-0.2 1.3-0.3s0.7-0.35 1.2-0.75c0.467-0.4 0.85-0.65 1.15-0.75 0.7-0.2 1.816-0.216 3.35-0.05 0.6-0.033 1.317-0.167 2.15-0.4 0.233 0 0.5-0.05 0.8-0.15-0.367-0.3-1.117-0.717-2.25-1.25z" fill="#462212" fill-rule="evenodd"/>
</symbol>
<symbol transform="translate(-47.588 -52.125)" viewBox="0 -57.15 118.7 57.15">
		<path d="m95.5-30.35c10.733 7.7 18.3 17.717 22.7 30.05l0.5 0.3c-0.567-15.9-6.6-29.4-18.1-40.5s-25.267-16.65-41.3-16.65c-15.7 0-29.267 5.367-40.7 16.1-11.4 10.7-17.6 23.817-18.6 39.35 4.6-12 12.183-21.7 22.75-29.1 10.833-7.567 22.867-11.35 36.1-11.35 13.5 0 25.717 3.933 36.65 11.8z" fill="url(#h)" fill-rule="evenodd"/>
</symbol>
<symbol transform="translate(-47.588 -52.125)" viewBox="0 -55.8 110 55.8">
			<linearGradient id="f" x1="16165" x2="16221" y1="-53.855" y2="-53.855" gradientTransform="matrix(1.7929e-5 1 -1 -.001 .8545 -16221)" gradientUnits="userSpaceOnUse">
			<stop stop-color="#E2B8B2" offset=".1294"/>
			<stop stop-color="#fff" offset=".9255"/>
		</linearGradient>
		<path d="m96-18c4.467-4.9 7.967-10.367 10.5-16.4 2.333-5.633 3.5-10.934 3.5-15.9 0-1.767-0.167-3.25-0.5-4.45-1.833 11.067-7.217 20.9-16.15 29.5-10.567 10.133-23.35 15.2-38.35 15.2-15.233 0-28.067-5.067-38.5-15.2-9-8.733-14.35-18.917-16.05-30.55-0.3 1.2-0.45 2.617-0.45 4.25 0 5.5 1.167 11.167 3.5 17 2.467 6.167 5.95 11.733 10.45 16.7 10.7 11.9 24.383 17.85 41.05 17.85 16.467 0 30.133-6 41-18z" fill="url(#f)" fill-rule="evenodd"/>
</symbol>
<symbol transform="translate(-47.588 -52.125)" viewBox="0 -61.344 110 61.344">
		<path d="m106.5-34.4c2.333-5.633 3.5-10.934 3.5-15.9 0-4.967-1.433-8.083-4.3-9.35-2.367-1.067-6.3-1.067-11.8 0-7.267 1.767-13.1 3.117-17.5 4.05-8 1.7-15.133 2.55-21.4 2.55-6.333 0-13.467-0.917-21.4-2.75-8.333-2.2-14.167-3.684-17.5-4.45-5.533-1.267-9.467-1.433-11.8-0.5-2.867 1.2-4.3 4.267-4.3 9.2 0 5.5 1.167 11.167 3.5 17 2.467 6.167 5.95 11.733 10.45 16.7 10.7 11.9 24.383 17.85 41.05 17.85 16.467 0 30.133-6 41-18 4.467-4.9 7.967-10.367 10.5-16.4z" fill="#fff" fill-rule="evenodd"/>
</symbol>
<g transform="translate(-47.588 -52.125)">
		<path d="m116.45 54.1 0.899-0.45h0.051l0.149-0.05 0.05-0.05 0.9-0.25 2.1-0.2 1.95 0.3 1.05 0.3 0.601 0.25c0.1 0.033 0.333 0.133 0.7 0.3l1.1 0.6 0.05 0.05 0.15 0.1 0.55 0.45 0.1 0.05v0.05h0.051l0.5 0.5 0.05 0.1 0.5 0.55 0.05 0.1 0.4 0.5c0.566 0.867 1.017 1.783 1.35 2.75v0.05l0.05 0.101 0.351 1.3v0.1l0.05 0.05c0.133 0.8-0.05 1.6-0.55 2.4l0.05-0.051-1 2.05c-1.267 2.5-2.634 4.783-4.101 6.85l-1.649 2.3-0.05 0.05c-1.601 2.066-3.117 3.783-4.551 5.15l-0.85 0.85c-2.934 3.066-4.95 5.434-6.05 7.1h-0.05l-1.25 2 5.6 1.95c1.066 0.4 1.717 0.684 1.95 0.851 0.899 0.5 1.434 1.199 1.6 2.1l0.351 0.5c0.633 0.934 0.75 2.05 0.35 3.35-0.434 1.334-1.417 2.983-2.95 4.95l-1.85 2.351c-1.934 2.5-3.617 4.516-5.05 6.05l2.05 0.399c0.399 0.066 0.783 0.2 1.149 0.4 2.233 1.233 4.067 2.166 5.5 2.8l0.75 0.351c1.067 0.399 1.934 0.833 2.601 1.3l0.2 0.1 0.05 0.05c0.267 0.167 0.633 0.483 1.1 0.95l0.15 0.15 0.75 0.95 0.05 0.1 0.1 0.1 0.2 0.25 0.05 0.101 0.551 0.649 0.5 0.801 0.3 0.649c0.533 1.267 0.417 2.533-0.351 3.8-0.433 0.733-1.25 1.617-2.449 2.65l-0.7 0.65-0.2 0.149-0.9 0.8-2 1.45-0.1 0.101-2.15 1.05-1.8 0.55h-0.05l-0.55 0.15c-2.033 0.466-4.783 0.699-8.25 0.699l-3.7 0.051-0.25 0.05-2.1-0.05c-1.967-0.034-3.467 0.016-4.5 0.149h-0.1l-0.1 0.05-7.4 2.101c-0.899 0.2-1.767 0.3-2.6 0.3l-2.55-0.25c-1.667-0.2-2.933-0.4-3.8-0.6l-2.15-0.5h-0.15l-10-1.75h-0.15c-2.2-0.268-4.433-0.601-6.7-1l-2.2-0.4h-0.15l-1-0.15c-1.8-0.1-3.383-0.517-4.75-1.25l-0.45-0.199c-1.3-0.7-2.216-1.301-2.75-1.801l-0.4-0.399-0.1-0.15c-1-1.267-1.2-2.899-0.6-4.899l0.4-1.101c0.233-1 0.783-1.934 1.65-2.8 0.2-0.267 0.483-0.483 0.85-0.65l3.7-1.85 0.15-0.05 1.35-0.65 0.15-0.1 2.65-1.4 1.2-0.8c1.667-1.2 3.067-2.033 4.2-2.5 0.9-0.334 1.883-0.483 2.95-0.45 0.434-0.134 1.284-0.533 2.55-1.2l1.9-1h0.05l0.3-0.199c0.8-0.4 1.717-0.601 2.75-0.601l0.25-2.149c0.367-2.601 1.883-6.784 4.55-12.551l1.85-4.5c0.434-0.967 0.9-1.833 1.4-2.6l0.8-0.85 0.95-0.6 0.9-0.3 0.101-0.05h0.149l0.7-0.101h0.85l0.2 0.05h0.55l0.2 0.05 2.75 0.35c1.334 0.233 2.217 0.35 2.65 0.35l0.1 0.05 0.2-0.05c1-1.2 2.217-1.983 3.65-2.35l1.45-2.3 0.051-0.1 1.55-2.3 0.05-0.05 0.45-0.65 0.05-0.1 1.25-1.75 0.05-0.1 0.449-0.55 0.05-0.1 2.4-3.5c0.434-0.866 1.033-1.917 1.8-3.15 1.634-2.633 3.483-5.85 5.55-9.65l1.2-2.3v-0.1l0.1-0.149 0.101-0.2 0.2-0.25c0.3-0.5 0.733-0.967 1.3-1.4l0.2-0.1 0.549-0.401z" fill="#ecf8bd" fill-rule="evenodd"/>
			<linearGradient id="g" x1="-136.44" x2="-52.37" y1="88.978" y2="88.978" gradientTransform="matrix(1.1887e-5 -1 1 -.001 .00017709 .00044493)" gradientUnits="userSpaceOnUse">
			<stop stop-color="#6B9724" offset=".0745"/>
			<stop stop-color="#82B139" offset=".2588"/>
			<stop stop-color="#9DCF52" offset=".4471"/>
			<stop stop-color="#DAE772" offset=".9647"/>
		</linearGradient>
		<path d="m116.45 53.2 0.899-0.4 0.051-0.05 0.149-0.05h0.05l1.301-0.351 1.699-0.1 1.2 0.1 0.75 0.15 2.351 0.85 0.85 0.45 0.25 0.201h0.05l0.15 0.15 0.25 0.15 0.3 0.3 0.1 0.05 0.051 0.05 0.149 0.1 0.9 1 0.05 0.1 0.4 0.5c0.533 0.833 0.983 1.767 1.35 2.8l0.4 1.399v0.101l0.05 0.1c0.128 0.675-0.038 1.441-0.5 2.3l-0.05 0.15-0.95 1.95c-1.3 2.466-2.667 4.75-4.101 6.85l-1.649 2.25-0.05 0.1c-1.5 1.933-3.017 3.633-4.551 5.1l-0.85 0.9c-3 3.167-5.017 5.517-6.05 7.05l-0.05 0.05-1.25 1.95 0.5 0.2v0.05l1.6 0.649c0.467 0.066 0.8 0.15 1 0.25l1.4 0.4 0.3 0.15 0.8 0.3c0.833 0.267 1.483 0.533 1.95 0.8 0.899 0.5 1.434 1.217 1.6 2.15l0.351 0.449c0.633 0.967 0.75 2.101 0.35 3.4-0.434 1.3-1.417 2.95-2.95 4.95l-1.85 2.35c-1.8 2.333-3.483 4.333-5.05 6l1.85 0.4h0.2c0.5 0.133 0.883 0.283 1.149 0.45 2.301 1.266 4.134 2.183 5.5 2.75l0.75 0.35c1.233 0.533 2.101 0.967 2.601 1.3l0.2 0.15 0.05 0.05c0.366 0.233 0.733 0.533 1.1 0.9l0.15 0.149 0.75 1 0.05 0.05 0.3 0.4 0.05 0.05 1.05 1.453 0.3 0.65c0.5 1.3 0.383 2.566-0.351 3.8-0.466 0.8-1.283 1.7-2.449 2.7l-0.101 0.1-0.6 0.5-0.2 0.2-0.75 0.6-0.15 0.15-2 1.5-1.05 0.6-0.2 0.05-1 0.45-0.199 0.05-0.15 0.1-0.3 0.05-0.5 0.2-0.65 0.149-0.05 0.051-0.55 0.1c-2.033 0.467-4.783 0.7-8.25 0.7l-6.05 0.1c-2.2-0.066-3.7-0.017-4.5 0.15h-0.2l-0.9 0.25h-0.2l-4.199 1.149c-0.934 0.4-1.634 0.65-2.101 0.75-1 0.167-1.866 0.25-2.6 0.25-0.767 0-1.367-0.033-1.8-0.1l-0.75-0.1c-1.333-0.167-2.6-0.384-3.8-0.65l-2.15-0.45-0.15-0.05-8.25-1.55-1.75-0.15-0.15-0.05c-2.2-0.267-4.433-0.6-6.7-1l-2.2-0.35-0.15-0.051-1-0.1c-1.8-0.134-3.383-0.55-4.75-1.25l-0.45-0.25c-1.2-0.566-2.117-1.15-2.75-1.75l-0.5-0.55c-1-1.334-1.2-2.967-0.6-4.9l0.4-1.1c0.233-1.034 0.783-1.983 1.65-2.851l0.85-0.649 3.7-1.8 0.15-0.101 1.35-0.649 0.15-0.051 3.85-2.199c1.767-1.301 3.167-2.134 4.2-2.5 0.967-0.367 1.95-0.534 2.95-0.5 0.333-0.067 1.184-0.467 2.55-1.2l1.9-1h0.05l0.3-0.15c0.8-0.399 1.717-0.6 2.75-0.6l0.25-2.2c0.367-2.533 1.883-6.717 4.55-12.55l1.85-4.45c0.5-1.134 0.967-2 1.4-2.6l0.1-0.15 0.7-0.7 0.6-0.45 0.35-0.149c0.2-0.134 0.5-0.25 0.9-0.351h0.101l0.149-0.051 1.75-0.049 0.55 0.05h0.2l5.4 0.75h0.3c0.934-1.2 2.15-1.983 3.65-2.35l1.45-2.35 0.051-0.05 1.55-2.35 0.05-0.05 0.449-0.65 0.05-0.05 1.25-1.75 0.05-0.101 0.45-0.6 0.05-0.05 2.4-3.55c0.333-0.7 0.934-1.733 1.8-3.1 1.8-2.967 3.65-6.184 5.55-9.65l1.2-2.35v-0.05l0.1-0.2 0.301-0.45c0.366-0.533 0.8-1 1.3-1.399l0.2-0.101 0.549-0.399z" fill="url(#g)" fill-rule="evenodd"/>
		<path d="m116.45 53.2-0.55 0.4-0.2 0.101c-0.5 0.399-0.934 0.866-1.3 1.399l-0.301 0.45-0.1 0.2v0.05l-1.2 2.35c-1.899 3.466-3.75 6.683-5.55 9.65-0.866 1.367-1.467 2.4-1.8 3.1l-2.4 3.55-0.049 0.05-0.45 0.6-0.05 0.1-1.25 1.75-0.05 0.05-0.45 0.65-0.05 0.05-1.55 2.35-0.05 0.05-1.45 2.35c-1.501 0.366-2.718 1.149-3.651 2.35h-0.3l-5.4-0.75h-0.2l-0.55-0.05-1.75 0.05-0.15 0.05h-0.1c-0.399 0.101-0.7 0.217-0.9 0.351l-0.35 0.149-0.6 0.45-0.7 0.7-0.1 0.15c-0.433 0.6-0.9 1.466-1.4 2.6l-1.85 4.45c-2.667 5.833-4.183 10.017-4.55 12.55l-0.25 2.2c-1.033 0-1.95 0.2-2.75 0.6l-0.3 0.15h-0.05l-1.9 1c-1.367 0.733-2.217 1.133-2.55 1.2-1-0.034-1.983 0.133-2.95 0.5-1.033 0.366-2.434 1.199-4.2 2.5l-3.85 2.199-0.15 0.051-1.35 0.649-0.15 0.101-3.7 1.8-0.85 0.65c-0.867 0.867-1.417 1.816-1.65 2.851l-0.4 1.1c-0.6 1.934-0.4 3.566 0.6 4.9l0.5 0.55c0.633 0.6 1.55 1.184 2.75 1.75l0.45 0.25c1.367 0.7 2.95 1.116 4.75 1.25l1 0.1 0.15 0.051 2.2 0.35c2.267 0.4 4.5 0.733 6.7 1l0.15 0.05 1.75 0.15 8.25 1.548 0.15 0.05 2.15 0.45c1.2 0.267 2.467 0.483 3.8 0.65l0.75 0.1c0.434 0.066 1.034 0.1 1.8 0.1 0.733 0 1.6-0.083 2.6-0.25 0.467-0.1 1.167-0.35 2.101-0.75l4.199-1.149h0.2l0.9-0.25h0.2c0.8-0.167 2.3-0.217 4.5-0.15l6.05-0.1c3.467 0 6.217-0.233 8.25-0.7l0.55-0.1 0.05-0.051 0.65-0.149 0.5-0.2 0.3-0.05 0.15-0.101 0.199-0.05 1-0.45 0.2-0.05 1.05-0.6 2-1.5 0.15-0.15 0.75-0.6 0.2-0.2 0.6-0.5 0.101-0.1c1.166-1 1.983-1.9 2.449-2.7 0.733-1.233 0.851-2.5 0.351-3.8l-0.3-0.65-1.051-1.45-0.05-0.05-0.3-0.4-0.05-0.05-0.75-1-0.15-0.149c-0.366-0.367-0.733-0.667-1.1-0.9l-0.05-0.05-0.2-0.15c-0.5-0.333-1.367-0.767-2.601-1.3l-0.75-0.35c-1.366-0.567-3.199-1.484-5.5-2.75-0.267-0.167-0.649-0.317-1.149-0.45h-0.2l-1.85-0.4c1.566-1.667 3.25-3.667 5.05-6l1.85-2.35c1.533-2 2.517-3.65 2.95-4.95 0.4-1.3 0.283-2.434-0.35-3.4l-0.35-0.45c-0.166-0.934-0.7-1.65-1.6-2.15-0.467-0.267-1.117-0.533-1.95-0.8l-0.8-0.3-0.3-0.15-1.4-0.4c-0.2-0.1-0.533-0.184-1-0.25l-1.6-0.649v-0.05l-0.5-0.2 1.25-1.95 0.05-0.05c1.033-1.534 3.05-3.884 6.05-7.05l0.85-0.9c1.534-1.467 3.051-3.167 4.551-5.1l0.05-0.1 1.649-2.25c1.434-2.1 2.801-4.383 4.101-6.85l0.95-1.95 0.05-0.15c0.462-0.858 0.628-1.625 0.5-2.3l-0.05-0.1v-0.101l-0.4-1.399c-0.366-1.034-0.816-1.967-1.35-2.8l-0.4-0.5-0.05-0.1-0.9-1-0.149-0.1-0.051-0.05-0.1-0.05-0.3-0.3-0.25-0.15-0.15-0.151h-0.05l-0.25-0.2-0.85-0.45-2.351-0.85-0.75-0.15-1.2-0.1-1.699 0.1-1.3 0.35h-0.05l-0.149 0.05-0.051 0.05-0.9 0.4z" fill="none" stroke="#ecf8bd" stroke-width=".25"/>
		<path d="m118.3 55.35 0.5-0.2 0.05-0.05 0.5-0.149h0.2l0.65-0.101h0.149l1.551 0.25 0.699 0.25 0.2 0.05 1.2 0.6v0.05l0.05 0.05 0.2 0.101 0.25 0.25 0.15 0.1 0.6 0.7 0.05 0.05 0.25 0.4h0.05c0.4 0.666 0.768 1.416 1.101 2.25v0.049l0.3 1.1 0.05 0.05v0.05c0.033 0.2-0.066 0.483-0.3 0.85l-0.05 0.15-0.05 0.05-0.9 1.9c-1.2 2.333-2.517 4.534-3.95 6.6l-1.35 1.9-0.25 0.3c-1.3 1.7-2.733 3.316-4.3 4.85l-0.9 0.95c-3.133 3.3-5.267 5.783-6.4 7.45v0.05c-0.899 1.333-1.8 2.783-2.699 4.35l0.6 0.25v0.05l1.25 0.5 0.15 0.1 0.899 0.35 0.4 0.2 2.25 0.9c0.167-0.067 0.3-0.067 0.399 0l2.7 0.95c0.601 0.166 1.033 0.333 1.3 0.5 0.268 0.166 0.351 0.383 0.25 0.649-0.033 0.066 0 0.2 0.101 0.4l0.05 0.05 0.3 0.25 0.05 0.05 0.301 0.351c0.6 0.866-0.25 2.732-2.551 5.6l-1.899 2.4c-3 3.933-5.75 6.982-8.25 9.149l0.5 0.4 0.25 0.149 0.149 0.051 1.101 0.149c0.2-0.033 0.483-0.05 0.85-0.05l2.4 0.1 0.7 0.15h0.05l0.3 0.1 0.65 0.101 0.1 0.05h0.15l0.199 0.1c3.067 1.601 4.967 2.566 5.7 2.9l0.9 0.4c0.899 0.366 1.6 0.699 2.1 1v0.05l0.75 0.6 0.05 0.05 0.601 0.75 0.149 0.25 0.801 1 0.35 0.551 0.15 0.3c0.267 0.6 0.199 1.233-0.2 1.899-0.267 0.434-0.867 1.084-1.8 1.95l-0.15 0.1-1.55 1.35-0.15 0.15-0.7 0.55-0.9 0.65h-0.05l-0.95 0.5-0.05 0.051-0.7 0.3h-0.05l-0.1 0.049-1.25 0.35v0.051l-0.399 0.05h-0.05v0.05c-1.433 0.333-3.899 0.533-7.399 0.6l-3.9 0.051-0.05 0.05h-0.15l-0.149-0.05-0.2 0.05-3.35-0.1c-1.267 0-2.4 0.084-3.4 0.25h-0.05l-0.601 0.101-3.899 1.05-3.25 1.05c-0.8 0.134-1.384 0.2-1.75 0.2l-2.05-0.2c-1.466-0.167-2.617-0.366-3.45-0.6l-2.25-0.45h-0.05l-4.35-0.95-0.35-0.1-5.7-0.75-0.15-0.05c-1.434-0.134-3.6-0.45-6.5-0.95l-2.25-0.4-0.15-0.05-1.35-0.15c-1.267-0.1-2.367-0.383-3.3-0.85l-0.55-0.25c-1-0.533-1.65-0.95-1.95-1.25l-0.15-0.15c-0.566-0.633-0.65-1.6-0.25-2.899l0.15-0.5c0.1-0.134 0.15-0.284 0.15-0.45l0.1-0.25c0.134-0.6 0.467-1.184 1-1.75l0.15-0.1 1.5-0.801h0.1l1.9-0.949 0.15-0.051 1.45-0.699 0.15-0.051 4.25-2.449c1.533-1.101 2.7-1.801 3.5-2.101 0.533-0.233 1.15-0.316 1.85-0.25h0.15l0.1-0.05c0.8-0.134 2.067-0.667 3.8-1.6l1.75-0.9 0.15-0.05 0.25-0.15c0.434-0.233 0.917-0.3 1.45-0.2 1.267-0.333 2.083-0.566 2.45-0.699h0.2c0.1-1.434 0.233-2.7 0.4-3.801 0.333-2.166 1.783-6.149 4.35-11.949l1.1-2.551 0.1-0.3 0.05-0.05 0.65-1.6c0.434-1 0.816-1.717 1.15-2.15l0.05-0.1 0.25-0.25 0.2-0.15h0.05l0.25-0.1 0.3-0.051h0.55l0.45 0.051h0.1l2.65 0.399c1.8 0.233 2.8 0.351 3 0.351 0.8 0.066 1.667-0.034 2.6-0.301 0.233-0.5 0.567-0.949 1-1.35 0.634-0.566 1.351-0.85 2.15-0.85l0.45 0.05 3.1-4.9 0.101-0.2 0.55-0.8 0.05-0.1h0.05l1.65-2.4 0.1-0.1 0.4-0.55 0.05-0.05 0.1-0.149 0.45-0.55 3.8-6.2c2.301-3.733 4.167-6.983 5.601-9.75l1.3-2.5 0.05-0.05v-0.1l0.15-0.15v-0.05l0.7-0.7 0.1-0.05 0.298-0.25z" fill="#22480e" fill-rule="evenodd"/>
			<g fill-rule="evenodd">
				<path d="m94 108.7c-0.033-0.5-0.15-0.934-0.35-1.3 0.833 0.266 1.833 0.732 3 1.399 1.3 0.767 2.217 1.25 2.75 1.45 0.199 0.566 0.3 0.9 0.3 1 0.2 1.467-0.066 2.733-0.8 3.8-0.301 0.434-0.567 0.7-0.801 0.8-0.232 0.066-0.616 0.066-1.149 0-0.566-0.066-1.066-0.316-1.5-0.75-0.3-0.267-0.7-0.767-1.2-1.5-0.633-0.9-0.866-1.7-0.7-2.4 0.3-1.37 0.45-2.2 0.45-2.5z" fill="#6c371b"/>
				<path d="m77.9 110.15c0.633-0.034 1.684-0.018 3.15 0.05 1.367 0.066 2.417 0.066 3.15 0 2.899-0.233 4.934-0.317 6.1-0.25 1.267 0.066 2.867 0.416 4.8 1.05 3.034 0.934 4.634 1.416 4.801 1.45 0.199 0.033 0.649 0.1 1.35 0.2 0.566 0.1 1 0.199 1.3 0.3 0.3 0.1 0.7 0.35 1.2 0.75 0.467 0.399 0.85 0.649 1.15 0.75 0.666 0.2 1.633 0.316 2.899 0.35 1.5 0.033 2.483 0.083 2.95 0.15l0.5 0.1c2.3 1.233 4.217 2.2 5.75 2.9 0.6 0.267 1.384 0.616 2.35 1.05 0.733 0.434 1.317 0.967 1.75 1.6l0.2 0.301c0.233 0.333 0.601 0.833 1.101 1.5 0.366 0.6 0.3 1.25-0.2 1.949-0.233 0.367-0.783 0.917-1.65 1.65-0.533 0.467-1.283 1.116-2.25 1.95-0.866 0.666-1.767 1.166-2.7 1.5-1.566 0.566-3.5 0.916-5.8 1.05-2.7 0.033-4.7 0.066-6 0.1-0.267 0-1.8-0.017-4.6-0.05-1.9 0-3.417 0.134-4.55 0.4-2.634 0.733-4.617 1.25-5.95 1.55-2.3 0.5-4.367 0.6-6.2 0.3-1-0.167-3.133-0.616-6.4-1.35-2.7-0.601-4.9-0.983-6.6-1.15-2.633-0.233-5.383-0.616-8.25-1.149-1.7-0.334-2.983-0.534-3.85-0.601-1.1-0.033-2.1-0.283-3-0.75-0.533-0.267-0.933-0.467-1.2-0.6-0.467-0.267-0.85-0.534-1.15-0.8-0.566-0.534-0.65-1.384-0.25-2.551l0.4-1.25c0.133-0.533 0.433-1.033 0.9-1.5 0.733-0.399 2.1-1.066 4.1-2 1.767-0.833 3.133-1.55 4.1-2.149 1.434-0.934 3.034-1.9 4.8-2.9 0.8-0.066 1.417-0.149 1.85-0.25 0.8-0.134 1.767-0.483 2.9-1.05 0.633-0.334 1.583-0.85 2.85-1.55 1.132-0.167 2.532-0.516 4.199-1.05z" fill="#6c371b"/>
				<path d="m76.1 131.45c-2.7-0.601-4.9-0.983-6.6-1.15l-14.55-2.25-0.55-0.25c-0.533-0.267-0.933-0.467-1.2-0.6-0.467-0.267-0.85-0.534-1.15-0.8-0.566-0.534-0.65-1.384-0.25-2.551l0.4-1.25c0.133-0.533 0.433-1.033 0.9-1.5l1.45-0.75c2.434-1.1 4.233-1.983 5.4-2.649-0.7 0.533-1.75 1.283-3.15 2.25 0.434-0.167 1.1-0.483 2-0.95s1.583-0.8 2.05-1c-0.333 0.733-1.1 1.366-2.3 1.9-0.667 0.3-1.616 0.716-2.85 1.25 1.066 0.166 2.316-0.101 3.75-0.801 1.966-0.967 3.133-1.5 3.5-1.6-0.6 0.767-1.517 1.55-2.75 2.35-1.667 1.066-2.65 1.717-2.95 1.95 0.4 0.033 1.033-0.033 1.9-0.2 0.8-0.166 1.4-0.199 1.8-0.1l-0.35 0.85c0.4 0 1.017-0.083 1.85-0.25 0.8-0.166 1.4-0.25 1.8-0.25-0.033 0.2-0.017 0.551 0.05 1.051 0.634-0.067 1.067-0.067 1.3 0 0.433 0.1 0.7 0.399 0.8 0.899 0.667 0.033 1.45-0.116 2.35-0.45 0 0.066 0.05 0.267 0.15 0.601 0.1 0.3 0.133 0.533 0.1 0.7 0.4 0.066 0.867-0.018 1.4-0.25 0.733-0.334 1.2-0.518 1.4-0.551-0.167 1.467 0.217 2.334 1.15 2.601 0.333 0.1 1.333 0.066 3-0.101 0.1 0 0.5-0.116 1.2-0.35 0.633-0.167 1.017-0.233 1.15-0.2 0.4 0.101 0.967 0.434 1.7 1 0.6 0.3 1.017-0.017 1.25-0.95 0.7 0.467 1.15 0.483 1.35 0.051l0.4-0.95c0.367-0.101 0.733-0.067 1.1 0.1 0.467 0.233 0.867 0.366 1.2 0.4 0.033-0.834 0.05-1.45 0.05-1.851 0.034-0.699 0.134-1.3 0.301-1.8 0.533 0.3 1.183 0.851 1.949 1.65 0.934 0.933 1.584 1.55 1.95 1.85 0.467-0.6 1.117-0.833 1.95-0.7 0.167-1 0.2-1.733 0.1-2.199 0.601 0.066 1.25 0.449 1.95 1.149 0.967 1 1.55 1.566 1.75 1.7 0.233-0.667 0.134-1.717-0.3-3.15 0.733 0.2 2.017 0.667 3.85 1.4 1.634 0.434 2.851 0.133 3.65-0.9 0.3-0.366 0.4-0.85 0.3-1.449-0.033-0.234 0.334-0.2 1.101 0.1 0.3 0.1 0.683 0.366 1.149 0.8 0.601 0.5 0.967 0.8 1.101 0.9l0.1-0.8 0.9 0.149c0.366 0.066 0.666 0.184 0.899 0.351 0.467-0.634 0.733-1.384 0.8-2.25 1 0.033 2.184 0.6 3.551 1.699 0.133-0.399 0.416-0.6 0.85-0.6 0.267 0 0.7 0.033 1.3 0.1 0-0.8-0.583-1.566-1.75-2.3-1.399-0.733-2.316-1.25-2.75-1.55 0.567 0.233 1.45 0.6 2.65 1.1-0.267-0.934-0.517-1.566-0.75-1.899 0.633 0 1.5 0.383 2.6 1.149 1 0.7 1.851 0.983 2.55 0.851 0.034 0.3 0.134 0.733 0.301 1.3-0.067-0.3-0.051-0.65 0.05-1.05 0.1-0.4 0.167-0.7 0.2-0.9 0.733 0.601 1.416 0.884 2.05 0.851 0.066-0.467 0.083-0.817 0.05-1.051h0.1c0.5 0.301 0.917 0.717 1.25 1.25l0.2 0.301c0.233 0.333 0.601 0.833 1.101 1.5 0.366 0.6 0.3 1.25-0.2 1.949-0.233 0.367-0.783 0.917-1.65 1.65-0.467 0.4-1.116 0.983-1.95 1.75-0.732 0.6-1.466 1.066-2.199 1.4h-0.1l-0.649 0.3-0.2 0.05-1.05 0.35-1.2 0.25c-1.101 0.2-2.4 0.334-3.9 0.4-1.767 0.033-3.1 0.05-4 0.05l-1.5 0.05c-0.267 0-1.8-0.017-4.6-0.05-1.9 0-3.417 0.134-4.55 0.4-2.634 0.733-4.617 1.25-5.95 1.55-2.3 0.5-4.367 0.6-6.2 0.3-1.001-0.167-3.134-0.616-6.401-1.35z" fill="#5e3117"/>
				<path d="m76.1 131.45c-2.7-0.601-4.9-0.983-6.6-1.15l-14.55-2.25-0.55-0.25c-0.533-0.267-0.933-0.467-1.2-0.6-0.467-0.267-0.85-0.534-1.15-0.8-0.566-0.534-0.65-1.384-0.25-2.551l0.35-1c0.067 0.167 0.284 0.4 0.65 0.7 0.3 0.233 0.434 0.533 0.4 0.9 0.466 0.033 1.15 0.233 2.05 0.6 0.767 0.333 1.45 0.467 2.05 0.4l0.05-0.55c0.533-0.067 0.983-0.018 1.35 0.149 0.066 0.033 0.466 0.283 1.2 0.75 0.1 0.066 0.25 0.083 0.45 0.05 0.2 0 0.35 0.017 0.45 0.051 0.134 0.066 0.284 0.232 0.45 0.5 0.167 0.3 0.3 0.482 0.4 0.55 0.434 0.267 1.067 0.416 1.9 0.45 1.067 0.366 2.284 0.516 3.65 0.449 2.066-0.066 3.283-0.083 3.65-0.05 0.1 1.066 0.583 1.684 1.45 1.851h2.6c1.5 0 2.617 0.066 3.35 0.199 1.233 0.233 2.267 0.733 3.1 1.5 0.3-0.233 0.683-0.3 1.15-0.199 0.567 0.066 0.967 0.083 1.2 0.05 0.2-0.034 0.383-0.134 0.55-0.3 0.2-0.167 0.367-0.268 0.5-0.301 0.767 0 1.233-0.066 1.4-0.199 0.5-0.367 0.683-1.167 0.55-2.4-0.233-1.367-0.351-2.283-0.351-2.75 0.434 0.2 0.917 0.833 1.45 1.9 0.601 1.166 1.033 1.883 1.3 2.149 0.434 0.434 0.733 0.7 0.9 0.8 0.333 0.2 0.717 0.25 1.15 0.15 0.467-0.1 0.683-0.316 0.649-0.65 0-0.366 0.067-0.6 0.2-0.699 0.3-0.2 0.917-0.117 1.85 0.25 0.867 0.366 1.483 0.283 1.851-0.25 0.233-0.367 0.333-1.2 0.3-2.5-0.033-1.101-0.133-1.934-0.3-2.5 0.533 0.166 1.133 0.516 1.8 1.05 0.6 0.466 1.083 0.95 1.45 1.45 0.2 0.3 0.399 0.616 0.6 0.949 0.2 0.267 0.483 0.467 0.851 0.601 0.967 0.366 2.566 0.483 4.8 0.35 0.233-0.8 0.017-1.45-0.65-1.95 0.434 0.033 1.15 0.316 2.15 0.851 0.934 0.466 1.649 0.7 2.149 0.7l0.051-0.301c0.899-0.033 1.399-0.083 1.5-0.149 0.3-0.167 0.433-0.7 0.399-1.601 0.267 0 1 0.101 2.2 0.301 0.9 0.166 1.617 0.199 2.15 0.1-0.033-0.667-0.084-1.1-0.15-1.3 0.167 0.033 0.434 0 0.8-0.101 0.101-0.733-0.366-1.616-1.399-2.649-0.167-0.467-0.551-0.917-1.15-1.351l-0.15-0.35c0.534-0.1 1.084 0.1 1.65 0.6 0.767 0.634 1.267 1 1.5 1.101 0.167 0.066 0.333 0.066 0.5 0 0.167-0.067 0.316-0.084 0.45-0.05 0.066 0 0.717 0.149 1.95 0.449 0.8 0.2 1.449 0.316 1.949 0.351-0.3-0.733-0.416-1.3-0.35-1.7 0.167 0.066 0.467 0.1 0.9 0.1l0.75 1.051c0.366 0.6 0.3 1.25-0.2 1.949-0.233 0.367-0.783 0.917-1.65 1.65-0.467 0.4-1.116 0.983-1.95 1.75-0.732 0.6-1.466 1.066-2.199 1.4h-0.1l-0.649 0.3-2.45 0.649c-1.101 0.2-2.4 0.334-3.9 0.4-1.767 0.033-3.1 0.05-4 0.05l-1.5 0.05c-0.267 0-1.8-0.017-4.6-0.05-1.9 0-3.417 0.134-4.55 0.4-2.634 0.733-4.617 1.25-5.95 1.55-2.3 0.5-4.367 0.6-6.2 0.3-1.001-0.166-3.134-0.615-6.401-1.349z" fill="#552b13"/>
				<path d="m77.25 131c0.467 0.5 0.833 0.816 1.1 0.95l-23.4-3.9-0.55-0.25c-0.533-0.267-0.933-0.467-1.2-0.6-0.467-0.267-0.85-0.534-1.15-0.8l-0.1-0.15h0.85c0.134 0.566 0.7 0.833 1.7 0.8 0.533 0 1.233-0.083 2.1-0.25 0.566-0.033 1.333 0.101 2.3 0.4 1.167 0.333 1.967 0.533 2.4 0.6 1 0.134 2.5 0.3 4.5 0.5 1.733 0.2 3.184 0.566 4.35 1.101 1.3 0.533 3.217 0.883 5.75 1.05 0.567 0.032 1.017 0.215 1.35 0.549z" fill="#462212"/>
				<path d="m89 132.45c-1.8 0.399-3.417 0.566-4.85 0.5h0.25c0.633-0.067 1.3-0.3 2-0.7 0.767-0.467 1.366-0.834 1.8-1.1l0.05-2.051c0.4 0.101 0.816 0.384 1.25 0.851 0.434 0.5 0.85 0.8 1.25 0.899 1.167 0.2 2.15 0.316 2.95 0.351-2.066 0.6-3.634 1.017-4.7 1.25z" fill="#502715"/>
				<path d="m99 130.6c-1.467-0.033-2.684 0.033-3.65 0.2 0.034-0.2 0.184-0.384 0.45-0.55 0.3-0.233 0.5-0.434 0.601-0.6 0.233-0.367 0.383-0.7 0.449-1 0-0.067 0.034-0.467 0.101-1.2 0.233-0.067 0.55 0.1 0.95 0.5 0.199 0.2 0.5 0.517 0.899 0.95 0.767 0.766 1.75 1.283 2.95 1.55l1 0.2c-1.67-0.03-2.917-0.05-3.75-0.05z" fill="#502715"/>
				<path d="m117.95 125.05c0.566 0.066 1.033-0.017 1.399-0.25 0.2-0.1 0.584-0.333 1.15-0.7 0.267-0.1 0.65-0.133 1.15-0.1 0.366-0.033 0.517-0.367 0.449-1l0.5-0.05c0.101 0.5-0.083 1.05-0.55 1.649-0.267 0.301-0.767 0.767-1.5 1.4-0.5 0.434-1.233 1.05-2.2 1.85-0.833 0.667-1.683 1.167-2.55 1.5l-0.25 0.15-1.6 0.45-2.351 0.399-0.85 0.051h-0.05c-1.066 0.1-2.684 0.149-4.851 0.149 0.233-0.167 0.4-0.399 0.5-0.7 0.067-0.434 0.117-0.8 0.15-1.1 0.434-0.033 0.983 0.116 1.65 0.45 0.666 0.366 1.199 0.517 1.6 0.45 0.267-0.034 0.9-0.217 1.9-0.551 0.633-0.1 0.983-0.166 1.05-0.199 0.233-0.167 0.35-0.534 0.35-1.101 1.167-0.134 1.8-0.217 1.9-0.25 0.6-0.233 0.983-0.866 1.149-1.899 0.134-0.734-0.183-1.584-0.949-2.551-0.934-1.199-1.434-1.916-1.5-2.149 0.666 0.233 1.517 0.883 2.55 1.95 0.904 0.902 1.488 1.619 1.754 2.152z" fill="#462212"/>
				<path d="m115.3 123.15c0.134 0.166 0.434 0.433 0.9 0.8 0.399 0.333 0.649 0.6 0.75 0.8 0.066 0.133 0.1 0.35 0.1 0.65 0 0.333 0.033 0.533 0.101 0.6 0.1 0.166 0.267 0.267 0.5 0.3 0.199 0.033 0.316 0.2 0.35 0.5s-0.083 0.634-0.35 1c-0.233 0.3-0.483 0.517-0.75 0.65-0.334 0.233-0.65 0.333-0.95 0.3-0.367-0.066-0.583-0.3-0.65-0.7-0.033-0.233 0-0.533 0.101-0.899 0.166-0.467 0.25-0.784 0.25-0.95 0.033-0.233 0-0.5-0.101-0.8-0.1-0.367-0.183-0.65-0.25-0.851-0.133-0.366-0.166-0.934-0.1-1.7l0.099 0.3z" fill="#401f10"/>
				<path d="m97.4 128.8-0.051 0.4c0.834-0.067 1.167 0.283 1 1.05-0.699 0-1.149-0.033-1.35-0.1 1e-3 -0.367 0.135-0.817 0.401-1.35z" fill="#401f10"/>
				<path d="m89 130.15h0.1c0.268 0 0.551 0.1 0.851 0.3 0.333 0.233 0.45 0.483 0.35 0.75-0.166 0.433-0.433 0.466-0.8 0.1-0.367-0.4-0.534-0.783-0.501-1.15z" fill="#401f10"/>
				<path d="m89.15 132.4c-0.834 0.366-1.367 0.566-1.601 0.6-0.967 0.2-1.899 0.233-2.8 0.1-2.63-0.324-4.58-0.725-5.85-1.199 0.225 0.07 0.525 0.121 0.9 0.149 0.567 0.033 0.917 0.066 1.05 0.101 0.767 0.199 1.483 0.3 2.15 0.3 0.267 0 0.7-0.117 1.3-0.351 0.534-0.233 0.983-0.316 1.351-0.25 1 0.267 1.833 0.316 2.5 0.15h2.399c-0.399 0.026-0.865 0.16-1.399 0.4z" fill="#462212"/>
				<path d="m88.95 118.15c-3.066 0.066-5.267-0.117-6.6-0.551 0.167 0 1.333 0.033 3.5 0.101 1.467 0.066 2.584-0.117 3.351-0.55 0.066-0.034 0.1-0.117 0.1-0.25 0-0.134 0.05-0.234 0.15-0.301 0.233-0.133 0.616-0.184 1.149-0.149 0.601 0.033 1.018 0.017 1.25-0.05 0.2-0.067 0.467-0.2 0.801-0.4 0.366-0.267 0.583-0.483 0.649-0.65-0.1-0.233-0.183-0.399-0.25-0.5 0.101-0.1 0.417-0.217 0.95-0.35 0.367-0.1 0.517-0.35 0.45-0.75l1.7-0.35c0.066-0.234-0.017-0.467-0.25-0.7l0.149-0.3c0.567-0.2 0.983 0 1.25 0.6 0.233 0.566 0.283 1.184 0.15 1.85-0.167-0.033-0.55 0-1.15 0.101-0.033 0-0.183 0.017-0.45 0.05-0.199 0.033-0.366 0.1-0.5 0.2-0.066 0.066-0.083 0.2-0.05 0.399 0 0.233-0.017 0.367-0.05 0.4-0.2 0.2-0.533 0.333-1 0.4-0.5 0.1-0.833 0.199-1 0.3-0.066 0.033-0.1 0.149-0.1 0.35 0.033 0.167 0 0.267-0.101 0.3-0.233 0.134-0.6 0.184-1.1 0.15-1.431 0.434-2.431 0.65-2.998 0.65z" fill="#643117"/>
				<path d="m103.05 113.85h-0.35c0.333-0.066 0.783 0 1.35 0.2 0.634 0.2 1 0.467 1.101 0.8 0.1 0.4-0.067 0.783-0.5 1.15-0.101 0.2-0.233 0.6-0.4 1.2-0.2 0.3-0.533 0.5-1 0.6-0.6 0.033-1.05 0.066-1.35 0.101-1.4 0.232-2.4 0.216-3-0.051 0.033-0.366 0.283-0.517 0.75-0.449 0-0.167-0.084-0.334-0.25-0.5-0.167-0.167-0.233-0.367-0.2-0.601 0.167 0 0.467 0.033 0.899 0.101 0.434 0 0.733-0.034 0.9-0.101 0.134-0.066 0.316-0.25 0.55-0.55 0.167-0.267 0.367-0.384 0.601-0.35v-0.5c0.133 0 0.35-0.018 0.649-0.051-0.1-0.533-0.017-0.866 0.25-0.999z" fill="#643117"/>
				<path d="m108.9 117.15c0.276 0.025 0.593 0.142 0.949 0.35 0.067 0.767-0.35 1.083-1.25 0.95-0.833-0.134-1.433-0.417-1.8-0.851 0.134-0.3 0.45-0.467 0.95-0.5 0.268 1e-3 0.651 0.017 1.151 0.051z" fill="#643117"/>
				<path d="m70 114.3c-0.133-0.366 0.383-0.583 1.55-0.649 0.567 0 1.267 0.016 2.1 0.05h-0.25c0.4 0.133 0.633 0.316 0.7 0.55 0.066 0.333 0.133 0.533 0.2 0.6 0.4 0.434 1 0.816 1.8 1.15 1.267 0.566 1.917 0.85 1.95 0.85-0.233 0.533-1.25 0.617-3.05 0.25-1.7-0.333-2.75-0.699-3.15-1.1-0.1-0.1-0.184-0.283-0.25-0.55-0.1-0.3-0.2-0.5-0.3-0.601-0.066-0.066-0.3-0.133-0.7-0.199-0.367-0.068-0.567-0.184-0.6-0.351z" fill="#643117"/>
				<path d="m73.75 113c-0.5 0-0.917-0.084-1.25-0.25-0.433-0.233-0.367-0.566 0.2-1 0.4-0.3 0.716-0.25 0.95 0.15 0.233 0.366 0.15 0.683-0.25 0.949l0.35 0.15z" fill="#643117"/>
				<path d="m80.15 119.3c0.1 0.033 0.4 0.134 0.9 0.3 0.367 0.167 0.667 0.217 0.9 0.15-0.133 0.6 0.133 1.05 0.8 1.35-0.1 0.267-0.233 0.617-0.4 1.051-0.167 0.333-0.434 0.55-0.8 0.649-0.366 0.101-1.066 0-2.1-0.3-0.967-0.3-1.684-0.367-2.15-0.2-0.2 0.066-0.483 0.3-0.85 0.7-0.367 0.366-0.65 0.583-0.85 0.65-0.367 0.1-0.9 0.133-1.6 0.1s-1.183-0.117-1.45-0.25c0.2-0.267 0.567-0.434 1.1-0.5 0.3-0.033 0.733-0.084 1.3-0.15-0.067-0.399 0.033-0.767 0.3-1.1 0.367-0.267 0.617-0.483 0.75-0.65-0.066-0.366-0.033-0.616 0.1-0.75 0.167-0.199 0.566-0.366 1.2-0.5 0.428-0.074 0.752-0.133 0.975-0.175 0.323-0.312 0.948-0.437 1.875-0.375z" fill="#643117"/>
				<path d="m84.625 120.02c0.426 0.215 0.584 0.54 0.475 0.975-0.766 0.133-1.266-0.017-1.5-0.45-0.21-0.39 0.132-0.565 1.025-0.525z" fill="#643117"/>
				<path d="m91.1 119.75-0.8-0.3c0.5-0.233 1.05-0.367 1.65-0.4 0.667-0.066 1.217 0 1.649 0.2 0.334 0.2 0.733 0.5 1.2 0.9 0.533 0.466 0.817 0.816 0.851 1.05 0.199 1.1-0.783 1.366-2.95 0.8-1.967-0.5-3.217-1.017-3.75-1.55 0.5-0.4 1.217-0.634 2.15-0.7z" fill="#643117"/>
				<path d="m96.3 120.75 0.5 0.6c0.167-0.033 0.384 0.017 0.65 0.15 0.133 0.5 0.033 0.833-0.3 1-0.334 0.2-0.7 0.184-1.101-0.05 0.134-0.367 0.233-0.65 0.3-0.851 0.101-0.299 0.085-0.582-0.049-0.849z" fill="#643117"/>
				<path d="m83.4 111.55c-1.667-0.033-2.833 0.066-3.5 0.3 0.1 0.7-0.3 0.934-1.2 0.7-0.934-0.233-1.417-0.05-1.45 0.55-1.533 0.101-2.483 0.017-2.85-0.25l0.75-0.6-0.35-0.4c0.267-0.267 0.75-0.483 1.45-0.649 0.767-0.167 1.283-0.334 1.55-0.5l-0.65-0.3c4.133-1e-3 6.217 0.382 6.25 1.149z" fill="#7f4425"/>
				<path d="m85.5 110.25h-0.4c0.4-0.033 1 0.017 1.801 0.15 0.133 0.6-0.15 0.949-0.851 1.05-0.233 0.033-0.767 0.017-1.6-0.05-0.067-0.334 0.033-0.584 0.3-0.75 0.367-0.133 0.617-0.267 0.75-0.4z" fill="#7f4425"/>
				<path d="m81.7 112.1-0.25-0.1c1.533 0 2.05 0.316 1.55 0.95-0.167 0.2-0.483 0.267-0.95 0.2-0.466-0.134-0.783-0.2-0.95-0.2-0.1-0.467 0.1-0.75 0.6-0.85z" fill="#7f4425"/>
				<path d="m73.65 111.85c-0.066-0.434 0.133-0.733 0.6-0.899 0.434-0.167 0.8-0.167 1.1 0l-1.6 1.149-0.1-0.25z" fill="#7f4425"/>
				<path d="m69.925 113.72-0.325 0.13c0.433 0.233 0.55 0.7 0.35 1.4l-0.45 0.2c0.1 0.8 0.067 1.267-0.1 1.399-0.1 0.066-0.5 0.017-1.2-0.149-1-0.267-1.7-0.4-2.1-0.4-0.167 0-0.45 0.066-0.85 0.2-0.333 0.1-0.617 0.116-0.85 0.05v-0.25c-1 0.134-1.733 0.167-2.2 0.101 1.667-1.268 2.917-2.067 3.75-2.4 0.433-0.134 1.117-0.184 2.05-0.15 0.857 0.062 1.499 0.021 1.925-0.126z" fill="#7f4425"/>
				<path d="m70.5 116v-0.15c0.434-0.1 0.733-0.017 0.9 0.25 0.2 0.267 0.2 0.617 0 1.051-0.4 0.1-0.75 0-1.05-0.301-0.3-0.3-0.25-0.583 0.15-0.85z" fill="#7f4425"/>
				<path d="m67.8 116.75-0.55-0.45c1.133 0.233 1.633 0.667 1.5 1.3-0.133 0.634-0.733 0.967-1.8 1-0.667 0-1.1-0.033-1.3-0.1-0.533-0.134-0.733-0.483-0.6-1.05 0.1-0.434 0.5-0.684 1.2-0.75 0.233-0.034 0.75-0.016 1.55 0.05z" fill="#7f4425"/>
				<path d="m63.25 116.85-0.3 0.301c0.667-0.5 0.85-0.351 0.55 0.449-0.2 0.601-0.683 0.667-1.45 0.2 0.1-0.567 0.5-0.884 1.2-0.95z" fill="#7f4425"/>
				<path d="m64.15 118.9v-0.45c0.167-0.034 0.367-0.017 0.6 0.05 0.1 0.4 0.067 0.75-0.1 1.05-0.233 0.333-0.533 0.4-0.9 0.2-0.267-0.167-0.35-0.367-0.25-0.6 0.1-0.234 0.317-0.317 0.65-0.25z" fill="#7f4425"/>
				<path d="m89.1 115.7c-0.066 0.066-0.183 0.166-0.35 0.3-0.033 0.033-0.083 0.133-0.15 0.3-0.066 0.134-0.183 0.233-0.35 0.3-0.4-0.033-0.667-0.033-0.8 0-1.101 0.134-1.983 0.2-2.65 0.2-1.233 0.066-2.05-0.066-2.45-0.399 0.133-0.234 0.367-0.417 0.7-0.551 0.6-0.233 0.917-0.366 0.95-0.399l-0.25-0.25c0.4-0.3 1.316-0.667 2.75-1.101-0.1-0.666 0.267-1.05 1.1-1.149 0.467-0.034 1.117-0.034 1.95 0-0.133-0.733 0.067-1.2 0.601-1.4 0.267-0.1 0.8-0.149 1.6-0.149l-0.4 0.149c0.867 0.2 1.284 0.5 1.25 0.9-0.033 0.3-0.149 0.95-0.35 1.95-0.667 0-1.1 0.05-1.3 0.149 0 0.467-0.134 0.767-0.4 0.9-0.133 0.066-0.433 0.066-0.899 0-0.235 0.033-0.419 0.116-0.552 0.25z" fill="#7f4425"/>
				<path d="m84.95 112.1h-0.1c0.4-0.066 0.683 0.033 0.85 0.301 0.2 0.3 0.1 0.566-0.3 0.8-0.267 0.166-0.55 0.166-0.851 0-0.3-0.167-0.417-0.417-0.35-0.75 0.201-0.035 0.451-0.151 0.751-0.351z" fill="#7f4425"/>
				<path d="m93.45 111.85-0.3-0.149c0.433-0.034 0.866 0.083 1.3 0.35 0.5 0.3 0.566 0.667 0.2 1.101-0.134 0.166-0.483 0.232-1.051 0.199-0.6-0.033-0.949-0.149-1.05-0.35-0.166-0.3-0.133-0.584 0.101-0.85 0.234-0.235 0.5-0.335 0.8-0.301z" fill="#7f4425"/>
				<path d="m87.7 110.55c0.434-0.033 0.833 0.017 1.2 0.15 0.433 0.2 0.416 0.466-0.051 0.8-0.3 0.233-0.666 0.2-1.1-0.1-0.399-0.267-0.416-0.55-0.049-0.85z" fill="#7f4425"/>
				<path d="m77.3 114.3c0.167-0.267 0.517-0.434 1.05-0.5 0.467-0.1 0.85-0.083 1.15 0.05 0.5 0.2 0.633 0.417 0.4 0.65-0.033 0.033-0.333 0.2-0.9 0.5-0.667 0.366-1.05 0.566-1.15 0.6-0.533 0.167-0.983 0.117-1.35-0.149-0.5-0.4-0.583-0.7-0.25-0.9 0.219-0.157 0.569-0.24 1.05-0.251z" fill="#7f4425"/>
				<path d="m79.35 115.6v-0.149c0.433 0.066 0.7 0.3 0.8 0.7-0.233 0.033-0.45 0.05-0.65 0.05-0.333 0.033-0.55 0-0.65-0.101-0.167-0.166-0.184-0.3-0.05-0.399 0.167-0.101 0.35-0.135 0.55-0.101z" fill="#7f4425"/>
				<path d="m76.925 117.75c0.438-7e-3 1.146-0.023 2.125-0.05 0.967 0.1 1.284 0.583 0.95 1.45-1.633 0.3-2.917 0.5-3.85 0.6-1.7 0.2-2.716-0.283-3.05-1.45 0.433-0.2 1.133-0.3 2.1-0.3 0.714-0.025 1.289-0.109 1.725-0.25z" fill="#7f4425"/>
				<path d="m103.05 113.4 0.15-0.15c0.267 0.533 0.033 0.833-0.7 0.9-0.866 0-1.383 0.033-1.55 0.1-0.101 0.066-0.217 0.233-0.351 0.5-0.133 0.233-0.316 0.416-0.55 0.55-0.7 0.434-1.683 0.467-2.95 0.101l0.25-0.25c-0.3-0.134-0.517-0.184-0.649-0.15 0-0.467 0.383-0.65 1.149-0.55 0.834 0.066 1.268-0.084 1.301-0.45l-0.75-0.05 0.5-0.25c-0.033-0.334-0.2-0.517-0.5-0.55-0.367 0-0.634-0.034-0.801-0.101l0.5-0.45c-0.366 0-0.666-0.166-0.899-0.5 0.467 0.101 1.517 0.134 3.149 0.101 1.501 0.066 2.401 0.465 2.701 1.199z" fill="#7f4425"/>
				<path d="m95.65 115.7c0.185 0.028 0.435 0.095 0.75 0.2-0.033 0.732-0.667 1-1.9 0.8 0.1-0.2 0.267-0.384 0.5-0.55 0.333-0.2 0.55-0.35 0.65-0.45z" fill="#7f4425"/>
				<path d="m104.75 114.85c0.134 0.4 0.1 0.75-0.1 1.051-0.067 0.133-0.301 0.366-0.7 0.699-0.767 0.7-1.917 0.967-3.45 0.801 0.9-0.4 1.566-0.584 2-0.551 0.066-0.333 0.35-0.75 0.85-1.25 0.434-0.399 0.601-0.783 0.5-1.149l-0.25 0.399c-0.033-0.533 0.117-0.75 0.45-0.649 0.367 0.066 0.6 0.282 0.7 0.649z" fill="#59290e"/>
				<path d="m92.35 120.25c0-0.167-0.017-0.283-0.05-0.35h1.4l-0.8-0.15c0.267-0.134 0.6-0.2 1-0.2 0.366 0 0.683 0.066 0.949 0.2 0.167 0.733-0.3 1.2-1.399 1.4-1.033 0.232-1.783 0.183-2.25-0.15 0.233-0.267 0.649-0.4 1.25-0.4-0.066-0.1-0.1-0.217-0.1-0.35z" fill="#59290e"/>
				<path d="m81.45 119.5c0.167 0.733-0.167 1.3-1 1.7-1.034 0.333-1.7 0.566-2 0.7-0.167 0.066-0.65 0.399-1.45 1-0.433 0.333-0.983 0.466-1.65 0.399 0.433-0.167 0.7-0.467 0.8-0.899 0.167-0.567 0.333-0.934 0.5-1.101 0.733-0.267 1.217-0.45 1.45-0.55 0.967-0.434 1.517-0.667 1.65-0.7l-0.5-0.149c0.5-0.7 1.233-0.834 2.2-0.4z" fill="#59290e"/>
				<path d="m73.65 114.85 0.25-0.149c0.733 0.233 1.034 0.649 0.9 1.25-0.466 0.166-0.917 0.017-1.35-0.45-0.433-0.468-0.367-0.685 0.2-0.651z" fill="#59290e"/>
				<path d="m91.35 116.85-0.399-0.1c0.366-0.3 0.8-0.4 1.3-0.3 0.033 0.5-0.184 0.8-0.65 0.899-0.199 0-0.633-0.017-1.3-0.05 0.166-0.365 0.515-0.516 1.049-0.449z" fill="#59290e"/>
				<path d="m69.35 119.15c0.592-0.216 1.159-0.35 1.7-0.4 0.025 2e-3 0.05 2e-3 0.075 0 0.656 0.09 1.047 0.407 1.175 0.95 0.167 0.566-0.133 0.916-0.9 1.05-0.4 0.066-1.017 0.05-1.85-0.05-1.1-0.167-1.733-0.25-1.9-0.25 0.2-0.534 0.767-0.967 1.7-1.3z" fill="#7f4425"/>
				<path d="m69.6 121.2-0.9-0.15c0.667-0.033 1.3 0.083 1.9 0.351 0.7 0.3 0.717 0.666 0.05 1.1-0.767 0.434-1.566 0.35-2.4-0.25-0.8-0.567-0.35-0.918 1.35-1.051z" fill="#7f4425"/>
				<path d="m63.875 121.05c0.074 0.683-0.451 0.899-1.575 0.65 0.066-0.595 0.591-0.811 1.575-0.65z" fill="#7f4425"/>
				<path d="m64.15 121.45-0.15 0.3c1.033-0.267 1.317-0.084 0.85 0.55-0.467 0.601-0.85 0.467-1.15-0.399l0.45-0.451z" fill="#7f4425"/>
				<path d="m65.55 122.6 0.3 0.15c0.533-0.167 0.767-0.033 0.7 0.4-0.066 0.399-0.433 0.5-1.1 0.3-0.033-0.233 0-0.516 0.1-0.85z" fill="#7f4425"/>
				<path d="m65.3 120.6 0.15-0.149c1.2-0.2 1.45 0.033 0.75 0.7-0.667 0.6-1.133 0.516-1.4-0.25 0.067-0.134 0.233-0.235 0.5-0.301z" fill="#7f4425"/>
				<path d="m106.85 115-2.75-0.3c0.367 0 1.65-0.05 3.851-0.15 2 0.033 2.983 0.417 2.95 1.15-0.667 0.333-1.684 0.517-3.051 0.55-1.5 0.066-2.449-0.15-2.85-0.65 0.2-0.3 0.816-0.5 1.85-0.6z" fill="#7f4425"/>
				<path d="m110.75 115.85h-0.15c0.233-0.199 0.601-0.25 1.101-0.149 0.533 0.1 0.816 0.333 0.85 0.7-0.967 0.133-1.6 0.05-1.899-0.25l0.098-0.301z" fill="#7f4425"/>
				<path d="m112.55 116.85h-0.25c0.334-0.066 0.601-0.033 0.8 0.101 0.268 0.166 0.334 0.416 0.2 0.75-0.3 0.033-0.517-0.034-0.649-0.2-0.201-0.168-0.234-0.385-0.101-0.651z" fill="#7f4425"/>
				<path d="m114.25 117.9 0.15-0.15h0.449c0.134 0.033 0.233 0.116 0.301 0.25-0.266 0.1-0.567 0.066-0.9-0.1z" fill="#7f4425"/>
				<path d="m109.7 116.85 1.05 0.301h-1.2c-0.033-0.134 0.016-0.235 0.15-0.301z" fill="#7f4425"/>
				<path d="m106.6 116.75-0.149-0.15c0.533-0.033 0.85-0.05 0.95-0.05 0.3 0.066 0.416 0.316 0.35 0.75-0.533 0.366-1.133 0.316-1.8-0.149 0.033-0.2 0.1-0.317 0.2-0.351 0.066-0.033 0.216-0.05 0.449-0.05z" fill="#7f4425"/>
				<path d="m104.5 116.85 0.4 0.15c0.433-0.1 0.733 0.05 0.899 0.45-0.6 0.366-1.166 0.333-1.7-0.101 0-0.133 0.034-0.233 0.101-0.3 0.133-0.066 0.234-0.133 0.3-0.199z" fill="#7f4425"/>
				<path d="m104.5 118.45 0.5-0.15c0.233-0.033 0.583-0.017 1.05 0.05-0.033 0.301-0.267 0.467-0.7 0.5-0.433 0-0.716-0.133-0.85-0.4z" fill="#7f4425"/>
				<path d="m106.7 118.75 0.8-0.3c0.134 0.066 0.167 0.149 0.1 0.25-0.367 0.067-0.666 0.083-0.9 0.05z" fill="#7f4425"/>
				<path d="m96.95 117.45v-0.15h0.75c-0.033 0.366-0.217 0.566-0.55 0.601-0.334 0.033-0.617-0.067-0.851-0.301 0.168-0.2 0.385-0.25 0.651-0.15z" fill="#7f4425"/>
				<path d="m93.8 117.6h1.7c0.066 0.033 0.15 0.066 0.25 0.101 0.066 0.033 0.083 0.149 0.05 0.35-0.666 0.267-1.316 0.25-1.95-0.05-0.067-0.135-0.083-0.268-0.05-0.401z" fill="#7f4425"/>
				<path d="m92 117.75 1.3 0.25c-0.166 0.434-0.633 0.5-1.399 0.2-0.034-0.2-1e-3 -0.35 0.099-0.45z" fill="#7f4425"/>
				<path d="m89 118.45 0.5 0.149c-0.167 0.301-0.417 0.384-0.75 0.25 0-0.165 0.083-0.299 0.25-0.399z" fill="#7f4425"/>
				<path d="m85.9 118.6h0.5c0.6-0.434 0.866-0.383 0.8 0.15-0.066 0.467-0.5 0.517-1.3 0.15-0.033-0.1-0.033-0.2 0-0.3z" fill="#7f4425"/>
				<path d="m85.9 119.75 1.3 0.15c-0.066 0.333-0.316 0.5-0.75 0.5-0.4-0.034-0.583-0.25-0.55-0.65z" fill="#7f4425"/>
				<path d="m79.1 110.3c0.333 0 0.816 0.05 1.45 0.15s1.1 0.149 1.4 0.149c0.033 0.301-0.367 0.5-1.2 0.601-0.967 0.1-1.55 0.216-1.75 0.35l-0.35-0.3c0 0.166-0.117 0.283-0.35 0.35-0.167 0.066-0.35 0.084-0.55 0.051l-0.05-0.35-1.2-0.05c0.533-0.134 0.883-0.316 1.05-0.55l-0.55-0.1c0.133-0.233 0.467-0.35 1-0.35 0.267 0 0.633 0.017 1.1 0.05z" fill="#905332"/>
				<path d="m87.1 113.75c0.13-0.42 0.463-0.637 1-0.65h-0.375c0.159-4e-3 0.551-0.037 1.176-0.1 0.6-0.033 0.833 0.116 0.699 0.45-0.1 0.3-0.5 0.45-1.199 0.45-0.634 0.034-1.068-0.017-1.301-0.15z" fill="#905332"/>
				<path d="m89.5 112.2-0.3-0.101c0.1-0.467 0.566-0.717 1.399-0.75 0.867-0.033 1.284 0.217 1.25 0.75 0 0.467-0.333 0.634-1 0.5-0.1-0.166-0.166-0.25-0.199-0.25l-0.65-0.05c-0.333-0.033-0.5-0.067-0.5-0.1z" fill="#905332"/>
				<path d="m93 112.1h-0.45c0.3-0.3 0.767-0.383 1.4-0.25 0.667 0.101 0.783 0.4 0.35 0.9-0.267 0.267-0.666 0.283-1.2 0.05-0.534-0.234-0.567-0.467-0.1-0.7z" fill="#905332"/>
				<path d="m99.85 111.95-0.15 0.15c0.6-0.3 1.233-0.166 1.899 0.4 1.134 0.967 0.551 1.316-1.75 1.05-0.033-0.267-0.033-0.45 0-0.55-0.232-0.066-0.566-0.084-1-0.05h-1.05c-0.033-0.334 0.233-0.584 0.8-0.75 0.035-0.034 0.451-0.117 1.251-0.25z" fill="#905332"/>
				<path d="m99.25 114.15-0.2 0.3c0.267-0.067 0.5-0.067 0.7 0 0.066 0.366-0.15 0.55-0.65 0.55-0.566-0.066-0.916-0.1-1.05-0.1 0-0.268 0.15-0.45 0.45-0.551l0.75-0.199z" fill="#905332"/>
				<path d="m84.95 114.9-0.2-0.101c0.267-0.2 0.917-0.267 1.95-0.2 1.1 0.033 1.5 0.25 1.2 0.65-0.134 0.2-0.584 0.283-1.351 0.25-0.8-0.066-1.267-0.1-1.399-0.1-0.601 0-0.884-0.067-0.851-0.2 0.034-0.2 0.251-0.3 0.651-0.3z" fill="#905332"/>
				<path d="m84.05 115.75-0.35 0.4c0.167 0 0.4-0.018 0.7-0.051 0.267 0.033 0.35 0.2 0.25 0.5-0.5 0.066-1.017 0.066-1.55 0-0.033-0.267 0.066-0.467 0.3-0.6 0.034-0.032 0.25-0.116 0.65-0.249z" fill="#905332"/>
				<path d="m76.25 118.25h-0.8c0.367-0.2 0.783-0.35 1.25-0.45 0.533-0.134 0.966-0.134 1.3 0 0.5 0.233 0.583 0.517 0.25 0.851-0.233 0.266-0.8 0.35-1.7 0.25-0.866-0.101-1.316-0.268-1.35-0.5l1.05-0.151z" fill="#905332"/>
				<path d="m77.35 113.95 0.2-0.2c0.367-0.467 0.817-0.533 1.35-0.2 0.534 0.3 0.434 0.601-0.3 0.9-0.1 0.066-0.367 0.116-0.8 0.149s-0.7 0.017-0.8-0.05c-0.167-0.134-0.2-0.267-0.1-0.399 0.1-0.1 0.25-0.167 0.45-0.2z" fill="#905332"/>
				<path d="m81.8 112.05-0.1-0.2c0.533-0.1 0.767-0.033 0.7 0.2-0.033 0.233-0.316 0.316-0.85 0.25v-0.25c0.1-0.033 0.183-0.033 0.25 0z" fill="#905332"/>
				<path d="m85 112.7c-0.167 0.1-0.316 0.133-0.45 0.1-0.167-0.033-0.233-0.149-0.2-0.35 0.3-0.034 0.6-0.034 0.9 0 0.066 0.166 0.033 0.3-0.1 0.399-0.101 0.101-0.234 0.117-0.4 0.051l0.25-0.2z" fill="#905332"/>
				<path d="m85.725 110.8c0.638 0.026 0.779 0.144 0.426 0.351-0.4 0.232-0.867 0.333-1.4 0.3 0.033-0.3 0.2-0.5 0.5-0.601 0.092-0.024 0.25-0.039 0.474-0.05z" fill="#905332"/>
				<path d="m65.1 115.4c-0.267 0.1-0.467 0.166-0.6 0.199-0.267 0.101-0.483 0.117-0.65 0.051 0.2-0.334 0.533-0.617 1-0.851 0.6-0.233 1.017-0.417 1.25-0.55l-0.6 0.2c0.333-0.267 0.983-0.467 1.95-0.601 1.133-0.166 1.716 0.033 1.75 0.601 0.066 0.566-0.8 0.85-2.6 0.85-0.6-0.066-1.1-0.032-1.5 0.101z" fill="#905332"/>
				<path d="m68.075 115.8-1.125 0.15c0.233-0.2 0.617-0.284 1.15-0.25 0.3 0 0.7 0.033 1.2 0.1 0.034 0.366-0.267 0.566-0.9 0.601-0.566 0.033-0.983-0.051-1.25-0.25 0.306-0.179 0.614-0.297 0.925-0.351z" fill="#905332"/>
				<path d="m66.35 116.9-0.1 0.199c0.333-0.199 0.9-0.3 1.7-0.3 0.833 0 1.05 0.167 0.65 0.5-0.3 0.2-0.95 0.267-1.95 0.2-0.733 0.366-1.3 0.517-1.7 0.45-0.034-0.367 0.117-0.634 0.45-0.8 0.267-0.166 0.583-0.249 0.95-0.249z" fill="#905332"/>
				<path d="m64.1 118.75-0.25-0.1c0.1-0.101 0.233-0.134 0.4-0.101 0.067 0.333-0.017 0.566-0.25 0.7-0.167 0.1-0.4 0.116-0.7 0.05 0.067-0.433 0.333-0.615 0.8-0.549z" fill="#905332"/>
				<path d="m71.1 119.15-0.45 0.05c0.247-0.022 0.463 0.044 0.65 0.2 0.2 0.166 0.25 0.383 0.15 0.649-1.4 0.167-2.367 0.2-2.9 0.101 0-0.334 0.367-0.601 1.1-0.801 0.6-0.165 1.083-0.233 1.45-0.199z" fill="#905332"/>
				<path d="m68.95 121.6-0.15-0.149c0.333-0.334 0.75-0.334 1.25 0 0.5 0.3 0.417 0.566-0.25 0.8-0.133 0.066-0.366 0.1-0.7 0.1-0.367 0-0.583-0.083-0.65-0.25-0.067-0.166-0.034-0.3 0.1-0.399 0.134-0.102 0.267-0.136 0.4-0.102z" fill="#905332"/>
				<path d="m89.45 109.8c1.2-0.066 2.149-0.05 2.85 0.05 1.167 0.2 1.983 0.667 2.45 1.4l-0.2-0.1c-0.066 0.199-0.3 0.316-0.7 0.35-0.399-0.033-0.683-0.05-0.85-0.05v-0.35c-0.733 0.134-1.283 0.167-1.65 0.101-0.466-0.167-0.8-0.284-1-0.351-0.933-0.166-1.433-0.267-1.5-0.3-0.133-0.2-0.267-0.316-0.399-0.35h-0.651c-0.933-0.067-1.616-0.101-2.05-0.101 1.043-0.067 2.276-0.167 3.7-0.299zm-3.7 0.3c-1.325 0.086-2.341 0.119-3.05 0.101 0.333-0.167 0.833-0.233 1.5-0.2 0.367 0.032 0.883 0.065 1.55 0.099z" fill="#7f4425"/>
				<path d="m92.3 110.3-0.1 0.101c-0.434 0-0.934-0.051-1.5-0.15-0.601-0.167-1.083-0.283-1.45-0.35 0.267-0.268 0.934-0.367 2-0.301s1.65 0.301 1.75 0.7h-0.7z" fill="#905332"/>
			</g>
				<use transform="matrix(1 0 0 -1 138.04 59.875)" y="-7.73" width="20.75" height="7.73" enable-background="new" opacity=".5313" xlink:href="#e"/>
			<g fill-rule="evenodd">
				<path d="m115.85 60.35 1.7-3.35 1.15-1.2c1.1-0.633 2.533-0.533 4.3 0.3 1.1 0.534 2 1.55 2.7 3.05 0.333 0.767 0.566 1.483 0.7 2.15l-3.301 6.35c-2.933 4.833-6.232 8.767-9.899 11.8-2.867 2.366-4.283 3.55-4.25 3.55 0.833-0.233 0.517 0.75-0.95 2.95-1.833 2.767-3.684 5.883-5.55 9.35l-1.101-2.45c-0.433-1.033-1.133-1.934-2.1-2.699l-1.35-0.9c3.333-5.867 6.166-10.283 8.5-13.25l2.3-2.95c-0.233 0 0.434-1.283 2-3.85 1.901-3.068 3.617-6.017 5.151-8.851z" fill="#86561d"/>
				<path d="m119.95 69.8c0.866-1.033 1.783-2.566 2.75-4.6 0.233-0.567 0.684-2.15 1.35-4.75 0.3 0.7 0.233 1.316-0.2 1.85 0.867-0.467 1.601-1.2 2.2-2.2l0.351 1.2-3.301 6.35c-2.933 4.833-6.232 8.767-9.899 11.8-2.867 2.366-4.283 3.55-4.25 3.55 0.833-0.233 0.517 0.75-0.95 2.95-1.833 2.767-3.684 5.883-5.55 9.35l-1.101-2.45c-0.166-0.434-0.466-0.934-0.899-1.5 0.533-0.533 0.967-1.066 1.3-1.6 0.8-1.334 1.4-2.45 1.8-3.35 0.134-0.301 0.417-1.084 0.851-2.351 0.366-1.033 0.699-1.75 1-2.15l0.1 0.45c0.134 1.034 0.3 1.733 0.5 2.101 0.467-0.267 0.967-0.967 1.5-2.101 0.634-1.3 1.184-2.166 1.65-2.6l9.449-8.35 1.349-1.599z" fill="#5f3c14"/>
				<path d="m121 57.7c0.367-0.9 0.333-1.65-0.1-2.25 0.666 0.1 1.366 0.316 2.1 0.649 0.566 0.3 1.05 0.684 1.45 1.15-0.167 0.633-0.3 1.7-0.4 3.2-0.166-0.4-0.416-0.7-0.75-0.9-0.333-0.233-0.683-0.283-1.05-0.15-0.267 0.1-0.65 0.5-1.15 1.2l-0.949 1.55c-0.434 0.633-1.033 1.667-1.801 3.1-0.066 0.133-0.333 0.467-0.8 1 0.267-0.634 0.667-1.75 1.2-3.35 0.5-1.466 0.917-2.55 1.25-3.25 0.467-0.799 0.8-1.449 1-1.949z" fill="#5f3c14"/>
				<path d="m124.05 60.45c0.101-1.5 0.233-2.567 0.4-3.2 0.6 0.7 1.133 1.65 1.6 2.85-0.6 1-1.333 1.733-2.2 2.2 0.433-0.533 0.5-1.15 0.2-1.85z" fill="#5f3c14"/>
				<path d="m114.8 73.1c-0.3 0.167-0.783 0.367-1.45 0.601l-5.15 5.399c-0.601 0.767-1.017 1.317-1.25 1.65 0.066-0.634 0.1-1.583 0.1-2.85l6.55-7.75c0.434-0.433 0.768-0.633 1-0.6 0.034 0.367 0.084 0.566 0.15 0.6 0.1 0.1 0.333 0.1 0.7 0 0.5-0.1 1.25-0.317 2.25-0.65 0.333 0.6 0.1 1.3-0.7 2.1-0.6 0.567-1.333 1.067-2.2 1.5z" fill="#5f3c14"/>
				<path d="m112.95 73.25c-0.967 0.8-1.467 1.217-1.5 1.25-1.233 1.6-1.983 2.717-2.25 3.35-0.634 1.634-1.833 3.134-3.601 4.5 0.334-0.5 0.584-1.1 0.75-1.8 0.067-0.167 0.084-0.366 0.051-0.6v-0.65c0-0.066 0.133-0.4 0.399-1 0.033-0.1 0.5-0.767 1.4-2 0.333-0.5 0.6-0.833 0.8-1 0.134-0.133 0.35-0.267 0.65-0.4 0.366-0.133 0.583-0.233 0.649-0.3 0.167-0.1 0.567-0.433 1.2-1 0.467-0.466 0.816-0.8 1.05-1 0.467-0.333 0.917-0.55 1.351-0.649 0.167 0.199-0.149 0.632-0.949 1.299z" fill="#a16c28"/>
				<path d="m103.75 81.8c-0.5 0.5-0.983 1.316-1.45 2.45-0.633 1.5-1.017 2.383-1.149 2.65-0.167 0.266-0.567 0.699-1.2 1.3-0.7 0.633-1.167 1.116-1.4 1.45l-0.649-0.4c2.066-3.6 4.1-6.884 6.1-9.85l0.05 0.1 0.05-0.3 2.2-3.05v0.05c-1.1 2.133-1.899 4.116-2.399 5.95 0-0.133-0.05-0.25-0.15-0.35z" fill="#a16c28"/>
				<path d="m115.85 60.35 1.7-3.35c0.067-0.167 0.184-0.35 0.351-0.55 0.333-0.367 0.733-0.65 1.199-0.851 0 0.667-0.183 1.284-0.55 1.851-0.066 0.166-0.2 0.383-0.399 0.649-0.134 0.267-0.184 0.5-0.15 0.7l0.05 1.2c-0.1 0.833-0.316 1.8-0.649 2.9-0.233 0.9-0.567 1.833-1 2.8-0.4 0.833-0.733 1.383-1 1.649 0.033-0.433-0.067-1-0.301-1.7-0.166 0.3-0.399 0.867-0.699 1.7-0.267 0.733-0.551 1.267-0.851 1.601-1.7 2-3.267 3.666-4.7 5-0.276 0.263-0.568 0.555-0.875 0.875 1.012-0.634 1.787-1.159 2.325-1.575 0.867-0.733-0.166 0.417-3.1 3.45-2.867 2.966-3.983 4.017-3.351 3.149 1.568-2.099 2.943-3.774 4.125-5.024-0.358 0.227-0.75 0.468-1.175 0.725l3.9-6.35c1.9-3.066 3.616-6.015 5.15-8.849z" fill="#a16c28"/>
				<path d="m116.6 67.95c0.5-0.3 0.867-0.534 1.101-0.7 0.434-0.3 0.733-0.566 0.899-0.8 0.101-0.167 0.351-0.834 0.75-2 0.301-0.867 0.65-1.4 1.051-1.601-0.567 1.867-1.15 3.267-1.75 4.2-0.834 1.3-1.867 2.017-3.101 2.15 0.067-0.399 0.417-0.816 1.05-1.249z" fill="#a16c28"/>
				<path d="m105 88.6-0.45 1.5c-0.333 1.033-0.6 1.65-0.8 1.851-0.267 0.333-1.616 0.583-4.05 0.75l-1.75-2.701c-0.101-0.3-0.117-0.65-0.05-1.05 0.1-0.8 0.5-1.4 1.199-1.8 0.801-0.467 1.5-0.634 2.101-0.5 0.399 0.1 0.983 0.399 1.75 0.899 0.533 0.366 0.767 0.634 0.7 0.8 0 0.101-0.067 0.167-0.2 0.2l1.55 0.051z" fill="#5f3c14"/>
				<path d="m94.65 97.5c1.1-2.267 1.816-3.884 2.149-4.85 0.2-0.601 0.634-1.7 1.3-3.301l1-2.199 0.9-0.2c0.767 0 1.517 0.316 2.25 0.95 1.167 1 1.967 2.083 2.4 3.25-1.101 2.433-2.084 3.816-2.95 4.149l-7.05 2.201z" fill="#3b260c"/>
				<path d="m121.95 67.45c1.066-1.934 1.833-3.417 2.3-4.45 0.767-1.833 1.033-3.483 0.8-4.95 0.667 1 1.117 2.083 1.351 3.25 0 0.134-0.117 0.367-0.351 0.7-1.566 3.566-3.616 7.017-6.149 10.35-1.067 1.434-3.084 3.684-6.051 6.75-2.699 2.8-4.649 5.084-5.85 6.851-1.833 2.767-3.684 5.883-5.55 9.35l-1.101-2.45c-0.199-0.5-0.6-1.116-1.199-1.85l2.75-2.1 0.55 0.25c0.5-0.101 1.167-0.768 2-2 1.033-1.567 2.517-3.567 4.45-6 1.366-1.8 3.066-3.6 5.1-5.4 1.267-1.2 2.184-2.117 2.75-2.75 2.134-2.268 3.533-4.118 4.2-5.551z" fill="#3b260c"/>
				<path d="m120.35 60.6c0.534-2.033 1.084-3.666 1.65-4.899l1 0.399 0.6 0.351c-1.199 0.833-2.066 1.783-2.6 2.85l-0.65 1.299z" fill="#3b260c"/>
				<path d="m78.9 105.9c0.333-2.134 1.833-6.2 4.5-12.2 0.7-1.667 1.25-2.95 1.65-3.851 0.733-1.699 1.25-2.583 1.55-2.649 0.301-0.067 1.351 0.033 3.15 0.3 2.033 0.3 3.267 0.45 3.7 0.45 1.066 0.066 2.116-0.067 3.149-0.4 0.2-0.467 0.483-0.884 0.851-1.25 0.767-0.8 1.633-1.033 2.6-0.7 1.667 0.334 2.934 1.283 3.8 2.851 0.434 0.767 0.7 1.5 0.801 2.2l2.1 0.949c1.8 0.801 3.733 1.601 5.8 2.4 2.167 1.1 3.417 1.9 3.75 2.4 0.233 0.333 0.017 1.116-0.649 2.35-0.634 1.166-1.467 2.35-2.5 3.55-0.634 0.767-2.417 2.95-5.351 6.55-3.166 3.533-6.3 6.134-9.399 7.801-1.867 1.033-3.717 1.816-5.551 2.35-2.267-0.4-4.216-0.667-5.85-0.8-0.7-0.034-1.4-0.034-2.1 0l-5.65-0.75c-0.566-1.267-0.833-3.167-0.8-5.7-1e-3 -1.935 0.149-3.885 0.449-5.851z" fill="#7b7d80"/>
				<path d="m89.3 118.25-0.45 0.15-1.3-0.15c2.7-0.733 5.384-1.783 8.05-3.15 6-2.967 10.7-7.35 14.101-13.149 1.566-2.667 2.533-4.367 2.899-5.101 0.4-0.934 0.5-1.6 0.301-2-0.334-0.533-0.767-1-1.301-1.399l1.45 0.45c0.5 0.232 1.317 0.55 2.45 0.949-0.066 0.2-0.066 0.417 0 0.65 0.066 0.133 0.15 0.316 0.25 0.55 0.134 0.366-0.667 1.634-2.4 3.8-3.033 3.767-4.866 6.066-5.5 6.9-2.066 2.767-4.85 5.184-8.35 7.25-3.1 1.833-6.5 3.25-10.2 4.25z" fill="#8c8d8e"/>
				<path d="m88.85 118.4 0.45-0.15c7.733-2.1 13.601-5.867 17.601-11.3 2.199-3 4.533-6.5 7-10.5 0.199 0.333 0.6 0.583 1.199 0.75-0.066 0.733-0.316 1.399-0.75 2-0.232 0.3-0.683 0.767-1.35 1.399-0.066 0.066-0.184 0.134-0.35 0.2-0.2 0.033-0.334 0.101-0.4 0.2-0.167 0.133-0.283 0.517-0.35 1.15-0.4 0.666-1.134 1.716-2.2 3.149-0.7 1.2-1.8 2.566-3.3 4.101-2.301 2.3-3.517 3.516-3.65 3.649-2.066 2.434-5.333 4.167-9.8 5.2l-1.8 0.45-2.3-0.298z" fill="#504f52"/>
				<path d="m88.45 109.85c0.2-0.166 0.533-0.35 1-0.55 0.467-0.233 0.8-0.434 1-0.6 0.2-0.2 0.383-0.483 0.55-0.851 0.233-0.434 0.417-0.733 0.55-0.899 0.233-0.3 0.65-0.65 1.25-1.05 0.601-0.4 1.017-0.768 1.25-1.101 0.267-0.434 0.55-1.083 0.851-1.95 0.366-1.133 0.583-1.767 0.649-1.899 0.3-0.934 0.55-1.684 0.75-2.25 0.4-1 0.8-1.55 1.2-1.65-0.2-0.8-0.1-1.384 0.3-1.75l-0.6-0.6c0.1 0.033 0.283 0.017 0.55-0.05-0.3-0.5-0.55-0.834-0.75-1l1.25-0.2c-0.167-0.267-0.3-0.45-0.4-0.55l0.351-0.25c-0.233-0.367-0.283-0.65-0.15-0.851 0.134-0.2 0.384-0.283 0.75-0.25-0.1-0.267-0.316-0.517-0.649-0.75-0.367-0.2-0.634-0.366-0.801-0.5l0.101-0.2c0.434-0.066 0.767-0.199 1-0.399l-0.65-0.3v-0.05l1.148-0.35c-0.333-0.3-0.601-0.467-0.8-0.5l1.95-0.5-0.35-0.6c0.134 0 0.333-0.018 0.6-0.051l-0.5-1c0.834 0.233 1.617 0.767 2.351 1.601 0.399 0.5 0.967 1.333 1.7 2.5l-0.4 0.7c-0.467-0.734-0.883-1.2-1.25-1.4l0.05 0.8-0.649-0.899c0.133 0.232 0.267 0.683 0.399 1.35-0.233 0-0.399-0.017-0.5-0.05-0.166-0.034-0.35-0.15-0.55-0.351l0.35 1.2c-0.5-0.033-0.833-0.1-1-0.2 0.467 0.801 0.667 1.467 0.601 2-0.434 0.033-0.75 0.033-0.95 0 0.167 0.301 0.316 0.816 0.45 1.551-0.134-0.067-0.333-0.101-0.601-0.101-0.3 0-0.482-0.017-0.55-0.05 0.233 0.434 0.317 0.833 0.25 1.2-0.033 0.333-0.25 0.517-0.649 0.55 0.3 0.566 0.166 1.233-0.4 2-0.3 0.4-0.75 0.916-1.35 1.55-0.5 0.733-1.067 2.05-1.7 3.95l-1.351 2.5c0.768-0.667 1.4-1.25 1.9-1.75 0.967-0.867 1.333-1.5 1.1-1.9l0.801-1.55c0.066-0.467 0.233-0.85 0.5-1.149 0.133-0.167 0.383-0.334 0.75-0.5 0.366-0.167 0.616-0.351 0.75-0.551l-0.201-0.65c0.533-0.167 1.333-0.384 2.399-0.65l-0.5-0.149c0.2-0.034 0.5-0.234 0.9-0.601l-0.4-0.649c0.733-0.4 1.217-0.75 1.45-1.051-0.166-0.366-0.333-0.633-0.5-0.8l1.601-0.5c-0.5-0.366-0.834-0.583-1-0.649l0.399-0.25c0.233-0.167 0.417-0.25 0.55-0.25l-1-0.4c0.2 0 0.601-0.184 1.2-0.55-0.267-0.034-0.5-0.15-0.7-0.351l0.25-0.75 0.2 0.301 0.95 0.3c0.267 0.566 0.833 1.033 1.7 1.399 0.5 0.2 1.184 0.467 2.05 0.801 0.733 0.466 1.3 1.149 1.7 2.05 0.434 0.933 0.033 1.033-1.2 0.3l0.25 0.449c-1.3-0.167-2.283-0.267-2.95-0.3l0.851 0.55c0.267 0.233 0.449 0.517 0.55 0.85-0.2 0.033-0.583-0.017-1.15-0.149-0.5-0.134-0.85-0.134-1.05 0 0.634 0.933 0.967 1.55 1 1.85-1.167-0.667-2.167-0.834-3-0.5 0.167 0.267 0.417 0.666 0.75 1.2 0.3 0.466 0.5 0.899 0.6 1.3-0.933-0.3-1.5-0.467-1.699-0.5-0.7-0.167-1.217-0.15-1.551 0.05 0.134 0.233 0.367 0.601 0.7 1.101 0.3 0.466 0.517 0.833 0.65 1.1-1.267-0.367-2.15-0.584-2.65-0.65 0.533 0.801 0.851 1.4 0.95 1.801-0.9-0.2-1.566-0.301-2-0.301-0.733 0-0.866 0.467-0.4 1.4-0.5-0.1-0.85-0.15-1.05-0.15-0.333-0.033-0.399 0.25-0.2 0.851-0.666-0.233-1.1-0.233-1.3 0-0.166 0.2-0.217 0.666-0.149 1.399-0.334-0.199-0.584-0.233-0.75-0.1-0.167 0.133-0.167 0.4 0 0.8-1.334-0.434-1.717-0.1-1.15 1-0.533 0.033-0.934 0.101-1.2 0.2 0.267 0.666 0.2 1.017-0.2 1.05-0.199 0.033-0.666-0.05-1.399-0.25 0.2-0.134 0.316-0.25 0.35-0.35-0.566 0-1.267 0.166-2.1 0.5-0.8 0.3-1.467 0.633-2 1l-0.95 0.7-1.2 0.6h-0.1c0.366-0.2 0.767-0.65 1.2-1.35 0.464-0.836 0.814-1.352 1.047-1.552z" fill="#747475"/>
				<path d="m89 97.7c-0.167-1.034-0.35-1.8-0.55-2.3 0.133 0 0.333-0.084 0.6-0.25-0.3-1.234-0.433-2.034-0.399-2.4-0.2-1.134-0.217-1.85-0.051-2.15l-0.6-0.8c-0.233-0.333-0.35-0.616-0.35-0.85 0.733 0.533 1.967 0.8 3.699 0.8 1.534 0 2.768-0.167 3.7-0.5l0.7 0.9c-0.2 0.3-0.333 0.833-0.4 1.6-0.066 0.833-0.166 1.4-0.3 1.7l-0.399 0.65c0.5-1.467 0.616-2.816 0.35-4.05l-0.7-0.3-1.899 0.5c0.199 0.1 0.416 0.283 0.649 0.55l0.05 1.351c0.034 0.066-0.05 0.166-0.25 0.3-0.166 0.1-0.25 0.2-0.25 0.3 0 0.166 0.084 0.366 0.25 0.6 0.167 0.233 0.25 0.4 0.25 0.5-0.033 0.334-0.033 0.884 0 1.65-0.066 0.233-0.25 0.416-0.55 0.55-0.233 0.101-0.316 0.283-0.25 0.55-0.333 0.434-0.733 1.101-1.2 2-0.533 0.967-0.933 1.634-1.199 2-0.733 1.066-1.634 1.983-2.7 2.75-0.033-0.267 0.017-0.483 0.149-0.649 0.2-0.267 0.317-0.434 0.351-0.5 0.066-0.167 0.167-0.684 0.3-1.55 0.066-0.768 0.134-1.351 0.2-1.75 0.132-0.669 0.399-1.069 0.799-1.202z" fill="#747475"/>
				<path d="m78.9 105.9c0.333-2.134 1.833-6.2 4.5-12.2 1.2-3 2.067-4.95 2.6-5.851 0.333 0.267 0.65 0.384 0.95 0.351l0.6 0.05c-0.366 0.6-0.866 1.6-1.5 3-0.566 1.3-0.967 2.333-1.2 3.1-0.167 0.566-0.767 1.684-1.8 3.351-1.066 1.733-1.716 2.95-1.95 3.649-1.267 3.834-1.867 7.25-1.8 10.25 0.034 0.834 0.067 1.95 0.1 3.351 0.067 1.1 0.184 1.95 0.35 2.55l-0.5-0.05c-0.566-1.267-0.833-3.167-0.8-5.7 0-1.935 0.15-3.885 0.45-5.851z" fill="#8c8d8e"/>
				<path d="m100.35 91.6c0.167 0.101 0.5 0.167 1 0.2l-0.35-1.2c0.2 0.2 0.384 0.316 0.55 0.351 0.101 0.033 0.267 0.05 0.5 0.05-0.133-0.667-0.267-1.117-0.399-1.35l0.649 0.899-0.05-0.8c0.367 0.2 0.783 0.666 1.25 1.4-0.366 0.5-0.633 0.699-0.8 0.6l-0.3 0.3c-0.434 0.2-0.717 0.55-0.851 1.05-0.066 0.301-0.166 0.767-0.3 1.4-0.3 0.633-0.85 1.4-1.65 2.3-0.267 0.434-0.566 1.116-0.899 2.05 0.399-0.3 0.8-0.684 1.2-1.149 0.3-0.367 0.666-0.934 1.1-1.7 0.467-0.834 0.8-1.4 1-1.7 0.134-0.2 0.483-0.583 1.05-1.149 0.5-0.5 0.851-0.934 1.05-1.301 0.2 0.2 0.434 0.316 0.7 0.351-0.6 0.366-1 0.55-1.2 0.55l1 0.4c-0.133 0-0.316 0.083-0.55 0.25l-0.399 0.25c0.166 0.066 0.5 0.283 1 0.649l-1.601 0.5c0.167 0.167 0.334 0.434 0.5 0.8-0.233 0.301-0.717 0.65-1.45 1.051l0.4 0.649c-0.4 0.366-0.7 0.566-0.9 0.601l0.5 0.149c-1.066 0.267-1.866 0.483-2.399 0.65l0.2 0.649c-0.134 0.2-0.384 0.384-0.75 0.551-0.367 0.166-0.617 0.333-0.75 0.5-0.267 0.3-0.434 0.683-0.5 1.149l-0.801 1.55c0.233 0.4-0.133 1.033-1.1 1.9-0.5 0.5-1.133 1.083-1.9 1.75l1.351-2.5c0.633-1.9 1.2-3.217 1.7-3.95 0.102-0.108 0.202-0.216 0.3-0.325 0.451-0.484 0.801-0.893 1.05-1.225 0.566-0.767 0.7-1.434 0.4-2 0.399-0.033 0.616-0.217 0.649-0.55 0.067-0.367-0.017-0.767-0.25-1.2 0.067 0.033 0.25 0.05 0.55 0.05 0.268 0 0.467 0.033 0.601 0.101-0.134-0.734-0.283-1.25-0.45-1.551 0.2 0.033 0.517 0.033 0.95 0 0.066-0.534-0.135-1.2-0.601-2z" fill="#656869"/>
				<path d="m92.3 96.6 0.4-0.5c0.934-0.833 1.583-1.5 1.95-2-0.533 1.566-1.301 2.5-2.301 2.801l-0.049-0.301z" fill="#656869"/>
				<path d="m92.4 90.25 1.899-0.5 0.7 0.3c0.267 1.233 0.15 2.583-0.35 4.05-0.367 0.5-1.017 1.167-1.95 2l-0.4 0.5c-0.066-0.267 0.017-0.449 0.25-0.55 0.3-0.134 0.483-0.316 0.55-0.55-0.033-0.767-0.033-1.316 0-1.65 0-0.1-0.083-0.267-0.25-0.5-0.166-0.233-0.25-0.434-0.25-0.6 0-0.1 0.084-0.2 0.25-0.3 0.2-0.134 0.284-0.233 0.25-0.3l-0.049-1.35c-0.234-0.267-0.45-0.45-0.65-0.55z" fill="#656869"/>
				<path d="m104.05 89.35c0.334 0.601 0.434 1.184 0.3 1.75l-0.45-0.65c0.2-0.433 0.25-0.8 0.15-1.1z" fill="#505152"/>
				<polygon points="104.1 91.85 103.5 91.15 103.9 90.45 104.35 91.1" fill="#505152"/>
				<path d="m102.7 91.75c0.167 0.1 0.434-0.1 0.8-0.6l0.6 0.699c-0.199 0.367-0.55 0.801-1.05 1.301-0.566 0.566-0.916 0.949-1.05 1.149-0.2 0.3-0.533 0.866-1 1.7-0.434 0.767-0.8 1.333-1.1 1.7-0.4 0.466-0.801 0.85-1.2 1.149 0.333-0.934 0.633-1.616 0.899-2.05 0.801-0.899 1.351-1.667 1.65-2.3 0.134-0.634 0.233-1.1 0.3-1.4 0.134-0.5 0.417-0.85 0.851-1.05l0.3-0.298z" fill="#505152"/>
				<path d="m87.55 88.25c0.167-0.334 0.3-0.5 0.4-0.5 0.167-0.066 0.333-0.217 0.5-0.45 1.1 0.134 2.767 0.351 5 0.65 1.066 0.066 2.116-0.067 3.149-0.4 0.2-0.467 0.483-0.884 0.851-1.25 0.767-0.8 1.633-1.033 2.6-0.7 1.601 0.3 2.8 1.134 3.601 2.5-0.867-0.8-1.783-1.383-2.75-1.75-0.967-0.399-1.783-0.483-2.45-0.25-0.601 0.2-1.184 0.684-1.75 1.45-0.3 0.366-0.533 0.717-0.7 1.05l-4.151 0.1c-0.5 0-1.25-0.067-2.25-0.2-1.067-0.167-1.75-0.25-2.05-0.25z" fill="#8c8d8e"/>
				<path d="m86.95 88.2c-0.3 0.033-0.617-0.084-0.95-0.351 0.267-0.434 0.467-0.649 0.6-0.649 0.167-0.067 0.784-0.034 1.851 0.1-0.167 0.233-0.333 0.384-0.5 0.45-0.101 0-0.233 0.166-0.4 0.5l-0.601-0.05z" fill="#8c8d8e"/>
				<path d="m97.6 86.95c0.4-0.167 0.65-0.284 0.75-0.351l1.4-0.1c-0.133 0.267-0.434 0.566-0.9 0.9-0.399 0.3-0.649 0.583-0.75 0.85-0.033 0.1-0.133 0.467-0.3 1.1h-0.1l0.1 0.051-0.149 0.5-0.2 0.199-0.251 0.101 0.149 0.1-0.1 0.15c0 0.066 0.033 0.183 0.1 0.35 0.101 0.167 0.134 0.283 0.101 0.351-0.066 0.199-0.533 0.933-1.4 2.199l-0.8 0.65 0.05-0.45c0.067-0.333 0.233-0.733 0.5-1.2 0.267-0.533 0.434-0.916 0.5-1.149 0.033-0.601 0.101-1.067 0.2-1.4l0.3-0.75c-0.066-0.3-0.1-0.5-0.1-0.6l0.25-1.05c0.133-0.201 0.35-0.351 0.65-0.451z" fill="#8c8d8e"/>
				<polygon points="97.2 90.2 97.45 90.1 97.35 90.3" fill="#8c8d8e"/>
				<path d="m80.1 115.95c-0.2-0.601-0.283-1.05-0.25-1.351l0.3 0.851c0.1-0.233 0.15-0.517 0.15-0.851l0.35 0.95 1.1 0.2-1.2 0.9c3.3 0.933 6.601 0.933 9.9 0-0.733 0.232-1.467 0.566-2.2 1l-1.1 0.55h-0.15c-0.7-0.034-1.4-0.034-2.1 0l-4.55-0.601-0.05-0.35c0.033-0.265-0.033-0.698-0.2-1.298z" fill="#747475"/>
				<path d="m91.9 116.12c1.185-0.436 2.318-1.044 3.399-1.825l2.351-0.8c-0.767 0.633-1.75 1.2-2.95 1.7-0.278 0.093-1.211 0.402-2.8 0.925z" fill="#747475"/>
				<path d="m87.2 112.85v-0.15h-0.15l-0.1-0.101h-0.15l0.7-0.449c1.2-0.768 2.033-1.184 2.5-1.25h0.9c0.1-0.067 0.316-0.301 0.649-0.7l0.65 0.1c-0.233 0.2-0.55 0.45-0.95 0.75-0.1 0.066-0.267 0.25-0.5 0.55-0.233 0.267-0.434 0.45-0.6 0.551 0.1 0.1 0.217 0.216 0.35 0.35 0.134 0.133 0.3 0.2 0.5 0.2-0.333 0.2-0.583 0.333-0.75 0.399 0.634 0.566 1.934 0.7 3.9 0.4-1.267 0.267-2.2 0.5-2.801 0.7 0.534 0.466 1.301 0.533 2.301 0.2 1.199-0.4 1.949-0.567 2.25-0.5l-0.599 0.4c-2.267 0.8-3.983 1.167-5.149 1.101 0.333-0.034 0.683-0.167 1.05-0.4-0.601 0.166-1.05 0.283-1.351 0.35-0.533 0.101-1 0.066-1.399-0.1 0.167-0.1 0.399-0.283 0.7-0.55l-0.7-0.101 0.25-0.3h0.1l-1.601-1.45z" fill="#747475"/>
				<path d="m87.5 112.15 0.95-0.7c0.533-0.367 1.2-0.7 2-1 0.833-0.334 1.533-0.5 2.1-0.5-0.033 0.1-0.149 0.216-0.35 0.35l-0.65-0.1c-0.333 0.399-0.55 0.633-0.649 0.7h-0.901c-0.467 0.067-1.3 0.483-2.5 1.25z" fill="#747475"/>
				<path d="m80.55 116.65 1.2-0.9 1.6 0.25 1.65-0.7c0.533-0.033 1.184-0.167 1.95-0.399 0.434-0.134 1.017-0.334 1.75-0.601l-0.25 0.3 0.7 0.101c-0.301 0.267-0.533 0.45-0.7 0.55 0.399 0.166 0.866 0.2 1.399 0.1 0.301-0.066 0.75-0.184 1.351-0.35-0.367 0.233-0.717 0.366-1.05 0.4 1.166 0.066 2.883-0.301 5.149-1.101-1.2 0.866-2.467 1.517-3.8 1.95l-1.05 0.4c-3.299 0.933-6.599 0.933-9.899 0z" fill="#747475"/>
				<path d="m80.9 109.15c0 0.033 0.117 0.333 0.35 0.899 0.267-0.233 0.467-0.8 0.6-1.7 0.133-0.833 0.316-1.333 0.55-1.5 0.034 0.467-0.1 1.283-0.4 2.45-0.6 0.9-0.883 1.717-0.85 2.45 0.1 0.8 0.467 1.583 1.1 2.35l0.25 0.301c-0.7-0.101-1.233-0.634-1.6-1.601 0.133 0.767 0.133 1.366 0 1.8-0.333-0.767-0.5-1.166-0.5-1.199l-0.1 1.199c-0.4-1.199-0.667-2.1-0.8-2.699l0.6 0.949c0.1-0.3 0.217-0.85 0.35-1.649l0.3 0.6c0.067-1.2 0.117-2.083 0.15-2.65z" fill="#747475"/>
				<path d="m81.75 115.75-1.1-0.2-0.35-0.95 0.1-1.199c0 0.033 0.167 0.433 0.5 1.199 0.133-0.434 0.133-1.033 0-1.8 0.367 0.967 0.9 1.5 1.6 1.601l0.45 0.399-1.2 0.95z" fill="#747475"/>
				<polygon points="87.2 112.7 87.2 112.85 87.05 112.7" fill="#747475"/>
				<path d="m85 115.3-1.65 0.7-1.6-0.25 1.2-0.95c0.567 0.4 1.25 0.566 2.05 0.5z" fill="#747475"/>
				<path d="m82 109.3 0.65-0.85c0 0.633 0.1 1.149 0.3 1.55 0.1-1.033 0.4-2.05 0.9-3.05v1.3c0 0.5 0.083 0.916 0.25 1.25 0.4-0.233 0.667-0.434 0.8-0.6-0.433 1.466-0.433 2.566 0 3.3 0.2 0.3 0.417 0.5 0.65 0.6-0.633 0.066-1.133 0.066-1.5 0-0.5-0.066-1.05-0.3-1.65-0.7-0.466-0.333-0.716-0.5-0.75-0.5 0.067-0.233 0.117-0.566 0.15-1 0-0.267 0.067-0.7 0.2-1.3z" fill="#747475"/>
				<polygon points="86.8 112.6 86.95 112.6 87.05 112.7 86.65 112.7" fill="#747475"/>
				<path d="m86.65 114.2c0.333-0.367 0.517-0.817 0.55-1.351l1.55 1.4-2.1-0.049z" fill="#747475"/>
				<path d="m85 115.3c0.7-0.3 1.25-0.667 1.65-1.1l2.1 0.05-0.05 0.05c-0.733 0.267-1.316 0.467-1.75 0.601-0.766 0.232-1.417 0.366-1.95 0.399z" fill="#747475"/>
				<path d="m85.55 112.8 0.3 0.05 0.65-0.149h0.15l-1 0.7c-0.267 0.166-0.8 0.283-1.601 0.35-0.133-0.066-0.316-0.217-0.55-0.45l0.2 0.7-0.15 0.3-0.3 0.25-0.749-0.151-0.25-0.301c-0.633-0.767-1-1.55-1.1-2.35-0.033-0.733 0.25-1.55 0.85-2.45-0.133 0.601-0.2 1.033-0.2 1.3-0.033 0.434-0.083 0.767-0.15 1 0.034 0 0.284 0.167 0.75 0.5 0.6 0.4 1.15 0.634 1.65 0.7 0.367 0.067 0.867 0.067 1.5 1e-3z" fill="#747475"/>
				<path d="m83.5 113.3c0.233 0.233 0.417 0.384 0.55 0.45l-0.35 0.25-0.2-0.7z" fill="#747475"/>
				<polygon points="82.5 114.4 83.25 114.55 82.95 114.8" fill="#747475"/>
				<polygon points="83.55 114.3 83.7 114 83.85 114.75 83.25 114.55" fill="#747475"/>
				<path d="m86.65 114.2h-1.1c-0.667-0.067-1.167-0.217-1.5-0.45 0.8-0.066 1.334-0.184 1.601-0.35l1-0.7h0.399l0.15 0.149c-0.033 0.534-0.217 0.984-0.55 1.351z" fill="#747475"/>
				<path d="m85 115.3c-0.8 0.066-1.483-0.1-2.05-0.5l0.3-0.25 0.6 0.2-0.15-0.75 0.35-0.25c0.333 0.233 0.833 0.383 1.5 0.45h1.101c-0.401 0.43-0.951 0.8-1.651 1.1z" fill="#747475"/>
				<path d="m113.9 96.45 0.649-1.4 0.101 0.05c0.033 0.2-0.017 0.384-0.15 0.551-0.066 0.1-0.184 0.216-0.35 0.35l-0.25 0.449z" fill="#3e3d40"/>
				<path d="m106.4 109.4c1.5-1.534 2.6-2.9 3.3-4.101 1.066-1.434 1.8-2.483 2.2-3.149 0.066-0.634 0.183-1.018 0.35-1.15 0.066-0.1 0.2-0.167 0.4-0.2 0.166-0.066 0.283-0.134 0.35-0.2 0.667-0.633 1.117-1.1 1.35-1.399 0.434-0.601 0.684-1.267 0.75-2-0.6-0.167-1-0.417-1.199-0.75l0.25-0.45c0.166-0.134 0.283-0.25 0.35-0.35 0.134-0.167 0.184-0.351 0.15-0.551 0.933 0.566 1.483 1 1.649 1.301 0.233 0.333 0.017 1.116-0.649 2.35-0.634 1.166-1.467 2.35-2.5 3.55-0.634 0.767-2.417 2.95-5.351 6.55-3.166 3.533-6.3 6.134-9.399 7.801-1.867 1.033-3.717 1.816-5.551 2.35l-1.699-0.3 1.8-0.45c4.467-1.033 7.733-2.767 9.8-5.2 0.133-0.136 1.349-1.352 3.649-3.652z" fill="#3e3d40"/>
			</g>
</g>
</svg>
