<?xml version="1.0" encoding="UTF-8"?>
<svg viewBox="0 0 313.7375 313.85" xmlns="http://www.w3.org/2000/svg">
 <g transform="matrix(1.25,0,0,-1.25,0,313.85)">
  <g transform="scale(.24)">
   <path d="m1045.8 979.69c0 44.279-21.7 66.469-65.268 66.469h-927.39c-35.387 0-53.121-18.48-53.121-55.406v-936.49c0-36.16 17.734-54.262 53.121-54.262h938.4c36.157 0 54.257 18.102 54.257 54.262v925.43zm-59.604-872.6c0-19.114-3.125-31.871-9.426-38.117-6.246-6.2461-18.633-9.3711-37.109-9.3711h-833.45c-20.695 0-33.613 2.914-38.828 8.8437-5.1367 5.875-7.7305 18.738-7.7305 38.645v833.03c0 30.914 15.484 46.399 46.558 46.399h833.45c31.078 0 46.535-15.485 46.535-46.399v-833.03" fill="#2f2e2f"/>
   <path d="m239.7 256.16h-45.582v-115.09h569.88v714.47l-1.855 5.48v5.586l-1.797 3.52-1.906 5.582-1.747 3.523-3.652 3.703c-7.359 12.442-23.93 19.828-38.434 18.266h-187.98l-7.359-1.801-5.481-1.746-7.383-1.934-5.429-3.625-5.582-1.8-3.52-3.68c-22.871-26.945-18.266-38.113-18.422-74.934l-56.433-38.378v-29.141h169.69v31.047l-58.34 38.273v18.371l1.696 1.746v7.411l2.011 1.746v1.961l1.696 1.718 1.957 1.746 1.75 1.934 1.695 1.746 3.703 1.961 1.961 1.719h7.25l7.305 1.75h131.55l3.653-1.75h5.398l3.707-1.719h1.746v-1.961l1.961-1.746 1.746-1.934 1.957-1.746v-1.718l1.696-3.707v-1.93l1.8-1.75v-657.83h-436.47l-5.481 1.746h-3.675l-5.426 1.961-3.68 1.691-3.68 2.012-3.652 1.695-1.773 3.703-3.68 3.707-1.906 1.696-1.801 5.504v3.707l-1.719 3.652v5.453l-1.957 7.359v32.766" fill="#988a4a"/>
   <path d="m239.7 256.16h-45.582v-115.09h569.88v714.47l-1.855 5.48v5.586l-1.797 3.52-1.906 5.582-1.747 3.523-3.652 3.703c-7.359 12.442-23.93 19.828-38.434 18.266h-187.98l-7.359-1.801-5.481-1.746-7.383-1.934-5.429-3.625-5.582-1.8-3.52-3.68c-22.871-26.945-18.266-38.113-18.422-74.934l-56.433-38.378v-29.141h169.69v31.047l-58.34 38.273v18.371l1.696 1.746v7.411l2.011 1.746v1.961l1.696 1.718 1.957 1.746 1.75 1.934 1.695 1.746 3.703 1.961 1.961 1.719h7.25l7.305 1.75h131.55l3.653-1.75h5.398l3.707-1.719h1.746v-1.961l1.961-1.746 1.746-1.934 1.957-1.746v-1.718l1.696-3.707v-1.93l1.8-1.75v-657.83h-436.47l-5.481 1.746h-3.675l-5.426 1.961-3.68 1.691-3.68 2.012-3.652 1.695-1.773 3.703-3.68 3.707-1.906 1.696-1.801 5.504v3.707l-1.719 3.652v5.453l-1.957 7.359v32.766z" fill="none" stroke="#41484d" stroke-miterlimit="2.613" stroke-width="3.8488"/>
   <path d="m431.55 731.36h1.723l1.957-1.879h3.679v-1.8h1.797v-1.907l1.75-1.773v-10.852l-1.75-1.957v-1.722h-1.797v-1.957h-1.933l-1.746-1.723h-11.012v1.723h-1.774v1.957h-1.906v1.722h-1.773v3.707l-1.746 1.774v3.652l1.746 1.93v3.519h1.773v1.907h1.906v1.8h3.68l1.746 1.879h3.68" fill="#1bb0ed"/>
   <path d="m431.55 731.36h1.723l1.957-1.879h3.679v-1.8h1.797v-1.907l1.75-1.773v-10.852l-1.75-1.957v-1.722h-1.797v-1.957h-1.933l-1.746-1.723h-11.012v1.723h-1.774v1.957h-1.906v1.722h-1.773v3.707l-1.746 1.774v3.652l1.746 1.93v3.519h1.773v1.907h1.906v1.8h3.68l1.746 1.879h3.68z" fill="none" stroke="#41484d" stroke-miterlimit="2.613" stroke-width=".16292"/>
   <path d="m422.44 692.98h3.68v-1.773h3.52l1.906-1.906v-1.797h1.723v-3.629l1.957-1.934v-3.546l-1.957-1.93v-1.746l-1.723-1.961v-1.723h-1.906l-1.774-1.742h-1.746l-1.906-1.934h-3.68l-1.773 1.934h-1.746l-1.957 1.742h-1.723v1.723l-1.957 1.961v1.746l-1.723 1.93v3.546l1.723 1.934v3.629h1.957v1.797l1.723 1.906h3.703v1.773h3.679" fill="#1bb0ed"/>
   <path d="m422.44 692.98h3.68v-1.773h3.52l1.906-1.906v-1.797h1.723v-3.629l1.957-1.934v-3.546l-1.957-1.93v-1.746l-1.723-1.961v-1.723h-1.906l-1.774-1.742h-1.746l-1.906-1.934h-3.68l-1.773 1.934h-1.746l-1.957 1.742h-1.723v1.723l-1.957 1.961v1.746l-1.723 1.93v3.546l1.723 1.934v3.629h1.957v1.797l1.723 1.906h3.703v1.773h3.679z" fill="none" stroke="#41484d" stroke-miterlimit="2.613" stroke-width=".16292"/>
   <path d="m415.06 654.55v-1.774h5.476v-1.906h1.906v-1.801h1.774v-1.718l1.906-1.907v-5.476l-1.906-1.934v-1.75h-1.774v-1.718l-1.906-1.958h-1.773l-1.746-1.75h-5.637l-1.723 1.75h-1.957l-1.75 1.958v1.718h-1.769v12.785h1.769v1.801h1.75v1.906h5.637l1.723 1.774" fill="#1bb0ed"/>
   <path d="m415.06 654.55v-1.774h5.476v-1.906h1.906v-1.801h1.774v-1.718l1.906-1.907v-5.476l-1.906-1.934v-1.75h-1.774v-1.718l-1.906-1.958h-1.773l-1.746-1.75h-5.637l-1.723 1.75h-1.957l-1.75 1.958v1.718h-1.769v12.785h1.769v1.801h1.75v1.906h5.637l1.723 1.774z" fill="none" stroke="#41484d" stroke-miterlimit="2.613" stroke-width=".16292"/>
   <path d="m405.949,614.395c4.078.687 9.348-.661 9.11-5.426h1.957v-7.387l-1.957-1.769v-1.911h-1.723v-1.718h-1.957v-1.957c-10.242.527-6.988-2.227-12.785,3.675l-1.746,1.911v10.875h1.746v1.906h1.929v1.801h5.426" fill="#1bb0ed"/>
   <path d="m405.949,614.395c4.078.687 9.348-.661 9.11-5.426h1.957v-7.387l-1.957-1.769v-1.911h-1.723v-1.718h-1.957v-1.957c-10.242.527-6.988-2.227-12.785,3.675l-1.746,1.911v10.875h1.746v1.906h1.929v1.801h5.426z" fill="none" stroke="#41484d" stroke-miterlimit="2.613" stroke-width=".16292"/>
   <path d="m398.59 575.96h3.679l1.907-1.746 1.769-1.961 1.75-1.719v-7.383l-1.75-1.722v-1.797h-1.769v-1.883h-3.657v-1.801h-3.675v1.801h-3.731l-1.75 1.883v1.797h-1.879v10.824h1.879v1.961h1.75l1.957 1.746h3.52" fill="#1bb0ed"/>
   <path d="m398.59 575.96h3.679l1.907-1.746 1.769-1.961 1.75-1.719v-7.383l-1.75-1.722v-1.797h-1.769v-1.883h-3.657v-1.801h-3.675v1.801h-3.731l-1.75 1.883v1.797h-1.879v10.824h1.879v1.961h1.75l1.957 1.746h3.52z" fill="none" stroke="#41484d" stroke-miterlimit="2.613" stroke-width=".16292"/>
   <path d="m391.37 537.74h3.707v-1.957h1.774v-1.746h1.746v-3.652l1.929-1.961h-1.929v-5.449h-1.746v-1.696h-3.731v-1.961h-5.375v1.961h-3.679v1.696h-1.801v11.062h1.801v1.746h1.718v1.957h5.586" fill="#1bb0ed"/>
   <path d="m391.37 537.74h3.707v-1.957h1.774v-1.746h1.746v-3.652l1.929-1.961h-1.929v-5.449h-1.746v-1.696h-3.731v-1.961h-5.375v1.961h-3.679v1.696h-1.801v11.062h1.801v1.746h1.718v1.957h5.586z" fill="none" stroke="#41484d" stroke-miterlimit="2.613" stroke-width=".16292"/>
   <path d="m382.26 499.31h3.519l1.961-1.961h1.746v-3.493h1.879v-5.609h-1.879v-1.75l-1.746-1.957h-1.961v-1.695h-5.398l-1.801 1.695h-1.906v1.957h-1.719v9.106h1.719v1.746h1.906v1.961h3.68" fill="#1bb0ed"/>
   <path d="m382.26 499.31h3.519l1.961-1.961h1.746v-3.493h1.879v-5.609h-1.879v-1.75l-1.746-1.957h-1.961v-1.695h-5.398l-1.801 1.695h-1.906v1.957h-1.719v9.106h1.719v1.746h1.906v1.961h3.68z" fill="none" stroke="#41484d" stroke-miterlimit="2.613" stroke-width=".16292"/>
   <path d="m374.96 460.88h3.625v-1.746h1.801v-1.961h1.879v-7.145h-1.879v-1.96l-1.801-1.747h-9.105v1.747h-1.957v9.105l1.957 1.961h1.722v1.746h3.758" fill="#1bb0ed"/>
   <path d="m374.96 460.88h3.625v-1.746h1.801v-1.961h1.879v-7.145h-1.879v-1.96l-1.801-1.747h-9.105v1.747h-1.957v9.105l1.957 1.961h1.722v1.746h3.758z" fill="none" stroke="#41484d" stroke-miterlimit="2.613" stroke-width=".16292"/>
   <path d="m367.52 422.5h1.957v-1.801h1.722v-1.957h1.957v-7.148h-1.957v-1.957h-1.722l-1.957-1.75h-1.723l-1.902 1.75h-1.801v1.957h-1.723v7.148h1.723v1.957h1.801v1.801h3.625" fill="#1bb0ed"/>
   <path d="m367.52 422.5h1.957v-1.801h1.722v-1.957h1.957v-7.148h-1.957v-1.957h-1.722l-1.957-1.75h-1.723l-1.902 1.75h-1.801v1.957h-1.723v7.148h1.723v1.957h1.801v1.801h3.625z" fill="none" stroke="#41484d" stroke-miterlimit="2.613" stroke-width=".16292"/>
   <path d="m358.41 384.22v-1.903h5.481v-3.656l1.902-1.797h-1.902v-3.707h-1.801v-1.746h-5.403v1.746h-1.957l-1.746 1.801v5.609h1.746v1.75h3.68v1.903" fill="#1bb0ed"/>
   <path d="m358.41 384.22v-1.903h5.481v-3.656l1.902-1.797h-1.902v-3.707h-1.801v-1.746h-5.403v1.746h-1.957l-1.746 1.801v5.609h1.746v1.75h3.68v1.903z" fill="none" stroke="#41484d" stroke-miterlimit="2.613" stroke-width=".16292"/>
   <path d="m351.27 343.88h3.468v-1.746l1.957-1.801v-1.906h-1.957v-3.653h-7.199v1.907h-1.906v5.453h1.906v1.746h3.731" fill="#1bb0ed"/>
   <path d="m351.27 343.88h3.468v-1.746l1.957-1.801v-1.906h-1.957v-3.653h-7.199v1.907h-1.906v5.453h1.906v1.746h3.731z" fill="none" stroke="#41484d" stroke-miterlimit="2.613" stroke-width=".16292"/>
   <path d="m341.95 305.61h3.68v-1.906h1.906v-3.707l-1.906-1.746h-1.746v-1.746h-1.934l-1.746 1.746h-1.719v5.453h1.719v1.906h1.746" fill="#1bb0ed"/>
   <path d="m341.95 305.61h3.68v-1.906h1.906v-3.707l-1.906-1.746h-1.746v-1.746h-1.934l-1.746 1.746h-1.719v5.453h1.719v1.906h1.746z" fill="none" stroke="#41484d" stroke-miterlimit="2.613" stroke-width=".16292"/>
   <path d="m466.3 731.36h3.679l1.747-1.879h1.722l1.957-1.8c5.532-6.352 3.254-0.582 3.68-11.008v-3.524l-1.961-1.957-1.719-1.722-3.679-3.68h-10.852v1.723h-1.961l-1.769 1.957v1.722h-1.907v1.957l-1.8 1.75v7.356h1.8v3.519h1.907v1.907l1.769 1.8h3.684v1.879h3.703" fill="#1bb0ed"/>
   <path d="m466.3 731.36h3.679l1.747-1.879h1.722l1.957-1.8c5.532-6.352 3.254-0.582 3.68-11.008v-3.524l-1.961-1.957-1.719-1.722-3.679-3.68h-10.852v1.723h-1.961l-1.769 1.957v1.722h-1.907v1.957l-1.8 1.75v7.356h1.8v3.519h1.907v1.907l1.769 1.8h3.684v1.879h3.703z" fill="none" stroke="#41484d" stroke-miterlimit="2.613" stroke-width=".16292"/>
   <path d="m502.72 731.36h3.679v-1.879h3.758l1.719-1.8v-1.907h1.906v-3.519h1.774v-7.356l-1.774-1.75v-1.957h-1.906v-1.722l-1.719-1.957h-1.957v-1.723h-10.906l-1.906 1.723-1.774 1.957-1.746 1.722v1.957h-1.933v9.106l1.933 1.746v1.773l1.746 1.907 1.774 1.8h1.906l1.797 1.879h3.629" fill="#1bb0ed"/>
   <path d="m502.72 731.36h3.679v-1.879h3.758l1.719-1.8v-1.907h1.906v-3.519h1.774v-7.356l-1.774-1.75v-1.957h-1.906v-1.722l-1.719-1.957h-1.957v-1.723h-10.906l-1.906 1.723-1.774 1.957-1.746 1.722v1.957h-1.933v9.106l1.933 1.746v1.773l1.746 1.907 1.774 1.8h1.906l1.797 1.879h3.629z" fill="none" stroke="#41484d" stroke-miterlimit="2.613" stroke-width=".16292"/>
   <path d="m539.17 731.36h2.008l1.695-1.879h3.703v-1.8h1.961v-1.907h1.746v-5.449l1.801-1.75-1.801-1.902v-5.481h-1.746v-1.722h-1.961v-1.957h-1.742v-1.723h-12.762v1.723h-2.011v1.957h-1.696v1.722h-1.742v14.582h1.742v1.907h1.696v1.8h3.707l1.957 1.879h3.445" fill="#1bb0ed"/>
   <path d="m539.17 731.36h2.008l1.695-1.879h3.703v-1.8h1.961v-1.907h1.746v-5.449l1.801-1.75-1.801-1.902v-5.481h-1.746v-1.722h-1.961v-1.957h-1.742v-1.723h-12.762v1.723h-2.011v1.957h-1.696v1.722h-1.742v14.582h1.742v1.907h1.696v1.8h3.707l1.957 1.879h3.445z" fill="none" stroke="#41484d" stroke-miterlimit="2.613" stroke-width=".16292"/>
   <path d="m462.6 692.98h3.703v-1.773h3.679v-1.906h1.747v-1.797h1.722v-3.629l1.957-1.934v-3.546l-1.957-1.93v-1.746l-1.722-1.961-1.747-1.723-1.957-1.742h-1.722l-1.961-1.934h-1.742c-4.211 0.688-7.969 3.891-11.039 7.36v1.746l-1.746 1.93v3.546l1.746 1.934v3.629h1.879v1.797h1.8v1.906h3.676v1.773h3.684" fill="#1bb0ed"/>
   <path d="m462.6 692.98h3.703v-1.773h3.679v-1.906h1.747v-1.797h1.722v-3.629l1.957-1.934v-3.546l-1.957-1.93v-1.746l-1.722-1.961-1.747-1.723-1.957-1.742h-1.722l-1.961-1.934h-1.742c-4.211 0.688-7.969 3.891-11.039 7.36v1.746l-1.746 1.93v3.546l1.746 1.934v3.629h1.879v1.797h1.8v1.906h3.676v1.773h3.684z" fill="none" stroke="#41484d" stroke-miterlimit="2.613" stroke-width=".16292"/>
   <path d="m458.91 654.55v-1.774h5.426v-1.906h1.961l1.722-1.801v-1.718h1.957v-9.317h-1.957v-1.75l-1.722-1.718-1.961-1.958h-1.742v-1.75h-7.36l-1.8 1.75h-1.879v1.958h-1.746v1.718h-1.801v12.785h1.801v1.801h1.746l1.879 1.906h3.707l1.769 1.774" fill="#1bb0ed"/>
   <path d="m458.91 654.55v-1.774h5.426v-1.906h1.961l1.722-1.801v-1.718h1.957v-9.317h-1.957v-1.75l-1.722-1.718-1.961-1.958h-1.742v-1.75h-7.36l-1.8 1.75h-1.879v1.958h-1.746v1.718h-1.801v12.785h1.801v1.801h1.746l1.879 1.906h3.707l1.769 1.774z" fill="none" stroke="#41484d" stroke-miterlimit="2.613" stroke-width=".16292"/>
   <path d="m455.24 614.4h5.637v-1.801h1.723v-1.906h1.742v-10.875l-1.742-1.911v-1.718h-1.723l-1.961-1.957h-9.101v1.957h-1.801l-1.879 1.718v1.911h-1.801v9.156l1.801 1.719 1.879 1.906 1.801 1.801h5.425" fill="#1bb0ed"/>
   <path d="m455.24 614.4h5.637v-1.801h1.723v-1.906h1.742v-10.875l-1.742-1.911v-1.718h-1.723l-1.961-1.957h-9.101v1.957h-1.801l-1.879 1.718v1.911h-1.801v9.156l1.801 1.719 1.879 1.906 1.801 1.801h5.425z" fill="none" stroke="#41484d" stroke-miterlimit="2.613" stroke-width=".16292"/>
   <path d="m449.81 575.96h5.425v-1.746h1.907v-1.961h1.769v-1.719l1.961-1.801v-5.582h-1.961v-1.722l-1.769-1.797v-1.883h-3.707l-1.879-1.801h-1.746l-1.801 1.801h-3.68v1.883h-1.879v3.519h-1.75v5.582l1.75 1.801v1.719l1.879 1.961h1.801v1.746h3.68" fill="#1bb0ed"/>
   <path d="m449.81 575.96h5.425v-1.746h1.907v-1.961h1.769v-1.719l1.961-1.801v-5.582h-1.961v-1.722l-1.769-1.797v-1.883h-3.707l-1.879-1.801h-1.746l-1.801 1.801h-3.68v1.883h-1.879v3.519h-1.75v5.582l1.75 1.801v1.719l1.879 1.961h1.801v1.746h3.68z" fill="none" stroke="#41484d" stroke-miterlimit="2.613" stroke-width=".16292"/>
   <path d="m446.13 537.74h3.68l1.746-1.957h1.879v-1.746l1.8-1.961v-7.199l-1.8-1.902v-1.696h-3.625v-1.961h-7.36v1.961h-1.75v1.696h-1.797v3.703h-1.933v3.707h1.933v3.652h1.797v1.746h1.75v1.957h3.68" fill="#1bb0ed"/>
   <path d="m446.13 537.74h3.68l1.746-1.957h1.879v-1.746l1.8-1.961v-7.199l-1.8-1.902v-1.696h-3.625v-1.961h-7.36v1.961h-1.75v1.696h-1.797v3.703h-1.933v3.707h1.933v3.652h1.797v1.746h1.75v1.957h3.68z" fill="none" stroke="#41484d" stroke-miterlimit="2.613" stroke-width=".16292"/>
   <path d="m442.45 499.31h3.68v-1.961h1.879l1.801-1.746v-3.653h1.746l-1.746-1.746v-3.707l-1.801-1.957h-1.879v-1.695h-7.227v1.695h-1.933v1.957h-1.746v9.106h1.746v1.746h1.933v1.961h3.547" fill="#1bb0ed"/>
   <path d="m442.45 499.31h3.68v-1.961h1.879l1.801-1.746v-3.653h1.746l-1.746-1.746v-3.707l-1.801-1.957h-1.879v-1.695h-7.227v1.695h-1.933v1.957h-1.746v9.106h1.746v1.746h1.933v1.961h3.547z" fill="none" stroke="#41484d" stroke-miterlimit="2.613" stroke-width=".16292"/>
   <path d="m438.91 460.88h3.547v-1.746h1.879v-1.961l1.801-1.746v-5.399h-1.801v-1.96l-1.879-1.747h-9.183v1.747l-1.723 1.96v7.145h1.723v1.961h1.957v1.746h3.679" fill="#1bb0ed"/>
   <path d="m438.91 460.88h3.547v-1.746h1.879v-1.961l1.801-1.746v-5.399h-1.801v-1.96l-1.879-1.747h-9.183v1.747l-1.723 1.96v7.145h1.723v1.961h1.957v1.746h3.679z" fill="none" stroke="#41484d" stroke-miterlimit="2.613" stroke-width=".16292"/>
   <path d="m435.23 422.5h1.746v-1.801h1.933l1.797-1.957v-9.105h-3.73v-1.75h-3.703l-1.723 1.75h-1.906v1.957h-1.774v7.148h1.774v1.957h1.906l1.723 1.801h1.957" fill="#1bb0ed"/>
   <path d="m435.23 422.5h1.746v-1.801h1.933l1.797-1.957v-9.105h-3.73v-1.75h-3.703l-1.723 1.75h-1.906v1.957h-1.774v7.148h1.774v1.957h1.906l1.723 1.801h1.957z" fill="none" stroke="#41484d" stroke-miterlimit="2.613" stroke-width=".16292"/>
   <path d="m431.55 382.32h3.68v-1.75h1.746c0.875-7.25-1.852-9.949-9.106-9.156v1.746h-1.746v1.801h-1.906v3.703h1.906v3.656h5.426" fill="#1bb0ed"/>
   <path d="m431.55 382.32h3.68v-1.75h1.746c0.875-7.25-1.852-9.949-9.106-9.156v1.746h-1.746v1.801h-1.906v3.703h1.906v3.656h5.426z" fill="none" stroke="#41484d" stroke-miterlimit="2.613" stroke-width=".16292"/>
   <path d="m426.12 343.88h3.52l1.906-1.746v-7.36h-9.106v9.106h3.68" fill="#1bb0ed"/>
   <path d="m426.12 343.88h3.52l1.906-1.746v-7.36h-9.106v9.106h3.68z" fill="none" stroke="#41484d" stroke-miterlimit="2.613" stroke-width=".16292"/>
   <path d="m422.44 305.61h3.68v-3.597h1.746l-1.746-2.016v-1.746h-1.906v-1.746h-3.68v1.746h-1.773v5.453h1.773v1.906h1.906" fill="#1bb0ed"/>
   <path d="m422.44 305.61h3.68v-3.597h1.746l-1.746-2.016v-1.746h-1.906v-1.746h-3.68v1.746h-1.773v5.453h1.773v1.906h1.906z" fill="none" stroke="#41484d" stroke-miterlimit="2.613" stroke-width=".16292"/>
   <path d="m502.72 692.98h3.679v-1.773h3.758v-1.906h1.719v-1.797h1.906v-3.629l1.774-1.934v-3.546l-1.774-1.93v-1.746l-1.906-1.961-1.719-1.723-1.957-1.742h-1.801l-1.722-1.934h-3.707l-1.879 1.934h-1.797l-1.906 1.742-1.774 1.723-1.746 1.961v12.785h1.746v1.797h1.774v1.906h3.703v1.773h3.629" fill="#1bb0ed"/>
   <path d="m502.72 692.98h3.679v-1.773h3.758v-1.906h1.719v-1.797h1.906v-3.629l1.774-1.934v-3.546l-1.774-1.93v-1.746l-1.906-1.961-1.719-1.723-1.957-1.742h-1.801l-1.722-1.934h-3.707l-1.879 1.934h-1.797l-1.906 1.742-1.774 1.723-1.746 1.961v12.785h1.746v1.797h1.774v1.906h3.703v1.773h3.629z" fill="none" stroke="#41484d" stroke-miterlimit="2.613" stroke-width=".16292"/>
   <path d="m502.72 654.55 1.957-1.774h3.523l1.957-1.906h1.719v-1.801l1.906-1.718v-9.317l-1.906-1.75v-1.718h-1.719v-1.958h-1.957l-1.801-1.75h-7.308v1.75h-1.797l-1.906 1.958-1.774 1.718v1.75l-1.746 1.934v5.476l1.746 1.907v1.718l1.774 1.801h1.906v1.906h3.676l1.75 1.774" fill="#1bb0ed"/>
   <path d="m502.72 654.55 1.957-1.774h3.523l1.957-1.906h1.719v-1.801l1.906-1.718v-9.317l-1.906-1.75v-1.718h-1.719v-1.958h-1.957l-1.801-1.75h-7.308v1.75h-1.797l-1.906 1.958-1.774 1.718v1.75l-1.746 1.934v5.476l1.746 1.907v1.718l1.774 1.801h1.906v1.906h3.676l1.75 1.774z" fill="none" stroke="#41484d" stroke-miterlimit="2.613" stroke-width=".16292"/>
   <path d="m504.68 614.4h3.523l1.957-1.801 1.719-1.906 1.906-1.719v-9.156h-1.906v-1.911l-1.719-1.718h-1.957v-1.957h-9.109l-1.797 1.957-1.906 1.718v1.911h-1.774v9.156l1.774 1.719 1.906 1.906v1.801h7.383" fill="#1bb0ed"/>
   <path d="m504.68 614.4h3.523l1.957-1.801 1.719-1.906 1.906-1.719v-9.156h-1.906v-1.911l-1.719-1.718h-1.957v-1.957h-9.109l-1.797 1.957-1.906 1.718v1.911h-1.774v9.156l1.774 1.719 1.906 1.906v1.801h7.383z" fill="none" stroke="#41484d" stroke-miterlimit="2.613" stroke-width=".16292"/>
   <path d="m504.68 575.96h3.523v-1.746h1.957v-1.961h1.719v-1.719h1.906v-7.383l-1.906-1.722-1.719-1.797v-1.883h-3.758l-1.722-1.801h-1.957l-1.75 1.801h-3.676v3.68h-1.906v10.824h1.906v1.961h1.797v1.746h5.586" fill="#1bb0ed"/>
   <path d="m504.68 575.96h3.523v-1.746h1.957v-1.961h1.719v-1.719h1.906v-7.383l-1.906-1.722-1.719-1.797v-1.883h-3.758l-1.722-1.801h-1.957l-1.75 1.801h-3.676v3.68h-1.906v10.824h1.906v1.961h1.797v1.746h5.586z" fill="none" stroke="#41484d" stroke-miterlimit="2.613" stroke-width=".16292"/>
   <path d="m504.68 537.74h3.523v-1.957h1.957v-1.746h1.719v-3.652l1.906-1.961h-1.906v-5.449h-1.719v-1.696h-1.957v-1.961h-7.23v1.961h-3.676v1.696l-1.906 1.902v7.199l1.906 1.961v1.746h1.797l1.879 1.957h3.707" fill="#1bb0ed"/>
   <path d="m504.68 537.74h3.523v-1.957h1.957v-1.746h1.719v-3.652l1.906-1.961h-1.906v-5.449h-1.719v-1.696h-1.957v-1.961h-7.23v1.961h-3.676v1.696l-1.906 1.902v7.199l1.906 1.961v1.746h1.797l1.879 1.957h3.707z" fill="none" stroke="#41484d" stroke-miterlimit="2.613" stroke-width=".16292"/>
   <path d="m504.68 499.31h3.523v-1.961h1.957v-1.746h1.719v-9.106h-1.719v-1.957h-1.957v-1.695h-7.23v1.695h-1.879l-1.797 1.957v9.106l1.797 1.746h1.879v1.961h3.707" fill="#1bb0ed"/>
   <path d="m504.68 499.31h3.523v-1.961h1.957v-1.746h1.719v-9.106h-1.719v-1.957h-1.957v-1.695h-7.23v1.695h-1.879l-1.797 1.957v9.106l1.797 1.746h1.879v1.961h3.707z" fill="none" stroke="#41484d" stroke-miterlimit="2.613" stroke-width=".16292"/>
   <path d="m504.68 460.88h3.523v-1.746h1.957v-1.961h1.719v-7.145h-1.719v-1.96l-1.957-1.747h-7.23l-1.879 1.747v1.96h-1.797v7.145h1.797v1.961h1.879v1.746h3.707" fill="#1bb0ed"/>
   <path d="m504.68 460.88h3.523v-1.746h1.957v-1.961h1.719v-7.145h-1.719v-1.96l-1.957-1.747h-7.23l-1.879 1.747v1.96h-1.797v7.145h1.797v1.961h1.879v1.746h3.707z" fill="none" stroke="#41484d" stroke-miterlimit="2.613" stroke-width=".16292"/>
   <path d="m504.68 422.5h3.523v-1.801h1.957v-1.957l1.719-1.75v-3.652l-1.719-1.746v-1.957h-1.957v-1.75h-5.48v1.75h-1.75l-1.879 1.957v7.148h1.879v1.957h1.75v1.801h1.957" fill="#1bb0ed"/>
   <path d="m504.68 422.5h3.523v-1.801h1.957v-1.957l1.719-1.75v-3.652l-1.719-1.746v-1.957h-1.957v-1.75h-5.48v1.75h-1.75l-1.879 1.957v7.148h1.879v1.957h1.75v1.801h1.957z" fill="none" stroke="#41484d" stroke-miterlimit="2.613" stroke-width=".16292"/>
   <path d="m506.4 382.32h3.758v-3.656h1.719v-3.703h-1.719v-1.801h-1.957v-1.746h-5.48v1.746h-1.75v1.801h-1.879v3.703h1.879v3.656h5.429" fill="#1bb0ed"/>
   <path d="m506.4 382.32h3.758v-3.656h1.719v-3.703h-1.719v-1.801h-1.957v-1.746h-5.48v1.746h-1.75v1.801h-1.879v3.703h1.879v3.656h5.429z" fill="none" stroke="#41484d" stroke-miterlimit="2.613" stroke-width=".16292"/>
   <path d="m506.4 343.88h3.758v-9.106h-7.437l-1.75 1.907v5.453h1.75v1.746h3.679" fill="#1bb0ed"/>
   <path d="m506.4 343.88h3.758v-9.106h-7.437l-1.75 1.907v5.453h1.75v1.746h3.679z" fill="none" stroke="#41484d" stroke-miterlimit="2.613" stroke-width=".16292"/>
   <path d="m506.4 305.61h1.801v-1.906h1.957v-5.453h-1.957v-1.746h-3.523v1.746h-1.957v5.453l1.957 1.906h1.722" fill="#1bb0ed"/>
   <path d="m506.4 305.61h1.801v-1.906h1.957v-5.453h-1.957v-1.746h-3.523v1.746h-1.957v5.453l1.957 1.906h1.722z" fill="none" stroke="#41484d" stroke-miterlimit="2.613" stroke-width=".16292"/>
   <path d="m542.88 692.98h3.703v-1.773h3.707v-1.906h1.801v-1.797h1.852v-12.785l-1.852-1.961-1.801-1.723-1.746-1.742h-1.961l-1.742-1.934h-3.656l-2.008 1.934h-3.445v1.742h-1.957v1.723l-1.696 1.961v1.746h-2.011v7.41h2.011v3.629h1.696v1.797l1.957 1.906h3.445v1.773h3.703" fill="#1bb0ed"/>
   <path d="m542.88 692.98h3.703v-1.773h3.707v-1.906h1.801v-1.797h1.852v-12.785l-1.852-1.961-1.801-1.723-1.746-1.742h-1.961l-1.742-1.934h-3.656l-2.008 1.934h-3.445v1.742h-1.957v1.723l-1.696 1.961v1.746h-2.011v7.41h2.011v3.629h1.696v1.797l1.957 1.906h3.445v1.773h3.703z" fill="none" stroke="#41484d" stroke-miterlimit="2.613" stroke-width=".16292"/>
   <path d="m546.58 654.55 1.961-1.774h5.399v-1.906h1.8v-1.801l1.907-1.718v-9.317l-1.907-1.75v-1.718h-1.8v-1.958h-1.852l-1.801-1.75h-7.41v1.75h-1.695l-3.703 3.676v1.75h-1.75v9.317h1.75v1.718l1.695 1.801h2.008v1.906h3.656l1.742 1.774" fill="#1bb0ed"/>
   <path d="m546.58 654.55 1.961-1.774h5.399v-1.906h1.8v-1.801l1.907-1.718v-9.317l-1.907-1.75v-1.718h-1.8v-1.958h-1.852l-1.801-1.75h-7.41v1.75h-1.695l-3.703 3.676v1.75h-1.75v9.317h1.75v1.718l1.695 1.801h2.008v1.906h3.656l1.742 1.774z" fill="none" stroke="#41484d" stroke-miterlimit="2.613" stroke-width=".16292"/>
   <path d="m552.09 614.4h3.652l1.907-1.801 1.746-1.906 1.8-1.719v-9.156h-1.8v-1.911l-1.746-1.718h-1.907v-1.957h-9.16v1.957h-1.742l-1.961 1.718v1.911h-1.695v9.156l1.695 1.719 3.703 3.707h5.508" fill="#1bb0ed"/>
   <path d="m552.09 614.4h3.652l1.907-1.801 1.746-1.906 1.8-1.719v-9.156h-1.8v-1.911l-1.746-1.718h-1.907v-1.957h-9.16v1.957h-1.742l-1.961 1.718v1.911h-1.695v9.156l1.695 1.719 3.703 3.707h5.508z" fill="none" stroke="#41484d" stroke-miterlimit="2.613" stroke-width=".16292"/>
   <path d="m555.74 575.96h3.653l1.8-1.746 1.856-1.961 1.742-1.719v-9.105h-1.742v-1.797h-1.856v-1.883h-3.546v-1.801h-3.707v1.801h-3.653l-1.746 1.883v1.797h-1.961v10.824h1.961v1.961h1.746l1.801 1.746h3.652" fill="#1bb0ed"/>
   <path d="m555.74 575.96h3.653l1.8-1.746 1.856-1.961 1.742-1.719v-9.105h-1.742v-1.797h-1.856v-1.883h-3.546v-1.801h-3.707v1.801h-3.653l-1.746 1.883v1.797h-1.961v10.824h1.961v1.961h1.746l1.801 1.746h3.652z" fill="none" stroke="#41484d" stroke-miterlimit="2.613" stroke-width=".16292"/>
   <path d="m559.39 537.74h3.656l1.742-1.957h1.961v-1.746l1.746-1.961v-7.199l-1.746-1.902v-1.696h-3.703v-1.961h-7.309v1.961h-1.8v1.696h-1.852v11.062h1.852v1.746h1.8v1.957h3.653" fill="#1bb0ed"/>
   <path d="m559.39 537.74h3.656l1.742-1.957h1.961v-1.746l1.746-1.961v-7.199l-1.746-1.902v-1.696h-3.703v-1.961h-7.309v1.961h-1.8v1.696h-1.852v11.062h1.852v1.746h1.8v1.957h3.653z" fill="none" stroke="#41484d" stroke-miterlimit="2.613" stroke-width=".16292"/>
   <path d="m564.79 499.31h3.707v-1.961h2.012v-1.746h1.695v-7.356l-1.695-1.75v-1.957h-2.012v-1.695h-7.305l-1.8 1.695h-1.746v1.957l-1.907 1.75v7.356h1.907v1.746h1.746l1.8 1.961h3.598" fill="#1bb0ed"/>
   <path d="m564.79 499.31h3.707v-1.961h2.012v-1.746h1.695v-7.356l-1.695-1.75v-1.957h-2.012v-1.695h-7.305l-1.8 1.695h-1.746v1.957l-1.907 1.75v7.356h1.907v1.746h1.746l1.8 1.961h3.598z" fill="none" stroke="#41484d" stroke-miterlimit="2.613" stroke-width=".16292"/>
   <path d="m568.5 460.88h3.707v-1.746h1.746v-1.961h1.957v-7.145h-1.957v-1.96l-1.746-1.747h-7.414c-5.609 5.825-3.176 1.43-3.598 10.852h1.856v1.961h1.742v1.746h3.707" fill="#1bb0ed"/>
   <path d="m568.5 460.88h3.707v-1.746h1.746v-1.961h1.957v-7.145h-1.957v-1.96l-1.746-1.747h-7.414c-5.609 5.825-3.176 1.43-3.598 10.852h1.856v1.961h1.742v1.746h3.707z" fill="none" stroke="#41484d" stroke-miterlimit="2.613" stroke-width=".16292"/>
   <path d="m572.2 422.5h3.703v-1.801h1.696v-1.957h1.906v-7.148h-1.906v-1.957h-1.696v-1.75h-5.398v1.75h-2.012l-1.746 1.957v7.148h1.746v1.957h2.012v1.801h1.695" fill="#1bb0ed"/>
   <path d="m572.2 422.5h3.703v-1.801h1.696v-1.957h1.906v-7.148h-1.906v-1.957h-1.696v-1.75h-5.398v1.75h-2.012l-1.746 1.957v7.148h1.746v1.957h2.012v1.801h1.695z" fill="none" stroke="#41484d" stroke-miterlimit="2.613" stroke-width=".16292"/>
   <path d="m577.6 382.32h3.707v-1.75h1.746v-7.41h-1.746l-1.801-1.746h-5.559v1.746h-1.746v1.801l-1.695 1.906v1.797h1.695v1.906l1.746 1.75h3.653" fill="#1bb0ed"/>
   <path d="m577.6 382.32h3.707v-1.75h1.746v-7.41h-1.746l-1.801-1.746h-5.559v1.746h-1.746v1.801l-1.695 1.906v1.797h1.695v1.906l1.746 1.75h3.653z" fill="none" stroke="#41484d" stroke-miterlimit="2.613" stroke-width=".16292"/>
   <path d="m581.31 343.88h3.707v-1.746h1.691v-5.453h-1.691v-1.907h-7.414v1.907h-1.696v3.652l1.696 1.801v1.746h3.707" fill="#1bb0ed"/>
   <path d="m581.31 343.88h3.707v-1.746h1.691v-5.453h-1.691v-1.907h-7.414v1.907h-1.696v3.652l1.696 1.801v1.746h3.707z" fill="none" stroke="#41484d" stroke-miterlimit="2.613" stroke-width=".16292"/>
   <path d="m586.71 305.61h1.906v-1.906h1.801v-5.453h-1.801v-1.746h-5.558v1.746h-1.746v5.453h1.746v1.906h3.652" fill="#1bb0ed"/>
   <path d="m586.71 305.61h1.906v-1.906h1.801v-5.453h-1.801v-1.746h-5.558v1.746h-1.746v5.453h1.746v1.906h3.652z" fill="none" stroke="#41484d" stroke-miterlimit="2.613" stroke-width=".16292"/>
   <path d="m573.95 731.36h3.653l1.906-1.879h3.547v-1.8l1.961-1.907 1.691-1.773v-10.852l-1.691-1.957-1.961-1.722v-1.957h-1.746l-1.801-1.723h-11.012v1.723h-1.746v1.957h-1.961v1.722h-1.742v1.957l-1.856 1.75v7.356h1.856v3.519h1.742v1.907h1.961v1.8h3.758l1.695 1.879h1.746" fill="#1bb0ed"/>
   <path d="m573.95 731.36h3.653l1.906-1.879h3.547v-1.8l1.961-1.907 1.691-1.773v-10.852l-1.691-1.957-1.961-1.722v-1.957h-1.746l-1.801-1.723h-11.012v1.723h-1.746v1.957h-1.961v1.722h-1.742v1.957l-1.856 1.75v7.356h1.856v3.519h1.742v1.907h1.961v1.8h3.758l1.695 1.879h1.746z" fill="none" stroke="#41484d" stroke-miterlimit="2.613" stroke-width=".16292"/>
   <path d="m583.06 692.98h1.961l1.691-1.773h3.707v-1.906h1.957v-3.68l1.746-1.746v-7.41l-1.746-1.746v-1.961l-1.957-1.723-1.801-1.742h-3.597v-1.934h-3.707l-1.801 1.934h-3.602v1.742h-1.957v1.723h-1.746v1.961l-1.695 1.746v7.41l1.695 1.746v1.883l1.746 1.797 1.957 1.906h1.696l1.906 1.773h3.547" fill="#1bb0ed"/>
   <path d="m583.06 692.98h1.961l1.691-1.773h3.707v-1.906h1.957v-3.68l1.746-1.746v-7.41l-1.746-1.746v-1.961l-1.957-1.723-1.801-1.742h-3.597v-1.934h-3.707l-1.801 1.934h-3.602v1.742h-1.957v1.723h-1.746v1.961l-1.695 1.746v7.41l1.695 1.746v1.883l1.746 1.797 1.957 1.906h1.696l1.906 1.773h3.547z" fill="none" stroke="#41484d" stroke-miterlimit="2.613" stroke-width=".16292"/>
   <path d="m590.41 654.55v-1.774h5.399v-1.906h2.011l1.696-1.801v-1.718h1.957v-9.317h-1.957v-1.75l-3.707-3.676h-1.696l-1.746-1.75h-5.664v1.75h-3.652v1.958h-1.746v1.718l-1.801 1.75v9.317l1.801 1.718v1.801h1.746l1.961 1.906h3.597l1.801 1.774" fill="#1bb0ed"/>
   <path d="m590.41 654.55v-1.774h5.399v-1.906h2.011l1.696-1.801v-1.718h1.957v-9.317h-1.957v-1.75l-3.707-3.676h-1.696l-1.746-1.75h-5.664v1.75h-3.652v1.958h-1.746v1.718l-1.801 1.75v9.317l1.801 1.718v1.801h1.746l1.961 1.906h3.597l1.801 1.774z" fill="none" stroke="#41484d" stroke-miterlimit="2.613" stroke-width=".16292"/>
   <path d="m597.82 614.4h5.399v-1.801h1.8l1.907-1.906v-1.719l1.695-1.961v-5.426h-1.695v-3.68h-1.907v-1.718h-1.8l-1.746-1.957h-9.106v1.957h-1.957v1.718h-1.801v3.68l-1.906 1.906v3.52h1.906v3.68l1.801 1.906h1.957v1.801h5.453" fill="#1bb0ed"/>
   <path d="m597.82 614.4h5.399v-1.801h1.8l1.907-1.906v-1.719l1.695-1.961v-5.426h-1.695v-3.68h-1.907v-1.718h-1.8l-1.746-1.957h-9.106v1.957h-1.957v1.718h-1.801v3.68l-1.906 1.906v3.52h1.906v3.68l1.801 1.906h1.957v1.801h5.453z" fill="none" stroke="#41484d" stroke-miterlimit="2.613" stroke-width=".16292"/>
   <path d="m605.02 575.96h5.559v-1.746h1.746v-1.961h1.961v-3.52h1.746v-3.679l-1.746-1.903v-1.722l-1.961-1.797v-1.883h-3.703l-1.695-1.801h-3.707v1.801h-3.703v1.883h-1.696v1.797l-2.011 1.722v7.383l2.011 1.719 1.696 1.961 1.957 1.746h3.546" fill="#1bb0ed"/>
   <path d="m605.02 575.96h5.559v-1.746h1.746v-1.961h1.961v-3.52h1.746v-3.679l-1.746-1.903v-1.722l-1.961-1.797v-1.883h-3.703l-1.695-1.801h-3.707v1.801h-3.703v1.883h-1.696v1.797l-2.011 1.722v7.383l2.011 1.719 1.696 1.961 1.957 1.746h3.546z" fill="none" stroke="#41484d" stroke-miterlimit="2.613" stroke-width=".16292"/>
   <path d="m614.29 537.74h3.547v-1.957h1.906v-1.746h1.742v-3.652h1.911v-3.707h-1.911v-3.703h-1.742v-1.696h-3.707v-1.961h-5.453v1.961h-3.652v1.696h-1.907v11.062h1.907v1.746h1.695v1.957h5.664" fill="#1bb0ed"/>
   <path d="m614.29 537.74h3.547v-1.957h1.906v-1.746h1.742v-3.652h1.911v-3.707h-1.911v-3.703h-1.742v-1.696h-3.707v-1.961h-5.453v1.961h-3.652v1.696h-1.907v11.062h1.907v1.746h1.695v1.957h5.664z" fill="none" stroke="#41484d" stroke-miterlimit="2.613" stroke-width=".16292"/>
   <path d="m621.48 499.31h3.657v-1.961h1.8v-1.746h1.903v-9.106h-1.903v-1.957h-1.8l-1.746-1.695h-5.559v1.695h-1.801v1.957h-1.746v1.75h-1.961v5.609h1.961v1.747l1.746 1.746h1.801v1.961h3.648" fill="#1bb0ed"/>
   <path d="m621.48 499.31h3.657v-1.961h1.8v-1.746h1.903v-9.106h-1.903v-1.957h-1.8l-1.746-1.695h-5.559v1.695h-1.801v1.957h-1.746v1.75h-1.961v5.609h1.961v1.747l1.746 1.746h1.801v1.961h3.648z" fill="none" stroke="#41484d" stroke-miterlimit="2.613" stroke-width=".16292"/>
   <path d="m628.84 460.88h3.656v-1.746h1.746v-1.961h1.906v-7.145h-1.906v-1.96l-1.746-1.747h-7.359l-1.746 1.747v1.96h-1.911v7.145h1.911v1.961h1.746v1.746h3.703" fill="#1bb0ed"/>
   <path d="m628.84 460.88h3.656v-1.746h1.746v-1.961h1.906v-7.145h-1.906v-1.96l-1.746-1.747h-7.359l-1.746 1.747v1.96h-1.911v7.145h1.911v1.961h1.746v1.746h3.703z" fill="none" stroke="#41484d" stroke-miterlimit="2.613" stroke-width=".16292"/>
   <path d="m636.15 422.5h3.543v-1.801h1.961v-1.957h1.746v-7.148h-1.746v-1.957h-1.961l-1.742-1.75h-3.707v1.75h-1.746v1.957h-1.906v7.148h1.906v1.957h1.746v1.801h1.906" fill="#1bb0ed"/>
   <path d="m636.15 422.5h3.543v-1.801h1.961v-1.957h1.746v-7.148h-1.746v-1.957h-1.961l-1.742-1.75h-3.707v1.75h-1.746v1.957h-1.906v7.148h1.906v1.957h1.746v1.801h1.906z" fill="none" stroke="#41484d" stroke-miterlimit="2.613" stroke-width=".16292"/>
   <path d="m645.36 384.22v-1.903h3.442v-1.75h1.906v-5.609h-1.906v-1.801h-1.75v-1.746h-5.399v1.746h-1.961v1.801h-1.742v3.703h1.742v3.656h3.707l1.961 1.903" fill="#1bb0ed"/>
   <path d="m645.36 384.22v-1.903h3.442v-1.75h1.906v-5.609h-1.906v-1.801h-1.75v-1.746h-5.399v1.746h-1.961v1.801h-1.742v3.703h1.742v3.656h3.707l1.961 1.903z" fill="none" stroke="#41484d" stroke-miterlimit="2.613" stroke-width=".16292"/>
   <path d="m652.51 343.88h3.656v-1.746h2.008v-3.707l-2.008-1.746v-1.907h-7.359v1.907h-1.75v5.453h1.75v1.746h3.703" fill="#1bb0ed"/>
   <path d="m652.51 343.88h3.656v-1.746h2.008v-3.707l-2.008-1.746v-1.907h-7.359v1.907h-1.75v5.453h1.75v1.746h3.703z" fill="none" stroke="#41484d" stroke-miterlimit="2.613" stroke-width=".16292"/>
   <path d="m659.87 305.61h3.703v-3.597h1.696-1.696v-3.762h-1.902v-1.746h-3.496v1.746h-2.008v5.453l2.008 1.906h1.695" fill="#1bb0ed"/>
   <path d="m659.87 305.61h3.703v-3.597h1.696-1.696v-3.762h-1.902v-1.746h-3.496v1.746h-2.008v5.453l2.008 1.906h1.695z" fill="none" stroke="#41484d" stroke-miterlimit="2.613" stroke-width=".16292"/>
   <path d="m818.78 552.3h1.852l3.551-2.012h5.609l3.707-1.691 3.492-1.746 1.906-1.961 1.746-1.696 3.653-2.007 1.801-3.446 1.906-1.957 1.746-1.746v-3.652l1.957-3.707v-16.516l-1.957-1.746v-3.652l-1.746-1.801-1.906-3.652-1.801-1.961-3.653-1.746-1.746-3.653h-1.906l-3.492-1.746-3.707-1.957-1.906-1.75h-16.356l-3.652 1.75-1.906 1.957-3.707 1.746h-1.801l-3.602 3.653c-3.808 3.019-6.351 8.472-9.207 12.812v1.746l-1.75 3.703v9.11l1.75 3.703v3.707l2.012 3.652 1.691 1.746c7.625 11.223 2.649 3.864 10.907 11.067l3.707 1.746 1.906 1.691h7.195l3.707 2.012" fill="#41484d"/>
   <path d="m818.78 552.3h1.852l3.551-2.012h5.609l3.707-1.691 3.492-1.746 1.906-1.961 1.746-1.696 3.653-2.007 1.801-3.446 1.906-1.957 1.746-1.746v-3.652l1.957-3.707v-16.516l-1.957-1.746v-3.652l-1.746-1.801-1.906-3.652-1.801-1.961-3.653-1.746-1.746-3.653h-1.906l-3.492-1.746-3.707-1.957-1.906-1.75h-16.356l-3.652 1.75-1.906 1.957-3.707 1.746h-1.801l-3.602 3.653c-3.808 3.019-6.351 8.472-9.207 12.812v1.746l-1.75 3.703v9.11l1.75 3.703v3.707l2.012 3.652 1.691 1.746c7.625 11.223 2.649 3.864 10.907 11.067l3.707 1.746 1.906 1.691h7.195l3.707 2.012z" fill="none" stroke="#41484d" stroke-miterlimit="2.613" stroke-width=".16292"/>
   <path d="m818.78 459.13c16.942-0.266 34.621-15.035 32.926-32.93 1.91-18.105-14.395-35.148-32.926-32.871-18.105-1.855-32.609 15.879-32.875 32.871 0.586 16.891 15.988 32.082 32.875 32.93" fill="#41484d"/>
   <path d="m818.78 459.13c16.942-0.266 34.621-15.035 32.926-32.93 1.91-18.105-14.395-35.148-32.926-32.871-18.105-1.855-32.609 15.879-32.875 32.871 0.586 16.891 15.988 32.082 32.875 32.93z" fill="none" stroke="#41484d" stroke-miterlimit="2.613" stroke-width=".16292"/>
   <path d="m813.34 497.35h12.758v43.836h-12.758v-43.836z" fill="#1bb0ed"/>
   <path d="m813.34 404.23h12.758v43.887h-12.758v-43.887z" fill="#e5196f"/>
   <path d="m796.87 512.17h43.836v14.504h-43.836v-14.504z" fill="#1bb0ed"/>
   <path d="m796.87 418.74h43.836v14.77h-43.836v-14.77z" fill="#e5196f"/>
  </g>
 </g>
</svg>
