<?xml version="1.0" encoding="UTF-8"?>
<svg viewBox="0 0 857 1165" xmlns="http://www.w3.org/2000/svg">
 <g fill-rule="evenodd">
  <path d="m105 1108l-1-3 2 1q1 0 2 1l2 1h18q12 0 18 1h5v1l1 1v1h1l-2 1-2 1t-15 1q-16 1-20 0l-5-1h-1q0-1-1-1v-1h-1v-1q0-1-1-3z" fill="#8e827f" stroke="#8e827f"/>
  <path d="m210 443h22v1h-1l-1 1-1 1h19q19 2 37 3t19 2v1h-28q-27 0-94 3l-67 3h-2l-1-1-2-1-1-1-1-1v-5l1-1v-1h1v-1h23l37-1q36-1 40-2z" fill="#868585" stroke="#868585"/>
  <path d="m826 253h2q0 1-1 1t-1 2v1l1 4q1 3 2 4t0 57 1 57h1q0 1-3 1-4 2-4 6 0 5-2 8l-3 2h-23l-13-1q-13-1-28-1-15-2-13-2 1 0-2-1h-4q0-1-4-1h-3l1-1 1-1h-6l1-1 1-1h-2l2-1 2-1 32-1q32-2 32-3t3-2q3 0 2-1t4-3q4-2 6-4 0-3 1-1t1-25q0-28 0-33 1-5 2-5t2-20q1-21 2-20 2 0 2-2t1-3 2-1v-1l1-3q2-2 2-2 1 0 2-1z" fill="#edd" stroke="#edd"/>
  <path d="m803 216h23l2 1q2 1 3 1v14h-1v10q-2 11-2 11h-2q-1 1-2 1 0 0-2 2l-1 3q-1 0-1-1t-1-1h-1q0-1 0-2 1-1-94 1l-95 1v-1h-7q-7 0-7-1t-8-2l-8-1h-3v-4h7l-3-1q-2-1-3-1t-1-6q-1-6-4-7l-4-1h7v-1l1-1v-1h-1v-1h-3l-4-1q-4-1-2-1 1 0-4-1l-5-1h-8v-1h16q16-1 31-1h16l-28-1h-27v-1h32q32 0 45-1h13l68-1q68-2 68-2z" fill="#d0cfcf" stroke="#d0cfcf"/>
  <path d="m0 582v-582h857v1165h-857v-583zm400-569l18 1q17 0 19 2t5 2h2l78 2q78 2 80 3l3 1 20 1q21 1 21 1 0 1 1 2l1 2q0 1 10 5t14 9q6 5 8 10 2 4 4 14 2 11 3 43 0 31 4 32l4 1 2 2q1 1 2 4 0 3 13 4 13 2 17 4 3 2 4 6 0 5 13 5h13l2 2q3 2 3 5t2 3q2 1 2 1h10q9 0 12 1l3 1h1v1l1 1 1 7q0 7 2 7 1 0 1 1l13 5q14 6 15 6h1l5 2q5 2 5 4 2 2 1 18-1 17-1 17v1t-1 0q-1 1-1 3-1 2-5 2h-5l1 4q1 3 2 4t0 57 1 57h2q2 0 2 1 0 0 0 6v7h-1q0 1 0 1-1 0-6 2l-6 1q0 1-3 1-2 1-2 2v1h-1v1h-1v9l1 1q0 2 1 2 2 0 2 1l4 1q4 2 8 4 2 2 3 4 1 1 1 5v4l-2 2q-1 3-1 3l-5 199q-6 199-5 201v2q1 2 1 6v4l-1 2q-1 2-1 3t-7 3l-7 2-1 1q-1 1-1 7t1 7v1q1 0 1 0v1h2q1 1 1 1l5 5q6 5 6 12t0 9v1l-1 1q-1 2-3 76t-2 76v3h-1v1h-2l-1 1q-1 1-2 1v1q0 1-1 1t-3 4q-3 4-8 7t-7 4-3 1h-1l-3 1h-3q-1 1-9 3l-8 3q0 1 0 1h-1t-1 2q-2 0-22 4t-32 6q-13 0-30 2-16 2-36 2h-21l-2 1h-9q-6 1-30 2-25 1-36 2l-11 1-7 1q-6 1-26 3-19 2-68 4-48 4-92 6-45 4-90 4h-46q-1 0-3 0t-2 1-20 1-41 0q-20 0-26-2l-6-2h-1q-1 0-1-1h-2l-3-1h-1q-2 0-6-2-3-2-6-6t-5-5q-1-1-7-12t-14-42-12-47l-2-15-1-5v-7q-1-3-1-10t2-17q1-9 2-9 1-1 4-11 2-11 5-18 2-7 3-7t1-1 1-1 2-3v-24q0-22-7-364l-7-342v-14q0-15 0-52 0-36 0-40 2-5 5-12 3-6 10-12l6-6 6-3q6-3 8-3t3-2q0-3 1-3h1q0-1 2-1h1l5-1h8l1-1 35-2q36-2 43-2h7l55-2q55-2 55-3h2q0-1 0-1h1t1-1l2-1q2-2 18-2h17t1-1h2q0-1 0-1h1l2-2q2-2 23-2 22 0 23 3 1 2 3 3 2 0 1 0-1-2 1-2 1 0 2 1z" fill="#efefee" stroke="#efefee"/>
  <path d="m68 158l3-4-1 3q0 3-2 6t-1 5q1 1 5 6 4 6 4 8 0 1 1 2v1h-1q-1 0-2-1 0-2-1 0t-1 3v2h1v1h-1l-1-1-1-1v-1h-1v-1q-1 0-2-4-2-3-3-3t-4-5l-2-4v-1l-1-1v-1h1t1 1l1 1v1l1-4v-3q1 0 2 0 1-1 5-5z" fill="#7f5f66" stroke="#7f5f66"/>
  <path d="m329 339l3-7h1v5q-1 5-1 6v1l-1 2q-1 1-1 2v1l-1 3q-1 2-2 3v2l-1 1v1t-2 1q0 1-4 3l-4 2h-1l-1 1h-4v-1h-1v-2h1v1h2l2-1 1-1h1t0-1l1-1v-1l1-1v-2q0-1 4-5 4-5 7-12z" fill="#988f91" stroke="#988f91"/>
  <path d="m726 346v-3 1q1 2 2 2t1 1l1 1 2 1 2 1h1l1 1h2q0 1 0 1 0 2-3 4-3 3-6 4h-2v-1q1-1 1-2v-1t1 0q1-1-1-2-1 0-2-2v-4t0-2z" fill="#d4b9bd" stroke="#d4b9bd"/>
  <path d="m707 1004h5l-2 2q-2 1-2 2t-1 1v1l2 6q1 7 3 24 2 18 2 18h1l-1 1-1 1h-1q-1 0-9 1l-8 1h-13q-13 0-61 4l-48 2v1h-9q-8 1-66 4l-58 3h-2q-1 0-72 4l-72 4-3 1h-9q-6 1-7 1h-1l-8-1q-8-1-16-1h-7l3-2q2 0-5-2t-7-4q-1-2-12-6-11-6-12-6-2 0-3-2t-1-12q0-9 4-13 3-5 6-5 2-2 176-12t188-10h13v-1l55-2q54-3 59-3z" fill="#b18791" stroke="#b18791"/>
  <path d="m268 325v-1h1v8q1 8 1 9v1h-2t-1-5q-1-4-5-4l-3-1h-1v-2h3l3-1q2-1 3-2t1-2z" fill="#b28891" stroke="#b28891"/>
  <path d="m642 90l6 1q6 1 9 2t3 1h-1q-1 0-1 2l-1 2h-1q-1 0-7-3l-6-2v-1q-1-1-1-2z" fill="#ecced3" stroke="#ecced3"/>
  <path d="m804 1059v-7t1 3l1 3v3q1 3 2 3v1q0 1-1 1t-3 4q-3 4-8 7t-7 4-3 1h-1l-3 1h-2v-1h1v-1h1v-1l1-2v-1h-1l-2-1h-1v-1h1v-1h1v-1l7-1q7 0 9-3 2-2 0-2h-2q0-1 4-1t5-7z" fill="#ccbfbf" stroke="#ccbfbf"/>
  <path d="m444 18l78 2q78 2 80 3l3 1t-4 1l-4 1h-7q-6 0-28-1h-38l-4-1h-12q-12 0-37-1l-25-1-4-1h-5v-1q0-1 3-1 4 0 4-1z" fill="#d5c1c2" stroke="#d5c1c2"/>
  <path d="m794 306h4q2 0 4 5t2 7q0 3-1 2-1 0-2 0-1-1-3-2-2 0-3 1-1 2-3 2-1 0-1-1v-1h-1q-1-1-1-1l1-6q2-6 4-6z" fill="#999292" stroke="#999292"/>
  <path d="m620 189v2q-1 1-1 1h-1t0 1q-1 1-6 1h-6v-4l7-1q7-1 7 0z" fill="#191918" stroke="#191918"/>
  <path d="m164 101h1v1q0 1 31 1 31-1 66-1h35l7 1q8 1 7 1 0 0 5 1h6v1h-24q-25 0-65 1h-42l-2-1h-18l-4-1h-4v-2q0-2 1-2z" fill="#8d636c" stroke="#8d636c"/>
  <path d="m554 135q-1 1-1 1h-1t0 1v1q0 2-1 4v1h-9q-6-1-46-3l-41-4h-1v-1h-1v-1h5l48-1q49 0 49 1-1 1-1 1z" fill="#edd8d7" stroke="#edd8d7"/>
  <path d="m318 432h16t0 1h1q0 1 1 1l2 1q2 1 4 2t2 1 3 1h3q0 1-54 2l-53 1h-9l-5-1h-5v-2h-1v-1h-2v-1h-1v-1h-2v-1l42-1q43-2 58-2z" fill="#4b3c3e" stroke="#4b3c3e"/>
  <path d="m659 94h2t1 1q0 1 0 1h1v1q0 1 2 2 1 1 3 3 2 3 2 11 2 8 2 13 0 6 0 8v1h-1q-1-1-9-1-7 0-18 2l-10 2t1-1-3-2q-3-1-34-2l-30-1-2 1q-3 1-2 2v1h-2q-1 0-6 0l-4 1v-1q0-1 1-2 0-1-47-1l-48 1h-10q-4 0-8 0h-29q-20 0-19 1t1 1q-1 1-17 2l-17 1h-9l-8-1v-1h1v-1h2q2 0 3-1l1-1h-3l-2-1q-2-1-9-1-7-2-7-3-1-1-4-1l-3 1v-2h-1l-1 1h-4l1-1 2-1h1l1-1 1-1h2v-1h7q7-1 23-3t19-2q2 0 2-1t12-1 14-1h3l9-1q9 0 9-2 0-1 1-1 2 0 4 2 1 1 4 1 4 0 4-2 0-1 2-1t2-1 11 0q11 2 11 2-1 0 11 0t16-2q4 0 3-1t6-1q8-2 16-2h8l41-1q41-1 46-1h12q7 1 8 2 0 1 9 1 8 1 14 0l7-1h2v-2l-1-1v-4h-1q0-1 0-1-1-1-1-1l1-1q1 0 1-1t1-1zm-105 40t0-1 0 1z" fill="#e7b4b8" stroke="#e7b4b8"/>
  <path d="m418 812h5t1 1v1q1 2 0 2t-1 1q-1 0-1 1-1 2-2 2t-2 0h-4v1t-1 1q-1 0-1 0v1t-1 1h-1t0-1 1-3l2-2v-1h1q0-1 2-3l1-2h1z" fill="#9f878b" stroke="#9f878b"/>
  <path d="m288 771l1-1 9 3q9 3 14 4h6v2h2l2 1h-5q-5 0-11 0-5 0-11-3l-6-3-1-1v-1h-1t1-1z" fill="#e0c1c3" stroke="#e0c1c3"/>
  <path d="m400 13q0 1 0 1h1v1h1v1h1l1 1h1v2h-8v3h-7q-7 0-9-1h-13q-10-1-18-1-7 0-7-1t-3-1h-4l-1-1-1-1h-7l7-1q8-1 7-1 0 0 1-1h1l3-2q3-3 24-3 22 0 23 3 1 2 3 3 2 0 1 0-1-2 1-2 1 0 2 1z" fill="#aba2a3" stroke="#aba2a3"/>
  <path d="m720 298h1v2h-1q-1 0-3 6-3 7-3 12t-1 14l-1 9v-1h-2q0-1-1-2h-1q0-1-1-1v-1q-1 0-1 0 0-1-2-4l-1-3v-1h-1l1-8q1-8 3-12 3-4 8-7 4-3 6-3z" fill="#ececec" stroke="#ececec"/>
  <path d="m270 753l-3-8 1 1q1 0 2 1l4 7q4 6 9 11t5 5h1l-1 1q-1 1-1 1h1v1l1 1h-2v-1h-1v-1h-1v-1h-1v-1h-2l-1-1q-1-1-5-4-4-4-6-12z" fill="#debbbf" stroke="#debbbf"/>
  <path d="m482 101l2-1h49l37 1q36 1 39 2l3 1h-5q-5 0-46 1l-41 1-6-1q-6-1-20-1-13-2-14-2l-1-1h3z" fill="#bb8e97" stroke="#bb8e97"/>
  <path d="m243 318l1-3v1h1v1h1v1h2v1l2 3q0 2 0 12v11h-1v1h-1v2h-2v-3h-1v-1q1 0 0-4v-8q-1-3-1-6l-1-4v-4z" fill="#e1d5d6" stroke="#e1d5d6"/>
  <path d="m720 300h1l2 5q1 5 2 8t1 17v16q0 2 0 2v1h-2q-1-1-2 0t-2 0l-2-1v-2q0-1-5-4l-5-2t-1-2l-1-2h1q1 1 2 2 0 1 1 1 1 1 1 1h1v1l1-9q1-9 1-14t3-12q2-6 3-6z" fill="#bdb7b6" stroke="#bdb7b6"/>
  <path d="m322 105h18q17 1 24 0h6v1h1l13 2q13 2 16 4 4 2 3 2 0 0 0 1h-3q-2 1-14 1t-12 1-2 1q-3 0-19 2t-23 3h-8q-2 1-6 1-5 0-6 2-2 0-4 2-1 2-18 3l-18 1v-1h-1q0-1 3-1h2l-3-1q-3-1-35 0-33 1-33 2t-4 1-27 0-21 1q1 1 1 1l-1 1h-7q-8-1-22-2-13-1-12-2 2-1-2-2l-5-1-1-1-1-1h1q1 0 3-1l2-1h-2l-1-1-1-1q-1 0-6-2-5-1-5-2v-2h-6l-1-1-1-1h3l13-1q13-1 13-3t13-3q14-1 18 0 3 1 26 1h23v-1h40q40-1 65-1h24v-1zm-189 4q4-1 3 0 0 1-4 1-3 1-3 0t4-1z" fill="#d49ea4" stroke="#d49ea4"/>
  <path d="m331 324l1 2v6l-3 7q-3 7-7 12-4 4-4 5v2l-1 1v1h-3v-2h-2v-1l-1-1q-1-2-1-4-1-3-2-3t-2-8l-2-8v-5q0-6-2-13l-1-7v-1h1q0-1 0-1h2q3 0 10 1 6 2 10 7 4 4 6 6 0 2 1 4z" fill="#f6f5f5" stroke="#f6f5f5"/>
  <path d="m471 494h12q1 1 0 2t1 1q2 1 6 0h3v1h5l12 2q11 2 16 3l4 1h-2q-3 0-3 1h1v1h2q2 0 6 0h4l-4 1-4 1h4q4 0 22 1h19v1h-7q-6 0-6 1t-82 3l-81 3v-1q1 0 1 0h-20q-21 0-61-1l-40-1h-3v-13l18-1q19 0 19-1l30-1q30 0 30-1l43-1q44-2 55-2z" fill="#8e8b8c" stroke="#8e8b8c"/>
  <path d="m630 489h3v1h-1v1h-1v1h4q4 2 3 2t2 1q2 1 2 4-1 3 0 3 0 1 1 2 1 0 9 1h7v1h-7q-8 0-39 2l-31 1h-26q-18-1-22-1h-4l4-1 4-1h-4q-4 0-6 0h-2v-1h-1q0-1 3-1h2l-4-1q-5-1-16-3l-12-2h-5v-1l35-2q35-1 35-2l13-1q12 0 16-1h3l17-1q16 0 18-1z" fill="#c6c4c5" stroke="#c6c4c5"/>
  <path d="m605 338v-1l4 5q3 5 8 8 4 4 7 4 2 2 3 2h9-2v-1h-1v-1h-1v-4l2-1q3-1 3 0 1 0 1-2v-2l1-1 1-2v8h1v1h1l1 2q2 3 3 3h2v1h-1v1h-1l-1 1q-1 1-8 5-7 5-12 6-5 2-4 2 1 1 0 2-1 0-1 2v1h-1v1h-5v-1l-1-1v-2h-3v-1l1-1q1-1 0-2-1-2 0-7t-3-11l-4-6v-4q0-2 1-4z" fill="#c49ea6" stroke="#c49ea6"/>
  <path d="m275 97h43l44 1v2h-1v1h-1v1h-98q-35 0-66 0h-32 1v-1l55-2q55-1 55-2z" fill="#44282d" stroke="#44282d"/>
  <path d="m359 176h4q1 0 1 1v3h-7t-7-1l-8-1h2l6-1q6-1 9-1z" fill="#656565" stroke="#656565"/>
  <path d="m564 1069h10v1h3l10 2q9 2 9 3t2 2 7 1h5l2 1h1v1h-7l-4 1-4 1h-9v1h-21q-21 1-54 3l-32 2v1h-5q-5-1-13-1h-8v-2h2q3 0 4-1l1-1h-3v-3h-1v1h-1q-1 0-10-2l-9-2v-1h1v-1l58-3q58-3 66-4z" fill="#605351" stroke="#605351"/>
  <path d="m73 961v-9l9 40q10 41 10 45v4l1 2v2h-1v4l-1-1-1-2v-3l-1-1q-1-2-7-24l-6-22v-4q0-4-2-13 0-9-1-18z" fill="#726360" stroke="#726360"/>
  <path d="m819 450l1 3-5 174q-5 174-5 193 0 18 0 20v4l-1 1v1h2l1 2q0 3 0 4 0 2-1 2v1h-1v1h-7v-1h-1v-1h-2v-1h1v-1h-2l-1-1-1-1h-2l-1-1-1-1 1-1 2-1h4q3 0 4-4 0-3 6-200 6-196 7-196t2 4z" fill="#f7ebeb" stroke="#f7ebeb"/>
  <path d="m802 419h3q1 1 3 1h1v1h1v2h-2q-3 1-4 1h-2t-44-1h-47q-4 1-22 1h-19t-19-1l-19-1h-1l-3-1-3-1h16l-3-1-2-1h-1l-7-1-6-1h7l81-3q81-2 84 1 2 2 4 4 1 0 4 1z" fill="#7d5e64" stroke="#7d5e64"/>
  <path d="m99 254v-12h1v25h1v1h1l1 1q1 0 1 1t2 2q2 0 2 2 0 3 0 6v40q0 39 1 58v20h1q1 0 2 1h1v1h-10v1h-1v1h-1v3l-1 2v-1l-1-3v-3l-1-1v-2h2q1 0 0-65l-2-65v-1q1 0 1-1v-11z" fill="#9d767e" stroke="#9d767e"/>
  <path d="m497 450h-18q-18 0-81 3l-63 2h-9q-10-1-10-1 1 0-2-1l-4-1h-6 4v-1h3l2-1h92q93-1 92-1 0 1 0 1z" fill="#514142" stroke="#514142"/>
  <path d="m496 80h4l3-1h3l4 1q4 0 4 2 0 1 2 2 2 0 1 1t3 1q3 0 10 1h6v1h-12q-11 0-42 0h-32 15l5-2q4 0 2-1t-2-1l11-2q11-2 15-2z" fill="#d9a9af" stroke="#d9a9af"/>
  <path d="m450 1088h14q8 0 13 1h6l1 1h3v1h1v1h3l3 1 4 1-5 1q-5 1-37 3l-33 2t-18-2l-18-2h-2v-1h1v-1l29-3q29-3 35-3z" fill="#8b807d" stroke="#8b807d"/>
  <path d="m554 136v-1h4q3 1 4 1h2t0 1h1v1h2v1h1v4q1 5 14 4 12-1 13-1 1-2 1-2h1v1q1 1 1 2t-2 1-2 2v1l1-1q1 0 1 4 0 5 2 6 2 0 2 1t2 1 4 2 3 2h2q1 1 1 3 0 3 0 3l1 1v1h-2v-1q-1 0-1 0 0 1-23 4l-23 3h-1q-1 0-2-1t-5-1q-3 0-7 1t-5-2-10-4q-10-1-8-1 1 0-2-1-4 0-4-1t-18-4l-18-2v-1h-1v1h-1l1 3q0 3 1 3h2l-2 1h-2l-1-1v-2q-1-1-1-1 0-1-1 1-1 1-4 0-3 0-3-1 1-1-2-1-2 0-2 1t-4 1h-4l-4-1-3-1h2v-1h1v-1h3l3-1q4-1 6-1h2l2-1 3-1h-1v-1h1v-1h-10l1-1 2-1v-5 1h1l12-1q11-1 12-2t2 1 22 1 25-2 8-1h5v-1h-1v-1h-1l-1-1q-2-1-3-1l-1-1h3v-1q1-2 1-4v-1t1-1q1 0 1 0z" fill="#232221" stroke="#232221"/>
  <path d="m818 439h1v1q1 0 1 0v4t0 4v5l-1-3q-1-4-2-4t-7 196q-6 197-6 200-1 4-4 4h-4l-2 1-1 1h-4q-4 0-27 0-24 0-76 3l-53 2h-13q-14-1-59 1l-45 1h-14v-1h-9l1-1q2-1 3-1h1l-6-1-5-1h7l16-4q16-2 18-3 1-1 3-1h2l1-1h2v-2h-1v-1h2v-1l11-1q10-2 12-3t6-5q4-3 4-4 1-2 1-2h1t0-2q1-2-2-2-4-1-5-2-1-2 0-3t-1-3q-3 0-4-2-2-2-4-2l-3-1h-5l-4 1h-3l-3 1q-2 1-4 2 0 1-1 3l-1 1v-1q0-1 0-2 0-2-2-3l-2-1h-1l-3 3q-4 3-4 3v1t-1 1h-1q0 1-1 1v1h-3v-1h-1v1h-1l-1-1-1-1v-1q0-1 2-3l1-3h-1l-2-1h-2q-2 0-4 2l-3 2h-1t0-1h-1q0-1-1-1t-1-1-5-1q-4 0-12 2l-7 2h-1q-2 0-4 1-1 1-6 4l-6 4h-2q-3 0-3 1t-3 1q-4 1-6 0t-4-1l-2-1q0-1-6 0l-5 1h-1v-1q0-1-1-1v-1q0-1 1-1t0-2v-2t-1 0q-1-1-1-1v-1l-1-1-1-1-1-1-1-1h-1l2-1 2-1h2l6-2q6 0 11 0h4l1-1 1-1 1-2 1-1v-5h-3l-1-1-1-1h-2q-2 0-29-2l-26-2h14q13-2 20-2h7l-15-1q-16-1-53-2l-37-1-2-1h-2v-2l56-2q56-3 64-3h14q5 0 4 1t28 0q28-1 54-2 27-1 27-2h25q24-1 28-1h5l1-1 2-1h4l-9-1h-9v-1h10q9-2 19-6 10-5 17-15 8-9 8-10l1-1q1-2 2-6l1-4v-2q0-3 2-74 0-70 0-74-2-5-6-13l-5-8v-1q-1 0-1 0 0-1-1-1v-1q-1 0-1 0 0-1-1-6 0-4 1-4t13-12q13-12 17-18 4-5 5-8l1-4v-5q0-5-1-7t-2-3l-2-1h-1t0 1l-1-1v-1h1v-1h-1v-1h-1v-1h6v-1h-1v-1h-1l-5-1q-5-1-11-1-5 0-19 2-13 1-22 2h-10q-1 0-2 1-1 0-3 3l-1 3q-1 0-1 2-1 2-8 3h-6l-4 1-5 1h2v1h-3q-4 1-16 1l-13 1h-17q-17-1-36-1t-24 1l-4 1h-11q-11 0-55 2l-43 1h-24q-24-1-25-1-2 0-3-4t-1-2l-1 1h-1q-1 0-1-2t-5-2l-6 1h-8l2-1 2-1h4l2-1 2-1h-20q-17 0-28 0l-12 2h-3v1h-1v1t-1 0v1q-1 0-1 1 0 0-1 0v1l-1 1q0 1-1 2v1l-1 1q-2 2-2 2h-1q-1 0-1 0v1t-1 1h-1t0 1h-1v1h-1v1h-1v1h-1t-2 3-4 3q-2 1-2 2t-10 14q-8 14-12 18-4 3-4 4t-9 9q-8 9-14 11-6 4-11 4-4 0-8-4-3-4-6-13-4-9-4-23-2-15-2-20-2-4-4-12-4-8-4-14 0-7 2-10 2-2 0-3t0-3q3-2 14-4l12-2h-6l1-1 1-1h2q2 0 2-1l1-1 51-2q50-2 65-2h25q10 0 20 0h11v-1l63-2q63-3 81-3h18l35-1q35-1 58-2l23-1h-1l1-1 1-1h6l-4-1h-3v-2h9q9 0 9 1t13 0q12 0 92-1 79-1 80-1 2 0 2-1z" fill="#e8bac0" stroke="#e8bac0"/>
  <path d="m206 170h2q2 0 2 1v3q0 2-2 1-3-1-3-2v-2q1 0 1-1z" fill="#393431" stroke="#393431"/>
  <path d="m562 432h3l2 1 2 1h23l-10 1-11 1h-6v1h-1q-2 1-19 1t-17 1-49 0l-49-1v-1h16q17-1 22-1h5l45-2q44-2 44-2z" fill="#cac9c9" stroke="#cac9c9"/>
  <path d="m344 12h1q1 0 1 1t-10 2l-9 1h7l1 1 1 1h4q3 0 3 1t7 1q8 0 18 1h11v1h-23q-24 0-34 1l-9 1h5q5 0 6 1h1q0 1-9 1h-15q-6 0-9-1h-3l6-2q6-2 6-3v-1h1v-1q1-2 4-2 2-2 18-2h18t0-1h2q0-1 0-1zm-41 7v-1q1 0 1 0v-1h1q1 0 1 1t-2 2q-1 0-1-1z" fill="#a2878b" stroke="#a2878b"/>
  <path d="m527 806h1l2 1q2 1 2 3v2q-1 0 0 1l-4 4q-4 4-3 5 0 0-1 0t-1-2q-1-2-1-2-1-1-1 0t-1 1h-1v-1q-1 0 0-2v-2q1-1 1-1v-1t4-3l3-3zm-7 9t1 0q0 1-1 1 0 0 0-1z" fill="#bca0a5" stroke="#bca0a5"/>
  <path d="m802 424l-1 1-1 1h-6q-7 0-42 2l-34 1q0-1-2-1t-1-1 0-1l-1-2h1v-1h43q44 1 44 1z" fill="#827374" stroke="#827374"/>
  <path d="m499 809v1q-1 1-2 0-2 0-8 0l-6 1h-3q-2 1-4 1h-1l-1-1q0-1 0-1h-1l7-2q8-2 12-2 5 0 5 1t1 1 1 1z" fill="#c3a0a6" stroke="#c3a0a6"/>
  <path d="m796 858h8l-2 1q-1 1 2 1h2l-1 1q-1 1 0 7 1 7 1 8v1h-1q-1-1-7-2-6-2-6-3t-1-2q-1 0-2-4-1-3 1-4v-1h1v-1h3q4 0 3-1t-1-1z" fill="#c59ca3" stroke="#c59ca3"/>
  <path d="m391 97l1-1h134q43 0 50 1h8v2h-26l-25 1h-49l-2 1h-31q-28 1-32 1h-10q-6 0-11 0h-5q-1 0-2-1t-1-2 1-2z" fill="#452b2f" stroke="#452b2f"/>
  <path d="m513 51h11q1 1 6 1h6l-1 1-1 1h-2l-6 1-5 1h2l3 1 3 1 9 2q10 2 12 4 1 2 16 4 14 2 15 3l1 1h3v1h1v1h-1t-3 1l-2 1h1l4 2q4 2 5 3l2 1h2l-3 1-3 1h2l2 1 3 1h-2v1h-3q-4 1-29 0h-31q-7-1-10-1-4 0-3-1t-1-1q-2-1-2-2 0-2-4-2l-4-1v-1h-3v-1h-1v1h-1l-1-1h-1v-1h9-1l2-1 2-1h-7l2-1 2-1h-4q-5 0-14-2-9 0-8-1 2-1-6-1-9-2-20-5t-11-5q-1-1-8-3-8-1-5-2 2-1-3-1-5-2-3-2l1-1h9q8-1 38 1 30 0 39 1z" fill="#eec9cc" stroke="#eec9cc"/>
  <path d="m162 929h10l17 1q17 1 21 2 4 0 4 1h-8q-8 1-23 1l-15 2h2l3 1 3 1h-4q-5 0-30 2l-24 2v-1h-1v-1l-1-1v-6l1-1v-1l17-1q17 0 28-1z" fill="#777" stroke="#777"/>
  <path d="m651 192h1v6h-4q-4 0-16-2-13-1-13-2v-2q1 0 1 0v-2h12q11 0 14 1 4 1 5 1z" fill="#57504d" stroke="#57504d"/>
  <path d="m93 302v-39l1 2q1 3 1 2 1 0 1 0v-1t2 0l1-1v1q-1 1-1 1l-1 63-1 62v-7l-1 4-1 4v-26q0-26-1-65z" fill="#e2cdca" stroke="#e2cdca"/>
  <path d="m536 220h3v1h-20v-1h2q2 0 2-1h1v-2q1-1 5-1 4 1 4 2 0 2 3 2z" fill="#544d4d" stroke="#544d4d"/>
  <path d="m270 348l-1-6h1l6 7q6 7 10 10 3 3 4 3h1l1 1 1 1h7v-1q1 1 5 1h4v1h1v1h4l1-1h1v1h-1l-1 1-1 1h-4v1q-1 0-11 6t-13 7l-3 2h-1l-2-1-2-1h-1v-5q0-2 0-3 0 0 0-1 1-1 1-4 1-4-3-10t-4-11z" fill="#b08891" stroke="#b08891"/>
  <path d="m670 722l-1 4q-1 4-2 6l-1 1v-3q0-2-2-2h-2l-30 1h-31v-1h13q14-1 14-2t-2-1q-1-1-1-1l5 1q4 1 21 0t17-2q2-1 2-1z" fill="#524d4e" stroke="#524d4e"/>
  <path d="m130 336v-4 1q1 1 4 2 4 1 4 0 1-1 2-2 2 0 2 1t1 2l-1 1q-2 1-1 2 1 0 1 1 0 2 1 2 1 1 1 2v2h-1v1h-1v1h-8v-2h-1v-1h-1v-4h-1q-1-1-1-5z" fill="#79696c" stroke="#79696c"/>
  <path d="m236 196h4v4q0 3 0 4v1h-4q-3-1-6-1l-4-2 2-1q2-1 3-1v-1l1-2q1-1 4-1z" fill="#37302f" stroke="#37302f"/>
  <path d="m282 25h10q3 1 9 1h6l-1 1-1 1h-5q-6 0-66 3-59 3-80 2l-20-1 20-2q19 0 22-1h3l31-1q32-2 32-2h17q17 0 23-1z" fill="#d6a5aa" stroke="#d6a5aa"/>
  <path d="m96 181l-1 1h-1v1h-1v1h-1v-12q0-5 21-2 21 2 29 4 8 1 8 2t-23 2q-23 0-27 2-3 0-4 1z" fill="#363636" stroke="#363636"/>
  <path d="m810 396h9t1 1h1q0 1-3 1-2 1-2 2v1h-1v1h-1v9l1 1q0 2 1 2 2 0 2 1h-2q-1 1-2 1t-4 0q-4-2-4-3-1-1-4-2l-2-1t-1-2l-1-1v-7h2v-1h1v-1h5q4-2 4-2z" fill="#d3acb4" stroke="#d3acb4"/>
  <path d="m690 316h1v8q-1 8 0 9v1h-1t-1-5-4-5l-3-1v-2l3-1q3-1 4-2 1-2 1-2z" fill="#bc989f" stroke="#bc989f"/>
  <path d="m174 362l1-18 2 2q1 3 2 5 0 2 1 2t1-1 2 0q2 2 3 2h1t1 1q0 1 0 1h1l6 4q6 4 8 5t3 1h2l2 1 2 1h8v1h-1v1h-1v1h-1v1h-1v1h-1v1h-1q-1 0-9 6-8 4-9 6t-6 3q-5 0-5 1-1 1-1-1-2-2-2-1 0 2-1 2t-1-2q0-3-2-3-1 0-2-2 0-2-1-2t-1-19z" fill="#b98e96" stroke="#b98e96"/>
  <path d="m508 806h2l2 1h1l-1 3q-2 2-2 3v1h-1q-1 0-1 1-1 1-1-1-1-1-2 0h-2q-1-1-1 0v1l-1 1q-1 1-1 2v1h-2v-4h1v-1h1v-1l1-1v-2l3-2q2-2 4-2z" fill="#bfa1a5" stroke="#bfa1a5"/>
  <path d="m205 310l5-2h2v1q0 1 0 2v1h-1q-1 0-3 2-2 1-2 2v2t-1 0v1l-2 5q-3 5-3 10v11h-1v1h-1l-1-1-1-1h-1l-1-1v-4l-1-3q-1-2 1-8 0-5 4-10 2-5 7-8z" fill="#c6c6c6" stroke="#c6c6c6"/>
  <path d="m75 148q1 0 1 1v1h1v1h-1v1h1l1 1h1l2 1q2 0 2 6 0 7 2 7h3l1 1h-1v1h-1v1q1 0 1 1 1 1-1 1l-2-2h-1t-1 0q-1 1-2-1l-2-1v-1h-1v-1h-1v-1h-1v5h1l1 1 1 1h1v2q2 1 2 4v2l1 2 1 2v3h-1v-1h-1l-2-1h-3v-1h-1v-2q0-2-4-8-4-5-5-6-1-2 1-5t2-6l1-3v-1q1-1 2-3l1-1q1-1 1-1z" fill="#372c2b" stroke="#372c2b"/>
  <path d="m562 511h34l15 1h1v1h-1v1h-1v1h1v1h-2v2h-1q-1 0-2 3-2 3-1 4t-1 2q-2 2-10 5l-7 2v1h-1v1h-2v1h-1v1h-7q-7 0-84 3l-78 2h-50q-49-1-52-1l-3-2h-1l-1-1h-1v-2l1-4q1-4 5-9l5-6h25q26 0 42-1h15l81-3q82-2 82-3z" fill="#d9aab1" stroke="#d9aab1"/>
  <path d="m536 87h25q25 1 29 0h3l19 3q20 2 22 2h3v1h1q1-1 3 0h2l5 2q5 1 6 2h2q0 1 0 1h1t0 1h1v4l1 1v2h-2l-7 1q-6 1-14 0-9 0-9-1-1-1-8-2h-7l-3-1q-3-1-39-2l-37-1 25-1h26v-2h-8q-7-1-50-1h-44t-19-2h-19v-1h-1v-1h4l-3-1-2-1h3l1-1q2-1 2-1h34q31 0 42 0h12v-1z" fill="#b28088" stroke="#b28088"/>
  <path d="m204 873h13v1l29 2q30 2 57 2h28q1 1 1 1 0 1 12 1h12t-26 2l-27 2h-11q-11 0-28 1l-17 1h-11q-12 0-65-1l-53-1h-1v-1h-1v-3h1l1-1 1-1h1v-1h1l13-1q14 0 16-1h1l-1 1t15 0 15-1q-1-1-1-1h7q6 0 18-1z" fill="#737071" stroke="#737071"/>
  <path d="m102 928l1-1v1h3v1l1 1 1 1v6h1v1h1l1 2q2 2 3 3h1v1h18l-2 1-2 1-3 2q-2 2-3 6-1 3 1 76 2 72 1 72l1 1 2 1h4-17l-3-1q-3 0-4-1 0-2-1-8l-1-5v-20q0-20 0-36t1-15 1-36q2-37 1-38-1 0-1-1t-2-1q-1 0-3-2l-2-2h1v-7q0-3 0-3z" fill="#9b767e" stroke="#9b767e"/>
  <path d="m276 490l-2-1 3 1q3 0 3 1v1t-1 0v1h-1q0 1 0 1h1l1 1q1 1-1 2-3 1-2 1v1h-5l-4 1h-2q-2 1-2 6v8h-1t-2 0-4-1l-1-2-1-3v-6l1-3v-1q0-1 1-2t11-2q10-2 8-4z" fill="#6d6164" stroke="#6d6164"/>
  <path d="m466 271h8q0 1 2 1 1 0-1 2-2 0-12 2l-10 2h-9l10 1 10 1h-9l-7 1q-7 1-16 1-8 2-22 6t-26 10q-13 4-16 4-2-2-5 0-3 1-5 1t-2-1-4-1q-3-1-8-2-4-1-9-3l-5-2h-5 1v1h1v1h1l-1 2q0 1-1 1-1 1 0 1t1 2q-1 1 1 4 0 2 1 4v3h-1q0-1-1-2t-8-5-7-6-2-3-8-1q-5 0-12 4-6 2-11 8-5 5-7 10l-3 6h-1v1q0 1-1 2t-3 2l-3 1h-3v2h1l3 1q4 0 5 4 1 5 1 5h1l1 6q0 5 4 11t3 10q0 3-1 4 0 1 0 1 0 1 0 3v5h1l2 1 2 1h1l3-2q3-1 13-7t11-6v-1h4l1-1 1-1h1v-1l4-2q4-2 4-3 2-1 2-1v-1l1-1v-1h1v1l1 1q0 2 1 2t2 2q0 2 1 5 0 3 1 2 0 0 4 3 4 4 6 4 1 2 2 2h1v1h-1v2h-1v1h4v2h-10l3 1q2 1 2 0h1v1h1l-6 1-5 1h-7l23 2q23 2 35 2h12v1h-10q-11 1-36 2l-24 1h-4q-5 0-14-1h-22q-13 1-61 2l-48 1 1-1v-1h-1l-2-1-2-1h-1q-2 0 0-1 1-1 0-1-2 0-3-2t-1-14q0-13 2-20l2-8v-7l1 1v2l-1 18q0 19 1 19t1 2q1 2 2 2 2 0 2 3 0 2 1 2t1-1q1-1 6-1 4 2 6 1t2-3q1-2 9-6 8-6 9-6h1v-1h1v-1h1v-1h1v-1h1v-1h3q2-1 6-3t6-4 3-2 1-2q0-1 1-5t2-7l1-4h-1v-2h3v-4h1v4q1 4 0 4v1h1v3h2v-2h1v-1h1v-11q0-10 0-12l-2-3v-1h-2v-1h-1v-1h-1v-1l-1 3v4h-1v-4l-1-2q-1-1-8-8-7-6-7-8t-2-2h-3q-1 0-6 0t-11 2q-7 2-8 4-2 2-4 3l-2 1-6 5q-6 5-6 6-1 1-3 1t-3 0-1 0v1q-1 0-1 1 0 0-1 1l-1 1v1q0 1-1 0t-1 1q0 1-2 2-3 1-2 4 0 2-1 3-1 0-1 2-1 3-2 3-2 0-2 2v1l-1 1-1 1v-3h-1v-1h-1v-1q0-1-1 0v1h-1l-1 1h-3v-1h-1v-1l1-1q1 0 2-2v-5q0-3-2-4-1 0-2-4 0-4-3-4l-2-1v-1q-1 0-1 0v-1h-1v-1h1q1 0 1-2t2-3q3-1 3-2t-1-1 1-3q3-3 10-5 8-2 24-6 17-4 24-4 8 0 10 0t4-1q1-1 3-2 2 0 3-1 0-2-1-2-1-1 0-1 0-1 0-1h1l15-1q15-1 95-4 81-3 94-4l14-1h9q9 0 17-1zm-282 119t1 0-1 0z" fill="#e0afb6" stroke="#e0afb6"/>
  <path d="m475 927h1q0 1-2 3-3 2-2 2t-24 4l-25 4h-4l-1 1-2 1h11v2h-4l-2 1q-2 1-4 1l-2 1v1l-1 1v5l1 1 1 1 4 4q4 4 10 8 7 4 15 10 9 6 11 10 3 4 8 6t24 4 26 3h8v2h-6l-7 1h-5l38 2q37 2 44 3h7v1h-13q-14 0-188 10t-176 12q-3 0-6 5-4 4-4 13 0 10 1 12t3 2q1 0 12 6 11 4 12 6 0 2 7 4t5 2l-3 2h7q8 0 16 1l8 1h-5q-5 0-35 2-29 1-30 7 0 6-4 6h-7q-3 1-32 2l-29 1h-4l-2-1-1-1q1 0-1-72-2-73-1-76 1-4 3-6l3-2 2-1 2-1 79-4q79-4 79-4h12l54-3q54-3 54-3l31-1q32-1 33-2z" fill="#c99aa3" stroke="#c99aa3"/>
  <path d="m275 502l1-1v13h3l40 1q40 1 61 1h20t-1 0v1h-15q-16 1-42 1h-36q-11 0-30 1h-18v-1q0-1-2-2-2-2-3-5l-1-3v-2h3v2l1 3 1 2q2 1 4 1t2 0h1v-2h1q1 1 1 1v1h2q2 0 4 1h1v-7q1-6 2-6z" fill="#403737" stroke="#403737"/>
  <path d="m807 908l1 1h2v1h-6v1h-7q-7 1-111 6l-104 5t-3-1l-3-1h-6v-1h4l5-1 73-3q72-3 83-4l11-1 30-1q30-1 31-1z" fill="#665e60" stroke="#665e60"/>
  <path d="m784 882l4 5q4 5 4 6t1 1h1v1h1v1h-2v1h-7q-7 1-42 2l-35 2v-1h-1l1-1h1v-5l14-2q13-2 14-3 0-1 2-1h2l2-1 1-1h1v-3h-2q-1 1-2 1t-1-1 1-1-2-1l-2-1h4l4-2q3 0 16-1t17 2 5 3z" fill="#6a4e54" stroke="#6a4e54"/>
  <path d="m605 312h1l-1 9q-1 9-1 11t1 4v1h-1q0 1 0 1h1v1q-1 1-1 3v2t-2-2v-3l-1-2q-1-2-1-6t-3-5l-3-2 3-2q3-3 3-6 0-2 2-2t2-1 1-1z" fill="#d0a5ad" stroke="#d0a5ad"/>
  <path d="m798 199h1l13 5q14 6 15 6h1t-1 1q-1 0-1 1t1 1 1 1-1 1l-1 1h-31v-4l-1-4 1-1q1-1 1-5 0-3 2-3z" fill="#0e0e0e" stroke="#0e0e0e"/>
  <path d="m400 815h3l-1 1q-1 0-1 1t-1 1-1 1h-1v3q-2 3-2 4h-1q-1 0-1-2 0-1-4-1l-4-1t0-1q-1-1 0-1v-1h2q1 0 1-1 0-2 4-2t7-1z" fill="#b3979c" stroke="#b3979c"/>
  <path d="m88 152h3l-2 1q-2 0-2 1v7q1 5 0 5v1h-2q-2 0-2-7 0-6-2-6l-2-1h3q3-1 6-1z" fill="#333232" stroke="#333232"/>
  <path d="m598 765h23l9 1h-4l-2 1-1 1h-5q-4 0-28 1h-25q0-1-9-1h-9l19-2q19 0 32-1z" fill="#e7cacc" stroke="#e7cacc"/>
  <path d="m411 318v-1h-1l1-4q1-4 1-5 1 0 5 0 3 1 3 6-1 4-4 4-4 0-4 0t-1 0z" fill="#f8962a" stroke="#f8962a"/>
  <path d="m290 484h20l-2 1-2 1h-4l-2 1-2 1h-2q-3 0-8 2-6 0-7 2l-1 2h-1v-2q1-1 1-2 0 0-3 0l-3-1h-8q-9 1-11 1h-5l-1 1h-1v-2h-1l-1 1h-1l-1 1h-1v-1l1-1v-1h2v-1h1v-1h3l12-2q11 0 28 0z" fill="#b1878f" stroke="#b1878f"/>
  <path d="m301 395h9q9 1 14 1h4v1h-1v1h7q6 0 6 1t10 2q9 1 40 3 30 2 30 2h-32q-31 0-112 3l-82 2h-2q-1 1-40 1-39 2-43 0l-4-2v1h-1v-3h-1v-1h1v-4h-1v1h-1v-1h-1v-1h1v-1h1v-1h10v-1h23q24-1 29-1h56q51 0 65-2 15 0 15-1zm-196 12q1 0 1 0 0 1 0 1-1 0-1-1z" fill="#898687" stroke="#898687"/>
  <path d="m830 438h1l-5 199q-6 199-5 201v1h-1q-1 0-2 1 0 2-4 3-3 1-3 2v1h-2v-1l1-1v-4q0-2 0-20 0-19 5-193l5-174v-5q0-4 0-4v-3l5-1q5-2 5-2z" fill="#ecc5c6" stroke="#ecc5c6"/>
  <path d="m818 257v1t-3 1-109 4l-106 3-29-1-29-1t-1-1l-2-1h4l-2-1-2-1h-3v-2h27q25 0 45-1h21l95-1q95-2 94-1 0 1 0 2z" fill="#c3a1a9" stroke="#c3a1a9"/>
  <path d="m103 446h1l2-1q3 0 3 1v2l-1 1v5l1 1 1 1 2 1 1 1h2v1h-1v1h-4q-3 0-6-2l-2-2v-1l-1-1-1-1v-4t1-1v-1h1q0-1 1-1z" fill="#221f20" stroke="#221f20"/>
  <path d="m638 299l2-1 6 2q6 1 6 1 0 1 1 1h1t0 1h2l3 5q3 5 5 12 0 6 0 8 0 1-1 3v2q-1 0-1 1v4t-1 0h-2v1h-1v1h-1v1h-1v1h-1v1h-1l-1 1q-1 1-2 4v4h-2v-1h-1v-1h-4v-1h-1v-1h-2v-1l-1-1v-14q0-11-2-20l-2-9v-1h-1q-1-1-1-2h1q1 0 3-1z" fill="#f5f4f4" stroke="#f5f4f4"/>
  <path d="m421 437h9v1l49 1q49 1 49 0t17-1 19-1h14q12 0 12 1t8 2q9 0 12 1h3v2h3l4 1h-6l-1 1-1 1h1l-23 1q-23 1-58 2l-35 1t0-1q1 0-92 1h-92l-2 1h-7q-1-1-19-2t-37-3h-19l1-1 1-1h1v-1h6q5-1 5-1l53-1q54-1 54-2h23q23-1 35-1h13v-1z" fill="#a19f9f" stroke="#a19f9f"/>
  <path d="m62 908v-3 10q0 10 1 15l1 5v2l2 25q2 25 2 29t1 5l1 1v3h1v1h1v4l-1 5q-1 4-1 4v2l-1 1-1 1v3l-1 1v1h-1l-1 1h-1v-2h-6v-1l-1-1q-1-2-1-2t-4-11q-3-11-4-9 0 1-3-4l-2-6v-3q-1-3-1-10t2-17q1-9 2-9 1-1 4-11 2-11 5-18 2-7 3-7t1-1 1-1 2-3z" fill="#bebbb8" stroke="#bebbb8"/>
  <path d="m537 768h19q9 0 9 1t-27 2q-26 1-54 2-29 1-28 0t-4-1h-6l40-2q41-2 51-2z" fill="#e7c8c9" stroke="#e7c8c9"/>
  <path d="m442 866h14v1q1 1 20 3 20 2 20 2h1t-71 4l-70 4h-12q-12 0-12-1 0 0-1-1h-1q0-1 1-2 0-1-2-1l-2-1h-6v-1h1v-1h3q3 0 5-1l3-1h1l-3-1-3-1h-3l55-3q55-2 56-1 0 2 6 2z" fill="#898485" stroke="#898485"/>
  <path d="m259 226v1h-3q-3 1-49 1l-46 1v-1h-29l-2-1h-2v-2h1l1 1 62-2q61 0 63 0t3 0q0 1 1 2z" fill="#433f3e" stroke="#433f3e"/>
  <path d="m774 1068l10-1h13q2 0 0 2-2 3-9 3l-7 1h-1q0-1 6-2 6-2-3-3h-9z" fill="#9e9190" stroke="#9e9190"/>
  <path d="m716 1083h10l1 1h5l8 3q7 3 14 3 6 0 7-1h1v1q0 1-2 2-2 0-22 4t-32 6q-13 0-30 2-16 2-36 2h-21l-2 1h-2v-1l-1-1v-2h-1v-1h2q2 0 5-1l2-1h-2l-3-1q-3-1-23-3l-21-2v-1h1v-1l18-2q17-2 17-3l35-1q35 0 49-2 14 0 23-1z" fill="#bbb7b4" stroke="#bbb7b4"/>
  <path d="m379 21h2q2 1 9 1h56l25 1q25 1 37 1h12l4 1h5v1h-21q-20 0-102-1h-82q-1-1-6-1h-5l9-1q10-1 34-1h23v-1z" fill="#b1868c" stroke="#b1868c"/>
  <path d="m623 476h1l13 2q13 0 19 1h7v1h-1l-16 1h-16v2h2l1 1h1v2h-1l-1 1h-8l-6-1-1-2v-1l1-3q2-3 3-3 1-1 2-1z" fill="#534547" stroke="#534547"/>
  <path d="m221 298h1t0 1q1 1-4 3l-4 2h-1v1h-1v1h-1v1h-1v1l-5 2q-5 3-7 8-4 5-4 10-2 6-1 8l1 3v4q0 1 0 1h1l3 4q2 4 6 6 4 3 5 6l1 3v1h1v1h1v1h3v1h-1v1h-2l-2-1-2-1h-2q-1 0-3-1t-8-5l-6-4q-1-1-1-1v-1t-1 0q-1-1-3-6-4-5-4-11l-1-6v-3q1-3 1-4t5-8l5-8 2-1q2-1 4-3 1-2 8-4 6-2 11-2t6 0z" fill="#696264" stroke="#696264"/>
  <path d="m90 30h1l5-1h6v1h-1l1 1 1 1h21t-18 2l-19 2v-5h1q0-1 2-1z" fill="#8b6b71" stroke="#8b6b71"/>
  <path d="m211 312h1l1 9q1 9 2 16v15q-1 7 0 8l1 2v4h-4v-1h-1v-1h-1v-1l-1-3q-1-3-4-5-4-3-7-7l-4-5h1q1 0 1 1t1 1l1 1h1v-1h1v-5t1-2l1-1q0-1 2-9l1-9h1v-3q0-1 2-2 2-2 3-2z" fill="#8e8888" stroke="#8e8888"/>
  <path d="m52 163v-1h1l1 1q2 1 2 2t1 1v1q0 1 1 1l2 6q3 5 4 5t3 3q1 4 2 4v1h1v1l1 1 1 1v1l4 5q2 5 3 6 0 0 1 1v2h1v1h1v2l6 9q5 9 4 9t-1 5l1 5v26h-2v-1l-1-1-1-1v-2l-1-9q-1-9-1-12 0-4-16-30t-17-34l-1-8v-1z" fill="#433f40" stroke="#433f40"/>
  <path d="m254 198v-6h1q1 0 1 2 1 2 7 3t10 1h4v1h1v1h-1l-1 1q-2 1-4 1l-3 2h1v2h-11v-1q-1 0-2-1-2 0-3-6z" fill="#342f2d" stroke="#342f2d"/>
  <path d="m320 146v-1t1 1l1 1v1h1v1h2q2 1 3 4 0 4 1 3 0-1 3-1 2 0 2 2t1 2q1 1 5 1h3v1h1v1h2l-2 1-1 1h-5q-5 0-12 1-8 0-8-1t-8-1l-8 1h-4q-4 0-28-2-23-2-33-4l-10-1v-1l-1-1v-1h1v-1h1v-1h-1v-1h-1v-2h1v-1l20-2q20-4 36-6t23-1q6 1 7 5t4 3 3-1z" fill="#2d2928" stroke="#2d2928"/>
  <path d="m253 192h1t0 1h1v5q0 6 2 6 1 1 2 1v1h27q17 0 53 0h37v2h-8v1h-23q-23 1-57 1h-35v-1l-1-1v-15q0-1 1-1z" fill="#484848" stroke="#484848"/>
  <path d="m442 732h2v2h14t-92 4l-91 2h1v-1l82-3q81-4 84-4z" fill="#777676" stroke="#777676"/>
  <path d="m451 101h28l1 1q1 0 14 2 14 0 20 1l6 1h-8q-8 0-16 2-7 0-6 1t-3 1q-4 2-16 2t-11 0-11-2q-11-1-11 0t-2 1-2 1q0 2-4 2-3 0-4-1-2-2-4-2-1 0-1 1 0 2-9 2l-9 1q0-1 0-1 1 0-3-2-3-2-16-4l-13-2h-1v-1l14-1q15 0 23-1l8-1h4q4 0 32-1z" fill="#c898a0" stroke="#c898a0"/>
  <path d="m436 352v1q0 1 2 3 2 1 2 2t1 1v3q0 2 1 2t1 1-1 1-3-3q-1-3-3-4l-2-1h-1q-1 0-3-1-1 0-1-1v-2l3-1q3-1 4-1z" fill="#c99ca5" stroke="#c99ca5"/>
  <path d="m776 1073h5v1h-1v1h-1v1h1l2 1h1v1l-1 2v1h-1v1h-1v1h-1q-1 1-9 3l-8 3t-1 1h-7q-7 0-14-3l-8-3h-5l-1-1h-1v-1h3l1-1h1v-2h1l1-1 7-1q7-1 9-1h3l3-1 3-1h2v-1h7q7-1 10 0z" fill="#b4aeab" stroke="#b4aeab"/>
  <path d="m220 438v-1h1v1h2v1h1v2h5l5 1h9t-5 1h-24v-1t1-2q1-1 3-1t2-1z" fill="#473c3c" stroke="#473c3c"/>
  <path d="m63 128l1-1v1h1v6q1 5 1 7v2l1 1 1 1v1h2q2 0 3 0t1-2q0-1 2-2l2-1-1 2q-1 2-2 3v2q-1 0-1 0v1l-1 1q-1 2-2 3v1l-3 4q-4 4-4 5-1 1-2 1h-1v3l-1 3v-1h-1v-1h-1v-5h1l1-1t1 0v-1h1v-15q0-15 1-16v-2z" fill="#9d777e" stroke="#9d777e"/>
  <path d="m737 861h10v1h-1l4 1 3 1h7q7 1 7 2v1q-1 0-31 3l-31 4h-3v1h-1v1h-1l-2 1-1 1h-14q-14 0-22 1t-167 7l-158 7v-1h-2v-1h-1v-1h-5l-8-1q-9 0-9-1v-1h-6v-2h-1l-1-1 27-2q26-2 26-2l70-4q71-4 71-4l85-4q84-4 90-4h7l24-1q24-1 34-2z" fill="#906d75" stroke="#906d75"/>
  <path d="m328 313h1v1l1 1v2l1 1 1 1v1q0 2 1 7v5h-1v-6l-1-2q-1-2-1-4-2-2-6-6-4-5-10-7-7-1-10-1h-2t-1 0v1h-2q-2 1-4 1l-1 1h-1v1h-1l-2 3q-4 3-6 7-2 5-2 11t1 7v2t1 1v2l1 1 1 1 3 4q3 3 6 4t3 3v2h-1v1h1v3h1l1 1v1h-7l-1-1-1-1h-1q-1 0-4-3-4-3-10-10l-6-7v-1q0-1-1-9v-8l3-6q2-5 7-10 5-6 11-8 7-4 12-4 6 0 8 1t2 3 7 6 8 5 1 2z" fill="#706b6c" stroke="#706b6c"/>
  <path d="m282 1085h6v2h2l2 1h-2l5 1q5 1 9 3 4 1 6 2t1 2v1q0 1-13 3l-12 2-2 1-1 1h-11q-7 0-35 1h-29q-1-1-2-1h-2v-1q0-1-4-1h-4v-1h4q4 0 4-6 1-6 30-7 30-2 35-2h6q1 0 7-1z" fill="#645754" stroke="#645754"/>
  <path d="m468 314h2v1q0 1 0 2v1h-2q-1-1-3 4-1 5-2 6v1l-1 1q0 1-2 12-1 10-2 10h-2t-2-1l-1-1q-1-1-1-1v-1t0-8q0-9 2-14 4-6 8-8l5-3q1 0 1-1z" fill="#dcdcdc" stroke="#dcdcdc"/>
  <path d="m313 87h1l56 1q56 0 67 0h11t-2 1l-1 1h-3l2 1 3 1h-4v1h1v1h19q19 2 19 2h-90l-1 1q-1 1-1 2t1 2 2 1h5q5 0 11 0h6l-8 1q-8 1-23 1l-14 1h-6q-7 1-24 0h-24q-5-1-5-1 1 0-7-1l-7-1h63v-1h1v-1h1v-2l-44-1h-64q-22 0-22-1 0-2-10-3l-10-1h4v-1l37-1q37-2 48-2t12-1z" fill="#a2737c" stroke="#a2737c"/>
  <path d="m400 13l18 1q17 0 19 2t5 2h2q0 1-4 1-3 0-3 1v1h5l4 1h-49v-3h8v-2h-1l-1-1h-1v-1h-1v-1h-1t0-1zm33 4q0-1 1 0 2 1 1 1t-1-1-1 0z" fill="#c6b4b6" stroke="#c6b4b6"/>
  <path d="m706 293h1l-1 2q0 2-1 3-1 0-2 4t-3 10q-2 5-2 10v6l1 2 1 2v1l1-2v-2h2l1 3q2 3 2 4 0 0 0 1h1q0 1 1 1v1q0 1 1 1h1l2 2q2 2 4 2 2 1 2 2v7h1l1 1h-1v1h-1l-2-1h-4l-2-1q-1-1-6-4t-5-4q-1-1-2-1-1-1-3-5l-3-4v-2q-1-1 0-9v-8l3-6q2-7 7-12 5-4 5-5z" fill="#706869" stroke="#706869"/>
  <path d="m538 728h1v1h1v1h4t-43 2l-43 2h-14v-2h7l7-2q7 0 44-2 36 0 36 0z" fill="#bcbcbc" stroke="#bcbcbc"/>
  <path d="m764 1068h19q9 1 3 3-6 1-6 2h-4q-3-1-10 0h-12q-6-1-11-1h-5l-4-1-5-1h9l8-1q8-1 18-1z" fill="#7f716f" stroke="#7f716f"/>
  <path d="m552 823l8-1h11t-1 2q0 1-4 4-4 4-6 5t-12 3l-11 1h-4l-4-1h1q2 0 4-1l1-1h-2l-2-1-2-1h2l3-1 2-1h5v-1l1-1-4-1-4-1h-5v-2h8q8 0 15-1z" fill="#cfa5ae" stroke="#cfa5ae"/>
  <path d="m660 348h-4l1-1 1-1v-1h1v-1h1v-1l1-3v-2q1 0 1 0v-3t1-1v-3q1-2 1-3 0-2 0-8-2-7-5-12l-3-5h2q2 0 1 0 0-1 0-1h-1l-1-4q-2-4 3 0 6 5 8 10 4 5 4 14 0 10-4 16-4 5-6 7-2 3-2 3z" fill="#dbd4d4" stroke="#dbd4d4"/>
  <path d="m802 414l-2-4 2 1q3 1 4 2 0 1 4 3 3 0 4 0t2-1h1l-1 5q0 5 2 5 2 1 2 1h-20l1-1 1-1h2q1 0 4-1h2v-2h-1v-1h-1q-2 0-3-1h-1v-1t-2-4z" fill="#b08b92" stroke="#b08b92"/>
  <path d="m122 462l6-2h35l-1 1q0 1-2 1h-2l-1 1-1 1h6l-12 2q-11 2-14 4-2 2 0 3t0 3q-2 3-2 10 0 6 4 14 2 8 4 12 0 5 2 20 0 14 4 23 3 9 6 13 4 4 8 4 5 0 11-4 6-2 14-11 9-8 9-9t4-4q4-4 12-18 10-13 10-14t2-2q2 0 4-3t2-3h1v-1h1v-1h1v-1h1v-2h1v-1h2v1l-1 1v1l-1 1-1 1v2l-3 11q-3 10-4 14-1 5-1 16t2 19q4 8 7 11 3 2 9 2 5 0 12 0 6-2 8-2 2-2 3-2t2 0h1v-1l1-1v-2h2v1l-1 1v4l-1 2q-1 1-1 1v-2l-2 3q-2 2-2 4v1l-2 7q-2 8-3 8-1-1-1 4-1 5-2 5t-2 13q-2 14-1 47 0 33 2 45t4 18q2 4 4 9 1 4 2 4l3 8q2 8 6 12 4 3 5 4l1 1h2v1h1v1h1v1h1v1h2l6 3q6 3 11 3 6 0 11 0h5l37 1q37 1 53 2l15 1h-7q-7 0-20 2h-14l26 2q27 2 29 2h2l1 1 1 1h3v5l-1 1-1 2-1 1-1 1h-4q-5 0-11 0l-6 2h-2l-2 1-2 1h1l1 1 1 1 1 1 1 1 1 1h1v2h-1l-1-1h-6q-1 0-1-1t-5-2-8-2q-2-1-2 1 0 1-1 2-1 0-8 3l-7 3h-2q-1 0-1 2v1q-1 0-1 1l-2 1q-1 1-2 1h-1v1h-1v1q-1 0-2 1h-3l-2 1h-1v8l1 1 1 1h3l15 2q14 1 15 3 0 2 9 2 9-1 11-2 1-2 2-2h1l1-1h28q27 0 43-2 15 0 14-1 0-1 7-1 7-2 9-2h3l2 1 2 1h2l-1 1q-2 1-4 1h-1l4 1h4v1h-2v1h1v2h-2l-1 1h-2q-2 0-3 1-2 1-18 3l-16 4h-7l5 1 6 1h-1q-1 0-3 1l-1 1h9v1h-3l-3 1h-8q-8 0-12 1l-5 1h-3l2 1q3 1 3 1h-1l-7 1-7 1h-5l-1 1-2 1h3l-3 1-2 1h-6q-6 0-6-2-1-1-56 1l-55 3h-11q-11 0-54 2l-44 2v1h-12q-12 1-18 1h-8t-14 0l-13 1h-1q-1 1-1 1h-5q-6 0-14 1h-9q0-1-1-1t-2-159q-2-158-2-206t6-49zm256 356q1 0 1 1v1h-1q-1 0-1-1t1-1zm-6 4q2-1 2 0t-2 1q-1-1 0-1z" fill="#d4a2aa" stroke="#d4a2aa"/>
  <path d="m561 201h67q17-1 25-1h8v1h1v2h-11q-11 1-59 1l-48 1v-2q0-2 1-2h2q1 0 6 0 4 1 8 0z" fill="#858585" stroke="#858585"/>
  <path d="m816 420l1-5h1l4 1q4 2 8 4 2 2 3 4 1 1 1 5v4l-2 2q-1 3-1 3h-1t-5 2l-5 1v-1t-1 0v-1h1q1 0 2-1 0-2 0-2h1t0-4q1-3-1-4l-2-2t-2-1q-2 0-2-5z" fill="#282525" stroke="#282525"/>
  <path d="m368 209v-1h7q1 1 1 2v1h1v-1h2l1-1 1 2q1 2 1 2l1 1q1 2 1 6v3l2-1q3 0 6 0 2 0 2 1v1h27v1h-19q-20 1-33 1h-38q-25 0-49 1h-23v-1q-1-1-1-2-1 0-3 0t-64 1l-62 1q-1-1-1-1h-1q-1-1-6 0l-5 1v-6l1 2v3h3v-3q0-2 20-3t19-1 97-2q97-2 97-3t11-1h10l-1-1-1-1h-2l-1-1h-1z" fill="#252424" stroke="#252424"/>
  <path d="m98 459h1l1 1q2 2 2 27t1 67v64q-1 21-1 34v13l-1-1-1-1v7h-1v-19q-1-19-2-105-1-87 1-87z" fill="#d0b5b4" stroke="#d0b5b4"/>
  <path d="m92 1047v-2h1l5 17q4 18 5 22l1 5v-1h1l1 1 1 5q1 6 1 8 1 1 4 1l3 1h3l-2 1-1 1h1v1l1 1h-7l-2-1q-1-1-2-1l-2-1v-1t-2-2q-2-3-6-24l-4-20v-11z" fill="#715e5e" stroke="#715e5e"/>
  <path d="m499 316v1l-1 1q0 1-1 2v2h-1t-1-2h-1v-1h-1v-1h-1v-1t-2-1q-1-2-7-4l-6-4h-1v-3q0-2 2-2t2-1q0-2 3-2 3 1 4 4 2 2 7 7 4 4 5 5z" fill="#e3cdce" stroke="#e3cdce"/>
  <path d="m304 18v-1h1q1 1 0 1-1 1-8 4l-8 3h-7q-6 1-23 1h-34q-17 0-24-1h-7v-1h-4l55-2q55-2 55-3h2t1-1q1 0 1 0z" fill="#6a5a5b" stroke="#6a5a5b"/>
  <path d="m272 1104h7l2 1 2 1 11 1q12 1 20 2l8 1h-4l-8 1q-7 1-42 3l-35 2v1h-15q-14-1-42-2l-27-1 2-1 2-1h-1v-1l-1-1v-1l27-1q27-2 29-2t2-1h28q28-1 35-1z" fill="#9d9491" stroke="#9d9491"/>
  <path d="m192 25h9q7 1 24 1h17t-32 2l-31 1v-1l6-1q6-1 7-2z" fill="#957076" stroke="#957076"/>
  <path d="m85 197v-1l3 2q4 1 4 7 1 6 6 9 4 3 5 6l1 2v1l2 2q1 3-2 3h-2v1l-1 1q-1 0-1 6v6h-1v-4q-1-4-1-6 0-3-3-3l-2-1v1h-1v7l-1-5q0-5 1-5t-4-9l-6-9v-2h-1v-1h-1v-1l-1-1v-1h2v1l1 1v1l2 1q0 2 1 2l1 1 1 1h3v-6q0-4-2-5-3-1-3-2z" fill="#87686e" stroke="#87686e"/>
  <path d="m122 274h4l47 3q47 3 48 4t1 1-1 1 0 1 1 2q-1 1-3 1-2 1-3 2-2 1-4 1t-10 0q-7 0-24 4-16 4-24 6-7 2-10 5-2 3-1 3t1 1-3 2q-2 1-2 3t-1 2h-1v1h1v1t1 0v1l-2 1q-3 0-3 1t-1 4l-1 3v1h-1v1h-1v6q0 4 1 5h1v4h1v1h1v2h8v-1h1v-1h1v-2q0-1-1-2v-1q0-1 1-1h1v1h1v1h3l1-1h1v-1q1-1 1 0t4 0q3 0 4-3 0-2 1-2 1-1 1-3-1-3 2-4 2-1 2-2 0-2 1-1t1 0v-1l1-2 1-1v-1h2v2h-1v1h-1v1h2l2 1 1 1-1 1q0 1-2 3t-3 2h-1v2l3 1q3 1 3 3 0 1 1 2h-1v8l-2 8q-2 7-2 20 0 12 1 14t3 2q1 0 0 1-2 1 0 1h1l2 1 2 1h1v1l-1 1h-14q-5 0-29 1h-24q-1-1-2-1h-1v-20q-1-19-1-58v-38l1-1 1-1 4-3q4-3 8-3zm95 6q1 0 1 0-1 0-1 0z" fill="#d6a4ac" stroke="#d6a4ac"/>
  <path d="m90 1058h2l4 20q4 21 6 24 2 2 2 2v1l1 3q1 2 1 3v1h1l1 1 1 1h-4l-1-1-1-1h-2l-1-1q-1-1-2-2l-2-1q0-1-1-1v-1q-1 0-3-4t-6-16l-3-12v-2l1-2v-1l1-1 1-1v-1l1-2q1-2 1-4 1-3 2-2z" fill="#988d8b" stroke="#988d8b"/>
  <path d="m124 200l1 6h2q2 0 1 2 0 2-2 2t-2-1v-7q0-8 0-2z" fill="#666" stroke="#666"/>
  <path d="m396 595h21v1h18t-77 3-84 3h-6v1l-1 1h-1v-6h1v1h1v1h2l52-2q53-2 74-3z" fill="#787777" stroke="#787777"/>
  <path d="m473 293q3 0 3 1t-2 2q-1 0-1 1 1 1 0 1t-2-2q-1-3 2-3z" fill="#ddafb3" stroke="#ddafb3"/>
  <path d="m304 451h5l4 1q4 2 3 2 0 0 10 1h9v1h-11q-10 0-20 0h-10l1-1 1-1h4q3-2 3-2 1-1 1-1z" fill="#9a878b" stroke="#9a878b"/>
  <path d="m557 1093h16v1l21 2q20 2 23 3l3 1h2l-2 1q-3 1-5 1h-2v1h1v2l1 1v1h-7q-6 1-30 2-25 1-36 2l-11 1h-5q-6 0-32 0-27 0-54-2l-28-2v-2h-6l1-1 1-1 7-1q7-1 7-2-1-1 0-1h1l33-2q32-2 37-3l5-1h22q21 0 37-1z" fill="#b9b5b2" stroke="#b9b5b2"/>
  <path d="m102 456l2 2q3 2 6 2h18l-6 2q-6 1-6 49t2 206q1 159 2 159t1 1h-1v1h-1l-1 1-1 1h-1l-1-1v-1h-3v2h-2v-2l-1 1-1 1v-2q0-3 0-4 1 0 1-16-1-17-3-140l-3-122v-42q-1-42-1-67t-2-27l-1-1q0-1 1-1h1v-1h1v-1z" fill="#a07780" stroke="#a07780"/>
  <path d="m222 298h2q2 0 2 2t7 8q7 7 8 8l1 2v4h1l1 4q0 3 1 6v4h-1v4h-1l-1 1v-9q0-7-4-12-2-5-7-8-4-2-11-3l-8-1h-2v-1h1v-1h1v-1h1v-1h1l4-2q5-2 4-3 0-1 0-1z" fill="#878686" stroke="#878686"/>
  <path d="m792 184l1 1v10q-1 10-39 11-39 2-82 4l-42 2-2 1-2 1h-1v1h-17q-17 1-41 1h-24v4h-4v-1h1v-5q0-2 1-2t-1-1-2-10v-9h-1v-1h-1v-1l2-1 2-1h1l1-1h2v2l1 6v6q-1 0-1 2v2l48-1q48 0 59-1h11v-2h-1v-1h1q1 0 2 1h1v-3l1-3v-5l-1-1v-1h2l1 7q0 7 37 7t59-1h21v-2h1q1 1 2 1h2v-4q0-5 0-8 0-4 2-4z" fill="#333" stroke="#333"/>
  <path d="m43 992v-4l2 6q3 5 3 4 1-2 4 9 4 11 4 11t1 2l1 1v1h6v2h1l1-1h1v-1l1-1v-3l1-1 1-1v-1l2 11q2 12 6 24 2 12 3 14l1 3v7h1l3 12q4 12 6 16t3 4 1 1v5q1 5 0 6 0 0 1 2 1 3 2 3v1h1v1h1v1h2v1h1v1h-3l-2-1-2-1h-1q-2 0-6-2-3-2-6-6t-5-5q-1-1-7-12t-14-42-12-47l-2-15-1-5zm50 116q1 0 1 0-1 0-1 0z" fill="#c7c4c2" stroke="#c7c4c2"/>
  <path d="m509 814h1l1 1 1 1h1v-1h1v1h3v-1q1 0 1-1h1l1 1q0 1 0 2v1t-1 0v1q0 1-1 2 0 1-2 2t-6 0-4 1l1 1h-2q-2-1-1-3t0-2q-2 0-4 2l-1 2h-1l-1 1h-1v-2l1-1 1-1v-1h1v-1h1v-1q0-1 1-2l1-1q1-1 1-1h2q1-1 2 0 0 2 1 1 0-1 1-1z" fill="#d5c6c9" stroke="#d5c6c9"/>
  <path d="m820 839h1v1q1 2 1 6v4l-1 2q-1 2-1 3t-7 3l-7 2h-2q-3 0-2-1l2-1h2l2-1q1-1 1-1h1v-1h1v-1q1 0 1-2 0-1 0-4l-1-2v-1q0-1 3-2 4-1 4-3 1-1 2-1z" fill="#2f2c2d" stroke="#2f2c2d"/>
  <path d="m205 318h1l-2 9q-2 9-2 10l-1 1q-1 2-1 2v-6q0-5 2-10 2-6 3-6z" fill="#a8a6a6" stroke="#a8a6a6"/>
  <path d="m535 919h35v1h6l3 1q3 1 3 1h-3q-3 0-45 2l-41 2-3 1h-3q0-1-1-1l-2-1h1q1-1 6-1h5v-1h1v-1h-19l2-1 2-1h9q9 0 44-1z" fill="#646060" stroke="#646060"/>
  <path d="m542 806h2l4-1h5v1l-2 2q-3 1-3 2v1l-2 2q-2 2-3 2v1l-1 2q-2 2-1 2h1l-1 1-1 1h-4v-6t2-2v-1h1v-1h1v-1h1v-1h1-1q-1 0-3 1l-2 2v-2h1v-1q1 0 2-2l2-2h1z" fill="#d1b4b8" stroke="#d1b4b8"/>
  <path d="m539 26l1-1h22q22 1 28 1h16l9 2q9 0 17 1l8 1h4v1h-28q0-1-39-3t-38-2z" fill="#c39ba0" stroke="#c39ba0"/>
  <path d="m589 195h1v1h8q6 0 8 1l1 1h7l-1 1h-1v2h-47v-1h-6v-1h1v-1h5l12-2q12-2 12-1z" fill="#191919" stroke="#191919"/>
  <path d="m407 815v1l-1 1q-2 1-2 1l-1 1-1 1h-1v1h-1v5h-2v1q-1-1-2-1 0-1 2-4v-3h1q0-1 1-1t1-1 1-1l1-1 2-1q2 0 2 1z" fill="#786065" stroke="#786065"/>
  <path d="m94 1108l1-1q1 0 1 1l2 1q1 1 2 2l1 1h2l1 1 1 1h4l5 1q4 1 20 0 15-1 15-1l27 1q28 1 42 2h20l4 1h5l3 1 4 1h-5q-5 0-9 1-5 1-14 3-8 2-13 3l-5 1h-4v1l-1 1h-1q-1 0-3 0t-2 1-20 1-41 0q-20 0-26-2l-6-2t-1-1h-1v-1t-1 0v-1h-1v-1h-1v-1q-1 0-2-4l-2-4h2v-1q-1-1-2-3t-1-3zm1 2q0-1 1-1t1 1-1 1-1-1z" fill="#bcb8b5" stroke="#bcb8b5"/>
  <path d="m63 48l6-6h1q1 1-3 8-5 7-5 12-2 5-2 7v2l-1 1v1q-1 0-1 1v2q0 1 1 2t1 3-1 7v18q-1 13-1 34v20h1l1 1h1v2h-3v4h-1v-1q-1 0-1-1t-2-2l-1-1h-1v2l-1 3q-1 3-1 6v3l-1 1-1 1v-14q0-15 0-52 0-36 0-40 2-5 5-12 3-6 10-12z" fill="#aa878f" stroke="#aa878f"/>
  <path d="m503 364q0-2 3-1 4 1 4 2t-3 1q-3-1-4-2z" fill="#d9adb1" stroke="#d9adb1"/>
  <path d="m195 140h4l2 1q1 2 2 3v2l1 5q0 5 0 7 1 2 1 2h1l-1 1q-1 1-7 2l-6 1v1l-1 1v1h-1l-1 1h1v3l1 1h-1q-2 0-2-2 0-1-18-1-18 1-22-1-3-2-20-2l-17-2h1l2-1 3-1 26-3q27-3 27-4t7-2 7-2-2-1q-1 0-1-1l3-1q4-1 6-5 1-3 5-3z" fill="#242121" stroke="#242121"/>
  <path d="m266 500h2l4-1h41q0 1-19 1l-18 1-1 1q-1 0-2 6v7h-1q-2-1-4-1h-2v-1t-1-1h-1v-6q0-5 2-6z" fill="#201e1d" stroke="#201e1d"/>
  <path d="m640 904h4v2l24 2q23 2 50 2h28l-11 1q-11 1-83 4l-73 3-5 1h-39q-35 1-44 1h-19q-11 0-26-1l-16-1v-1h1v-1h1v-1l102-5q102-6 106-6z" fill="#b1afb0" stroke="#b1afb0"/>
  <path d="m750 170h9v1q1 0 1 1 0 2-12 2h-12v-2l2-1q2-1 12-1z" fill="#9e9e9e" stroke="#9e9e9e"/>
  <path d="m830 242v-10h1v20h3q2 0 3-1h1v1q0 1-1 1-1 1-1 2-1 2-5 2h-5v-1q0-2 1-2t1-1 2-11z" fill="#a48c90" stroke="#a48c90"/>
  <path d="m750 342v1h-1v1h-1l-1 1-1 1h-1v1h-1v1h-2v-4h1v-1h1v-2q0-2 2-4 2-3 3-13t-2-14l-2-4q1 0 0 0v-2q-1 0-1 0-1 0-1-1h-1q0-1 0-1 0-1-3-3-3-3-6-3l-3-1v-1h-2q-1 0-1-1t-1-1q0-1 0-2t9 0q9 2 9 3t4 5q4 3 7 6 3 4 3 16 0 11-4 16t-4 6z" fill="#e0d6d6" stroke="#e0d6d6"/>
  <path d="m466 84h4t2 1-2 1l-5 2h-28q-11 0-67 0l-56-1v-1h24l-5-1-5-1h-3l57-2q58 0 68 0 11 2 16 2z" fill="#d4a2a8" stroke="#d4a2a8"/>
  <path d="m549 810l4-4-2 3q-3 3-3 3v1l-2 2q-2 2-2 3v1h-1v1h-2q-1 0 1-2l1-2v-1q1 0 1-1t5-4z" fill="#b29398" stroke="#b29398"/>
  <path d="m562 432t-44 2l-45 2t-1-1l-2-1v-4l27-1q27-1 46 1t19 2z" fill="#705f61" stroke="#705f61"/>
  <path d="m468 318h2l2 12q2 13 2 20t0 10v3h-1v1h2v1q-1 1-1 2v1l1 2 1 2v1h-1v1h-1v-2h-3l-1-1-2-1h-1v-1h-1v-11q0-5 0-15t-1-11q-1-2-1-2l-1-1v-1q1-1 2-6 2-5 3-4z" fill="#a69a9a" stroke="#a69a9a"/>
  <path d="m462 330l1-1 1 1t1 2q1 1 1 11t0 15v5q-1-1-4-3-4-2-7-6l-3-5h1q1 0 2 1 1 2 1 2h2q1 0 2-10 2-11 2-12z" fill="#959292" stroke="#959292"/>
  <path d="m686 480h3l1 3q2 3 2 9v7h-1l-1 1h-1v1h-1v1l-1-4q-1-5-1-8v-2h-5q-1-1-2-2-1 0-1-1t-3-1h-3v-1h-1v-3h7q8 0 8 0z" fill="#d5c4c6" stroke="#d5c4c6"/>
  <path d="m93 229v-1l2 1q3 0 3 3 0 2 1 6v27q-1 0-1 1h-2v1t-1 0q0 1-1-2l-1-2v-15l-1-16v-3h1z" fill="#ebeaea" stroke="#ebeaea"/>
  <path d="m193 1101h3v1h4q4 0 4 1v1h2q1 0 2 1h1q0 1-2 1t-29 2l-27 1h-5q-6-1-18-1h-11l-1-1v-1h-1l1-1 2-1h14l29-1q29-1 32-2z" fill="#6c5d5b" stroke="#6c5d5b"/>
  <path d="m101 230h5v3h1v33h-7v-30q0-6 1-6z" fill="#121112" stroke="#121112"/>
  <path d="m183 24h11v1h-2q-1 1-7 2l-6 1v1h-3q-3 1-22 1l-20 2h-31l-1-1-1-1h1v-1h2l1-1 35-2q36-2 43-2z" fill="#655456" stroke="#655456"/>
  <path d="m615 724h10t1 1q2 0 2 1t-14 2h-13v1h-12q-12 1-29 1h-20v-1h-1v-1l10-1q11-1 11-1 2 0 12 0 10-1 22-1 11-1 21-1z" fill="#bdbcbc" stroke="#bdbcbc"/>
  <path d="m305 346l-1-13 2 8q1 8 2 8t2 3q0 2 1 4l1 1v1h2v2h3l-1 1q0 1 0 1h-1l-1 1-2 1h-2v-1h-1q-1 0-2-3-1-2-2-14z" fill="#cbc2c3" stroke="#cbc2c3"/>
  <path d="m727 391h13q3 1 2 1-2 0 13 2 15 0 28 1l13 1h-8q-8 0-24 1-15 1-98 2l-83 2h-23q-23 1-57 2l-34 1h-3q-3 0-22 1l-20 1h-4t-30-2q-31-2-40-3-10-1-10-2t-6-1h-7v-1h1v-1l24-1q25-1 36-2h11q1-1 17-1h22q1 0 18 0h16v-1q0-1 1-1l3 1q4 1 22 1t20-1h30q29 1 46 0l18-1h58q48 0 57 1z" fill="#b4afb0" stroke="#b4afb0"/>
  <path d="m245 489h3v2h1l1-1h3q-1 1-1 8v10l1 3q1 3 3 5 2 1 2 2v1h-2q-3-1-5-1h-2l-1-1q-1-1-3-2-3-2-3-11l-1-9v-1q1-1 1-2l1-1h1q0-1 0-1 1 0 1-1z" fill="#7a5f65" stroke="#7a5f65"/>
  <path d="m352 927h7l25 1q24 2 26 2h1t-54 3l-54 3q-1-1-6-2h-5l-2-1h-1v-1h3l2-1 1-1h1l25-2q25 0 31-1z" fill="#575354" stroke="#575354"/>
  <path d="m521 416h21q22 0 51 0h29l6 1 7 1h1l2 1 3 1h-16l3 1 3 1h1l19 1q19 1 19 1h1t-32 2l-32 2h-1v1h1v1h17q18 0 18 1h-21q-21 1-39 1h-20t-19-2-46-1l-27 1h-14q-15 0-40 1l-25 1h-5q-5 0-18-2h-14v-1h-1v-1h-3 1v-1h-1v-1h3l-1-1-1-1h1l56-2q56-2 74-4 19 0 24 0 6 0 10-1l5-1z" fill="#73575c" stroke="#73575c"/>
  <path d="m786 897h24t1 1l1 2-2 4q0 3-1 3v1h-2q-1 0-31 1l-30 1h-28q-27 0-50-2l-24-2v-2l30-1q29-1 32-2h3l35-2q35-1 42-2z" fill="#cbcaca" stroke="#cbcaca"/>
  <path d="m690 1075v1h18q19 2 22 2h2l-1 1h-1v2h-1l-1 1h-3v1h-9q-9 1-23 1-14 2-49 2l-35 1q0-1-5-1h-6v-1h-1v-1h-3l-2-1h-3v-1h9l4-1 4-1h7v-1l17-1q18 0 39-2 21-1 21-1z" fill="#8d8380" stroke="#8d8380"/>
  <path d="m95 399h3q0 1 0 1h1v3l1 3v6h-2q-2 0-3-1h-1v-1t-1 0v-1l-1-1v-1q0-1 0-3v-4q0-1 3-1z" fill="#dbd9d9" stroke="#dbd9d9"/>
  <path d="m610 588h25l-1 1-2 1h-16q-15 0-26 1-10 1-82 3l-73 2h-18v-1h1v-1l48-2q48-2 48-4-1-1 0-1 2 0 2 1-1 2 34 1 36-1 60-1z" fill="#909090" stroke="#909090"/>
  <path d="m789 848h4l1 1 1 1h2l1 1 1 1h2v1h-1v1h2v1h1v1h6t-1 1l-2 1h-10t-22 1l-22 1-2 1h-13q-10 1-34 2l-24 1-5-1-4-1h-22q-22 0-38-1l-16-1h-1l4-1 4-1h11q10-2 17-2h7l-4-1-3-1h4v-1l53-2q52-3 76-3 23 0 27 0z" fill="#c8bfc1" stroke="#c8bfc1"/>
  <path d="m212 170l2-1q2 0 3 2 1 3 2 3t1-1q1-1 2-2 1 0 2 3 1 2 2 4 0 2 8 3t12 1q5 1 6-1 0-1 1-2h1v4q0 4-1 5-1 0-1 1t0 1l-1 2v8l-1 5v3h-2l-1-1-1-1h-5q-1 0-1-1v-1q0-1 0-4v-4h-4q-3 0-4 1l-1 2h-1l-1 1h-8v-1h-1v-1h-1v-1h-1v-1l-1-1v-1h1q1 0 2-2 0-2 2-2 1 0 1-1h1v-1h-2q-1 0-2-1-1 0-1-3-1-2-2-3-2-1-2-4t-2-3-2-1v-2q1-1 1-1z" fill="#121212" stroke="#121212"/>
  <path d="m204 151l-1-5 1 3q1 3 10 3t10-2q1 0 2-1v2h1v1h1v1h-1v1h-1v1l1 1v1l10 1q10 2 33 4 24 2 28 2h10l-2 1-2 1h-5l-3 1q-3 1-10 1l-8 2h-2q-1 0-6 2-4 2-5 3-1 2-3 2-2-1-5 1l-3 1h-1q-1 1-1 2-1 2-6 1-4 0-12-1t-8-3q-1-2-2-4-1-3-2-3-1 1-2 2 0 1-1 1t-2-3q-1-2-3-2l-2 1t-1 1v1h-1v-1q0-1-2-1h-2q-1 0-1 1h-1q0 1-4 1h-9l-1-1h-1v-1h1v-2h-1l1-1h1v-1l1-1v-1l6-1q6-1 7-2l1-1h-1t-1-2q0-2 0-7z" fill="#1e1d1c" stroke="#1e1d1c"/>
  <path d="m446 136h9l41 4q40 2 46 3h6l1 1q1 0 3 1l1 1h1v1h1v1h-5q-4 0-8 1t-25 2-22-1-2-1-12 2l-12 1h-1v-1 5l-2 1-1 1h-1q-1 0-2-2-2-2-7-2h-5v-1h1v-1h1q1 0 1-1h1l2-1h-1v-1h-1v-1h-1q-1 0-5-2l-5-1v-1l-1-1 1-3q1-2 2-3t1-1z" fill="#2a2726" stroke="#2a2726"/>
  <path d="m452 151h1q0 1-1 1h-1v1h-1v1h5q5 0 7 2 1 2 2 2h11v1h-1v1h1l-3 1-2 1h-2q-2 0-6 1l-3 1h-3t0-1-14 1l-14 2q-1 0-1 1h-1q0-1-2-1-3 0-10 0-6-2-6-5l-1-3v-1h-1v1l-1-1v-1h-4l3-1 2-1h2q2 0 12 0t20-2q10 0 12-1z" fill="#222121" stroke="#222121"/>
  <path d="m302 488h4l6-1q5 0 5 1 1 2 1 2t0 1h1q0 1-1 1-2 2-2 3 1 1-18 0l-18-1v-2h1l6-2q6-2 9-2h6z" fill="#f1e9e9" stroke="#f1e9e9"/>
  <path d="m392 189h2v1q0 2 0 2v8l1-3v-3h3v13q2 9 1 12t-3 3q-1 0 0 1l2 1h-4v-1q0-1-2-1-3 0-6 0l-2 1v-3q0-4-1-6l-1-1h2v-11q0-12-1-12v-1h4q4-1 5 0z" fill="#151514" stroke="#151514"/>
  <path d="m349 497h24q0 1-30 1l-30 1h-36v-1q-1 0 2-1 2-1 1-2-2 0-2-1l1-1q1 0 1 1l18 1q19 1 18 0 0-1 2-3 1 0 1-1v-1q-1 0-1 0l1-1q1-1 2 3t3 4q1 0 25 1z" fill="#8d7277" stroke="#8d7277"/>
  <path d="m325 25h81q82 1 102 1h21v-1h11l-1 1q-1 0 38 2t39 3h-17q-17 0-17 1-1 2-14 3l-13 1v1h-13q-13-1-36-1t-55 0q-31 0-33 1t-7 3l-6 2h-4l-1 1-1 1h1l4 1 3 1 7 1q6 1 10 1 3 0 3 1l-1 1q-2 0 3 2 5 0 3 1-3 1 5 2 7 2 8 3 0 2 11 5t20 5q8 0 6 1-1 1 8 1 9 2 14 2h4l-2 1-2 1h7l-2 1-2 1h1-9v1h-1q-2-1-10-2t-8-2-19-3-32-2-25-4q-11-4-25-6t-15-4q0-1-5-3l-5-3h-2v-1l-1-1-1-2v-2h3l1-1 2-1h8q8 0 10 0h2l4-1 3-1h-1l-14-1-14-1h1l2-1 2-1h8l1-1 1-1h-5q-6 0-20 0h-16l2-1 2-1q1 0 4-1l3-1h-34l1-1 1-1h9q9 0 9-1z" fill="#ebc2c4" stroke="#ebc2c4"/>
  <path d="m423 817v1q1 0 1 1v1h1l5-1q6-1 6 0t-4 1h-5v1q-1 0-3 2-2 3-6 3l-3 1v-3l-1-2-1 1h-1v-2h1l1-1h4q1 0 2 0t2-2q0-1 1-1z" fill="#b09499" stroke="#b09499"/>
  <path d="m436 347l1-4 4 8q3 8 5 10t3 3h-1q-1 0-4-3l-3-2q-1 0-1-1t-2-2q-2-2-2-3v-1t0-5z" fill="#9f7d84" stroke="#9f7d84"/>
  <path d="m722 298h8q7 0 9 2t3 2 0 1h1q0 1 1 1 0 0 0 1h1v1l2 4q3 4 3 12 0 9-1 9t-1 2-2 4-2 4v2h-1v1h-1v4h1q-1 1-1 1v1h-2l-1 1h-3l-1-1h-1l-2-1-2-1-1-1q0-1-1-1t-2-2v-14q0-14-1-17t-2-8l-2-5v-2q1 0 1 0z" fill="#f2f1f1" stroke="#f2f1f1"/>
  <path d="m212 309v-1l8 1q7 1 11 3 5 3 7 8 4 5 4 12v8h-1v1l-3 4q-2 3-6 7t-4 5 0 2v1l-1 1v1h-1v1l-1-1v-1h-1l-1-1h-1v-1l-1-1-1-1v-1q0-2-1-3 0-1-1-1t-2-4l-1-4v-7q-1-7-2-16l-1-9v-1q0-1 0-2z" fill="#f6f5f5" stroke="#f6f5f5"/>
  <path d="m268 936h23t-79 4l-79 4h-18v-1h1l1-1h-1v-2h2v2l24-2q25-2 30-2h4l35-1q35-1 57-1z" fill="#494243" stroke="#494243"/>
  <path d="m406 192v6q0 3 0 4v2h40q40 0 52 0h11l3-1h3v-2h-13v-1h12v-1l1-4v-4h-1l-1-1h-3q-4 0-4-1h12q0 1 0 1l1 11q1 11 2 11h1v-1h1v8q0 1-2 1h-43q-41 0-58 1l-16 1h-1v1h1v1h-6l-2-1q-1-1 0-1 2 0 3-3t-1-12v-13h-3v8h-2v-1l1-1v-8t0-2v-1h1l1-1 3-1q3-1 4-2 1 0 1 1t-2 2q-2 0 1 1t3 3z" fill="#222" stroke="#222"/>
  <path d="m617 483v1l1 2 6 1h7v1h3q4 0 4 1h-8q-2 1-18 1l-17 1v-1h-2l5-1 4-1h6q7-1 8-3 0-2 1-2z" fill="#bf9ca0" stroke="#bf9ca0"/>
  <path d="m133 109q4-1 3 0 0 1-4 1-3 1-3 0t4-1z" fill="#e1bfc3" stroke="#e1bfc3"/>
  <path d="m613 316l1-1v1h2v1h1v8q1 8 1 9t1 1 1 1v1h-2q-1 0-1 2 1 2 0 1h-1t-1-3q-1-2-2-11-1-8 0-10z" fill="#8e8c8d" stroke="#8e8c8d"/>
  <path d="m438 1076h2v1h-1v1l9 2q9 2 10 2h1v-1h1v3h3l-1 1q-1 1-4 1h-2v2h-6q-6 0-35 3l-29 3h-8q-7 0-37 2l-30 1v-1q1-1-1-2t-6-2q-4-2-9-3l-5-1h2l-2-1h-2v-2h3l3-1 72-4q71-4 72-4z" fill="#5e514e" stroke="#5e514e"/>
  <path d="m65 68h1v8h2v-1q1-1 1-1h3v16q0 14 0 16 0 3-1 4l-1 2v1l-1 1-2 2q-1 3-2 8v4h-1v-1l-1 1h-1v-6q0-7-2-18l-1-11v-5q1-5 1-7t-1-3-1-2v-2q1 0 1-1h1q0-1 0-1h1l1-1q0-1 1-1h1v-1h1v-1z" fill="#bc9499" stroke="#bc9499"/>
  <path d="m426 918h4l16 1q15 1 26 1h10l-2 1-2 1h19v1h-1v1h-5q-5 0-6 1h-19q-17-1-42-1l-25-1h-4l-4-1h4v-1h-1v-1h14q13-2 18-2z" fill="#8c8b8b" stroke="#8c8b8b"/>
  <path d="m656 302v1h-2q0-1 0-1h-1q-1 0-1-1 0 0-6-1l-6-2-2 1q-2 1-3 1h-2q-1 0-5 3-5 3-7 5l-1 3h-1v1h-1v3l-1 1v1h-1v-1h-2v-3l1-1 1-2v-2h1t2-5q1-4 4-7 3-2 1-2l-1-1 7-2q6-2 6 0 1 3 8 5 8 3 10 4t2 2z" fill="#969393" stroke="#969393"/>
  <path d="m266 489h8l2 1q2 2-8 4-10 1-11 2t-1 2v1l-1 3v4q-1 0-1 1v1h-2v-10q0-7 1-8h2q2 0 11-1z" fill="#342d2e" stroke="#342d2e"/>
  <path d="m663 480v-1l3 2q4 1 4 2h2v1h3q3 0 3 1t1 1q1 1 2 2h-2v1l1 1v1h-1q0 1-1 1v-1q0-1-1-1t-1-2q-1-1-20 0l-18 1q0-1-4-1h-3v-1h1l1-1h1v-2h-1l-1-1h-2v-2h16l16-1h1z" fill="#8c7a7e" stroke="#8c7a7e"/>
  <path d="m634 302h1t1 1l2 9q2 9 2 20v10l-1 2-1 1v2q0 2-1 2 0-1-3 0l-2 1v-2q0-1-2-2-3 0-6-4l-3-3 3 1q2 1 2-2t1-6v-3q1-1 2-11l2-11q1 0 1-1v-2q0-1 1-1 1-1 1-1z" fill="#ada4a3" stroke="#ada4a3"/>
  <path d="m382 189h1v1q1 0 1 12v11h-2t-1-2l-1-2v-8q0-8-1-9v-1l1-1t2-1z" fill="#5e5e5e" stroke="#5e5e5e"/>
  <path d="m647 30v-2l1 2q0 1 10 5t14 9q6 5 8 10 2 4 4 14 2 11 3 43 0 31 4 32l4 1h-11q-11 0-12-5v-5q0-2 0-8 0-5-2-13 0-8-2-11-2-2-3-3-2-1-1-1l-1-1-1-1-1-1v-1l2 1q1 1 2 1v1h1v-3l-1-2-1-1v-1q0-1-1-2t-1-15q-2-14-4-16-2-3-3-6t-11-5q-11-2-47-6l-36-2-3-1h-3v-1l13-1q13-1 14-3 0-1 17-1h47q1 0 1-1z" fill="#ecc8c7" stroke="#ecc8c7"/>
  <path d="m718 350v-2l2 1q1 1 2 0t2 0h2v3q1 2 2 2 2 1 1 2-1 0-1 0h-8v-1h-1v-1h1l-1-1h-1v-3z" fill="#a89193" stroke="#a89193"/>
  <path d="m331 226h25v1h-1v1h32v1h1v1h-8l5 2q5 1 6 6 1 4 1 8 1 4 2 4 2 2 4 2h2l-3 1-3 1h1q1 0-1 1l-1 1h2l2 1 2 1h-3q-4 0-8 1-3 1-42 3l-39 4h12l-1 1h-5l-3 1h-16q-15 0-88 3l-72 3h-12q-4 0-8 3l-4 3-1 1-1 1v-2q0-3 0-6 0-2-2-2-2-1-2-2t-1-1l-1-1h-1v-1h-1v-1h7v-35h1q1-1 26-1h24l2-1h1l46-1q46 0 49-1h26q24-1 49-1z" fill="#949091" stroke="#949091"/>
  <path d="m511 222l2-1h91l28 1h-16q-15 0-31 1h-23q-8 1-30 1-23 0-21-2z" fill="#dadada" stroke="#dadada"/>
  <path d="m382 819l2-1h1q1 0 1 1v1q-1 0 0 1 0 1 0 1l4 1q4 0 4 1 0 2 1 2h1q1 0 2 1v1h-3l-3 1h-7q-4 1-9 1-6 0-6-1v-3h1v-1h1v-1h2v-1h1v-1h1q1 0 2-1l1-1h1q1 0 1-1h1z" fill="#d0c2c5" stroke="#d0c2c5"/>
  <path d="m710 1006l2-2 6 2q5 1 6 3 1 1 2 2 1 0 2 3 0 2 0 20t0 27v9h-2t-2-4q-2-3-7-4l-4-2 1-1 1-1h-1t-2-18q-2-17-3-24l-2-6v-1q1 0 1-1t2-2z" fill="#815c65" stroke="#815c65"/>
  <path d="m103 618v-22l3 122q2 123 3 140 0 16-1 16 0 1 0 4v6h-6v-1h-1v-1h-1v-2l-1-4q0-3 1-3 2 0 0-101l-1-102h1v-7l1 1 1 1v-13q0-13 1-34z" fill="#bb9c9f" stroke="#bb9c9f"/>
  <path d="m137 320l2-1 2 1q3 0 3 4 1 4 2 4 2 1 2 4v3t-1 0q0 1-2 1h-2t-1-1q-2 0-2-1t-1 0q-1 2-5 1-3-1-4-2v-3h1v-1h1v-1l1-3q1-3 1-4t3-1z" fill="#645d5e" stroke="#645d5e"/>
  <path d="m796 858t1 1-3 1h-3v1h-1v1q-2 1-1 4 1 4 2 4 1 1 1 2t4 2q4 2 6 2h3t1 1h2q1 1 1 1h-3q-2 0-1 5t0 5-1 1-1 4v3h7v1h-17v-1h2v-1h-1v-1h-1q-1 0-1-1t-4-6l-4-5v-1q0-1-2-6t-4-5q-3 0-2-1 2-1-4-1l-5-1v-1q0-1-7-2h-7l-3-1-4-1h1v-1h3l2-1 22-1q22-1 22-1z" fill="#94747c" stroke="#94747c"/>
  <path d="m483 164v-1h1v1l18 2q18 3 18 4t4 1q3 1 2 1-2 0 8 1 9 1 10 4t5 2 7-1q4 0 5 1t2 1h1l4 1 4 1h-4v1h-1v-1h-1v1h-1v1h5v-1h3q3-1 11 1t8 3v3h-1l-1 1-1 1h3v4h-2v-1h-1q0-1-12 1l-12 2h-5v1h-1v1h6v1h-4q-4 1-8 0-5 0-6 0h-2v-6l-1-6v-2h-2l-1 1h-1l-2 1-2 1h-2q-1 0-2 0 0 0-1 2t-3 1q-3-1-4-2l-1-2h-1q0-1 0-1-1 0-2 0l-2 1h-17q-5-1-26-3l-21-2-1 2-1 1h-2v-4l1-1v-2h1l13-3q13-3 13-5 1-2 2-2h1l1 1h2l2-1h-4v-6h1zm106 24t0-1q1 0 1 1 0 0-1 0z" fill="#272727" stroke="#272727"/>
  <path d="m101 884h7v1q1 1 1 1h1v2h2v2l3 1q2 1 67-2t65-3l17-1q17-1 28-1h11l1 1h1v2h6v1q0 1 9 1l8 1h5v1h1v1h2v1h-2l-1 1h-5q-5 0-56 4t-105 5-59 3l-6 1v1h-2v3h-1v-1l-1-1v-6h1v-1h1q1 0 2-2 0-1 2-2 2 0 2-2t-2-2q-2-1-2-2 1 0 0-2 0-2-1-4t0-2z" fill="#8c676f" stroke="#8c676f"/>
  <path d="m659 176v4h3l2 2q2 2 3 2v1h-1v1t-1 1v1t1 1v6l-1 3v3h-1q-1-1-2-1h-9q-8 0-25 1h-16v-2h1l1-1h-7l-1-1q-2-1-8-1h-7 1v-4h-2q-1 0 0-4 0-3-7-4-7-2-10-1h-3v1h-5v-1h1v-1h1v1h1v-1h4l-4-1-4-1 23-3q23-3 23-4 0 0 1 0v1h2v-1l-1-1t0-3q0-2-1-3h-1l2-1q1-1 3-2 3-1 2-3-1-1 7 1 8 3 12 3 5 0 10 0t6 0q2 0 2 1t-2 1q-1 0 0 2 0 3 2 3 1 0 2 3 0 4 2 3 0-1 1-1zm-67 11q1 0 1 1t-1 1-1-1 1-1zm28 2v1h12q11 0 14 1 4 1 5 1h1v6h-4q-4 0-16-2-13-1-13-2t-1-1q-1 1-6 1h-6v-4l7-1q7-1 7 0z" fill="#232322" stroke="#232322"/>
  <path d="m427 821h9l-2 3q-1 2 0 3 1 0 1 1v1h-2l-4 3q-3 3-4 3v1h-1l-4 1h-8l-5-1h1l6-1 6-1h1v-1h1v-1l1-1v-1h-34v-1h3l3-1h3l6-1q5-1 6-1 1-2 1-2h1t0-1q1-1 1-1h1q1 0 1 2v3l3-1q4 0 6-3 2-2 3-2z" fill="#dbdada" stroke="#dbdada"/>
  <path d="m148 335v2q-1 2-2 2l-1 1h-1q-1 0-1 1v1q-1 0-1-2 0-1-1-1-1-1 1-2l1-1h2q2 0 2-1 1 0 1 0z" fill="#9d8588" stroke="#9d8588"/>
  <path d="m75 1e3l1-4 6 22q6 22 7 24l1 1v3l1 2 1 1v9h-2q-1-1-2 2 0 2-1 4l-1 2v1l-1 1-1 1v1l-1 2v2h-1v-7l-1-3q-1-2-3-14-4-12-6-24l-2-11v-1t1-4l1-5 1-1q1-1 2-4z" fill="#998d8b" stroke="#998d8b"/>
  <path d="m178 335l1-4 1 6q0 6 3 11 3 4 4 5t2 2v1h-1q-1 0-4-2-2-2-4-1-1 0-1-2-1-2-2-5l-2-2v-2l-1-1v-1h2v-1t2-4z" fill="#a67f88" stroke="#a67f88"/>
  <path d="m828 210l5 2q5 2 5 4 2 2 1 18-1 17-1 17v-15q0-16 0-18 0-1-4 0l-3 1v-1q-1 0-3-1l-2-1v-2q0-3 1-3 1-1 1-1z" fill="#353535" stroke="#353535"/>
  <path d="m633 300h2q1 1 1 2v1h-2q-2 0-2 1v2q-1 0-1 1l-2 3q-1 3-2 12-1 8 0 8l-1 6q0 5-2 5h-1v-1q-1 0-1 0 0-1-1-1v-1q-1 0-1 0v-2t-1 0q-1-1-1-2t-1-9v-9l1-1v-3h1v-1h1l1-3q2-2 7-5 4-3 5-3z" fill="#eae9ea" stroke="#eae9ea"/>
  <path d="m344 174h4t0 1h8q6 1 6 1h-3q-3 0-9 1l-6 1h-2l8 1q7 1 7 1h-17q-1 0-2-2 0-2-1-2h-1l2-1q2-1 6-1z" fill="#363636" stroke="#363636"/>
  <path d="m396 258h3l39 1q38 1 66 0t30-1h2t0 1h1q0 1 1 1h1l2 1 2 1h-4l2 1q1 1 1 1l29 1 29 1h-2l-15 1q-15 1-62 2l-47 2h-8q-8 1-17 1h-21q-12 0-65-2l-53-2h6v-1h2l1-1h-12l39-4q39-2 42-3 4-1 8-1z" fill="#b7969d" stroke="#b7969d"/>
  <path d="m621 390h-9l-18 1q-17 1-46 0h-29v-1h1l22-2q23-2 50-1 26 1 27 1 1 1 2 2z" fill="#e9d0d2" stroke="#e9d0d2"/>
  <path d="m480 811h3q0 1-5 3l-6 2v1h-1v1h-1v1h-1v1h-1v1h-1v1h-1v2h1l5 1h5v1q1 0-11 1l-12 1v-1h-1q0-1 2-3l2-2h1t0-1l8-4q9-5 9-5h1q2 0 4-1z" fill="#e3e0e0" stroke="#e3e0e0"/>
  <path d="m88 156l1-1h1v3h12q13-1 12 1-2 3 0 3h3l-1 1q-2 0-2 1t16 2q15 0 18 2 4 2 22 1 18 0 18 1t1 1q0 1 1 1h9q5 0 5-1t1-1h1l-1 2q-1 2 2 3t3-1v-2h1v1q0 1 2 1t2 3 2 4q1 1 2 3 0 3 1 3 1 1 2 1h2v1h-1q0 1-1 1-2 0-2 2-1 2-2 2h-1v1l1 1v1h1v1h1v1h1v1h8l1-1h1v1q-1 0-3 1l-2 1 4 2q3 0 6 1h4q0 1 1 1h5l1 1 1 1h2v-3l1-5v-6h1v14l1 1v1h35q34 0 57-1h24l1 1h2l1 1 1 1h-10q-11 0-11 1t-97 3q-98 2-97 2t-19 1-20 3v3h-3v-3l-1-2q0-1-1-2 0-1-1-1t-1 1v1h-1v1h-1v-1h-1v-1q0-1-2-3-1-2-2-2-1-1-2-3 0-3-2-5-2-1-3-3-1-1-2-2-2-2-3-5v-4h-1q-1 0-1 1 0 2-2 2h-3v-4q0-5-1-5h-2v-1l-1-2-1-2v-2q0-3-2-4v-2h-1l-1-1-1-1h-1v-5h1v1h1v1h1v1h3q2 2 2 2h3v-1h1v-1h1l-1-1h-1v-1q1 0 0-5v-5h1zm23 8h1-1zm-15 17l-1 1h-1v1h-1v1h-1v-12q0-5 21-2 21 2 29 4 8 1 8 2t-23 2q-23 0-27 2-3 0-4 1zm-14-11t1 0-1 0zm42 30l1 6h2q2 0 1 2 0 2-2 2t-2-1v-7q0-8 0-2z" fill="#222121" stroke="#222121"/>
  <path d="m519 345l-1 1t-4 0q-4-1-4-2t4 0q5 0 5 1z" fill="#d8acb0" stroke="#d8acb0"/>
  <path d="m560 401h23v1h13l-4 1-5 1h-2q-2 0-49 1l-46 1h-19l-1-1-1-1 34-1q34-1 57-2z" fill="#7c7173" stroke="#7c7173"/>
  <path d="m712 1060h1l4 2q5 1 7 4 2 4 2 4h1v1q0 1-3 0l-4-1h-2t-4-2-4-3q-1-1-6-1h-4l-3-1-3-1h1l8-1q8-1 9-1z" fill="#473b39" stroke="#473b39"/>
  <path d="m78 141l22 1q22 2 32 2h9t1 1l19 2q19 1 19 2h1q0 1 1 1 2 0 2 1t-7 2-7 2-27 4l-26 3h-3q-2 0 0-3 1-2-12-1h-12v-3h-1l-1 1h-1v-2q0-1 2-1l2-1h-3q-3 0-6 1h-4l-1-1h-1v-1h1v-1h-1l-1-1h-1v-1q0-1 1-2v-2h1t0-1q1-1 1-1h1t0-1z" fill="#343131" stroke="#343131"/>
  <path d="m372 824t-1 0v2h-1v3q0 1 6 1 5 0 9-1h4v1h34v1l-1 1v1h-1v1h-1l-6 1-6 1h-1l5 1h5v1h6v1q-1 0-2 2-2 1-11 2-9 0-9-2-1-2-15-3l-15-2h-3l-1-1-1-1v-8h1l1-1q1 0 1-1t3-2q2-1 2 0t-1 1q-1 1-1 1z" fill="#af8e95" stroke="#af8e95"/>
  <path d="m605 24l20 1q21 1 21 1 0 1 1 2v2q0 1-1 1h-2v-1h-4l-8-1q-8-1-17-1l-9-2h-9l4-1q4-1 4-1z" fill="#d9c2c3" stroke="#d9c2c3"/>
  <path d="m694 496l-1 4q-1 3-5 8-4 6-17 18-12 12-13 12t-1 4v5h1l1 1h1v1l1 1v1h-1l-1-1h-1v-1h-1v-1h-1v-1h-1v-1q-1 0-1 0t-8-4-36-4h-27v-1h1v-1h2v-1h1v-1l7-2q8-3 10-5 2-1 1-2t1-4q1-3 2-3h1v-2h2v-1h-1v-1h1v-1h1v-1h-1l-15-1h-14l-1-1h-6v-1h8v1l43-2q43 0 52-2 8 0 11-3 3-2 4-5 1-2 1-2z" fill="#c098a2" stroke="#c098a2"/>
  <path d="m268 580l2-3v2l-1 4q-1 4-2 9v6h-1v1q0 1 1 1v2q-1 0-1 1v1h1v66q1 67 1 68v1q0 1 0 1h1v2l1 3v2q-1-1-2-1l-1-1q-1 0-2-4-2-5-4-9-2-6-4-18t-2-45q-1-33 1-47 1-13 2-13t2-5q0-5 1-4 1 0 3-8l2-7v-1q0-2 2-4z" fill="#dbaeb4" stroke="#dbaeb4"/>
  <path d="m546 493h17q0 1-35 2l-35 2h-3q-4 1-6 0-2 0-1-1t0-2h-1l4-1q5-1 24-1t36 1z" fill="#dbc8ca" stroke="#dbc8ca"/>
  <path d="m314 868h14l3 1 3 1h-1l-3 1q-2 1-5 1h-3v1h-1v1h6l2 1q2 0 2 1-1 1-1 2h-27q-27 0-57-2l-29-2v-1h-1v-1l44-2q43-2 54-2z" fill="#938b8d" stroke="#938b8d"/>
  <path d="m312 267h4v1h-2q-3 0 50 2 52 2 64 2h12l-14 1q-13 1-94 4-80 3-95 4l-15 1q0-1-1 0h-1q-2 0-2-1 0 0 1-1 2 0-45-3l-48-3h8l88-4q87-2 90-3z" fill="#cfa0a8" stroke="#cfa0a8"/>
  <path d="m568 1083h24l2 1h3v1h1v1h6q5 0 5 1t-17 3l-18 2v1h-17q-16 1-37 1h-22l-4-1-3-1h-3v-1h-1v-1h-3l-1-1h-1v-1l32-2q33-2 54-3z" fill="#8e8481" stroke="#8e8481"/>
  <path d="m411 134h20l1 2q0 1 1 2h-1q-1 0-25 1l-24 2h-5q-5-1-12-1h-7v-1l17-1q16-1 17-2 0 0-1-1t19-1z" fill="#e1c0c0" stroke="#e1c0c0"/>
  <path d="m522 189h1v22h-1v1h-1q-1 0-2-11l-1-11t0-1l2-1q1 0 2 0 0 0 0 1z" fill="#606060" stroke="#606060"/>
  <path d="m75 183l1 1t0 1h4l2 1h1v1l1 4q0 4 1 5 0 0 1 1l2 1q2 2 2 6v6h-3l-1-1-1-1q-1 0-1-2l-2-1v-1h-1t-1-1v-1t-1 0q-1-1-3-6l-4-5v-1h1v-1h-1v-2q0-1 1-3t2-1z" fill="#b28690" stroke="#b28690"/>
  <path d="m666 186v-1h2q2 0 2 7v7h37q37 1 57 0h21v2h-21q-22 1-59 1t-38-6l-1-7v-1t-1 0v-1q1-1 1-1z" fill="#919191" stroke="#919191"/>
  <path d="m797 911h9q1 0 0 61-2 61-2 70v17q-1 7-5 7t-4 1h-11l-10 1h-10q-10 0-18 1l-8 1h-10v-9q0-9 0-27t0-20q-1-3-2-3-1-1-2-2-1-2-6-3l-6-2h-5q-5 0-59 3l-55 2h-7q-7-1-44-3l-38-2h5l7-1h6v-2h-8q-7-1-26-3t-24-4-8-6q-2-4-11-10-8-6-15-10-6-4-10-8l-4-4-1-1-1-1v-5l1-1v-1l2-1q2 0 4-1l2-1h4v-2h-11l2-1 1-1h4l25-4q25-4 24-4t2-2q2-2 2-3h14l3-1 41-2q42-2 45-2h3l104-5q104-5 111-6z" fill="#daacb4" stroke="#daacb4"/>
  <path d="m456 164v1h-1v1h-2l3 1 4 1h4q4 0 4-1t2-1q3 0 2 1 0 1 3 1 3 1 4 0 1-2 2 0 1 1 1 2v1h-1q-1-1-2 1t-14 5l-13 3h-8q-7 0-10 0-2 0-3 0l-1 1v-1q0-2 0-6v-3h-1v-1h-2v1l-1 1v-4h1v-1h1v-1l14-2q14-1 14-1 0 1 0 1z" fill="#202020" stroke="#202020"/>
  <path d="m546 218h1v1q0 1 15 1h15v1h-38v-1h4l1-1q0-1 2-1z" fill="#858585" stroke="#858585"/>
  <path d="m72 72h2v1l2 4q2 4 2 11t1 8v2h7q7 0 18-2 12-2 49-4t50-1h13v1h-4l10 1q10 1 10 3 0 1 22 1h21q0 1-55 2l-55 2h-1v1l-1 2v1h4l4 1h18l2 1h2v1h-23q-23 0-26-1-4-1-18 0-13 1-13 3t-13 3l-13 1h-1t-4-2q-3 0-6 0l-3 2v-1h-1v1h-3l1-1v-1l1-2q1-1 1-4 0-2 0-16v-16h-1q-1 0-2 1h-1v-1q0-1 2-2 1 0 2 0z" fill="#ad7c85" stroke="#ad7c85"/>
  <path d="m716 1070h4l4 1q3 1 3 0v-1h2l5 1 4 1h5q5 0 11 1h5v1h-2l-3 1-3 1h-3q-2 0-9 1l-7 1h-2q-3 0-22-2h-18v-2h8l8-2q7 0 8 0t1-1 1-1z" fill="#7c706c" stroke="#7c706c"/>
  <path d="m342 426h8v1h1v1h-1 3v1h1v1h14q13 2 18 2h5l4 1 4 1h3q4 0 12 1l7 1h1v1h-1v1h-13q-12 0-35 1h-26q-3-1-3-1t-2-1-4-2l-2-1q0-1-1-1v-1q-1 0-1 0v-1q0-1-10-1h-11v-1h-1v-1h9v-1h7q6-1 14-1z" fill="#5a474a" stroke="#5a474a"/>
  <path d="m276 170h6q4 1 3 2-2 0 1 2 2 1 2 2t-2 1q-1 1 5 3t6 1 9 0 12 1q2 2 12 2t20 0h10v-2h-4q-4 0-8-1l-3-1h19v-2 4q0 5 2 6 2 0 0 1l-1 1h7q6 0 6 1h1v1q1 1 1 9v8l-1 1h-2v1h-1v-1q0-1-1-2h1v-2h-37q-36 0-53 0h-16v-2h-1l3-2q2 0 4-1l1-1h1v-1h-1v-1h-4q-4 0-9-1t-7-2l-2-2v-1q-1 0-1 0h-1q-1 0-1 1v1h-1v-2l1-2t0-1 1-1q1-1 1-5v-4l3-1q3-2 5-1 2 0 3-2 1-1 5-3 5-2 6-2z" fill="#1b1b1b" stroke="#1b1b1b"/>
  <path d="m682 1062h12l3 1 3 1h4q5 0 6 1 0 1 4 3t4 2h-2q-1 0-1 1t-1 1-8 0l-8 2h-8v1t-21 1q-21 2-39 2l-17 1h-1l-2-1h-5q-5 0-7-1t-2-2-9-3l-10-2h-3v-1h-1v-1l48-2q48-4 61-4z" fill="#5e504d" stroke="#5e504d"/>
  <path d="m759 170v-1l2 2q3 2 3 5t2 3q2 1 2 1h-5l-7 1q-6 0-6-1t-6-2l-6-1v-1q0-1-1-2h11q12 0 12-2 0-1-1-1v-1z" fill="#424242" stroke="#424242"/>
  <path d="m431 915h1v1q0 1-1 1-1 1-1 1h-4q-5 0-18 2h-14v1h1v1h-4l4 1h4v1h-14q-14 0-19 1l-6 1h-1v1h-7q-6 1-31 1l-25 2h-1l-1 1-2 1h-3v1h-33q-32-1-37 0h-5q0-1-4-1-4-1-21-2l-17-1v-1l129-6q129-6 130-7z" fill="#8b8b8b" stroke="#8b8b8b"/>
  <path d="m505 822v1l-1 1q-1 0 1 1h24v1h5l4 1 4 1-1 1v1h-5l-2 1-3 1h-5q-2 0-9 2-7 0-7 1 1 1-14 1-16 2-43 2h-28l-1 1h-1v-1h-6v-1h3l4-1h1v-1q1 0 4-3l4-3h8q6-1 9-1h4l12-1q12-1 11-1v-1l9-1q9 0 9-1t1-1h1l-1 1q0 1 1 1h2l1-2q2-2 4-2 1 0 1 2z" fill="#be98a0" stroke="#be98a0"/>
  <path d="m671 135h1v4q1 5 12 5h11l2 2q1 1 2 4 0 3 13 4 13 2 17 4 3 2 4 6 0 5 13 5h13v1h-9q-10 0-12 1l-2 1v1q0 1 0 1v2q0 1-5 1-5-1-21-1t-15 1q1 0 1 1t-3 1q-3 1-15-1h-13l-3-1h-3v-1q-1 0-1 1-2 1-2-3-1-3-2-3-2 0-2-4-1-3-6-3t-10 0q-4 0-11-2t-7-1-3 2q-2 1-3 2l-2 1h-1q-1 0-3-2t-4-2-2-1-2-1q-2-1-2-6 0-4-1-4l-1 1v-3h1v-1l1 1q2 0 2-1t-1-2v-1l10-2q10-2 15-3l6-1h6l10-2q11-2 18-2 8 0 9 1z" fill="#282626" stroke="#282626"/>
  <path d="m116 220v6l5-1q5-1 6 0h1q0 1 0 1h1t1 1l2 1h29v1h-1l-2 1h-24q-25 0-26 1h-1v2h-1v-3h-5l1-1v-1h2q3 0 2-3l-2-2h1v1h7v-1l1-2v-3q0-1 1-1t1 1q1 1 1 2z" fill="#413f3f" stroke="#413f3f"/>
  <path d="m396 157l3-1h6v1l1 1v-1h1v1l1 3q0 3 6 5 7 0 10 0h4v1q0 1-1 1t-1 2v2l1-1v-1h2v1h1v3q0 4 0 6v1l1-1q1 0 3 0 3 0 10 0h7v2l-1 1v4h2v8h-1q0 1-13 3l-12 2-2 1-1 1h13-14q-13 0-14-3l-2-4v-3q0-2-3-3t-2-1q1-1-1-1-2-1-3 1h-1l-1 1h-3q-1-1-5 0h-5q-2 1-2 1l-1 1h-1q0-1-6-1h-7l1-1q2-1 0-1-2-1-2-6v-5q0-1-1-1h-1t-6-1h-7v-1h-1v-2h1l1-1q1-1 1-2 1-2-1-1h-1v-2l1-2v-2h-1v-1h3l2-1h3q1 0 1 1-1 1 2 2 2 2 4 3 2 0 2-1t7-1 8-1 0-1q-1-1 5-2t6-2 4-1z" fill="#222" stroke="#222"/>
  <path d="m212 435h6v1h2v2q0 1-2 1t-3 1q-1 2-1 2v1h-4q-4 1-40 2l-37 1v-2h-9l-2-1h-2v-2h1v-1h-1l22-2q22-2 22-3t2-1q2 1 22 1 19 1 24 0z" fill="#483b3c" stroke="#483b3c"/>
  <path d="m299 310l2-2 1 7q2 7 2 13v5l1 13q1 12 2 14 1 3 2 3v1h-4q-4 0-5-1l-1-1h-1v-3h-1v-1h1v-2q0-2-3-3t-6-4l-3-4-1-1-1-1v-1l-1-1v-1h2l1 2q2 2 2 1 0 0 1 0v1h1v-2q0-2 1-6 1-5 3-14t5-12z" fill="#9b9595" stroke="#9b9595"/>
  <path d="m276 452h27t-3 2h-4l-1 1-1 1h-15q-15 0-65 2l-51 2h-49v-1h1v-1l67-3q67-3 94-3z" fill="#5d5556" stroke="#5d5556"/>
  <path d="m620 853h13v1h-4l3 1 4 1h-7q-7 0-17 2h-11l-4 1-4 1h1t-21 0h-23q-3 0-3-1t-15-2l-15-1h-1v-1l45-1q45-2 59-1z" fill="#e0c1c6" stroke="#e0c1c6"/>
  <path d="m101 405v-2h1v1h1v-1h1v1q0 1 1 1t3 4q1 3 25 3t41 0 18-1h2v1l79-2q79 0 109-2 30 0 39-1l9-1h-6l20-1q19-1 22-1h3l1 1 1 1h19v1h-1v1h3l1 1 1 1h-4l6 1q6 1 7 2 2 1 6 1h4v2h8l-5 1q-4 1-10 1-5 0-24 0-18 2-74 4l-56 2h-1l1 1 1 1h-11q-8 0-14 1h-14q-6 1-21 1t-15-1-94 1l-93 1v1l-1 2v2h-1v-3l1-3v-1q0-1 0-1 0-1 2-4 0-2 3-3 2-1 2-2 1-1-1-3l-2-2h-1v-1h-1v-3h1v1h1v1h1q1 2 3 2h2v-5l1-2zm2 3l1-1q1 0 1 2l-1 2v-3h-1z" fill="#89676f" stroke="#89676f"/>
  <path d="m413 817v1l-2 2q-2 2-1 3h2v1q0 1-2 2-1 0-6 1l-6 1v-2h2v-5h1v-1h1l1-1 1-1t2-1l1-1h1q2 1 2 0 1 0 2 0t1 1z" fill="#b29a9f" stroke="#b29a9f"/>
  <path d="m238 345l3-4h1l-1 4q-1 4-2 8t-1 5q0 2-1 2t-3 2-6 4-6 3h-2v-1h-6v-1h1v-1h6l3-1q2-1 3-2v-1q1 0 1-1v-2q0-1 0-2t4-5 6-7z" fill="#8f8688" stroke="#8f8688"/>
  <path d="m332 316v-3h4v2h1v1h1l2 6q2 5 1 11t-3 11q-3 4-6 6-2 1-2 0v-2q0-1 1-2l1-2v-1q0-1 1-6v-10q-1-5-1-7v-4z" fill="#e6d7d9" stroke="#e6d7d9"/>
  <path d="m288 395h13q0 1-15 1-14 2-65 2h-51 9l48-1q48-1 61-2z" fill="#786a6c" stroke="#786a6c"/>
  <path d="m838 236v15l-1 1h-6v-34q0-2 3-2 4 1 4 2 0 2 0 18z" fill="#131212" stroke="#131212"/>
  <path d="m496 350l2-5h2l-1 4q-1 4-2 5l-1 2v2l-1 1q-1 1-1 2l-2 3q-1 2 0 2t-1 3q-3 3-2 5 1 3 1 3 0 1 0 1v2h-2q-3 0-3-2-1-1-4-1h-5q-1-1-1-1h1v-2h-1v-1h1v-1l-1-2-1-2v-4h-1v-1h1v-1l1 1v1h2v1h1v1h2l1 1 1 1h3v-4q1-3 5-6 4-4 6-8z" fill="#baa4a7" stroke="#baa4a7"/>
  <path d="m691 339v-4l3 4q2 4 3 5 1 0 2 1 0 1 5 4t6 4l2 1h4l2 1h2v1h8v3l-1 1h-2l-1 1h-1v2h-1q-1 1-6 2-6 2-6 3v1h-1v1h-6v-1h-1v-1q0-2 1-4 1-1 2-1t-1-3q-1-4-2-4t-5-6l-5-5v-1q0-1-1-5z" fill="#c39ca5" stroke="#c39ca5"/>
  <path d="m522 51v-1l30 2q29 0 43 2t20 5q7 3 7 12 2 9 5 12t8 5 6 2h1q0 1 1 2v1h-2q-2-1-3 0h-1v-1h-3q-2 0-22-2l-19-3v-1h2l-3-1-2-1h-2l3-1 3-1h-2l-2-1q-1-1-5-3l-4-2h-1l2-1q3-1 3-1h1v-1h-1v-1h-3l-1-1q-1-1-15-3-15-2-16-4-2-2-12-4l-9-2-3-1-3-1h-2l5-1 6-1h2l1-1 1-1h-6q-5 0-6-1h-2z" fill="#f0d0d4" stroke="#f0d0d4"/>
  <path d="m378 1094h8v1h-1v1h2l18 2q18 2 18 2h-1q-1 0 0 1 0 1-7 2l-7 1-1 1-1 1h-4q-4 0-42 2l-38 2-8-1q-8-1-20-2l-11-1-2-1-2-1h4l1-1 2-1 12-2q13-2 13-3l30-1q30-2 37-2z" fill="#978d8a" stroke="#978d8a"/>
  <path d="m112 878h3v1l1 1v3h1v1h1l53 1q53 1 65 1h11t-65 3-67 2l-3-1v-2h-2v-2h-1t-1-1v-5l1-1q0-1 3-1z" fill="#3e3b3b" stroke="#3e3b3b"/>
  <path d="m685 473l5 1h1v1h1v1h-6v1h1v1h1v1h-1v1h-1t-8 0h-7v3h-1q0-1-4-2l-3-2h-7q-6-1-19-1l-13-2h9q9-1 22-2 14-2 19-2 6 0 11 1z" fill="#c9a5ab" stroke="#c9a5ab"/>
  <path d="m542 37h16l3 1 36 2q36 4 47 6 10 2 11 5t3 6q2 2 4 16 0 14 1 15t1 2v1l1 1 1 2v3h-1v-1h-2l-1-1v-1h-2t-3-1-9-2l-6-1h-1q-1 0-6-2t-8-5-5-12q0-9-7-12-6-3-20-5t-43-2l-30-2v1h-9q-9-1-39-1-30-2-38-1h-9q0-1-3-1-4 0-10-1l-7-1-3-1-4-1h-1l1-1 1-1h4l6-2q5-2 7-3t33-1q32 0 55 0t36 1z" fill="#f8eaea" stroke="#f8eaea"/>
  <path d="m553 806v-1l3 1q2 0 4 2 1 2 4 2 2 2 1 3t0 3q1 1 5 2 3 0 2 2 0 2 0 2h-4l-10-1q-9-1-9-2-1-1 3-5 2-5 2-5l-1-1v1h-1v1h-1q-1 1-1 1v1h-1l-1 1v-2q1-1 3-3l2-2z" fill="#dab4b9" stroke="#dab4b9"/>
  <path d="m631 306h1l-2 11q-2 11-3 12v1q-1 0-1-6 0-5 2-12 2-6 3-6z" fill="#c7c3c3" stroke="#c7c3c3"/>
  <path d="m322 123h1v1h-2l-1 1-1 1h-1l-2 1-1 1h8q4 0 5 1 0 1 7 3 7 0 9 1l2 1h3l-1 1q-1 1-3 1h-2v1h-1v1h-19v1q-1 0-2 3l-1 3v1t-3 1-4-3-7-5q-7-1-23 1t-36 6l-20 2v1h-1q-1 1-2 1-1 2-10 2t-10-3l-1-3v-2q-1-1-2-3l-2-1h-4q-4 0-5 3-2 4-6 5l-3 1h-1q0-1-19-2l-19-2v-1h-1l-1-1v-1h3l2-1 2-1h-6l1-1 1-1h-17l2-1 1-1h22v-1l1-1t-1-1q-2-1 21-1t27 0 4-1 33-2q32-1 35 0l3 1h-2q-3 0-3 1h1v1l18-1q17-1 18-3 2-2 4-2 1-2 6-2 4 0 6-1z" fill="#e5b2b6" stroke="#e5b2b6"/>
  <path d="m402 1106h10v2l28 2q27 2 54 2 26 0 32 0h5l-7 1q-6 1-26 3-19 2-68 4-48 4-92 6-45 4-90 4h-45l1-1v-1h4l5-1q5-1 13-3 9-2 14-3 4-1 9-1h5l-4-1-3-1h-5l-4-1h-5v-1l35-2q35-2 42-3l8-1h4l38-2q38-2 42-2z" fill="#c7c5c3" stroke="#c7c5c3"/>
  <path d="m497 317l1-1t1 0v1l4 5q3 4 3 17t-4 17q-4 5-6 6t-2 0v-1q0-1 1-2l1-1v-2l1-2q1-1 1-4v-2t1-2l1-1v-7q0-5-1-10l-2-6v-2q-1-2 0-3z" fill="#eadfe0" stroke="#eadfe0"/>
  <path d="m406 198v-3l2 4q1 3 14 3h14l19-1q19-1 21-1 3 0 4 0 0 0 11 1h24v2h-3l-3 1h-11q-12 0-52 0h-40v-2q0-1 0-4z" fill="#4a4949" stroke="#4a4949"/>
  <path d="m314 427h7v1h-3q-3 0-3 1t10 2 10 1q1 0 1 1v1h-1q-1 0-1-1-1-1-58 1l-58 1h-6q-5 1-24 0-20 0-22-1-2 0-2 1t-22 3l-22 2h1v1h-1v2h2l2 1h9v2h-23v1h-1v-1q0-1-3-1l-2 1h-1q-1 0-1 1-1 1-2 2v-1q0-2 1-3 0-1-1-1h-8v10h1v1l-1 1v-1l-1-1-1-1v-3l-1-1-1-1v-6q0-7 1-8h1v-2l1-2v-1l93-1q94-2 94-1t15 1 21-1zm-2 1t1 0-1 0z" fill="#664a4f" stroke="#664a4f"/>
  <path d="m67 930l1-1v2l1 1 1 2 1 8q1 7 2 8v11q1 9 1 18 2 9 2 13v4l-1 4q-1 3-2 4l-1 1v-4h-1v-1h-1v-3l-1-1q-1-1-1-5t-2-29l-2-25 1-1 1-1v-4l1-1z" fill="#928483" stroke="#928483"/>
  <path d="m399 923l25 1q25 0 42 1h18l2 1q1 0 1 1h-12q-1 1-33 2l-31 1h-1q-2 0-26-2l-25-1v-1h1l6-1q5-1 19-1h14v-1z" fill="#636061" stroke="#636061"/>
  <path d="m700 878h22q19 0 18 1t-1 1h-1l2 1q3 0 3 1t1 1h2v3h-1l-1 1-2 1h-2q-2 0-2 1-1 1-14 3l-14 2v5h-1l-1 1h1v1h-3q-3 1-32 2l-30 1h-4q-4 0-106 6l-102 5t-1 1h-7q-6 0-129 6l-123 6h-2q-1 0-17-1t-14-1q1-1-16-1h-18v2h-2l-1 1t0 3v7h-2v-1l-1-1-1-1v-6l-1-2q-1-2-1-7t2-7l1-2h1v-3h2v-1l6-1q5-2 59-3t105-5 56-4h5l1-1h2l158-7q159-6 167-7t22-1h17z" fill="#694c52" stroke="#694c52"/>
  <path d="m508 221h5l-2 1q-2 2 21 2 22 0 30-1h7v1h8l5 1q5 1 4 1-2 0 2 1l4 1h3v1h1v1l-1 1v1h-7l4 1q3 1 4 7 0 6 1 6t3 1l3 1h-7v4h3l8 1q8 1 8 2t7 1h7v1h-21q-20 1-46 1l-25 1v-1q-1 0-1 0h-2q-2 0-30 1t-66 0l-39-1-2-1-2-1h-2l1-1q2-1 1-1h-1l3-1 3-1h-2q-2 0-4-2-1 0-2-4 0-4-1-8-1-5-6-6l-5-2h8v-1h-1v-1h-32v-1h1v-1h13q13 0 33-1h19l38-1q38-2 41-2 2 0 8-1z" fill="#b1b0b0" stroke="#b1b0b0"/>
  <path d="m388 406h42l-9 1q-9 1-39 1-30 2-109 2l-79 2v-1l82-2q81-3 112-3z" fill="#564e4f" stroke="#564e4f"/>
  <path d="m788 396h22t-4 2h-5v1h-1v1h-2v7l1 1q1 2 1 2l2 4q2 4 2 4v1h-2q-3-1-4-1-2-2-4-4-3-3-84-1l-81 3h-36q-29 0-51 0h-29v-2h-4q-4 0-6-1-1-1-7-2l-6-1h4l-1-1-1-1h-3v-1h1v-1l46-1q47-1 49-1h2l5-1 4-1h-13v-1l83-2q83-1 98-2 16-1 24-1z" fill="#a07d85" stroke="#a07d85"/>
  <path d="m93 444h7q1 0 1 2v1q-1 0-1 1v8h-2q-3 0-4-1l-1-1v-1q-1-1-1-1v-8h1z" fill="#ddd" stroke="#ddd"/>
  <path d="m566 133l2-1 30 1q31 1 34 2 4 1 3 2t-1 1h-6l-6 1q-5 1-15 3l-10 2h-1t0 2l-1 1h-1q-1 1-13 1t-13-5v-4h-1v-1h-2v-1h-1q0-1 0-1v-1q-1-1 2-2z" fill="#efdbdb" stroke="#efdbdb"/>
  <path d="m806 878h3l5 5q6 5 6 12t0 9v1t-1 1q-1 0-5 2l-4 1h-2l-1-1h2v-1q1 0 1-3l2-4-1-2q-1-1-1-1v-1h-7v-3q1-3 1-4t1-1 0-5 1-5z" fill="#1f1c1c" stroke="#1f1c1c"/>
  <path d="m323 139v-1h19l8 1h9v1h7q7 0 12 1h5v1h1v1h-1v1h-2v1h-1v1h4l1 1 1 1h2q1 0 1 2 0 1 1 1 1 1 6 1h5l1 1 2 1h2l-2 1-3 1h-2l-3 1q-4 0-4 1t-6 2-5 2q1 0 0 1t-8 1-7 1-2 1q-2-1-3-1-2 0-2-1 0-2-1-2t0-1q0-1-1-1h-3l-2 1h-4q0 1-1 1h-3v-1h-1v-1h-3q-4 0-5-1-1 0-1-2t-2-2q-3 0-3 1-1 1-1-3-1-3-3-4h-2v-1h-1v-1l-1-1q-1-1-1-1l1-3q1-3 2-3z" fill="#2b2625" stroke="#2b2625"/>
  <path d="m499 810v-1h1q0 1 0 1h2q1 1 1 2v2t-1 1v-1q0-1-1-1l-1 1h-1v1h-1v4h1v1h-1v1l-1 1q-1 0-1 0v1t-1 0q0 1-9 1l-9 1h-5l-5-1h-1v-2h1v-1h1v-1h1v-1h1v-1h1v-1h1v-1l6-2q5-2 5-3l6-1q6 0 8 0 1 1 2 0z" fill="#bc99a0" stroke="#bc99a0"/>
  <path d="m348 161h1v1h1v2l-1 2v2h1q2-1 1 1 0 1-1 2l-1 1h-1q0 1 1 2v1h-1q-1-1-6 0l-6 1h1q1 0 1 2 1 2 2 2h5l3 1q4 1 8 1h4v2h-10q-10 0-20 0t-12-2q-3 0-12-1t-9 0-6-1-5-3q2 0 2-1t-2-2q-3-2-1-2 1-1-3-2h-4l8-2q7 0 10-1l3-1h5l2-1 2-1h-6l8-1q8 0 8 1t8 1q7-1 12-1h5l1-1 2-1h1q1 0 1-1z" fill="#202020" stroke="#202020"/>
  <path d="m553 809v-1l1 1t-2 5q-4 4-3 5 0 1 9 2l10 1h-8l-8 1q-7 1-15 1h-8v1h-22q0-1-1-1l-1-1h6q6-1 7-2t1-2h1q0-1 0-1h1q1 0 1 2t1 2h1q1 0 1 0h2q2 0 5-5l4-4 2-2q2-1 3-1h1-1v1h-1v1h-1v1h-1v1q-2 2-2 2v6h4l1-1 1-1h1v-1h1v-1q0-1 2-3l2-2 1-1h1v-1t1-1h1v-1h1z" fill="#e8e6e6" stroke="#e8e6e6"/>
  <path d="m736 172q0 1 1 2t1 2v1l7 1q7 1 7 2t6 1l5-1h15q9 0 12 1l3 1h1v1l1 1h-1v1t-1 0l-1-1q-2 0-2 4 0 3 0 8v4h-2q-1 0-2-1h-22q-20 1-57 0h-37v-7q0-7-2-7h-1v-1q-1 0-3-2l-2-2h-3v-3h3l3 1h13q12 2 15 1 3 0 3-1t-1-1q-1-1 15-1t21 1q5 0 5-3 0-2 0-2z" fill="#1d1d1d" stroke="#1d1d1d"/>
  <path d="m300 28h39l-3 1q-3 1-4 1l-2 1-2 1h16q14 0 20 0h5l-1 1-1 1h-8l-2 1-2 1h-1l14 1 14 1h1l-3 1-4 1h-2q-2 0-10 0h-8l-2 1-1 1h-3v2l1 2 1 1v1h2l5 3q5 2 5 3 1 2 15 4t25 6q12 4 25 4t32 2 19 3 8 2 10 2h2l1 1h1v-1h1v1h3v1h-3l-3 1h-4q-4 0-15 2l-11 2h-4q-5 0-16-2-10 0-68 0l-57 2h3l5 1 5 1h-24v1h-1q-1 1-12 1t-48 2l-37 1h-13q-13-1-50 1t-49 4q-11 2-18 2h-7v-2q-1-1-1-8t-2-11l-2-4v-1h-2q-1 0-2 1l-1 1q-1 0-1 0v2h-2v-8h-1v1h-1v1h-1q-1 0-1 1l-1 1h-1v2h-2v-2h1v-1h1v-2q0-2 2-7 0-5 5-12 4-7 3-8h-1l6-3q6-3 8-3t3-2q0-3 1-3v5l19-2q18-2 18-2h10l20 1q21 1 80-2 60-3 66-3z" fill="#e5b4b8" stroke="#e5b4b8"/>
  <path d="m790 216h13t-68 2l-68 1v-1h1v-3l60-1q59-1 58 0 0 2 4 2z" fill="#686968" stroke="#686968"/>
  <path d="m711 423h4v1h-1l1 2q1 0 0 1t1 1 2 1h-8q-8 1-38 1l-30 1q0-1-18-1h-17v-1h-1v-1h1l32-2q32-2 32-2h18q18 0 22-1z" fill="#796769" stroke="#796769"/>
  <path d="m453 186l1-2 21 2q21 2 26 3h5q0 1 4 1h3l1 1h1v4l-1 4v1h-12v1h-11q-11-1-11-1-1 0-4 0-2 0-21 1l-19 1h-13l1-1 2-1 12-2q13-2 13-3h1v-8l1-1z" fill="#131313" stroke="#131313"/>
  <path d="m794 426h26l2 2q2 1 1 4 0 4 0 4h-1t0 2q-1 1-2 1h-2q0 1-2 1-1 0-80 1-80 1-92 1-13 1-13 0t-9-1h-12q-3-1-12-1-8-1-8-2t-12-1h-13v-1h6l11-1 10-1h-23l-2-1-2-1h17q18 0 39-1h21l30-1q30 0 38-1h8l34-1q35-2 42-2z" fill="#d2cfd0" stroke="#d2cfd0"/>
  <path d="m444 318h1l-4 8q-3 8-4 12v5l-1 4q0 5 0 5-1 0-4 1l-3 1q-1 0 0-2 1-1 1-7t-2-10q0-4 4-5t5-4l1-2h1l1-2q0-1 1-1t1-1q1-2 2-2z" fill="#daaab1" stroke="#daaab1"/>
  <path d="m538 807l3-1-2 2q-1 2-2 2v1h-1v2l-4 4q-3 5-5 5h-3v-1q0-1 4-5l4-3v-1t2-2 4-3z" fill="#b7999e" stroke="#b7999e"/>
  <path d="m820 905l-1 1q-1 2-3 76t-2 76v3h-1v1h-2l-1 1q-1 1-2 1t-2-3v-3l-1-3q-1-3-1-3v-10q0-9 2-70 1-61 0-61h-2v-1h6v-1l4-1q4-2 5-2 1-1 1-1z" fill="#e2b2b8" stroke="#e2b2b8"/>
  <path d="m170 928h2v1h-10q-11 1-28 1l-17 1v1l-1 1v6l1 1h-1t0 1h1v1q0 1-1 1h-2q-1-1-3-3l-1-2h-1v-1h-1v-6l-1-1-1-1v-1h-3v-1h2v-2h18q17 0 16 1-2 0 14 1t17 1z" fill="#423438" stroke="#423438"/>
  <path d="m456 430h14v4l2 1q1 1 1 1h-5q-5 0-22 1h-24v-1h-1l-7-1q-8-1-12-1h-3l-4-1-4-1 25-1q25-1 40-1z" fill="#5e4d4f" stroke="#5e4d4f"/>
  <path d="m801 320v2q1 2 2 4 1 1 2 2 0 2-2 2-2 1-2 2v1h-1l-1 1h-1v1l-1 1-1 1v1h-1l-2-1h-2v-2h-2v-1l-1-2v-4q0-5 0-7t0-3h1t1 1h1v1q0 1 1 1 2 0 3-2 1-1 3-1 2 1 3 2z" fill="#a59295" stroke="#a59295"/>
  <path d="m86 114h-2l1 1 1 1h6v2q0 1 5 2 5 2 6 2l1 1 1 1h2l-2 1q-2 1-3 1h-1l1 1 1 1 5 1q4 1 2 2-1 1 12 2 14 1 22 2h7v1h-22l-1 1-2 1h17l-1 1-1 1h6l-2 1-2 1h-3l1 1h1v2h-1q-1-1-32-2l-31-2t-1 1q-1 0-1 0v1t-1 1q-1 0-1 1t-2 1h-4v-1l-1-1-1-1v-2q0-2-1-7v-10q1-5 2-8l2-2h3v-1h1v1l3-2q3 0 6 0 4 2 4 2z" fill="#dca8ad" stroke="#dca8ad"/>
  <path d="m488 856h8l3-1h17v1h1l15 1q15 1 15 2t3 1h2t-50 2l-49 2h-3l2-1 1-1h5l7-1 7-1h1t-3-1l-2-1h3l5-1q4-1 12-1z" fill="#dfc1c6" stroke="#dfc1c6"/>
  <path d="m678 491v6q0 5-10 7l-9 1h-7q-8-1-9-1-1-1-1-2-1 0 0-3 0-3-2-4-3-1-2-1t-3-2h-4v-1h1v-1h1v-1h5l18-1q19-1 20 0 0 2 1 2t1 1z" fill="#f3f2f2" stroke="#f3f2f2"/>
  <path d="m178 874h1t1 1q0 1-16 1h-15 1q1 0 1-1l13-1q14 0 14 0z" fill="#7a696b" stroke="#7a696b"/>
  <path d="m632 729l30-1h2q2 0 2 2v3q0 1-8 10-7 10-17 15-10 4-19 6h-10v1h-14q-13 1-32 1l-19 2h-10q-10 0-51 2l-40 2h-8q-8 0-64 3l-56 2h-6q-5-1-14-4l-9-3h-1t-5-5-9-11l-4-7v-2l-1-2-1-2v-2h1l1 1h1l3-1h2v1q0 1 91-2 91-4 91-4l43-2q43-2 43-2h16q17 0 29-1h43z" fill="#282727" stroke="#282727"/>
  <path d="m97 330l1-63 2 65q1 65 0 65h-3q-1-1-2-2l-1-2 1-4 1-4v7l1-62z" fill="#cdb2b2" stroke="#cdb2b2"/>
  <path d="m184 313l6-5-5 8q-5 7-5 8t-1 4v3l-1 4q-2 4-2 4v1h-1q-1-1-1-2 0-2-3-3l-3-1v-2h1q1 0 3-2t2-3l1-1-1-1-2-1h-2v-2h1v-1h1v-1q1 0 3 0t3-1q0-1 6-6z" fill="#c99ba2" stroke="#c99ba2"/>
  <path d="m689 480l2 1q1 1 2 3t1 7v5t-1 2q-1 3-5 6-4 2-55 5l-51 2h-20q0-1 6-1h10q3 0 4-1l31-1q31-2 39-2h7v-1l9-1q10-2 10-7v-5q1 0 1-1h1v-1l-1-1v-1h7v2q0 3 1 8l1 4v-1h1v-1h1l1-1h1v-7q0-6-1-8t-2-2l-1-1t1-1z" fill="#574649" stroke="#574649"/>
  <path d="m552 860h21q21 0 21 0l16 1q16 1 38 1h22l4 1 5 1h-7q-6 0-90 4l-85 4h-1t-20-2q-19-2-20-3v-1h-8l2-1 3-1 49-2q50-2 50-2z" fill="#9d999a" stroke="#9d999a"/>
  <path d="m523 200v-11l1 2q1 1 4 2 2 1 3-1t1-2q1 0 2 0h2v1h1v1h1v9q0 9 2 10t1 1-1 2v5h-1v1h-3q-3 0-3-2 0-1-4-2-4 0-5 1v2h-1v-19z" fill="#151515" stroke="#151515"/>
  <path d="m478 220h41v1h-11q-6 1-8 1-3 0-41 2l-38 1v-1h-17v-1h-1v-1h1l16-1q17-1 58-1z" fill="#464444" stroke="#464444"/>
  <path d="m59 106v-13l1 11q2 11 2 18v6h1v2q-1 1-1 16v15h-2l-1-1h-1v-20q0-21 1-34z" fill="#cbacad" stroke="#cbacad"/>
  <path d="m470 315v-1l7 1q7 1 11 3 4 3 7 7t3 6 0 7v10l-6 6q-6 7-7 10v4h-3l-1-1-1-1h-2v-1h-1v-1h-2v-1l-1-1v-2q0-3 0-10t-2-20l-2-12v-1q0-1 0-2z" fill="#f6f5f5" stroke="#f6f5f5"/>
  <path d="m84 186v-1h2q1 0 1 5v4h3q2 0 2-2 0-1 1-1h1v4q1 3 3 5 1 1 2 2 1 2 3 3 2 2 2 5 1 2 2 3 1 0 2 2 2 2 2 3v1h1v1h1v-1h1v2l-1 2v1h-7v-1h-1v-1l-1-2q-1-3-5-6-5-3-6-9 0-6-3-7l-3-1v-1t-1 0q-1-1-1-5l-1-4h1v-1z" fill="#282323" stroke="#282323"/>
  <path d="m444 136h2t-1 1-2 3l-1 3q0 1-3 1t-5-3l-1-3 5-1q5-1 6-1z" fill="#d7b8b8" stroke="#d7b8b8"/>
  <path d="m834 386v7h-1q0 1 0 1-1 0-6 2l-6 1h-1q-1-1-1-1l3-2q2-3 2-8 0-4 4-6 3 0 3-1h1q2 0 2 1 0 0 0 6z" fill="#2c2a2a" stroke="#2c2a2a"/>
  <path d="m622 293h1l1 1q2 0-1 2-3 3-4 7-2 5-2 5h-1v2l-1 2-1 1v2l-1 1q-1 2 0 10 1 9 1 10 2 1 2 0t1-1q1 1 1 1h1t1 1v1t1 0v1q0 1 1 1 0 0 0 1h1l3 3q3 2 4 3 2 0 2 1v6h1v1h1v1h2-9q-1 0-5-2-3-2-10-9l-7-7v-2q-1-2-1-4t0-10l1-9q1 0 1-1l4-6q4-6 8-9t4-4zm-5 47h-1 1q1-1 1 0-1 0-1 0z" fill="#706768" stroke="#706768"/>
  <path d="m432 138h1l1 3q2 3 5 3t3-1l1 1v1l5 1q4 2 5 2h1v1h1v1h1l-2 1h-2q-2 1-12 1-10 2-22 2h-14l-2-1-1-1h-5q-5 0-6-1-1 0-1-1 0-2-1-2h-2l-1-1-1-1h-4v-1h1v-1h2v-1h1v-1h-1v-1l24-2q24-1 25-1zm-23 16t0-1q1 0 1 1 0 0-1 0z" fill="#332b29" stroke="#332b29"/>
  <path d="m240 496l1-1 1 9q0 9 3 11 2 1 3 2l1 1h2q2 0 5 1h20q19-1 30-1h11l-5 6q-4 5-5 9l-1 4v2h1l1 1h1l3 2q3 0 52 1h50v1h-18q-18 0-45 2-27 0-39 2-11 2-20 7t-9 6q-1 1-3 3-2 1-5 6l-3 4v-1q0-1-1-1l-1 1v1h-1q-1 0-2 0t-3 2q-2 0-8 2-7 0-12 0-6 0-9-2-3-3-7-11-2-8-2-19t1-16q1-4 4-14l3-11v-2l1-1v-2h1t0-1q1-1 1-1h1t2-2z" fill="#b68b95" stroke="#b68b95"/>
  <path d="m301 306h1v1q0 1-1 1l-2 2q-3 3-5 12t-3 14q-1 4-1 6v2h-1v-1q-1 0-1 0 0 1-2-1l-2-1v-1t-1 0v-2q-1-1-1-7t2-11q2-4 6-7l2-3h1v-1h1l3-1q3-2 4-2z" fill="#cdcccd" stroke="#cdcccd"/>
  <path d="m655 546v1h1v1h2t0 1h1q0 1 1 1 0 0 0 1h1l5 8q4 8 6 13 0 4 0 74-2 71-2 74v2t-2 1q0 1-17 2t-21 0l-5-1h-10q-10 0-21 1-12 0-22 1-10 0-12 0 0 0-11 1l-10 1h-1t-36 0q-37 2-44 2l-7 2h-9q-3 0-84 4l-82 3t-1 1h-1t-2 0h-3l-1-1v-1q0-1-1-68v-68l84-3q84-3 84-3l73-2q72-2 82-3 11-1 26-1h16l2-1 1-1h-25q-24 0-60 1-35 1-34-1 0-1-2-1-1 0 0 1 0 2-48 4l-48 2v1h-22q-21 1-74 3l-52 2h-3v-8q1-5 2-9l1-4t1-1l1-2v-2l3-4q3-5 5-6 2-2 3-3 0-1 9-6t20-7q12-2 39-2 27-2 45-2h18v-1l78-2q77-3 84-3h34q28 0 36 4t8 4 1 0z" fill="#262626" stroke="#262626"/>
  <path d="m51 167l1-3 1 8q1 8 17 34t16 30q0 3 1 12l1 9v2l1 1 1 1v1h2v-30l1 16v54q1 39 1 65v26l1 2q1 1 2 2h1v1l1 1v1h-1q-1 0-3-1t-3 1v4q0 2 0 3v2q0 1 1 1 0 0 1 1l2 3q2 2 1 3 0 1-2 2-3 1-3 3-2 3-2 4 0 0 0 1v1l-1 3v3q-1 1-1 8v6l1 1 1 1v3h1q0 1 1 0v-1l2 2q1 2 4 2h2v-3l1 1 1 1v2h-1v1h-1q-1 0-1 1h-1q-2 0-1 87 1 86 2 105v19l1 102q2 101 0 101-1 0-1 3l1 4v2h1v1h1v1h-1q-1 0 0 2t1 4q1 2 0 2 0 1 2 2 2 0 2 2t-2 2q-2 1-2 2-1 2-2 2h-1v1h-1v6l1 1v1l-1 2q-2 2-2 7t1 7l1 2v6l1 1 1 1v1h1l2 2q2 2 3 2 2 0 2 1t1 1q1 1-1 38 0 37-1 36t-1 15 0 36v20l-1-1h-1v1l-1-5q-1-4-5-22l-5-17v-2l-1-2v-4q0-4-10-45l-9-40v-2q-1-1-2-8l-1-8-1-2-1-1v-2l-1 1-1 1v4l-1 1-1 1v-2l-1-5q-1-5-1-15v-31q0-22-7-364l-7-342 1-1 1-1v-3q0-3 1-6z" fill="#a77e87" stroke="#a77e87"/>
  <path d="m767 867l5 1q6 0 4 1-1 1 2 1 2 0 4 5t2 6v1q-1 0-5-3t-17-2-16 1l-4 2h-3t1-1-18-1h-25l1-1 2-1h1v-1h1v-1h3l31-4q30-3 31-3z" fill="#906a72" stroke="#906a72"/>
  <path d="m435 360l-1-2 2 1q2 1 3 3 1 3 2 0v-3l3 2q3 3 4 3h1l6 3q6 3 7 4l2 1h10v2h2v2h-1t1 1h1v1q-1 0-1 0v1h-1v1h-1l-1 3q-1 3-2 4t1 2q1 1 1 1-1 0-1 1v1h-16q-17 0-18 0h-7v-1h1v-1h1l1-1q1 0 1-1 0-2 1-2t0-4q0-4 0-12 0-9-1-10z" fill="#c198a0" stroke="#c198a0"/>
  <path d="m818 258v-1h1q1 0 1 1t1 1v1q-1 0-2 1t-1 3-2 2q-1-1-2 20-1 20-2 20t-2 5q0 5 0 33 0 27-1 25t-1 1q-2 2-6 4-5 2-4 3t-2 1q-3 1-3 2t-32 3l-32 1-2 1-2 1h2l-1 1-1 1h6l-1 1-1 1h3q4 0 4 1h-9q-9-1-57-1h-49q-1-1-2-2-1 0-27-1-27-1-50 1l-22 2h-1v1h-1q-2 1-20 1t-22-1l-3-1t-1-1q-2-1-1-2t2-4l1-3h1v-1h1v-1t1 0v-1h4q3 0 4 1 0 2 3 2h2v-2t0-1-1-3q-1-2 2-5 2-3 1-3t0-2l2-3v1q0 1 2 0t6-6q4-4 4-17t-3-17l-4-5v-1q-1 0-1 0v-1q0-1-5-5-4-4-6-6-2-4-3-3 0 1-1 1t-1-1v-1h-1q-1 0-1 2 0 1-2 1t-2 2v2t-1-1q-1-2-2-2l-1-1h-2q-2 1-8 3-5 2-11 7l-6 5h-1t0 1q-1 1-1 1h-1t-1 1q-1 0-1 1l-1 2h-1l-1 2q-1 3-5 4t-4 5q2 4 2 10t-1 7q-1 2 0 2v2q0 1 1 1 2 1 3 1h1l1 2q1 1 1 10 0 8 0 12 1 4 0 4t-1 2q0 1-1 1l-1 1h-1v1h-1v1h-15q-16 0-17 1h-1v-1h-12q-12 0-35-2l-23-2h7l5-1 6-1h-1v-1h-1q0 1-2 0l-3-1h8v-2h-2v-1h1v-2h1v-1h-1q-1 0-2-2-2 0-6-4-4-3-4-3-1 1-1-3 0-2-2-3t-2-3l-1-3v-1h-1v-1q1-1 2-3l1-3v1q0 1 2 0 3-2 6-6 2-5 3-11t-1-11l-2-6h-1v-1h-1v-2h-4v6l-1-1-1-1v-2l-1-1v-4q-1-2-1-4-1-3-2-3t-1-3v-3h1l2-1h-1v-1h-1v-1h-1 5l5 2q5 2 9 3 5 1 8 2 4 0 4 1t2 1 5-1q3-2 5 0 3 0 16-4 12-6 26-10t22-6q9 0 16-1l7-1h9l-10-1-10-1h9l10-2q10-2 12-2 2-2 1-2-2 0-2-1l47-2q47-1 62-2l15-1h2l106-3q106-3 109-4t3-1zm-92 37h4v-1h-2q-1 0-1-1t-1-1q0-1 0-2t9 0q9 2 9 3t4 5q4 3 7 6 3 4 3 16 0 11-4 16t-4 6v1h-1v1h-1l-1 1-1 1h-1v1h-1v1h-1q-1 1-1 1v1h-2l-1 1h-1q0 1 0 1 0 2-3 4-3 3-5 3h-2v1t-1 0h-2l-1 1h-1v2h-1q-1 1-6 2-6 2-6 3v1h-1v1h-6v-1h-1v-1q0-2 1-4 1-1 2-1t-1-3q-1-4-2-4t-5-6l-5-5v-1q0-1-1-5v-5h-1t-1-5-4-5l-3-1v-2l3-1q3-1 4-2 1-2 1-2h1l3-6q2-7 7-12 5-4 5-5h1l3-2q4-3 7-3t3 2q-1 2 0 3 2 1 1 1 0 0 5 1zm-70 7v1h2q2 0 1 0 0-1 0-1h-1l-1-4q-2-4 3 0 6 5 8 10 4 5 4 14 0 10-4 16-4 5-6 7-2 3-2 3h-4l1-1 1-1v-1h1v-1h1v-1l1-3v-2h-2v1h-1v1h-1v1h-1v1h-1v1h-1l-1 1q-1 1-2 4v4h-2v-1h-1v-1h-4v-1h-1v-1h-2v-1l-1-1v4h1v1h1l1 2q2 3 3 3h2v1h-1v1h-1l-1 1q-1 1-8 5-7 5-12 6-5 2-4 2 1 1 0 2-1 0-1 2v1h-1v1h-5v-1l-1-1v-2h-3v-1l1-1q1-1 0-2-1-2 0-7t-3-11l-4-6v-2t-2-2v-3l-1-2q-1-2-1-6t-3-5l-3-2 3-2q3-3 3-6 0-2 2-2t2-1h1q0-1 1-1l4-6q4-6 8-9t4-4h1l7-2q6-2 6 0 1 3 8 5 8 3 10 4t2 2zm-183-9q3 0 3 1t-2 2q-1 0-1 1 1 1 0 1t-2-2q-1-3 2-3zm321 13h4q2 0 4 5t2 7q0 3-1 2-1 0-2 0v2q1 2 2 4 1 1 2 2 0 2-2 2-2 1-2 2v1h-1l-1 1h-1v1l-1 1-1 1v1h-1l-2-1h-2v-2h-2v-1l-1-2v-4q0-5 0-7t0-3h1l1-6q2-6 4-6zm-383 12v-1h-1l1-4q1-4 1-5 1 0 5 0 3 1 3 6-1 4-4 4-4 0-4 0t-1 0zm108 27l-1 1t-4 0q-4-1-4-2t4 0q5 0 5 1zm-16 19q0-2 3-1 4 1 4 2t-3 1q-3-1-4-2z" fill="#ecc1c6" stroke="#ecc1c6"/>
  <path d="m608 215h36q19 0 18 1 0 2 2 2h3v1h-13q-13 1-45 1h-47q-15 0-15-1v-1h-1q-2 0-2 1l-1 1v-4h24q24 0 41-1z" fill="#615c5c" stroke="#615c5c"/>
  <path d="m472 810h2t0 1l1 1t-9 5l-8 4t-1 1h-1q-1 0-1-1-1 0 0-1l1-1 6-4q5-3 6-4 2-1 4-1z" fill="#b69097" stroke="#b69097"/>
  <path d="m726 295h4l3 1q3 0 7 3t5 5 0 2-1-1v-1q-1 0-1-1h-1q0-1 0-1-1 0-3-2t-9-2h-8t-1 0h-1q-2 0-6 3-5 3-8 7-2 4-3 12l-1 8h1v1h-2v2l-1 2v-1l-1-2-1-2v-6q0-5 2-10 2-6 3-10t2-4q1-1 1-3l1-2 3-2q4-3 7-3t3 2q-1 2 0 3 2 1 1 1 0 0 5 1z" fill="#959393" stroke="#959393"/>
  <path d="m416 812h1l-2 3q-1 3-2 3h-1t-1-2q-1-1-2 0-2 2-2 1v-2q0-1-2-1l-2 1h-3q-3 1-8 2l-6 2q0-1-1-1h-1l-1 1-1 1h-2v-1l-1 1h-2v-1h1v-1h2v-1h1v-1h3l7-3q7-3 8-3 1-1 1-2 0-2 2-1 3 1 8 2t5 2 1 1z" fill="#c6a6ab" stroke="#c6a6ab"/>
  <path d="m472 303l1 1q1 0 2 2 1 1 1 1v1h1l6 4q6 2 7 4 2 1 2 1v1h1v1h1v1h1q1 2 1 2h1l2 6q1 5 1 10v7h-2v-7q0-5 0-7t-3-6-7-7q-4-2-11-3l-7-1h-1l-1 1h-1v-1l1-1v-5l3-1q3-1 2-2t-1-2z" fill="#8e8c8d" stroke="#8e8c8d"/>
  <path d="m215 352v-8l1 4q1 4 2 4t1 1q1 1 1 3v1l1 1 1 1v1h1l1 1h1v1l1 1v-1q0-1 1-2h1l-1 2q-1 2-3 3l-3 1h-5v-4l-1-2q-1-1 0-8z" fill="#c0b6b7" stroke="#c0b6b7"/>
  <path d="m256 933h34l2 1h5q5 1 6 2h-35q-22 0-57 1l-35 1-3-1-3-1h-2l15-2q15 0 23-1h13q5-1 37 0z" fill="#5b5959" stroke="#5b5959"/>
  <path d="m433 134h7q4 0 8 0h5v1h1v1h-10q-1 0-6 1l-5 1q-1-1-1-2l-1-2h2z" fill="#f2dede" stroke="#f2dede"/>
  <path d="m794 185v-1h1l1 7q0 7 2 7 1 0 1 1h-1q-2 0-2 3 0 4-1 5l-1 1 1 4v4h-5q-4 0-4-2 1-1-58 0l-60 1v3h-4q-2 0-2-2 1-1-18-1h-19v-1h1l2-1 2-1 42-2q43-2 82-4 38-1 39-11v-10q1 0 1 0z" fill="#2c2c2c" stroke="#2c2c2c"/>
  <path d="m436 819l2 1q2 0 4 1t6 0q3 0 3-1t3-1h2l-1 1q-1 1 0 1 1 1 2 0h1v1q0 1-2 3-3 1-3 2h1v1h-4q-3 0-9 1h-8v-1q1-2 2-4l1-3h-9v-1h5q4 0 4-1z" fill="#c5a3a8" stroke="#c5a3a8"/>
  <path d="m470 303h2q0 1 1 2t-2 2l-3 1v6q-1 0-1 1l-5 3q-4 2-8 8-2 5-2 14 0 8 0 8v1q0 1 0 1h1l2 4q2 4 6 6t5 3v6h1v1h1l2 1 1 1h-7l-2-1q-1-1-7-4l-6-3q-1-1-3-3t-5-10l-4-8v-5q1-4 3-11l3-7q1 0 1 0v-1t1-1l6-5q6-5 11-7 6-2 8-3z" fill="#726a6c" stroke="#726a6c"/>
 </g>
</svg>
