<?xml version="1.0" encoding="UTF-8"?>
<svg viewBox="0 0 630.48486 803.63403" xmlns="http://www.w3.org/2000/svg" xmlns:xlink="http://www.w3.org/1999/xlink">
 <defs>
  <filter id="e">
   <feGaussianBlur stdDeviation="2.48738"/>
  </filter>
  <filter id="d">
   <feGaussianBlur stdDeviation=".595"/>
  </filter>
  <filter id="f">
   <feGaussianBlur stdDeviation="1.54665"/>
  </filter>
  <filter id="h">
   <feGaussianBlur stdDeviation=".43245"/>
  </filter>
  <filter id="g" x="-.13117" y="-.09461" width="1.2623" height="1.1892">
   <feGaussianBlur stdDeviation="3.26655"/>
  </filter>
  <linearGradient id="a">
   <stop stop-color="#fff" offset="0"/>
   <stop stop-color="#fff" stop-opacity="0" offset="1"/>
  </linearGradient>
  <linearGradient id="c" x1="310.73" x2="311.26" y1="716.17" y2="631.47" gradientTransform="matrix(.60945 0 0 .52048 182.32 97.042)" gradientUnits="userSpaceOnUse" xlink:href="#a"/>
  <linearGradient id="b" x1="310.73" x2="309.23" y1="716.17" y2="653.49" gradientTransform="matrix(.60945 0 0 .52048 182.32 97.042)" gradientUnits="userSpaceOnUse" xlink:href="#a"/>
 </defs>
 <g transform="matrix(7.5979 0 0 7.5979 -721.77 -330.97)">
  <path transform="matrix(.45932 0 0 .44737 113.31 88.837)" d="m132.2-9.7531c0 37.39-37.683 67.7-84.167 67.7s-84.167-30.31-84.167-67.7 37.683-67.7 84.167-67.7 84.167 30.31 84.167 67.7z" fill="#500"/>
  <path transform="matrix(-.82414 0 0 .82414 208.89 100.93)" d="m72.274-47.72c0 9.6-7.7824 17.382-17.382 17.382s-17.382-7.7824-17.382-17.382 7.7824-17.382 17.382-17.382 17.382 7.7824 17.382 17.382z" fill="#500"/>
  <path transform="matrix(-.67768 0 0 .67768 200.85 93.945)" d="m72.274-47.72c0 9.6-7.7824 17.382-17.382 17.382s-17.382-7.7824-17.382-17.382 7.7824-17.382 17.382-17.382 17.382 7.7824 17.382 17.382z" fill="#a40"/>
  <path transform="matrix(-.67768 0 0 .67768 200.85 93.945)" d="m69.529-44.518c0 5.8105-4.7104 10.521-10.521 10.521s-10.521-4.7104-10.521-10.521 4.7104-10.521 10.521-10.521 10.521 4.7104 10.521 10.521z" fill="#ffb380" stroke="#800000" stroke-width=".05"/>
  <path transform="matrix(.82414 0 0 .82414 68.281 97.213)" d="m72.274-47.72c0 9.6-7.7824 17.382-17.382 17.382s-17.382-7.7824-17.382-17.382 7.7824-17.382 17.382-17.382 17.382 7.7824 17.382 17.382z" fill="#500"/>
  <path d="m114.1 107.58s-12.956 29.199-8.7016 33.453 13.923 5.0276 17.017 2.3204 1.1602-7.348 1.1602-7.348c4.8991 1.9994 9.0095 1.6327 12.956 0.77348 0 0-0.96685 8.5082 2.7072 10.249s17.403 2.5138 18.37-3.0939-2.1529-13.864-3.338-20.749c5.2987 0.15234 5.798 2.8498 9.8523 2.2751 4.0614-0.57572 10.055-5.8011 9.4751-13.923s-24.111-6.8571-24.111-6.8571l-38.867-3.2873s-11.721 2.0303-13.729 4.4475c-2.5418 3.0601 0.70902 15.985 6.1878 15.47 3.738-0.35182 6.3812-2.5138 6.3812-2.5138z" fill="#a40" stroke="#500" stroke-width="2"/>
  <path transform="matrix(1.2946 0 0 1.1495 -40.83 -19.783)" d="m146.91 121.9c0 6.5668-6.418 11.89-14.335 11.89s-14.335-5.3234-14.335-11.89 6.418-11.89 14.335-11.89 14.335 5.3234 14.335 11.89z" fill="#fff"/>
  <path transform="matrix(.67768 0 0 .67768 76.321 90.224)" d="m72.274-47.72c0 9.6-7.7824 17.382-17.382 17.382s-17.382-7.7824-17.382-17.382 7.7824-17.382 17.382-17.382 17.382 7.7824 17.382 17.382z" fill="#a40"/>
  <path transform="matrix(.67768 0 0 .67768 76.321 90.224)" d="m69.529-44.518c0 5.8105-4.7104 10.521-10.521 10.521s-10.521-4.7104-10.521-10.521 4.7104-10.521 10.521-10.521 10.521 4.7104 10.521 10.521z" fill="#ffb380" stroke="#800000" stroke-width=".05"/>
  <path d="m137.91 97.469c-12.191 0-22.079 5.9059-22.079 13.205s9.8882 13.236 22.079 13.236c5.7485 0 10.968-1.3191 14.896-3.4751 0.14564-5.2092 1.6992-11.364 7.5637-13.763-2.1385-5.9599-11.867-9.2035-22.46-9.2035z" opacity=".2"/>
  <path transform="matrix(.42962 0 0 .41845 114.74 88.555)" d="m132.2-9.7531c0 37.39-37.683 67.7-84.167 67.7s-84.167-30.31-84.167-67.7 37.683-67.7 84.167-67.7 84.167 30.31 84.167 67.7z" fill="#a40"/>
  <path transform="matrix(.30852 0 0 .23481 22.103 -68.471)" d="m343.67 636.02c0 22.882-13.38 41.431-29.885 41.431s-29.885-18.549-29.885-41.431 13.38-41.431 29.885-41.431 29.885 18.549 29.885 41.431z" fill="#fff" filter="url(#e)" opacity=".15"/>
  <path transform="matrix(.24296 0 0 .19364 42.296 -42.365)" d="m343.67 636.02c0 22.882-13.38 41.431-29.885 41.431s-29.885-18.549-29.885-41.431 13.38-41.431 29.885-41.431 29.885 18.549 29.885 41.431z" fill="#80e5ff" stroke="#000" stroke-width="3.5729"/>
  <path transform="matrix(.30673 0 0 .22077 3.9507 -11.228)" d="m373.56 406.5c-10.059 0-18.219 9.6574-18.219 21.567s8.1599 21.567 18.219 21.567 18.219-9.6574 18.219-21.567-8.1599-21.567-18.219-21.567zm-0.3125 2.8303c9.2742 0 16.812 8.2845 16.812 18.482s-7.5383 18.453-16.812 18.453-16.781-8.2562-16.781-18.453 7.507-18.482 16.781-18.482z" fill="url(#c)" filter="url(#d)" opacity=".5"/>
  <path transform="matrix(.14281 0 0 .12655 73.232 1.2198)" d="m343.67 636.02c0 22.882-13.38 41.431-29.885 41.431s-29.885-18.549-29.885-41.431 13.38-41.431 29.885-41.431 29.885 18.549 29.885 41.431z" filter="url(#f)"/>
  <path transform="matrix(.08642 0 0 .0716 88.865 32.799)" d="m343.67 636.02c0 22.882-13.38 41.431-29.885 41.431s-29.885-18.549-29.885-41.431 13.38-41.431 29.885-41.431 29.885 18.549 29.885 41.431z" fill="#fff" filter="url(#g)"/>
  <path transform="matrix(.30673 0 0 -.23062 3.8559 176.41)" d="m373.56 406.5c-10.059 0-18.219 9.6574-18.219 21.567s8.1599 21.567 18.219 21.567 18.219-9.6574 18.219-21.567-8.1599-21.567-18.219-21.567zm-0.3125 2.8303c9.2742 0 16.812 8.2845 16.812 18.482s-7.5383 18.453-16.812 18.453-16.781-8.2562-16.781-18.453 7.507-18.482 16.781-18.482z" fill="url(#b)" filter="url(#h)"/>
  <path d="m119.9 99.387c7.4278 8.6145 14.353 6.4722 19.748 0" fill="none" stroke="#500" stroke-width="1.7899"/>
  <path d="m97.344 110.45s2.2225 7.5564 5.7784 7.1119 7.8405-4.9651 7.8405-4.9651l-2.3192 5.7316s-3.969 2.4496-6.2671 1.9673c-2.2903-0.32039-5.2129-4.956-5.0326-9.8456z" fill-opacity=".2"/>
  <path d="m135.38 56.156c-1.0115 0-2.0095 0.02994-3 0.09375 16.582 1.1313 29.625 12.744 29.625 26.938 0 14.943-14.458 27.062-32.281 27.062-7.511 0-14.423-2.1425-19.906-5.75 6.5436 5.1265 15.577 8.3125 25.562 8.3125 19.97 0 36.156-12.698 36.156-28.344s-16.186-28.312-36.156-28.312z" opacity=".1"/>
  <path transform="matrix(.30852 0 0 .23481 44.884 -67.919)" d="m343.67 636.02c0 22.882-13.38 41.431-29.885 41.431s-29.885-18.549-29.885-41.431 13.38-41.431 29.885-41.431 29.885 18.549 29.885 41.431z" fill="#fff" filter="url(#e)" opacity=".15"/>
  <path transform="matrix(.24296 0 0 .19364 65.077 -41.813)" d="m343.67 636.02c0 22.882-13.38 41.431-29.885 41.431s-29.885-18.549-29.885-41.431 13.38-41.431 29.885-41.431 29.885 18.549 29.885 41.431z" fill="#80e5ff" stroke="#000" stroke-width="3.5729"/>
  <path transform="matrix(.30673 0 0 .22077 26.731 -10.677)" d="m373.56 406.5c-10.059 0-18.219 9.6574-18.219 21.567s8.1599 21.567 18.219 21.567 18.219-9.6574 18.219-21.567-8.1599-21.567-18.219-21.567zm-0.3125 2.8303c9.2742 0 16.812 8.2845 16.812 18.482s-7.5383 18.453-16.812 18.453-16.781-8.2562-16.781-18.453 7.507-18.482 16.781-18.482z" fill="url(#c)" filter="url(#d)" opacity=".5"/>
  <path transform="matrix(.14281 0 0 .12655 96.013 1.7709)" d="m343.67 636.02c0 22.882-13.38 41.431-29.885 41.431s-29.885-18.549-29.885-41.431 13.38-41.431 29.885-41.431 29.885 18.549 29.885 41.431z" filter="url(#f)"/>
  <path transform="matrix(.08642 0 0 .0716 111.65 33.35)" d="m343.67 636.02c0 22.882-13.38 41.431-29.885 41.431s-29.885-18.549-29.885-41.431 13.38-41.431 29.885-41.431 29.885 18.549 29.885 41.431z" fill="#fff" filter="url(#g)"/>
  <path transform="matrix(.30673 0 0 -.23062 26.637 176.96)" d="m373.56 406.5c-10.059 0-18.219 9.6574-18.219 21.567s8.1599 21.567 18.219 21.567 18.219-9.6574 18.219-21.567-8.1599-21.567-18.219-21.567zm-0.3125 2.8303c9.2742 0 16.812 8.2845 16.812 18.482s-7.5383 18.453-16.812 18.453-16.781-8.2562-16.781-18.453 7.507-18.482 16.781-18.482z" fill="url(#b)" filter="url(#h)"/>
  <path d="m153.05 122.4s3.471-0.29439 5.3159 0.55706 3.8316 1.7029 4.9668 1.7029 4.1363-1.2055 6.244-3.5477c2.4556-2.7289 4.1532-7.9035 2.6857-10.85-1.4574-2.9266-7.5503-3.5584-7.5106-3.6244 0 0 6.363 2.1507 6.2211 5.1308s-4.3164 8.0949-6.2211 9.2021c-2.4777 1.4402-3.3885-0.4601-7.3035-1.0154-1.6754-0.23764-4.9668-0.0238-4.9668-0.0238z" opacity=".2"/>
  <path transform="matrix(1.5128 0 0 1.5128 -65.441 -51.455)" d="m133.52 95.685c0 1.772-2.1547 3.2085-4.8128 3.2085s-4.8127-1.4365-4.8127-3.2085 2.1547-3.2085 4.8127-3.2085 4.8128 1.4365 4.8128 3.2085z" fill="#2b0000"/>
  <path transform="matrix(1.2367 0 0 1.2367 -31.234 -25.589)" d="m133.52 95.685c0 1.772-2.1547 3.2085-4.8128 3.2085s-4.8127-1.4365-4.8127-3.2085 2.1547-3.2085 4.8127-3.2085 4.8128 1.4365 4.8128 3.2085z" fill="#500"/>
  <path d="m113.55 126.91s6.7287 7.3566 16.247 7.7622c9.0994 0.38782 16.969-3.6104 16.969-3.6104s-7.137 5.5593-16.959 5.5242c-2.3536-8e-3 -7.7722-1.9138-7.7722-1.9138 1.5624 2.2102 2.0447 5.9826-0.32592 8.0898-0.80482 0.65474-5.0083 1.7488-7.6904 1.043 2.4377-1.7652 5.304-2.1162 5.922-9.8867-2.8863-2.4874-4.3637-4.693-6.39-7.0084z" fill-opacity=".2"/>
  <path transform="matrix(-.43388 0 0 .43388 138.44 114.46)" d="m69.529-44.518c0 5.8105-4.7104 10.521-10.521 10.521s-10.521-4.7104-10.521-10.521 4.7104-10.521 10.521-10.521 10.521 4.7104 10.521 10.521z" fill-opacity=".15" stroke="#800000" stroke-width=".05"/>
  <path transform="matrix(-.43388 0 0 .43388 174.1 115.29)" d="m69.529-44.518c0 5.8105-4.7104 10.521-10.521 10.521s-10.521-4.7104-10.521-10.521 4.7104-10.521 10.521-10.521 10.521 4.7104 10.521 10.521z" fill-opacity=".15" stroke="#800000" stroke-width=".05"/>
  <path d="m150.33 110.44s5.844 25.367 6.2783 27.249 0.0627 5.6072-0.15253 6.4232c-0.58285 2.21-5.058 3.4188-6.3606 3.2741s-7.8158-0.14474-8.6842-0.57895 11.289 0.86842 11.289-3.3289-3.3679-32.694-3.3679-32.694z" fill-opacity=".2"/>
 </g>
</svg>
