<?xml version="1.0" encoding="UTF-8"?>
<svg viewBox="0 0 187.23364 242.65337" xmlns="http://www.w3.org/2000/svg">
 <path d="m0.4041 5.3182 9.2452 17.472 1.9811 78.079 7.9245 7.6441 10.566 0.54601 8.5849 8.1901 5.9434 12.558s-4.6226 8.1901-3.3019 14.742c-5.9434 6.5521-4.6226 9.7209-4.6226 9.7209l-0.66037 25.223-7.9245 12.558 42.264 46.956s81.886 11.466 106.32-8.7361c-9.9056-16.38-9.2452-15.834-9.2452-15.834l-2.6415-53.509s24.434-22.386 21.792-50.232c0.66038-1.092-0.66036-10.374-0.66036-10.374s1.3208-6.5521-0.66037-10.92c-0.55254-1.2182-5.5701-4.0732-12.433-7.219-9.9309-4.5521-23.227-9.1611-23.227-9.1611l1.3208-49.14 7.9245-18.564-15.849-4.914-138.02 2.73-4.6226 2.184z" fill="#f9f9f9" fill-rule="evenodd" stroke="#000" stroke-width=".8082"/>
 <path d="m0.4041 6.4102z" fill="none" stroke="#000" stroke-width=".8082"/>
 <path d="m36.725 181.13 40.943 38.766s68.679 10.92 88.49-4.9141" fill="none" stroke="#000" stroke-width=".8082"/>
 <path d="m17.574 32.072 23.113-0.54601s6.6038 5.46 0.66038 6.5521-11.887-0.546-11.887-0.546h-7.9245l-3.9622-5.46z" fill-rule="evenodd" stroke="#000" stroke-width=".8082"/>
 <path d="m9.6494 23.882 5.283 1.638 135.38-2.73h0.66037" fill="none" stroke="#000" stroke-width=".8082"/>
 <path d="m15.593 25.52-7.9245-17.472 149.91-3.276" fill="none" stroke="#000" stroke-width=".8082"/>
 <path d="m2.3852 5.3182 5.9434 3.822" fill="none" stroke="#000" stroke-width=".8082"/>
 <path d="m32.781 87.234s72.75 41.583 153 14.642" fill="none" stroke="#000" stroke-width=".84237"/>
 <path d="m34.079 98.136s60.368 40.961 151.89 15.292" fill="none" stroke="#000" stroke-width=".80139"/>
 <path d="m149.65 72.478-117.61 6.0057 1.9934 28.39" fill="none" stroke="#000" stroke-width=".81068"/>
 <path d="m44.278 129.96s16.881 28.24 33.39 34.246 80.194 5.6346 87.458-3.1015" fill="none" stroke="#000" stroke-width=".8082"/>
 <path d="m97.772 240.93c-4.5401-0.27217-12.415-0.92699-17.5-1.4552l-9.2452-0.96032-13.345-14.742c-7.34-8.1082-16.791-18.599-21.002-23.312l-7.6566-8.5704 3.5191-5.4318 3.5191-5.4318 1.3036 1.4796c0.71699 0.81378 10.006 9.7119 20.642 19.774l19.338 18.294 10.379 1.1945c19.677 2.2646 39.623 2.9267 51.669 1.7148 11.582-1.165 21.624-3.961 25.737-7.1658l1.6509-1.2862 4.4803 7.6304 4.4803 7.6304-1.5086 0.97838c-6.5871 4.2719-15.749 7.0228-29.905 8.9794-7.2182 0.9977-34.593 1.398-46.556 0.68086z" fill="#808080" stroke="#000" stroke-width="1.201"/>
 <path d="m25.359 108.29c-5.8594-0.42362-5.2628-0.10691-11.143-5.9156l-1.8434-1.8208-0.8498-31.486c-0.46737-17.317-0.8655-34.338-0.88473-37.825l-0.03496-6.3397 2.612 0.57644c1.8878 0.41662 21.111 0.21644 69.328-0.72197 36.694-0.71413 66.902-1.1446 67.13-0.95659s0.19285 10.941-0.07674 23.896c-0.4849 23.301-0.50521 23.559-1.8883 24.004-0.76894 0.24726-26.955 1.7268-58.19 3.2878s-56.96 2.9971-57.166 3.1912 0.06659 6.677 0.60445 14.406c0.93641 13.457 0.92689 14.1-0.22416 15.152-0.66114 0.60402-2.1837 0.31456-1.9665 0.2768 2.3843-0.41463-2.4448 0.48932-5.4066 0.27521zm17.455-70.192c1.9458-1.1269 1.8801-3.2409-0.16979-5.463l-1.6375-1.775-12.065 0.29459c-6.6359 0.16202-12.172 0.37036-12.302 0.46297s0.85038 1.6476 2.1787 3.4556l2.4151 3.2872 5.7458 0.18159c13.773 0.43528 14.344 0.41927 15.835-0.44383z" fill="#ccc" stroke="#000" stroke-width=".71607"/>
 <path d="m14.932 24.428 3.9623 82.447 1.3207 0.54601" fill="none" stroke="#000" stroke-width=".8082"/>
 <path d="m15.148 102.65-2.6152-2.3244-0.8395-27.545c-0.46169-15.15-0.83577-31.905-0.83124-37.233 0.00792-9.3221 0.85434-8.6269-0.37987-9.3166-1.3296-0.74297 4.4517-1.4869 4.4682-0.90227 0.01486 0.52534-0.141 19.757 1.0158 40.92s2.0344 38.535 1.9502 38.602-1.33-0.92292-2.7684-2.2013z" fill="#4d4d4d" stroke="#000" stroke-width=".56105"/>
 <path d="m12.093 24.009c-0.99883-0.30583-1.816-0.77958-1.816-1.0528s-1.9316-4.1686-4.2924-8.6564-4.2924-8.2874-4.2924-8.4435 3.157 1.7112 4.7454 2.7873c2.6026 1.7632 1.3659 1.5783 4.4232 8.2894 1.8659 4.096 3.3151 7.4888 3.2205 7.5397s-0.98932-0.15777-1.9881-0.46361v-1e-5z" fill="#4d4d4d" stroke="#000" stroke-width=".53202"/>
</svg>
