<?xml version="1.0" encoding="UTF-8"?>
<svg viewBox="0 0 640 480" xmlns="http://www.w3.org/2000/svg">
 <g fill-rule="evenodd">
  <g fill="#cbe6f2" stroke="#003f7f" stroke-opacity=".5">
   <g stroke-width="2.413">
    <path d="m520.7 71.409c-5.0015-29.226 13.066-56.704 40.353-61.367 27.286-4.6635 53.454 15.253 58.443 44.482 5.0015 29.226-13.066 56.704-40.353 61.367-27.286 4.6635-53.454-15.253-58.443-44.482z"/>
    <path d="m106.21 71.277c1.8592-29.593-19.034-54.989-46.661-56.719-27.628-1.7298-51.525 20.862-53.372 50.456-1.8592 29.593 19.034 54.989 46.661 56.719 27.628 1.7298 51.525-20.862 53.372-50.456z"/>
   </g>
   <path d="m113.98 51.01c-17.173 3.977-43.948 11.552-51.822 1.3828-5.6182-7.8594 19.416-13.901 1.239-20.972-19.008-7.0043-42.482 6.4568-42.704 35.786-0.17204 26.497 20.173 53.6 80.028 38.554l13.259-54.75z" stroke-width="3.169"/>
  </g>
  <path d="m54.334 38.327c-34.228-7.4314-39.981 64.511 16.657 29.179-13.731-3.6757-32.528-2.021-16.657-29.179z" fill="#e5f2f8" stroke-width="1.25"/>
  <path d="m94.208 57.337c40.325 148.6 7.3849 234.75-2.0601 292.94-4.5358 27.942-17.535 128.73-20.037 156.79 39.632-0.336 72.437 108.66 253.24 90.9 160.22-82.007 176.52-174.96 207.43-371.47 7.401-46.1 40.103-79.149 0.81201-168.04l-439.38-1.1241z" fill="#ffaad4" stroke="#ff7f00" stroke-width="6.407"/>
  <path d="m481.73 56.095c24.103 4.2224 58.824 11.953 58.148-0.89023-2.1487-40.142 63.761-35.124 64.189 6.8624-0.19812 31.85-38.555 66.432-134.13 48.597l11.796-54.569z" fill="#cbe6f2" stroke="#003f7f" stroke-opacity=".5" stroke-width="3.169"/>
  <path d="m558.61 37.114c20.798-5.9755 33.495 5.3139 36.183 17.285 7.2667 33.047-78.752 35.331-59.299 22.241 31.375-20.647 3.1409-33.985 23.116-39.526z" fill="#e5f2f8" stroke-width="1.25"/>
  <path d="m124.44 296.83c19.053 60.63-19.581 187.09 5.026 254.59s273.27 68.236 390.77 49.384c1.21-19.33-0.62701 21.5 1.655-44.716s11.485-139.97 6.31-197.54c-5.174-57.565 8.114-121.98 0.89398-152.58-21.213-88.44-15.342-144.76 5.904-144.61-8.101-28.338-98.877-5.6217-124.66-11.614-97.206-22.32-181.95-57.456-220.58-13.234-17.38 20.571-90.988 4.8888-104.7 21.894-21.327 26.444 20.332 177.8 39.385 238.43z" fill="#fff" stroke="#ff7f00" stroke-width="6.407"/>
  <g fill="#ff7f00" fill-opacity=".5" stroke-width="1.25">
   <path d="m205.15 34.997c-6.4082 5.0321-2.5563 9.1402-29.88 24.04-46.745 23.782 45.888 136.84 53.761 275.64 2.4337 43.576 19.606 204.76-16.673 254.31-3.9061 5.6034 19.663 10.195 23.546 5.0574 28.196-35.864 6.8528-229.41 5.5482-282.83-3.5503-106.51-75.436-220.83-47.362-243.51 19.704-15.007 26.138-45.528 11.058-32.707z"/>
   <path d="m142.76 60.108c-19.732 46.59 47.013 169.02 54.73 260.16 3.7553 43.486 24.755 206.12-11.524 255.67-3.9061 5.6033 17.32 14.192 21.202 9.054 28.195-35.864 12.687-210.58 9.6009-263.93-4.9727-83.808-87.567-236.18-54.606-261.57 10.422-8.7839-15.425-6.2451-19.403 0.61871z"/>
   <path d="m89.842 69.224c-19.733 46.59 22.272 162.43 46.521 219.39 24.249 56.957-5.2877 208.16-5.5583 236.85-0.27057 28.695 29.958 58.01 26.145 12.372-3.8134-45.638 27.425-184.46-7.1442-267.58-34.569-83.113-53.034-166.31-49.558-208.43 0.78651-7.3218-6.4277 0.53281-10.405 7.3966z"/>
   <path d="m111.15 63.308c-19.732 46.59 61.57 190.87 62.223 257.52 0.65355 66.654 7.3857 203.71-5.1416 225.29-12.526 21.578 7.5413 31.93 11.425 26.791 28.195-35.864 8.6185-193.32 7.3852-262-1.2332-68.675-76.789-190.97-56.489-248.22 4.7436-12.711-15.424-6.2456-19.403 0.6181z"/>
   <path d="m236.23 23.478c-10.969 2.4629-6.4921 32.442-16.25 40.43-52.858 41.373 35.764 97.888 32.961 256.72-1.0568 43.626 25.484 227.91-10.795 277.46-3.9057 5.6037 27.336 11.981 30.781 6.5461 8.0048-14.342-14.772-250.31-8.865-303.41 13.585-112.68-54.684-203.67-22.068-229.5 15.958-13.616 6.6117-50.74-5.764-48.261z"/>
   <path d="m270.71 24.601c-16.944-6.418 2.582 16.62-6.7359 38.954-28.001 67.994 20.898 37.83 11.266 268.83-2.5969 62.171 17.133 210.82 7.3198 272.38-0.95956 6.7443 28.386 9.6537 27.847 3.2563-17.723-222.07-20.587-220-20.124-274.08 3.1942-231.07 12.053-175.81 1.2428-267.4-2.3821-22.309-3.3996-35.027-20.816-41.953z"/>
   <path d="m304.6 35.009c-16.944-6.4181 1.5402 14.226 2.5196 41.605 3.8074 77.35 6.9438 26.599-7.9004 257.27-3.9954 62.096 25.41 212.37 19.833 273.17-0.50592 6.7924 31.476 6.571 30.126 0.29071-36.723-169.4-39.915-192.22-39.658-246.3 1.6248-122.41 25.212-161.4 24.579-255.58 0.87839-24.426-12.083-63.536-29.498-70.462z"/>
   <path d="m334.73 39.307c-11.47-1.582 9.9818 19.404 10.962 46.782 3.8071 77.35-2.6348 74.908-23.126 244.13-8.2965 68.829 6.7952 140.6 33.581 279.16 1.2999 6.6864 22.614 4.7298 21.253-1.5476-35.085-164.8-45.318-238.74-39.575-288.66 9.3222-80.728 29.604-118.76 28.972-212.94 0.87766-24.425-13.513-64.285-32.067-66.926z"/>
   <path d="m361.67 49.703c31.548 60.256 10.324 117.05-14.887 283.31-13.866 91.989 27.328 137.94 36.538 272.93 0.47006 6.7944 19.166 6.6059 18.576 0.20904-6.626-70.245-6.3856-90.475-21.514-136.99-10.466-29.461-35.523-63.283-13.656-163.07 28.476-125.76 39.78-130.37 22.519-221.56-6.3285-33.872-31.226-42.004-27.577-34.835z"/>
   <path d="m394.27 65.362c20.523 71.184 16.505 131.74-18.162 263.14-26.948 98.653 27.839 115.28 35.577 273.78 0.29288 6.8049 10.309 7.9326 10.324 1.5088 0.15814-91.608-0.88568-118.96-18.742-152.25-33.716-63.479-2.4458-121.21 19.921-220.88 11.852-48.727-9.1762-86.258-11.906-164.7-0.51599-11.153-20.704-13.971-17.012-0.58523z"/>
   <path d="m422.31 67.117c-10.447 47.31 40.455 88.35 2.1896 213.57-20.913 69.585-26.483 83.353-24.421 115.45 5.068 80.658 44.208 37.477 28.004 205.34-0.69074 6.7759 16.127 5.5782 16.824-0.80792 10.275-93.698 14.954-127.88-5.5733-159.6-26.993-40.363-4.8767-111.37 17.49-211.05 11.851-48.727-28.21-110.58-13.715-164.82 1.6739-6.3424-19.363-8.753-20.799 1.9012z"/>
   <path d="m455.14 64.634c-18.983 67.655 31.148 100.31-2.2772 226.91-21.988 86.766-16.819 129.17-1.0677 157.22 14.06 24.03 24.073 31.316-1.8471 151.37-1.4305 6.6589 8.481 27.144 26.574-49.372s18.67-69.917 5.1911-105.21c-25.237-68.396-17.249-87.243 1.0975-181.21 13.546-69.834-30.922-110.75-1.1637-205.79 2.0154-6.242-23.575-4.26-26.507 6.0828z"/>
   <path d="m489 60.399c-27.521 102.52 22.894 114.54-1.94 250.53-12.874 70.191-3.1371 136.73 12.614 164.78 14.06 24.029-42.312 110.63-15.424 121.67 26.888 11.038 7.7436-0.93927 15.799-42.426 8.0551-41.487 26.529-1.9464 10.833-122.82-15.696-120.88-7.7472-60.775 3.662-152.54 10.497-84.881-30.321-134.86-5.5362-222.95 1.7636-6.3178-17.134-6.593-20.008 3.7663z"/>
  </g>
 </g>
</svg>
