<?xml version="1.0" encoding="UTF-8"?>
<svg viewBox="0 0 744.09447 1052.362179" xmlns="http://www.w3.org/2000/svg" xmlns:xlink="http://www.w3.org/1999/xlink">
 <defs>
  <linearGradient id="d">
   <stop stop-color="#ccc" offset="0"/>
   <stop stop-color="#ccc" stop-opacity="0" offset="1"/>
  </linearGradient>
  <linearGradient id="c">
   <stop stop-color="#fff" offset="0"/>
   <stop stop-color="#fff" stop-opacity="0" offset="1"/>
  </linearGradient>
  <linearGradient id="a">
   <stop stop-color="#333" offset="0"/>
   <stop stop-color="#333" stop-opacity="0" offset="1"/>
  </linearGradient>
  <linearGradient id="b">
   <stop stop-color="#b3b3b3" offset="0"/>
   <stop stop-color="#b3b3b3" stop-opacity="0" offset="1"/>
  </linearGradient>
  <linearGradient id="r" x1="278.07" x2="350.92" y1="629.84" y2="632.69" gradientUnits="userSpaceOnUse" xlink:href="#b"/>
  <linearGradient id="q" x1="472.44" x2="399.58" y1="610.85" y2="607.99" gradientUnits="userSpaceOnUse" xlink:href="#b"/>
  <linearGradient id="p" x1="410.71" x2="410" y1="89.505" y2="80.576" gradientUnits="userSpaceOnUse" xlink:href="#a"/>
  <linearGradient id="o" x1="463.93" x2="450.71" gradientUnits="userSpaceOnUse" xlink:href="#a"/>
  <linearGradient id="n" x2="0" y1="74.148" y2="83.434" gradientUnits="userSpaceOnUse" xlink:href="#d"/>
  <linearGradient id="m" x2="0" y1="123.08" y2="117.01" gradientUnits="userSpaceOnUse" xlink:href="#c"/>
  <linearGradient id="l" x1="617.2" x2="518.21" y1="279.6" y2="308.38" gradientUnits="userSpaceOnUse" xlink:href="#a"/>
  <linearGradient id="k" x1="181.32" x2="271.23" y1="275.55" y2="277.07" gradientUnits="userSpaceOnUse" xlink:href="#a"/>
  <linearGradient id="j" x1="408.66" x2="407.23" y1="221.44" y2="270.01" gradientUnits="userSpaceOnUse" xlink:href="#c"/>
  <linearGradient id="i" x2="0" y1="333.46" y2="292.03" gradientUnits="userSpaceOnUse" xlink:href="#b"/>
  <linearGradient id="h" x2="0" y1="196.65" y2="276.65" gradientUnits="userSpaceOnUse" xlink:href="#a"/>
  <linearGradient id="g" x1="382.86" x2="385.71" y1="409.51" y2="325.22" gradientUnits="userSpaceOnUse" xlink:href="#b"/>
  <radialGradient id="f" cx="388.57" cy="838.08" r="254.29" gradientTransform="matrix(1 0 0 .48315 0 433.16)" gradientUnits="userSpaceOnUse" xlink:href="#d"/>
  <radialGradient id="e" cx="35.714" cy="439.51" r="211.81" gradientTransform="matrix(1 0 0 .17645 361.43 203.38)" gradientUnits="userSpaceOnUse" xlink:href="#c"/>
 </defs>
 <path transform="matrix(1.1152 0 0 1.436 -68.323 -377.58)" d="m642.86 838.08a254.29 122.86 0 1 1 -508.57 0 254.29 122.86 0 1 1 508.57 0z" fill="url(#f)"/>
 <path d="m445.48 836.19c-63.367 39.502-106.65 36.841-152.53-10.102 8.6253-146.81 33.727-297.66 18.183-444.47 66.581 13.471 120.27 15.122 154.55-1.0102-30.518 152.52-19.579 305.55-20.203 455.58z" fill="#e6e6e6"/>
 <path d="m445.66 838.14c-63.367 39.502-106.65 36.841-152.53-10.102 8.6253-146.81 33.727-297.66 18.183-444.47 66.581 13.471 120.27 15.122 154.55-1.0102-30.518 152.52-19.579 305.55-20.203 455.58z" fill="url(#r)"/>
 <path d="m444.32 836.29c-63.367 39.502-106.65 36.841-152.53-10.102 8.6253-146.81 33.727-297.66 18.183-444.47 66.581 13.471 120.27 15.122 154.55-1.0102-30.518 152.52-19.579 305.55-20.203 455.58z" fill="url(#q)"/>
 <path d="m317.69 387.68c51.554 12.471 99.936 9.0844 147.48 1.5152 152.23-41.329 175.71-73.993 190.41-106.07 0.34347-6.9027-5.5437-14.816-17.173-21.718l-505.08 7.5761c1.0821 6.4336 0.41973 14.015 4.0406 21.718 60.104 76.793 120.21 82.25 180.31 96.975z" fill="#e6e6e6"/>
 <path d="m317.51 387.07c51.554 12.471 99.936 9.0844 147.48 1.5152 152.23-41.329 175.71-73.993 190.41-106.07 0.34347-6.9027-5.5437-14.816-17.173-21.718l-505.08 7.5761c1.0821 6.4336 0.41973 14.015 4.0406 21.718 60.104 76.793 120.21 82.25 180.31 96.975z" fill="url(#g)"/>
 <path d="m583.36 318.49c135.47-35.983 47.951-72.468-69.195-97.48-112.17 0.69907-223.24-1.3509-337.9 5.5558-81.176 45.728-41.764 81.028 81.317 101.52 109.32 1.1989 219.04 4.7208 325.77-9.5964z" fill="#999"/>
 <path d="m586.2 318.53c135.47-35.983 47.951-72.468-69.195-97.48-112.17 0.69907-223.24-1.3509-337.9 5.5558-81.176 45.728-41.764 81.028 81.317 101.52 109.32 1.1989 219.04 4.7208 325.77-9.5964z" fill="url(#h)"/>
 <path d="m260.62 249.96c-41.759-3.5078-135.03 45.975 0 73.577 96.136 9.7943 191.06 5.051 285.87-1.0511 131.33-24.548 42.194-63.523-28.284-76.731z" fill="#fff"/>
 <path d="m261.54 252.98c-41.759-3.3711-135.03 44.184 0 70.711 94.225 5.5281 188.98 8.1487 285.87-1.0102 131.33-23.591 42.194-61.048-28.284-73.741z" fill="url(#i)"/>
 <path d="m261.54 249.53c-41.759-3.3711-135.03 44.184 0 70.711l285.87-1.0102c131.33-23.591 42.194-61.048-28.284-73.741z" fill="url(#j)"/>
 <path d="m255 327.36c110.88 6.3757 219.6 4.0969 325.71-8.5714 25.306-7.2902 52.513-10.395 70.099-34.67 0.82182-1.1344-1.5917-13.744 2.4012-3.5446 0.66917 4.1762 3.115 0.82057-0.35714 6.7857-16.896 22.313-45.595 28.889-73.571 36.429-106.59 13.649-216.06 13.615-326.43 9.2857-40.082-5.4638-79.296-13.932-114.29-41.429-4.8362-6.1905-5.5771-12.381-5.7143-18.571 15.386 30.591 77.67 48.769 122.14 54.286z" fill="#fff"/>
 <path d="m179.29 227.72c112.86-2.5221 225.71-2.4122 338.57-5 44.986 12.932 93.476 19.865 127.86 44.286-38.489-23.605-84.431-29.821-128.21-41.071l-338.21 6.7857c-25.281 10.243-43.996 23.264-44.643 43.929 3.7822-12.224-4.1061-17.818 44.643-48.929z" fill="#fff"/>
 <path d="m255.74 247.6c-41.759-3.3711-135.03 44.184 0 70.711l285.87-1.0102c131.33-23.591 42.194-61.048-28.284-73.741z" fill="url(#e)"/>
 <path d="m281.52 249 13.476 75.505c-23.692 0.89029-47.318-2.4525-69.648-10.7-12.35-4.5614-33.015-12.371-34.638-26.443 1.0349-11.847 9.5468-17.769 19.524-24.174 20.004-12.842 62.994-16.367 71.286-14.188z" fill="url(#k)"/>
 <path d="m508.47 246.94-0.59173 78.153c25.623-2.5402 63.539-8.4672 84.019-15.378 10.907-3.68 24.303-11.218 20.96-21.643-4.6446-11.518-18.571-17.207-30.402-23.124-18.524-9.2638-49.758-17.234-73.985-18.009z" fill="url(#l)"/>
 <g transform="translate(-82.833 117.18)">
  <path d="m396.79 122.72 12.5 3.5714 119.64-0.71429 9.6428-1.0714 3.2143-1.7857-0.3571-5-3.5714 2.1428h-14.286l-113.57 2.5-13.929-4.6428z" fill="#333"/>
  <path d="m396.07 117.72 8.5714 4.6429 127.14-1.0714 7.8571-0.71429 1.0715-2.1428-11.072-6.4286-122.86-0.71429z" fill="#333"/>
  <path d="m431.79 91.648c11.659-6.9339 21.427-7.6784 27.857 2.5l0.3571 22.143c-8.9384 3.743-19.162 2.6646-30-0.71428z" fill="#b3b3b3"/>
  <path d="m437.68 78.255-61.607 0.35714-0.17857 4.6429 61.964-1.0714z" fill="#808080"/>
  <path d="m381.79 71.291 48.929 1.7857c1.9803 4.1667 4.5026 8.3333 1.4286 12.5l-47.857 4.2857c4.739-8.1287 3.7127-14.252-2.5-18.571z" fill="#ccc"/>
  <path d="m437.86 77.541 1.6072-1.7857 2.8571 0.35714 3.2143-1.0714 2.5 1.4286 2.6786-1.25 2.5 1.25 2.1428 0.71429 1.9643 1.7857 0.1786 4.4643-3.75 1.7857-0.5357 2.3214-11.607-0.35714 0.7143-2.6786-2.3214-1.6071-1.9643-1.0714z" fill="#808080"/>
  <path transform="translate(-560 34.286)" d="m946.96 46.559c0 5.079-2.3185 9.1964-5.1786 9.1964s-5.1786-4.1174-5.1786-9.1964 2.3185-9.1964 5.1786-9.1964 5.1786 4.1174 5.1786 9.1964z" fill="#e6e6e6"/>
  <path d="m372.86 77.184 3.75 0.89286 1.4286 3.75-0.35715 2.3214-2.1428 1.7857h-2.8572l-1.6071-1.7857-0.71429-2.8571 0.89286-2.5z" fill="#808080"/>
  <path d="m503.39 90.219 4.1071 17.5c7.8531-1.1303 15.765-3.1419 23.393-0.89285l-6.7858-18.393-8.9285-6.4286-12.5 2.8571-13.036 11.071-4.8215-3.0357-0.8928-3.3929 0.1785-1.6071-7.3214 2.3214-4.2857 6.6071-1.4286 5.8928 0.7143 7.3214 0.7143 5.8929h24.643l0.3571-3.3929h-7.8571l-11.072-3.2143-4.6428-5.7143 2.3214-3.5714 8.9286-0.53571 8.3928-3.2143 6.25-3.75z" fill="#b3b3b3"/>
  <path d="m484.29 88.076 6.25-0.17857 5.8929 0.89286 0.3571 0.53571-6.6071 6.6071-4.6429-2.5-1.6071-3.9286z" fill="#e6e6e6"/>
  <path d="m510.89 106.65 17.5-0.89285-2.6786-8.0357-3.0357-5-4.4643-3.0357-4.4643 1.4286-3.0357 2.8571v5.1786l-0.3572 4.8214z" fill="#ccc"/>
  <path d="m507.5 112.9 6.7857-1.4286c4.8575-0.52126 9.8117-1.1634 13.75-0.53571l3.5714 1.7857c1.7018-0.44324 2.3257-1.5332 2.8572-2.6786-0.7598-1.6491-1.6247-2.9833-2.8572-3.2143-8.656-2.107-16.575-0.89692-24.286 1.25l-2.1428 1.7857 0.8928 2.5 2.5 0.35714 0.8929 6.9643c6.2671-1.8705 13.377-2.0559 21.071-1.0714l-0.3571-6.6071c-3.5848-0.96523-7.3679-1.2361-11.429-0.53572l-10.179 1.25" fill="#808080"/>
  <path d="m497.14 112.18 5.1785-5 3.9286-3.2143-2.8571-13.571-18.393 8.9286-8.75 0.53571-2.3214 4.1071 4.1071 5 11.429 3.2143z" fill="#666"/>
  <path d="m381.6 71.291 48.929 1.7857c1.9803 4.1667 4.5026 8.3333 1.4286 12.5l-47.857 4.2857c4.739-8.1287 3.7127-14.252-2.5-18.571z" fill="url(#p)"/>
  <path d="m431.43 91.098c11.659-6.9339 21.427-7.6784 27.857 2.5l0.3571 22.143c-8.9384 3.743-19.162 2.6646-30-0.71429z" fill="url(#o)"/>
  <path d="m438.39 77.541 1.6072-1.7857 2.8571 0.35714 3.2143-1.0714 2.5 1.4286 2.6786-1.25 2.5 1.25 2.1428 0.71429 1.9643 1.7857 0.1786 4.4643-3.75 1.7857-0.5357 2.3214-11.607-0.35714 0.7143-2.6786-2.3214-1.6071-1.9643-1.0714z" fill="url(#n)"/>
  <path transform="translate(5.3571 31.786)" d="m525.36 88.791c0 1.1835-4.637 2.1429-10.357 2.1429s-10.357-0.95939-10.357-2.1429 4.637-2.1429 10.357-2.1429 10.357 0.95939 10.357 2.1429z" fill="#ccc"/>
  <path d="m395.54 117.54 8.5714 4.6429 127.14-1.0714 7.8571-0.71429 1.0715-2.1428-11.072-6.4286-122.86-0.71429z" fill="url(#m)"/>
 </g>
</svg>
